<?xml version="1.0" encoding="utf-8"?>
<!-- Generator: Adobe Illustrator 16.0.0, SVG Export Plug-In . SVG Version: 6.00 Build 0)  -->
<!DOCTYPE svg PUBLIC "-//W3C//DTD SVG 1.1//EN" "http://www.w3.org/Graphics/SVG/1.1/DTD/svg11.dtd">
<svg version="1.1" id="Layer_1" xmlns="http://www.w3.org/2000/svg" xmlns:xlink="http://www.w3.org/1999/xlink" x="0px" y="0px"
	 width="178.58px" height="249.45px" viewBox="0 0 178.58 249.45" enable-background="new 0 0 178.58 249.45" xml:space="preserve">
<path fill="#FFFFFF" d="M9.359,1.32h160.777c4.696,0,8.504,3.808,8.504,8.504v231.644c0,4.696-3.808,8.504-8.504,8.504H9.359
	c-4.697,0-8.504-3.808-8.504-8.504V9.824C0.855,5.128,4.662,1.32,9.359,1.32z"/>
<path fill="none" stroke="#000000" stroke-width="1.0006" d="M9.359,1.32h160.777c4.696,0,8.504,3.808,8.504,8.504v231.644
	c0,4.696-3.808,8.504-8.504,8.504H9.359c-4.697,0-8.504-3.808-8.504-8.504V9.824C0.855,5.128,4.662,1.32,9.359,1.32z"/>
<path fill="#D40000" d="M14.568,57.12c-1.722-2.846-3.532-5.612-5.795-7.975c2.263-2.362,4.073-5.129,5.795-7.975
	c1.721,2.846,3.531,5.612,5.794,7.975C18.1,51.508,16.289,54.274,14.568,57.12z"/>
<path fill="#D40000" d="M130.977,65.67c-4.131-6.83-8.477-13.468-13.906-19.139c5.43-5.67,9.775-12.309,13.906-19.139
	c4.131,6.83,8.476,13.469,13.906,19.139C139.452,52.202,135.107,58.84,130.977,65.67z"/>
<path fill="#D40000" d="M164.929,210.121c-1.721-2.846-3.531-5.611-5.794-7.975c2.263-2.362,4.073-5.129,5.794-7.975
	c1.722,2.846,3.532,5.612,5.795,7.975C168.461,204.51,166.65,207.275,164.929,210.121z"/>
<path fill="#D40000" d="M48.52,65.67c-4.13-6.83-8.476-13.468-13.906-19.139c5.431-5.67,9.776-12.309,13.906-19.139
	c4.131,6.83,8.477,13.469,13.906,19.139C56.996,52.202,52.65,58.84,48.52,65.67z"/>
<path fill="#D40000" d="M130.977,118.419c-4.131-6.83-8.477-13.468-13.906-19.139c5.43-5.671,9.775-12.309,13.906-19.139
	c4.131,6.83,8.476,13.468,13.906,19.139C139.452,104.951,135.107,111.589,130.977,118.419z"/>
<path fill="#D40000" d="M48.52,118.419c-4.13-6.83-8.476-13.468-13.906-19.139c5.431-5.671,9.776-12.309,13.906-19.139
	c4.131,6.83,8.477,13.468,13.906,19.139C56.996,104.951,52.65,111.589,48.52,118.419z"/>
<path fill="#D40000" d="M89.748,92.041c-4.131-6.829-8.477-13.468-13.906-19.139c5.431-5.67,9.775-12.309,13.906-19.139
	c4.131,6.83,8.476,13.469,13.906,19.139C98.224,78.573,93.879,85.212,89.748,92.041z"/>
<path fill="#D40000" d="M48.52,223.903c-4.13-6.83-8.476-13.468-13.906-19.139c5.431-5.67,9.776-12.309,13.906-19.139
	c4.131,6.83,8.477,13.469,13.906,19.139C56.996,210.436,52.65,217.073,48.52,223.903z"/>
<path fill="#D40000" d="M130.977,223.909c-4.131-6.83-8.477-13.468-13.906-19.139c5.43-5.671,9.775-12.309,13.906-19.139
	c4.131,6.83,8.476,13.468,13.906,19.139C139.452,210.441,135.107,217.079,130.977,223.909z"/>
<path fill="#D40000" d="M130.977,171.155c-4.131-6.83-8.477-13.468-13.906-19.139c5.43-5.671,9.775-12.309,13.906-19.139
	c4.131,6.83,8.476,13.468,13.906,19.139C139.452,157.688,135.107,164.325,130.977,171.155z"/>
<path fill="#D40000" d="M48.52,171.13c-4.13-6.83-8.476-13.469-13.906-19.139c5.431-5.671,9.776-12.309,13.906-19.139
	c4.131,6.83,8.477,13.468,13.906,19.139C56.996,157.661,52.65,164.3,48.52,171.13z"/>
<path fill="#D40000" d="M89.748,197.528c-4.131-6.83-8.477-13.469-13.906-19.139c5.431-5.671,9.775-12.309,13.906-19.139
	c4.131,6.83,8.476,13.468,13.906,19.139C98.224,184.06,93.879,190.698,89.748,197.528z"/>
<rect x="6.587" y="12.355" fill="#D40000" width="2.548" height="26.315"/>
<path fill="#D40000" d="M16.687,12.355c-2.452,0-4.424,2.242-4.424,5.028v16.259c0,2.785,1.973,5.027,4.424,5.027h1.432
	c2.452,0,4.428-2.242,4.428-5.027V17.384c0-2.786-1.977-5.028-4.428-5.028H16.687z M17.427,14.844c1.448,0,2.612,1.111,2.612,2.502
	V33.82c0,1.391-1.164,2.513-2.612,2.513s-2.616-1.122-2.616-2.513V17.346C14.811,15.956,15.979,14.844,17.427,14.844z"/>
<rect x="170.359" y="212.621" fill="#D40000" width="2.548" height="26.315"/>
<path fill="#D40000" d="M162.808,238.938c2.452,0,4.424-2.243,4.424-5.029v-16.259c0-2.786-1.973-5.027-4.424-5.027h-1.432
	c-2.452,0-4.428,2.241-4.428,5.027v16.259c0,2.786,1.977,5.029,4.428,5.029H162.808z M162.067,236.449
	c-1.448,0-2.612-1.112-2.612-2.503v-16.474c0-1.392,1.164-2.514,2.612-2.514s2.616,1.122,2.616,2.514v16.474
	C164.684,235.336,163.516,236.449,162.067,236.449z"/>
</svg>
