<?xml version="1.0" encoding="utf-8"?>
<!-- Generator: Adobe Illustrator 16.0.0, SVG Export Plug-In . SVG Version: 6.00 Build 0)  -->
<!DOCTYPE svg PUBLIC "-//W3C//DTD SVG 1.1//EN" "http://www.w3.org/Graphics/SVG/1.1/DTD/svg11.dtd">
<svg version="1.1" id="Layer_1" xmlns="http://www.w3.org/2000/svg" xmlns:xlink="http://www.w3.org/1999/xlink" x="0px" y="0px"
	 width="178.58px" height="249.45px" viewBox="0 0 178.58 249.45" enable-background="new 0 0 178.58 249.45" xml:space="preserve">
<path fill="#FFFFFF" d="M9.359,0.422h160.777c4.697,0,8.504,3.808,8.504,8.504v231.644c0,4.696-3.807,8.504-8.504,8.504H9.359
	c-4.697,0-8.504-3.808-8.504-8.504V8.926C0.855,4.229,4.662,0.422,9.359,0.422z"/>
<path fill="none" stroke="#000000" stroke-width="1.0006" d="M9.359,0.422h160.777c4.697,0,8.504,3.808,8.504,8.504v231.644
	c0,4.696-3.807,8.504-8.504,8.504H9.359c-4.697,0-8.504-3.808-8.504-8.504V8.926C0.855,4.229,4.662,0.422,9.359,0.422z"/>
<path fill="#D40000" d="M48.52,117.515c0,0-3.716-6.104-8.729-13.282c-3.354-4.804-6.034-10.005-6.284-14.484
	c-0.286-5.117,2.421-10.251,7.32-10.5c4.896-0.249,6.885,3.945,7.693,7.403c0.81-3.458,2.797-7.652,7.694-7.403
	c4.899,0.249,7.606,5.383,7.32,10.5c-0.249,4.479-2.931,9.681-6.284,14.484C52.236,111.41,48.52,117.515,48.52,117.515z"/>
<path fill="#D40000" d="M14.567,56.222c0,0-1.771-2.544-4.161-5.534c-1.6-2.002-2.878-4.169-2.996-6.035
	c-0.137-2.133,1.153-4.271,3.489-4.375c2.335-0.104,3.282,1.644,3.668,3.085c0.386-1.441,1.334-3.188,3.669-3.085
	c2.336,0.104,3.626,2.242,3.489,4.375c-0.118,1.866-1.397,4.033-2.996,6.035C16.34,53.678,14.567,56.222,14.567,56.222z"/>
<path fill="#D40000" d="M164.93,193.273c0,0-1.772,2.544-4.162,5.534c-1.6,2.001-2.877,4.169-2.996,6.035
	c-0.137,2.132,1.154,4.271,3.49,4.375c2.334,0.104,3.281-1.644,3.668-3.085c0.386,1.441,1.333,3.188,3.668,3.085
	c2.336-0.104,3.626-2.243,3.49-4.375c-0.119-1.866-1.397-4.034-2.996-6.035C166.701,195.817,164.93,193.273,164.93,193.273z"/>
<path fill="#D40000" d="M89.748,98.774c0,0-3.717-6.104-8.729-13.282c-3.354-4.803-6.035-10.004-6.284-14.484
	c-0.286-5.117,2.42-10.251,7.32-10.5c4.896-0.248,6.885,3.946,7.693,7.404c0.81-3.458,2.797-7.652,7.693-7.404
	c4.9,0.249,7.606,5.383,7.32,10.5c-0.249,4.48-2.93,9.682-6.284,14.484C93.465,92.67,89.748,98.774,89.748,98.774z"/>
<path fill="#D40000" d="M48.52,64.771c0,0-3.716-6.104-8.729-13.282c-3.354-4.804-6.034-10.005-6.284-14.484
	c-0.286-5.117,2.421-10.251,7.32-10.5c4.896-0.249,6.885,3.945,7.693,7.403c0.81-3.458,2.797-7.652,7.694-7.403
	c4.899,0.249,7.606,5.383,7.32,10.5c-0.249,4.479-2.931,9.681-6.284,14.484C52.236,58.667,48.52,64.771,48.52,64.771z"/>
<path fill="#D40000" d="M130.977,117.515c0,0-3.717-6.104-8.729-13.282c-3.354-4.804-6.035-10.005-6.284-14.484
	c-0.286-5.117,2.42-10.251,7.32-10.5c4.896-0.249,6.885,3.945,7.693,7.403c0.809-3.458,2.797-7.652,7.693-7.403
	c4.9,0.249,7.606,5.383,7.32,10.5c-0.249,4.479-2.93,9.681-6.284,14.484C134.693,111.41,130.977,117.515,130.977,117.515z"/>
<path fill="#D40000" d="M130.977,64.771c0,0-3.717-6.104-8.729-13.282c-3.354-4.804-6.035-10.005-6.284-14.484
	c-0.286-5.117,2.42-10.251,7.32-10.5c4.896-0.249,6.885,3.945,7.693,7.403c0.809-3.458,2.797-7.652,7.693-7.403
	c4.9,0.249,7.606,5.383,7.32,10.5c-0.249,4.479-2.93,9.681-6.284,14.484C134.693,58.667,130.977,64.771,130.977,64.771z"/>
<path fill="#D40000" d="M89.748,150.721c0,0-3.717,6.104-8.729,13.282c-3.354,4.803-6.035,10.004-6.284,14.483
	c-0.286,5.118,2.42,10.252,7.32,10.501c4.896,0.248,6.885-3.946,7.693-7.404c0.81,3.458,2.797,7.652,7.693,7.404
	c4.9-0.249,7.606-5.383,7.32-10.501c-0.249-4.479-2.93-9.681-6.284-14.483C93.465,156.825,89.748,150.721,89.748,150.721z"/>
<path fill="#D40000" d="M130.977,131.98c0,0-3.717,6.104-8.729,13.282c-3.354,4.804-6.035,10.004-6.284,14.484
	c-0.286,5.117,2.42,10.251,7.32,10.5c4.896,0.249,6.885-3.946,7.693-7.404c0.809,3.458,2.797,7.653,7.693,7.404
	c4.9-0.249,7.606-5.383,7.32-10.5c-0.249-4.48-2.93-9.681-6.284-14.484C134.693,138.085,130.977,131.98,130.977,131.98z"/>
<path fill="#D40000" d="M48.52,131.98c0,0-3.716,6.104-8.729,13.282c-3.354,4.804-6.034,10.004-6.284,14.484
	c-0.286,5.117,2.421,10.251,7.32,10.5c4.896,0.249,6.885-3.946,7.693-7.404c0.81,3.458,2.797,7.653,7.694,7.404
	c4.899-0.249,7.606-5.383,7.32-10.5c-0.249-4.48-2.931-9.681-6.284-14.484C52.236,138.085,48.52,131.98,48.52,131.98z"/>
<path fill="#D40000" d="M130.977,184.724c0,0-3.717,6.104-8.729,13.282c-3.354,4.803-6.035,10.004-6.284,14.484
	c-0.286,5.117,2.42,10.251,7.32,10.5c4.896,0.249,6.885-3.946,7.693-7.404c0.809,3.458,2.797,7.653,7.693,7.404
	c4.9-0.249,7.606-5.383,7.32-10.5c-0.249-4.48-2.93-9.682-6.284-14.484C134.693,190.828,130.977,184.724,130.977,184.724z"/>
<path fill="#D40000" d="M48.52,184.724c0,0-3.716,6.104-8.729,13.282c-3.354,4.803-6.034,10.004-6.284,14.484
	c-0.286,5.117,2.421,10.251,7.32,10.5c4.896,0.249,6.885-3.946,7.693-7.404c0.81,3.458,2.797,7.653,7.694,7.404
	c4.899-0.249,7.606-5.383,7.32-10.5c-0.249-4.48-2.931-9.682-6.284-14.484C52.236,190.828,48.52,184.724,48.52,184.724z"/>
<rect x="6.588" y="11.457" fill="#D40000" width="2.547" height="26.315"/>
<path fill="#D40000" d="M16.687,11.457c-2.452,0-4.423,2.242-4.423,5.028v16.259c0,2.786,1.972,5.027,4.423,5.027h1.432
	c2.452,0,4.428-2.241,4.428-5.027V16.485c0-2.786-1.977-5.028-4.428-5.028H16.687z M17.427,13.945c1.448,0,2.612,1.111,2.612,2.503
	v16.474c0,1.391-1.164,2.513-2.612,2.513s-2.616-1.122-2.616-2.513V16.448C14.811,15.058,15.979,13.945,17.427,13.945z"/>
<rect x="170.36" y="211.723" fill="#D40000" width="2.548" height="26.315"/>
<path fill="#D40000" d="M162.809,238.038c2.452,0,4.424-2.243,4.424-5.028v-16.259c0-2.786-1.973-5.027-4.424-5.027h-1.432
	c-2.452,0-4.428,2.241-4.428,5.027v16.259c0,2.785,1.977,5.028,4.428,5.028H162.809z M162.068,235.55
	c-1.448,0-2.612-1.112-2.612-2.503v-16.474c0-1.391,1.164-2.513,2.612-2.513c1.447,0,2.616,1.122,2.616,2.513v16.474
	C164.685,234.437,163.516,235.55,162.068,235.55z"/>
</svg>
