<?xml version="1.0" encoding="utf-8"?>
<!-- Generator: Adobe Illustrator 16.0.0, SVG Export Plug-In . SVG Version: 6.00 Build 0)  -->
<!DOCTYPE svg PUBLIC "-//W3C//DTD SVG 1.1//EN" "http://www.w3.org/Graphics/SVG/1.1/DTD/svg11.dtd">
<svg version="1.1" id="Layer_1" xmlns="http://www.w3.org/2000/svg" xmlns:xlink="http://www.w3.org/1999/xlink" x="0px" y="0px"
	 width="178.58px" height="249.45px" viewBox="0 0 178.58 249.45" enable-background="new 0 0 178.58 249.45" xml:space="preserve">
<path fill="#FFFFFF" d="M9.359,0.871h160.777c4.697,0,8.504,3.808,8.504,8.504v231.644c0,4.696-3.807,8.504-8.504,8.504H9.359
	c-4.697,0-8.504-3.808-8.504-8.504V9.375C0.855,4.679,4.662,0.871,9.359,0.871z"/>
<path fill="none" stroke="#000000" stroke-width="1.0006" d="M9.359,0.871h160.777c4.697,0,8.504,3.808,8.504,8.504v231.644
	c0,4.696-3.807,8.504-8.504,8.504H9.359c-4.697,0-8.504-3.808-8.504-8.504V9.375C0.855,4.679,4.662,0.871,9.359,0.871z"/>
<path d="M48.52,26.943c-7.348,10.492-15.21,16.53-15.34,24.716c-0.044,2.65,1.387,7.155,5.87,8.018
	c2.909,0.557,6.913-1.8,6.997-6.589c-0.014-0.953,1.008-0.929,0.998,0.378c-0.137,3.777-1.331,8.175-3.338,11.755
	c3.209,0,6.417,0,9.625,0c-2.006-3.58-3.2-7.978-3.338-11.755c-0.01-1.307,1.012-1.331,0.999-0.378
	c0.083,4.789,4.088,7.146,6.997,6.589c4.482-0.862,5.914-5.367,5.87-8.018C63.729,43.474,55.867,37.436,48.52,26.943z"/>
<path d="M14.567,40.722C11.135,45.094,7.461,47.609,7.4,51.02c-0.021,1.104,0.648,2.982,2.742,3.342
	c1.359,0.231,3.23-0.75,3.27-2.746c-0.008-0.396,0.471-0.387,0.467,0.158c-0.064,1.573-0.623,3.406-1.561,4.897
	c1.5,0,2.998,0,4.498,0c-0.938-1.491-1.496-3.324-1.561-4.897c-0.008-0.545,0.473-0.555,0.467-0.158
	c0.039,1.996,1.91,2.978,3.27,2.746c2.094-0.359,2.763-2.237,2.742-3.342C21.674,47.609,18,45.094,14.567,40.722z"/>
<path d="M48.52,170.707c-7.348-10.492-15.21-16.53-15.34-24.716c-0.044-2.65,1.387-7.155,5.87-8.018
	c2.909-0.558,6.913,1.8,6.997,6.589c-0.014,0.953,1.008,0.929,0.998-0.378c-0.137-3.777-1.331-8.175-3.338-11.755
	c3.209,0,6.417,0,9.625,0c-2.006,3.58-3.2,7.978-3.338,11.755c-0.01,1.307,1.012,1.331,0.999,0.378
	c0.083-4.789,4.088-7.146,6.997-6.589c4.482,0.862,5.914,5.367,5.87,8.018C63.729,154.177,55.867,160.215,48.52,170.707z"/>
<path d="M164.93,209.672c-3.434-4.372-7.107-6.888-7.168-10.299c-0.021-1.104,0.648-2.981,2.743-3.341
	c1.358-0.231,3.229,0.751,3.269,2.746c-0.008,0.396,0.471,0.387,0.467-0.157c-0.064-1.574-0.622-3.406-1.56-4.898
	c1.499,0,2.998,0,4.497,0c-0.938,1.492-1.496,3.324-1.56,4.898c-0.008,0.544,0.473,0.555,0.466,0.157
	c0.039-1.995,1.91-2.978,3.27-2.746c2.095,0.359,2.764,2.237,2.742,3.341C172.035,202.784,168.361,205.3,164.93,209.672
	L164.93,209.672z"/>
<path d="M130.977,26.943c-7.348,10.492-15.21,16.53-15.341,24.716c-0.044,2.65,1.388,7.155,5.871,8.018
	c2.908,0.557,6.913-1.8,6.997-6.589c-0.014-0.953,1.008-0.929,0.998,0.378c-0.137,3.777-1.331,8.175-3.338,11.755
	c3.209,0,6.417,0,9.625,0c-2.007-3.58-3.201-7.978-3.338-11.755c-0.01-1.307,1.012-1.331,0.999-0.378
	c0.083,4.789,4.088,7.146,6.996,6.589c4.483-0.862,5.915-5.367,5.871-8.018C146.187,43.474,138.324,37.436,130.977,26.943z"/>
<path d="M48.52,79.687c-7.348,10.492-15.21,16.53-15.34,24.716c-0.044,2.65,1.387,7.155,5.87,8.018
	c2.909,0.557,6.913-1.8,6.997-6.589c-0.014-0.953,1.008-0.929,0.998,0.378c-0.137,3.777-1.331,8.175-3.338,11.755
	c3.209,0,6.417,0,9.625,0c-2.006-3.58-3.2-7.978-3.338-11.755c-0.01-1.307,1.012-1.331,0.999-0.378
	c0.083,4.789,4.088,7.146,6.997,6.589c4.482-0.862,5.914-5.367,5.87-8.018C63.729,96.217,55.867,90.179,48.52,79.687z"/>
<path d="M89.748,60.946c-7.348,10.492-15.21,16.53-15.341,24.716c-0.044,2.65,1.388,7.155,5.871,8.018
	c2.908,0.558,6.913-1.8,6.997-6.588c-0.014-0.954,1.008-0.929,0.998,0.377c-0.137,3.777-1.331,8.176-3.338,11.755
	c3.209,0,6.417,0,9.625,0c-2.007-3.579-3.201-7.978-3.338-11.755c-0.01-1.306,1.012-1.331,0.999-0.377
	c0.083,4.788,4.088,7.146,6.997,6.588c4.482-0.862,5.914-5.367,5.87-8.018C104.958,77.477,97.096,71.438,89.748,60.946z"/>
<path d="M130.977,79.687c-7.348,10.492-15.21,16.53-15.341,24.716c-0.044,2.65,1.388,7.155,5.871,8.018
	c2.908,0.557,6.913-1.8,6.997-6.589c-0.014-0.953,1.008-0.929,0.998,0.378c-0.137,3.777-1.331,8.175-3.338,11.755
	c3.209,0,6.417,0,9.625,0c-2.007-3.58-3.201-7.978-3.338-11.755c-0.01-1.307,1.012-1.331,0.999-0.378
	c0.083,4.789,4.088,7.146,6.996,6.589c4.483-0.862,5.915-5.367,5.871-8.018C146.187,96.217,138.324,90.179,130.977,79.687z"/>
<path d="M48.52,223.45c-7.348-10.492-15.21-16.53-15.34-24.716c-0.044-2.65,1.387-7.155,5.87-8.018
	c2.909-0.557,6.913,1.8,6.997,6.589c-0.014,0.953,1.008,0.929,0.998-0.378c-0.137-3.777-1.331-8.175-3.338-11.755
	c3.209,0,6.417,0,9.625,0c-2.006,3.58-3.2,7.978-3.338,11.755c-0.01,1.307,1.012,1.331,0.999,0.378
	c0.083-4.789,4.088-7.146,6.997-6.589c4.482,0.862,5.914,5.367,5.87,8.018C63.729,206.92,55.867,212.958,48.52,223.45z"/>
<path d="M130.977,223.45c-7.348-10.492-15.21-16.53-15.341-24.716c-0.044-2.65,1.388-7.155,5.871-8.018
	c2.908-0.557,6.913,1.8,6.997,6.589c-0.014,0.953,1.008,0.929,0.998-0.378c-0.137-3.777-1.331-8.175-3.338-11.755
	c3.209,0,6.417,0,9.625,0c-2.007,3.58-3.201,7.978-3.338,11.755c-0.01,1.307,1.012,1.331,0.999,0.378
	c0.083-4.789,4.088-7.146,6.996-6.589c4.483,0.862,5.915,5.367,5.871,8.018C146.187,206.92,138.324,212.958,130.977,223.45z"/>
<path d="M89.748,189.447c-7.348-10.492-15.21-16.53-15.341-24.716c-0.044-2.65,1.388-7.156,5.871-8.019
	c2.908-0.557,6.913,1.801,6.997,6.589c-0.014,0.954,1.008,0.929,0.998-0.377c-0.137-3.777-1.331-8.176-3.338-11.755
	c3.209,0,6.417,0,9.625,0c-2.007,3.579-3.201,7.978-3.338,11.755c-0.01,1.306,1.012,1.331,0.999,0.377
	c0.083-4.788,4.088-7.146,6.997-6.589c4.482,0.862,5.914,5.368,5.87,8.019C104.958,172.917,97.096,178.955,89.748,189.447z"/>
<path d="M130.977,170.707c-7.348-10.492-15.21-16.53-15.341-24.716c-0.044-2.65,1.388-7.155,5.871-8.018
	c2.908-0.558,6.913,1.8,6.997,6.589c-0.014,0.953,1.008,0.929,0.998-0.378c-0.137-3.777-1.331-8.175-3.338-11.755
	c3.209,0,6.417,0,9.625,0c-2.007,3.58-3.201,7.978-3.338,11.755c-0.01,1.307,1.012,1.331,0.999,0.378
	c0.083-4.789,4.088-7.146,6.996-6.589c4.483,0.862,5.915,5.367,5.871,8.018C146.187,154.177,138.324,160.215,130.977,170.707z"/>
<rect x="6.587" y="11.906" width="2.548" height="26.315"/>
<path d="M16.687,11.906c-2.452,0-4.424,2.242-4.424,5.028v16.259c0,2.786,1.973,5.027,4.424,5.027h1.432
	c2.452,0,4.428-2.241,4.428-5.027V16.935c0-2.786-1.977-5.028-4.428-5.028H16.687z M17.427,14.395c1.448,0,2.612,1.111,2.612,2.503
	v16.474c0,1.391-1.164,2.513-2.612,2.513s-2.616-1.122-2.616-2.513V16.897C14.811,15.508,15.979,14.395,17.427,14.395z"/>
<rect x="170.359" y="212.172" width="2.548" height="26.315"/>
<path d="M162.809,238.487c2.452,0,4.423-2.243,4.423-5.028V217.2c0-2.786-1.972-5.027-4.423-5.027h-1.432
	c-2.453,0-4.428,2.241-4.428,5.027v16.259c0,2.785,1.977,5.028,4.428,5.028H162.809z M162.068,235.999
	c-1.448,0-2.612-1.112-2.612-2.503v-16.474c0-1.391,1.164-2.513,2.612-2.513c1.447,0,2.615,1.122,2.615,2.513v16.474
	C164.684,234.886,163.516,235.999,162.068,235.999z"/>
</svg>
