<?xml version="1.0" encoding="utf-8"?>
<!-- Generator: Adobe Illustrator 16.0.0, SVG Export Plug-In . SVG Version: 6.00 Build 0)  -->
<!DOCTYPE svg PUBLIC "-//W3C//DTD SVG 1.1//EN" "http://www.w3.org/Graphics/SVG/1.1/DTD/svg11.dtd">
<svg version="1.1" id="Layer_1" xmlns="http://www.w3.org/2000/svg" xmlns:xlink="http://www.w3.org/1999/xlink" x="0px" y="0px"
	 width="178.58px" height="249.45px" viewBox="0 0 178.58 249.45" enable-background="new 0 0 178.58 249.45" xml:space="preserve">
<g>
	<path fill="#FFFFFF" d="M9.697,0.973h160.778c4.696,0,8.504,3.808,8.504,8.504v231.643c0,4.697-3.808,8.504-8.504,8.504H9.697
		c-4.696,0-8.504-3.807-8.504-8.504V9.477C1.193,4.78,5.001,0.973,9.697,0.973z"/>
	<path fill="none" stroke="#000000" stroke-width="1.0006" d="M9.697,0.973h160.778c4.696,0,8.504,3.808,8.504,8.504v231.643
		c0,4.697-3.808,8.504-8.504,8.504H9.697c-4.696,0-8.504-3.807-8.504-8.504V9.477C1.193,4.78,5.001,0.973,9.697,0.973z"/>
	<path d="M90.083,27.376c-7.819,0.17-11.325,8.975-5.534,15.812c0.84,0.997,0.927,1.569-0.612,0.611
		c-3.898-2.607-11.375-0.894-11.758,7.078c-0.473,9.821,13.25,12.651,15.827,2.207c0.136-1.102,1.031-1.076,0.815,0.487
		c-0.235,4.245-1.561,8.213-3.383,12.082c3.071,0,6.504,0,9.296,0c-1.822-3.869-3.147-7.837-3.383-12.082
		c-0.216-1.563,0.68-1.589,0.815-0.487c2.577,10.444,16.3,7.614,15.827-2.207c-0.383-7.972-7.859-9.686-11.758-7.078
		c-1.539,0.958-1.452,0.386-0.612-0.611c5.792-6.837,2.285-15.642-5.534-15.812H90.083L90.083,27.376z"/>
	<path d="M90.083,223.883c-7.819-0.17-11.325-8.974-5.534-15.811c0.84-0.997,0.927-1.569-0.612-0.611
		c-3.898,2.607-11.375,0.893-11.758-7.078c-0.473-9.821,13.25-12.651,15.827-2.208c0.136,1.103,1.031,1.077,0.815-0.487
		c-0.235-4.245-1.561-8.213-3.383-12.082c3.071,0,6.504,0,9.296,0c-1.822,3.869-3.147,7.837-3.383,12.082
		c-0.216,1.564,0.68,1.59,0.815,0.487c2.577-10.443,16.3-7.613,15.827,2.208c-0.383,7.971-7.859,9.686-11.758,7.078
		c-1.539-0.958-1.452-0.386-0.612,0.611c5.792,6.837,2.285,15.641-5.534,15.811H90.083L90.083,223.883z"/>
	<path d="M165.269,209.772c3.128-0.07,4.53-3.738,2.214-6.587c-0.336-0.416-0.37-0.654,0.245-0.255
		c1.56,1.086,4.55,0.372,4.703-2.949c0.189-4.093-5.3-5.271-6.331-0.92c-0.054,0.459-0.412,0.448-0.326-0.203
		c0.095-1.769,0.625-3.422,1.354-5.034c-1.239,0-2.479,0-3.719,0c0.729,1.612,1.26,3.266,1.354,5.034
		c0.086,0.651-0.271,0.662-0.326,0.203c-1.03-4.352-6.52-3.173-6.331,0.92c0.153,3.321,3.144,4.035,4.703,2.949
		c0.616-0.399,0.581-0.161,0.245,0.255c-2.316,2.849-0.914,6.517,2.214,6.587H165.269z"/>
	<path d="M14.905,40.823c-3.128,0.07-4.53,3.739-2.214,6.588c0.336,0.415,0.37,0.654-0.245,0.255
		c-1.56-1.087-4.55-0.372-4.703,2.949c-0.189,4.092,5.3,5.271,6.331,0.92c0.054-0.459,0.412-0.449,0.326,0.203
		c-0.095,1.769-0.625,3.422-1.354,5.034c1.239,0,2.479,0,3.719,0c-0.729-1.612-1.26-3.266-1.354-5.034
		c-0.086-0.652,0.271-0.662,0.326-0.203c1.031,4.352,6.52,3.172,6.331-0.92c-0.153-3.321-3.144-4.036-4.703-2.949
		c-0.616,0.399-0.581,0.16-0.245-0.255c2.316-2.849,0.914-6.517-2.214-6.588H14.905z"/>
	<path d="M7.026,38.267l0.128-1.623c0.405-5.015,1.481-6.706,7.585-11.94c2.963-2.538,3.935-3.79,4.071-5.242
		c0.388-3.427-2.64-4.496-4.612-4.512c-2.556-0.023-5.447,1.534-4.067,5.153l-2.867,0.859c-0.577-3.376,0.017-6.543,2.7-7.948
		c3.583-1.833,8.179-1.114,10.499,1.772c1.56,1.938,1.916,4.618,1.079,6.716c-2.443,5.359-10.734,7.717-11.419,13.918h9.164v-3.452
		h2.699v6.355L7.026,38.267z"/>
	<path d="M172.746,212.33l-0.128,1.622c-0.404,5.015-1.48,6.706-7.584,11.941c-2.964,2.537-3.936,3.79-4.071,5.242
		c-0.389,3.427,2.64,4.495,4.611,4.511c2.557,0.023,5.448-1.533,4.067-5.153l2.868-0.859c0.576,3.376-0.017,6.544-2.7,7.949
		c-3.584,1.833-8.179,1.114-10.499-1.773c-1.56-1.937-1.916-4.617-1.08-6.716c2.444-5.358,10.735-7.717,11.42-13.918h-9.164v3.453
		h-2.7v-6.355L172.746,212.33z"/>
</g>
</svg>
