<?xml version="1.0" encoding="utf-8"?>
<!-- Generator: Adobe Illustrator 16.0.0, SVG Export Plug-In . SVG Version: 6.00 Build 0)  -->
<!DOCTYPE svg PUBLIC "-//W3C//DTD SVG 1.1//EN" "http://www.w3.org/Graphics/SVG/1.1/DTD/svg11.dtd">
<svg version="1.1" id="Layer_1" xmlns="http://www.w3.org/2000/svg" xmlns:xlink="http://www.w3.org/1999/xlink" x="0px" y="0px"
	 width="178.58px" height="249.45px" viewBox="0 0 178.58 249.45" enable-background="new 0 0 178.58 249.45" xml:space="preserve">
<path fill="#FFFFFF" d="M9.698,1.32h160.777c4.696,0,8.504,3.808,8.504,8.504v231.644c0,4.696-3.808,8.504-8.504,8.504H9.698
	c-4.697,0-8.504-3.808-8.504-8.504V9.824C1.194,5.128,5.001,1.32,9.698,1.32z"/>
<path fill="none" stroke="#000000" stroke-width="1.0006" d="M9.698,1.32h160.777c4.696,0,8.504,3.808,8.504,8.504v231.644
	c0,4.696-3.808,8.504-8.504,8.504H9.698c-4.697,0-8.504-3.808-8.504-8.504V9.824C1.194,5.128,5.001,1.32,9.698,1.32z"/>
<path fill="#D40000" d="M90.087,65.67c-4.131-6.83-8.477-13.468-13.906-19.139c5.43-5.671,9.775-12.309,13.906-19.139
	c4.13,6.83,8.476,13.468,13.906,19.139C98.563,52.202,94.217,58.84,90.087,65.67z"/>
<path fill="#D40000" d="M14.906,57.12c-1.721-2.846-3.531-5.612-5.794-7.975c2.263-2.362,4.073-5.129,5.794-7.975
	c1.721,2.846,3.531,5.612,5.794,7.975C18.438,51.508,16.627,54.274,14.906,57.12z"/>
<path fill="#D40000" d="M165.268,210.121c-1.721-2.846-3.531-5.611-5.795-7.975c2.264-2.362,4.074-5.129,5.795-7.975
	c1.721,2.846,3.531,5.612,5.794,7.975C168.799,204.51,166.988,207.275,165.268,210.121z"/>
<path fill="#D40000" d="M90.087,223.899c-4.131-6.83-8.477-13.468-13.906-19.139c5.43-5.671,9.775-12.309,13.906-19.139
	c4.13,6.83,8.476,13.468,13.906,19.139C98.563,210.432,94.217,217.069,90.087,223.899z"/>
<path fill="#D40000" d="M7.425,38.614l0.128-1.623c0.405-5.015,1.481-6.706,7.585-11.94c2.963-2.538,3.935-3.79,4.071-5.242
	c0.388-3.427-2.64-4.496-4.612-4.512c-2.556-0.023-5.447,1.534-4.067,5.153L7.662,21.31c-0.577-3.376,0.017-6.543,2.699-7.948
	c3.584-1.833,8.18-1.114,10.5,1.772c1.56,1.938,1.916,4.618,1.079,6.716c-2.444,5.359-10.735,7.717-11.419,13.918h9.163v-3.452h2.7
	v6.355L7.425,38.614z"/>
<path fill="#D40000" d="M172.746,212.678l-0.128,1.623c-0.404,5.015-1.48,6.706-7.584,11.941c-2.964,2.537-3.936,3.789-4.071,5.242
	c-0.389,3.426,2.64,4.495,4.611,4.511c2.556,0.023,5.447-1.534,4.067-5.153l2.868-0.859c0.576,3.376-0.017,6.543-2.7,7.949
	c-3.584,1.832-8.18,1.113-10.5-1.773c-1.56-1.938-1.915-4.618-1.079-6.716c2.444-5.359,10.735-7.717,11.42-13.918h-9.164v3.452h-2.7
	v-6.355L172.746,212.678z"/>
</svg>
