<?xml version="1.0" encoding="utf-8"?>
<!-- Generator: Adobe Illustrator 16.0.0, SVG Export Plug-In . SVG Version: 6.00 Build 0)  -->
<!DOCTYPE svg PUBLIC "-//W3C//DTD SVG 1.1//EN" "http://www.w3.org/Graphics/SVG/1.1/DTD/svg11.dtd">
<svg version="1.1" id="Layer_1" xmlns="http://www.w3.org/2000/svg" xmlns:xlink="http://www.w3.org/1999/xlink" x="0px" y="0px"
	 width="178.58px" height="249.45px" viewBox="0 0 178.58 249.45" enable-background="new 0 0 178.58 249.45" xml:space="preserve">
<path fill="#FFFFFF" d="M9.697,0.422h160.778c4.696,0,8.504,3.808,8.504,8.504v231.644c0,4.696-3.808,8.504-8.504,8.504H9.697
	c-4.696,0-8.504-3.808-8.504-8.504V8.926C1.193,4.229,5.001,0.422,9.697,0.422z"/>
<path fill="none" stroke="#000000" stroke-width="1.0006" d="M9.697,0.422h160.778c4.696,0,8.504,3.808,8.504,8.504v231.644
	c0,4.696-3.808,8.504-8.504,8.504H9.697c-4.696,0-8.504-3.808-8.504-8.504V8.926C1.193,4.229,5.001,0.422,9.697,0.422z"/>
<path fill="#D40000" d="M14.906,56.222c0,0-1.771-2.544-4.162-5.534c-1.599-2.002-2.877-4.169-2.996-6.035
	c-0.137-2.133,1.154-4.271,3.49-4.375c2.334-0.104,3.282,1.644,3.668,3.085c0.386-1.441,1.333-3.188,3.668-3.085
	c2.336,0.104,3.626,2.242,3.49,4.375c-0.119,1.866-1.397,4.033-2.996,6.035C16.678,53.678,14.906,56.222,14.906,56.222z"/>
<path fill="#D40000" d="M165.268,193.273c0,0-1.771,2.544-4.162,5.534c-1.599,2.001-2.877,4.169-2.996,6.035
	c-0.136,2.132,1.154,4.271,3.49,4.375c2.335,0.104,3.282-1.644,3.668-3.085c0.386,1.441,1.334,3.188,3.668,3.085
	c2.336-0.104,3.627-2.243,3.49-4.375c-0.119-1.866-1.397-4.034-2.996-6.035C167.039,195.817,165.268,193.273,165.268,193.273z"/>
<path fill="#D40000" d="M90.087,64.771c0,0-3.717-6.104-8.729-13.282c-3.354-4.804-6.035-10.005-6.285-14.484
	c-0.285-5.117,2.421-10.251,7.32-10.5c4.897-0.249,6.885,3.945,7.694,7.403c0.809-3.458,2.797-7.652,7.693-7.403
	c4.899,0.249,7.606,5.383,7.32,10.5c-0.249,4.479-2.931,9.681-6.284,14.484C93.803,58.667,90.087,64.771,90.087,64.771z"/>
<path fill="#D40000" d="M90.087,184.724c0,0-3.717,6.104-8.729,13.282c-3.354,4.803-6.035,10.004-6.285,14.484
	c-0.285,5.117,2.421,10.251,7.32,10.5c4.897,0.249,6.885-3.946,7.694-7.404c0.809,3.458,2.797,7.653,7.693,7.404
	c4.899-0.249,7.606-5.383,7.32-10.5c-0.249-4.48-2.931-9.682-6.284-14.484C93.803,190.828,90.087,184.724,90.087,184.724z"/>
<path fill="#D40000" d="M7.425,37.716l0.128-1.623c0.404-5.015,1.48-6.706,7.585-11.94c2.963-2.538,3.935-3.79,4.071-5.242
	c0.388-3.427-2.64-4.496-4.612-4.512c-2.556-0.023-5.447,1.534-4.067,5.153l-2.868,0.859c-0.576-3.376,0.017-6.543,2.7-7.948
	c3.584-1.833,8.18-1.114,10.5,1.773c1.56,1.937,1.916,4.617,1.079,6.715c-2.444,5.359-10.735,7.717-11.419,13.918h9.163v-3.452h2.7
	v6.355L7.425,37.716z"/>
<path fill="#D40000" d="M172.747,211.779l-0.129,1.623c-0.404,5.014-1.48,6.706-7.584,11.94c-2.964,2.538-3.936,3.79-4.071,5.242
	c-0.388,3.427,2.64,4.495,4.612,4.512c2.556,0.022,5.447-1.534,4.066-5.154l2.868-0.859c0.577,3.376-0.017,6.544-2.7,7.949
	c-3.583,1.833-8.179,1.114-10.499-1.773c-1.56-1.937-1.916-4.617-1.079-6.715c2.443-5.359,10.734-7.718,11.419-13.918h-9.164v3.452
	h-2.699v-6.355L172.747,211.779z"/>
</svg>
