<?xml version="1.0" encoding="utf-8"?>
<!-- Generator: Adobe Illustrator 16.0.0, SVG Export Plug-In . SVG Version: 6.00 Build 0)  -->
<!DOCTYPE svg PUBLIC "-//W3C//DTD SVG 1.1//EN" "http://www.w3.org/Graphics/SVG/1.1/DTD/svg11.dtd">
<svg version="1.1" id="Layer_1" xmlns="http://www.w3.org/2000/svg" xmlns:xlink="http://www.w3.org/1999/xlink" x="0px" y="0px"
	 width="178.58px" height="249.45px" viewBox="0 0 178.58 249.45" enable-background="new 0 0 178.58 249.45" xml:space="preserve">
<path fill="#FFFFFF" d="M9.697,0.871h160.778c4.696,0,8.504,3.808,8.504,8.504v231.644c0,4.696-3.808,8.504-8.504,8.504H9.697
	c-4.696,0-8.504-3.808-8.504-8.504V9.375C1.193,4.679,5.001,0.871,9.697,0.871z"/>
<path fill="none" stroke="#000000" stroke-width="1.0006" d="M9.697,0.871h160.778c4.696,0,8.504,3.808,8.504,8.504v231.644
	c0,4.696-3.808,8.504-8.504,8.504H9.697c-4.696,0-8.504-3.808-8.504-8.504V9.375C1.193,4.679,5.001,0.871,9.697,0.871z"/>
<path d="M14.906,40.722C11.473,45.094,7.8,47.609,7.738,51.02c-0.021,1.104,0.648,2.982,2.743,3.342
	c1.359,0.231,3.23-0.75,3.27-2.746c-0.009-0.396,0.471-0.387,0.466,0.158c-0.063,1.573-0.621,3.406-1.56,4.897
	c1.499,0,2.998,0,4.497,0c-0.938-1.491-1.495-3.324-1.56-4.897c-0.008-0.545,0.473-0.555,0.467-0.158
	c0.039,1.996,1.91,2.978,3.27,2.746c2.095-0.359,2.763-2.237,2.742-3.342C22.013,47.609,18.339,45.094,14.906,40.722z"/>
<path d="M165.268,209.672c-3.433-4.372-7.106-6.888-7.167-10.299c-0.021-1.104,0.648-2.981,2.743-3.341
	c1.358-0.231,3.229,0.751,3.269,2.746c-0.008,0.396,0.471,0.387,0.467-0.157c-0.063-1.574-0.622-3.406-1.56-4.898
	c1.499,0,2.998,0,4.497,0c-0.938,1.492-1.496,3.324-1.56,4.898c-0.008,0.544,0.473,0.555,0.467,0.157
	c0.039-1.995,1.909-2.978,3.269-2.746c2.095,0.359,2.764,2.237,2.743,3.341C172.374,202.784,168.701,205.3,165.268,209.672z"/>
<path d="M90.087,26.943c-7.349,10.492-15.21,16.53-15.341,24.716c-0.044,2.65,1.388,7.155,5.87,8.018
	c2.909,0.557,6.913-1.8,6.997-6.589c-0.013-0.953,1.008-0.929,0.999,0.378c-0.138,3.777-1.331,8.175-3.339,11.755
	c3.209,0,6.418,0,9.626,0c-2.007-3.58-3.201-7.978-3.338-11.755c-0.01-1.307,1.011-1.331,0.998-0.378
	c0.084,4.789,4.089,7.146,6.997,6.589c4.483-0.862,5.914-5.367,5.871-8.018C105.297,43.474,97.435,37.436,90.087,26.943z"/>
<path d="M90.087,223.45c-7.349-10.492-15.21-16.53-15.341-24.716c-0.044-2.65,1.388-7.155,5.87-8.018
	c2.909-0.557,6.913,1.8,6.997,6.589c-0.013,0.953,1.008,0.929,0.999-0.378c-0.138-3.777-1.331-8.175-3.339-11.755
	c3.209,0,6.418,0,9.626,0c-2.007,3.58-3.201,7.978-3.338,11.755c-0.01,1.307,1.011,1.331,0.998,0.378
	c0.084-4.789,4.089-7.146,6.997-6.589c4.483,0.862,5.914,5.367,5.871,8.018C105.297,206.92,97.435,212.958,90.087,223.45z"/>
<path d="M7.425,38.165l0.128-1.623c0.404-5.015,1.48-6.706,7.585-11.94c2.963-2.538,3.935-3.79,4.071-5.242
	c0.388-3.427-2.64-4.496-4.612-4.512c-2.556-0.022-5.447,1.534-4.067,5.153L7.661,20.86c-0.576-3.376,0.017-6.543,2.7-7.948
	c3.584-1.833,8.18-1.114,10.5,1.773c1.56,1.937,1.916,4.617,1.079,6.715c-2.444,5.359-10.735,7.717-11.419,13.918h9.163v-3.452h2.7
	v6.355L7.425,38.165z"/>
<path d="M172.747,212.229l-0.129,1.623c-0.404,5.014-1.48,6.706-7.584,11.94c-2.964,2.538-3.936,3.79-4.071,5.242
	c-0.388,3.427,2.64,4.496,4.612,4.512c2.556,0.022,5.447-1.534,4.066-5.153l2.868-0.859c0.577,3.376-0.017,6.543-2.7,7.948
	c-3.583,1.833-8.179,1.114-10.499-1.772c-1.56-1.938-1.916-4.618-1.08-6.716c2.444-5.359,10.735-7.718,11.42-13.918h-9.164v3.452
	h-2.7v-6.355L172.747,212.229z"/>
</svg>
