<?xml version="1.0" encoding="utf-8"?>
<!-- Generator: Adobe Illustrator 16.0.0, SVG Export Plug-In . SVG Version: 6.00 Build 0)  -->
<!DOCTYPE svg PUBLIC "-//W3C//DTD SVG 1.1//EN" "http://www.w3.org/Graphics/SVG/1.1/DTD/svg11.dtd">
<svg version="1.1" id="Layer_1" xmlns="http://www.w3.org/2000/svg" xmlns:xlink="http://www.w3.org/1999/xlink" x="0px" y="0px"
	 width="178.58px" height="249.45px" viewBox="0 0 178.58 249.45" enable-background="new 0 0 178.58 249.45" xml:space="preserve">
<g>
	<path fill="#FFFFFF" d="M9.28,0.973h160.778c4.696,0,8.504,3.808,8.504,8.504v231.643c0,4.697-3.808,8.504-8.504,8.504H9.28
		c-4.696,0-8.504-3.807-8.504-8.504V9.477C0.776,4.78,4.584,0.973,9.28,0.973z"/>
	<path fill="none" stroke="#000000" stroke-width="1.0006" d="M9.28,0.973h160.778c4.696,0,8.504,3.808,8.504,8.504v231.643
		c0,4.697-3.808,8.504-8.504,8.504H9.28c-4.696,0-8.504-3.807-8.504-8.504V9.477C0.776,4.78,4.584,0.973,9.28,0.973z"/>
	<path d="M89.666,27.376c-7.819,0.17-11.326,8.975-5.535,15.812c0.84,0.997,0.927,1.569-0.611,0.611
		c-3.899-2.607-11.375-0.894-11.758,7.078c-0.474,9.821,13.25,12.651,15.826,2.207c0.137-1.102,1.032-1.076,0.816,0.487
		c-0.235,4.245-1.561,8.213-3.383,12.082c3.07,0,6.503,0,9.296,0c-1.822-3.869-3.148-7.837-3.383-12.082
		c-0.216-1.563,0.68-1.589,0.815-0.487c2.576,10.444,16.3,7.614,15.827-2.207c-0.383-7.972-7.859-9.686-11.759-7.078
		c-1.538,0.958-1.451,0.386-0.611-0.611c5.791-6.837,2.285-15.642-5.535-15.812h-0.008H89.666z"/>
	<path d="M89.666,223.883c-7.819-0.17-11.326-8.974-5.535-15.811c0.84-0.997,0.927-1.569-0.611-0.611
		c-3.899,2.607-11.375,0.893-11.758-7.078c-0.474-9.821,13.25-12.651,15.826-2.208c0.137,1.103,1.032,1.077,0.816-0.487
		c-0.235-4.245-1.561-8.213-3.383-12.082c3.07,0,6.503,0,9.296,0c-1.822,3.869-3.148,7.837-3.383,12.082
		c-0.216,1.564,0.68,1.59,0.815,0.487c2.576-10.443,16.3-7.613,15.827,2.208c-0.383,7.971-7.859,9.686-11.759,7.078
		c-1.538-0.958-1.451-0.386-0.611,0.611c5.791,6.837,2.285,15.641-5.535,15.811h-0.008H89.666z"/>
	<path d="M89.666,106.491c-7.819,0.17-11.326,8.974-5.535,15.811c0.84,0.997,0.927,1.569-0.611,0.611
		c-3.899-2.607-11.375-0.893-11.758,7.078c-0.474,9.821,13.25,12.651,15.826,2.208c0.137-1.103,1.032-1.077,0.816,0.487
		c-0.235,4.245-1.561,8.213-3.383,12.082c3.07,0,6.503,0,9.296,0c-1.822-3.869-3.148-7.837-3.383-12.082
		c-0.216-1.564,0.68-1.59,0.815-0.487c2.576,10.443,16.3,7.613,15.827-2.208c-0.383-7.971-7.859-9.686-11.759-7.078
		c-1.538,0.958-1.451,0.386-0.611-0.611c5.791-6.837,2.285-15.641-5.535-15.811h-0.008H89.666z"/>
	<path d="M164.852,209.772c3.128-0.07,4.53-3.738,2.214-6.587c-0.336-0.416-0.37-0.654,0.245-0.255
		c1.56,1.086,4.55,0.372,4.703-2.949c0.189-4.093-5.301-5.271-6.331-0.92c-0.054,0.459-0.412,0.448-0.326-0.203
		c0.094-1.769,0.624-3.422,1.354-5.034c-1.239,0-2.479,0-3.719,0c0.729,1.612,1.259,3.266,1.354,5.034
		c0.086,0.651-0.272,0.662-0.326,0.203c-1.031-4.352-6.521-3.173-6.331,0.92c0.153,3.321,3.144,4.035,4.703,2.949
		c0.615-0.399,0.581-0.161,0.245,0.255c-2.316,2.849-0.914,6.517,2.214,6.587H164.852z"/>
	<path d="M14.487,40.823c-3.128,0.07-4.53,3.739-2.214,6.588c0.336,0.415,0.371,0.654-0.244,0.255
		c-1.56-1.087-4.551-0.372-4.703,2.949c-0.189,4.092,5.3,5.271,6.33,0.92c0.055-0.459,0.413-0.449,0.326,0.203
		c-0.094,1.769-0.624,3.422-1.353,5.034c1.239,0,2.479,0,3.718,0c-0.729-1.612-1.259-3.266-1.353-5.034
		c-0.087-0.652,0.271-0.662,0.326-0.203c1.03,4.352,6.52,3.172,6.331-0.92c-0.153-3.321-3.145-4.036-4.704-2.949
		c-0.615,0.399-0.58,0.16-0.244-0.255c2.316-2.849,0.914-6.517-2.214-6.588H14.487z"/>
	<path d="M5.958,32.555l2.023-1.49c1.757,2.863,3.721,4.749,6.725,4.425c4.508-0.31,6.375-5.041,5.433-8.605
		c-0.913-3.198-4.646-4.756-7.612-3.051c-0.7,0.403-1.376,0.733-1.509,0.733c-0.311,0-1.016-1.403-0.919-1.831
		c1.991-2.912,6.827-8.014,6.827-8.014H9.37v3.416H6.471v-6.13h14.768v2.08c0,0-3.957,4.108-5.265,6.358
		c3.221,0.118,5.816,2.162,6.748,5.393c0.544,1.701,0.3,5.591-0.411,7.269c-1.189,2.795-4.437,5.063-7.404,5.193
		C9.922,38.636,7.278,35.14,5.958,32.555z"/>
	<path d="M173.379,218.042l-2.023,1.49c-1.756-2.863-3.72-4.749-6.725-4.426c-4.507,0.311-6.375,5.041-5.432,8.606
		c0.912,3.198,4.645,4.756,7.612,3.051c0.7-0.404,1.376-0.734,1.508-0.734c0.312,0,1.017,1.403,0.92,1.832
		c-1.991,2.912-6.828,8.014-6.828,8.014h7.556v-3.416h2.9v6.13H158.1v-2.08c0,0,3.957-4.108,5.264-6.358
		c-3.22-0.118-5.815-2.162-6.747-5.393c-0.544-1.701-0.301-5.592,0.411-7.269c1.189-2.795,4.436-5.063,7.404-5.193
		C169.415,211.961,172.059,215.456,173.379,218.042z"/>
</g>
</svg>
