<?xml version="1.0" encoding="utf-8"?>
<!-- Generator: Adobe Illustrator 16.0.0, SVG Export Plug-In . SVG Version: 6.00 Build 0)  -->
<!DOCTYPE svg PUBLIC "-//W3C//DTD SVG 1.1//EN" "http://www.w3.org/Graphics/SVG/1.1/DTD/svg11.dtd">
<svg version="1.1" id="Layer_1" xmlns="http://www.w3.org/2000/svg" xmlns:xlink="http://www.w3.org/1999/xlink" x="0px" y="0px"
	 width="178.58px" height="249.45px" viewBox="0 0 178.58 249.45" enable-background="new 0 0 178.58 249.45" xml:space="preserve">
<path fill="#FFFFFF" d="M9.28,1.32h160.777c4.697,0,8.505,3.808,8.505,8.504v231.644c0,4.696-3.808,8.504-8.505,8.504H9.28
	c-4.696,0-8.504-3.808-8.504-8.504V9.824C0.776,5.128,4.584,1.32,9.28,1.32z"/>
<path fill="none" stroke="#000000" stroke-width="1.0006" d="M9.28,1.32h160.777c4.697,0,8.505,3.808,8.505,8.504v231.644
	c0,4.696-3.808,8.504-8.505,8.504H9.28c-4.696,0-8.504-3.808-8.504-8.504V9.824C0.776,5.128,4.584,1.32,9.28,1.32z"/>
<path fill="#D40000" d="M89.669,65.67c-4.13-6.83-8.476-13.468-13.906-19.139c5.431-5.671,9.776-12.309,13.906-19.139
	c4.131,6.83,8.477,13.468,13.907,19.139C98.146,52.202,93.8,58.84,89.669,65.67z"/>
<path fill="#D40000" d="M14.489,57.12c-1.722-2.846-3.532-5.612-5.795-7.975c2.263-2.362,4.073-5.129,5.795-7.975
	c1.721,2.846,3.531,5.612,5.794,7.975C18.021,51.508,16.21,54.274,14.489,57.12z"/>
<path fill="#D40000" d="M164.851,210.121c-1.722-2.846-3.532-5.611-5.795-7.975c2.263-2.362,4.073-5.129,5.795-7.975
	c1.721,2.846,3.531,5.612,5.794,7.975C168.382,204.51,166.571,207.275,164.851,210.121z"/>
<path fill="#D40000" d="M89.669,144.785c-4.13-6.83-8.476-13.469-13.906-19.139c5.431-5.671,9.776-12.309,13.906-19.139
	c4.131,6.83,8.477,13.468,13.907,19.139C98.146,131.316,93.8,137.955,89.669,144.785z"/>
<path fill="#D40000" d="M89.669,223.899c-4.13-6.83-8.476-13.468-13.906-19.139c5.431-5.671,9.776-12.309,13.906-19.139
	c4.131,6.83,8.477,13.468,13.907,19.139C98.146,210.432,93.8,217.069,89.669,223.899z"/>
<path fill="#D40000" d="M5.958,32.902l2.023-1.49c1.756,2.863,3.72,4.749,6.725,4.426c4.507-0.311,6.375-5.042,5.432-8.606
	c-0.912-3.198-4.645-4.756-7.612-3.051c-0.7,0.403-1.376,0.733-1.508,0.733c-0.312,0-1.016-1.403-0.92-1.831
	c1.992-2.912,6.828-8.014,6.828-8.014H9.37v3.416h-2.9v-6.13h14.768v2.08c0,0-3.956,4.108-5.264,6.358
	c3.22,0.118,5.815,2.161,6.747,5.393c0.544,1.7,0.301,5.591-0.411,7.269c-1.188,2.795-4.436,5.063-7.404,5.193
	C9.922,38.983,7.278,35.487,5.958,32.902z"/>
<path fill="#D40000" d="M173.379,218.39l-2.023,1.49c-1.756-2.863-3.72-4.749-6.725-4.425c-4.507,0.31-6.375,5.041-5.432,8.605
	c0.912,3.198,4.645,4.756,7.611,3.051c0.701-0.403,1.377-0.733,1.509-0.733c0.312,0,1.016,1.403,0.92,1.831
	c-1.992,2.912-6.828,8.015-6.828,8.015h7.556v-3.417h2.9v6.131H158.1v-2.08c0,0,3.956-4.109,5.264-6.359
	c-3.221-0.118-5.816-2.161-6.748-5.393c-0.543-1.7-0.3-5.591,0.412-7.268c1.188-2.796,4.436-5.063,7.404-5.194
	C169.415,212.309,172.059,215.805,173.379,218.39z"/>
</svg>
