<?xml version="1.0" encoding="utf-8"?>
<!-- Generator: Adobe Illustrator 16.0.0, SVG Export Plug-In . SVG Version: 6.00 Build 0)  -->
<!DOCTYPE svg PUBLIC "-//W3C//DTD SVG 1.1//EN" "http://www.w3.org/Graphics/SVG/1.1/DTD/svg11.dtd">
<svg version="1.1" id="Layer_1" xmlns="http://www.w3.org/2000/svg" xmlns:xlink="http://www.w3.org/1999/xlink" x="0px" y="0px"
	 width="178.58px" height="249.45px" viewBox="0 0 178.58 249.45" enable-background="new 0 0 178.58 249.45" xml:space="preserve">
<path fill="#FFFFFF" d="M9.28,0.422h160.778c4.696,0,8.504,3.808,8.504,8.504v231.644c0,4.696-3.808,8.504-8.504,8.504H9.28
	c-4.696,0-8.504-3.808-8.504-8.504V8.926C0.776,4.229,4.584,0.422,9.28,0.422z"/>
<path fill="none" stroke="#000000" stroke-width="1.0006" d="M9.28,0.422h160.778c4.696,0,8.504,3.808,8.504,8.504v231.644
	c0,4.696-3.808,8.504-8.504,8.504H9.28c-4.696,0-8.504-3.808-8.504-8.504V8.926C0.776,4.229,4.584,0.422,9.28,0.422z"/>
<path fill="#D40000" d="M14.488,56.222c0,0-1.771-2.544-4.161-5.534c-1.6-2.002-2.878-4.169-2.996-6.035
	c-0.137-2.133,1.153-4.271,3.489-4.375c2.335-0.104,3.283,1.644,3.668,3.085c0.387-1.441,1.334-3.188,3.669-3.085
	c2.336,0.104,3.626,2.242,3.489,4.375c-0.118,1.866-1.396,4.033-2.996,6.035C16.261,53.678,14.488,56.222,14.488,56.222z"/>
<path fill="#D40000" d="M164.851,193.273c0,0-1.772,2.544-4.162,5.534c-1.599,2.001-2.877,4.169-2.996,6.035
	c-0.136,2.132,1.154,4.271,3.49,4.375c2.335,0.104,3.282-1.644,3.668-3.085c0.386,1.441,1.333,3.188,3.668,3.085
	c2.336-0.104,3.626-2.243,3.49-4.375c-0.119-1.866-1.397-4.034-2.996-6.035C166.622,195.817,164.851,193.273,164.851,193.273z"/>
<path fill="#D40000" d="M89.669,64.771c0,0-3.716-6.104-8.729-13.282c-3.354-4.804-6.035-10.005-6.284-14.484
	c-0.286-5.117,2.421-10.251,7.32-10.5c4.897-0.249,6.885,3.945,7.693,7.403c0.81-3.458,2.797-7.652,7.694-7.403
	c4.899,0.249,7.605,5.383,7.32,10.5c-0.25,4.479-2.931,9.681-6.284,14.484C93.386,58.667,89.669,64.771,89.669,64.771z"/>
<path fill="#D40000" d="M89.669,143.886c0,0-3.716-6.104-8.729-13.282c-3.354-4.803-6.035-10.004-6.284-14.484
	c-0.286-5.117,2.421-10.251,7.32-10.5c4.897-0.248,6.885,3.946,7.693,7.404c0.81-3.458,2.797-7.652,7.694-7.404
	c4.899,0.249,7.605,5.383,7.32,10.5c-0.25,4.48-2.931,9.682-6.285,14.484C93.386,137.781,89.669,143.886,89.669,143.886z"/>
<path fill="#D40000" d="M89.669,184.724c0,0-3.716,6.104-8.729,13.282c-3.354,4.803-6.035,10.004-6.284,14.484
	c-0.286,5.117,2.421,10.251,7.32,10.5c4.897,0.249,6.885-3.946,7.693-7.404c0.81,3.458,2.797,7.653,7.694,7.404
	c4.899-0.249,7.605-5.383,7.32-10.5c-0.25-4.48-2.931-9.682-6.284-14.484C93.386,190.828,89.669,184.724,89.669,184.724z"/>
<path fill="#D40000" d="M5.958,32.004l2.023-1.49c1.756,2.863,3.72,4.749,6.724,4.426c4.508-0.311,6.376-5.041,5.433-8.606
	c-0.912-3.198-4.645-4.756-7.612-3.051c-0.7,0.404-1.376,0.733-1.508,0.733c-0.312,0-1.016-1.402-0.92-1.831
	c1.991-2.912,6.828-8.014,6.828-8.014H9.369v3.416H6.47v-6.13h14.768v2.08c0,0-3.957,4.108-5.265,6.358
	c3.221,0.118,5.816,2.162,6.748,5.393c0.544,1.701,0.301,5.592-0.411,7.269c-1.188,2.795-4.436,5.063-7.404,5.193
	C9.922,38.085,7.277,34.59,5.958,32.004z"/>
<path fill="#D40000" d="M173.379,217.491l-2.023,1.49c-1.756-2.863-3.72-4.749-6.725-4.426c-4.507,0.311-6.375,5.042-5.432,8.606
	c0.912,3.198,4.645,4.756,7.612,3.051c0.7-0.404,1.376-0.733,1.508-0.733c0.312,0,1.017,1.403,0.92,1.831
	c-1.991,2.912-6.828,8.014-6.828,8.014h7.556v-3.416h2.9v6.13H158.1v-2.08c0,0,3.957-4.108,5.264-6.358
	c-3.22-0.118-5.815-2.162-6.747-5.393c-0.544-1.701-0.3-5.592,0.411-7.269c1.189-2.795,4.436-5.063,7.404-5.193
	C169.415,211.41,172.06,214.906,173.379,217.491z"/>
</svg>
