<?xml version="1.0" encoding="utf-8"?>
<!-- Generator: Adobe Illustrator 16.0.0, SVG Export Plug-In . SVG Version: 6.00 Build 0)  -->
<!DOCTYPE svg PUBLIC "-//W3C//DTD SVG 1.1//EN" "http://www.w3.org/Graphics/SVG/1.1/DTD/svg11.dtd">
<svg version="1.1" id="Layer_1" xmlns="http://www.w3.org/2000/svg" xmlns:xlink="http://www.w3.org/1999/xlink" x="0px" y="0px"
	 width="178.58px" height="249.45px" viewBox="0 0 178.58 249.45" enable-background="new 0 0 178.58 249.45" xml:space="preserve">
<path fill="#FFFFFF" d="M9.28,0.871h160.778c4.696,0,8.504,3.808,8.504,8.504v231.644c0,4.696-3.808,8.504-8.504,8.504H9.28
	c-4.696,0-8.504-3.808-8.504-8.504V9.375C0.776,4.679,4.584,0.871,9.28,0.871z"/>
<path fill="none" stroke="#000000" stroke-width="1.0006" d="M9.28,0.871h160.778c4.696,0,8.504,3.808,8.504,8.504v231.644
	c0,4.696-3.808,8.504-8.504,8.504H9.28c-4.696,0-8.504-3.808-8.504-8.504V9.375C0.776,4.679,4.584,0.871,9.28,0.871z"/>
<path d="M14.488,40.722c-3.433,4.372-7.105,6.888-7.167,10.298c-0.021,1.104,0.648,2.982,2.743,3.342
	c1.358,0.231,3.229-0.75,3.269-2.746c-0.008-0.396,0.472-0.387,0.467,0.158c-0.063,1.573-0.622,3.406-1.56,4.897
	c1.499,0,2.998,0,4.497,0c-0.938-1.491-1.495-3.324-1.56-4.897c-0.008-0.545,0.473-0.555,0.467-0.158
	c0.039,1.996,1.91,2.978,3.269,2.746c2.095-0.359,2.764-2.237,2.743-3.342C21.595,47.609,17.922,45.094,14.488,40.722L14.488,40.722
	z"/>
<path d="M164.851,209.672c-3.434-4.372-7.106-6.888-7.167-10.299c-0.021-1.104,0.647-2.981,2.742-3.341
	c1.359-0.231,3.23,0.751,3.27,2.746c-0.009,0.396,0.471,0.387,0.466-0.157c-0.063-1.574-0.622-3.406-1.56-4.898
	c1.499,0,2.998,0,4.498,0c-0.938,1.492-1.496,3.324-1.561,4.898c-0.008,0.544,0.473,0.555,0.467,0.157
	c0.039-1.995,1.91-2.978,3.27-2.746c2.095,0.359,2.763,2.237,2.742,3.341C171.957,202.784,168.283,205.3,164.851,209.672z"/>
<path d="M89.669,26.943c-7.348,10.492-15.21,16.53-15.34,24.716c-0.044,2.65,1.387,7.155,5.87,8.018
	c2.908,0.557,6.913-1.8,6.997-6.589c-0.013-0.953,1.008-0.929,0.998,0.378c-0.137,3.777-1.331,8.175-3.338,11.755
	c3.209,0,6.417,0,9.626,0c-2.007-3.58-3.201-7.978-3.338-11.755c-0.01-1.307,1.011-1.331,0.998-0.378
	c0.084,4.789,4.088,7.146,6.997,6.589c4.483-0.862,5.914-5.367,5.87-8.018C104.88,43.474,97.018,37.436,89.669,26.943L89.669,26.943
	z"/>
<path d="M89.669,223.45c-7.348-10.492-15.21-16.53-15.34-24.716c-0.044-2.65,1.387-7.155,5.87-8.018
	c2.908-0.557,6.913,1.8,6.997,6.589c-0.013,0.953,1.008,0.929,0.998-0.378c-0.137-3.777-1.331-8.175-3.338-11.755
	c3.209,0,6.417,0,9.626,0c-2.007,3.58-3.201,7.978-3.338,11.755c-0.01,1.307,1.011,1.331,0.998,0.378
	c0.084-4.789,4.088-7.146,6.997-6.589c4.483,0.862,5.914,5.367,5.87,8.018C104.88,206.92,97.018,212.958,89.669,223.45
	L89.669,223.45z"/>
<path d="M89.669,106.059c-7.348,10.491-15.21,16.529-15.34,24.715c-0.044,2.65,1.387,7.156,5.87,8.019
	c2.908,0.557,6.913-1.801,6.997-6.589c-0.013-0.954,1.008-0.929,0.998,0.377c-0.137,3.777-1.331,8.176-3.338,11.755
	c3.209,0,6.417,0,9.626,0c-2.007-3.579-3.201-7.978-3.338-11.755c-0.01-1.306,1.011-1.331,0.998-0.377
	c0.084,4.788,4.088,7.146,6.997,6.589c4.483-0.862,5.914-5.368,5.87-8.019C104.88,122.588,97.018,116.55,89.669,106.059
	L89.669,106.059z"/>
<path d="M5.958,32.453l2.023-1.49c1.756,2.863,3.72,4.749,6.724,4.426c4.508-0.311,6.376-5.042,5.433-8.606
	c-0.912-3.198-4.645-4.756-7.612-3.051c-0.7,0.403-1.376,0.733-1.508,0.733c-0.312,0-1.016-1.403-0.92-1.831
	c1.992-2.912,6.828-8.014,6.828-8.014H9.37v3.416h-2.9v-6.13h14.768v2.08c0,0-3.956,4.108-5.264,6.358
	c3.22,0.118,5.815,2.161,6.747,5.393c0.544,1.7,0.301,5.591-0.411,7.269c-1.188,2.795-4.436,5.063-7.404,5.193
	C9.922,38.534,7.277,35.038,5.958,32.453z"/>
<path d="M173.379,217.94l-2.023,1.49c-1.756-2.863-3.72-4.749-6.724-4.426c-4.508,0.311-6.376,5.042-5.433,8.606
	c0.912,3.198,4.645,4.756,7.612,3.051c0.7-0.404,1.376-0.734,1.508-0.734c0.312,0,1.017,1.404,0.92,1.832
	c-1.991,2.912-6.828,8.014-6.828,8.014h7.556v-3.416h2.9v6.13H158.1v-2.08c0,0,3.957-4.108,5.264-6.358
	c-3.22-0.118-5.815-2.162-6.747-5.393c-0.544-1.701-0.301-5.591,0.411-7.269c1.188-2.795,4.436-5.063,7.404-5.193
	C169.415,211.859,172.06,215.355,173.379,217.94z"/>
</svg>
