<?xml version="1.0" encoding="utf-8"?>
<!-- Generator: Adobe Illustrator 16.0.0, SVG Export Plug-In . SVG Version: 6.00 Build 0)  -->
<!DOCTYPE svg PUBLIC "-//W3C//DTD SVG 1.1//EN" "http://www.w3.org/Graphics/SVG/1.1/DTD/svg11.dtd">
<svg version="1.1" id="Layer_1" xmlns="http://www.w3.org/2000/svg" xmlns:xlink="http://www.w3.org/1999/xlink" x="0px" y="0px"
	 width="178.58px" height="249.45px" viewBox="0 0 178.58 249.45" enable-background="new 0 0 178.58 249.45" xml:space="preserve">
<path fill="#FFFFFF" d="M8.863,0.973h160.777c4.696,0,8.504,3.807,8.504,8.504V241.12c0,4.696-3.808,8.504-8.504,8.504H8.863
	c-4.696,0-8.504-3.808-8.504-8.504V9.477C0.359,4.779,4.167,0.973,8.863,0.973z"/>
<path fill="none" stroke="#000000" stroke-width="0.9967" d="M8.863,0.973h160.777c4.696,0,8.504,3.807,8.504,8.504V241.12
	c0,4.696-3.808,8.504-8.504,8.504H8.863c-4.696,0-8.504-3.808-8.504-8.504V9.477C0.359,4.779,4.167,0.973,8.863,0.973z"/>
<path d="M130.477,27.376c-7.819,0.17-11.325,8.974-5.534,15.811c0.84,0.997,0.927,1.569-0.612,0.612
	c-3.898-2.607-11.375-0.894-11.758,7.077c-0.473,9.822,13.25,12.651,15.827,2.208c0.136-1.102,1.031-1.077,0.815,0.487
	c-0.235,4.245-1.561,8.213-3.383,12.082c3.071,0,6.504,0,9.296,0c-1.822-3.869-3.147-7.837-3.383-12.082
	c-0.216-1.564,0.68-1.589,0.815-0.487c2.577,10.443,16.3,7.614,15.827-2.208c-0.383-7.971-7.859-9.685-11.758-7.077
	c-1.538,0.957-1.452,0.386-0.612-0.612c5.791-6.837,2.285-15.641-5.534-15.811H130.477L130.477,27.376z"/>
<path d="M48.021,27.376c-7.819,0.17-11.326,8.974-5.535,15.811c0.84,0.997,0.927,1.569-0.611,0.612
	c-3.899-2.607-11.375-0.894-11.758,7.077c-0.474,9.822,13.25,12.651,15.826,2.208c0.137-1.102,1.032-1.077,0.816,0.487
	c-0.235,4.245-1.562,8.213-3.384,12.082c3.071,0,6.504,0,9.297,0c-1.822-3.869-3.148-7.837-3.383-12.082
	c-0.217-1.564,0.68-1.589,0.815-0.487c2.576,10.443,16.3,7.614,15.827-2.208c-0.383-7.971-7.859-9.685-11.759-7.077
	c-1.538,0.957-1.451,0.386-0.611-0.612c5.791-6.837,2.285-15.641-5.535-15.811h-0.008H48.021z"/>
<path d="M130.477,223.883c-7.819-0.17-11.325-8.974-5.534-15.811c0.84-0.997,0.927-1.569-0.612-0.611
	c-3.898,2.607-11.375,0.893-11.758-7.078c-0.473-9.821,13.25-12.651,15.827-2.208c0.136,1.103,1.031,1.077,0.815-0.487
	c-0.235-4.245-1.561-8.213-3.383-12.082c3.071,0,6.504,0,9.296,0c-1.822,3.869-3.147,7.837-3.383,12.082
	c-0.216,1.564,0.68,1.59,0.815,0.487c2.577-10.443,16.3-7.613,15.827,2.208c-0.383,7.971-7.859,9.686-11.758,7.078
	c-1.538-0.958-1.452-0.386-0.612,0.611c5.791,6.837,2.285,15.641-5.534,15.811H130.477L130.477,223.883z"/>
<path d="M48.021,223.883c-7.819-0.17-11.326-8.974-5.535-15.811c0.84-0.997,0.927-1.569-0.611-0.611
	c-3.899,2.607-11.375,0.893-11.758-7.078c-0.474-9.821,13.25-12.651,15.826-2.208c0.137,1.103,1.032,1.077,0.816-0.487
	c-0.235-4.245-1.562-8.213-3.384-12.082c3.071,0,6.504,0,9.297,0c-1.822,3.869-3.148,7.837-3.383,12.082
	c-0.217,1.564,0.68,1.59,0.815,0.487c2.576-10.443,16.3-7.613,15.827,2.208c-0.383,7.971-7.859,9.686-11.759,7.078
	c-1.538-0.958-1.451-0.386-0.611,0.611c5.791,6.837,2.285,15.641-5.535,15.811h-0.008H48.021z"/>
<path d="M164.434,209.773c3.128-0.071,4.531-3.739,2.215-6.588c-0.336-0.416-0.371-0.654,0.244-0.255
	c1.56,1.086,4.551,0.372,4.703-2.949c0.189-4.093-5.3-5.271-6.33-0.92c-0.055,0.459-0.413,0.448-0.326-0.203
	c0.094-1.769,0.624-3.422,1.353-5.034c-1.239,0-2.479,0-3.718,0c0.729,1.612,1.259,3.266,1.353,5.034
	c0.087,0.651-0.271,0.662-0.326,0.203c-1.03-4.352-6.52-3.173-6.331,0.92c0.153,3.321,3.144,4.035,4.703,2.949
	c0.615-0.399,0.581-0.161,0.245,0.255c-2.316,2.849-0.914,6.517,2.214,6.588H164.434z"/>
<path d="M14.07,40.823c-3.128,0.07-4.53,3.739-2.214,6.588c0.336,0.415,0.371,0.653-0.245,0.255
	c-1.559-1.087-4.55-0.372-4.703,2.949c-0.188,4.092,5.301,5.271,6.331,0.92c0.055-0.46,0.413-0.449,0.326,0.202
	c-0.094,1.77-0.624,3.423-1.353,5.034c1.239,0,2.479,0,3.718,0c-0.729-1.611-1.259-3.265-1.353-5.034
	c-0.087-0.651,0.271-0.662,0.326-0.202c1.03,4.352,6.52,3.172,6.33-0.92c-0.153-3.321-3.144-4.036-4.703-2.949
	c-0.615,0.398-0.581,0.16-0.245-0.255c2.317-2.849,0.914-6.518-2.214-6.588H14.07z"/>
<path d="M14.255,38.319v-2.324h2.095v-3.834H5.871v-2.705L17.21,12.007l1.853,0.01v17.439h3.208v2.705h-3.208l-0.061,3.834h1.756
	v2.328h-6.504L14.255,38.319z M16.35,18.396L9.15,29.457h7.199V18.396z"/>
<path d="M164.247,212.276v2.324h-2.095v3.834h10.479v2.706l-11.34,17.448l-1.853-0.01v-17.438h-3.207v-2.706h3.207l0.062-3.834
	h-1.756v-2.327h6.503L164.247,212.276z M162.152,232.201l7.199-11.062h-7.199V232.201z"/>
</svg>
