<?xml version="1.0" encoding="utf-8"?>
<!-- Generator: Adobe Illustrator 16.0.0, SVG Export Plug-In . SVG Version: 6.00 Build 0)  -->
<!DOCTYPE svg PUBLIC "-//W3C//DTD SVG 1.1//EN" "http://www.w3.org/Graphics/SVG/1.1/DTD/svg11.dtd">
<svg version="1.1" id="Layer_1" xmlns="http://www.w3.org/2000/svg" xmlns:xlink="http://www.w3.org/1999/xlink" x="0px" y="0px"
	 width="178.58px" height="249.45px" viewBox="0 0 178.58 249.45" enable-background="new 0 0 178.58 249.45" xml:space="preserve">
<path fill="#FFFFFF" d="M9.863,1.32h160.777c4.696,0,8.504,3.808,8.504,8.504v231.644c0,4.696-3.808,8.504-8.504,8.504H9.863
	c-4.696,0-8.504-3.808-8.504-8.504V9.824C1.359,5.128,5.167,1.32,9.863,1.32z"/>
<path fill="none" stroke="#000000" stroke-width="1.0006" d="M9.863,1.32h160.777c4.696,0,8.504,3.808,8.504,8.504v231.644
	c0,4.696-3.808,8.504-8.504,8.504H9.863c-4.696,0-8.504-3.808-8.504-8.504V9.824C1.359,5.128,5.167,1.32,9.863,1.32z"/>
<path fill="#D40000" d="M15.071,57.12c-1.721-2.846-3.531-5.612-5.794-7.975c2.263-2.362,4.073-5.129,5.794-7.975
	c1.722,2.846,3.532,5.612,5.795,7.975C18.604,51.508,16.793,54.274,15.071,57.12z"/>
<path fill="#D40000" d="M131.48,65.67c-4.131-6.83-8.477-13.468-13.906-19.139c5.43-5.671,9.775-12.309,13.906-19.139
	c4.13,6.83,8.476,13.468,13.906,19.139C139.956,52.202,135.61,58.84,131.48,65.67z"/>
<path fill="#D40000" d="M165.433,210.121c-1.721-2.846-3.531-5.611-5.794-7.975c2.263-2.362,4.073-5.129,5.794-7.975
	c1.722,2.846,3.532,5.612,5.795,7.975C168.965,204.51,167.154,207.275,165.433,210.121z"/>
<path fill="#D40000" d="M49.023,65.67c-4.13-6.83-8.476-13.468-13.906-19.139c5.431-5.671,9.776-12.309,13.906-19.139
	c4.131,6.83,8.477,13.468,13.906,19.139C57.5,52.202,53.154,58.84,49.023,65.67z"/>
<path fill="#D40000" d="M49.023,223.903c-4.13-6.83-8.476-13.468-13.906-19.139c5.431-5.67,9.776-12.309,13.906-19.139
	c4.131,6.83,8.477,13.469,13.906,19.139C57.5,210.436,53.154,217.073,49.023,223.903z"/>
<path fill="#D40000" d="M131.48,223.909c-4.131-6.83-8.477-13.468-13.906-19.139c5.43-5.671,9.775-12.309,13.906-19.139
	c4.13,6.83,8.476,13.468,13.906,19.139C139.956,210.441,135.61,217.079,131.48,223.909z"/>
<path fill="#D40000" d="M15.255,38.668v-2.324h2.095v-3.835H6.871v-2.705L18.21,12.355l1.853,0.009v17.439h3.208v2.706h-3.208
	l-0.061,3.834h1.756v2.327h-6.503V38.668z M17.35,18.743L10.15,29.805h7.199V18.743z"/>
<path fill="#D40000" d="M165.247,212.625v2.324h-2.095v3.834h10.479v2.705l-11.34,17.449l-1.853-0.01v-17.439h-3.207v-2.705h3.207
	l0.061-3.834h-1.756v-2.328h6.503V212.625z M163.152,232.549l7.199-11.062h-7.199V232.549z"/>
</svg>
