<?xml version="1.0" encoding="utf-8"?>
<!-- Generator: Adobe Illustrator 16.0.0, SVG Export Plug-In . SVG Version: 6.00 Build 0)  -->
<!DOCTYPE svg PUBLIC "-//W3C//DTD SVG 1.1//EN" "http://www.w3.org/Graphics/SVG/1.1/DTD/svg11.dtd">
<svg version="1.1" id="Layer_1" xmlns="http://www.w3.org/2000/svg" xmlns:xlink="http://www.w3.org/1999/xlink" x="0px" y="0px"
	 width="178.58px" height="249.45px" viewBox="0 0 178.58 249.45" enable-background="new 0 0 178.58 249.45" xml:space="preserve">
<path fill="#FFFFFF" d="M8.863,0.422h160.777c4.697,0,8.504,3.808,8.504,8.504v231.644c0,4.696-3.807,8.504-8.504,8.504H8.863
	c-4.697,0-8.504-3.808-8.504-8.504V8.926C0.359,4.229,4.166,0.422,8.863,0.422z"/>
<path fill="none" stroke="#000000" stroke-width="1.0006" d="M8.863,0.422h160.777c4.697,0,8.504,3.808,8.504,8.504v231.644
	c0,4.696-3.807,8.504-8.504,8.504H8.863c-4.697,0-8.504-3.808-8.504-8.504V8.926C0.359,4.229,4.166,0.422,8.863,0.422z"/>
<path fill="#D40000" d="M14.071,56.222c0-0.003-1.771-2.544-4.162-5.534c-1.599-2.002-2.877-4.169-2.996-6.035
	c-0.136-2.133,1.154-4.271,3.49-4.375c2.335-0.104,3.282,1.644,3.668,3.085c0.386-1.441,1.333-3.188,3.668-3.085
	c2.336,0.104,3.627,2.242,3.49,4.375c-0.119,1.866-1.397,4.033-2.996,6.035C15.843,53.678,14.073,56.22,14.071,56.222z"/>
<path fill="#D40000" d="M164.433,193.273c0,0.002-1.771,2.544-4.161,5.534c-1.6,2.001-2.878,4.169-2.996,6.035
	c-0.137,2.132,1.153,4.271,3.489,4.375c2.335,0.104,3.282-1.644,3.668-3.085c0.386,1.441,1.334,3.188,3.669,3.085
	c2.336-0.104,3.626-2.243,3.489-4.375c-0.118-1.866-1.397-4.034-2.996-6.035C166.205,195.817,164.435,193.275,164.433,193.273z"/>
<path fill="#D40000" d="M48.023,64.771c0-0.005-3.717-6.104-8.729-13.282c-3.354-4.804-6.035-10.005-6.284-14.484
	c-0.286-5.117,2.42-10.251,7.32-10.5c4.896-0.249,6.885,3.945,7.693,7.403c0.81-3.458,2.797-7.652,7.693-7.403
	c4.9,0.249,7.606,5.383,7.32,10.5c-0.249,4.479-2.93,9.681-6.284,14.484C51.74,58.667,48.026,64.767,48.023,64.771z"/>
<path fill="#D40000" d="M130.48,64.771c0-0.005-3.717-6.104-8.729-13.282c-3.354-4.804-6.035-10.005-6.284-14.484
	c-0.286-5.117,2.42-10.251,7.32-10.5c4.896-0.249,6.884,3.945,7.693,7.403c0.809-3.458,2.797-7.652,7.693-7.403
	c4.9,0.249,7.606,5.383,7.32,10.5c-0.249,4.479-2.931,9.681-6.284,14.484C134.196,58.667,130.483,64.767,130.48,64.771z"/>
<path fill="#D40000" d="M130.48,184.724c0,0.005-3.717,6.104-8.729,13.282c-3.354,4.803-6.035,10.004-6.284,14.484
	c-0.286,5.117,2.42,10.251,7.32,10.5c4.896,0.249,6.884-3.946,7.693-7.404c0.809,3.458,2.797,7.653,7.693,7.404
	c4.9-0.249,7.606-5.383,7.32-10.5c-0.249-4.48-2.931-9.682-6.284-14.484C134.196,190.828,130.483,184.729,130.48,184.724z"/>
<path fill="#D40000" d="M48.023,184.724c0,0.005-3.717,6.104-8.729,13.282c-3.354,4.803-6.035,10.004-6.284,14.484
	c-0.286,5.117,2.42,10.251,7.32,10.5c4.896,0.249,6.885-3.946,7.693-7.404c0.81,3.458,2.797,7.653,7.693,7.404
	c4.9-0.249,7.606-5.383,7.32-10.5c-0.249-4.48-2.93-9.682-6.284-14.484C51.74,190.828,48.026,184.729,48.023,184.724z"/>
<path fill="#D40000" d="M14.255,37.77v-2.324h2.095V31.61H5.87v-2.705l11.34-17.448l1.853,0.009v17.439h3.207v2.705h-3.207
	l-0.061,3.835h1.756v2.327h-6.503V37.77z M16.35,17.845L9.15,28.906h7.199V17.845z"/>
<path fill="#D40000" d="M164.248,211.726v2.324h-2.096v3.834h10.479v2.706l-11.339,17.448l-1.853-0.01V220.59h-3.208v-2.706h3.208
	l0.061-3.834h-1.757v-2.327h6.504V211.726z M162.152,231.65l7.199-11.062h-7.199V231.65z"/>
</svg>
