<?xml version="1.0" encoding="utf-8"?>
<!-- Generator: Adobe Illustrator 16.0.0, SVG Export Plug-In . SVG Version: 6.00 Build 0)  -->
<!DOCTYPE svg PUBLIC "-//W3C//DTD SVG 1.1//EN" "http://www.w3.org/Graphics/SVG/1.1/DTD/svg11.dtd">
<svg version="1.1" id="Layer_1" xmlns="http://www.w3.org/2000/svg" xmlns:xlink="http://www.w3.org/1999/xlink" x="0px" y="0px"
	 width="178.58px" height="249.45px" viewBox="0 0 178.58 249.45" enable-background="new 0 0 178.58 249.45" xml:space="preserve">
<path fill="#FFFFFF" d="M9.863,0.871h160.777c4.697,0,8.504,3.808,8.504,8.504v231.644c0,4.696-3.807,8.504-8.504,8.504H9.863
	c-4.697,0-8.504-3.808-8.504-8.504V9.375C1.359,4.679,5.166,0.871,9.863,0.871z"/>
<path fill="none" stroke="#000000" stroke-width="1.0006" d="M9.863,0.871h160.777c4.697,0,8.504,3.808,8.504,8.504v231.644
	c0,4.696-3.807,8.504-8.504,8.504H9.863c-4.697,0-8.504-3.808-8.504-8.504V9.375C1.359,4.679,5.166,0.871,9.863,0.871z"/>
<path d="M49.023,26.943c-7.348,10.492-15.21,16.53-15.34,24.716c-0.044,2.65,1.387,7.155,5.87,8.018
	c2.908,0.557,6.913-1.8,6.997-6.589c-0.013-0.953,1.008-0.929,0.998,0.378c-0.137,3.777-1.331,8.175-3.338,11.755
	c3.209,0,6.417,0,9.626,0c-2.007-3.58-3.201-7.978-3.339-11.755c-0.009-1.307,1.012-1.331,0.999-0.378
	c0.084,4.789,4.088,7.146,6.997,6.589c4.482-0.862,5.914-5.367,5.87-8.018C64.234,43.474,56.372,37.436,49.023,26.943z"/>
<path d="M15.071,40.722c-3.433,4.372-7.106,6.888-7.167,10.298c-0.021,1.104,0.648,2.982,2.742,3.342
	c1.359,0.231,3.23-0.75,3.27-2.746c-0.008-0.396,0.471-0.387,0.467,0.158c-0.064,1.573-0.622,3.406-1.56,4.897
	c1.499,0,2.998,0,4.497,0c-0.938-1.491-1.496-3.324-1.56-4.897c-0.008-0.545,0.473-0.555,0.467-0.158
	c0.038,1.996,1.909,2.978,3.269,2.746c2.095-0.359,2.764-2.237,2.743-3.342C22.178,47.609,18.505,45.094,15.071,40.722z"/>
<path d="M165.434,209.672c-3.434-4.372-7.106-6.888-7.168-10.299c-0.021-1.104,0.648-2.981,2.743-3.341
	c1.358-0.231,3.229,0.751,3.269,2.746c-0.008,0.396,0.472,0.387,0.467-0.157c-0.063-1.574-0.622-3.406-1.56-4.898
	c1.499,0,2.998,0,4.497,0c-0.938,1.492-1.495,3.324-1.56,4.898c-0.008,0.544,0.473,0.555,0.467,0.157
	c0.039-1.995,1.91-2.978,3.269-2.746c2.095,0.359,2.764,2.237,2.743,3.341C172.539,202.784,168.866,205.3,165.434,209.672z"/>
<path d="M131.48,26.943c-7.348,10.492-15.21,16.53-15.341,24.716c-0.044,2.65,1.388,7.155,5.871,8.018
	c2.908,0.557,6.913-1.8,6.996-6.589c-0.013-0.953,1.009-0.929,0.999,0.378c-0.137,3.777-1.331,8.175-3.338,11.755
	c3.208,0,6.417,0,9.625,0c-2.007-3.58-3.201-7.978-3.338-11.755c-0.01-1.307,1.012-1.331,0.999-0.378
	c0.083,4.789,4.088,7.146,6.996,6.589c4.483-0.862,5.915-5.367,5.871-8.018C146.69,43.474,138.828,37.436,131.48,26.943z"/>
<path d="M49.023,223.45c-7.348-10.492-15.21-16.53-15.34-24.716c-0.044-2.65,1.387-7.155,5.87-8.018
	c2.908-0.557,6.913,1.8,6.997,6.589c-0.013,0.953,1.008,0.929,0.998-0.378c-0.137-3.777-1.331-8.175-3.338-11.755
	c3.209,0,6.417,0,9.626,0c-2.007,3.58-3.201,7.978-3.339,11.755c-0.009,1.307,1.012,1.331,0.999,0.378
	c0.084-4.789,4.088-7.146,6.997-6.589c4.482,0.862,5.914,5.367,5.87,8.018C64.234,206.92,56.372,212.958,49.023,223.45z"/>
<path d="M131.48,223.45c-7.348-10.492-15.21-16.53-15.341-24.716c-0.044-2.65,1.388-7.155,5.871-8.018
	c2.908-0.557,6.913,1.8,6.996,6.589c-0.013,0.953,1.009,0.929,0.999-0.378c-0.137-3.777-1.331-8.175-3.338-11.755
	c3.208,0,6.417,0,9.625,0c-2.007,3.58-3.201,7.978-3.338,11.755c-0.01,1.307,1.012,1.331,0.999,0.378
	c0.083-4.789,4.088-7.146,6.996-6.589c4.483,0.862,5.915,5.367,5.871,8.018C146.69,206.92,138.828,212.958,131.48,223.45z"/>
<path d="M15.255,38.219v-2.324h2.095V32.06H6.871v-2.705L18.21,11.906l1.853,0.01v17.438h3.208v2.706h-3.208l-0.061,3.834h1.756
	v2.327h-6.503V38.219z M17.35,18.294L10.15,29.355h7.199V18.294z"/>
<path d="M165.249,212.175v2.324h-2.095v3.835h10.479v2.705l-11.339,17.448l-1.853-0.009v-17.439h-3.208v-2.706h3.208l0.061-3.834
	h-1.756v-2.327h6.503V212.175z M163.154,232.1l7.199-11.062h-7.199V232.1z"/>
</svg>
