<?xml version="1.0" encoding="utf-8"?>
<!-- Generator: Adobe Illustrator 16.0.0, SVG Export Plug-In . SVG Version: 6.00 Build 0)  -->
<!DOCTYPE svg PUBLIC "-//W3C//DTD SVG 1.1//EN" "http://www.w3.org/Graphics/SVG/1.1/DTD/svg11.dtd">
<svg version="1.1" id="Layer_1" xmlns="http://www.w3.org/2000/svg" xmlns:xlink="http://www.w3.org/1999/xlink" x="0px" y="0px"
	 width="178.58px" height="249.45px" viewBox="0 0 178.58 249.45" enable-background="new 0 0 178.58 249.45" xml:space="preserve">
<path fill="#FFFFFF" d="M9.445,0.973h160.778c4.696,0,8.504,3.808,8.504,8.504V241.12c0,4.696-3.808,8.504-8.504,8.504H9.445
	c-4.696,0-8.504-3.808-8.504-8.504V9.477C0.941,4.78,4.749,0.973,9.445,0.973z"/>
<path fill="none" stroke="#000000" stroke-width="1.0006" d="M9.445,0.973h160.778c4.696,0,8.504,3.808,8.504,8.504V241.12
	c0,4.696-3.808,8.504-8.504,8.504H9.445c-4.696,0-8.504-3.808-8.504-8.504V9.477C0.941,4.78,4.749,0.973,9.445,0.973z"/>
<path d="M131.06,27.377c-7.819,0.169-11.326,8.974-5.534,15.811c0.84,0.997,0.926,1.569-0.612,0.611
	c-3.899-2.607-11.375-0.894-11.758,7.078c-0.474,9.821,13.25,12.651,15.827,2.207c0.136-1.102,1.031-1.076,0.815,0.487
	c-0.235,4.245-1.561,8.213-3.383,12.082c3.071,0,6.503,0,9.296,0c-1.822-3.869-3.148-7.837-3.383-12.082
	c-0.216-1.563,0.68-1.589,0.815-0.487c2.577,10.444,16.3,7.614,15.827-2.207c-0.383-7.972-7.859-9.686-11.759-7.078
	c-1.538,0.958-1.451,0.386-0.611-0.611c5.791-6.837,2.285-15.642-5.534-15.811h-0.009H131.06z"/>
<path d="M48.604,27.377c-7.82,0.169-11.326,8.974-5.535,15.811c0.84,0.997,0.927,1.569-0.611,0.611
	c-3.899-2.607-11.376-0.894-11.759,7.078c-0.473,9.821,13.25,12.651,15.827,2.207c0.136-1.102,1.031-1.076,0.815,0.487
	c-0.234,4.245-1.561,8.213-3.383,12.082c3.071,0,6.504,0,9.296,0c-1.822-3.869-3.147-7.837-3.383-12.082
	c-0.216-1.563,0.68-1.589,0.815-0.487c2.577,10.444,16.3,7.614,15.827-2.207c-0.383-7.972-7.859-9.686-11.758-7.078
	c-1.538,0.958-1.452,0.386-0.612-0.611c5.792-6.837,2.285-15.642-5.534-15.811h-0.008H48.604z"/>
<path d="M131.06,223.883c-7.819-0.17-11.326-8.974-5.534-15.811c0.84-0.997,0.926-1.569-0.612-0.611
	c-3.899,2.607-11.375,0.893-11.758-7.078c-0.474-9.821,13.25-12.651,15.827-2.208c0.136,1.103,1.031,1.077,0.815-0.487
	c-0.235-4.245-1.561-8.213-3.383-12.082c3.071,0,6.503,0,9.296,0c-1.822,3.869-3.148,7.837-3.383,12.082
	c-0.216,1.564,0.68,1.59,0.815,0.487c2.577-10.443,16.3-7.613,15.827,2.208c-0.383,7.971-7.859,9.686-11.759,7.078
	c-1.538-0.958-1.451-0.386-0.611,0.611c5.791,6.837,2.285,15.641-5.534,15.811h-0.009H131.06z"/>
<path d="M48.604,223.883c-7.82-0.17-11.326-8.974-5.535-15.811c0.84-0.997,0.927-1.569-0.611-0.611
	c-3.899,2.607-11.376,0.893-11.759-7.078c-0.473-9.821,13.25-12.651,15.827-2.208c0.136,1.103,1.031,1.077,0.815-0.487
	c-0.234-4.245-1.561-8.213-3.383-12.082c3.071,0,6.504,0,9.296,0c-1.822,3.869-3.147,7.837-3.383,12.082
	c-0.216,1.564,0.68,1.59,0.815,0.487c2.577-10.443,16.3-7.613,15.827,2.208c-0.383,7.971-7.859,9.686-11.758,7.078
	c-1.538-0.958-1.452-0.386-0.612,0.611c5.792,6.837,2.285,15.641-5.534,15.811h-0.008H48.604z"/>
<path d="M89.831,106.491c-7.819,0.17-11.325,8.974-5.534,15.811c0.84,0.997,0.926,1.569-0.612,0.611
	c-3.898-2.607-11.375-0.893-11.758,7.078c-0.473,9.821,13.25,12.651,15.827,2.208c0.136-1.103,1.031-1.077,0.815,0.487
	c-0.235,4.245-1.561,8.213-3.383,12.082c3.071,0,6.504,0,9.296,0c-1.822-3.869-3.147-7.837-3.383-12.082
	c-0.216-1.564,0.68-1.59,0.815-0.487c2.577,10.443,16.3,7.613,15.827-2.208c-0.383-7.971-7.859-9.686-11.758-7.078
	c-1.539,0.958-1.452,0.386-0.612-0.611c5.792-6.837,2.285-15.641-5.534-15.811H89.831L89.831,106.491z"/>
<path d="M165.017,209.772c3.128-0.07,4.53-3.738,2.214-6.587c-0.336-0.416-0.37-0.654,0.245-0.255
	c1.56,1.086,4.55,0.372,4.703-2.949c0.189-4.093-5.3-5.271-6.331-0.92c-0.054,0.459-0.412,0.448-0.326-0.203
	c0.095-1.769,0.625-3.422,1.354-5.034c-1.239,0-2.479,0-3.719,0c0.729,1.612,1.26,3.266,1.354,5.034
	c0.087,0.651-0.271,0.662-0.326,0.203c-1.03-4.352-6.52-3.173-6.331,0.92c0.153,3.321,3.144,4.035,4.704,2.949
	c0.615-0.399,0.58-0.161,0.244,0.255c-2.316,2.849-0.914,6.517,2.214,6.587H165.017z"/>
<path d="M14.653,40.823c-3.128,0.07-4.53,3.739-2.214,6.588c0.336,0.416,0.37,0.654-0.245,0.255c-1.56-1.086-4.55-0.372-4.703,2.949
	c-0.189,4.092,5.3,5.271,6.331,0.92c0.054-0.459,0.412-0.449,0.326,0.203c-0.095,1.769-0.625,3.422-1.354,5.034
	c1.239,0,2.479,0,3.719,0c-0.729-1.612-1.26-3.266-1.354-5.034c-0.087-0.652,0.271-0.662,0.326-0.203
	c1.03,4.352,6.52,3.172,6.331-0.92c-0.153-3.321-3.144-4.035-4.704-2.949c-0.615,0.399-0.58,0.161-0.244-0.255
	c2.316-2.849,0.914-6.517-2.214-6.588H14.653z"/>
<path d="M6.369,31.511l2.576-0.025c0.491,1.589,1.579,3.203,3.056,3.651c4.171,0.999,6.855-1.379,7.739-4.12
	c1.071-3.325-0.024-7.994-2.896-9.651c-2.379-1.374-5.915-0.215-7.539,2.725l-1.804-1.126l0.968-10.956h11.787v2.59h-9.552
	l-0.151,4.564c2.057-1.473,5.217-1.457,7.271-0.424c3.892,1.893,5.7,6.197,4.944,11.271c-1.048,5.046-3.36,7.905-8.575,8.313
	C8.393,38.376,6.345,34.309,6.369,31.511z"/>
<path d="M173.299,219.086l-2.576,0.025c-0.492-1.589-1.579-3.203-3.056-3.651c-4.172-0.999-6.855,1.379-7.739,4.12
	c-1.072,3.324,0.023,7.994,2.896,9.651c2.38,1.374,5.916,0.215,7.54-2.725l1.804,1.125l-0.969,10.957h-11.786v-2.59h9.551
	l0.151-4.564c-2.056,1.473-5.216,1.457-7.271,0.424c-3.893-1.894-5.7-6.198-4.945-11.271c1.049-5.047,3.361-7.905,8.576-8.314
	C171.275,212.221,173.323,216.288,173.299,219.086z"/>
</svg>
