<?xml version="1.0" encoding="utf-8"?>
<!-- Generator: Adobe Illustrator 16.0.0, SVG Export Plug-In . SVG Version: 6.00 Build 0)  -->
<!DOCTYPE svg PUBLIC "-//W3C//DTD SVG 1.1//EN" "http://www.w3.org/Graphics/SVG/1.1/DTD/svg11.dtd">
<svg version="1.1" id="Layer_1" xmlns="http://www.w3.org/2000/svg" xmlns:xlink="http://www.w3.org/1999/xlink" x="0px" y="0px"
	 width="178.58px" height="249.45px" viewBox="0 0 178.58 249.45" enable-background="new 0 0 178.58 249.45" xml:space="preserve">
<path fill="#FFFFFF" d="M9.446,1.32h160.777c4.696,0,8.504,3.808,8.504,8.504v231.644c0,4.696-3.808,8.504-8.504,8.504H9.446
	c-4.697,0-8.504-3.808-8.504-8.504V9.824C0.942,5.128,4.749,1.32,9.446,1.32z"/>
<path fill="none" stroke="#000000" stroke-width="1.0006" d="M9.446,1.32h160.777c4.696,0,8.504,3.808,8.504,8.504v231.644
	c0,4.696-3.808,8.504-8.504,8.504H9.446c-4.697,0-8.504-3.808-8.504-8.504V9.824C0.942,5.128,4.749,1.32,9.446,1.32z"/>
<path fill="#D40000" d="M14.654,57.12c-1.721-2.846-3.531-5.612-5.795-7.975c2.264-2.362,4.074-5.129,5.795-7.975
	c1.721,2.846,3.531,5.612,5.794,7.975C18.186,51.508,16.375,54.274,14.654,57.12z"/>
<path fill="#D40000" d="M131.063,65.67c-4.13-6.83-8.476-13.468-13.906-19.139c5.431-5.671,9.776-12.309,13.906-19.139
	c4.131,6.83,8.477,13.468,13.906,19.139C139.539,52.202,135.193,58.84,131.063,65.67z"/>
<path fill="#D40000" d="M165.016,210.121c-1.721-2.846-3.532-5.611-5.795-7.975c2.263-2.362,4.074-5.129,5.795-7.975
	c1.721,2.846,3.531,5.612,5.794,7.975C168.547,204.51,166.736,207.275,165.016,210.121z"/>
<path fill="#D40000" d="M48.606,65.67c-4.131-6.83-8.476-13.468-13.906-19.139c5.43-5.671,9.775-12.309,13.906-19.139
	c4.13,6.83,8.476,13.468,13.906,19.139C57.082,52.202,52.736,58.84,48.606,65.67z"/>
<path fill="#D40000" d="M89.835,144.785c-4.131-6.83-8.477-13.469-13.907-19.139c5.431-5.671,9.776-12.309,13.907-19.139
	c4.13,6.83,8.476,13.468,13.906,19.139C98.311,131.316,93.965,137.955,89.835,144.785z"/>
<path fill="#D40000" d="M48.606,223.903c-4.131-6.83-8.476-13.468-13.906-19.139c5.43-5.67,9.775-12.309,13.906-19.139
	c4.13,6.83,8.476,13.469,13.906,19.139C57.082,210.436,52.736,217.073,48.606,223.903z"/>
<path fill="#D40000" d="M131.063,223.909c-4.13-6.83-8.476-13.468-13.906-19.139c5.431-5.671,9.776-12.309,13.906-19.139
	c4.131,6.83,8.477,13.468,13.906,19.139C139.539,210.441,135.193,217.079,131.063,223.909z"/>
<path fill="#D40000" d="M6.369,31.858l2.576-0.025c0.491,1.589,1.579,3.203,3.056,3.651c4.172,0.999,6.855-1.379,7.739-4.12
	c1.072-3.325-0.024-7.994-2.896-9.651c-2.379-1.374-5.915-0.215-7.539,2.725l-1.804-1.126l0.968-10.956h11.787v2.59h-9.551
	l-0.152,4.564c2.057-1.473,5.217-1.457,7.271-0.424c3.892,1.893,5.7,6.197,4.944,11.271c-1.048,5.046-3.36,7.905-8.575,8.313
	C8.393,38.724,6.345,34.656,6.369,31.858z"/>
<path fill="#D40000" d="M173.299,219.435l-2.576,0.024c-0.492-1.589-1.579-3.203-3.056-3.65c-4.172-1-6.855,1.378-7.739,4.119
	c-1.072,3.325,0.023,7.994,2.896,9.651c2.38,1.374,5.915,0.215,7.539-2.725l1.805,1.126l-0.969,10.957h-11.787v-2.59h9.552
	l0.151-4.565c-2.056,1.473-5.216,1.457-7.271,0.425c-3.893-1.894-5.701-6.198-4.945-11.271c1.049-5.046,3.361-7.905,8.576-8.313
	C171.275,212.568,173.323,216.637,173.299,219.435L173.299,219.435z"/>
</svg>
