<?xml version="1.0" encoding="utf-8"?>
<!-- Generator: Adobe Illustrator 16.0.0, SVG Export Plug-In . SVG Version: 6.00 Build 0)  -->
<!DOCTYPE svg PUBLIC "-//W3C//DTD SVG 1.1//EN" "http://www.w3.org/Graphics/SVG/1.1/DTD/svg11.dtd">
<svg version="1.1" id="Layer_1" xmlns="http://www.w3.org/2000/svg" xmlns:xlink="http://www.w3.org/1999/xlink" x="0px" y="0px"
	 width="178.58px" height="249.45px" viewBox="0 0 178.58 249.45" enable-background="new 0 0 178.58 249.45" xml:space="preserve">
<path fill="#FFFFFF" d="M9.445,0.422h160.778c4.696,0,8.504,3.808,8.504,8.504v231.644c0,4.696-3.808,8.504-8.504,8.504H9.445
	c-4.696,0-8.504-3.808-8.504-8.504V8.926C0.941,4.229,4.749,0.422,9.445,0.422z"/>
<path fill="none" stroke="#000000" stroke-width="1.0006" d="M9.445,0.422h160.778c4.696,0,8.504,3.808,8.504,8.504v231.644
	c0,4.696-3.808,8.504-8.504,8.504H9.445c-4.696,0-8.504-3.808-8.504-8.504V8.926C0.941,4.229,4.749,0.422,9.445,0.422z"/>
<path fill="#D40000" d="M14.654,56.222c0,0-1.771-2.544-4.162-5.534c-1.599-2.002-2.877-4.169-2.996-6.035
	c-0.137-2.133,1.154-4.271,3.49-4.375c2.335-0.104,3.282,1.644,3.668,3.085c0.386-1.441,1.333-3.188,3.668-3.085
	c2.336,0.104,3.627,2.242,3.49,4.375c-0.119,1.866-1.397,4.033-2.996,6.035C16.426,53.678,14.654,56.222,14.654,56.222z"/>
<path fill="#D40000" d="M165.016,193.273c0,0-1.771,2.544-4.162,5.534c-1.599,2.001-2.877,4.169-2.996,6.035
	c-0.136,2.132,1.154,4.271,3.49,4.375c2.335,0.104,3.282-1.644,3.668-3.085c0.386,1.441,1.334,3.188,3.668,3.085
	c2.336-0.104,3.627-2.243,3.49-4.375c-0.119-1.866-1.396-4.034-2.996-6.035C166.788,195.817,165.016,193.273,165.016,193.273z"/>
<path fill="#D40000" d="M48.606,64.771c0,0-3.717-6.104-8.729-13.282c-3.354-4.804-6.035-10.005-6.284-14.484
	c-0.286-5.117,2.42-10.251,7.32-10.5c4.896-0.249,6.884,3.945,7.693,7.403c0.81-3.458,2.797-7.652,7.693-7.403
	c4.9,0.249,7.606,5.383,7.32,10.5c-0.249,4.479-2.931,9.681-6.284,14.484C52.323,58.667,48.606,64.771,48.606,64.771z"/>
<path fill="#D40000" d="M131.063,64.771c0,0-3.717-6.104-8.729-13.282c-3.354-4.804-6.035-10.005-6.285-14.484
	c-0.285-5.117,2.421-10.251,7.32-10.5c4.897-0.249,6.885,3.945,7.694,7.403c0.809-3.458,2.796-7.652,7.693-7.403
	c4.899,0.249,7.606,5.383,7.32,10.5c-0.249,4.479-2.931,9.681-6.284,14.484C134.779,58.667,131.063,64.771,131.063,64.771z"/>
<path fill="#D40000" d="M89.835,143.886c0,0-3.717-6.104-8.729-13.282c-3.354-4.803-6.035-10.004-6.285-14.484
	c-0.285-5.117,2.421-10.251,7.32-10.5c4.897-0.248,6.885,3.946,7.694,7.404c0.809-3.458,2.797-7.652,7.693-7.404
	c4.899,0.249,7.606,5.383,7.32,10.5c-0.249,4.48-2.931,9.682-6.284,14.484C93.551,137.781,89.835,143.886,89.835,143.886z"/>
<path fill="#D40000" d="M131.063,184.724c0,0-3.717,6.104-8.729,13.282c-3.354,4.803-6.035,10.004-6.285,14.484
	c-0.285,5.117,2.421,10.251,7.32,10.5c4.897,0.249,6.885-3.946,7.694-7.404c0.809,3.458,2.796,7.653,7.693,7.404
	c4.899-0.249,7.606-5.383,7.32-10.5c-0.249-4.48-2.931-9.682-6.284-14.484C134.779,190.828,131.063,184.724,131.063,184.724z"/>
<path fill="#D40000" d="M48.606,184.724c0,0-3.717,6.104-8.729,13.282c-3.354,4.803-6.035,10.004-6.284,14.484
	c-0.286,5.117,2.42,10.251,7.32,10.5c4.896,0.249,6.884-3.946,7.693-7.404c0.81,3.458,2.797,7.653,7.693,7.404
	c4.9-0.249,7.606-5.383,7.32-10.5c-0.249-4.48-2.931-9.682-6.284-14.484C52.323,190.828,48.606,184.724,48.606,184.724z"/>
<path fill="#D40000" d="M6.369,30.96l2.576-0.025c0.491,1.589,1.579,3.203,3.056,3.651c4.171,0.999,6.855-1.379,7.739-4.12
	c1.071-3.325-0.024-7.994-2.896-9.651c-2.379-1.374-5.915-0.215-7.539,2.725L7.5,22.413l0.969-10.956h11.787v2.59h-9.552
	l-0.151,4.564c2.057-1.473,5.217-1.457,7.271-0.424c3.892,1.893,5.7,6.197,4.944,11.271c-1.048,5.046-3.36,7.905-8.575,8.313
	C8.393,37.825,6.345,33.758,6.369,30.96z"/>
<path fill="#D40000" d="M173.299,218.535l-2.576,0.025c-0.491-1.589-1.579-3.203-3.056-3.651c-4.172-0.999-6.855,1.379-7.739,4.12
	c-1.072,3.325,0.024,7.994,2.896,9.651c2.379,1.374,5.915,0.215,7.539-2.725l1.804,1.126l-0.968,10.956h-11.787v-2.59h9.551
	l0.152-4.564c-2.057,1.473-5.217,1.457-7.271,0.424c-3.893-1.894-5.7-6.198-4.944-11.271c1.048-5.047,3.36-7.905,8.575-8.314
	C171.275,211.67,173.323,215.737,173.299,218.535z"/>
</svg>
