<?xml version="1.0" encoding="utf-8"?>
<!-- Generator: Adobe Illustrator 16.0.0, SVG Export Plug-In . SVG Version: 6.00 Build 0)  -->
<!DOCTYPE svg PUBLIC "-//W3C//DTD SVG 1.1//EN" "http://www.w3.org/Graphics/SVG/1.1/DTD/svg11.dtd">
<svg version="1.1" id="Layer_1" xmlns="http://www.w3.org/2000/svg" xmlns:xlink="http://www.w3.org/1999/xlink" x="0px" y="0px"
	 width="178.58px" height="249.45px" viewBox="0 0 178.58 249.45" enable-background="new 0 0 178.58 249.45" xml:space="preserve">
<path fill="#FFFFFF" d="M170.224,249.522H9.445c-4.696,0-8.504-3.808-8.504-8.504V9.375c0-4.696,3.808-8.504,8.504-8.504h160.778
	c4.696,0,8.504,3.808,8.504,8.504v231.644C178.728,245.715,174.92,249.522,170.224,249.522z"/>
<path fill="none" stroke="#000000" stroke-width="1.0006" d="M170.224,249.522H9.445c-4.696,0-8.504-3.808-8.504-8.504V9.375
	c0-4.696,3.808-8.504,8.504-8.504h160.778c4.696,0,8.504,3.808,8.504,8.504v231.644C178.728,245.715,174.92,249.522,170.224,249.522
	z"/>
<path d="M131.063,223.45c7.348-10.492,15.21-16.53,15.34-24.716c0.044-2.65-1.387-7.155-5.87-8.018
	c-2.908-0.557-6.913,1.8-6.997,6.589c0.013,0.953-1.008,0.929-0.998-0.378c0.137-3.777,1.331-8.175,3.338-11.755
	c-3.209,0-6.417,0-9.626,0c2.007,3.58,3.201,7.978,3.338,11.755c0.01,1.307-1.011,1.331-0.998,0.378
	c-0.084-4.789-4.088-7.146-6.997-6.589c-4.483,0.862-5.914,5.367-5.87,8.018C115.853,206.92,123.715,212.958,131.063,223.45
	L131.063,223.45z"/>
<path d="M165.016,209.672c3.433-4.372,7.106-6.888,7.167-10.299c0.021-1.104-0.648-2.981-2.743-3.341
	c-1.358-0.231-3.229,0.75-3.269,2.745c0.008,0.397-0.471,0.388-0.467-0.157c0.063-1.573,0.622-3.406,1.56-4.897
	c-1.499,0-2.998,0-4.497,0c0.938,1.491,1.496,3.324,1.56,4.897c0.008,0.545-0.473,0.555-0.467,0.157
	c-0.039-1.995-1.91-2.977-3.269-2.745c-2.095,0.359-2.764,2.237-2.743,3.341C157.909,202.784,161.582,205.3,165.016,209.672z"/>
<path d="M14.653,40.722c3.434,4.372,7.106,6.888,7.168,10.298c0.021,1.104-0.648,2.982-2.743,3.342
	c-1.359,0.231-3.229-0.751-3.269-2.746c0.008-0.397-0.472-0.387-0.467,0.157c0.063,1.574,0.622,3.406,1.56,4.898
	c-1.499,0-2.998,0-4.497,0c0.938-1.492,1.495-3.324,1.56-4.898c0.008-0.544-0.473-0.555-0.467-0.157
	c-0.039,1.995-1.91,2.978-3.27,2.746c-2.094-0.359-2.763-2.237-2.742-3.342C7.548,47.609,11.221,45.094,14.653,40.722z"/>
<path d="M48.606,223.45c7.348-10.492,15.21-16.53,15.341-24.716c0.044-2.65-1.388-7.155-5.871-8.018
	c-2.908-0.557-6.913,1.8-6.996,6.589c0.013,0.953-1.009,0.929-0.999-0.378c0.137-3.777,1.331-8.175,3.338-11.755
	c-3.208,0-6.417,0-9.625,0c2.007,3.58,3.201,7.978,3.338,11.755c0.01,1.307-1.012,1.331-0.999,0.378
	c-0.083-4.789-4.088-7.146-6.996-6.589c-4.483,0.862-5.915,5.367-5.871,8.018C33.396,206.92,41.259,212.958,48.606,223.45z"/>
<path d="M131.063,26.943c7.348,10.492,15.21,16.53,15.34,24.716c0.044,2.65-1.387,7.155-5.87,8.018
	c-2.908,0.557-6.913-1.8-6.997-6.589c0.013-0.953-1.008-0.929-0.998,0.378c0.137,3.777,1.331,8.175,3.338,11.755
	c-3.209,0-6.417,0-9.626,0c2.007-3.58,3.201-7.978,3.338-11.755c0.01-1.307-1.011-1.331-0.998-0.378
	c-0.084,4.789-4.088,7.146-6.997,6.589c-4.483-0.862-5.914-5.367-5.87-8.018C115.853,43.474,123.715,37.436,131.063,26.943
	L131.063,26.943z"/>
<path d="M48.606,26.943c7.348,10.492,15.21,16.53,15.341,24.716c0.044,2.65-1.388,7.155-5.871,8.018
	c-2.908,0.557-6.913-1.8-6.996-6.589c0.013-0.953-1.009-0.929-0.999,0.378c0.137,3.777,1.331,8.175,3.338,11.755
	c-3.208,0-6.417,0-9.625,0c2.007-3.58,3.201-7.978,3.338-11.755c0.01-1.307-1.012-1.331-0.999-0.378
	c-0.083,4.789-4.088,7.146-6.996,6.589c-4.483-0.862-5.915-5.367-5.871-8.018C33.396,43.474,41.259,37.436,48.606,26.943z"/>
<path d="M89.835,144.335c7.348-10.491,15.21-16.529,15.341-24.715c0.043-2.65-1.388-7.156-5.871-8.019
	c-2.908-0.557-6.913,1.801-6.997,6.589c0.013,0.954-1.008,0.929-0.998-0.378c0.137-3.776,1.331-8.175,3.338-11.754
	c-3.208,0-6.417,0-9.626,0c2.008,3.579,3.201,7.978,3.339,11.754c0.009,1.307-1.012,1.332-0.999,0.378
	c-0.084-4.788-4.088-7.146-6.997-6.589c-4.482,0.862-5.914,5.368-5.87,8.019C74.625,127.806,82.486,133.844,89.835,144.335z"/>
<path d="M173.301,218.984l-2.576,0.025c-0.492-1.589-1.579-3.203-3.056-3.651c-4.172-0.999-6.855,1.379-7.739,4.12
	c-1.072,3.324,0.023,7.994,2.896,9.651c2.38,1.374,5.916,0.215,7.54-2.725l1.804,1.126l-0.969,10.956h-11.786v-2.59h9.551
	l0.151-4.564c-2.056,1.473-5.216,1.457-7.271,0.424c-3.893-1.894-5.7-6.198-4.945-11.271c1.049-5.047,3.361-7.905,8.576-8.314
	C171.277,212.119,173.325,216.187,173.301,218.984z"/>
<path d="M6.371,31.409l2.576-0.025c0.491,1.589,1.579,3.203,3.056,3.651c4.171,0.999,6.854-1.379,7.738-4.12
	c1.072-3.325-0.023-7.994-2.896-9.651c-2.38-1.374-5.915-0.215-7.539,2.725l-1.805-1.126l0.969-10.956h11.787v2.59h-9.552
	l-0.151,4.564c2.056-1.473,5.216-1.457,7.271-0.424c3.892,1.893,5.7,6.197,4.944,11.271c-1.049,5.046-3.36,7.905-8.575,8.313
	C8.395,38.274,6.346,34.207,6.371,31.409z"/>
</svg>
