<?xml version="1.0" encoding="utf-8"?>
<!-- Generator: Adobe Illustrator 16.0.0, SVG Export Plug-In . SVG Version: 6.00 Build 0)  -->
<!DOCTYPE svg PUBLIC "-//W3C//DTD SVG 1.1//EN" "http://www.w3.org/Graphics/SVG/1.1/DTD/svg11.dtd">
<svg version="1.1" id="Layer_1" xmlns="http://www.w3.org/2000/svg" xmlns:xlink="http://www.w3.org/1999/xlink" x="0px" y="0px"
	 width="178.58px" height="249.45px" viewBox="0 0 178.58 249.45" enable-background="new 0 0 178.58 249.45" xml:space="preserve">
<path fill="#FFFFFF" d="M9.028,0.973h160.777c4.697,0,8.505,3.807,8.505,8.504V241.12c0,4.696-3.808,8.504-8.505,8.504H9.028
	c-4.696,0-8.504-3.808-8.504-8.504V9.477C0.524,4.779,4.332,0.973,9.028,0.973z"/>
<path fill="none" stroke="#000000" stroke-width="0.9967" d="M9.028,0.973h160.777c4.697,0,8.505,3.807,8.505,8.504V241.12
	c0,4.696-3.808,8.504-8.505,8.504H9.028c-4.696,0-8.504-3.808-8.504-8.504V9.477C0.524,4.779,4.332,0.973,9.028,0.973z"/>
<path d="M130.643,27.376c-7.82,0.17-11.326,8.974-5.535,15.811c0.84,0.998,0.927,1.57-0.611,0.612
	c-3.899-2.607-11.376-0.894-11.759,7.077c-0.473,9.822,13.251,12.651,15.827,2.208c0.136-1.102,1.031-1.076,0.815,0.487
	c-0.234,4.245-1.561,8.213-3.383,12.082c3.071,0,6.504,0,9.296,0c-1.821-3.869-3.147-7.837-3.383-12.082
	c-0.216-1.563,0.68-1.589,0.816-0.487c2.576,10.443,16.299,7.614,15.826-2.208c-0.383-7.971-7.859-9.685-11.758-7.077
	c-1.538,0.958-1.451,0.386-0.611-0.612c5.791-6.837,2.284-15.641-5.535-15.811h-0.008H130.643z"/>
<path d="M48.186,27.376c-7.819,0.17-11.326,8.974-5.534,15.811c0.84,0.998,0.926,1.57-0.612,0.612
	c-3.898-2.607-11.375-0.894-11.758,7.077c-0.473,9.822,13.25,12.651,15.826,2.208c0.137-1.102,1.032-1.076,0.816,0.487
	c-0.235,4.245-1.561,8.213-3.383,12.082c3.071,0,6.503,0,9.296,0c-1.822-3.869-3.148-7.837-3.383-12.082
	c-0.216-1.563,0.68-1.589,0.815-0.487c2.577,10.443,16.3,7.614,15.827-2.208c-0.383-7.971-7.859-9.685-11.759-7.077
	c-1.538,0.958-1.451,0.386-0.611-0.612c5.791-6.837,2.285-15.641-5.534-15.811h-0.009H48.186z"/>
<path d="M130.643,223.883c-7.82-0.17-11.326-8.974-5.535-15.811c0.84-0.997,0.927-1.569-0.611-0.611
	c-3.899,2.607-11.376,0.894-11.759-7.078c-0.473-9.821,13.251-12.651,15.827-2.207c0.136,1.102,1.031,1.076,0.815-0.488
	c-0.234-4.245-1.561-8.213-3.383-12.082c3.071,0,6.504,0,9.296,0c-1.821,3.869-3.147,7.837-3.383,12.082
	c-0.216,1.564,0.68,1.59,0.816,0.488c2.576-10.444,16.299-7.614,15.826,2.207c-0.383,7.972-7.859,9.686-11.758,7.078
	c-1.538-0.958-1.451-0.386-0.611,0.611c5.791,6.837,2.284,15.641-5.535,15.811h-0.008H130.643z"/>
<path d="M48.186,223.883c-7.819-0.17-11.326-8.974-5.534-15.811c0.84-0.997,0.926-1.569-0.612-0.611
	c-3.898,2.607-11.375,0.894-11.758-7.078c-0.473-9.821,13.25-12.651,15.826-2.207c0.137,1.102,1.032,1.076,0.816-0.488
	c-0.235-4.245-1.561-8.213-3.383-12.082c3.071,0,6.503,0,9.296,0c-1.822,3.869-3.148,7.837-3.383,12.082
	c-0.216,1.564,0.68,1.59,0.815,0.488c2.577-10.444,16.3-7.614,15.827,2.207c-0.383,7.972-7.859,9.686-11.759,7.078
	c-1.538-0.958-1.451-0.386-0.611,0.611c5.791,6.837,2.285,15.641-5.534,15.811h-0.009H48.186z"/>
<path d="M130.643,106.491c-7.82,0.17-11.326,8.974-5.535,15.811c0.84,0.997,0.927,1.569-0.611,0.611
	c-3.899-2.607-11.376-0.893-11.759,7.078c-0.473,9.821,13.251,12.651,15.827,2.208c0.136-1.103,1.031-1.077,0.815,0.487
	c-0.234,4.245-1.561,8.213-3.383,12.082c3.071,0,6.504,0,9.296,0c-1.821-3.869-3.147-7.837-3.383-12.082
	c-0.216-1.564,0.68-1.59,0.816-0.487c2.576,10.443,16.299,7.613,15.826-2.208c-0.383-7.971-7.859-9.686-11.758-7.078
	c-1.538,0.958-1.451,0.386-0.611-0.611c5.791-6.837,2.284-15.641-5.535-15.811h-0.008H130.643z"/>
<path d="M48.186,106.491c-7.819,0.17-11.326,8.974-5.534,15.811c0.84,0.997,0.926,1.569-0.612,0.611
	c-3.898-2.607-11.375-0.893-11.758,7.078c-0.473,9.821,13.25,12.651,15.826,2.208c0.137-1.103,1.032-1.077,0.816,0.487
	c-0.235,4.245-1.561,8.213-3.383,12.082c3.071,0,6.503,0,9.296,0c-1.822-3.869-3.148-7.837-3.383-12.082
	c-0.216-1.564,0.68-1.59,0.815-0.487c2.577,10.443,16.3,7.613,15.827-2.208c-0.383-7.971-7.859-9.686-11.759-7.078
	c-1.538,0.958-1.451,0.386-0.611-0.611c5.791-6.837,2.285-15.641-5.534-15.811h-0.009H48.186z"/>
<path d="M164.6,209.773c3.128-0.071,4.53-3.739,2.214-6.588c-0.336-0.416-0.371-0.654,0.245-0.255
	c1.559,1.086,4.55,0.372,4.703-2.949c0.188-4.093-5.301-5.271-6.331-0.92c-0.055,0.459-0.413,0.448-0.326-0.203
	c0.094-1.769,0.624-3.422,1.353-5.034c-1.239,0-2.479,0-3.718,0c0.729,1.612,1.259,3.266,1.354,5.034
	c0.086,0.651-0.272,0.662-0.327,0.203c-1.03-4.352-6.52-3.173-6.33,0.92c0.153,3.321,3.144,4.035,4.703,2.949
	c0.615-0.399,0.581-0.161,0.245,0.255c-2.317,2.849-0.914,6.517,2.214,6.588H164.6z"/>
<path d="M14.236,40.823c-3.128,0.07-4.531,3.739-2.215,6.588c0.336,0.415,0.371,0.653-0.244,0.255
	c-1.56-1.087-4.551-0.372-4.703,2.949c-0.189,4.092,5.3,5.271,6.33,0.92c0.055-0.459,0.413-0.449,0.326,0.203
	c-0.094,1.769-0.624,3.422-1.353,5.034c1.239,0,2.479,0,3.718,0c-0.729-1.612-1.259-3.266-1.353-5.034
	c-0.087-0.652,0.271-0.662,0.326-0.203c1.03,4.352,6.52,3.172,6.331-0.92c-0.153-3.321-3.145-4.036-4.704-2.949
	c-0.615,0.398-0.58,0.16-0.244-0.255c2.316-2.849,0.914-6.518-2.214-6.588H14.236z"/>
<path d="M6.518,30.227c-0.323-2.215-0.315-7.94-0.051-9.634c0.816-5.189,2.795-7.563,6.11-8.339
	c3.221-0.755,7.744,0.086,8.736,4.423l-2.691,0.052c-1.456-2.933-5.141-2.149-7.216-0.873c-1.656,1.016-2.404,5.259-2.084,5.52
	c0,0,3.131-2.322,5.6-2.15c5.275,0.55,7.452,5.131,7.268,9.456c-0.168,5.204-1.815,9.365-7.407,9.642
	C9.466,38.117,7.029,35.215,6.518,30.227z M19.629,28.853c0.029-3.61-1.607-6.315-4.707-6.612c-3.096-0.299-6.22,2.728-6.004,6.407
	c0.216,3.696,1.645,6.805,5.4,6.788C18.357,35.419,19.61,31.422,19.629,28.853z"/>
<path d="M172.315,220.369c0.323,2.215,0.315,7.94,0.051,9.635c-0.815,5.188-2.795,7.563-6.11,8.338
	c-3.221,0.755-7.744-0.086-8.736-4.422l2.691-0.052c1.456,2.932,5.141,2.148,7.216,0.872c1.655-1.016,2.404-5.259,2.084-5.52
	c0,0-3.132,2.322-5.601,2.151c-5.275-0.551-7.451-5.132-7.267-9.457c0.168-5.203,1.815-9.364,7.407-9.642
	C169.367,212.479,171.804,215.382,172.315,220.369L172.315,220.369z M159.203,221.743c-0.028,3.61,1.608,6.316,4.707,6.612
	c3.097,0.299,6.221-2.728,6.005-6.407c-0.216-3.695-1.645-6.805-5.4-6.788C160.476,215.177,159.223,219.174,159.203,221.743z"/>
</svg>
