<?xml version="1.0" encoding="utf-8"?>
<!-- Generator: Adobe Illustrator 16.0.0, SVG Export Plug-In . SVG Version: 6.00 Build 0)  -->
<!DOCTYPE svg PUBLIC "-//W3C//DTD SVG 1.1//EN" "http://www.w3.org/Graphics/SVG/1.1/DTD/svg11.dtd">
<svg version="1.1" id="Layer_1" xmlns="http://www.w3.org/2000/svg" xmlns:xlink="http://www.w3.org/1999/xlink" x="0px" y="0px"
	 width="178.58px" height="249.45px" viewBox="0 0 178.58 249.45" enable-background="new 0 0 178.58 249.45" xml:space="preserve">
<path fill="#FFFFFF" d="M10.028,1.32h160.777c4.697,0,8.504,3.808,8.504,8.504v231.644c0,4.696-3.807,8.504-8.504,8.504H10.028
	c-4.696,0-8.504-3.808-8.504-8.504V9.824C1.524,5.128,5.332,1.32,10.028,1.32z"/>
<path fill="none" stroke="#000000" stroke-width="1.0006" d="M10.028,1.32h160.777c4.697,0,8.504,3.808,8.504,8.504v231.644
	c0,4.696-3.807,8.504-8.504,8.504H10.028c-4.696,0-8.504-3.808-8.504-8.504V9.824C1.524,5.128,5.332,1.32,10.028,1.32z"/>
<path fill="#D40000" d="M15.237,57.12c-1.722-2.846-3.532-5.612-5.795-7.975c2.263-2.362,4.073-5.129,5.795-7.975
	c1.721,2.846,3.531,5.612,5.794,7.975C18.769,51.508,16.958,54.274,15.237,57.12z"/>
<path fill="#D40000" d="M131.646,65.67c-4.131-6.83-8.476-13.468-13.906-19.139c5.431-5.671,9.775-12.309,13.906-19.139
	c4.13,6.83,8.476,13.468,13.906,19.139C140.121,52.202,135.775,58.84,131.646,65.67z"/>
<path fill="#D40000" d="M165.598,210.121c-1.721-2.846-3.531-5.611-5.794-7.975c2.263-2.362,4.073-5.129,5.794-7.975
	c1.722,2.846,3.532,5.612,5.795,7.975C169.13,204.51,167.319,207.275,165.598,210.121z"/>
<path fill="#D40000" d="M49.189,65.67c-4.131-6.83-8.477-13.468-13.907-19.139c5.431-5.671,9.776-12.309,13.907-19.139
	c4.13,6.83,8.476,13.468,13.906,19.139C57.665,52.202,53.319,58.84,49.189,65.67z"/>
<path fill="#D40000" d="M49.189,144.759c-4.131-6.83-8.477-13.468-13.907-19.139c5.431-5.67,9.776-12.309,13.907-19.139
	c4.13,6.83,8.476,13.469,13.906,19.139C57.665,131.291,53.319,137.929,49.189,144.759z"/>
<path fill="#D40000" d="M131.646,144.771c-4.131-6.83-8.476-13.469-13.906-19.139c5.431-5.671,9.775-12.309,13.906-19.139
	c4.13,6.83,8.476,13.468,13.906,19.139C140.121,131.303,135.775,137.941,131.646,144.771z"/>
<path fill="#D40000" d="M49.189,223.903c-4.131-6.83-8.477-13.468-13.907-19.139c5.431-5.67,9.776-12.309,13.907-19.139
	c4.13,6.83,8.476,13.469,13.906,19.139C57.665,210.436,53.319,217.073,49.189,223.903z"/>
<path fill="#D40000" d="M131.646,223.909c-4.131-6.83-8.476-13.468-13.906-19.139c5.431-5.671,9.775-12.309,13.906-19.139
	c4.13,6.83,8.476,13.468,13.906,19.139C140.121,210.441,135.775,217.079,131.646,223.909z"/>
<path fill="#D40000" d="M7.518,30.574c-0.323-2.215-0.315-7.94-0.051-9.634c0.816-5.189,2.795-7.563,6.11-8.339
	c3.221-0.755,7.745,0.086,8.737,4.423l-2.692,0.053c-1.456-2.933-5.141-2.149-7.216-0.873c-1.656,1.016-2.404,5.259-2.084,5.52
	c0,0,3.131-2.322,5.6-2.151c5.275,0.551,7.452,5.132,7.268,9.457c-0.168,5.203-1.815,9.365-7.407,9.642
	C10.466,38.465,8.029,35.563,7.518,30.574L7.518,30.574z M20.629,29.2c0.029-3.61-1.607-6.315-4.707-6.612
	c-3.096-0.299-6.22,2.728-6.004,6.408c0.216,3.695,1.645,6.804,5.4,6.787C19.357,35.768,20.609,31.771,20.629,29.2z"/>
<path fill="#D40000" d="M173.315,220.717c0.323,2.215,0.315,7.941,0.051,9.635c-0.816,5.188-2.796,7.563-6.111,8.338
	c-3.22,0.756-7.744-0.085-8.736-4.422l2.692-0.052c1.456,2.932,5.141,2.148,7.216,0.873c1.655-1.017,2.404-5.259,2.084-5.521
	c0,0-3.132,2.322-5.601,2.151c-5.275-0.55-7.451-5.132-7.267-9.456c0.168-5.204,1.815-9.365,7.407-9.642
	C170.367,212.827,172.803,215.729,173.315,220.717L173.315,220.717z M160.203,222.092c-0.028,3.609,1.608,6.315,4.707,6.611
	c3.097,0.299,6.221-2.727,6.005-6.407c-0.216-3.695-1.645-6.804-5.4-6.787C161.476,215.524,160.223,219.521,160.203,222.092z"/>
</svg>
