<?xml version="1.0" encoding="utf-8"?>
<!-- Generator: Adobe Illustrator 16.0.0, SVG Export Plug-In . SVG Version: 6.00 Build 0)  -->
<!DOCTYPE svg PUBLIC "-//W3C//DTD SVG 1.1//EN" "http://www.w3.org/Graphics/SVG/1.1/DTD/svg11.dtd">
<svg version="1.1" id="Layer_1" xmlns="http://www.w3.org/2000/svg" xmlns:xlink="http://www.w3.org/1999/xlink" x="0px" y="0px"
	 width="178.58px" height="249.45px" viewBox="0 0 178.58 249.45" enable-background="new 0 0 178.58 249.45" xml:space="preserve">
<path fill="#FFFFFF" d="M9.028,0.422h160.778c4.696,0,8.504,3.808,8.504,8.504v231.644c0,4.696-3.808,8.504-8.504,8.504H9.028
	c-4.696,0-8.504-3.808-8.504-8.504V8.926C0.524,4.229,4.332,0.422,9.028,0.422z"/>
<path fill="none" stroke="#000000" stroke-width="1.0006" d="M9.028,0.422h160.778c4.696,0,8.504,3.808,8.504,8.504v231.644
	c0,4.696-3.808,8.504-8.504,8.504H9.028c-4.696,0-8.504-3.808-8.504-8.504V8.926C0.524,4.229,4.332,0.422,9.028,0.422z"/>
<path fill="#D40000" d="M14.237,56.222c0,0-1.772-2.544-4.162-5.534c-1.6-2.002-2.878-4.169-2.996-6.035
	c-0.137-2.133,1.153-4.271,3.489-4.375c2.335-0.104,3.283,1.644,3.669,3.085c0.386-1.441,1.333-3.188,3.668-3.085
	c2.336,0.104,3.626,2.242,3.489,4.375c-0.118,1.866-1.396,4.033-2.996,6.035C16.009,53.678,14.237,56.222,14.237,56.222z"/>
<path fill="#D40000" d="M164.599,193.273c0,0-1.772,2.544-4.162,5.534c-1.599,2.001-2.877,4.169-2.996,6.035
	c-0.136,2.132,1.154,4.271,3.49,4.375c2.335,0.104,3.282-1.644,3.668-3.085c0.386,1.441,1.333,3.188,3.668,3.085
	c2.336-0.104,3.626-2.243,3.49-4.375c-0.119-1.866-1.397-4.034-2.996-6.035C166.37,195.817,164.599,193.273,164.599,193.273z"/>
<path fill="#D40000" d="M48.189,64.771c0,0-3.717-6.104-8.73-13.282c-3.354-4.804-6.034-10.005-6.284-14.484
	c-0.285-5.117,2.421-10.251,7.32-10.5c4.897-0.249,6.885,3.945,7.694,7.403c0.809-3.458,2.797-7.652,7.693-7.403
	c4.899,0.249,7.606,5.383,7.32,10.5c-0.249,4.479-2.931,9.681-6.284,14.484C51.905,58.667,48.189,64.771,48.189,64.771z"/>
<path fill="#D40000" d="M130.646,143.886c0,0-3.716-6.104-8.729-13.282c-3.354-4.803-6.035-10.004-6.284-14.484
	c-0.286-5.117,2.421-10.251,7.32-10.5c4.896-0.248,6.885,3.946,7.693,7.404c0.81-3.458,2.797-7.652,7.694-7.404
	c4.899,0.249,7.605,5.383,7.32,10.5c-0.25,4.48-2.931,9.682-6.285,14.484C134.362,137.781,130.646,143.886,130.646,143.886z"/>
<path fill="#D40000" d="M130.646,64.771c0,0-3.716-6.104-8.729-13.282c-3.354-4.804-6.035-10.005-6.284-14.484
	c-0.286-5.117,2.421-10.251,7.32-10.5c4.896-0.249,6.885,3.945,7.693,7.403c0.81-3.458,2.797-7.652,7.694-7.403
	c4.899,0.249,7.605,5.383,7.32,10.5c-0.25,4.479-2.931,9.681-6.285,14.484C134.362,58.667,130.646,64.771,130.646,64.771z"/>
<path fill="#D40000" d="M48.189,143.886c0,0-3.717-6.104-8.73-13.282c-3.354-4.803-6.034-10.004-6.284-14.484
	c-0.285-5.117,2.421-10.251,7.32-10.5c4.897-0.248,6.885,3.946,7.694,7.404c0.809-3.458,2.797-7.652,7.693-7.404
	c4.899,0.249,7.606,5.383,7.32,10.5c-0.249,4.48-2.931,9.682-6.284,14.484C51.905,137.781,48.189,143.886,48.189,143.886z"/>
<path fill="#D40000" d="M130.646,184.724c0,0-3.716,6.104-8.729,13.282c-3.354,4.803-6.035,10.004-6.284,14.484
	c-0.286,5.117,2.421,10.251,7.32,10.5c4.896,0.249,6.885-3.946,7.693-7.404c0.81,3.458,2.797,7.653,7.694,7.404
	c4.899-0.249,7.605-5.383,7.32-10.5c-0.25-4.48-2.931-9.682-6.285-14.484C134.362,190.828,130.646,184.724,130.646,184.724z"/>
<path fill="#D40000" d="M48.189,184.724c0,0-3.717,6.104-8.73,13.282c-3.354,4.803-6.034,10.004-6.284,14.484
	c-0.285,5.117,2.421,10.251,7.32,10.5c4.897,0.249,6.885-3.946,7.694-7.404c0.809,3.458,2.797,7.653,7.693,7.404
	c4.899-0.249,7.606-5.383,7.32-10.5c-0.249-4.48-2.931-9.682-6.284-14.484C51.905,190.828,48.189,184.724,48.189,184.724z"/>
<path fill="#D40000" d="M6.518,29.677c-0.323-2.215-0.315-7.94-0.051-9.635c0.816-5.188,2.795-7.563,6.11-8.338
	c3.221-0.755,7.745,0.086,8.737,4.422l-2.692,0.052c-1.456-2.932-5.141-2.148-7.216-0.873c-1.656,1.017-2.404,5.259-2.084,5.521
	c0,0,3.131-2.322,5.6-2.151c5.275,0.55,7.452,5.132,7.268,9.457c-0.168,5.203-1.815,9.364-7.407,9.641
	C9.466,37.566,7.029,34.664,6.518,29.677L6.518,29.677z M19.629,28.303c0.029-3.61-1.607-6.316-4.707-6.612
	c-3.096-0.299-6.221,2.728-6.004,6.407c0.216,3.695,1.645,6.805,5.4,6.788C18.357,34.869,19.609,30.872,19.629,28.303z"/>
<path fill="#D40000" d="M172.315,219.818c0.324,2.215,0.315,7.94,0.052,9.635c-0.816,5.188-2.796,7.563-6.111,8.338
	c-3.221,0.755-7.744-0.086-8.736-4.422l2.691-0.053c1.456,2.933,5.141,2.149,7.216,0.873c1.656-1.016,2.404-5.259,2.084-5.52
	c0,0-3.132,2.322-5.601,2.151c-5.275-0.551-7.451-5.132-7.267-9.457c0.168-5.203,1.815-9.364,7.407-9.642
	C169.367,211.929,171.803,214.83,172.315,219.818L172.315,219.818z M159.204,221.192c-0.028,3.61,1.607,6.316,4.707,6.612
	c3.097,0.299,6.221-2.728,6.005-6.407c-0.217-3.695-1.645-6.805-5.4-6.788C160.476,214.626,159.224,218.623,159.204,221.192z"/>
</svg>
