<?xml version="1.0" encoding="utf-8"?>
<!-- Generator: Adobe Illustrator 16.0.0, SVG Export Plug-In . SVG Version: 6.00 Build 0)  -->
<!DOCTYPE svg PUBLIC "-//W3C//DTD SVG 1.1//EN" "http://www.w3.org/Graphics/SVG/1.1/DTD/svg11.dtd">
<svg version="1.1" id="Layer_1" xmlns="http://www.w3.org/2000/svg" xmlns:xlink="http://www.w3.org/1999/xlink" x="0px" y="0px"
	 width="178.58px" height="249.45px" viewBox="0 0 178.58 249.45" enable-background="new 0 0 178.58 249.45" xml:space="preserve">
<path fill="#FFFFFF" d="M10.028,0.871h160.778c4.696,0,8.504,3.808,8.504,8.504v231.644c0,4.696-3.808,8.504-8.504,8.504H10.028
	c-4.696,0-8.504-3.808-8.504-8.504V9.375C1.524,4.679,5.332,0.871,10.028,0.871z"/>
<path fill="none" stroke="#000000" stroke-width="1.0006" d="M10.028,0.871h160.778c4.696,0,8.504,3.808,8.504,8.504v231.644
	c0,4.696-3.808,8.504-8.504,8.504H10.028c-4.696,0-8.504-3.808-8.504-8.504V9.375C1.524,4.679,5.332,0.871,10.028,0.871z"/>
<path d="M49.189,26.943c-7.349,10.492-15.21,16.53-15.341,24.716c-0.044,2.65,1.388,7.155,5.87,8.018
	c2.909,0.557,6.913-1.8,6.997-6.589c-0.013-0.953,1.008-0.929,0.999,0.378c-0.138,3.777-1.332,8.175-3.339,11.755
	c3.209,0,6.417,0,9.626,0c-2.007-3.58-3.201-7.978-3.338-11.755c-0.01-1.307,1.011-1.331,0.998-0.378
	c0.084,4.789,4.088,7.146,6.997,6.589c4.483-0.862,5.914-5.367,5.87-8.018C64.399,43.474,56.537,37.436,49.189,26.943z"/>
<path d="M15.236,40.722c-3.433,4.372-7.105,6.888-7.167,10.298c-0.021,1.104,0.648,2.982,2.743,3.342
	c1.358,0.231,3.229-0.75,3.269-2.746c-0.008-0.396,0.472-0.387,0.467,0.158c-0.063,1.573-0.622,3.406-1.56,4.897
	c1.499,0,2.998,0,4.497,0c-0.938-1.491-1.495-3.324-1.56-4.897c-0.008-0.545,0.473-0.555,0.467-0.158
	c0.039,1.996,1.91,2.978,3.269,2.746c2.095-0.359,2.764-2.237,2.743-3.342C22.343,47.609,18.67,45.094,15.236,40.722L15.236,40.722z
	"/>
<path d="M165.599,209.672c-3.434-4.372-7.106-6.888-7.168-10.299c-0.021-1.104,0.648-2.981,2.743-3.341
	c1.359-0.231,3.229,0.751,3.269,2.746c-0.008,0.396,0.472,0.387,0.467-0.157c-0.063-1.574-0.622-3.406-1.56-4.898
	c1.499,0,2.998,0,4.497,0c-0.938,1.492-1.495,3.324-1.56,4.898c-0.008,0.544,0.473,0.555,0.467,0.157
	c0.039-1.995,1.91-2.978,3.269-2.746c2.095,0.359,2.764,2.237,2.743,3.341C172.704,202.784,169.031,205.3,165.599,209.672
	L165.599,209.672z"/>
<path d="M131.646,26.943c-7.348,10.492-15.21,16.53-15.341,24.716c-0.043,2.65,1.388,7.155,5.871,8.018
	c2.908,0.557,6.913-1.8,6.997-6.589c-0.014-0.953,1.008-0.929,0.998,0.378c-0.137,3.777-1.331,8.175-3.338,11.755
	c3.209,0,6.417,0,9.626,0c-2.008-3.58-3.201-7.978-3.339-11.755c-0.009-1.307,1.012-1.331,0.999-0.378
	c0.084,4.789,4.088,7.146,6.996,6.589c4.483-0.862,5.915-5.367,5.871-8.018C146.855,43.474,138.994,37.436,131.646,26.943z"/>
<path d="M49.189,106.059c-7.349,10.491-15.21,16.529-15.341,24.715c-0.044,2.65,1.388,7.156,5.87,8.019
	c2.909,0.557,6.913-1.801,6.997-6.589c-0.013-0.954,1.008-0.929,0.999,0.377c-0.138,3.777-1.332,8.176-3.339,11.755
	c3.209,0,6.417,0,9.626,0c-2.007-3.579-3.201-7.978-3.338-11.755c-0.01-1.306,1.011-1.331,0.998-0.377
	c0.084,4.788,4.088,7.146,6.997,6.589c4.483-0.862,5.914-5.368,5.87-8.019C64.399,122.588,56.537,116.55,49.189,106.059z"/>
<path d="M49.189,223.45c-7.349-10.492-15.21-16.53-15.341-24.716c-0.044-2.65,1.388-7.155,5.87-8.018
	c2.909-0.557,6.913,1.8,6.997,6.589c-0.013,0.953,1.008,0.929,0.999-0.378c-0.138-3.777-1.332-8.175-3.339-11.755
	c3.209,0,6.417,0,9.626,0c-2.007,3.58-3.201,7.978-3.338,11.755c-0.01,1.307,1.011,1.331,0.998,0.378
	c0.084-4.789,4.088-7.146,6.997-6.589c4.483,0.862,5.914,5.367,5.87,8.018C64.399,206.92,56.537,212.958,49.189,223.45z"/>
<path d="M131.646,223.45c-7.348-10.492-15.21-16.53-15.341-24.716c-0.043-2.65,1.388-7.155,5.871-8.018
	c2.908-0.557,6.913,1.8,6.997,6.589c-0.014,0.953,1.008,0.929,0.998-0.378c-0.137-3.777-1.331-8.175-3.338-11.755
	c3.209,0,6.417,0,9.626,0c-2.008,3.58-3.201,7.978-3.339,11.755c-0.009,1.307,1.012,1.331,0.999,0.378
	c0.084-4.789,4.088-7.146,6.996-6.589c4.483,0.862,5.915,5.367,5.871,8.018C146.855,206.92,138.994,212.958,131.646,223.45z"/>
<path d="M131.646,106.059c-7.348,10.491-15.21,16.529-15.341,24.715c-0.043,2.65,1.388,7.156,5.871,8.019
	c2.908,0.557,6.913-1.801,6.997-6.589c-0.014-0.954,1.008-0.929,0.998,0.377c-0.137,3.777-1.331,8.176-3.338,11.755
	c3.209,0,6.417,0,9.626,0c-2.008-3.579-3.201-7.978-3.339-11.755c-0.009-1.306,1.012-1.331,0.999-0.377
	c0.084,4.788,4.088,7.146,6.996,6.589c4.483-0.862,5.915-5.368,5.871-8.019C146.855,122.588,138.994,116.55,131.646,106.059z"/>
<path d="M7.518,30.125c-0.323-2.215-0.315-7.94-0.051-9.634c0.815-5.188,2.795-7.563,6.11-8.339
	c3.221-0.755,7.745,0.086,8.736,4.423l-2.691,0.053c-1.456-2.933-5.141-2.149-7.216-0.873c-1.656,1.016-2.404,5.259-2.084,5.52
	c0,0,3.131-2.322,5.6-2.15c5.275,0.55,7.452,5.131,7.268,9.456c-0.168,5.204-1.815,9.365-7.407,9.642
	C10.466,38.016,8.029,35.114,7.518,30.125L7.518,30.125z M20.629,28.751c0.029-3.609-1.607-6.315-4.707-6.612
	c-3.096-0.299-6.221,2.728-6.004,6.408c0.216,3.695,1.645,6.804,5.4,6.787C19.357,35.318,20.609,31.321,20.629,28.751z"/>
<path d="M173.315,220.269c0.323,2.215,0.315,7.94,0.051,9.634c-0.815,5.189-2.795,7.563-6.11,8.338
	c-3.221,0.756-7.744-0.085-8.736-4.422l2.691-0.053c1.456,2.933,5.141,2.149,7.216,0.873c1.656-1.016,2.404-5.259,2.084-5.52
	c0,0-3.131,2.322-5.6,2.15c-5.275-0.55-7.452-5.131-7.268-9.456c0.168-5.204,1.815-9.365,7.407-9.642
	C170.367,212.377,172.804,215.279,173.315,220.269L173.315,220.269z M160.204,221.643c-0.028,3.609,1.607,6.315,4.707,6.612
	c3.097,0.298,6.221-2.728,6.004-6.407c-0.216-3.696-1.645-6.805-5.4-6.788C161.476,215.075,160.224,219.072,160.204,221.643z"/>
</svg>
