<?xml version="1.0" encoding="utf-8"?>
<!-- Generator: Adobe Illustrator 16.0.0, SVG Export Plug-In . SVG Version: 6.00 Build 0)  -->
<!DOCTYPE svg PUBLIC "-//W3C//DTD SVG 1.1//EN" "http://www.w3.org/Graphics/SVG/1.1/DTD/svg11.dtd">
<svg version="1.1" id="Layer_1" xmlns="http://www.w3.org/2000/svg" xmlns:xlink="http://www.w3.org/1999/xlink" x="0px" y="0px"
	 width="178.58px" height="249.45px" viewBox="0 0 178.58 249.45" enable-background="new 0 0 178.58 249.45" xml:space="preserve">
<path fill="#FFFFFF" d="M9.611,1.32h160.777c4.696,0,8.504,3.808,8.504,8.504v231.644c0,4.696-3.808,8.504-8.504,8.504H9.611
	c-4.697,0-8.504-3.808-8.504-8.504V9.824C1.107,5.128,4.914,1.32,9.611,1.32z"/>
<path fill="none" stroke="#000000" stroke-width="1.0006" d="M9.611,1.32h160.777c4.696,0,8.504,3.808,8.504,8.504v231.644
	c0,4.696-3.808,8.504-8.504,8.504H9.611c-4.697,0-8.504-3.808-8.504-8.504V9.824C1.107,5.128,4.914,1.32,9.611,1.32z"/>
<path fill="#D40000" d="M14.819,57.12c-1.721-2.846-3.531-5.612-5.794-7.975c2.263-2.362,4.073-5.129,5.794-7.975
	c1.722,2.846,3.532,5.612,5.795,7.975C18.352,51.508,16.541,54.274,14.819,57.12z"/>
<path fill="#D40000" d="M131.229,65.67c-4.131-6.83-8.477-13.468-13.906-19.139c5.43-5.671,9.775-12.309,13.906-19.139
	c4.13,6.83,8.476,13.468,13.906,19.139C139.704,52.202,135.358,58.84,131.229,65.67z"/>
<path fill="#D40000" d="M165.181,210.121c-1.721-2.846-3.531-5.611-5.794-7.975c2.263-2.362,4.073-5.129,5.794-7.975
	c1.722,2.846,3.532,5.612,5.795,7.975C168.713,204.51,166.902,207.275,165.181,210.121z"/>
<path fill="#D40000" d="M48.771,65.67c-4.13-6.83-8.476-13.468-13.906-19.139c5.431-5.671,9.776-12.309,13.906-19.139
	c4.131,6.83,8.477,13.468,13.906,19.139C57.248,52.202,52.902,58.84,48.771,65.67z"/>
<path fill="#D40000" d="M90,105.215c-4.131-6.83-8.477-13.469-13.906-19.139C81.524,80.405,85.869,73.768,90,66.938
	c4.131,6.83,8.476,13.468,13.906,19.139C98.476,91.746,94.131,98.385,90,105.215z"/>
<path fill="#D40000" d="M48.771,144.759c-4.13-6.83-8.476-13.468-13.906-19.139c5.431-5.67,9.776-12.309,13.906-19.139
	c4.131,6.83,8.477,13.469,13.906,19.139C57.248,131.291,52.902,137.929,48.771,144.759z"/>
<path fill="#D40000" d="M131.229,144.771c-4.131-6.83-8.477-13.469-13.906-19.139c5.43-5.671,9.775-12.309,13.906-19.139
	c4.13,6.83,8.476,13.468,13.906,19.139C139.704,131.303,135.358,137.941,131.229,144.771z"/>
<path fill="#D40000" d="M48.771,223.903c-4.13-6.83-8.476-13.468-13.906-19.139c5.431-5.67,9.776-12.309,13.906-19.139
	c4.131,6.83,8.477,13.469,13.906,19.139C57.248,210.436,52.902,217.073,48.771,223.903z"/>
<path fill="#D40000" d="M131.229,223.909c-4.131-6.83-8.477-13.468-13.906-19.139c5.43-5.671,9.775-12.309,13.906-19.139
	c4.13,6.83,8.476,13.468,13.906,19.139C139.704,210.441,135.358,217.079,131.229,223.909z"/>
<path fill="#D40000" d="M10.778,38.668c1.729-9.149,3.568-16.018,8.399-23.473H9.358v3.209H6.751v-6.049h14.363l1.771,2.84
	c-5.131,5.608-9.827,23.738-8.995,23.473H10.778z"/>
<path fill="#D40000" d="M169.22,212.624c-1.729,9.149-3.568,16.019-8.399,23.473h9.819v-3.209h2.607v6.05h-14.363l-1.771-2.841
	c5.131-5.608,9.827-23.737,8.995-23.473H169.22z"/>
</svg>
