<?xml version="1.0" encoding="utf-8"?>
<!-- Generator: Adobe Illustrator 16.0.0, SVG Export Plug-In . SVG Version: 6.00 Build 0)  -->
<!DOCTYPE svg PUBLIC "-//W3C//DTD SVG 1.1//EN" "http://www.w3.org/Graphics/SVG/1.1/DTD/svg11.dtd">
<svg version="1.1" id="Layer_1" xmlns="http://www.w3.org/2000/svg" xmlns:xlink="http://www.w3.org/1999/xlink" x="0px" y="0px"
	 width="178.58px" height="249.45px" viewBox="0 0 178.58 249.45" enable-background="new 0 0 178.58 249.45" xml:space="preserve">
<path fill="#FFFFFF" d="M9.611,0.422h160.777c4.697,0,8.504,3.808,8.504,8.504v231.644c0,4.696-3.807,8.504-8.504,8.504H9.611
	c-4.697,0-8.504-3.808-8.504-8.504V8.926C1.107,4.229,4.914,0.422,9.611,0.422z"/>
<path fill="none" stroke="#000000" stroke-width="1.0006" d="M9.611,0.422h160.777c4.697,0,8.504,3.808,8.504,8.504v231.644
	c0,4.696-3.807,8.504-8.504,8.504H9.611c-4.697,0-8.504-3.808-8.504-8.504V8.926C1.107,4.229,4.914,0.422,9.611,0.422z"/>
<path fill="#D40000" d="M14.819,56.222c0,0-1.771-2.544-4.162-5.534c-1.599-2.002-2.877-4.169-2.996-6.035
	c-0.136-2.133,1.154-4.271,3.49-4.375c2.335-0.104,3.282,1.644,3.668,3.085c0.386-1.441,1.334-3.188,3.668-3.085
	c2.336,0.104,3.627,2.242,3.49,4.375c-0.119,1.866-1.397,4.033-2.996,6.035C16.592,53.678,14.819,56.222,14.819,56.222z"/>
<path fill="#D40000" d="M165.182,193.273c0,0-1.772,2.544-4.162,5.534c-1.6,2.001-2.878,4.169-2.996,6.035
	c-0.137,2.132,1.153,4.271,3.49,4.375c2.334,0.104,3.281-1.644,3.668-3.085c0.386,1.441,1.333,3.188,3.668,3.085
	c2.336-0.104,3.626-2.243,3.489-4.375c-0.118-1.866-1.396-4.034-2.996-6.035C166.953,195.817,165.182,193.273,165.182,193.273z"/>
<path fill="#D40000" d="M90,104.329c0,0-3.717-6.105-8.729-13.283c-3.354-4.803-6.035-10.004-6.284-14.483
	c-0.286-5.117,2.42-10.252,7.32-10.5c4.896-0.249,6.885,3.945,7.693,7.403c0.81-3.458,2.797-7.652,7.693-7.403
	c4.9,0.248,7.606,5.383,7.32,10.5c-0.249,4.479-2.93,9.681-6.284,14.483C93.717,98.224,90,104.329,90,104.329z"/>
<path fill="#D40000" d="M48.771,64.771c0,0-3.716-6.104-8.729-13.282c-3.354-4.804-6.035-10.005-6.284-14.484
	c-0.286-5.117,2.421-10.251,7.32-10.5c4.896-0.249,6.885,3.945,7.693,7.403c0.81-3.458,2.797-7.652,7.693-7.403
	c4.9,0.249,7.606,5.383,7.32,10.5c-0.249,4.479-2.93,9.681-6.284,14.484C52.488,58.667,48.771,64.771,48.771,64.771z"/>
<path fill="#D40000" d="M131.229,143.886c0,0-3.717-6.104-8.729-13.282c-3.354-4.803-6.035-10.004-6.284-14.484
	c-0.286-5.117,2.42-10.251,7.32-10.5c4.896-0.248,6.884,3.946,7.693,7.404c0.809-3.458,2.797-7.652,7.693-7.404
	c4.9,0.249,7.606,5.383,7.32,10.5c-0.249,4.48-2.931,9.682-6.284,14.484C134.945,137.781,131.229,143.886,131.229,143.886z"/>
<path fill="#D40000" d="M131.229,64.771c0,0-3.717-6.104-8.729-13.282c-3.354-4.804-6.035-10.005-6.284-14.484
	c-0.286-5.117,2.42-10.251,7.32-10.5c4.896-0.249,6.884,3.945,7.693,7.403c0.809-3.458,2.797-7.652,7.693-7.403
	c4.9,0.249,7.606,5.383,7.32,10.5c-0.249,4.479-2.931,9.681-6.284,14.484C134.945,58.667,131.229,64.771,131.229,64.771z"/>
<path fill="#D40000" d="M48.771,143.886c0,0-3.716-6.104-8.729-13.282c-3.354-4.803-6.035-10.004-6.284-14.484
	c-0.286-5.117,2.421-10.251,7.32-10.5c4.896-0.248,6.885,3.946,7.693,7.404c0.81-3.458,2.797-7.652,7.693-7.404
	c4.9,0.249,7.606,5.383,7.32,10.5c-0.249,4.48-2.93,9.682-6.284,14.484C52.488,137.781,48.771,143.886,48.771,143.886z"/>
<path fill="#D40000" d="M131.229,184.724c0,0-3.717,6.104-8.729,13.282c-3.354,4.803-6.035,10.004-6.284,14.484
	c-0.286,5.117,2.42,10.251,7.32,10.5c4.896,0.249,6.884-3.946,7.693-7.404c0.809,3.458,2.797,7.653,7.693,7.404
	c4.9-0.249,7.606-5.383,7.32-10.5c-0.249-4.48-2.931-9.682-6.284-14.484C134.945,190.828,131.229,184.724,131.229,184.724z"/>
<path fill="#D40000" d="M48.771,184.724c0,0-3.716,6.104-8.729,13.282c-3.354,4.803-6.035,10.004-6.284,14.484
	c-0.286,5.117,2.421,10.251,7.32,10.5c4.896,0.249,6.885-3.946,7.693-7.404c0.81,3.458,2.797,7.653,7.693,7.404
	c4.9-0.249,7.606-5.383,7.32-10.5c-0.249-4.48-2.93-9.682-6.284-14.484C52.488,190.828,48.771,184.724,48.771,184.724z"/>
<path fill="#D40000" d="M10.778,37.77c1.729-9.149,3.568-16.018,8.399-23.473H9.358v3.209H6.751v-6.049h14.363l1.771,2.84
	c-5.131,5.608-9.827,23.738-8.995,23.473H10.778z"/>
<path fill="#D40000" d="M169.221,211.726c-1.729,9.149-3.569,16.018-8.4,23.473h9.82v-3.209h2.606v6.049h-14.362l-1.771-2.84
	c5.131-5.608,9.826-23.738,8.995-23.473H169.221z"/>
</svg>
