<?xml version="1.0" encoding="utf-8"?>
<!-- Generator: Adobe Illustrator 16.0.0, SVG Export Plug-In . SVG Version: 6.00 Build 0)  -->
<!DOCTYPE svg PUBLIC "-//W3C//DTD SVG 1.1//EN" "http://www.w3.org/Graphics/SVG/1.1/DTD/svg11.dtd">
<svg version="1.1" id="Layer_1" xmlns="http://www.w3.org/2000/svg" xmlns:xlink="http://www.w3.org/1999/xlink" x="0px" y="0px"
	 width="178.58px" height="249.45px" viewBox="0 0 178.58 249.45" enable-background="new 0 0 178.58 249.45" xml:space="preserve">
<path fill="#FFFFFF" d="M9.611,0.871h160.777c4.697,0,8.504,3.808,8.504,8.504v231.644c0,4.696-3.807,8.504-8.504,8.504H9.611
	c-4.697,0-8.504-3.808-8.504-8.504V9.375C1.107,4.679,4.914,0.871,9.611,0.871z"/>
<path fill="none" stroke="#000000" stroke-width="1.0006" d="M9.611,0.871h160.777c4.697,0,8.504,3.808,8.504,8.504v231.644
	c0,4.696-3.807,8.504-8.504,8.504H9.611c-4.697,0-8.504-3.808-8.504-8.504V9.375C1.107,4.679,4.914,0.871,9.611,0.871z"/>
<path d="M48.771,26.943c-7.348,10.492-15.21,16.53-15.34,24.716c-0.044,2.65,1.387,7.155,5.87,8.018
	c2.909,0.557,6.913-1.8,6.997-6.589c-0.013-0.953,1.008-0.929,0.998,0.378c-0.137,3.777-1.331,8.175-3.338,11.755
	c3.209,0,6.417,0,9.626,0c-2.007-3.58-3.201-7.978-3.339-11.755c-0.009-1.307,1.012-1.331,0.999-0.378
	c0.084,4.789,4.088,7.146,6.997,6.589c4.482-0.862,5.914-5.367,5.87-8.018C63.981,43.474,56.12,37.436,48.771,26.943z"/>
<path d="M14.819,40.722c-3.433,4.372-7.106,6.888-7.167,10.298c-0.021,1.104,0.648,2.982,2.742,3.342
	c1.359,0.231,3.23-0.75,3.27-2.746c-0.008-0.396,0.471-0.387,0.467,0.158c-0.064,1.573-0.622,3.406-1.561,4.897
	c1.5,0,2.998,0,4.498,0c-0.938-1.491-1.496-3.324-1.56-4.897c-0.009-0.545,0.472-0.555,0.466-0.158
	c0.039,1.996,1.91,2.978,3.27,2.746c2.094-0.359,2.763-2.237,2.742-3.342C21.926,47.609,18.252,45.094,14.819,40.722z"/>
<path d="M165.182,209.672c-3.434-4.372-7.106-6.888-7.168-10.299c-0.021-1.104,0.648-2.981,2.743-3.341
	c1.358-0.231,3.229,0.751,3.269,2.746c-0.008,0.396,0.471,0.387,0.467-0.157c-0.064-1.574-0.622-3.406-1.56-4.898
	c1.499,0,2.998,0,4.497,0c-0.938,1.492-1.496,3.324-1.56,4.898c-0.008,0.544,0.473,0.555,0.467,0.157
	c0.039-1.995,1.909-2.978,3.269-2.746c2.095,0.359,2.764,2.237,2.743,3.341C172.287,202.784,168.613,205.3,165.182,209.672
	L165.182,209.672z"/>
<path d="M131.229,26.943c-7.348,10.492-15.21,16.53-15.341,24.716c-0.044,2.65,1.388,7.155,5.871,8.018
	c2.908,0.557,6.913-1.8,6.996-6.589c-0.013-0.953,1.009-0.929,0.999,0.378c-0.137,3.777-1.331,8.175-3.338,11.755
	c3.208,0,6.417,0,9.625,0c-2.007-3.58-3.201-7.978-3.338-11.755c-0.01-1.307,1.012-1.331,0.998-0.378
	c0.084,4.789,4.089,7.146,6.997,6.589c4.483-0.862,5.915-5.367,5.871-8.018C146.438,43.474,138.576,37.436,131.229,26.943z"/>
<path d="M90,66.501C82.652,76.993,74.79,83.03,74.659,91.216c-0.044,2.651,1.388,7.156,5.871,8.019
	c2.908,0.557,6.913-1.801,6.997-6.589c-0.014-0.953,1.008-0.929,0.998,0.378c-0.137,3.777-1.331,8.175-3.338,11.755
	c3.209,0,6.417,0,9.625,0c-2.007-3.58-3.201-7.978-3.338-11.755c-0.01-1.307,1.012-1.331,0.999-0.378
	c0.083,4.788,4.088,7.146,6.997,6.589c4.482-0.862,5.914-5.367,5.87-8.019C105.21,83.03,97.348,76.993,90,66.501z"/>
<path d="M48.771,106.059c-7.348,10.491-15.21,16.529-15.34,24.715c-0.044,2.65,1.387,7.156,5.87,8.019
	c2.909,0.557,6.913-1.801,6.997-6.589c-0.013-0.954,1.008-0.929,0.998,0.377c-0.137,3.777-1.331,8.176-3.338,11.755
	c3.209,0,6.417,0,9.626,0c-2.007-3.579-3.201-7.978-3.339-11.755c-0.009-1.306,1.012-1.331,0.999-0.377
	c0.084,4.788,4.088,7.146,6.997,6.589c4.482-0.862,5.914-5.368,5.87-8.019C63.981,122.588,56.12,116.55,48.771,106.059z"/>
<path d="M48.771,223.45c-7.348-10.492-15.21-16.53-15.34-24.716c-0.044-2.65,1.387-7.155,5.87-8.018
	c2.909-0.557,6.913,1.8,6.997,6.589c-0.013,0.953,1.008,0.929,0.998-0.378c-0.137-3.777-1.331-8.175-3.338-11.755
	c3.209,0,6.417,0,9.626,0c-2.007,3.58-3.201,7.978-3.339,11.755c-0.009,1.307,1.012,1.331,0.999,0.378
	c0.084-4.789,4.088-7.146,6.997-6.589c4.482,0.862,5.914,5.367,5.87,8.018C63.981,206.92,56.12,212.958,48.771,223.45z"/>
<path d="M131.229,223.45c-7.348-10.492-15.21-16.53-15.341-24.716c-0.044-2.65,1.388-7.155,5.871-8.018
	c2.908-0.557,6.913,1.8,6.996,6.589c-0.013,0.953,1.009,0.929,0.999-0.378c-0.137-3.777-1.331-8.175-3.338-11.755
	c3.208,0,6.417,0,9.625,0c-2.007,3.58-3.201,7.978-3.338,11.755c-0.01,1.307,1.012,1.331,0.998,0.378
	c0.084-4.789,4.089-7.146,6.997-6.589c4.483,0.862,5.915,5.367,5.871,8.018C146.438,206.92,138.576,212.958,131.229,223.45z"/>
<path d="M131.229,106.059c-7.348,10.491-15.21,16.529-15.341,24.715c-0.044,2.65,1.388,7.156,5.871,8.019
	c2.908,0.557,6.913-1.801,6.996-6.589c-0.013-0.954,1.009-0.929,0.999,0.377c-0.137,3.777-1.331,8.176-3.338,11.755
	c3.208,0,6.417,0,9.625,0c-2.007-3.579-3.201-7.978-3.338-11.755c-0.01-1.306,1.012-1.331,0.998-0.377
	c0.084,4.788,4.089,7.146,6.997,6.589c4.483-0.862,5.915-5.368,5.871-8.019C146.438,122.588,138.576,116.55,131.229,106.059z"/>
<path d="M10.778,38.219c1.729-9.149,3.568-16.018,8.399-23.473H9.358v3.209H6.751v-6.049h14.363l1.771,2.84
	c-5.131,5.608-9.827,23.738-8.995,23.473H10.778z"/>
<path d="M169.22,212.175c-1.729,9.149-3.568,16.018-8.399,23.473h9.82v-3.209h2.606v6.049h-14.362l-1.771-2.84
	c5.131-5.608,9.826-23.737,8.995-23.473H169.22z"/>
</svg>
