<?xml version="1.0" encoding="utf-8"?>
<!-- Generator: Adobe Illustrator 16.0.0, SVG Export Plug-In . SVG Version: 6.00 Build 0)  -->
<!DOCTYPE svg PUBLIC "-//W3C//DTD SVG 1.1//EN" "http://www.w3.org/Graphics/SVG/1.1/DTD/svg11.dtd">
<svg version="1.1" id="Layer_1" xmlns="http://www.w3.org/2000/svg" xmlns:xlink="http://www.w3.org/1999/xlink" x="0px" y="0px"
	 width="178.58px" height="249.45px" viewBox="0 0 178.58 249.45" enable-background="new 0 0 178.58 249.45" xml:space="preserve">
<path fill="#FFFFFF" d="M9.194,0.973h160.777c4.696,0,8.504,3.807,8.504,8.504V241.12c0,4.696-3.808,8.504-8.504,8.504H9.194
	c-4.697,0-8.504-3.808-8.504-8.504V9.477C0.69,4.779,4.497,0.973,9.194,0.973z"/>
<path fill="none" stroke="#000000" stroke-width="0.9967" d="M9.194,0.973h160.777c4.696,0,8.504,3.807,8.504,8.504V241.12
	c0,4.696-3.808,8.504-8.504,8.504H9.194c-4.697,0-8.504-3.808-8.504-8.504V9.477C0.69,4.779,4.497,0.973,9.194,0.973z"/>
<path d="M130.808,27.376c-7.819,0.17-11.326,8.974-5.534,15.811c0.84,0.998,0.926,1.57-0.612,0.612
	c-3.899-2.607-11.375-0.894-11.758,7.078c-0.474,9.821,13.25,12.65,15.827,2.207c0.136-1.102,1.031-1.076,0.815,0.487
	c-0.235,4.245-1.562,8.213-3.384,12.082c3.072,0,6.504,0,9.297,0c-1.822-3.869-3.148-7.837-3.383-12.082
	c-0.217-1.563,0.68-1.589,0.815-0.487c2.577,10.443,16.3,7.614,15.827-2.207c-0.383-7.972-7.859-9.686-11.759-7.078
	c-1.538,0.958-1.451,0.386-0.611-0.612c5.791-6.837,2.285-15.641-5.534-15.811h-0.009H130.808z"/>
<path d="M48.352,27.376c-7.82,0.17-11.326,8.974-5.535,15.811c0.84,0.998,0.927,1.57-0.611,0.612
	c-3.899-2.607-11.375-0.894-11.759,7.078c-0.473,9.821,13.251,12.65,15.827,2.207c0.137-1.102,1.031-1.076,0.815,0.487
	c-0.234,4.245-1.561,8.213-3.383,12.082c3.071,0,6.504,0,9.296,0c-1.822-3.869-3.147-7.837-3.383-12.082
	c-0.216-1.563,0.68-1.589,0.816-0.487c2.576,10.443,16.3,7.614,15.826-2.207c-0.383-7.972-7.859-9.686-11.758-7.078
	c-1.539,0.958-1.452,0.386-0.612-0.612c5.792-6.837,2.285-15.641-5.534-15.811H48.35H48.352z"/>
<path d="M130.808,223.883c-7.819-0.17-11.326-8.974-5.534-15.811c0.84-0.997,0.926-1.569-0.612-0.611
	c-3.899,2.607-11.375,0.894-11.758-7.078c-0.474-9.821,13.25-12.651,15.827-2.207c0.136,1.102,1.031,1.076,0.815-0.488
	c-0.235-4.245-1.562-8.213-3.384-12.082c3.072,0,6.504,0,9.297,0c-1.822,3.869-3.148,7.837-3.383,12.082
	c-0.217,1.564,0.68,1.59,0.815,0.488c2.577-10.444,16.3-7.614,15.827,2.207c-0.383,7.972-7.859,9.686-11.759,7.078
	c-1.538-0.958-1.451-0.386-0.611,0.611c5.791,6.837,2.285,15.641-5.534,15.811h-0.009H130.808z"/>
<path d="M48.352,223.883c-7.82-0.17-11.326-8.974-5.535-15.811c0.84-0.997,0.927-1.569-0.611-0.611
	c-3.899,2.607-11.375,0.894-11.759-7.078c-0.473-9.821,13.251-12.651,15.827-2.207c0.137,1.102,1.031,1.076,0.815-0.488
	c-0.234-4.245-1.561-8.213-3.383-12.082c3.071,0,6.504,0,9.296,0c-1.822,3.869-3.147,7.837-3.383,12.082
	c-0.216,1.564,0.68,1.59,0.816,0.488c2.576-10.444,16.3-7.614,15.826,2.207c-0.383,7.972-7.859,9.686-11.758,7.078
	c-1.539-0.958-1.452-0.386-0.612,0.611c5.792,6.837,2.285,15.641-5.534,15.811H48.35H48.352z"/>
<path d="M89.58,66.934c-7.82,0.17-11.326,8.974-5.535,15.811c0.84,0.998,0.927,1.57-0.611,0.612
	c-3.899-2.607-11.376-0.894-11.759,7.077c-0.473,9.822,13.25,12.651,15.827,2.208c0.136-1.102,1.031-1.077,0.815,0.487
	c-0.235,4.245-1.561,8.213-3.383,12.082c3.071,0,6.504,0,9.296,0c-1.822-3.869-3.147-7.837-3.383-12.082
	c-0.216-1.564,0.68-1.589,0.815-0.487c2.577,10.443,16.3,7.614,15.827-2.208c-0.383-7.971-7.859-9.685-11.758-7.077
	c-1.539,0.958-1.452,0.386-0.611-0.612c5.791-6.837,2.284-15.641-5.535-15.811h-0.008H89.58z"/>
<path d="M130.808,106.491c-7.819,0.17-11.326,8.974-5.534,15.811c0.84,0.997,0.926,1.569-0.612,0.611
	c-3.899-2.607-11.375-0.893-11.758,7.078c-0.474,9.821,13.25,12.651,15.827,2.208c0.136-1.103,1.031-1.077,0.815,0.487
	c-0.235,4.245-1.562,8.213-3.384,12.082c3.072,0,6.504,0,9.297,0c-1.822-3.869-3.148-7.837-3.383-12.082
	c-0.217-1.564,0.68-1.59,0.815-0.487c2.577,10.443,16.3,7.613,15.827-2.208c-0.383-7.971-7.859-9.686-11.759-7.078
	c-1.538,0.958-1.451,0.386-0.611-0.611c5.791-6.837,2.285-15.641-5.534-15.811h-0.009H130.808z"/>
<path d="M48.352,106.491c-7.82,0.17-11.326,8.974-5.535,15.811c0.84,0.997,0.927,1.569-0.611,0.611
	c-3.899-2.607-11.375-0.893-11.759,7.078c-0.473,9.821,13.251,12.651,15.827,2.208c0.137-1.103,1.031-1.077,0.815,0.487
	c-0.234,4.245-1.561,8.213-3.383,12.082c3.071,0,6.504,0,9.296,0c-1.822-3.869-3.147-7.837-3.383-12.082
	c-0.216-1.564,0.68-1.59,0.816-0.487c2.576,10.443,16.3,7.613,15.826-2.208c-0.383-7.971-7.859-9.686-11.758-7.078
	c-1.539,0.958-1.452,0.386-0.612-0.611c5.792-6.837,2.285-15.641-5.534-15.811H48.35H48.352z"/>
<path d="M89.58,184.326c-7.82-0.17-11.326-8.975-5.535-15.812c0.84-0.997,0.927-1.569-0.611-0.611
	c-3.899,2.607-11.376,0.894-11.759-7.078c-0.473-9.821,13.251-12.651,15.827-2.207c0.136,1.102,1.031,1.076,0.815-0.487
	c-0.235-4.245-1.561-8.213-3.383-12.082c3.071,0,6.504,0,9.296,0c-1.822,3.869-3.147,7.837-3.383,12.082
	c-0.216,1.563,0.68,1.589,0.816,0.487c2.576-10.444,16.3-7.614,15.826,2.207c-0.383,7.972-7.859,9.686-11.758,7.078
	c-1.538-0.958-1.451-0.386-0.611,0.611c5.791,6.837,2.285,15.642-5.535,15.812h-0.008H89.58z"/>
<path d="M164.765,209.773c3.128-0.071,4.53-3.739,2.214-6.588c-0.336-0.416-0.371-0.654,0.245-0.255
	c1.56,1.086,4.55,0.372,4.703-2.949c0.189-4.093-5.3-5.271-6.331-0.92c-0.055,0.459-0.412,0.448-0.326-0.203
	c0.094-1.769,0.624-3.422,1.354-5.034c-1.24,0-2.479,0-3.719,0c0.729,1.612,1.26,3.266,1.354,5.034
	c0.086,0.651-0.271,0.662-0.326,0.203c-1.031-4.352-6.52-3.173-6.331,0.92c0.153,3.321,3.144,4.035,4.704,2.949
	c0.615-0.399,0.58-0.161,0.244,0.255c-2.316,2.849-0.914,6.517,2.214,6.588H164.765z"/>
<path d="M14.401,40.823c-3.128,0.07-4.53,3.739-2.214,6.588c0.336,0.415,0.37,0.653-0.245,0.255c-1.56-1.087-4.55-0.372-4.703,2.949
	c-0.188,4.092,5.3,5.271,6.331,0.92c0.055-0.459,0.412-0.449,0.326,0.203c-0.094,1.769-0.624,3.422-1.354,5.034
	c1.24,0,2.479,0,3.719,0c-0.729-1.612-1.26-3.266-1.354-5.034c-0.086-0.652,0.272-0.662,0.326-0.203
	c1.031,4.352,6.521,3.172,6.331-0.92c-0.153-3.321-3.144-4.036-4.703-2.949c-0.615,0.398-0.581,0.16-0.245-0.255
	c2.316-2.849,0.914-6.518-2.213-6.588H14.401z"/>
<path d="M5.864,30.614c0.124-3.532,1.4-4.857,3.912-6.706c-2.004-1.447-2.849-3.581-2.677-5.396
	c0.413-4.397,3.804-6.596,7.505-6.502c3.703,0.099,6.892,3.038,7.14,6.233c0.217,2.777-0.607,4.118-2.576,5.579
	c2.336,1.975,3.828,3.271,3.772,6.751s-3.012,7.62-8.164,7.747C9.624,38.446,5.736,34.147,5.864,30.614z M20.247,30.627
	c0.221-3.198-2.604-5.355-5.791-5.387c-3.104-0.034-5.88,2.619-5.88,5.49c0,3.084,3.611,4.76,5.944,4.768
	C17.355,35.511,20.056,33.381,20.247,30.627z M19.228,19.186c0.061-2.691-2.42-4.622-4.979-4.545
	c-2.276,0.07-4.684,1.808-4.688,4.06c0,2.818,2.74,4.226,5.08,4.28C16.764,23.028,19.18,21.221,19.228,19.186z"/>
<path d="M156.225,219.981c0.125,3.533,1.401,4.858,3.913,6.707c-2.004,1.447-2.849,3.58-2.677,5.396
	c0.413,4.397,3.805,6.596,7.505,6.501c3.703-0.098,6.891-3.037,7.14-6.232c0.216-2.778-0.608-4.119-2.576-5.58
	c2.336-1.975,3.828-3.271,3.772-6.751s-3.012-7.62-8.164-7.746S156.098,216.449,156.225,219.981z M170.608,219.969
	c0.221,3.199-2.604,5.356-5.791,5.388c-3.104,0.033-5.88-2.619-5.88-5.491c0-3.083,3.611-4.759,5.944-4.767
	C167.717,215.086,170.417,217.216,170.608,219.969z M169.589,231.411c0.061,2.69-2.42,4.622-4.979,4.544
	c-2.276-0.069-4.684-1.807-4.688-4.059c0-2.818,2.74-4.226,5.08-4.28C167.125,227.568,169.541,229.376,169.589,231.411z"/>
</svg>
