<?xml version="1.0" encoding="utf-8"?>
<!-- Generator: Adobe Illustrator 16.0.0, SVG Export Plug-In . SVG Version: 6.00 Build 0)  -->
<!DOCTYPE svg PUBLIC "-//W3C//DTD SVG 1.1//EN" "http://www.w3.org/Graphics/SVG/1.1/DTD/svg11.dtd">
<svg version="1.1" id="Layer_1" xmlns="http://www.w3.org/2000/svg" xmlns:xlink="http://www.w3.org/1999/xlink" x="0px" y="0px"
	 width="178.58px" height="249.45px" viewBox="0 0 178.58 249.45" enable-background="new 0 0 178.58 249.45" xml:space="preserve">
<path fill="#FFFFFF" d="M10.193,1.32h160.777c4.697,0,8.504,3.808,8.504,8.504v231.644c0,4.696-3.807,8.504-8.504,8.504H10.193
	c-4.696,0-8.504-3.808-8.504-8.504V9.824C1.689,5.128,5.497,1.32,10.193,1.32z"/>
<path fill="none" stroke="#000000" stroke-width="1.0006" d="M10.193,1.32h160.777c4.697,0,8.504,3.808,8.504,8.504v231.644
	c0,4.696-3.807,8.504-8.504,8.504H10.193c-4.696,0-8.504-3.808-8.504-8.504V9.824C1.689,5.128,5.497,1.32,10.193,1.32z"/>
<path fill="#D40000" d="M15.402,57.12c-1.721-2.846-3.531-5.612-5.794-7.975c2.263-2.362,4.073-5.129,5.794-7.975
	c1.721,2.846,3.531,5.612,5.795,7.975C18.934,51.508,17.123,54.274,15.402,57.12z"/>
<path fill="#D40000" d="M131.811,65.67c-4.13-6.83-8.476-13.468-13.906-19.139c5.431-5.67,9.776-12.309,13.906-19.139
	c4.131,6.83,8.477,13.469,13.906,19.139C140.287,52.202,135.941,58.84,131.811,65.67z"/>
<path fill="#D40000" d="M165.764,210.121c-1.721-2.846-3.531-5.611-5.795-7.975c2.264-2.362,4.074-5.129,5.795-7.975
	c1.721,2.846,3.531,5.612,5.794,7.975C169.295,204.51,167.484,207.275,165.764,210.121z"/>
<path fill="#D40000" d="M49.354,65.67c-4.131-6.83-8.476-13.468-13.906-19.139c5.431-5.67,9.776-12.309,13.906-19.139
	c4.131,6.83,8.476,13.469,13.906,19.139C57.83,52.202,53.485,58.84,49.354,65.67z"/>
<path fill="#D40000" d="M90.583,105.215c-4.131-6.83-8.477-13.469-13.907-19.139c5.431-5.671,9.776-12.309,13.907-19.139
	c4.13,6.83,8.476,13.468,13.906,19.139C99.059,91.746,94.713,98.385,90.583,105.215z"/>
<path fill="#D40000" d="M49.354,144.759c-4.131-6.83-8.476-13.468-13.906-19.139c5.431-5.67,9.776-12.309,13.906-19.139
	c4.131,6.83,8.476,13.469,13.906,19.139C57.83,131.291,53.485,137.929,49.354,144.759z"/>
<path fill="#D40000" d="M131.811,144.771c-4.13-6.83-8.476-13.469-13.906-19.139c5.431-5.671,9.776-12.309,13.906-19.139
	c4.131,6.83,8.477,13.468,13.906,19.139C140.287,131.303,135.941,137.941,131.811,144.771z"/>
<path fill="#D40000" d="M49.354,223.903c-4.131-6.83-8.476-13.468-13.906-19.139c5.431-5.67,9.776-12.309,13.906-19.139
	c4.131,6.83,8.476,13.469,13.906,19.139C57.83,210.436,53.485,217.073,49.354,223.903z"/>
<path fill="#D40000" d="M131.811,223.909c-4.13-6.83-8.476-13.468-13.906-19.139c5.431-5.671,9.776-12.309,13.906-19.139
	c4.131,6.83,8.477,13.468,13.906,19.139C140.287,210.441,135.941,217.079,131.811,223.909z"/>
<path fill="#D40000" d="M90.583,184.331c-4.131-6.83-8.477-13.468-13.907-19.139c5.431-5.67,9.776-12.309,13.907-19.139
	c4.13,6.83,8.476,13.469,13.906,19.139C99.059,170.863,94.713,177.501,90.583,184.331z"/>
<path fill="#D40000" d="M6.864,30.963c0.124-3.533,1.4-4.858,3.912-6.707c-2.004-1.447-2.849-3.58-2.677-5.396
	c0.413-4.397,3.805-6.596,7.505-6.501c3.703,0.098,6.891,3.037,7.14,6.233c0.217,2.777-0.607,4.118-2.576,5.579
	c2.336,1.975,3.828,3.271,3.772,6.751c-0.055,3.479-3.012,7.62-8.164,7.746C10.624,38.795,6.736,34.495,6.864,30.963z
	 M21.247,30.976c0.221-3.199-2.604-5.356-5.791-5.388c-3.104-0.033-5.88,2.619-5.88,5.49c0,3.084,3.611,4.76,5.944,4.768
	C18.355,35.858,21.056,33.729,21.247,30.976z M20.228,19.533c0.061-2.69-2.42-4.622-4.979-4.545c-2.276,0.07-4.684,1.809-4.688,4.06
	c0,2.818,2.74,4.226,5.08,4.28C17.764,23.376,20.18,21.568,20.228,19.533z"/>
<path fill="#D40000" d="M157.225,220.33c0.125,3.532,1.401,4.857,3.913,6.706c-2.004,1.447-2.849,3.581-2.677,5.396
	c0.412,4.397,3.804,6.596,7.504,6.501c3.704-0.098,6.892-3.037,7.141-6.232c0.216-2.778-0.608-4.119-2.576-5.58
	c2.336-1.975,3.827-3.271,3.772-6.751c-0.056-3.479-3.012-7.62-8.164-7.746S157.097,216.797,157.225,220.33z M171.608,220.317
	c0.22,3.198-2.604,5.355-5.792,5.387c-3.104,0.034-5.879-2.619-5.879-5.49c0-3.084,3.611-4.76,5.943-4.768
	C168.717,215.434,171.417,217.563,171.608,220.317L171.608,220.317z M170.589,231.759c0.061,2.691-2.42,4.622-4.979,4.545
	c-2.276-0.07-4.684-1.808-4.688-4.06c0-2.818,2.74-4.226,5.08-4.28C168.125,227.916,170.541,229.724,170.589,231.759z"/>
</svg>
