<?xml version="1.0" encoding="utf-8"?>
<!-- Generator: Adobe Illustrator 16.0.0, SVG Export Plug-In . SVG Version: 6.00 Build 0)  -->
<!DOCTYPE svg PUBLIC "-//W3C//DTD SVG 1.1//EN" "http://www.w3.org/Graphics/SVG/1.1/DTD/svg11.dtd">
<svg version="1.1" id="Layer_1" xmlns="http://www.w3.org/2000/svg" xmlns:xlink="http://www.w3.org/1999/xlink" x="0px" y="0px"
	 width="178.58px" height="249.45px" viewBox="0 0 178.58 249.45" enable-background="new 0 0 178.58 249.45" xml:space="preserve">
<path fill="#FFFFFF" d="M9.193,0.422h160.778c4.696,0,8.504,3.808,8.504,8.504v231.644c0,4.696-3.808,8.504-8.504,8.504H9.193
	c-4.696,0-8.504-3.808-8.504-8.504V8.926C0.689,4.229,4.497,0.422,9.193,0.422z"/>
<path fill="none" stroke="#000000" stroke-width="1.0006" d="M9.193,0.422h160.778c4.696,0,8.504,3.808,8.504,8.504v231.644
	c0,4.696-3.808,8.504-8.504,8.504H9.193c-4.696,0-8.504-3.808-8.504-8.504V8.926C0.689,4.229,4.497,0.422,9.193,0.422z"/>
<path fill="#D40000" d="M14.402,56.222c0,0-1.771-2.544-4.162-5.534c-1.599-2.002-2.877-4.169-2.996-6.035
	c-0.137-2.133,1.154-4.271,3.49-4.375c2.334-0.104,3.282,1.644,3.668,3.085c0.386-1.441,1.333-3.188,3.668-3.085
	c2.336,0.104,3.626,2.242,3.49,4.375c-0.119,1.866-1.397,4.033-2.996,6.035C16.174,53.678,14.402,56.222,14.402,56.222z"/>
<path fill="#D40000" d="M164.764,193.273c0,0.002-1.771,2.544-4.162,5.534c-1.599,2.001-2.877,4.169-2.996,6.035
	c-0.136,2.132,1.154,4.271,3.49,4.375c2.335,0.104,3.282-1.644,3.668-3.085c0.386,1.441,1.334,3.188,3.668,3.085
	c2.336-0.104,3.627-2.243,3.49-4.375c-0.119-1.866-1.397-4.034-2.996-6.035C166.535,195.817,164.766,193.275,164.764,193.273z"/>
<path fill="#D40000" d="M89.583,104.329c0,0-3.717-6.105-8.729-13.283c-3.354-4.803-6.035-10.004-6.285-14.483
	c-0.285-5.117,2.421-10.252,7.32-10.5c4.897-0.249,6.885,3.945,7.694,7.403c0.809-3.458,2.797-7.652,7.693-7.403
	c4.899,0.248,7.606,5.383,7.32,10.5c-0.249,4.479-2.931,9.681-6.284,14.483C93.299,98.224,89.583,104.329,89.583,104.329z"/>
<path fill="#D40000" d="M48.354,64.771c0,0-3.717-6.104-8.729-13.282c-3.354-4.804-6.035-10.005-6.284-14.484
	c-0.286-5.117,2.42-10.251,7.32-10.5c4.896-0.249,6.884,3.945,7.693,7.403c0.81-3.458,2.797-7.652,7.693-7.403
	c4.9,0.249,7.606,5.383,7.32,10.5c-0.249,4.479-2.931,9.681-6.284,14.484C52.07,58.667,48.354,64.771,48.354,64.771z"/>
<path fill="#D40000" d="M130.811,143.886c0,0-3.716-6.104-8.729-13.282c-3.354-4.803-6.034-10.004-6.284-14.484
	c-0.285-5.117,2.421-10.251,7.32-10.5c4.896-0.248,6.885,3.946,7.693,7.404c0.81-3.458,2.797-7.652,7.694-7.404
	c4.899,0.249,7.606,5.383,7.32,10.5c-0.249,4.48-2.931,9.682-6.284,14.484C134.527,137.781,130.811,143.886,130.811,143.886z"/>
<path fill="#D40000" d="M130.811,64.771c0,0-3.716-6.104-8.729-13.282c-3.354-4.804-6.034-10.005-6.284-14.484
	c-0.285-5.117,2.421-10.251,7.32-10.5c4.896-0.249,6.885,3.945,7.693,7.403c0.81-3.458,2.797-7.652,7.694-7.403
	c4.899,0.249,7.606,5.383,7.32,10.5c-0.249,4.479-2.931,9.681-6.284,14.484C134.527,58.667,130.811,64.771,130.811,64.771z"/>
<path fill="#D40000" d="M48.354,143.886c0,0-3.717-6.104-8.729-13.282c-3.354-4.803-6.035-10.004-6.284-14.484
	c-0.286-5.117,2.42-10.251,7.32-10.5c4.896-0.248,6.884,3.946,7.693,7.404c0.81-3.458,2.797-7.652,7.693-7.404
	c4.9,0.249,7.606,5.383,7.32,10.5c-0.249,4.48-2.931,9.682-6.284,14.484C52.07,137.781,48.354,143.886,48.354,143.886z"/>
<path fill="#D40000" d="M89.583,145.166c0,0-3.717,6.105-8.729,13.282c-3.354,4.804-6.035,10.005-6.284,14.484
	c-0.286,5.117,2.42,10.251,7.32,10.5c4.896,0.249,6.884-3.945,7.693-7.403c0.81,3.458,2.797,7.652,7.693,7.403
	c4.9-0.249,7.606-5.383,7.32-10.5c-0.249-4.479-2.93-9.681-6.284-14.484C93.3,151.271,89.583,145.166,89.583,145.166z"/>
<path fill="#D40000" d="M130.811,184.724c0,0-3.716,6.104-8.729,13.282c-3.354,4.803-6.034,10.004-6.284,14.484
	c-0.285,5.117,2.421,10.251,7.32,10.5c4.896,0.249,6.885-3.946,7.693-7.404c0.81,3.458,2.797,7.653,7.694,7.404
	c4.899-0.249,7.606-5.383,7.32-10.5c-0.249-4.48-2.931-9.682-6.284-14.484C134.527,190.828,130.811,184.724,130.811,184.724z"/>
<path fill="#D40000" d="M48.354,184.724c0,0-3.717,6.104-8.729,13.282c-3.354,4.803-6.035,10.004-6.284,14.484
	c-0.286,5.117,2.42,10.251,7.32,10.5c4.896,0.249,6.884-3.946,7.693-7.404c0.81,3.458,2.797,7.653,7.693,7.404
	c4.9-0.249,7.606-5.383,7.32-10.5c-0.249-4.48-2.931-9.682-6.284-14.484C52.07,190.828,48.354,184.724,48.354,184.724z"/>
<path fill="#D40000" d="M5.863,30.064c0.125-3.533,1.401-4.858,3.913-6.706C7.772,21.91,6.928,19.777,7.1,17.961
	c0.412-4.396,3.804-6.595,7.505-6.501c3.703,0.098,6.891,3.038,7.14,6.233c0.216,2.777-0.608,4.118-2.576,5.579
	c2.336,1.975,3.827,3.271,3.772,6.751c-0.056,3.479-3.012,7.62-8.164,7.746C9.624,37.896,5.735,33.597,5.863,30.064L5.863,30.064z
	 M20.247,30.077c0.22-3.198-2.604-5.356-5.792-5.388c-3.104-0.033-5.879,2.619-5.879,5.491c0,3.083,3.611,4.759,5.944,4.767
	C17.355,34.96,20.056,32.83,20.247,30.077z M19.228,18.635c0.061-2.69-2.42-4.621-4.979-4.544c-2.276,0.07-4.684,1.808-4.688,4.059
	c0,2.818,2.74,4.227,5.08,4.28C16.764,22.478,19.18,20.67,19.228,18.635z"/>
<path fill="#D40000" d="M156.226,219.431c0.124,3.533,1.4,4.858,3.912,6.706c-2.004,1.447-2.849,3.581-2.677,5.397
	c0.413,4.397,3.805,6.595,7.505,6.501c3.704-0.098,6.892-3.037,7.14-6.232c0.217-2.778-0.607-4.119-2.576-5.58
	c2.336-1.975,3.828-3.271,3.772-6.751c-0.055-3.479-3.012-7.62-8.164-7.746C159.985,211.599,156.098,215.898,156.226,219.431z
	 M170.609,219.418c0.22,3.199-2.604,5.356-5.792,5.388c-3.104,0.033-5.88-2.619-5.88-5.491c0-3.083,3.611-4.76,5.944-4.767
	C167.717,214.535,170.417,216.664,170.609,219.418z M169.589,230.86c0.061,2.69-2.419,4.622-4.979,4.544
	c-2.275-0.07-4.684-1.808-4.688-4.059c0-2.818,2.74-4.227,5.08-4.28C167.126,227.018,169.541,228.825,169.589,230.86z"/>
</svg>
