<?xml version="1.0" encoding="utf-8"?>
<!-- Generator: Adobe Illustrator 16.0.0, SVG Export Plug-In . SVG Version: 6.00 Build 0)  -->
<!DOCTYPE svg PUBLIC "-//W3C//DTD SVG 1.1//EN" "http://www.w3.org/Graphics/SVG/1.1/DTD/svg11.dtd">
<svg version="1.1" id="Layer_1" xmlns="http://www.w3.org/2000/svg" xmlns:xlink="http://www.w3.org/1999/xlink" x="0px" y="0px"
	 width="178.58px" height="249.45px" viewBox="0 0 178.58 249.45" enable-background="new 0 0 178.58 249.45" xml:space="preserve">
<path fill="#FFFFFF" d="M10.193,0.871h160.778c4.696,0,8.504,3.808,8.504,8.504v231.644c0,4.696-3.808,8.504-8.504,8.504H10.193
	c-4.696,0-8.504-3.808-8.504-8.504V9.375C1.689,4.679,5.497,0.871,10.193,0.871z"/>
<path fill="none" stroke="#000000" stroke-width="1.0006" d="M10.193,0.871h160.778c4.696,0,8.504,3.808,8.504,8.504v231.644
	c0,4.696-3.808,8.504-8.504,8.504H10.193c-4.696,0-8.504-3.808-8.504-8.504V9.375C1.689,4.679,5.497,0.871,10.193,0.871z"/>
<path d="M49.354,26.943c-7.349,10.492-15.21,16.53-15.341,24.716c-0.044,2.65,1.388,7.155,5.871,8.018
	c2.908,0.557,6.912-1.8,6.996-6.589c-0.013-0.953,1.008-0.929,0.999,0.378c-0.138,3.777-1.331,8.175-3.339,11.755
	c3.209,0,6.418,0,9.626,0c-2.007-3.58-3.201-7.978-3.338-11.755c-0.01-1.307,1.012-1.331,0.999-0.378
	c0.083,4.789,4.088,7.146,6.996,6.589c4.483-0.862,5.914-5.367,5.871-8.018C64.564,43.474,56.702,37.436,49.354,26.943z"/>
<path d="M15.402,40.722c-3.434,4.372-7.106,6.888-7.168,10.298c-0.021,1.104,0.648,2.982,2.743,3.342
	c1.358,0.231,3.229-0.75,3.269-2.746c-0.008-0.396,0.472-0.387,0.467,0.158c-0.063,1.573-0.622,3.406-1.56,4.897
	c1.499,0,2.998,0,4.497,0c-0.938-1.491-1.495-3.324-1.56-4.897c-0.008-0.545,0.473-0.555,0.467-0.158
	c0.039,1.996,1.909,2.978,3.269,2.746c2.095-0.359,2.764-2.237,2.743-3.342C22.508,47.609,18.835,45.094,15.402,40.722
	L15.402,40.722z"/>
<path d="M165.764,209.672c-3.433-4.372-7.106-6.888-7.167-10.299c-0.021-1.104,0.647-2.981,2.742-3.341
	c1.359-0.231,3.23,0.751,3.27,2.746c-0.009,0.396,0.471,0.387,0.466-0.157c-0.063-1.574-0.621-3.406-1.56-4.898
	c1.499,0,2.998,0,4.497,0c-0.938,1.492-1.495,3.324-1.559,4.898c-0.009,0.544,0.472,0.555,0.466,0.157
	c0.039-1.995,1.91-2.978,3.269-2.746c2.095,0.359,2.764,2.237,2.743,3.341C172.869,202.784,169.196,205.3,165.764,209.672z"/>
<path d="M131.811,26.943c-7.348,10.492-15.209,16.53-15.34,24.716c-0.044,2.65,1.388,7.155,5.87,8.018
	c2.909,0.557,6.913-1.8,6.997-6.589c-0.013-0.953,1.008-0.929,0.998,0.378c-0.137,3.777-1.33,8.175-3.338,11.755
	c3.209,0,6.418,0,9.626,0c-2.007-3.58-3.201-7.978-3.338-11.755c-0.01-1.307,1.011-1.331,0.998-0.378
	c0.084,4.789,4.089,7.146,6.997,6.589c4.482-0.862,5.914-5.367,5.871-8.018C147.021,43.474,139.159,37.436,131.811,26.943z"/>
<path d="M90.583,66.501c-7.349,10.492-15.21,16.529-15.341,24.715c-0.044,2.651,1.388,7.156,5.87,8.019
	c2.909,0.557,6.913-1.801,6.997-6.589c-0.013-0.953,1.008-0.929,0.998,0.378c-0.137,3.777-1.33,8.175-3.338,11.755
	c3.209,0,6.418,0,9.626,0c-2.007-3.58-3.201-7.978-3.338-11.755c-0.01-1.307,1.011-1.331,0.998-0.378
	c0.084,4.788,4.089,7.146,6.997,6.589c4.482-0.862,5.914-5.367,5.871-8.019C105.793,83.03,97.931,76.993,90.583,66.501z"/>
<path d="M49.354,106.059c-7.349,10.491-15.21,16.529-15.341,24.715c-0.044,2.65,1.388,7.156,5.871,8.019
	c2.908,0.557,6.912-1.801,6.996-6.589c-0.013-0.954,1.008-0.929,0.999,0.377c-0.138,3.777-1.331,8.176-3.339,11.755
	c3.209,0,6.418,0,9.626,0c-2.007-3.579-3.201-7.978-3.338-11.755c-0.01-1.306,1.012-1.331,0.999-0.377
	c0.083,4.788,4.088,7.146,6.996,6.589c4.483-0.862,5.914-5.368,5.871-8.019C64.564,122.588,56.702,116.55,49.354,106.059z"/>
<path d="M49.354,223.45c-7.349-10.492-15.21-16.53-15.341-24.716c-0.044-2.65,1.388-7.155,5.871-8.018
	c2.908-0.557,6.912,1.8,6.996,6.589c-0.013,0.953,1.008,0.929,0.999-0.378c-0.138-3.777-1.331-8.175-3.339-11.755
	c3.209,0,6.418,0,9.626,0c-2.007,3.58-3.201,7.978-3.338,11.755c-0.01,1.307,1.012,1.331,0.999,0.378
	c0.083-4.789,4.088-7.146,6.996-6.589c4.483,0.862,5.914,5.367,5.871,8.018C64.564,206.92,56.702,212.958,49.354,223.45z"/>
<path d="M131.811,223.45c-7.348-10.492-15.209-16.53-15.34-24.716c-0.044-2.65,1.388-7.155,5.87-8.018
	c2.909-0.557,6.913,1.8,6.997,6.589c-0.013,0.953,1.008,0.929,0.998-0.378c-0.137-3.777-1.33-8.175-3.338-11.755
	c3.209,0,6.418,0,9.626,0c-2.007,3.58-3.201,7.978-3.338,11.755c-0.01,1.307,1.011,1.331,0.998,0.378
	c0.084-4.789,4.089-7.146,6.997-6.589c4.482,0.862,5.914,5.367,5.871,8.018C147.021,206.92,139.159,212.958,131.811,223.45z"/>
<path d="M90.583,183.893c-7.349-10.492-15.21-16.529-15.341-24.715c-0.044-2.651,1.388-7.156,5.87-8.019
	c2.909-0.557,6.913,1.8,6.997,6.589c-0.013,0.953,1.008,0.929,0.998-0.378c-0.137-3.777-1.33-8.175-3.338-11.755
	c3.209,0,6.418,0,9.626,0c-2.007,3.58-3.201,7.978-3.338,11.755c-0.01,1.307,1.011,1.331,0.998,0.378
	c0.084-4.789,4.089-7.146,6.997-6.589c4.482,0.862,5.914,5.367,5.871,8.019C105.793,167.363,97.931,173.4,90.583,183.893z"/>
<path d="M131.811,106.059c-7.348,10.491-15.209,16.529-15.34,24.715c-0.044,2.65,1.388,7.156,5.87,8.019
	c2.909,0.557,6.913-1.801,6.997-6.589c-0.013-0.954,1.008-0.929,0.998,0.377c-0.137,3.777-1.33,8.176-3.338,11.755
	c3.209,0,6.418,0,9.626,0c-2.007-3.579-3.201-7.978-3.338-11.755c-0.01-1.306,1.011-1.331,0.998-0.377
	c0.084,4.788,4.089,7.146,6.997,6.589c4.482-0.862,5.914-5.368,5.871-8.019C147.021,122.588,139.159,116.55,131.811,106.059z"/>
<path d="M6.863,30.514c0.125-3.533,1.401-4.858,3.913-6.707c-2.004-1.447-2.849-3.58-2.677-5.396
	c0.412-4.397,3.804-6.596,7.504-6.501c3.704,0.098,6.892,3.037,7.141,6.233c0.216,2.777-0.608,4.118-2.576,5.579
	c2.336,1.975,3.827,3.271,3.772,6.751c-0.056,3.479-3.012,7.62-8.164,7.746C10.624,38.346,6.735,34.046,6.863,30.514z
	 M21.247,30.526c0.22-3.199-2.604-5.356-5.792-5.388c-3.104-0.033-5.879,2.619-5.879,5.491c0,3.083,3.611,4.759,5.943,4.767
	C18.355,35.409,21.056,33.279,21.247,30.526z M20.228,19.084c0.061-2.69-2.42-4.622-4.979-4.545c-2.276,0.07-4.684,1.809-4.688,4.06
	c0,2.818,2.74,4.226,5.08,4.28C17.764,22.927,20.18,21.119,20.228,19.084z"/>
<path d="M157.225,219.88c0.125,3.533,1.401,4.858,3.913,6.706c-2.004,1.447-2.849,3.581-2.677,5.397
	c0.412,4.397,3.805,6.595,7.505,6.501c3.704-0.098,6.892-3.037,7.14-6.232c0.217-2.778-0.607-4.119-2.576-5.58
	c2.336-1.975,3.828-3.271,3.772-6.751c-0.055-3.479-3.012-7.62-8.164-7.746S157.098,216.348,157.225,219.88L157.225,219.88z
	 M171.608,219.867c0.221,3.199-2.604,5.356-5.791,5.388c-3.104,0.033-5.88-2.619-5.88-5.491c0-3.083,3.611-4.76,5.944-4.767
	C168.717,214.984,171.417,217.113,171.608,219.867z M170.589,231.31c0.061,2.69-2.42,4.622-4.979,4.544
	c-2.276-0.07-4.684-1.808-4.688-4.059c0-2.818,2.74-4.227,5.08-4.28C168.125,227.467,170.541,229.274,170.589,231.31z"/>
</svg>
