<?xml version="1.0" encoding="utf-8"?>
<!-- Generator: Adobe Illustrator 16.0.0, SVG Export Plug-In . SVG Version: 6.00 Build 0)  -->
<!DOCTYPE svg PUBLIC "-//W3C//DTD SVG 1.1//EN" "http://www.w3.org/Graphics/SVG/1.1/DTD/svg11.dtd">
<svg version="1.1" id="Layer_1" xmlns="http://www.w3.org/2000/svg" xmlns:xlink="http://www.w3.org/1999/xlink" x="0px" y="0px"
	 width="178.58px" height="249.45px" viewBox="0 0 178.58 249.45" enable-background="new 0 0 178.58 249.45" xml:space="preserve">
<path fill="#FFFFFF" d="M9.776,0.973h160.778c4.696,0,8.504,3.807,8.504,8.504V241.12c0,4.696-3.808,8.504-8.504,8.504H9.776
	c-4.696,0-8.504-3.808-8.504-8.504V9.477C1.272,4.779,5.08,0.973,9.776,0.973z"/>
<path fill="none" stroke="#000000" stroke-width="0.9967" d="M9.776,0.973h160.778c4.696,0,8.504,3.807,8.504,8.504V241.12
	c0,4.696-3.808,8.504-8.504,8.504H9.776c-4.696,0-8.504-3.808-8.504-8.504V9.477C1.272,4.779,5.08,0.973,9.776,0.973z"/>
<path d="M131.391,27.376c-7.82,0.17-11.326,8.974-5.535,15.811c0.84,0.998,0.927,1.57-0.611,0.612
	c-3.899-2.607-11.375-0.894-11.758,7.077c-0.474,9.822,13.25,12.651,15.826,2.208c0.137-1.102,1.031-1.076,0.815,0.487
	c-0.234,4.245-1.561,8.213-3.383,12.082c3.071,0,6.504,0,9.296,0c-1.822-3.869-3.147-7.837-3.383-12.082
	c-0.216-1.563,0.68-1.589,0.816-0.487c2.576,10.443,16.3,7.614,15.826-2.208c-0.383-7.971-7.859-9.685-11.758-7.077
	c-1.538,0.958-1.451,0.386-0.611-0.612c5.791-6.837,2.284-15.641-5.535-15.811h-0.008H131.391z"/>
<path d="M48.934,27.376c-7.819,0.17-11.326,8.974-5.534,15.811c0.84,0.998,0.927,1.57-0.612,0.612
	c-3.898-2.607-11.375-0.894-11.758,7.077c-0.473,9.822,13.25,12.651,15.827,2.208c0.136-1.102,1.031-1.076,0.815,0.487
	c-0.235,4.245-1.561,8.213-3.383,12.082c3.071,0,6.504,0,9.296,0c-1.822-3.869-3.147-7.837-3.383-12.082
	c-0.216-1.563,0.68-1.589,0.815-0.487c2.577,10.443,16.3,7.614,15.827-2.208c-0.383-7.971-7.859-9.685-11.759-7.077
	c-1.538,0.958-1.451,0.386-0.611-0.612c5.791-6.837,2.285-15.641-5.534-15.811h-0.009H48.934z"/>
<path d="M131.391,223.883c-7.82-0.17-11.326-8.974-5.535-15.811c0.84-0.997,0.927-1.569-0.611-0.611
	c-3.899,2.607-11.375,0.894-11.758-7.078c-0.474-9.821,13.25-12.651,15.826-2.207c0.137,1.102,1.031,1.076,0.815-0.488
	c-0.234-4.245-1.561-8.213-3.383-12.082c3.071,0,6.504,0,9.296,0c-1.822,3.869-3.147,7.837-3.383,12.082
	c-0.216,1.564,0.68,1.59,0.816,0.488c2.576-10.444,16.3-7.614,15.826,2.207c-0.383,7.972-7.859,9.686-11.758,7.078
	c-1.538-0.958-1.451-0.386-0.611,0.611c5.791,6.837,2.284,15.641-5.535,15.811h-0.008H131.391z"/>
<path d="M48.934,223.883c-7.819-0.17-11.326-8.974-5.534-15.811c0.84-0.997,0.927-1.569-0.612-0.611
	c-3.898,2.607-11.375,0.894-11.758-7.078c-0.473-9.821,13.25-12.651,15.827-2.207c0.136,1.102,1.031,1.076,0.815-0.488
	c-0.235-4.245-1.561-8.213-3.383-12.082c3.071,0,6.504,0,9.296,0c-1.822,3.869-3.147,7.837-3.383,12.082
	c-0.216,1.564,0.68,1.59,0.815,0.488c2.577-10.444,16.3-7.614,15.827,2.207c-0.383,7.972-7.859,9.686-11.759,7.078
	c-1.538-0.958-1.451-0.386-0.611,0.611c5.791,6.837,2.285,15.641-5.534,15.811h-0.009H48.934z"/>
<path d="M90.162,106.491c-7.819,0.17-11.326,8.974-5.535,15.811c0.841,0.997,0.927,1.569-0.611,0.611
	c-3.898-2.607-11.375-0.893-11.758,7.078c-0.473,9.821,13.25,12.651,15.826,2.208c0.137-1.103,1.032-1.077,0.816,0.487
	c-0.235,4.245-1.561,8.213-3.383,12.082c3.071,0,6.503,0,9.296,0c-1.822-3.869-3.147-7.837-3.383-12.082
	c-0.216-1.564,0.68-1.59,0.815-0.487c2.577,10.443,16.3,7.613,15.827-2.208c-0.383-7.971-7.859-9.686-11.759-7.078
	c-1.538,0.958-1.451,0.386-0.611-0.611c5.791-6.837,2.285-15.641-5.534-15.811H90.16H90.162z"/>
<path d="M165.348,209.773c3.127-0.071,4.53-3.739,2.214-6.588c-0.336-0.416-0.371-0.654,0.245-0.255
	c1.559,1.086,4.55,0.372,4.703-2.949c0.188-4.093-5.301-5.271-6.331-0.92c-0.055,0.459-0.413,0.448-0.326-0.203
	c0.094-1.769,0.624-3.422,1.353-5.034c-1.239,0-2.479,0-3.718,0c0.729,1.612,1.259,3.266,1.353,5.034
	c0.087,0.651-0.271,0.662-0.326,0.203c-1.03-4.352-6.52-3.173-6.33,0.92c0.152,3.321,3.144,4.035,4.703,2.949
	c0.615-0.399,0.58-0.161,0.244,0.255c-2.316,2.849-0.913,6.517,2.214,6.588H165.348z"/>
<path d="M48.934,80.119c-7.819,0.17-11.326,8.975-5.534,15.811c0.84,0.998,0.927,1.57-0.612,0.612
	c-3.898-2.607-11.375-0.894-11.758,7.077c-0.473,9.822,13.25,12.652,15.827,2.208c0.136-1.102,1.031-1.076,0.815,0.487
	c-0.234,4.245-1.561,8.213-3.383,12.082c3.071,0,6.504,0,9.296,0c-1.822-3.869-3.147-7.837-3.383-12.082
	c-0.216-1.563,0.68-1.589,0.815-0.487c2.577,10.444,16.301,7.614,15.827-2.208c-0.383-7.971-7.859-9.685-11.758-7.077
	c-1.538,0.958-1.452,0.386-0.612-0.612c5.791-6.836,2.285-15.641-5.534-15.811H48.934L48.934,80.119z"/>
<path d="M48.934,171.14c-7.819-0.17-11.326-8.974-5.534-15.811c0.84-0.997,0.927-1.569-0.612-0.611
	c-3.898,2.607-11.375,0.894-11.758-7.078c-0.473-9.821,13.25-12.651,15.827-2.208c0.136,1.103,1.031,1.077,0.815-0.487
	c-0.235-4.245-1.561-8.213-3.383-12.082c3.071,0,6.504,0,9.296,0c-1.822,3.869-3.147,7.837-3.383,12.082
	c-0.216,1.564,0.68,1.59,0.815,0.487c2.577-10.443,16.3-7.613,15.827,2.208c-0.383,7.972-7.859,9.686-11.759,7.078
	c-1.538-0.958-1.451-0.386-0.611,0.611c5.791,6.837,2.285,15.641-5.534,15.811h-0.009H48.934z"/>
<path d="M131.391,80.119c-7.82,0.17-11.326,8.975-5.535,15.811c0.84,0.998,0.927,1.57-0.611,0.612
	c-3.899-2.607-11.375-0.894-11.758,7.077c-0.474,9.822,13.25,12.652,15.826,2.208c0.137-1.102,1.031-1.076,0.815,0.487
	c-0.234,4.245-1.561,8.213-3.383,12.082c3.071,0,6.504,0,9.296,0c-1.822-3.869-3.147-7.837-3.383-12.082
	c-0.216-1.563,0.68-1.589,0.816-0.487c2.576,10.444,16.3,7.614,15.826-2.208c-0.383-7.971-7.859-9.685-11.758-7.077
	c-1.538,0.958-1.451,0.386-0.611-0.612c5.791-6.836,2.284-15.641-5.535-15.811h-0.008H131.391z"/>
<path d="M131.391,171.14c-7.82-0.17-11.326-8.974-5.535-15.811c0.84-0.997,0.927-1.569-0.611-0.611
	c-3.899,2.607-11.375,0.894-11.758-7.078c-0.474-9.821,13.25-12.651,15.826-2.208c0.137,1.103,1.031,1.077,0.815-0.487
	c-0.234-4.245-1.561-8.213-3.383-12.082c3.071,0,6.504,0,9.296,0c-1.822,3.869-3.147,7.837-3.383,12.082
	c-0.216,1.564,0.68,1.59,0.816,0.487c2.576-10.443,16.3-7.613,15.826,2.208c-0.383,7.972-7.859,9.686-11.758,7.078
	c-1.538-0.958-1.451-0.386-0.611,0.611c5.791,6.837,2.284,15.641-5.535,15.811h-0.008H131.391z"/>
<path d="M14.984,40.823c-3.128,0.07-4.531,3.739-2.214,6.588c0.336,0.415,0.37,0.653-0.245,0.255
	c-1.56-1.087-4.55-0.372-4.703,2.949c-0.189,4.092,5.3,5.271,6.331,0.92c0.054-0.459,0.412-0.449,0.326,0.203
	c-0.095,1.769-0.624,3.422-1.354,5.034c1.239,0,2.479,0,3.719,0c-0.729-1.612-1.26-3.266-1.354-5.034
	c-0.086-0.652,0.271-0.662,0.326-0.203c1.03,4.352,6.521,3.172,6.331-0.92c-0.153-3.321-3.144-4.036-4.703-2.949
	c-0.615,0.398-0.581,0.16-0.245-0.255c2.316-2.849,0.914-6.518-2.214-6.588H14.984z"/>
<path d="M7.643,33.25l2.404-0.764c0.908,2.427,2.74,3.146,4.68,2.99c3.479-0.278,4.635-4.173,4.895-7.615
	c-1.355,1.439-3.392,2.17-5.127,2.097c-5.549-0.298-6.969-4.744-7.02-9.397c-0.151-3.925,1.469-6.767,4.247-8.072
	c1.473-0.66,4.844-0.66,6.324,0.122c3.399,1.796,4.659,4.898,4.432,12.306c0,6.094-1.292,13.191-7.816,13.346
	C10.895,38.784,8.03,35.848,7.643,33.25z M17.086,26.572c1.132-0.717,1.769-1.391,2.276-2.398c0.416-0.828,0.561-1.26,0.44-2.973
	c-0.309-4.418-2.62-6.926-5.976-6.429c-1.872,0.281-2.896,1.33-3.483,3.279c-1.085,3.605,0.291,7.823,2.868,8.794
	C14.371,27.287,16.162,27.16,17.086,26.572z"/>
<path d="M172.688,217.347l-2.404,0.763c-0.908-2.426-2.74-3.145-4.68-2.989c-3.479,0.278-4.636,4.173-4.896,7.615
	c1.355-1.439,3.392-2.171,5.128-2.097c5.547,0.298,6.968,4.744,7.02,9.397c0.15,3.924-1.469,6.767-4.248,8.071
	c-1.473,0.661-4.843,0.661-6.324-0.122c-3.399-1.796-4.659-4.897-4.432-12.306c0-6.094,1.293-13.19,7.816-13.346
	C169.436,211.813,172.299,214.748,172.688,217.347z M163.243,224.023c-1.132,0.718-1.769,1.392-2.276,2.399
	c-0.416,0.827-0.561,1.26-0.44,2.973c0.309,4.418,2.62,6.926,5.976,6.429c1.872-0.282,2.896-1.33,3.484-3.28
	c1.084-3.605-0.293-7.822-2.869-8.794C165.959,223.31,164.167,223.437,163.243,224.023z"/>
</svg>
