<?xml version="1.0" encoding="utf-8"?>
<!-- Generator: Adobe Illustrator 16.0.0, SVG Export Plug-In . SVG Version: 6.00 Build 0)  -->
<!DOCTYPE svg PUBLIC "-//W3C//DTD SVG 1.1//EN" "http://www.w3.org/Graphics/SVG/1.1/DTD/svg11.dtd">
<svg version="1.1" id="Layer_1" xmlns="http://www.w3.org/2000/svg" xmlns:xlink="http://www.w3.org/1999/xlink" x="0px" y="0px"
	 width="178.58px" height="249.45px" viewBox="0 0 178.58 249.45" enable-background="new 0 0 178.58 249.45" xml:space="preserve">
<path fill="#FFFFFF" d="M9.776,1.32h160.777c4.696,0,8.504,3.808,8.504,8.504v231.644c0,4.696-3.808,8.504-8.504,8.504H9.776
	c-4.696,0-8.504-3.808-8.504-8.504V9.824C1.272,5.128,5.08,1.32,9.776,1.32z"/>
<path fill="none" stroke="#000000" stroke-width="1.0006" d="M9.776,1.32h160.777c4.696,0,8.504,3.808,8.504,8.504v231.644
	c0,4.696-3.808,8.504-8.504,8.504H9.776c-4.696,0-8.504-3.808-8.504-8.504V9.824C1.272,5.128,5.08,1.32,9.776,1.32z"/>
<path fill="#D40000" d="M14.984,57.12c-1.721-2.846-3.531-5.612-5.794-7.975c2.263-2.362,4.073-5.129,5.794-7.975
	c1.722,2.846,3.532,5.612,5.795,7.975C18.517,51.508,16.706,54.274,14.984,57.12z"/>
<path fill="#D40000" d="M131.394,65.67c-4.131-6.83-8.476-13.468-13.906-19.139c5.431-5.671,9.776-12.309,13.906-19.139
	c4.13,6.83,8.476,13.468,13.906,19.139C139.869,52.202,135.523,58.84,131.394,65.67z"/>
<path fill="#D40000" d="M165.346,210.121c-1.721-2.846-3.531-5.611-5.794-7.975c2.263-2.362,4.073-5.129,5.794-7.975
	c1.722,2.846,3.532,5.612,5.795,7.975C168.878,204.51,167.067,207.275,165.346,210.121z"/>
<path fill="#D40000" d="M48.938,65.67c-4.131-6.83-8.477-13.468-13.906-19.139c5.43-5.671,9.775-12.309,13.906-19.139
	c4.13,6.83,8.476,13.468,13.906,19.139C57.413,52.202,53.067,58.84,48.938,65.67z"/>
<path fill="#D40000" d="M131.394,118.419c-4.131-6.83-8.476-13.469-13.906-19.139c5.431-5.671,9.776-12.309,13.906-19.139
	c4.13,6.83,8.476,13.468,13.906,19.139C139.869,104.95,135.523,111.589,131.394,118.419z"/>
<path fill="#D40000" d="M48.938,118.419c-4.131-6.83-8.477-13.469-13.906-19.139c5.43-5.671,9.775-12.309,13.906-19.139
	c4.13,6.83,8.476,13.468,13.906,19.139C57.413,104.95,53.067,111.589,48.938,118.419z"/>
<path fill="#D40000" d="M90.165,144.785c-4.13-6.83-8.476-13.469-13.906-19.139c5.431-5.671,9.776-12.309,13.906-19.139
	c4.131,6.83,8.476,13.468,13.907,19.139C98.641,131.316,94.296,137.955,90.165,144.785z"/>
<path fill="#D40000" d="M48.938,223.903c-4.131-6.83-8.477-13.468-13.906-19.139c5.43-5.67,9.775-12.309,13.906-19.139
	c4.13,6.83,8.476,13.469,13.906,19.139C57.413,210.436,53.067,217.073,48.938,223.903z"/>
<path fill="#D40000" d="M131.394,223.909c-4.131-6.83-8.476-13.468-13.906-19.139c5.431-5.671,9.776-12.309,13.906-19.139
	c4.13,6.83,8.476,13.468,13.906,19.139C139.869,210.441,135.523,217.079,131.394,223.909z"/>
<path fill="#D40000" d="M131.394,171.155c-4.131-6.83-8.476-13.468-13.906-19.139c5.431-5.671,9.776-12.309,13.906-19.139
	c4.13,6.83,8.476,13.468,13.906,19.139C139.869,157.688,135.523,164.325,131.394,171.155z"/>
<path fill="#D40000" d="M48.938,171.13c-4.131-6.83-8.477-13.469-13.906-19.139c5.43-5.671,9.775-12.309,13.906-19.139
	c4.13,6.83,8.476,13.468,13.906,19.139C57.413,157.661,53.067,164.3,48.938,171.13z"/>
<path fill="#D40000" d="M7.643,33.598l2.404-0.763c0.908,2.426,2.739,3.145,4.679,2.989c3.479-0.278,4.636-4.173,4.896-7.615
	c-1.355,1.439-3.393,2.171-5.128,2.097c-5.548-0.298-6.968-4.744-7.019-9.397c-0.152-3.924,1.468-6.767,4.247-8.071
	c1.472-0.661,4.843-0.661,6.323,0.122c3.4,1.796,4.66,4.898,4.432,12.306c0,6.094-1.292,13.19-7.815,13.345
	C10.895,39.132,8.03,36.195,7.643,33.598L7.643,33.598z M17.086,26.92c1.132-0.717,1.769-1.391,2.276-2.398
	c0.416-0.828,0.561-1.26,0.44-2.973c-0.309-4.418-2.62-6.926-5.976-6.429c-1.872,0.282-2.896,1.33-3.483,3.28
	c-1.085,3.605,0.291,7.822,2.868,8.794C14.371,27.635,16.162,27.508,17.086,26.92z"/>
<path fill="#D40000" d="M172.687,217.694l-2.404,0.763c-0.908-2.426-2.739-3.145-4.679-2.989c-3.48,0.278-4.636,4.173-4.896,7.615
	c1.356-1.439,3.393-2.171,5.129-2.097c5.547,0.298,6.968,4.744,7.019,9.397c0.151,3.925-1.468,6.767-4.247,8.071
	c-1.473,0.661-4.844,0.661-6.324-0.121c-3.399-1.797-4.66-4.898-4.432-12.307c0-6.094,1.293-13.19,7.816-13.345
	C169.435,212.16,172.299,215.097,172.687,217.694L172.687,217.694z M163.243,224.372c-1.132,0.717-1.769,1.391-2.276,2.398
	c-0.416,0.828-0.561,1.26-0.44,2.973c0.308,4.418,2.62,6.926,5.976,6.429c1.872-0.281,2.896-1.33,3.483-3.279
	c1.085-3.605-0.292-7.823-2.868-8.794C165.958,223.657,164.166,223.784,163.243,224.372L163.243,224.372z"/>
</svg>
