<?xml version="1.0" encoding="utf-8"?>
<!-- Generator: Adobe Illustrator 16.0.0, SVG Export Plug-In . SVG Version: 6.00 Build 0)  -->
<!DOCTYPE svg PUBLIC "-//W3C//DTD SVG 1.1//EN" "http://www.w3.org/Graphics/SVG/1.1/DTD/svg11.dtd">
<svg version="1.1" id="Layer_1" xmlns="http://www.w3.org/2000/svg" xmlns:xlink="http://www.w3.org/1999/xlink" x="0px" y="0px"
	 width="178.58px" height="249.45px" viewBox="0 0 178.58 249.45" enable-background="new 0 0 178.58 249.45" xml:space="preserve">
<path fill="#FFFFFF" d="M9.776,0.422h160.778c4.696,0,8.504,3.808,8.504,8.504v231.644c0,4.696-3.808,8.504-8.504,8.504H9.776
	c-4.696,0-8.504-3.808-8.504-8.504V8.926C1.272,4.229,5.08,0.422,9.776,0.422z"/>
<path fill="none" stroke="#000000" stroke-width="1.0006" d="M9.776,0.422h160.778c4.696,0,8.504,3.808,8.504,8.504v231.644
	c0,4.696-3.808,8.504-8.504,8.504H9.776c-4.696,0-8.504-3.808-8.504-8.504V8.926C1.272,4.229,5.08,0.422,9.776,0.422z"/>
<path fill="#D40000" d="M48.938,117.515c0,0-3.717-6.104-8.73-13.282c-3.354-4.804-6.034-10.005-6.283-14.484
	c-0.287-5.117,2.42-10.251,7.319-10.5c4.897-0.249,6.885,3.945,7.694,7.403c0.809-3.458,2.797-7.652,7.693-7.403
	c4.899,0.249,7.606,5.383,7.32,10.5c-0.249,4.479-2.931,9.681-6.284,14.484C52.653,111.41,48.938,117.515,48.938,117.515z"/>
<path fill="#D40000" d="M14.984,56.222c0-0.003-1.771-2.544-4.161-5.534c-1.599-2.002-2.878-4.169-2.996-6.035
	c-0.137-2.133,1.153-4.271,3.489-4.375c2.335-0.104,3.283,1.644,3.668,3.085c0.387-1.441,1.334-3.188,3.669-3.085
	c2.336,0.104,3.626,2.242,3.489,4.375c-0.118,1.866-1.396,4.033-2.996,6.035C16.757,53.678,14.986,56.22,14.984,56.222z"/>
<path fill="#D40000" d="M165.347,193.273c0,0-1.772,2.544-4.162,5.534c-1.599,2.001-2.877,4.169-2.996,6.035
	c-0.136,2.132,1.154,4.271,3.49,4.375c2.335,0.104,3.282-1.644,3.668-3.085c0.386,1.441,1.333,3.188,3.668,3.085
	c2.336-0.104,3.626-2.243,3.49-4.375c-0.119-1.866-1.397-4.034-2.996-6.035C167.118,195.817,165.347,193.273,165.347,193.273z"/>
<path fill="#D40000" d="M48.938,64.771c0,0-3.717-6.104-8.73-13.282c-3.354-4.804-6.034-10.005-6.283-14.484
	c-0.287-5.117,2.42-10.251,7.319-10.5c4.897-0.249,6.885,3.945,7.694,7.403c0.809-3.458,2.797-7.652,7.693-7.403
	c4.899,0.249,7.606,5.383,7.32,10.5c-0.249,4.479-2.931,9.681-6.284,14.484C52.653,58.667,48.938,64.771,48.938,64.771z"/>
<path fill="#D40000" d="M131.394,117.515c0,0-3.716-6.104-8.729-13.282c-3.354-4.804-6.035-10.005-6.284-14.484
	c-0.286-5.117,2.421-10.251,7.32-10.5c4.896-0.249,6.885,3.945,7.693,7.403c0.81-3.458,2.797-7.652,7.694-7.403
	c4.899,0.249,7.605,5.383,7.32,10.5c-0.25,4.479-2.931,9.681-6.285,14.484C135.11,111.41,131.394,117.515,131.394,117.515z"/>
<path fill="#D40000" d="M131.394,64.771c0,0-3.716-6.104-8.729-13.282c-3.354-4.804-6.035-10.005-6.284-14.484
	c-0.286-5.117,2.421-10.251,7.32-10.5c4.896-0.249,6.885,3.945,7.693,7.403c0.81-3.458,2.797-7.652,7.694-7.403
	c4.899,0.249,7.605,5.383,7.32,10.5c-0.25,4.479-2.931,9.681-6.285,14.484C135.11,58.667,131.394,64.771,131.394,64.771z"/>
<path fill="#D40000" d="M90.166,143.886c0,0-3.717-6.104-8.73-13.282c-3.354-4.803-6.035-10.004-6.284-14.484
	c-0.286-5.117,2.421-10.251,7.32-10.5c4.897-0.248,6.885,3.946,7.694,7.404c0.809-3.458,2.796-7.652,7.693-7.404
	c4.899,0.249,7.605,5.383,7.32,10.5c-0.25,4.48-2.931,9.682-6.285,14.484C93.882,137.781,90.166,143.886,90.166,143.886z"/>
<path fill="#D40000" d="M131.394,131.98c0,0-3.716,6.104-8.729,13.282c-3.354,4.804-6.035,10.004-6.284,14.484
	c-0.286,5.117,2.421,10.251,7.32,10.5c4.896,0.249,6.885-3.946,7.693-7.404c0.81,3.458,2.797,7.653,7.694,7.404
	c4.899-0.249,7.605-5.383,7.32-10.5c-0.25-4.48-2.931-9.681-6.285-14.484C135.11,138.085,131.394,131.98,131.394,131.98z"/>
<path fill="#D40000" d="M48.938,131.98c0,0-3.717,6.104-8.73,13.282c-3.354,4.804-6.034,10.004-6.283,14.484
	c-0.287,5.117,2.42,10.251,7.319,10.5c4.897,0.249,6.885-3.946,7.694-7.404c0.809,3.458,2.797,7.653,7.693,7.404
	c4.899-0.249,7.606-5.383,7.32-10.5c-0.249-4.48-2.931-9.681-6.284-14.484C52.653,138.085,48.938,131.98,48.938,131.98z"/>
<path fill="#D40000" d="M131.394,184.724c0,0-3.716,6.104-8.729,13.282c-3.354,4.803-6.035,10.004-6.284,14.484
	c-0.286,5.117,2.421,10.251,7.32,10.5c4.896,0.249,6.885-3.946,7.693-7.404c0.81,3.458,2.797,7.653,7.694,7.404
	c4.899-0.249,7.605-5.383,7.32-10.5c-0.25-4.48-2.931-9.682-6.285-14.484C135.11,190.828,131.394,184.724,131.394,184.724z"/>
<path fill="#D40000" d="M48.938,184.724c0,0-3.717,6.104-8.73,13.282c-3.354,4.803-6.034,10.004-6.283,14.484
	c-0.287,5.117,2.42,10.251,7.319,10.5c4.897,0.249,6.885-3.946,7.694-7.404c0.809,3.458,2.797,7.653,7.693,7.404
	c4.899-0.249,7.606-5.383,7.32-10.5c-0.249-4.48-2.931-9.682-6.284-14.484C52.653,190.828,48.938,184.724,48.938,184.724z"/>
<path fill="#D40000" d="M7.643,32.699l2.404-0.763c0.908,2.427,2.739,3.145,4.679,2.989c3.479-0.278,4.636-4.173,4.896-7.615
	c-1.355,1.439-3.393,2.171-5.128,2.097c-5.548-0.298-6.968-4.744-7.019-9.397c-0.152-3.924,1.468-6.767,4.246-8.071
	c1.473-0.661,4.844-0.661,6.324,0.122c3.4,1.796,4.66,4.898,4.432,12.306c0,6.094-1.292,13.19-7.815,13.345
	C10.895,38.233,8.029,35.297,7.643,32.699L7.643,32.699z M17.086,26.021c1.131-0.717,1.769-1.391,2.276-2.398
	c0.415-0.827,0.56-1.26,0.44-2.973c-0.309-4.417-2.621-6.926-5.977-6.429c-1.871,0.282-2.895,1.33-3.482,3.28
	c-1.085,3.605,0.291,7.822,2.867,8.794C14.371,26.736,16.162,26.609,17.086,26.021z"/>
<path fill="#D40000" d="M172.688,216.796l-2.404,0.763c-0.908-2.427-2.74-3.145-4.68-2.989c-3.479,0.278-4.636,4.173-4.896,7.615
	c1.355-1.44,3.392-2.171,5.128-2.097c5.548,0.298,6.968,4.744,7.02,9.397c0.151,3.924-1.469,6.767-4.248,8.071
	c-1.473,0.661-4.843,0.661-6.324-0.122c-3.398-1.796-4.659-4.898-4.432-12.306c0-6.094,1.293-13.19,7.816-13.346
	C169.436,211.262,172.299,214.197,172.688,216.796z M163.243,223.473c-1.132,0.718-1.769,1.392-2.276,2.398
	c-0.416,0.828-0.561,1.261-0.439,2.973c0.308,4.418,2.619,6.927,5.975,6.43c1.873-0.282,2.896-1.33,3.484-3.28
	c1.084-3.605-0.293-7.822-2.869-8.794C165.959,222.759,164.166,222.885,163.243,223.473z"/>
</svg>
