<?xml version="1.0" encoding="utf-8"?>
<!-- Generator: Adobe Illustrator 16.0.0, SVG Export Plug-In . SVG Version: 6.00 Build 0)  -->
<!DOCTYPE svg PUBLIC "-//W3C//DTD SVG 1.1//EN" "http://www.w3.org/Graphics/SVG/1.1/DTD/svg11.dtd">
<svg version="1.1" id="Layer_1" xmlns="http://www.w3.org/2000/svg" xmlns:xlink="http://www.w3.org/1999/xlink" x="0px" y="0px"
	 width="178.58px" height="249.45px" viewBox="0 0 178.58 249.45" enable-background="new 0 0 178.58 249.45" xml:space="preserve">
<path fill="#FFFFFF" d="M9.776,0.871h160.778c4.696,0,8.504,3.808,8.504,8.504v231.644c0,4.696-3.808,8.504-8.504,8.504H9.776
	c-4.696,0-8.504-3.808-8.504-8.504V9.375C1.272,4.679,5.08,0.871,9.776,0.871z"/>
<path fill="none" stroke="#000000" stroke-width="1.0006" d="M9.776,0.871h160.778c4.696,0,8.504,3.808,8.504,8.504v231.644
	c0,4.696-3.808,8.504-8.504,8.504H9.776c-4.696,0-8.504-3.808-8.504-8.504V9.375C1.272,4.679,5.08,0.871,9.776,0.871z"/>
<path d="M48.938,26.943c-7.348,10.492-15.21,16.53-15.341,24.716c-0.044,2.65,1.388,7.155,5.87,8.018
	c2.909,0.557,6.914-1.8,6.997-6.589c-0.013-0.953,1.009-0.929,0.999,0.378c-0.137,3.777-1.331,8.175-3.338,11.755
	c3.208,0,6.417,0,9.625,0c-2.007-3.58-3.201-7.978-3.338-11.755c-0.01-1.307,1.012-1.331,0.998-0.378
	c0.084,4.789,4.089,7.146,6.997,6.589c4.483-0.862,5.915-5.367,5.87-8.018C64.147,43.474,56.285,37.436,48.938,26.943z"/>
<path d="M14.985,40.722c-3.434,4.372-7.106,6.888-7.168,10.298c-0.021,1.104,0.648,2.982,2.743,3.342
	c1.358,0.231,3.229-0.75,3.269-2.746c-0.008-0.396,0.472-0.387,0.467,0.158c-0.063,1.573-0.622,3.406-1.56,4.897
	c1.499,0,2.998,0,4.497,0c-0.938-1.491-1.495-3.324-1.56-4.897c-0.008-0.545,0.473-0.555,0.467-0.158
	c0.039,1.996,1.909,2.978,3.269,2.746c2.095-0.359,2.763-2.237,2.743-3.342C22.091,47.609,18.418,45.094,14.985,40.722
	L14.985,40.722z"/>
<path d="M48.938,170.707c-7.348-10.492-15.21-16.53-15.341-24.716c-0.044-2.65,1.388-7.155,5.87-8.018
	c2.909-0.558,6.914,1.8,6.997,6.589c-0.013,0.953,1.009,0.929,0.999-0.378c-0.137-3.777-1.331-8.175-3.338-11.755
	c3.208,0,6.417,0,9.625,0c-2.007,3.58-3.201,7.978-3.338,11.755c-0.01,1.307,1.012,1.331,0.998,0.378
	c0.084-4.789,4.089-7.146,6.997-6.589c4.483,0.862,5.915,5.367,5.87,8.018C64.147,154.177,56.285,160.215,48.938,170.707z"/>
<path d="M165.347,209.672c-3.433-4.372-7.106-6.888-7.167-10.299c-0.021-1.104,0.647-2.981,2.742-3.341
	c1.359-0.231,3.23,0.751,3.27,2.746c-0.009,0.396,0.471,0.387,0.466-0.157c-0.063-1.574-0.622-3.406-1.56-4.898
	c1.499,0,2.998,0,4.497,0c-0.938,1.492-1.495,3.324-1.56,4.898c-0.008,0.544,0.473,0.555,0.467,0.157
	c0.039-1.995,1.91-2.978,3.269-2.746c2.095,0.359,2.764,2.237,2.743,3.341C172.452,202.784,168.779,205.3,165.347,209.672
	L165.347,209.672z"/>
<path d="M131.394,26.943c-7.348,10.492-15.21,16.53-15.341,24.716c-0.043,2.65,1.389,7.155,5.871,8.018
	c2.908,0.557,6.913-1.8,6.997-6.589c-0.013-0.953,1.008-0.929,0.998,0.378c-0.137,3.777-1.331,8.175-3.338,11.755
	c3.209,0,6.417,0,9.626,0c-2.008-3.58-3.201-7.978-3.338-11.755c-0.01-1.307,1.011-1.331,0.998-0.378
	c0.084,4.789,4.088,7.146,6.997,6.589c4.482-0.862,5.914-5.367,5.87-8.018C146.604,43.474,138.742,37.436,131.394,26.943z"/>
<path d="M48.938,79.687c-7.348,10.492-15.21,16.53-15.341,24.716c-0.044,2.65,1.388,7.155,5.87,8.018
	c2.909,0.557,6.914-1.8,6.997-6.589c-0.013-0.953,1.009-0.929,0.999,0.378c-0.137,3.777-1.331,8.175-3.338,11.755
	c3.208,0,6.417,0,9.625,0c-2.007-3.58-3.201-7.978-3.338-11.755c-0.01-1.307,1.012-1.331,0.998-0.378
	c0.084,4.789,4.089,7.146,6.997,6.589c4.483-0.862,5.915-5.367,5.87-8.018C64.147,96.217,56.285,90.179,48.938,79.687z"/>
<path d="M131.394,79.687c-7.348,10.492-15.21,16.53-15.341,24.716c-0.043,2.65,1.389,7.155,5.871,8.018
	c2.908,0.557,6.913-1.8,6.997-6.589c-0.013-0.953,1.008-0.929,0.998,0.378c-0.137,3.777-1.331,8.175-3.338,11.755
	c3.209,0,6.417,0,9.626,0c-2.008-3.58-3.201-7.978-3.338-11.755c-0.01-1.307,1.011-1.331,0.998-0.378
	c0.084,4.789,4.088,7.146,6.997,6.589c4.482-0.862,5.914-5.367,5.87-8.018C146.604,96.217,138.742,90.179,131.394,79.687z"/>
<path d="M48.938,223.45c-7.348-10.492-15.21-16.53-15.341-24.716c-0.044-2.65,1.388-7.155,5.87-8.018
	c2.909-0.557,6.914,1.8,6.997,6.589c-0.013,0.953,1.009,0.929,0.999-0.378c-0.137-3.777-1.331-8.175-3.338-11.755
	c3.208,0,6.417,0,9.625,0c-2.007,3.58-3.201,7.978-3.338,11.755c-0.01,1.307,1.012,1.331,0.998,0.378
	c0.084-4.789,4.089-7.146,6.997-6.589c4.483,0.862,5.915,5.367,5.87,8.018C64.147,206.92,56.285,212.958,48.938,223.45z"/>
<path d="M131.394,223.45c-7.348-10.492-15.21-16.53-15.341-24.716c-0.043-2.65,1.389-7.155,5.871-8.018
	c2.908-0.557,6.913,1.8,6.997,6.589c-0.013,0.953,1.008,0.929,0.998-0.378c-0.137-3.777-1.331-8.175-3.338-11.755
	c3.209,0,6.417,0,9.626,0c-2.008,3.58-3.201,7.978-3.338,11.755c-0.01,1.307,1.011,1.331,0.998,0.378
	c0.084-4.789,4.088-7.146,6.997-6.589c4.482,0.862,5.914,5.367,5.87,8.018C146.604,206.92,138.742,212.958,131.394,223.45z"/>
<path d="M131.394,170.707c-7.348-10.492-15.21-16.53-15.341-24.716c-0.043-2.65,1.389-7.155,5.871-8.018
	c2.908-0.558,6.913,1.8,6.997,6.589c-0.013,0.953,1.008,0.929,0.998-0.378c-0.137-3.777-1.331-8.175-3.338-11.755
	c3.209,0,6.417,0,9.626,0c-2.008,3.58-3.201,7.978-3.338,11.755c-0.01,1.307,1.011,1.331,0.998,0.378
	c0.084-4.789,4.088-7.146,6.997-6.589c4.482,0.862,5.914,5.367,5.87,8.018C146.604,154.177,138.742,160.215,131.394,170.707z"/>
<path d="M90.166,106.059c-7.349,10.491-15.211,16.529-15.341,24.715c-0.044,2.65,1.388,7.156,5.87,8.019
	c2.909,0.557,6.913-1.801,6.997-6.589c-0.013-0.954,1.008-0.929,0.999,0.377c-0.138,3.777-1.332,8.176-3.339,11.755
	c3.209,0,6.417,0,9.626,0c-2.007-3.579-3.201-7.978-3.338-11.755c-0.01-1.306,1.011-1.331,0.998-0.377
	c0.084,4.788,4.088,7.146,6.997,6.589c4.483-0.862,5.914-5.368,5.87-8.019C105.375,122.588,97.514,116.55,90.166,106.059z"/>
<path d="M7.643,33.148l2.404-0.763c0.908,2.427,2.739,3.145,4.679,2.989c3.479-0.277,4.636-4.173,4.896-7.615
	c-1.355,1.439-3.393,2.171-5.128,2.097c-5.548-0.298-6.968-4.743-7.019-9.397c-0.152-3.924,1.468-6.767,4.247-8.071
	c1.473-0.661,4.843-0.661,6.323,0.122c3.4,1.796,4.66,4.898,4.433,12.306c0,6.094-1.292,13.19-7.816,13.346
	C10.895,38.683,8.03,35.747,7.643,33.148L7.643,33.148z M17.086,26.472c1.132-0.718,1.769-1.392,2.276-2.398
	c0.416-0.828,0.561-1.261,0.44-2.974c-0.309-4.418-2.62-6.926-5.977-6.429c-1.871,0.282-2.896,1.33-3.482,3.28
	c-1.085,3.605,0.291,7.822,2.867,8.794C14.371,27.186,16.162,27.06,17.086,26.472z"/>
<path d="M172.688,217.245l-2.404,0.763c-0.908-2.427-2.74-3.145-4.68-2.989c-3.479,0.278-4.636,4.173-4.896,7.615
	c1.355-1.44,3.393-2.171,5.128-2.097c5.548,0.298,6.968,4.744,7.02,9.397c0.151,3.924-1.469,6.767-4.248,8.071
	c-1.473,0.661-4.843,0.661-6.323-0.122c-3.399-1.796-4.66-4.898-4.432-12.306c0-6.094,1.292-13.19,7.815-13.346
	C169.436,211.711,172.299,214.646,172.688,217.245z M163.243,223.922c-1.132,0.718-1.769,1.392-2.276,2.398
	c-0.416,0.828-0.561,1.261-0.44,2.974c0.309,4.417,2.62,6.926,5.976,6.429c1.873-0.282,2.896-1.33,3.484-3.28
	c1.084-3.605-0.292-7.822-2.869-8.794C165.959,223.208,164.167,223.334,163.243,223.922z"/>
</svg>
