<?xml version="1.0" encoding="utf-8"?>
<!-- Generator: Adobe Illustrator 16.0.0, SVG Export Plug-In . SVG Version: 6.00 Build 0)  -->
<!DOCTYPE svg PUBLIC "-//W3C//DTD SVG 1.1//EN" "http://www.w3.org/Graphics/SVG/1.1/DTD/svg11.dtd">
<svg version="1.1" id="Layer_1" xmlns="http://www.w3.org/2000/svg" xmlns:xlink="http://www.w3.org/1999/xlink" x="0px" y="0px"
	 width="178.58px" height="249.45px" viewBox="0 0 178.58 249.45" enable-background="new 0 0 178.58 249.45" xml:space="preserve">
<path fill="#FFFFFF" d="M9.115,0.972h160.777c4.696,0,8.504,3.808,8.504,8.504v231.644c0,4.697-3.808,8.504-8.504,8.504H9.115
	c-4.696,0-8.504-3.807-8.504-8.504V9.476C0.611,4.779,4.419,0.972,9.115,0.972z"/>
<path fill="none" stroke="#000000" stroke-width="0.9967" d="M9.115,0.972h160.777c4.696,0,8.504,3.808,8.504,8.504v231.644
	c0,4.697-3.808,8.504-8.504,8.504H9.115c-4.696,0-8.504-3.807-8.504-8.504V9.476C0.611,4.779,4.419,0.972,9.115,0.972z"/>
<path d="M89.501,106.49c-7.82,0.17-11.326,8.975-5.535,15.811c0.84,0.998,0.927,1.57-0.611,0.612
	c-3.899-2.607-11.376-0.894-11.759,7.077c-0.473,9.822,13.251,12.652,15.827,2.208c0.136-1.102,1.031-1.077,0.815,0.487
	c-0.234,4.245-1.561,8.213-3.383,12.082c3.071,0,6.504,0,9.296,0c-1.821-3.869-3.147-7.837-3.383-12.082
	c-0.216-1.564,0.68-1.589,0.816-0.487c2.576,10.444,16.3,7.614,15.826-2.208c-0.383-7.971-7.859-9.685-11.758-7.077
	c-1.538,0.958-1.452,0.386-0.611-0.612c5.791-6.836,2.284-15.641-5.535-15.811h-0.008H89.501z"/>
<path d="M164.687,209.772c3.127-0.07,4.53-3.739,2.214-6.588c-0.337-0.415-0.371-0.653,0.244-0.255
	c1.56,1.087,4.55,0.372,4.703-2.949c0.189-4.092-5.3-5.271-6.33-0.92c-0.055,0.46-0.413,0.449-0.327-0.203
	c0.095-1.769,0.625-3.422,1.354-5.033c-1.239,0-2.479,0-3.718,0c0.729,1.611,1.259,3.265,1.353,5.033
	c0.087,0.652-0.271,0.663-0.326,0.203c-1.03-4.352-6.52-3.172-6.331,0.92c0.153,3.321,3.144,4.036,4.704,2.949
	c0.615-0.398,0.58-0.16,0.244,0.255c-2.316,2.849-0.914,6.518,2.214,6.588H164.687z"/>
<path d="M6.285,38.322v-2.25h2.144l4.568-24.065h2.6l5.032,24.065h1.731v2.25h-5.9v-2.25h1.593l-0.637-3.688h-5.952l-0.46,3.688
	h1.593v2.25H6.285z M16.908,29.757l-2.587-12.88l-2.424,12.88H16.908z"/>
<path d="M156.646,212.272v2.251h2.144l4.568,24.065h2.6l5.032-24.065h1.731v-2.251h-5.9v2.251h1.592l-0.636,3.688h-5.952
	l-0.46-3.688h1.593v-2.251H156.646z M167.27,220.838l-2.587,12.881l-2.424-12.881H167.27z"/>
<path d="M14.322,40.822c-3.128,0.07-4.53,3.739-2.214,6.588c0.336,0.416,0.371,0.654-0.244,0.255
	c-1.56-1.086-4.551-0.372-4.704,2.949c-0.188,4.093,5.301,5.271,6.331,0.92c0.055-0.459,0.413-0.448,0.326,0.203
	c-0.094,1.769-0.624,3.422-1.353,5.034c1.239,0,2.479,0,3.718,0c-0.729-1.612-1.259-3.266-1.353-5.034
	c-0.087-0.651,0.271-0.662,0.326-0.203c1.03,4.352,6.52,3.173,6.33-0.92c-0.152-3.321-3.144-4.035-4.703-2.949
	c-0.615,0.399-0.58,0.161-0.244-0.255c2.316-2.849,0.914-6.517-2.214-6.588H14.322z"/>
</svg>
