<?xml version="1.0" encoding="utf-8"?>
<!-- Generator: Adobe Illustrator 16.0.0, SVG Export Plug-In . SVG Version: 6.00 Build 0)  -->
<!DOCTYPE svg PUBLIC "-//W3C//DTD SVG 1.1//EN" "http://www.w3.org/Graphics/SVG/1.1/DTD/svg11.dtd">
<svg version="1.1" id="Layer_1" xmlns="http://www.w3.org/2000/svg" xmlns:xlink="http://www.w3.org/1999/xlink" x="0px" y="0px"
	 width="178.58px" height="249.45px" viewBox="0 0 178.58 249.45" enable-background="new 0 0 178.58 249.45" xml:space="preserve">
<path fill="#FFFFFF" d="M10.115,1.32h160.777c4.696,0,8.504,3.808,8.504,8.504v231.644c0,4.696-3.808,8.504-8.504,8.504H10.115
	c-4.697,0-8.504-3.808-8.504-8.504V9.824C1.611,5.128,5.418,1.32,10.115,1.32z"/>
<path fill="none" stroke="#000000" stroke-width="1.0006" d="M10.115,1.32h160.777c4.696,0,8.504,3.808,8.504,8.504v231.644
	c0,4.696-3.808,8.504-8.504,8.504H10.115c-4.697,0-8.504-3.808-8.504-8.504V9.824C1.611,5.128,5.418,1.32,10.115,1.32z"/>
<path fill="#D40000" d="M15.324,57.12c-1.721-2.846-3.532-5.612-5.794-7.975c2.263-2.362,4.073-5.129,5.794-7.975
	c1.721,2.846,3.532,5.612,5.794,7.975C18.855,51.508,17.044,54.274,15.324,57.12z"/>
<path fill="#D40000" d="M165.685,210.121c-1.721-2.846-3.531-5.611-5.794-7.975c2.263-2.362,4.073-5.129,5.794-7.975
	c1.722,2.846,3.532,5.612,5.795,7.975C169.217,204.51,167.406,207.275,165.685,210.121z"/>
<path fill="#D40000" d="M90.504,144.785c-4.131-6.83-8.476-13.469-13.906-19.139c5.431-5.671,9.775-12.309,13.906-19.139
	c4.131,6.83,8.476,13.468,13.906,19.139C98.979,131.316,94.635,137.955,90.504,144.785z"/>
<path fill="#D40000" d="M7.285,38.671v-2.25h2.145l4.568-24.065h2.6l5.032,24.065h1.732v2.25h-5.9v-2.25h1.592l-0.636-3.688h-5.953
	l-0.459,3.688h1.592v2.25H7.285z M17.909,30.105l-2.588-12.881l-2.424,12.881H17.909z"/>
<path fill="#D40000" d="M157.646,212.621v2.25h2.144l4.568,24.066h2.6l5.032-24.066h1.731v-2.25h-5.9v2.25h1.592l-0.636,3.688
	h-5.952l-0.46-3.688h1.593v-2.25H157.646z M168.27,221.187l-2.588,12.881l-2.423-12.881H168.27z"/>
</svg>
