<?xml version="1.0" encoding="utf-8"?>
<!-- Generator: Adobe Illustrator 16.0.0, SVG Export Plug-In . SVG Version: 6.00 Build 0)  -->
<!DOCTYPE svg PUBLIC "-//W3C//DTD SVG 1.1//EN" "http://www.w3.org/Graphics/SVG/1.1/DTD/svg11.dtd">
<svg version="1.1" id="Layer_1" xmlns="http://www.w3.org/2000/svg" xmlns:xlink="http://www.w3.org/1999/xlink" x="0px" y="0px"
	 width="178.58px" height="249.45px" viewBox="0 0 178.58 249.45" enable-background="new 0 0 178.58 249.45" xml:space="preserve">
<path fill="#FFFFFF" d="M9.115,0.422h160.778c4.697,0,8.504,3.808,8.504,8.504v231.644c0,4.696-3.807,8.504-8.504,8.504H9.115
	c-4.696,0-8.504-3.808-8.504-8.504V8.926C0.611,4.229,4.418,0.422,9.115,0.422z"/>
<path fill="none" stroke="#000000" stroke-width="1.0006" d="M9.115,0.422h160.778c4.697,0,8.504,3.808,8.504,8.504v231.644
	c0,4.696-3.807,8.504-8.504,8.504H9.115c-4.696,0-8.504-3.808-8.504-8.504V8.926C0.611,4.229,4.418,0.422,9.115,0.422z"/>
<path fill="#D40000" d="M14.323,56.222c0,0-1.771-2.544-4.162-5.534c-1.599-2.002-2.877-4.169-2.996-6.035
	c-0.136-2.133,1.154-4.271,3.49-4.375c2.335-0.104,3.282,1.644,3.668,3.085c0.386-1.441,1.333-3.188,3.668-3.085
	c2.336,0.104,3.626,2.242,3.49,4.375c-0.119,1.866-1.397,4.033-2.996,6.035C16.095,53.678,14.323,56.222,14.323,56.222z"/>
<path fill="#D40000" d="M164.686,193.273c0,0-1.772,2.544-4.162,5.534c-1.6,2.001-2.878,4.169-2.996,6.035
	c-0.137,2.132,1.153,4.271,3.489,4.375c2.335,0.104,3.282-1.644,3.669-3.085c0.386,1.441,1.333,3.188,3.668,3.085
	c2.336-0.104,3.626-2.243,3.489-4.375c-0.118-1.866-1.396-4.034-2.996-6.035C166.457,195.817,164.686,193.273,164.686,193.273z"/>
<path fill="#D40000" d="M89.504,143.886c0,0-3.717-6.104-8.729-13.282c-3.354-4.803-6.035-10.004-6.284-14.484
	c-0.286-5.117,2.42-10.251,7.32-10.5c4.896-0.248,6.885,3.946,7.693,7.404c0.81-3.458,2.797-7.652,7.693-7.404
	c4.9,0.249,7.606,5.383,7.32,10.5c-0.249,4.48-2.93,9.682-6.284,14.484C93.221,137.781,89.504,143.886,89.504,143.886z"/>
<path fill="#D40000" d="M6.285,37.772v-2.25h2.144l4.568-24.065h2.6l5.032,24.065h1.732v2.25h-5.9v-2.25h1.592l-0.636-3.688h-5.952
	l-0.46,3.688h1.592v2.25H6.285z M16.908,29.207l-2.587-12.88l-2.424,12.88H16.908z"/>
<path fill="#D40000" d="M156.646,211.723v2.25h2.145l4.567,24.065h2.6l5.032-24.065h1.731v-2.25h-5.9v2.25h1.593l-0.636,3.688
	h-5.953l-0.459-3.688h1.592v-2.25H156.646z M167.27,220.288l-2.587,12.88l-2.424-12.88H167.27z"/>
</svg>
