<?xml version="1.0" encoding="utf-8"?>
<!-- Generator: Adobe Illustrator 16.0.0, SVG Export Plug-In . SVG Version: 6.00 Build 0)  -->
<!DOCTYPE svg PUBLIC "-//W3C//DTD SVG 1.1//EN" "http://www.w3.org/Graphics/SVG/1.1/DTD/svg11.dtd">
<svg version="1.1" id="Layer_1" xmlns="http://www.w3.org/2000/svg" xmlns:xlink="http://www.w3.org/1999/xlink" x="0px" y="0px"
	 width="178.58px" height="249.45px" viewBox="0 0 178.58 249.45" enable-background="new 0 0 178.58 249.45" xml:space="preserve">
<path fill="#FFFFFF" d="M10.115,0.871h160.777c4.697,0,8.504,3.808,8.504,8.504v231.644c0,4.696-3.807,8.504-8.504,8.504H10.115
	c-4.697,0-8.504-3.808-8.504-8.504V9.375C1.611,4.679,5.418,0.871,10.115,0.871z"/>
<path fill="none" stroke="#000000" stroke-width="1.0006" d="M10.115,0.871h160.777c4.697,0,8.504,3.808,8.504,8.504v231.644
	c0,4.696-3.807,8.504-8.504,8.504H10.115c-4.697,0-8.504-3.808-8.504-8.504V9.375C1.611,4.679,5.418,0.871,10.115,0.871z"/>
<path d="M15.323,40.722c-3.433,4.372-7.106,6.888-7.167,10.298c-0.021,1.104,0.648,2.982,2.743,3.342
	c1.359,0.231,3.23-0.75,3.269-2.746c-0.008-0.396,0.471-0.387,0.466,0.158c-0.063,1.573-0.622,3.406-1.56,4.897
	c1.499,0,2.998,0,4.498,0c-0.938-1.491-1.496-3.324-1.56-4.897c-0.008-0.545,0.473-0.555,0.467-0.158
	c0.039,1.996,1.91,2.978,3.269,2.746c2.095-0.359,2.764-2.237,2.743-3.342C22.43,47.609,18.756,45.094,15.323,40.722z"/>
<path d="M165.686,209.672c-3.434-4.372-7.106-6.888-7.168-10.299c-0.021-1.104,0.648-2.981,2.743-3.341
	c1.358-0.231,3.229,0.751,3.269,2.746c-0.008,0.396,0.472,0.387,0.467-0.157c-0.063-1.574-0.622-3.406-1.56-4.898
	c1.499,0,2.998,0,4.497,0c-0.938,1.492-1.495,3.324-1.56,4.898c-0.008,0.544,0.473,0.555,0.467,0.157
	c0.039-1.995,1.91-2.978,3.269-2.746c2.095,0.359,2.764,2.237,2.743,3.341C172.791,202.784,169.118,205.3,165.686,209.672z"/>
<path d="M90.504,106.059c-7.348,10.491-15.21,16.529-15.341,24.715c-0.044,2.65,1.388,7.156,5.871,8.019
	c2.908,0.557,6.913-1.801,6.996-6.589c-0.013-0.954,1.009-0.929,0.999,0.377c-0.137,3.777-1.331,8.176-3.338,11.755
	c3.208,0,6.417,0,9.625,0c-2.007-3.579-3.201-7.978-3.338-11.755c-0.01-1.306,1.012-1.331,0.999-0.377
	c0.083,4.788,4.088,7.146,6.996,6.589c4.483-0.862,5.915-5.368,5.871-8.019C105.714,122.588,97.852,116.55,90.504,106.059z"/>
<path d="M7.285,38.222v-2.25h2.144l4.568-24.065h2.6l5.032,24.065h1.732v2.25h-5.9v-2.25h1.592l-0.636-3.688h-5.952l-0.46,3.688
	h1.592v2.25H7.285z M17.908,29.656l-2.587-12.881l-2.424,12.881H17.908z"/>
<path d="M157.646,212.172v2.25h2.145l4.567,24.065h2.6l5.032-24.065h1.731v-2.25h-5.9v2.25h1.593l-0.637,3.688h-5.952l-0.459-3.688
	h1.592v-2.25H157.646z M168.27,220.737l-2.587,12.88l-2.424-12.88H168.27z"/>
</svg>
