<?xml version="1.0" encoding="utf-8"?>
<!-- Generator: Adobe Illustrator 16.0.0, SVG Export Plug-In . SVG Version: 6.00 Build 0)  -->
<!DOCTYPE svg PUBLIC "-//W3C//DTD SVG 1.1//EN" "http://www.w3.org/Graphics/SVG/1.1/DTD/svg11.dtd">
<svg version="1.1" id="Layer_1" xmlns="http://www.w3.org/2000/svg" xmlns:xlink="http://www.w3.org/1999/xlink" x="0px" y="0px"
	 width="178.58px" height="249.45px" viewBox="0 0 178.58 249.45" enable-background="new 0 0 178.58 249.45" xml:space="preserve">
<path fill="#FFFFFF" d="M8.941,0.973H169.72c4.696,0,8.504,3.808,8.504,8.504v231.643c0,4.697-3.808,8.505-8.504,8.505H8.941
	c-4.696,0-8.504-3.808-8.504-8.505V9.477C0.438,4.78,4.245,0.973,8.941,0.973z"/>
<path fill="none" stroke="#000000" stroke-width="1.0006" d="M8.941,0.973H169.72c4.696,0,8.504,3.808,8.504,8.504v231.643
	c0,4.697-3.808,8.505-8.504,8.505H8.941c-4.696,0-8.504-3.808-8.504-8.505V9.477C0.438,4.78,4.245,0.973,8.941,0.973z"/>
<path d="M164.514,209.773c3.127-0.071,4.53-3.739,2.213-6.588c-0.336-0.416-0.37-0.654,0.246-0.255
	c1.559,1.086,4.549,0.372,4.703-2.949c0.188-4.093-5.301-5.271-6.331-0.92c-0.055,0.459-0.413,0.448-0.327-0.203
	c0.095-1.769,0.625-3.422,1.354-5.034c-1.239,0-2.479,0-3.719,0c0.729,1.612,1.26,3.266,1.354,5.034
	c0.086,0.651-0.271,0.662-0.326,0.203c-1.031-4.352-6.52-3.173-6.33,0.92c0.152,3.321,3.143,4.035,4.703,2.949
	c0.615-0.399,0.58-0.161,0.244,0.255c-2.316,2.849-0.914,6.517,2.214,6.588H164.514z"/>
<path d="M14.148,40.823c-3.127,0.071-4.529,3.739-2.213,6.588c0.336,0.416,0.37,0.654-0.245,0.255
	c-1.56-1.086-4.55-0.372-4.703,2.949c-0.188,4.092,5.3,5.271,6.331,0.92c0.055-0.459,0.412-0.449,0.326,0.203
	c-0.094,1.769-0.625,3.422-1.354,5.034c1.24,0,2.479,0,3.719,0c-0.729-1.612-1.26-3.266-1.354-5.034
	c-0.086-0.652,0.271-0.662,0.326-0.203c1.031,4.352,6.52,3.172,6.331-0.92c-0.153-3.321-3.144-4.035-4.704-2.949
	c-0.615,0.399-0.58,0.161-0.244-0.255c2.316-2.849,0.914-6.517-2.214-6.588H14.148z"/>
<path d="M14.064,12.008v2.754h2.672c0,0,0.064,2.655,0.088,8.288c0.02,5.47,0.132,8.183-0.217,9.74
	c-0.936,3.59-6.131,3.609-7.163,1.028c-0.601-1.502-0.44-2.669-0.468-4.181H6.104c0,0,0.018,0.761,0.021,1.692
	c0.016,4.037,1.352,5.968,4.475,6.729c3.213,0.869,6.969-0.456,8.305-3.204c0.795-1.566,0.703-1.674,0.723-11.145
	c0.012-6.318,0.107-8.948,0.107-8.948h2.461v-2.754H14.064z"/>
<path d="M164.596,238.589v-2.755h-2.672c0,0-0.064-2.655-0.088-8.287c-0.021-5.47-0.132-8.183,0.217-9.74
	c0.936-3.59,6.131-3.609,7.163-1.028c0.601,1.501,0.44,2.669,0.468,4.181h2.873c0,0-0.018-0.761-0.021-1.692
	c-0.017-4.037-1.352-5.968-4.475-6.729c-3.213-0.869-6.969,0.456-8.305,3.204c-0.795,1.566-0.704,1.674-0.723,11.145
	c-0.013,6.318-0.108,8.947-0.108,8.947h-2.46v2.755H164.596z"/>
<path fill="#E2CF00" d="M129.143,24.846c0.68-0.976,3.624,5.837,5.515,11c0.929,2.537,2.17,4.628,1.657,5.295
	c-1.346,1.369-4.832,0.145-7.367-1.811c-2.709-2.09-4.622-5.163-4.622-5.163L129.143,24.846z M152.905,29.896l0.107,4.006
	c-2.333,2.111-5.231,4.7-8.624,8.64l9.057,0.05c-0.08,49.232,0.072,147.904,0.072,147.904s-10.066-10.238-9.821-10.275
	c0.012-0.002-0.286-59.615-0.325-99.717c-0.078-0.189,5.264-0.199,5.604-2.823c0.224-1.733-5.603-1.494-5.694-1.61
	c0.012-18.025-0.054-30.75-0.054-30.75l-5.352-0.177L152.905,29.896z M121.46,48.455c0.778,1.556,2.017,7.537,2.965,7.395
	c4.352-1.449,5.755,5.001,1.251,5.333c-1.706,0.126-3.61-2.105-4.678-4.883C120.484,54.846,121.013,47.872,121.46,48.455z
	 M120.479,57.426c1.284,2.105,2.513,9.798,4.852,9.361c2.136-0.487,3.502,1.391,3.294,3.037c-1.095,4.622-8.92,0.23-10.974-0.834
	C118.668,66.668,120.105,60.881,120.479,57.426z M136.991,79.113c-1.791,4.068-1.31,7.409,0.21,11.501
	c-4.646,1.998-9.227,4.391-13.807,6.788c-0.027-0.011-0.227-16.038,1.289-23.356c0.522-1.114,2.404-0.225,3.491,0.318
	C131.116,75.758,134.276,77.325,136.991,79.113z M54.523,152.749c0.948,7.575,0.26,19.361-1.085,24.025
	c-0.517,1.578-11.285-5.54-12.063-6.026c2.121-3.945-0.778-13.115-0.463-11.473C41.66,158.751,54.275,151.983,54.523,152.749z
	 M59.15,184.186c-0.201,0.486-1.007,6.156-1.256,6.178c-0.817,0.071-2.016-5.553-4.1-7.408c-3.933,0.456-4.395-2.221-3.625-3.514
	c-0.19-0.568,1.271-1.803,2.635-1.685C56.195,179.087,60.77,180.265,59.15,184.186z M104.279,193.866l-2.97,16.649
	c-7.306,1.06-14.349,2.273-20.862,1.532c1.285-17.327,3.309-32.312,8.859-34.911l-11.501-9.287c0,0-12.771,7.993-12.041,7.874
	c0.314-0.086,0.563-6.8,0.75-17.656c-0.323-28.335-16.571-57.021-17.202-56.732c-0.345-0.23,13.842-1.344,24.039,3.064l0.458-37.521
	c0,0-5.054-2.532-5.99-3.704c-1.866-6.527,3.165-8.195,6.182-6.563c1.411-4.961,3.556-17.226,3.633-17.221
	c6.811-1.131,13.854-2.008,20.819-1.609c-1.168,5.771-1.908,10.163-2.284,15.967c-0.88,8.656-2.646,16.854-7.183,18.804
	c0.807-0.322,11.345,8.918,11.345,8.918l12.801-7.905c-4.136,27.002,2.935,53.228,15.136,74.441
	c-6.148,0.712-13.111,0.374-23.976-2.888c0,0,0.61,37.594,0.614,37.385C116.927,187.259,110.366,196.516,104.279,193.866z
	 M57.532,197.231c-0.045,0.382-0.22,4.629-0.22,4.629c-1.701-2.005-3.072-7.881-3.41-7.781c0,0-2.185,0.345-2.864-0.382
	c-2.216-2.37-0.037-5.169,2.177-4.646C55.418,189.621,57.84,193.407,57.532,197.231z M34.938,69.771c0,0,0.472,66.671,0.46,100.088
	c-8.403-0.132-6.754,4.555,0.111,4.062l0.022,30.811l4.552,0.159c0,0-8.567,8.98-13.999,14.715l-0.124-2.916l8.266-8.954
	l-8.559,0.014l-0.03-147.838L34.938,69.771z M49.232,224.623c-2.073,0.454-4.235-9.147-7.831-14.975
	c4.086-2.459,10.532,2.219,11.98,5.972C52.438,218.801,49.173,224.59,49.232,224.623z"/>
<path fill="#131F67" d="M154.639,230.561V20.036H24.023v210.524H154.639z M111.351,186.224c-0.177-0.339-0.467-0.828-0.467-0.828
	s0.315-0.081,0.535-0.226c15.137-5.63,31.33-18.172,31.612-18.541v13.883l10.019,10.606v37.62h-39.382l-11.545-19.407
	c0.693-5.084,2.492-14.926,2.492-14.926c1.059,0.257,4.634,0.595,6.564-2.188C112.102,190.889,112.594,189.078,111.351,186.224z
	 M37.554,142.927l-1.495,1.904l2.636-0.121l-1.811,1.974l2.917,0.067l-2.273,1.941l3.068,0.036l-2.281,1.909l3.36-0.152
	l-2.407,2.077l3.321-0.014l-2.478,2.09l3.25,0.045l-2.111,1.877l2.836,0.034l-3.205,2.263c-1.369-0.602-3.207-0.942-5.055-0.982
	l-0.038-15.237L37.554,142.927z M35.254,169.349c-7.495-0.025-9.098,4-0.039,4.641c-0.17,10.132,0.409,30.396,0.409,30.396
	l4.935,0.127c0,0-13.229,14.356-14.476,15.524c-1.13-48.259-1.08-160.306-1.08-160.306l10.108,10.168l0.111,31.682
	c3.383,3.446,5.321,8.472,7.335,11.728l5.528,2.7l-1.3,4.465l0.556,1.271l1.726-6.318l-6.047-2.889l-0.64-1.307l1.018-5.953
	l-5.723-1.974l-0.991-1.369l0.358-5.813l-1.201-0.365v-1.151l1.193,0.101l0.425-6.526l-1.618-0.477v-1.474
	c0.001,0.025,0.947-0.006,1.41,0.034c0.638,0.348,1.688,1.722,1.688,1.722l-0.571,7.248l7.255,1.462l0.54,0.769l-1.335,7.243
	l7.616,2.343c-0.781-1.934-1.817-3.743-2.68-5.646c1.046-0.305,2.139-0.373,3.197-0.601c0.285-9.787-0.045-19.97,0.258-29.174
	c6.131-0.445,3.254,0.142,5.92,0.101c1.044,0,1.89-0.851,1.89-1.9c0-0.67-0.345-1.259-0.868-1.598l1.057-0.38l1.848,2.102
	l-3.86,3.723l0.023,1.07l4.794-4.819l-2.075-2.408l1.234-0.645l1.894,2.005c0,0,4.075-4.192,3.821-4.27
	c-0.126-0.038-0.353-0.249-0.505-0.465c-2.902-6.299,1.058-9.308,5.844-7.565c1.217-5.796,2.377-11.027,3.333-17.031
	c3.577-1.358,20.397-2.143,20.583-1.831c0,0,0.426,0.409,0.444,0.612c-0.076,0.269,0.481-0.559,0.481-0.559
	c0-0.357,14.662,0.367,21.894,1.753c0,0,0.147,0.697,0.089,1.617c-0.119,1.845,0.023,1.827-1.646,1.559
	c-3.41-0.229-6.057,0.946-7.107,3.963c-0.59,1.69-0.313,3.213,0.586,7.733c0.873,4.39,0.883,3.916,0.779,4.51
	c-0.122,0.696-0.87,1.474-1.944,2.35c-0.81,0.661-0.891,1.908-0.239,1.218c0.449-0.657,1.237-0.892,1.944-1.26
	c1.659-0.873,1.604-1.716,0.624-5.321c-0.459-1.691-0.94-3.514-0.956-3.727c-0.049-0.662,0.188-0.392,1.177,0.291
	c0.633,0.466,1.362,0.851,2.013,1.233c1.986,1.064,1.105-0.102-0.806-1.381c-1.504-1.12-1.752-1.603-0.455-1.066
	c1.336,0.55,3.254,0.312,4.755-0.256c0.294-0.165,0.512-0.146,0.559,0.124c0.067,0.423-0.189,1.483-0.301,3.933
	c-0.28,6.194-1.731,12.797-5.829,16.613c-5.867,5.462-15.508,1.756-20.857-3.305l-0.578,0.885c3.591,3.03,9.814,6.811,15.877,6.076
	c-2.535,2.126-8.126,5.646-8.126,5.646c-3.834-2.796-6.662-5.586-10.871-8.613l-0.733,0.489l11.578,9.229l12.471-8.269
	c0,0-0.518,7.932-0.713,10.832l5.411-4.809l-4.173-6.213l4.423-4.576c0,0-0.747,0.105,0.069-1.307
	c1.246-2.539,1.998-6.63,2.572-10.784c-0.111-3.104,0.648-6.536,0.884-9.27c0.409,2.561,0.893,3.905,1.835,6.229
	c0.866,2.239,1.204,2.222,2.181,1.896c5.291-0.447,2.896,9.817-3.356,3.104c-0.275-0.285-0.727-0.633-0.748-0.566
	c-0.13,0.412,1.66,5.818,2.352,7.064c0.732,1.316,0.738,1.502,1.825,1.39c2.033-0.211,2.722,0.518,2.928,2.67
	c-0.271,4.069-4.65,2.351-7.456,1.1c-0.253-0.195,1.316,1.438,1.879,2.013c0.764,0.782,0.887,1.283,0.887,1.283l-0.166,2.16
	l-4.292,3.94l3.528,5.238l-0.146,1.873l-3.771,4.549l4.019,4.386l0.05,1.563l-3.266,4.37l4.377,3.529l0.212,1.407
	c0,0-2.81,5.228-2.734,5.418c0.063,0.159,4.743,3.408,4.743,3.408l0.471,2.199l-2.032,5.58l4.863,2.792l0.891,2.521l-1.369,5.17
	l5.044,2.342l1.438,2.912l-0.937,5.434l5.653,1.683l1.5,2.389l-0.196,4.777l1.385,0.144l-0.02,1.18l-1.543-0.012
	c0,0,0.12,0.176-0.05,2.536c-0.29,4.013-0.316,3.858,0.636,4.025c2.008,0.351,1.548,1.591-0.505,1.36
	c-0.315-0.035-0.581-0.062-0.806-0.104c-0.541-0.102-0.957-0.807-0.957-0.807l0.451-7.41l-7.23-1.214l-0.687-0.931l1.211-6.868
	l-6.787-1.974l-0.914-1.664l1.924-7.143l-6.841-3.025l-0.451-1.326l2.903-6.34l-6.286-3.071l-0.393-1.521l3.49-6.538l-7.247-5.301
	c0,0,0.194,0.519,0.482,1.384l5.746,4.126l-2.911,5.581c0,0-0.232-0.408-0.479-0.322c0.146,0.932,0.262,1.868,0.328,2.784
	l2.965,7.771l-9.594,6.487c4.11,2.489,9.298,2.406,14.06,3.34c0,0,0.209,0.666,0.567,1.264c1.386,2.234,2.632,5.076,4.178,8.007
	c-1.139,0.54-1.632,0.471-2.855,0.711c-1.692,9.556-3.368,20.549-6.066,28.867c-1.176,0-2.129,0.961-2.129,2.145
	c0,0.646,0.287,1.225,0.737,1.617c-0.264,0.075-0.542,0.15-0.837,0.221c-0.389,0.006-1.963-1.741-1.963-1.741l4.045-4.01
	l0.023-1.326c-1.613,1.689-5.16,5.336-5.16,5.336l2.137,2.257l-1.057,0.497l-1.731-1.916l-3.884,4.014l-0.995-0.683
	c1.309-1.728,2.16-2.29,4.119-4.331c-1.023-1.218-4.986-5.058-4.986-5.058l0.011,1.326l3.907,3.809l-3.799,3.812l-0.22,0.253
	c0,0-3.016-1.312-3.207-1.309c1.281,1.061,3.584,1.97,4.834,2.887c5.668,3.36,0.285,10.313-4.942,8.586
	c-0.149-0.561-2.883,14.666-2.575,15.506c-0.277,2.357-0.337,2.024,0.477,3.375c2.433,5.64,9.533,16.311,9.533,16.311l-63.891,0.411
	c0.665-1.305,1.336-2.363,1.841-3.887c0,0-3.591-3.761-4.903-8.705c-0.733-2.759-1.786-5.341-3.633-7.178
	c-0.028-0.065,0.065-0.147,0.178-0.225c5.052-1.79,10.809,2.543,12.578,7.487l2.898-4.751c-1.31-0.148,19.295,2.351,24.35,1.719
	c-0.448-0.089-0.977-0.462-0.679-1.888c0.515-2.459,1.431-11.344,1.431-11.344c1.016-8.645,1.799-19.507,7.473-23.1
	c0,0-0.869-0.93-1.619-1.404l0.691,0.791c-0.004,0.251-0.146,0.41-0.313,0.543c-1.202,0.979-2.668,3.01-2.615,3.063
	c-4.682-4.088-12.008-7.608-16.425-6.146c-1.742,0.367-2.516,2.056-3.44,0.687c1.2-7.437,1.119-15.617,0.652-22.043
	c-0.723-14.32-3.867-22.527-6.983-32.673c1.603-0.569,9.826-6.112,9.826-6.112c0.05-0.705-9.921-3.007-13.832-2.599
	c0,0-0.805-0.788-0.808-0.621l0.077,0.154c-0.58,0.325-0.972,0.949-0.972,1.664c0,1.049,0.842,1.9,1.886,1.9
	c0.195,0,0.386-0.03,0.563-0.086c0.491,1.212,0.91,2.272,0.91,2.272l-5.538-2.423l1.805-6.093l-0.605-1.354l-2.201,7.935
	l7.068,3.044l0.479,1.408l-2.931,6.019l6.32,3.765l0.267,1.198l-3.402,6.461l6.121,4.728l-4.478,5.816l5.511,4.654l-0.062,0.771
	l-4.566,5.285l4.721,4.879l0.131,1.974l-5.145,4.6l4.442,6.487c-1.852,1.251-2.886,2.678-4.1,4.099l-1.083-0.477l3.945-3.006
	l-4.216-6.123l-4.446,4.037l2.411,3.951l-1.47-0.67l-1.347-2.118l0.221-2.163l4.393-4.021l-3.775-5.499l-0.031-1.009
	c0,0,2.348-2.713,4.057-4.73l-4.785-5.31l3.914-5.021l-4.925-4.216l0.139,1.265l3.633,3.083l-2.788,3.397
	c-0.2,2.047,0.242,5.561-0.798,7.103c1.681,1.654,0.802,5.64-0.023,6.932c1.606,1.911,0.688,6.107-0.337,6.284
	c1.227,1.545,0.738,4.678-0.286,5.696c-0.328,0.176,4.377,1.882,7.345,3.932c-2.47,4.621-1.894,8.968-2.673,10.535
	c-1.068-3.101-2.436-6.398-3.617-8.772c-0.124-0.246-0.387-0.19-0.778-0.197c-4.908-0.439-4.44-4.507-0.761-5.549
	c0,0-7.483-5.604-11.276-6.225c-0.039-0.1-0.011-0.232,0.116-0.496c0.538-1.119,0.849-3.056,0.929-4.759
	c0.273-2.533-0.944-6.422-0.944-6.422l1.554-0.966c0.31-1.338,2.046-1.365,2.214-2.318c-0.367-4.095-8.318-19.773-9.997-21.546
	C34.647,146.038,35.862,158.183,35.254,169.349z M37.069,140.817l-1.289,1.065l0.03-1.693L37.069,140.817z M35.811,138.225
	l0.65,0.486l-0.654,0.729L35.811,138.225z M115.773,118.256c-0.121-0.771-0.264-1.535-0.421-2.284
	c0.915-0.24,1.589-1.076,1.589-2.07c0-1.184-0.956-2.145-2.133-2.145c-0.168,0-0.328,0.024-0.485,0.062
	c-0.335-1.181-0.657-2.198-0.906-2.947l-0.433-0.31c1.166,4.078-1.094,6.271,2.245,9.659
	C115.279,118.391,115.523,118.343,115.773,118.256z M46.877,228.875l-20.794-0.137v-7.717l16.023-17.13l-6.178-0.077l0.065-29.383
	c1.693-0.708,3.309-1.805,4.871-2.866l9.745,5.422l0.702,0.36c0,0-0.27,0.077-0.841,0.454c-1.103,0.727-1.523,2.513-1.022,3.854
	c0.818,2.194,2.51,1.798,3.918,1.803c1.171,0.909,2.172,3.948,2.993,5.977c0.38,0.881,0.742,1.556,0.837,2.066
	c0.087,0.473,0.084,0.886,0.084,0.886s-0.189-0.06-0.466-0.63c-1.553-3.288-5.181-4.877-7.107-1.768
	c-0.977,1.906-0.303,4.084,1.338,4.692c0.503,0.187,2.21-0.012,2.21-0.012c0.1-0.061,1.238,1.614,2.846,7.115
	c0.66,2.272,0.834,7.202,0.205,7.911c-1.065,1.3-1.34,3.125-2.241,4.437c-0.409,0.823-0.388,0.31-1.029-0.608
	c-2.188-3.132-6.036-5.56-9.557-5.406c-2.5,0.108-3.271,0.966-2.681,1.69c1.372,1.409,2.27,3.387,2.719,5.119
	c1.048,4.031,2.158,7.628,4.976,10.762L46.877,228.875z M57.433,209.732c-0.264-0.25-0.056-0.635-0.008-1.33
	c0.12-1.767,0.159-1.787,1.169-1.342c1.937,0.854,4.676,0.107,6.328-1.694c2.083-2.273,2.149-4.612,0.848-9.229
	c-1.485-5.194-1.449-5.88,0.332-6.941c1.071-0.918,2.169-2.841,1.759-2.835c-0.058,0.001-0.206,0.116-0.328,0.256
	s-1.101,0.932-1.854,1.45c-2.068,1.423-2.717,2.149-1.767,4.777c0.938,2.594,1.694,5.129,1.304,5.286
	c-0.187,0.075-0.9-0.77-1.342-1.024c-0.904-0.521-2.813-1.486-3.047-1.485c-0.323,0.003,0.021,0.235,0.952,0.85
	c2.49,1.645,3.51,3.133,1.107,2.191c-1.287-0.505-2.648-0.211-3.417,0.042c-0.896,0.295-1.363,0.592-1.458,0.252
	c-0.13-1.6-0.005-3.247,0.093-4.854c0.029-0.103,0.15-1.197,0.27-2.428c0.455-4.673,1.248-8.609,3.29-11.146
	c6.831-8.483,14.606-6.011,23.339,0.779c-3.257,9.074-3.032,16.146-3.837,19.025c-0.754,0.229-1.638-0.217-2.187-0.527
	c-1.217-0.695-2.601-1.114-3.93-1.187c-1.237-0.067-1.453,0.109-1.342-0.26c0.085-0.284,2.08-0.873,3.301-1.129
	c2.223-0.464,2.059-0.981,0.188-0.812c-1.969,0.179-3.868,0.965-5.884,2.313c-1.396,0.934-1.447,0.935-1.072,2.105
	c0.09,0.282,0.279,0.705-0.387,0.95c-0.689,0.256-0.592,0.539-0.2,0.854c0.097,0.077,0.345,0.096,0.444,0.175
	c0.124,0.098-0.01,0.537-0.008,0.597c2.541,2.162,7.023,2.214,10.707-0.005c0.184,0.067,0.375,0.356,0.195,0.754
	c-0.388,0.852-4.352,1.873-7.166,1.919c-1.283,0.021-1.534-0.143-3.467-0.736c-0.795-0.244-1.238-0.308-1.312-0.187
	c-0.164,0.276,0.122,1.1,0.733,1.54c2.063,1.486,5.068,1.368,9.17-0.268c2.196-0.876,1.967-1.177,1.258,3.18
	c-0.197,1.209-0.424,2.132-0.424,2.132S60.59,211.054,57.433,209.732z M60.387,205.641c-1.016-0.006-1.943-0.262-2.484-0.791
	c-0.79-0.879,0.04-1.154,1.297-0.675c1.606,0.614,3.435,0.265,4.851-0.62c0.909-0.567,1.104-0.264,0.34,0.551
	C63.463,205.091,61.869,205.65,60.387,205.641z M74.983,204.125c-1.771,0.012-3.392-0.308-4.058-1.059
	c-0.607-0.687-0.021-0.756,1.497-0.159c2.138,0.841,4.989,0.575,7.343-0.602c1.209-0.604,1.58-0.727,1.419-0.038
	C80.475,203.383,77.57,204.107,74.983,204.125z M60.826,203.57c-1.687-0.004-3.119-0.393-2.854-1.279
	c0.095-0.316,0.178-0.126,1.384,0.248c1.205,0.373,2.746,0.232,4.292-0.222c1.443-0.423,1.721-0.519,1.072,0.109
	C63.934,203.189,62.314,203.574,60.826,203.57z M57.391,202.718c-1.707-2.646-2.01-6.526-3.826-8.629
	c-3.361,0.629-4.952-2.549-2.124-4.665c1.438-0.804,3.191-0.198,4.48,1.923c1.229,2.021,1.567,3.246,1.606,4.528
	C57.416,198.569,57.567,200.011,57.391,202.718z M77.069,201.503l-0.744-0.089c-0.54-1.842-1.751-1.953-2.476-0.023l-0.563-0.093
	C74.142,198.933,76.287,198.835,77.069,201.503z M78.223,201.469c-0.311,0.018-0.568-0.312-0.706-0.745
	c-0.289-0.979,0.04-0.856,0.714-0.441c0.682,0.416,1.206,0.692,0.813,0.86C78.75,201.301,78.519,201.407,78.223,201.469z
	 M71.828,200.84c-0.257-0.32-0.314-0.566,0.016-0.799c0.324-0.171,0.563-0.278,0.876-0.392c0.3-0.091,0.483-0.019,0.358,0.415
	c-0.079,0.372-0.312,0.904-0.486,1.113C72.301,201.23,71.988,201.023,71.828,200.84z M62.801,201.065l-0.59-0.043
	c-0.619-1.685-2.065-1.636-2.623-0.175l-0.528,0.004C60.056,198.244,62.082,198.715,62.801,201.065z M63.865,200.844
	c-0.566,0.001-1.116-0.817-0.807-1.236c0.313-0.264,1.709,0.036,1.832,0.554C64.939,200.475,64.431,200.844,63.865,200.844z
	 M58.404,200.686c-0.273-0.065-0.256-0.273-0.263-0.307c-0.144-0.689,0.676-0.931,0.86-0.667
	C59.104,199.856,58.672,200.408,58.404,200.686z M71.398,193.31c1.381-0.389,2.023-1.589,1.937-2.928
	c-0.07-1.084-0.63-1.966-1.448-2.152c-1.648-0.376-2.789,0.781-4.474,1.248c-0.728,0.191-0.558,1.136-0.092,1.545
	c0.599,0.527,1.517,0.198,2.749-0.75c2.416-1.86,2.998,1.717,0.795,2.35C70.523,192.72,70.681,193.512,71.398,193.31z
	 M142.865,110.929l-0.939-0.271l0.938-1.118C142.864,109.539,142.86,110.505,142.865,110.929z M140.248,107.103l1.936-2.189
	l-2.63,0.199l1.784-1.863l-2.737-0.111l2.013-2.092l-2.691,0.055l1.989-2.021l-2.538-0.072l1.678-1.849l-2.793,0.216l2.038-2.211
	l-2.991,0.053l2.268-2.062l-2.984,0.021l0.896-1.026l-0.794-0.401c-0.813,0.38-5.492,1.844-5.646,2.945
	c1.033,0.279,4.076-1.278,4.277-1.02c1.221,5.412,6.482,17.381,9.953,20.871l0.243-33.823c0.531-0.495,1.378-0.25,1.919-0.469
	c1.76,0.092,4.701-2.865,3.164-3.452c-0.804-0.178-5.252-0.944-5.264-1.167c-0.546-9.804,0.336-19.659-0.07-30.124
	c-1.243-0.186-5.311-0.419-5.311-0.419s14.914-15.648,15.207-15.333c-0.349,16.771-0.166,49.559,0.127,49.68
	c-0.002,0.983-0.345,3.056-0.345,3.056l0.321,104.305c0,0,0.087,0.467,0.267,0.765c0.306,0.509,0.328,0.639,0.351,2.202
	c0.119,0.967-0.02,1.218-0.02,1.218l-10.203-10.835l-0.013-30.321c0,0-9.655-14.336-11.878-20.956
	c-4.873-9.858-4.346-24.225-7.3-29.725l-0.182,0.008c-0.071-0.802-0.08-1.124-0.196-1.249c-0.222-1.793-0.463-4.242-0.463-4.242
	l1.068-1.706l-1.191-1.536l-0.008-4.095l1.589-1.625l-1.454-1.854l0.404-3.824l1.135-1.016l-0.645-0.872c0,0-0.106-1.378,0.15-2.955
	c0.175-1.071,1.225-0.927,3.409,0.189c3.095,1.18,6.263,3.291,8.708,4.883c-0.146,1.99-2.598,6.53,0.813,11.536
	c1.262,0.95,4.925,0.602,5.245,0.745l-0.029,15.42 M142.83,108.733l-1.651,0.29l1.667-1.678L142.83,108.733z M64.2,185.709
	c0.135-0.016,0.304-0.143,0.521-0.389c0.229-0.259,0.596-0.188,1.523-0.132c0.994,0.061,1.246,0.033,1.901-0.205
	c0.747-0.271,0.763-0.271,1.28-0.051c0.81,0.347,1.316,0.387,2.06,0.175c0.913-0.26,1.489-0.189,2.052,0.089
	c0.57,0.282,0.75,0.226,0.948-0.294c0.083-0.219,0.488-1.065,0.675-1.354c0.609-0.937,0.462-1.093-0.813-0.698
	c-0.876,0.271-2.491,0.442-3.694-0.059c-0.914-0.381-2.003-0.259-3.305,0.311c-1.143,0.499-2.269,0.658-3.363-0.268
	c-0.638-0.539-0.604-0.131-0.439,0.985C63.728,185.067,63.855,185.749,64.2,185.709z M107.497,181.772
	c1.177,0,2.133-0.957,2.133-2.141s-0.956-2.145-2.133-2.145C106.939,177.954,106.651,181.687,107.497,181.772z M66.341,181.755
	c1.297-0.442,3.079-1.036,5.087-0.444c1.577,0.484,1.199-0.707-0.514-0.856c-1.19-0.104-1.109-0.104-0.181-0.978
	c0.782-0.736-0.198-0.683-0.733-0.225c-0.631,0.54-2.345,0.4-3.313-0.043c-0.424-0.194-0.471,0.613,0.035,0.791
	c1.273,0.447,0.968,0.481-0.422,0.936C65.787,181.053,65.768,181.951,66.341,181.755z M107.497,181.055
	c-0.673-0.254-0.253-2.738,0-2.85c0.782,0,1.419,0.64,1.419,1.427S108.279,181.055,107.497,181.055z M118.866,180.966
	c-0.544,0.187-0.926-0.722-0.926-1.334c0-0.787,0.634-1.427,1.415-1.427c0.957,0.938,1.132,1.985,0.024,2.575
	C119.221,180.841,119.049,180.903,118.866,180.966z M113.263,178.868l4.555-4.631l-4.47-4.553l-4.478,4.654L113.263,178.868z
	 M59.318,177.033c-0.652,0-1.181-0.534-1.181-1.19c0-0.655,0.528-1.187,1.181-1.187s1.184,0.531,1.184,1.187
	C60.502,176.499,59.971,177.033,59.318,177.033z M113.301,175.479c-0.652,0-1.18-0.534-1.18-1.19s0.527-1.187,1.18-1.187
	s1.181,0.53,1.181,1.187S113.953,175.479,113.301,175.479z M64.891,174.343l-3.263-4.417l3.999-3.606l-0.204,2.241
	c-0.882,0.16-1.55,0.939-1.55,1.873c0,0.811,0.504,1.499,1.215,1.772L64.891,174.343z M119.221,174.098l0.047-1.202l-4.111-4.095
	l4.068-4.246l-0.035-1.175l-5.063,5.421L119.221,174.098z M107.602,174.094l5.024-5.185l-4.847-5.324l-0.063,1.35l3.807,3.955
	l-3.88,3.874L107.602,174.094z M35.088,173.265c-1.023,0.001-1.899-0.336-2.167-1.009c-0.21-0.378-0.323-0.704-0.629-0.846
	c-0.597-0.274-1.407-0.085-1.446,0.117c-0.07,0.001,0.952,0.098,1.126,0.256c0.8,0.724,0.665,1.18-0.47,1.09
	c-0.366-0.017-1.388-0.032-1.41-0.435c-0.228-1.386,1.605-2.4,3.951-2.215c1.673,0.278,1.68-0.37,1.797-1.268
	c0.073-0.295,0.331-0.771,0.54-1.148c0.592-1.066,0.787-0.917,0.374-1.33c-0.4-0.524-0.918-1.176-0.91-1.787l0.019-5.622
	c0,0,3.509,0.016,4.729,0.902c1.278,2.344,2.146,7.397,0.271,10.172c-0.656,0.831-1.617,1.229-2.723,2.109
	C37.286,172.932,36.111,173.263,35.088,173.265z M54.93,172.632l0.127-1.624c0.892-0.153,1.573-0.93,1.573-1.869
	c0-0.834-0.537-1.539-1.28-1.796l0.112-1.412l2.603,3.758L54.93,172.632z M65.149,171.535c-0.385-0.216-0.645-0.627-0.645-1.102
	c0-0.559,0.357-1.035,0.856-1.202L65.149,171.535z M119.452,170.941c1.802-0.941,1.182-4.587,0-4.285
	c-1.177,0-2.129,0.961-2.129,2.145S118.275,170.941,119.452,170.941z M107.689,170.887c1.178,0,2.133-0.957,2.133-2.141
	c0-1.183-0.955-2.145-2.133-2.145C106.126,167.098,107.012,170.817,107.689,170.887z M55.111,170.344l0.185-2.338
	c0.414,0.207,0.698,0.636,0.698,1.133C55.994,169.705,55.623,170.185,55.111,170.344z M119.452,170.224
	c-0.782,0-1.415-0.636-1.415-1.423s0.633-1.427,1.415-1.427C119.919,167.281,120.215,169.978,119.452,170.224z M107.689,170.17
	c-0.948-0.078-0.16-2.506,0-2.851c0.783,0,1.42,0.64,1.42,1.427S108.473,170.17,107.689,170.17z M59.912,168.816l4.701-4.712
	l-4.644-5.146l-3.864,4.723L59.912,168.816z M113.375,167.921l4.508-4.669l-4.262-4.429l-4.496,4.773L113.375,167.921z
	 M143.031,165.365l-1.678-1.757l1.678-0.016V165.365z M60.278,165.19c-0.652,0-1.18-0.534-1.18-1.19s0.527-1.187,1.18-1.187
	s1.181,0.53,1.181,1.187S60.931,165.19,60.278,165.19z M113.397,164.547c-0.652,0-1.184-0.531-1.184-1.187
	c0-0.656,0.531-1.19,1.184-1.19c0.653,0,1.181,0.534,1.181,1.19C114.578,164.016,114.051,164.547,113.397,164.547z M107.57,163.158
	l4.982-5.177l-4.813-5.154l-0.065,1.222l3.856,3.901l-3.91,4.025L107.57,163.158z M119.286,163.15l-0.05-1.311l-3.999-3.986
	l4.203-4.25l-0.169-1.145l-5.168,5.375L119.286,163.15z M65.504,161.731l-3.605-3.606l3.594-4.025l0.004,2.09
	c-0.74,0.258-1.272,0.968-1.272,1.8c0,0.833,0.534,1.536,1.276,1.791L65.504,161.731z M55.563,161.545l-0.039-1.474
	c0.811-0.214,1.411-0.952,1.411-1.834c0-0.917-0.647-1.683-1.508-1.861l-0.03-1.167l2.854,3.164L55.563,161.545z M138.924,160.882
	c0,0-1.204-1.29-1.612-1.818c0.319-0.374,0.517-0.856,0.517-1.389c0-1.183-0.956-2.145-2.133-2.145c-0.338,0-0.656,0.083-0.94,0.226
	c-0.219-0.327-1.181-1.664-1.181-1.664l5.67,0.915L138.924,160.882z M107.598,160.025c1.177,0,2.133-0.958,2.133-2.141
	c0-1.184-0.956-2.145-2.133-2.145C105.458,156.178,105.879,159.922,107.598,160.025z M119.468,159.943
	c3.035-0.334,2.248-4.216,0-4.285c-1.177,0-2.129,0.962-2.129,2.145C117.339,158.986,118.291,159.943,119.468,159.943z
	 M55.508,159.412l-0.065-2.377c0.5,0.168,0.86,0.644,0.86,1.202C56.303,158.771,55.974,159.228,55.508,159.412z M107.598,159.308
	c-1.379-0.505-0.959-2.945,0-2.851c0.782,0,1.419,0.641,1.419,1.428S108.38,159.308,107.598,159.308z M119.468,159.227
	c-0.782,0-1.415-0.637-1.415-1.424s0.633-1.427,1.415-1.427C121.48,156.618,120.97,159.181,119.468,159.227z M65.5,159.091
	c-0.385-0.216-0.645-0.627-0.645-1.102c0-0.474,0.258-0.889,0.641-1.105L65.5,159.091z M136.864,158.481l-1.658-2.145
	c0.153-0.057,0.317-0.089,0.489-0.089c0.783,0,1.42,0.64,1.42,1.427C137.115,157.976,137.022,158.252,136.864,158.481z
	 M60.128,157.508l3.896-4.707l-4.786-4.27l-3.394,4.227L60.128,157.508z M113.355,156.942l4.777-4.879l-3.374-3.524l1.866,0.205
	l2.7,2.769l0.062-0.919l-1.469-1.69l1.567,0.054c0.567-0.885-2.966-0.911-4.964-1.252c-2.537-0.432-8.063-2.474-6.847-0.976
	l1.392,0.358l-1.314,1.583l0.016,1.202l2.275-2.451l0.771,0.179l-3.224,3.343l0.216,1.02l3.965-4.08l1.153,0.264l-4.03,4.135
	L113.355,156.942z M59.932,154.135c-0.652,0-1.181-0.531-1.181-1.187c0-0.656,0.528-1.188,1.181-1.188s1.184,0.531,1.184,1.188
	C61.115,153.604,60.584,154.135,59.932,154.135z M113.518,153.518c-0.652,0-1.181-0.53-1.181-1.187c0-0.655,0.528-1.187,1.181-1.187
	s1.18,0.531,1.18,1.187C114.697,152.987,114.17,153.518,113.518,153.518z M140.281,153.177c0,0,0.306-3.903,0.479-5.782
	l-6.175-1.659l-0.768,6.235L140.281,153.177z M142.973,152.882l-0.859-0.031l0.144-3.635l0.836,0.897L142.973,152.882z
	 M131.55,151.304c0,0-0.621-1.003-1.33-2.109c0.382-0.387,0.617-0.917,0.617-1.505c0-1.184-0.956-2.145-2.133-2.145
	c-0.216,0-0.425,0.032-0.621,0.093c-0.277-0.526-0.794-1.365-0.794-1.365l5.291,1.56L131.55,151.304z M65.308,150.904l-4.153-3.401
	l3.228-3.994l0.216,1.714c-0.728,0.265-1.25,0.965-1.25,1.788c0,0.987,0.751,1.797,1.709,1.889L65.308,150.904z M137.157,150.846
	c-0.652,0-1.18-0.53-1.18-1.187c0-0.655,0.527-1.19,1.18-1.19s1.185,0.535,1.185,1.19
	C138.342,150.315,137.81,150.846,137.157,150.846z M54.139,150.47c1.044,0,1.894-0.847,1.894-1.896c0-1.049-0.85-1.903-1.894-1.903
	C53.727,146.365,53.613,149.933,54.139,150.47z M54.139,149.834c-0.111-0.565-0.249-2.662,0-2.528c0.694,0,1.262,0.57,1.262,1.268
	C55.4,149.271,54.833,149.834,54.139,149.834z M129.818,148.569c-0.473-0.748-0.963-1.555-1.377-2.284l0.263-0.022
	c0.782,0,1.419,0.64,1.419,1.427C130.123,148.022,130.01,148.327,129.818,148.569z M64.976,148.244
	c-0.568-0.121-0.995-0.626-0.995-1.233c0-0.495,0.286-0.925,0.698-1.133L64.976,148.244z M59.35,147.131l3.509-4.734l-5.325-4.177
	l-3.017,5.181L59.35,147.131z M139.46,145.203l-3.969-1.167l0.748-4.083c0.063,0.238,0.285,0.669,0.583,1.183
	c-0.171,0.309-0.271,0.661-0.271,1.039c0,1.184,0.952,2.141,2.129,2.141l0.17-0.008C139.204,144.832,139.46,145.203,139.46,145.203z
	 M133.578,144.211l1.293-6.511l-5.971-2.416l-1.453,6.879L133.578,144.211z M58.67,144.16c-0.652,0-1.18-0.53-1.18-1.187
	c0-0.655,0.527-1.187,1.18-1.187s1.185,0.531,1.185,1.187C59.854,143.63,59.323,144.16,58.67,144.16z M138.35,143.56
	c-0.622-0.15-1.084-0.713-1.084-1.385l0.027-0.26C137.634,142.466,138.005,143.039,138.35,143.56z M53.604,143.382l3.2-6.063
	l-5.44-3.819l0.373,1.295l3.891,2.87l-2.262,4.17L53.604,143.382z M130.93,141.189c-0.653,0-1.181-0.534-1.181-1.19
	c0-0.655,0.527-1.187,1.181-1.187c0.652,0,1.18,0.531,1.18,1.187C132.109,140.655,131.582,141.189,130.93,141.189z M125.295,140.585
	l-1.269-2.222c0.522-0.391,0.863-1.014,0.863-1.719c0-1.183-0.956-2.144-2.132-2.144c-0.177,0-0.346,0.024-0.51,0.065l-0.918-1.958
	l5.542,2.438L125.295,140.585z M52.369,140.565c0.496,0.116,0.973-0.203,1.313-0.533c0.355-0.346,0.577-0.83,0.577-1.367
	c0-1.049-0.847-1.899-1.89-1.899C50.941,137.112,51.708,140.411,52.369,140.565z M63.834,140.042l-4.504-3.238l2.63-5.104
	c0,0,0.264,1.031,0.598,2.416c-0.64,0.305-1.084,0.959-1.084,1.719c0,1.049,0.847,1.899,1.89,1.899h0.023
	C63.564,138.565,63.722,139.367,63.834,140.042z M52.369,139.93c-0.783-0.24-0.518-2.447,0-2.528
	c0.686-0.108,1.257,0.566,1.257,1.264C53.626,139.363,53.063,139.93,52.369,139.93z M123.714,137.696l-1.153-2.463l0.197-0.016
	c0.782,0,1.419,0.641,1.419,1.427C124.177,137.062,123.997,137.436,123.714,137.696z M63.244,137.091
	c-0.639-0.06-1.138-0.598-1.138-1.256c0-0.458,0.244-0.856,0.605-1.078C62.887,135.492,63.069,136.295,63.244,137.091z
	 M57.301,136.443l3.086-6.131l-5.7-3.494l-2.622,5.93L57.301,136.443z M133.629,135.265l-3.514-1.605l0.991-3.646l0.429,0.892
	c-0.208,0.331-0.332,0.721-0.332,1.141c0,1.105,0.832,2.014,1.901,2.129L133.629,135.265z M128.079,133.535l1.724-6.131
	l-5.476-2.866l-2.499,6.17L128.079,133.535z M132.691,133.313c-0.46-0.234-0.775-0.713-0.775-1.268c0-0.097,0.013-0.191,0.031-0.283
	L132.691,133.313z M56.287,132.817c-0.652,0-1.184-0.534-1.184-1.19s0.531-1.187,1.184-1.187s1.18,0.53,1.18,1.187
	S56.939,132.817,56.287,132.817z M51.085,132.479l2.614-6.417l-6.003-3.33l0.452,1.17l4.437,2.575l-1.902,4.644L51.085,132.479z
	 M125.881,130.34c-0.652,0-1.18-0.531-1.18-1.187c0-0.656,0.527-1.188,1.18-1.188s1.18,0.531,1.18,1.188
	C127.061,129.809,126.533,130.34,125.881,130.34z M49.199,129.39c1.043,0,1.889-0.852,1.889-1.9c0-1.05-0.846-1.938-1.889-1.9
	C47.302,125.633,48.269,129.405,49.199,129.39z M120.012,129.176c-0.359-0.652-0.629-1.335-0.876-2.035
	c0.565-0.386,0.938-1.035,0.938-1.772c0-1.141-0.888-2.074-2.005-2.141l-0.24-0.031l-0.339-1.291l4.713,2.485
	C121.541,126.175,120.976,127.411,120.012,129.176z M49.199,128.754c-0.552-0.232-0.699-2.458,0-2.529
	c0.693,0,1.257,0.566,1.257,1.265S49.893,128.754,49.199,128.754z M60.814,128.017l-4.632-2.668l2.325-5.045l0.691,2.311
	c-0.5,0.343-0.83,0.917-0.83,1.571c0,1.041,0.834,1.888,1.867,1.899L60.814,128.017z M118.886,126.427l-0.737-2.467
	c0.749,0.039,1.211,0.646,1.211,1.408C119.359,125.79,119.176,126.166,118.886,126.427z M60.039,125.426
	c-0.59-0.104-1.037-0.617-1.037-1.24c0-0.363,0.15-0.688,0.394-0.919L60.039,125.426z M129.155,125.264l-3.583-2.106l1.616-4.203
	l0.471,1.516c-0.321,0.376-0.517,0.862-0.517,1.396c0,0.999,0.681,1.834,1.6,2.071L129.155,125.264z M54.37,125.178l2.171-5.852
	l-6.281-3.319l-1.57,5.987L54.37,125.178z M128.461,123.033c-0.365-0.257-0.605-0.684-0.605-1.167c0-0.172,0.033-0.336,0.089-0.488
	L128.461,123.033z M123.768,122.742l2.549-5.937l-5.303-3.514l-2.761,6.189L123.768,122.742z M52.399,121.777
	c-0.652,0-1.18-0.531-1.18-1.187c0-0.656,0.527-1.188,1.18-1.188s1.181,0.531,1.181,1.188
	C53.58,121.246,53.052,121.777,52.399,121.777z M46.186,119.168c0.528-0.341,0.842-1.002,0.842-1.68c0-1.05-0.846-1.907-1.89-1.9
	c-0.232,0.001-0.441,0.025-0.627,0.069C43.966,116.391,44.738,119.201,46.186,119.168z M122.183,119.338
	c-0.652,0-1.18-0.531-1.18-1.187c0-0.656,0.527-1.19,1.18-1.19s1.181,0.534,1.181,1.19
	C123.363,118.807,122.835,119.338,122.183,119.338z M44.857,116.28c0.078-0.041,0.172-0.062,0.28-0.057
	c0.693,0.033,1.257,0.566,1.257,1.265c0,0.397-0.182,0.752-0.468,0.984C44.842,119.291,44.683,116.117,44.857,116.28z
	 M115.202,115.27c-0.217-0.974-0.455-1.898-0.69-2.761c0.097-0.021,0.195-0.035,0.297-0.035c0.783,0,1.42,0.641,1.42,1.428
	C116.229,114.552,115.795,115.1,115.202,115.27z M49.364,114.572l1.644-6.581l-6.286-2.304l-1.204,6.228L49.364,114.572z
	 M125.997,114.482l-3.336-2.314c0,0,1.078-2.615,1.989-4.01l0.259,1.209c-0.552,0.388-0.914,1.028-0.914,1.757
	c0,1.049,0.746,1.922,1.735,2.106L125.997,114.482z M55.462,114.169c-0.694,0-1.254-0.563-1.254-1.261
	c0-0.457,0.136-0.646,0.498-0.868c0.276,0.624,0.655,1.242,0.999,2.082C55.603,114.148,55.572,114.169,55.462,114.169z
	 M125.561,112.432c-0.501-0.219-0.852-0.722-0.852-1.308c0-0.37,0.14-0.707,0.37-0.961L125.561,112.432z M120.551,111.47l3.027-5.29
	l-4.442-3.416l-3.471,5.293L120.551,111.47z M47.251,111.291c-0.651,0-1.18-0.534-1.18-1.19s0.528-1.187,1.18-1.187
	c0.653,0,1.185,0.53,1.185,1.187S47.904,111.291,47.251,111.291z M41.813,109.646l-0.771-1.202c0.24-0.317,0.386-0.713,0.386-1.144
	c0-1.05-0.85-1.9-1.894-1.9c-0.142,0-0.28,0.013-0.412,0.043l-0.621-0.966l3.941,1.419L41.813,109.646z M119.645,108.235
	c-0.651,0-1.18-0.53-1.18-1.187s0.528-1.187,1.18-1.187c0.652,0,1.185,0.53,1.185,1.187S120.297,108.235,119.645,108.235z
	 M40.664,107.855l-1.164-1.819h0.034C40.635,106.058,41.101,106.969,40.664,107.855z M113.98,107.773l4.288-5.72l-5.688-4.238
	l0.089,1.264l4.157,2.986l-3.162,4.234L113.98,107.773z M51.354,105.839l-5.661-1.788l1.211-5.646l1.334,2.23
	c-0.363,0.347-0.59,0.833-0.59,1.377c0,1.049,0.842,1.899,1.886,1.899c0.212,0,0.416-0.036,0.605-0.101L51.354,105.839z
	 M113.027,104.857c1.074-0.109,1.917-1.02,1.917-2.129c0-1.183-0.956-2.145-2.133-2.145c-0.542-0.064-0.62,0.769,0,0.718
	c0.782,0,1.419,0.64,1.419,1.427c0,0.756-0.586,1.372-1.326,1.42l0.104,0.709H113.027z M43.665,104.249l0.983-6.534l-6.414-1.377
	l-0.478,5.926L43.665,104.249z M123.853,104.09l-3.027-2.249l2.298-3.234l0.124,0.927c-0.548,0.389-0.906,1.031-0.906,1.757
	c0,0.928,0.587,1.711,1.407,2.009L123.853,104.09z M49.534,103.275c-0.694,0-1.253-0.566-1.253-1.264
	c0-0.312,0.111-0.594,0.297-0.814l1.223,2.047C49.715,103.263,49.625,103.275,49.534,103.275z M69.77,102.391
	c-0.168-0.038-0.408-0.077-0.359-0.178c0.052-0.105,1.076-1.237,1.076-1.237l-0.115-1.055l-1.82,2.075l-0.732-0.271l2.557-2.614
	l0.119-0.974l-3.405,3.362l-1.454-0.403l3.961-3.92l-4.563-4.65l-4.566,4.681l3.244,3.564l-1.604-0.151
	c-0.677-0.775-1.421-2.01-2.665-2.668l0.123,0.931c0.064-0.044,1.51,1.367,1.281,1.598l-1.277-0.093
	c-1.5,0.407,1.833,0.959,5.047,1.503c1.667,0.066,6.521,2.219,5.364,0.572L69.77,102.391z M123.633,102.434
	c-0.35-0.259-0.578-0.672-0.578-1.144c0-0.335,0.115-0.645,0.309-0.888L123.633,102.434z M41.316,101.298
	c-0.652,0-1.181-0.531-1.181-1.187c0-0.656,0.528-1.187,1.181-1.187s1.18,0.53,1.18,1.187
	C42.496,100.767,41.969,101.298,41.316,101.298z M118.92,101.182l3.688-4.712l-4.177-4.029l-4.277,5.041L118.92,101.182z
	 M36.129,99.976l-0.287-0.051V96.71l0.453,0.101L36.129,99.976z M64.91,98.482c-0.652,0-1.18-0.531-1.18-1.187
	c0-0.656,0.527-1.187,1.18-1.187s1.184,0.53,1.184,1.187C66.094,97.951,65.563,98.482,64.91,98.482z M118.35,98.145
	c-0.652,0-1.181-0.534-1.181-1.19c0-0.655,0.528-1.187,1.181-1.187s1.18,0.531,1.18,1.187
	C119.529,97.61,119.002,98.145,118.35,98.145z M112.657,97.21l4.763-5.708l-5.113-5.309l0.015,1.187l3.973,4.188l-3.722,4.362
	L112.657,97.21z M59.403,96.687l4.901-4.979l-4.887-5.092l-0.115,1.144l3.771,3.827l-3.532,3.669L59.403,96.687z M70.178,96.171
	l-0.008-1.354l-3.073-3.145l3.147-3.23l-0.02-1.373l-4.462,4.627L70.178,96.171z M45.068,95.578l-5.773-1.098l0.355-5.483
	l1.389,1.687c-0.237,0.318-0.379,0.713-0.379,1.141c0,1.049,0.847,1.896,1.891,1.896c0.298,0,0.578-0.071,0.828-0.194L45.068,95.578
	z M122.873,94.601l-2.846-3.01l2.719-3.09l0.022,1.051c-0.757,0.328-1.288,1.087-1.288,1.97c0,0.914,0.568,1.689,1.369,1.997
	L122.873,94.601z M112.321,93.841c0.946-0.219,1.655-1.069,1.655-2.087c0-1.017-0.709-1.871-1.655-2.09v0.748
	c0.548,0.198,0.941,0.725,0.941,1.342c0,0.618-0.394,1.141-0.941,1.338V93.841z M70.49,93.639c0.876-0.58,0.484-3.854,0-3.8
	c-1.043,0-1.886,0.851-1.886,1.899C68.604,92.788,69.447,93.639,70.49,93.639z M59.311,93.328c1.043,0,1.89-0.851,1.89-1.899
	c0-1.05-0.847-1.9-1.89-1.9C58.48,89.804,58.818,93.139,59.311,93.328z M42.55,93.084c-0.694,0-1.257-0.563-1.257-1.26
	c0-0.229,0.064-0.443,0.17-0.629l1.496,1.823C42.83,93.063,42.693,93.084,42.55,93.084z M70.49,93.003
	c-0.694,0-1.253-0.566-1.253-1.265c0-0.697,0.559-1.264,1.253-1.264C70.427,90.927,70.727,93.056,70.49,93.003z M122.834,92.712
	c-0.387-0.254-0.64-0.69-0.64-1.19c0-0.479,0.231-0.904,0.59-1.163L122.834,92.712z M59.311,92.692
	c-0.157-0.512-0.354-2.617,0-2.528c0.694,0,1.257,0.566,1.257,1.265C60.567,92.126,60.005,92.692,59.311,92.692z M65.025,90.851
	l4.602-4.604L64.93,81.42l-4.443,4.766L65.025,90.851z M118.099,90.603l4.118-4.472l-3.968-5.181l-4.655,4.661L118.099,90.603z
	 M140.428,90.439c-1.267-0.001-2.449-0.22-2.931-1.066c-1.94-2.612-1.383-7.978-0.039-9.822c3.019-2.755,4.726-3.484,8.13-2.854
	c-0.391,1.548,1.244,2.382,1.48,2.04c0.03-0.006,0.156-0.276,0.004-0.295c-1.173-0.145-1.08-1.552-0.941-1.559
	c1.297,0.041,2.139,0.019,2.271,0.6c0.082,0.357-0.127,0.911-0.883,1.533c-0.888,0.714-4.975,0.697-4.975,0.697
	c-0.016-0.006,0.01,1.169-0.401,1.842c-0.36,0.592-0.859,1.249-0.517,1.521c0.59,0.274,0.988,0.939,1.072,1.706
	c0.159,1.608-0.092,5.478-0.035,5.519C141.977,90.365,141.188,90.44,140.428,90.439z M65.033,87.453
	c-0.652,0-1.184-0.53-1.184-1.187c0-0.655,0.531-1.187,1.184-1.187s1.181,0.531,1.181,1.187
	C66.214,86.923,65.686,87.453,65.033,87.453z M118.068,86.992c-0.653,0-1.181-0.531-1.181-1.187c0-0.656,0.528-1.19,1.181-1.19
	c0.651,0,1.184,0.534,1.184,1.19C119.252,86.461,118.72,86.992,118.068,86.992z M59.406,85.875l4.81-4.933l-5.125-5.332l0.162,1.446
	l3.69,3.82l-3.609,3.784L59.406,85.875z M70.271,85.782l0.131-1.365l-3.405-3.599l3.094-3.195l0.046-1.551l-4.551,4.823
	L70.271,85.782z M122.923,83.921l-2.719-3.835l3.235-2.854l-0.084,1.09c-0.939,0.224-1.64,1.073-1.64,2.086
	c0,0.897,0.549,1.663,1.327,1.981L122.923,83.921z M112.742,83.164c0.063-0.795,0.106-1.438,0.146-2.023
	c0.881-0.263,1.527-1.085,1.527-2.056c0-0.861-0.509-1.603-1.238-1.942c0.059-0.614,0.135-1.295,0.243-2.148l3.251,4.781
	L112.742,83.164z M35.862,82.939l-0.111-13.414l-9.689-10.086V21.669h39.747l10.239,17.35c0.202,0.343,0.497,0.221,0.721,0.55
	l-3.035,16.3c-4.778-2.213-8.798,3.511-6.189,8.147C52.814,69.425,35.862,82.939,35.862,82.939z M59.38,82.866
	c1.044,0,1.89-0.848,1.89-1.896c0-1.05-0.846-1.904-1.89-1.904C58.02,79.692,58.709,82.84,59.38,82.866z M70.383,82.754
	c0.524-0.601,0.824-3.826,0-3.801c-1.043,0.032-1.891,0.854-1.891,1.904C68.492,81.906,69.339,82.754,70.383,82.754z M59.38,82.229
	c-0.994-0.735-0.092-2.355,0-2.528c0.694,0,1.257,0.57,1.257,1.269S60.074,82.229,59.38,82.229z M70.383,82.117
	c-0.694,0-1.254-0.563-1.254-1.26c0-0.698,0.56-1.265,1.254-1.265C70.308,79.803,70.698,82.032,70.383,82.117z M123.101,81.617
	c-0.401-0.251-0.671-0.698-0.671-1.21c0-0.592,0.357-1.099,0.867-1.314L123.101,81.617z M112.946,80.346
	c0.059-0.91,0.101-1.659,0.162-2.416c0.358,0.259,0.594,0.678,0.594,1.155C113.702,79.631,113.396,80.106,112.946,80.346z
	 M65.088,79.907l4.484-4.51l-4.67-4.879l-4.438,4.724L65.088,79.907z M118.438,78.736l4.697-3.793l-3.023-4.661l-1.053-0.636
	l-4.3,3.699L118.438,78.736z M137.295,78.422l-11.055-5.934c0,0,2.867-1.207,2.787-3.133c-0.113-2.154-1.397-3.914-3.944-3.254
	c-0.585,0.085-0.852-0.158-1.415-1.481c-1.079-2.531-2.145-5.313-1.729-5.228c1.356,1.089,1.154,1.149,2.75,1.869
	c2.978,0.825,4.789-1.96,3.849-4.215c-0.877-2.08-2.336-2.199-3.799-1.985c-0.214-0.05-0.396-0.286-0.54-0.559
	c-0.465-0.947-1.168-2.632-1.72-5.224c-0.85-3.997-1.04-8.999-0.42-10.257c0.856-1.74,2.04-4.096,2.04-4.096
	c2.306,4.42,7.33,8.293,12.977,6.922c0.19-0.119,0.229-0.743-0.027-1.108c-1.831-2.417-2.141-4.632-2.795-7.008
	c-1.678-6.09-5.064-9.575-5.018-8.953l1.773-3.231c0,0,15.353-0.076,21.637,0v7.419l-16.46,16.952l6.521,0.277l-0.226,29.224
	C140.098,75.92,137.295,78.422,137.295,78.422z M65.006,76.549c-0.651,0-1.18-0.531-1.18-1.187c0-0.656,0.528-1.19,1.18-1.19
	c0.652,0,1.185,0.534,1.185,1.19C66.19,76.018,65.658,76.549,65.006,76.549z M118.939,75.347c-0.652,0-1.184-0.531-1.184-1.187
	c0-0.656,0.531-1.19,1.184-1.19s1.18,0.534,1.18,1.19C120.119,74.815,119.592,75.347,118.939,75.347z M70.286,74.257l-0.116-1.171
	l-3.235-3.409l2.997-3.063c0.436-0.602,1.554-0.471,1.904-0.512c-0.242-0.749-0.913-0.656-1.6-0.946l-4.354,4.479L70.286,74.257z
	 M70.236,71.608c0.785-0.249,0.646-3.606,0-3.801c-1.044,0-1.891,0.852-1.891,1.9C68.346,70.758,69.192,71.608,70.236,71.608z
	 M59.141,71.093c-0.079-0.311-0.195-2.5,0-2.528c0.694,0,1.258,0.565,1.258,1.264S59.835,71.093,59.141,71.093z M70.236,70.973
	c-0.694,0-1.258-0.566-1.258-1.265s0.563-1.264,1.258-1.264C70.405,68.735,70.686,70.931,70.236,70.973z M109.141,70.363
	c0.188-0.071,0.446-0.026,0.651-0.027c0.656-0.001,1.471,0.466,1.65,0.381c0.205-0.098,0.136-0.53,0.125-0.724
	c-0.022-0.18-0.521-0.239-0.727-0.374c-0.33-0.219-0.24-0.295,0.135-0.384c0.333-0.079,0.602-0.101,0.813-0.404
	c0.132-0.188,0.144-0.518-0.081-0.515c-1.31,0.02-2.972,0.563-4.54,0.033c-0.895-0.322-1.479-0.521-1.622-0.398
	c-0.298,0.258,0.751,1.266,1.755,1.454c1.012,0.19,1.374,0.112,1.047,0.416c-0.17,0.157-0.398,0.096-0.415,0.209
	c-0.046,0.315,0.185,0.641,0.459,0.686C108.686,70.764,108.917,70.453,109.141,70.363z M103.506,67.199
	c0.106-0.002,0.26-0.077,0.467-0.244c0.597-0.399,1.532-0.934,3.787-0.311c1.239,0.41,2.63,0.052,3.439-0.178
	c0.632-0.178,1.536-0.353,2.26-0.02c0.708,0.341,1.482,0.859,1.338,0.325c-0.035-0.136-0.078-0.92-0.088-1.385
	c-0.023-1.093-0.098-2.006-0.883-1.147c-0.341,0.372-0.751,0.375-1.52,0.07c-0.549-0.218-0.934-0.365-1.357-0.086
	c-0.603,0.396-1.122,0.495-2.233,0.116c-0.527-0.18-1.08-0.195-1.747,0.218c-1.108,0.686-1.812,0.019-2.236-0.683
	c-0.337-0.556-0.506,0.236-1.127,1.885C103.286,66.547,103.187,67.203,103.506,67.199z M108.814,61.073
	c0.604-0.343,1.446-0.446,2.059-0.852c1.295-0.898,0.081-1.646-0.818-1.459c-0.367,0.085-0.794,0.269-1.266,0.584
	c-1.621,1.081-2.52,0.923-2.672-0.387c-0.166-1.416,2.003-2.055,1.801-2.712c-0.272-0.429-1.324,0.16-1.977,1.049
	C104.008,59.932,106.136,62.594,108.814,61.073z M100.42,53.645c2.198-0.25,5.508-1.318,7.17-2.574
	c1.306-1.022,1.663-1.278,1.11-1.687c-0.507-0.373-0.896-0.386-0.2-1.102c0.248-0.255,0.668-0.788,0.667-0.892
	c-0.007-0.513-3.109-2.034-4.89-2.272c-1.373-0.184-3.595,0.026-4.79,0.512c-1.577,0.641-1.63,1.077-0.14,0.638
	c1.162-0.344,2.566-0.603,3.949-0.502c1.246,0.09,2.466,0.472,3.236,0.749c1.905,0.685,1.573,1.483-0.352,0.803
	c-2.217-0.963-5.089-0.947-7.639,0.209c-1.029,0.467-1.318,0.834-1.505,0.675l-0.177-0.364c-0.065-0.17-0.071,0.436-0.162,1.396
	c-0.076,0.798-0.15,1.865-0.15,1.865s0.152-0.45,0.15-0.663c-0.021-1.395,0.652-1.401,2.557-0.333
	c2.237,1.235,3.325,1.115,5.452,1.103c0.932-0.006,0.974,0.265-0.337,0.699c-0.625,0.207-1.583,0.542-3.01,1.001
	C100.182,53.283,99.863,53.708,100.42,53.645z M117.285,50.83c-0.811,0-1.535-0.691-1.743-2.035l0.806,0.058
	c0.269,2.004,1.716,1.55,2.283,0.356l0.709-0.019C118.783,50.292,118,50.83,117.285,50.83z M115.226,50.706
	c-0.328,0.03-1.854-0.714-1.947-0.942c-0.103-0.251,0.479-0.521,0.987-0.671c0.585-0.172,0.465-0.197,0.649,0.151
	C115.173,49.73,115.626,50.687,115.226,50.706z M119.117,50.609c-0.017-0.216,0.447-1.004,0.782-1.105
	c0.396-0.12,0.707,0.406,0.382,0.675C119.99,50.331,119.178,50.918,119.117,50.609z M103.433,50.505
	c-1.025,0.042-1.979-0.999-2.06-2.23l0.517,0.012c0.479,2.563,2.438,1.983,2.877,0.155l0.609,0.175
	C104.868,49.939,104.134,50.476,103.433,50.505z M105.445,50.322c-0.28,0.019-0.244-0.21,0.093-0.892
	c0.159-0.321,0.272-0.504,0.552-0.493c0.379,0.057,0.632,0.18,0.825,0.481c0.132,0.299-0.177,0.531-0.833,0.74
	C105.781,50.255,105.573,50.313,105.445,50.322z M101.138,50.133c-0.18-0.002-0.507-0.117-1.021-0.346
	c-1.316-0.583-1.472-0.824-0.783-1.155c0.306-0.147,0.56-0.259,0.764-0.326c0.617-0.206,0.598,0.141,0.764,0.57
	c0.094,0.242,0.207,0.463,0.327,0.722C101.355,49.958,101.361,50.134,101.138,50.133z M120.424,47.961
	c-0.219,0.001-0.693-0.289-1.646-0.633c-1.369-0.491-2.749-0.311-4.566,0.271c-0.749,0.24-1.005,0.392-0.709-0.046
	c0.234-0.347,1.511-0.981,2.553-1.241c1.952-0.486,4.53,0.437,4.531,1.442C120.571,47.9,120.523,47.96,120.424,47.961z
	 M113.965,46.305c-0.199-0.004-0.006-0.303,0.408-0.768c0.642-0.72,1.621-1.215,2.619-1.393c2.1-0.373,3.84,0.202,3.856,1.385
	c0.013,0.852-0.136,0.863-1.173,0.326c-0.88-0.457-2.857-0.567-4.45-0.051c-0.523,0.139-1.061,0.46-1.153,0.484L113.965,46.305z
	 M97.821,45.161c1.594-0.423,3.285-0.849,4.832-1.148c1.657-0.326,4.072-0.026,5.333,0.598c0.932,0.461,1.259,0.189,0.85-0.706
	c-0.268-0.584-0.672-1.197-1.867-1.617c-1.736-0.609-5.805,0.38-8.827,1.951C96.384,45.023,96.721,45.499,97.821,45.161z
	 M124.064,33.12l-2.72,4.646c-18.417-3.586-38.344-0.981-44.442-0.133c0,0-6.659-11.079-9.054-14.968
	c-0.226-0.414-0.845-1.815-0.845-1.815l62.884,0.051c-0.88,1.78-1.716,4.082-1.716,4.082c1.921,0.774,3.412,3.661,4.334,6.097
	c0.811,2.138,2.212,7.357,4.058,9.901C133.336,42.82,125.221,38.714,124.064,33.12z"/>
<path fill="#D40000" d="M67.539,21.371l62.283-0.001l-8.115,16.312c-15.141-2.306-30.066-2.018-44.82,0.329L67.539,21.371z
	 M152.686,34.59l0.131,7.819l-8.067-0.18L152.686,34.59z M84.589,87.169L84.5,110.901c-3.217-2.282-6.433-4.569-9.743-6.382
	l0.128-24.557L84.589,87.169z M111.737,92.361c0.571,13.421,2.517,18.66,3.776,25.463l-11.549,7.507l-0.034-27.55L111.737,92.361z
	 M143.313,115.903l-0.065,33.053c-10.616-15.354-17.324-30.949-19.175-52.003c2.887-1.17,5.703-2.463,8.663-3.507
	C135.761,101.745,139.368,109.175,143.313,115.903z M35.812,102.294c9.812,12.534,15.658,29.233,18.746,49.806l-8.981,4.384
	c-2.98-7.263-6.006-14.979-9.777-21.006L35.812,102.294z M74.146,124.462L74.109,152.1l-7.668,5.007
	c-0.478-9.716-2.01-18.794-3.781-25.524L74.146,124.462z M94.328,139.016c2.837,2.146,5.791,4.12,9.065,5.621l-0.479,24.521
	l-8.656-6.702L94.328,139.016z M33.486,208.103c0,0-5.398,5.514-7.401,7.304l-0.044-7.486L33.486,208.103z M101.469,211.672
	l10.066,17.273l-63.098,0.532l8.106-17.393C73.254,215.157,87.551,213.77,101.469,211.672z"/>
<path d="M72.551,56.306c-0.146-0.046-2.096,1.281-3.107,3.235c-1.094,2.16-0.104,4.282-0.43,4.29
	c-2.014-0.604-1.434-4.464-0.733-5.66c0.595-1.04,1.731-1.74,2.907-1.94C72.349,56.032,72.551,56.306,72.551,56.306z M69.27,64.744
	c0.405-0.006,0.582,0.063,0.848,0.341c0.372,0.388,0.816,0.646,1.054,0.612c0.318-0.046,0.464,0.012,0.466,0.183
	c0.002,0.14-0.139,0.163-0.663,0.116c-0.318-0.028-0.991,0.479-0.991,0.479l-0.007,36.482c-2.853-1.189-7.117-1.874-10.394-2.265
	l-0.22-32.519c0,0-4.807,2.532-6.552,3.543l-0.063,29.108l-3.405,0.374l5.377,10.987c0.756-0.584,11.34,0.41,13.982,2.14
	l-9.658,6.059c0.982,3.009,1.874,5.884,2.694,8.931c0.025,0.093,0.204,0.084,0.229,0.177c0.198,0.743,0.34,1.078,0.526,1.826
	c0.035,0.14-0.021,0.367,0.019,0.506c2.08,7.207,3.5,16.758,3.788,25.308l-0.337,0.011l0.062,5.224l0.343-0.229l-0.034,2.364
	l-0.349,0.346c-0.008,0.459-0.04,1.323-0.04,1.323l0.447,0.281l-0.231,3.96l-0.46,0.068l-0.252,6.27l12.229-7.961
	c0,0,7.981,5.747,11.473,8.728c-3.841,2.626-4.86,7.747-5.812,11.996c-0.974,4.205-1.293,7.678-1.569,11.196
	c-0.304,3.878-0.943,8.837-1.454,11.28c-0.309,1.477-0.298,1.639,0.135,1.664c0.149,0.009-0.004,0.057-0.343,0.108
	c-7.843,0.315-16.264-0.858-23.742-1.837c0,0-1.85,3.467-2.492,4.744c0,0-0.376-1.173-0.776-1.988
	c-0.909-1.729-2.984-3.564-4.76-4.553c-0.662-0.438-2.567-1.08-3.855-1.299c-0.758-0.126-1.979,0.115-2.881,0.477
	c-0.311,0.131-0.554,0.294-0.556,0.458c-0.003,0.166,0.241,0.333,0.556,0.632c0.267,0.255,0.623,0.748,0.794,1.098
	c0.543,1.109,1.372,2.971,1.836,4.712c1.304,3.464,2.271,7.645,5.267,9.487l-2.067,4.158l65.086-0.018l-10.071-17.057
	c0,0-0.305-0.508-0.404-0.688c-0.298-0.538-0.42-0.462-0.42-0.462c0.656-5.964,1.588-11.835,2.822-17.605
	c0,0,0.131,0.461,2.043,0.434c5.598-0.081,7.558-6.337,2.877-9.105c-0.441-0.264-1.191-0.769-1.932-1.16
	c-0.213-0.11-2.896-1.694-2.896-1.694l3.216,1.455l0.232-37.534c0,0,6.707,2.026,11.128,2.217l-0.044,32.545l6.175-3.352
	l0.279-29.096l3.383-0.22c0,0-1.281-2.741-1.566-3.317c-0.571-1.154-2.01-3.719-2.992-5.34c-0.348-0.573-1.16-1.85-1.16-1.85
	c-4.508-0.12-9.119-0.801-13.311-2.674l9.7-6.347c-4.052-11.479-9.104-28.275-6.289-55.386l-0.679,0.434l-0.188,2.921l-12.075,8.356
	L85.446,73.243c0,0,1.081,0.029,1.323,0.04c3.8,0.135,6.476-3.772,7.394-7.035c1.618-5.75,1.83-7.169,2.575-16.288
	c0.295-3.605,1.004-7.085,1.728-10.521c0.382-1.728,0.325-1.899,0.325-1.899c-7.577-0.243-15.49,0.563-21.426,1.881
	c0,0-2.506,11.959-3.398,17.035c-0.845-0.486-1.595-0.699-2.354-0.683C65.737,56.416,66.24,64.517,69.27,64.744z M95.42,228.687
	l-3.08-10.866l7.543-0.701l6.263,11.478L95.42,228.687z M49.048,228.838l7.755-16.54c16.267,2.296,25.656,2.514,44.538-0.175
	l9.815,16.492l-2.583,0.022l-7.4-13.167l-10.991,1.102l3.037,12.049l-2.904,0.091l-3.005-11.825l-17.013,0.092
	c-0.551,3.961-1.619,11.709-1.619,11.709l-3.141-0.035l2.093-11.972l-10.049-1.267l-5.807,13.383L49.048,228.838z M70.866,228.686
	l0.991-10.058l14.072-0.108l2.251,10.172L70.866,228.686z M53.815,228.878l4.777-11.937l6.962,0.935l-1.901,10.836L53.815,228.878z
	 M45.232,217.182c-0.31-1.02-0.624-2.019-0.698-2.223c-1.136-3.095-1.604-4.117-2.345-5.146c-0.123-0.17-0.16-0.15,0.02-0.296
	c3.419-1.681,9.6,2.455,11.088,6.243c-0.188,0.366-1.014,1.903-1.014,1.903c-0.432-0.847-0.108-1.684-0.392-2.443
	c-0.069-0.324-0.776,2.19-0.776,2.19s-0.683-1.116-0.766-3.263c-0.013-0.331-0.888,1.439-0.888,1.439
	c-1.101-1.489-1.038-4.072-1.038-4.072c-1.24,1.514-0.467,2.381-2.383-1.476c-0.221,0.4-0.113,0.827-0.403,0.714
	c-0.842-0.327-2.024-0.92-2.455-0.801c0.562,0.707,1.651,1.08,1.95,2.019l-0.92-0.03c0.979,0.535,1.919,0.997,2.654,2.026
	c-0.219,0.081-1.104-0.071-1.066,0.022c1.326,1.204,3.314,2.177,0.438,1.904c1.87,1.323,3.954,2.236,0.706,2.138
	c2.316,1.101,2.941,1.779,2.51,1.966c-0.243,0.105-0.937-0.313-2.04,0.041c1.861,0.764,2.629,1.112,2.702,1.364
	c0.09,0.305-0.794,0.472-1.4,1.132c0,0,0.749-0.172,1.077,0.178c0,0-0.364,1.055-0.645,1.663
	C46.778,222.213,45.847,219.151,45.232,217.182z M25.267,221.38c0,0,10.472-11.345,15.657-16.974l-5.066-0.075l-0.232-30.719
	c-1.765-0.238-4.826-0.005-5.984-1.187c-0.72-1.07,2.064-3.175,3.632-2.732c1.046,0.284,2.338,0.059,2.338,0.059l-0.106-34.229
	c3.343,6.24,5.898,10.189,9.6,21.024c-1.072,0.75-2.175,1.328-2.359,1.455c1.423,3.449,2.406,8.874,0.421,13.602l-1.369-0.82
	c1.004-2.885,1.374-7.151-0.268-11.095l-0.376,0.397c0,0,0.406,0.787,0.667,1.655c0.232,0.774,0.567,1.773,0.57,2.808
	c0.065,1.833,0.011,3.408-0.42,4.879c-0.148,0.479-0.36,1.195-0.471,1.415s-0.217,0.424-0.216,0.484
	c4.028,1.642,6.916,4.042,10.389,5.759c0.133,0.065,0.242,0.12,0.33,0.17c0.439,0.246,0.324,0.331-0.364,0.606
	c-1.45,0.58-2.041,1.283-2.009,2.698c0.045,2.013,1.115,2.797,3.455,2.664c0.85-0.048,0.905-0.035,1.057,0.257
	c0.354,0.683,1.576,3.397,1.577,3.505c0.001,0.064,0.256,0.675,0.567,1.357c0.48,1.089,1.035,2.212,1.262,3.349
	c0.114,0.565,0.439,0.787,0.523,0.204c0.619-4.332,1.188-6.619,2.303-9.222c0.33-0.775,0.581-1.427,0.555-1.451
	c-0.107-0.095-1.97-0.965-2.842-1.326c-3.402-1.407-4.949-2.276-4.424-2.485c0.365-0.146,0.497-0.4,0.59-1.129
	c0.244-1.907,0.217-2.883-0.1-3.486c-0.333-0.633-0.326-0.678,0.22-1.035c0.473-0.31,0.371-0.311,0.499-1.904
	c0.152-1.891,0.049-3.093,0.049-3.093l-0.848-1.094l0.862-1.078l0.198-4.953l-1.164-0.888l1.089-1.08l-0.389-4.517
	c0,0,0.143-0.417,0.331-0.624c-1.843-19.102-8.963-38.352-19.627-51.472l-0.106-31.38L24.815,59.165L25.267,221.38z M26.085,219.359
	v-2.474l8.876-9.611l-8.876-0.155v-2.096l13.625,0.026L26.085,219.359z M26.222,215.161l-0.022-6.927l6.635-0.008L26.222,215.161z
	 M87.09,211.671l-1.383,0.058c0.054-1.396,0.604-7.843,1.262-13.488c0.742-6.364,2.26-11.855,2.551-11.855l1.336,0.814
	C88.643,194.501,88.054,203.898,87.09,211.671z M80.813,211.87c0.195-3.94,1.017-6.696,1.267-11.356
	c0.312-5.69,1.284-12.775,3.83-18.652c0.857-1.979,2.441-3.838,4.665-4.715c3.897-1.537,7.206,3.321,4.571,6.894
	c-2.082,2.824-5.343,2.788-6.332-0.069c-0.818-2.361,1.81-5.326,3.906-4.405c1.457,0.64,1.086,3.28-0.552,3.901
	c-0.678,0.257-1.253-0.608-0.918-1.385c0.264-0.611,0.292-0.993-0.065-0.733c-1.479,1.049-0.365,3.55,1.473,2.614
	c2.451-1.247,2.038-4.914-0.431-5.074c-3.125-0.309-5.536,3.562-7.08,10.91c-1.694,8.225-1.272,15.588-2.896,22.046L80.813,211.87z
	 M84.807,211.732l-1.643,0.049c0.131-0.61,0.154-1.262,0.267-2.009c0.647-4.314,1.03-10.612,1.694-15.548
	c0.937-6.965,2.614-11.198,2.657-10.683c0.187,0.845,0.718,1.529,1.124,2.198c-1.692,4.631-2.376,8.845-2.811,12.813
	C85.588,203.19,85.445,207.492,84.807,211.732z M91.829,211.333l-1.441,0.074c0.562-9.233,1.907-17.604,2.702-21.198
	c0.246-1.083,0.328-1.553,0.533-1.643c0.227-0.1,0.604,0.267,1.522,0.779C93.748,189.147,92.627,205.045,91.829,211.333z
	 M89.582,211.466l-1.565,0.153c0.232-3.338,0.792-8.586,1.42-13.317c0.759-5.721,1.753-10.79,2.248-10.715l1.305,0.454
	C92.116,187.767,89.966,204.834,89.582,211.466z M92.551,211.303c1.022-6.99,1.12-15.158,3.238-21.685l1.465,0.686
	c-0.401-0.132-1.443,4.246-1.796,9.2c-0.308,4.313-1.081,9.006-1.311,11.605L92.551,211.303z M94.967,211.046
	c0.583-2.468,0.583-6.105,1.02-9.14c0.541-3.757,1.117-11.387,1.981-11.212l1.496,0.763c-0.785-0.237-2.155,14.219-2.987,19.353
	L94.967,211.046z M98.907,210.435l-1.519,0.207c0.73-5.645,2.054-18.804,2.836-18.902l1.424,0.76
	C101.094,194.811,99.688,202.671,98.907,210.435z M99.852,210.215c0.629-6.204,1.22-12.487,2.535-17.312l1.558,0.706
	c0,0-1.081,5.307-1.594,9.033c-0.507,3.679-0.584,4.203-0.745,5.162c-0.355,2.113-0.453,2.192-0.453,2.192L99.852,210.215z
	 M33.115,203.855l0.149-29.791l1.728,0.066l-0.07,29.771L33.115,203.855z M29.035,203.62c-0.652,0-1.181-0.531-1.181-1.187
	c0-0.656,0.528-1.19,1.181-1.19s1.18,0.534,1.18,1.19C30.215,203.089,29.688,203.62,29.035,203.62z M56.859,192.688
	c-1.223-2.25-2.161-3.074-3.238-3.505c-1.944-0.776-4.625,1.136-3.649,3.812c0.513,1.407,1.814,1.616,3.466,1.336
	c0,0,0.711,0.508,1.547,3.058c0.991,3.018,2.546,6.122,2.546,6.122C57.629,199.726,58.514,195.784,56.859,192.688z M27.288,200.855
	c-0.652,0-1.185-0.531-1.185-1.188c0-0.655,0.532-1.187,1.185-1.187c0.651,0,1.18,0.531,1.18,1.187
	C28.468,200.324,27.939,200.855,27.288,200.855z M30.527,200.809c-0.652,0-1.18-0.531-1.18-1.187c0-0.656,0.527-1.19,1.18-1.19
	s1.184,0.534,1.184,1.19C31.711,200.277,31.18,200.809,30.527,200.809z M57.001,201.094c-1.096-2.285-1.327-4.005-2.39-6.075
	c-0.466-0.903-0.884-1.678-0.884-1.678c-3.471,1.642-4.806-2.492-1.991-3.812c2.771-1.299,5.891,3.637,5.588,8.952
	C57.24,199.946,57.001,201.094,57.001,201.094z M28.973,198.009c-0.652,0-1.18-0.531-1.18-1.187c0-0.656,0.527-1.19,1.18-1.19
	c0.653,0,1.181,0.534,1.181,1.19C30.153,197.478,29.626,198.009,28.973,198.009z M25.847,195.778v-2.538l6.169-6.02v2.455
	L25.847,195.778z M106.97,193.824c-1.179-0.016-1.745-0.366-0.964-0.679c2.59-1.034,3.741-2.683,3.884-5.564
	c0.007-1.457-0.167-1.647,0.725-0.835C112.892,189.95,109.61,193.844,106.97,193.824z M104.805,192.782
	c-0.287,0.011-0.572-0.026-0.856-0.116c-0.694-0.22-0.44-0.235,0.73-1.017c2.23-1.489,2.91-2.948,3.009-5.93
	c0.028-0.449-0.064-0.822-0.026-1.01c0.031-0.144,0.204-0.097,0.308-0.092c0.426,0.071,0.688,0.524,0.812,0.907
	C110.194,188.365,107.579,192.677,104.805,192.782z M102.388,191.796c-0.192,0.002-0.36-0.028-0.497-0.097
	c-0.546-0.274-0.345-0.313,0.655-1.03c1.773-1.271,2.651-3.14,2.856-5.228c0.133-1.339-0.895-2.932,0.924-1.619
	c1.278,1.066,1.023,3.839-0.333,5.741C105.157,190.737,103.425,191.783,102.388,191.796z M25.847,192.376v-2.89l6.169-5.894v2.959
	L25.847,192.376z M100.406,190.869c-0.7-0.007-1.015-0.459-0.196-0.977c1.997-1.263,3.198-3.672,3.081-6.186
	c-0.113-1.519-0.17-1.791,0.795-0.787c1.554,1.616,0.458,6.005-2.553,7.647C101.123,190.783,100.725,190.873,100.406,190.869z
	 M98.363,190.028c-1.151,0.027-1.311-0.557-0.282-1.28c1.964-1.379,3.274-3.807,3.243-6.015c-0.015-1.025,0.065-1.153,0.518-0.807
	c2.268,1.741-0.164,7.817-3.236,8.086L98.363,190.028z M57.789,189.838c-0.282-0.021-0.785-1.024-1.574-3.126
	c-0.76-2.025-1.987-4.58-2.248-4.677c-0.08-0.029-0.426,0.092-0.768,0.271c-2.589,1.366-4.41-2.51-1.858-3.951
	c1.815-1.025,3.528,0.074,5.109,3.284c1.864,3.785,2.374,6.595,1.474,8.109L57.789,189.838z M96.257,188.807
	c-0.312,0.014-0.614-0.046-0.898-0.194c-0.67-0.349-0.573-0.607,0.455-1.214c1.06-0.625,1.478-1.016,2.087-1.942
	c0.949-1.445,1.109-2.001,1.11-3.862c0-1.518,0.448-1.602,1.35-0.252C101.914,183.666,98.799,188.693,96.257,188.807z
	 M93.673,187.445c-1.016,0.022-1.686-0.395-0.713-0.911c3.095-1.645,4.395-4.006,3.802-6.911c-0.186-0.91,0.85-0.139,1.478,1.102
	c0.918,1.812-0.775,5.314-3.085,6.383C94.67,187.332,94.135,187.435,93.673,187.445L93.673,187.445z M58.753,184.773
	c-0.194-0.014-0.419-0.531-0.914-1.808c-0.323-0.831-0.756-1.825-0.964-2.21c-0.209-0.385-0.354-0.746-0.32-0.803
	c0.174-0.292,1.608,0.205,2.09,0.726c0.745,0.804,0.981,2.601,0.479,3.629C58.976,184.607,58.869,184.781,58.753,184.773z
	 M29.035,182.582c-0.652,0-1.181-0.53-1.181-1.187c0-0.655,0.528-1.19,1.181-1.19s1.18,0.535,1.18,1.19
	C30.215,182.052,29.688,182.582,29.035,182.582z M150.155,180.667c-0.652,0-1.181-0.535-1.181-1.19c0-0.656,0.528-1.188,1.181-1.188
	s1.18,0.531,1.18,1.188C151.335,180.132,150.808,180.667,150.155,180.667z M101.359,180.31c-1.29,0.046-1.688-0.566-1.905-2.536
	c-0.148-1.352-0.438-1.478-2.553-1.12c-2.232,0.377-2.979-0.232-3.14-2.556c-0.126-1.844-0.11-1.829-2.649-1.846
	c-2.499-0.018-2.767-0.271-3.054-2.847c-0.214-1.913-0.143-1.86-2.6-1.827c-2.723,0.037-2.967-0.165-3.15-2.586
	c-0.15-1.963-0.279-2.089-1.998-1.947c-1.685,0.14-4.791,0.155-5.372,0.027c-1.448-0.317-1.509-0.258-1.82,1.706
	c-0.41,2.587-0.919,2.91-4.08,2.591c-1.555-0.157-1.734-0.125-1.954,1.25c-0.295,1.833-0.66,2.37-0.66,0.782
	c-0.002-4.012,0.274-4.199,2.938-3.485c2,0.536,2.031,0.124,2.241-1.813c0.185-1.706,0.471-2.406,1.095-2.679
	c0.485-0.213,2.118-0.031,2.773,0.155c0.248,0.071,1.802,0.109,3.641,0.09c4.43-0.047,4.476-0.058,4.473,3.071
	c-0.002,1.316,0.285,1.6,2.604,1.529c2.909-0.088,2.757-0.166,3.251,3.346c0.173,1.217,0.269,1.264,2.677,1.229
	c2.623-0.038,3.221-0.076,3.065,2.147c-0.14,2.021,0.349,2.551,2.538,2.039c2.331-0.546,2.777,0.449,3.005,2.257
	c0.21,1.674,0.352,1.255,1.465,1.342c1.233,0.097,1.089,1.492-0.22,1.621C101.744,180.273,101.543,180.304,101.359,180.31z
	 M27.211,179.701c-0.652,0-1.181-0.531-1.181-1.187c0-0.656,0.528-1.187,1.181-1.187s1.18,0.53,1.18,1.187
	C28.391,179.17,27.863,179.701,27.211,179.701z M30.535,179.635c-0.652,0-1.181-0.534-1.181-1.19c0-0.655,0.528-1.187,1.181-1.187
	s1.18,0.531,1.18,1.187C31.715,179.101,31.188,179.635,30.535,179.635z M148.385,177.657c-0.652,0-1.184-0.53-1.184-1.187
	s0.531-1.187,1.184-1.187s1.181,0.53,1.181,1.187S149.037,177.657,148.385,177.657z M151.701,177.63c-0.652,0-1.18-0.53-1.18-1.187
	c0-0.655,0.527-1.187,1.18-1.187s1.181,0.531,1.181,1.187C152.882,177.1,152.354,177.63,151.701,177.63z M89.987,176.619
	l-12.278-9.213l-11.621,7.821l0.07-2.854l11.538-7.715c0,0,9.82,7.646,14.566,11.338L89.987,176.619z M28.881,176.482
	c-0.652,0-1.181-0.535-1.181-1.19c0-0.656,0.528-1.187,1.181-1.187s1.18,0.53,1.18,1.187
	C30.061,175.947,29.533,176.482,28.881,176.482z M48.991,174.927l-2.913-4.758l2.907-2.121l-2.646-3.401l2.854-2.941l-3.137-2.003
	l2.933-4.107l4.061-1.813l-4.061,5.365l3.36,2.319l-3.188,3.453l2.859,3.769l-2.96,2.326l3.203,5.282l-0.21,0.255L48.991,174.927z
	 M102.821,175.978l-21.573-16.229c0,0-1.993-1.508-2.564-1.872c-1.211-0.771-1.453-0.463-2.662,0.371
	c-2.725,1.628-9.324,6.144-9.324,6.144l0.053-2.338c0,0,6.638-4.994,10.312-7.065c0.521-0.289,1.08-0.016,1.472,0.283
	c8.013,6.381,16.212,12.568,24.335,18.819L102.821,175.978z M53.248,175.72c-0.09-0.163-0.381-0.223-0.521-0.441
	c-0.955-1.487-2.688-4.132-2.688-4.132l3.034-2.42l-2.786-3.677l3.481-3.557l-3.556-2.433c0,0,2.208-3.398,3.876-4.953l0.041,2.641
	l-1.426,1.729l1.637,1.132l0.004,3.63l-1.663,1.763l1.523,1.549l-0.271,3.969l-1.453,1.156l1.199,1.651L53.248,175.72z
	 M150.114,174.91c-0.652,0-1.185-0.531-1.185-1.187c0-0.656,0.532-1.187,1.185-1.187s1.18,0.53,1.18,1.187
	C151.294,174.379,150.767,174.91,150.114,174.91z M26.081,170.581l6.002-5.577v2.533l-6.002,5.924V170.581z M146.684,173.306v-3.058
	l6.409-5.95v2.951L146.684,173.306z M26.081,169.8v-3.034l6.002-5.671v3.005L26.081,169.8z M33.143,169.323l-0.124-98.641
	l-6.968-7.414l-0.006-2.46l8.819,9.187l0.201,99.246L33.143,169.323z M146.684,169.617v-3.435l6.409-5.879v3.231L146.684,169.617z
	 M102.839,168.986l-8.476-6.635l0.035-23.13c3.433,2.596,6.188,4.143,8.793,5.458L102.839,168.986z M28.873,161.506
	c-0.653,0-1.181-0.531-1.181-1.187c0-0.656,0.527-1.187,1.181-1.187c0.652,0,1.184,0.53,1.184,1.187
	C30.057,160.975,29.525,161.506,28.873,161.506z M91.812,160.375l-0.032-23.602l1.67,1.534l0.098,23.407L91.812,160.375z
	 M149.696,160.148c-0.652,0-1.18-0.53-1.18-1.187s0.527-1.19,1.18-1.19s1.185,0.534,1.185,1.19S150.349,160.148,149.696,160.148z
	 M27.295,158.466c-0.651,0-1.18-0.531-1.18-1.187c0-0.656,0.528-1.191,1.18-1.191c0.652,0,1.181,0.535,1.181,1.191
	C28.476,157.935,27.947,158.466,27.295,158.466z M30.658,158.318c-0.652,0-1.18-0.531-1.18-1.187c0-0.656,0.527-1.187,1.18-1.187
	s1.18,0.53,1.18,1.187C31.838,157.787,31.311,158.318,30.658,158.318z M90.863,158.433l-5.17-4.86l5.326-5.081l0.044,2.345
	l-2.965,2.874l2.979,3.105L90.863,158.433z M88.896,158.004l-4.312-3.2l0.675-0.823L88.896,158.004z M147.949,157.286
	c-0.652,0-1.18-0.53-1.18-1.187c0-0.655,0.527-1.187,1.18-1.187s1.18,0.531,1.18,1.187
	C149.129,156.756,148.602,157.286,147.949,157.286z M151.408,157.229c-0.652,0-1.18-0.535-1.18-1.19c0-0.656,0.527-1.187,1.18-1.187
	s1.181,0.53,1.181,1.187C152.589,156.693,152.061,157.229,151.408,157.229z M66.68,156.798c-0.831-9.442-1.406-15.979-3.832-24.882
	l11.151-7.17l-0.102,27.348L66.68,156.798z M35.943,135.191l0.045-32.429c10.525,15.06,16.199,32.662,18.026,49.345
	c0,0-5.65,2.617-8.394,4.224C42.715,149.482,43.97,149.491,35.943,135.191z M28.73,155.425c-0.652,0-1.181-0.534-1.181-1.19
	c0-0.655,0.528-1.187,1.181-1.187s1.18,0.531,1.18,1.187C29.91,154.891,29.383,155.425,28.73,155.425z M149.65,154.149
	c-0.652,0-1.181-0.531-1.181-1.187c0-0.656,0.528-1.19,1.181-1.19s1.18,0.534,1.18,1.19
	C150.83,153.618,150.303,154.149,149.65,154.149z M83.851,154.259l-4.096-3.144l-0.01-2.383l4.899,4.738L83.851,154.259z
	 M85.254,153l-5.121-5.09l5.369-5.387l5.295,5.046L85.254,153z M46.693,152.822l4.938-2.036c-1.89-17.209-6.79-30.108-13.397-40.566
	l-0.15,24.139C41.495,139.787,44.078,146.327,46.693,152.822z M25.937,152.467v-2.707l6.146-5.669v2.696L25.937,152.467z
	 M85.258,150.978l3.264-3.203l-3.286-3.196l-3.162,3.196L85.258,150.978z M146.684,151.332v-2.879l6.102-5.926v3.061
	L146.684,151.332z M77.977,149.719l-0.05-27.544l1.357-0.646l-0.095,28.775L77.977,149.719z M85.32,149.302l-1.48-1.497l1.55-1.566
	l1.458,1.497L85.32,149.302z M25.937,149.014v-3.121l6.146-5.771l0.103,2.978L25.937,149.014z M93.943,137.308
	c-6.344-5.519-11.217-13.896-16.567-18.579c-2.164-1.886-7.457-4.83-10.313-5.735c-3.247-1.029-5.773-1.451-9.032-1.509
	c-2.572-0.046-2.584-0.062-2.584-0.062l-1.089-1.946l1.801,0.024l0.118-6.874c-1.908-0.093-3.775,0.013-5.619,0.242l-0.666-1.251
	c13.121-1.789,25.945,3.211,33.658,9.599c3.518,2.908,6.375,6.459,9.855,11.627c6.696,10.504,18.492,15.575,29.477,15.693
	l0.911,1.423l-1.836-0.062c0,0-0.186,1.321-0.21,3.566c-0.027,2.528-0.012,2.972,0.186,3.045c1.33,0.155,5.342,0.072,5.225-0.099
	l0.825,1.484C114.987,149.254,102.1,144.67,93.943,137.308z M146.684,147.674v-2.824l6.102-5.787v2.827L146.684,147.674z
	 M79.611,147.434l0.16-2.524l2.909-2.893l-3.095-3.021l0.073-2.108l5.458,5.089L79.611,147.434z M119.469,146.536
	c0.281,0,0.451-0.024,0.482-0.078c0.072-0.121,0.032-1.206,0.27-5.13c0.088-1.438,0.187-1.444-1.013-1.589
	c-1.007-0.035-3.259-0.615-4.757-0.793c-1.264-0.168-0.999,0.218-1.355,1.233c-0.387,1.109-0.598,2.095-1.08,3.679
	c-0.441,1.451-0.238,1.498,2.605,2.032C116.586,146.26,118.627,146.535,119.469,146.536z M91.086,146.776l-4.939-4.956l4.862-4.966
	l0.086,2.399c-0.938,0.839-2.056,1.795-2.881,2.742l2.866,2.942L91.086,146.776z M115.854,145.17l-0.529-0.877l-1.273-0.211
	l0.223-0.892l-0.647-0.919l0.797-0.602l-0.028-1.109l0.996,0.035l0.866-0.623l0.685,0.874l0.998,0.033l-0.054,1.244l0.646,0.55
	l-0.772,0.696l0.1,1.103l-1.229-0.207L115.854,145.17z M123.874,143.676l-0.785-0.517l0.798-0.554l0.035-0.849l0.489-0.418
	l1.792,3.526l-1.166-0.476l-0.891,0.595L123.874,143.676z M109.496,144.491c0.627-0.01,0.709-1.176,1.388-3.38
	c0.947-3.075,1.015-2.79-0.802-3.432c-0.81-0.285-2.356-0.811-3.176-1.197c-1.994-0.942-2.004-0.939-2.749,0.342
	c-0.331,0.567-0.958,1.962-1.396,2.685c-1.094,1.806-1.124,1.718,0.888,2.691c1.183,0.573,1.898,0.808,4.387,1.822
	C108.727,144.304,109.168,144.497,109.496,144.491z M107.506,142.451l-0.871-0.549l-0.979,0.411l-0.195-1.06l-1.071-0.417
	l0.305-1.042l-0.471-0.78l0.911-0.179l0.663-1.443l1.001,0.706l1.062-0.386l0.295,0.795l1.087,0.527l-0.394,0.875l0.542,1.181
	l-1.244,0.096L107.506,142.451z M85.606,141.369l-5.452-5.372l4.965-5.002l5.449,5.39L85.606,141.369z M28.734,140.391
	c-0.653,0-1.181-0.531-1.181-1.187c0-0.656,0.527-1.187,1.181-1.187c0.652,0,1.18,0.53,1.18,1.187
	C29.914,139.859,29.387,140.391,28.734,140.391z M100.164,140.13c0.316-0.005,0.498-0.298,0.771-0.861
	c0.116-0.237,0.789-1.502,1.411-2.48c1.401-2.207,1.402-2.095,0.004-2.959c-0.594-0.367-1.96-1.497-3.134-2.564
	c-1.086-0.987-0.969-0.754-3.309,1.6c-1.526,1.535-2.468,1.967-1.873,2.775c1.446,1.247,2.633,2.157,4.201,3.35
	C99.272,139.767,99.807,140.135,100.164,140.13z M85.351,139.529l3.217-3.168l-3.624-3.301l-3.006,3.103L85.351,139.529z
	 M140.428,140.604l-0.035-24.78c-3.536-6.079-7.166-12.214-9.055-19.055l-5.187,2.556
	C128.632,119.57,134.403,130.796,140.428,140.604z M149.662,139.049c-0.652,0-1.181-0.531-1.181-1.187
	c0-0.656,0.528-1.187,1.181-1.187s1.18,0.53,1.18,1.187C150.842,138.518,150.314,139.049,149.662,139.049z M85.313,137.727
	l-1.551-1.432l1.428-1.559l1.565,1.629L85.313,137.727z M27.288,137.494c-0.652,0-1.185-0.531-1.185-1.188
	c0-0.655,0.532-1.187,1.185-1.187c0.651,0,1.18,0.531,1.18,1.187C28.468,136.963,27.939,137.494,27.288,137.494z M30.458,137.373
	c-0.652,0-1.185-0.53-1.185-1.187c0-0.655,0.532-1.187,1.185-1.187s1.18,0.531,1.18,1.187
	C31.638,136.843,31.11,137.373,30.458,137.373z M99.436,137.451l-0.896-0.668l-1.053,0.455l-0.076-1.247l-0.958-0.475l0.604-0.884
	l-0.364-1.162l1.037-0.033l0.807-1.063l0.724,0.698l1.411-0.095l0.225,1.21l0.611,0.481l-0.475,0.802l0.347,1.067l-1.208,0.083
	L99.436,137.451z M151.396,136.129c-0.652,0-1.18-0.531-1.18-1.187c0-0.656,0.527-1.188,1.18-1.188s1.181,0.531,1.181,1.188
	C152.577,135.598,152.049,136.129,151.396,136.129z M148,136.094c-0.652,0-1.181-0.534-1.181-1.19s0.528-1.187,1.181-1.187
	s1.18,0.53,1.18,1.187S148.652,136.094,148,136.094z M79.648,133.262l2.814-2.643l-2.774-2.908l0.084-2.23l4.923,4.937l-5.002,4.938
	L79.648,133.262z M107.481,133.836l10.564-7.047l0.643,1.763l-9.418,6.202L107.481,133.836z M28.889,134.411
	c-0.653,0-1.181-0.535-1.181-1.191c0-0.655,0.527-1.187,1.181-1.187c0.652,0,1.18,0.531,1.18,1.187
	C30.068,133.876,29.541,134.411,28.889,134.411z M92.229,133.694c0.489-0.034,0.988-0.616,1.937-1.629
	c0.93-0.994,2.027-2.161,2.262-2.327c0.733-0.52,0.698-0.646-0.579-2.087c-0.388-0.438-1.119-1.332-1.627-1.989
	c-0.507-0.657-1.315-1.48-1.476-1.65c-0.519-0.546-0.804-0.432-3.186,1.288c-2.894,2.088-2.88,1.778-0.22,5.231
	C90.87,132.518,91.602,133.738,92.229,133.694z M149.696,132.964c-0.652,0-1.181-0.53-1.181-1.187c0-0.655,0.528-1.187,1.181-1.187
	s1.185,0.531,1.185,1.187C150.881,132.434,150.349,132.964,149.696,132.964z M87.73,132.534l-1.909-2.06l0.171-0.205L87.73,132.534z
	 M26.009,132.075v-3.568l5.882-5.463v3.264L26.009,132.075z M91.873,131.032l-0.715-0.989l-1.212,0.078l0.179-1.164l-0.644-0.474
	l0.628-0.883l0.051-1.112l1.001,0.238l0.819-0.991l0.807,0.95l0.95-0.111l-0.032,1.157l0.97,0.554l-0.685,0.753l-0.021,1.297
	l-1.411,0.053L91.873,131.032z M62.777,130.958l-0.588-1.8l14.703-9.621l1.285,1.484L62.777,130.958z M101.271,129.753l-1.171-0.886
	l15.434-9.979l0.465,1.301L101.271,129.753z M146.411,130.136v-2.967l6.511-6.309v3.064L146.411,130.136z M85.297,129.424
	l-0.188,0.156l-5.046-4.872l0.953-1.02L85.297,129.424z M99.234,127.994l-0.139-28.779l1.346,0.936l-0.102,27.305L99.234,127.994z
	 M98.405,127.33l-1.096-0.97l1.05-1.032L98.405,127.33z M26.009,127.575v-2.919l5.882-5.615v3.052L26.009,127.575z M146.411,126.174
	v-2.743l6.511-6.257v2.771L146.411,126.174z M85.732,125.8c0.169,0.003,0.352-0.107,0.617-0.318c0.242-0.19,0.834-0.604,1.315-0.919
	c1.771-1.157,3.273-2.242,3.339-2.402c0.137-0.331-1.64-2.663-4.107-5.459c-0.97-1.099-0.943-1.312-1.916-0.333
	c-0.773,0.883-3.609,3.302-3.527,3.949c0.156,0.741,1.131,1.583,3.551,4.874C85.326,125.605,85.517,125.796,85.732,125.8z
	 M96.667,125.499l-3.871-5.569l0.516-0.518l4.749,4.711L96.667,125.499z M104.23,124.842l-0.008-26.851l7.267-5.189
	c-0.134-0.07,0.892,16.132,3.671,24.772L104.23,124.842z M86.16,123.896l-0.711-1.335l-1.077,0.182l0.142-1.228l-0.912-0.72
	l0.896-1.248l-0.118-0.889l1.057,0.241l0.964-1.002l0.66,1.274l1.389-0.022l-0.194,1.224l0.969,0.818l-1.058,0.629l-0.146,1.116
	l-0.911-0.079L86.16,123.896z M79.855,123.688l-0.119-1.098l0.647,0.566L79.855,123.688z M98.432,121.738l0.01,1.57l-4.633-4.496
	l4.731-4.458l-0.032,2.117l-2.693,2.579L98.432,121.738z M60.146,122.607l-0.658-2.002l9.517-5.893l1.919,1.002L60.146,122.607z
	 M28.792,119.299c-0.652,0-1.185-0.531-1.185-1.188c0-0.655,0.532-1.19,1.185-1.19s1.18,0.535,1.18,1.19
	C29.972,118.768,29.444,119.299,28.792,119.299z M89.365,115.436l3.344,3.366l-0.42,0.458L89.365,115.436z M80.75,118.461
	c1.134-0.974,3.552-3.783,3.548-4.247c-0.004-0.463-3.349-3.37-5.36-4.661c-0.631-0.404-0.882-0.417-1.126-0.05
	c-3.476,5.221-3.623,5.045-2.247,6.063c1.398,1.076,3.033,2.676,4.149,3.227C80.185,119.025,80.266,118.882,80.75,118.461z
	 M93.283,118.207l-5.513-5.314l5.112-4.957l5.306,5.627L93.283,118.207z M149.565,117.806c-0.652,0-1.181-0.531-1.181-1.187
	c0-0.656,0.528-1.188,1.181-1.188s1.18,0.531,1.18,1.188C150.745,117.274,150.218,117.806,149.565,117.806z M79.92,116.737
	l-0.928-0.83l-1.105,0.29l-0.249-1.099l-1.066-0.395l0.572-1.118l-0.079-1.408l1.074,0.201l0.745-1.155l1.091,1.104l1.25-0.105
	l-0.069,1.231l1.104,0.537l-0.701,0.81l0.439,1.108l-1.323-0.21L79.92,116.737z M27.223,116.242c-0.652,0-1.181-0.53-1.181-1.187
	c0-0.655,0.528-1.187,1.181-1.187s1.184,0.531,1.184,1.187C28.406,115.712,27.875,116.242,27.223,116.242z M96.179,113.441
	l-3.263-3.357l-3.004,2.896l3.184,3.38L96.179,113.441z M30.477,116.196c-0.652,0-1.18-0.531-1.18-1.187
	c0-0.656,0.527-1.19,1.18-1.19s1.181,0.534,1.181,1.19C31.657,115.665,31.129,116.196,30.477,116.196z M151.192,114.959
	c-0.652,0-1.18-0.534-1.18-1.19s0.527-1.187,1.18-1.187s1.181,0.53,1.181,1.187S151.845,114.959,151.192,114.959z M147.733,114.947
	c-0.652,0-1.181-0.534-1.181-1.19s0.528-1.187,1.181-1.187s1.181,0.53,1.181,1.187S148.386,114.947,147.733,114.947z
	 M93.081,114.683l-1.484-1.539l1.374-1.458l1.535,1.589L93.081,114.683z M72.916,113.627c0.76-0.548,2.825-4.481,3.18-5.347
	c-0.003-0.209-0.997-0.843-2.241-1.427c-1.06-0.498-4.501-1.887-4.817-1.964c-0.691-0.168-0.811,0.096-0.926,0.548
	c-0.061,0.24-0.335,1.154-0.639,2.148c-1.066,3.481-1.386,3.317,0.2,3.846c0.546,0.183,2.263,0.765,3.344,1.266
	C72.088,113.193,72.571,113.634,72.916,113.627z M28.889,112.997c-0.652,0-1.185-0.531-1.185-1.187c0-0.656,0.532-1.191,1.185-1.191
	s1.18,0.535,1.18,1.191C30.068,112.466,29.541,112.997,28.889,112.997z M85.267,111.367l-0.185-23.341l1.816,1.429l0.049,23.419
	L85.267,111.367z M93.391,107.391l5.015-5.133l0.032,2.615l-2.809,2.556l2.859,3.007l-0.059,2.021
	C96.6,110.95,95.038,109.099,93.391,107.391z M149.588,111.868c-0.652,0-1.18-0.53-1.18-1.187s0.527-1.19,1.18-1.19
	s1.185,0.534,1.185,1.19S150.24,111.868,149.588,111.868z M72.196,111.919l-1.011-0.849l-0.848,0.512l-0.487-0.873l-1.217-0.17
	l0.546-1.334l-0.715-1.03l1.187-0.221l0.295-1.422l1.163,0.694l0.883-0.384l0.644,1.204l1.376,0.057l-0.751,1.309l0.708,1.035
	l-0.999,0.065L72.196,111.919z M87.674,111.826l0.009-2.059l2.182-2.224l-2.19-2.397l0.012-2.394l4.535,4.643L87.674,111.826z
	 M64.408,110.475c0.456-0.014,0.461-0.499,0.811-2.078c0.076-0.342,0.318-1.26,0.536-2.04c0.661-2.363,0.745-2.407-1.294-2.814
	c-1.182-0.177-6.291-1.373-6.395-0.554c-0.129,1.391-0.212,4.666-0.229,5.778c-0.045,0.374,0.042,0.726,0.413,0.77
	C60.58,109.816,63.17,110.431,64.408,110.475z M84.312,110.374c-2.901-1.991-5.71-4.021-9.044-5.839l-0.084-24.004l9.148,6.851
	L84.312,110.374z M26.081,110.306v-2.942l6.099-5.856v2.812L26.081,110.306z M61.808,109.284l-0.528-1.139l-1.11,0.372l0.007-1.36
	l-0.99-0.628l1.193-0.554l0.105-1.655l1.21,0.375l0.997-0.62l0.881,0.931l1.08,0.021l-0.396,1.472l0.697,0.672l-1.013,0.501
	l-0.083,1.313l-1.084-0.652L61.808,109.284z M146.283,109.503v-2.837l6.639-6.145v2.48L146.283,109.503z M53.494,107.725
	l-1.488-2.532l0.537-1.023l0.999,0.49l1.097-0.408l-0.168,1.354l0.848,0.677l-0.857,0.791l0.039,0.994L53.494,107.725z
	 M92.819,106.889l-5.091-5.304l5.186-5.385l5.09,5.38L92.819,106.889z M26.081,103.568l6.099-5.696v2.771l-6.099,5.814V103.568z
	 M146.283,105.886v-2.768l6.639-6.256v2.564L146.283,105.886z M92.807,104.896l3.306-3.29l-3.278-3.309l-3.313,3.228L92.807,104.896
	z M92.762,103.011l-1.416-1.461l1.354-1.414l1.46,1.428L92.762,103.011z M98.439,100.989l-5.048-5.212l0.579-0.687l4.473,3.493
	L98.439,100.989z M87.604,100.566l-0.134-2.352l2.753-2.363l-2.515-2.653l-0.069-2.443l4.784,4.953L87.604,100.566z M28.796,98.18
	c-0.653,0-1.181-0.531-1.181-1.188c0-0.655,0.527-1.187,1.181-1.187c0.651,0,1.18,0.531,1.18,1.187
	C29.976,97.648,29.447,98.18,28.796,98.18z M149.445,96.744c-0.652,0-1.18-0.53-1.18-1.187c0-0.655,0.527-1.19,1.18-1.19
	s1.181,0.535,1.181,1.19C150.626,96.214,150.098,96.744,149.445,96.744z M125.281,96.018l3.724-5.601l-2.935-1.978l2.779-3.756
	l-2.892-3.498l2.911-2.51l-2.953-5.085c1.174,0.233,2.368,1.021,3.448,1.567l2.228,4.26l-2.562,2.216l2.6,3.033l-2.727,3.248
	l2.733,1.929l-2.98,4.611L125.281,96.018z M27.385,95.271c-0.652,0-1.181-0.53-1.181-1.187s0.528-1.187,1.181-1.187
	s1.18,0.53,1.18,1.187S28.037,95.271,27.385,95.271z M100.627,95.363L74.923,75.441l0.105-2.643l25.709,19.866l10.916-7.749
	l-0.098,2.82L100.627,95.363z M30.531,95.111c-0.652,0-1.18-0.53-1.18-1.187c0-0.655,0.527-1.187,1.18-1.187s1.18,0.531,1.18,1.187
	C31.711,94.581,31.184,95.111,30.531,95.111z M90.358,92.568l0.271-0.052l2.805,2.059l-0.611,0.692
	C92.822,95.268,90.982,93.227,90.358,92.568z M147.699,93.716c-0.652,0-1.185-0.535-1.185-1.19c0-0.656,0.532-1.187,1.185-1.187
	c0.651,0,1.18,0.53,1.18,1.187C148.879,93.181,148.351,93.716,147.699,93.716z M150.881,93.7c-0.652,0-1.185-0.53-1.185-1.187
	s0.532-1.187,1.185-1.187c0.651,0,1.18,0.53,1.18,1.187S151.532,93.7,150.881,93.7z M28.796,92.134c-0.653,0-1.181-0.535-1.181-1.19
	c0-0.656,0.527-1.187,1.181-1.187c0.652,0,1.18,0.53,1.18,1.187C29.976,91.599,29.448,92.134,28.796,92.134z M149.457,90.819
	c-0.652,0-1.18-0.535-1.18-1.19c0-0.656,0.527-1.188,1.18-1.188s1.18,0.531,1.18,1.188
	C150.637,90.284,150.109,90.819,149.457,90.819z M26.081,88.608v-2.621l5.765-5.618v2.53L26.081,88.608z M103.885,87.821
	c-0.857,0.009-2.006-0.036-3.551-0.089c-1.324-0.046-2.788-0.075-3.252-0.063c-1.832,0.05-2.431-0.576-2.464-2.567
	c-0.03-1.77-0.022-1.764-2.325-1.861c-2.777-0.117-3.511-0.834-3.549-3.471c-0.014-1.026-0.839-1.429-2.456-1.198
	c-2.549,0.364-3.044,0.013-3.34-2.369c-0.245-1.988-0.114-1.886-2.448-1.869c-2.512,0.018-3.072-0.406-3.102-2.351
	c-0.017-1.128-0.29-1.467-1.261-1.555c-1.037-0.094-1.484-0.629-0.972-1.159c0.094-0.097,0.573-0.156,1.33-0.167
	c1.601-0.023,2.128,0.482,2.426,2.327c0.208,1.28,0.337,1.347,2.465,1.287c2.714-0.076,2.926,0.089,3.22,2.471
	c0.252,2.044,0.594,2.254,2.927,1.811c1.697-0.322,2.596,0.43,2.815,2.35c0.247,2.155,0.343,2.233,2.75,2.319
	c2.412,0.086,3.083,0.513,3.104,1.97c0.032,2.259,0.316,2.464,3.281,2.374c1.44-0.044,2.913-0.019,3.761,0.069
	c1.797,0.187,1.787,0.196,1.967-1.539c0.269-2.594,0.646-2.832,4.057-2.579c1.425,0.105,1.526,0.039,1.624-1.051
	c0.122-1.365,0.624-2.206,1.01-1.691c0.202,0.27,0.203,0.295,0,2.292c-0.227,2.235-0.252,2.252-3.15,2.028
	c-1.964-0.151-1.869-0.224-2.078,1.57C106.418,87.294,106.457,87.797,103.885,87.821z M146.187,88.025v-2.876l6.735-6.289v2.787
	L146.187,88.025z M125.26,84.646l-1.467-2.014l0.476-3.744l1.245-0.942l-0.882-1.78l0.282-2.187l0.35-0.201l2.445,4.773
	l-2.895,2.561l2.967,3.637l-2.803,3.799l2.908,2.056l-3.493,5.173c-0.606,0.739-0.642-2.196-0.642-2.196l1.447-2.204l-1.618-1.405
	h-0.004l-0.006-3.487L125.26,84.646z M123.41,86.341l-0.158,4.695l1.263,0.983l-0.975,1.628l0.066,4.158l0.294,0.203
	c2.429,29.771,16.922,47.362,19.19,51.353c0,0,0.504,0.407,0.412,1.43c-0.04,0.444-0.061,3.068-0.042,5.832
	c0.091,14.112-0.027,23.78-0.027,23.78l10.654,11.42l-0.062-4.179l-0.522-0.379l0.001-19.025l0.443-0.025
	c0,0,0.137-5.115,0.102-8.629l-0.634-0.018l0.038-13.073l0.54-0.064l-0.031-8.471l-0.587,0.002c0,0-0.138-8.881,0.073-13.199
	l0.437-0.026l-0.03-8.419l-0.495-0.039l-0.032-12.042l0.61-0.093l-0.165-7.949l-0.498-0.027c-0.18-4.912-0.095-13.402-0.095-13.402
	l0.569-0.026l-0.14-7.893l-0.408-0.027l0.119-13.854l0.372-0.045l-0.143-8.184l-0.402-0.037l0.068-6.806l0.276-0.047l0.065-2.545
	l-0.294-0.675l-0.02-9.067l0.225-0.099l0.065-4.555l-16.524,16.8l6.083,0.184l-0.004,5.43c-0.002,8.96-0.12,16.191,0.146,24.932
	c0.08,0.077,0.684,0.174,1.343,0.213c3.131,0.185,3.98,0.439,3.991,1.194c0.014,0.935-1.406,2.093-2.584,2.109
	c-0.267,0.004-0.713,0.271-0.713,0.271l0.379,99.417l7.393,7.786l-0.031,2.472l-9.109-9.695l-0.343-99.364l-0.346,0.161
	l-0.025,33.37c-4.669-7.021-7.287-13.979-9.884-20.938l-0.957,0.338l0.328,0.117c2.649,8.893,6.002,15.34,10.35,22.07l-0.063,32.34
	c-11.133-15.813-16.515-30.032-18.751-50.528l5.634-2.83l0.547-0.734l4.256-2.139l0.407,0.683l2.58-1.797
	c-1.993-3.496-1.919-8.521-0.295-11.184l-0.699-0.438c-0.048-0.192-2.673,5.442,0.264,11.173l-1.923,1.19
	c-2.772-5.764-1.484-11.972-0.179-13.571c0,0-2.008-1.286-3.45-2.073c-1.567-0.856-2.961-1.639-4.84-2.248
	c-1.158-0.474-1.895,0.083-1.891,0.095l-0.563,3.218l0.895,1.227l-1.042,0.844l-0.475,4.926l1.119,1.137L123.41,86.341z
	 M26.081,85.026v-3.174l5.765-5.492v3.123L26.081,85.026z M146.187,81.627l6.735-6.217v2.586l-6.735,6.358V81.627z M28.373,77.397
	c-0.653,0-1.185-0.534-1.185-1.19s0.531-1.187,1.185-1.187c0.652,0,1.18,0.53,1.18,1.187S29.025,77.397,28.373,77.397z
	 M143.497,75.475l-0.007-29.287l1.777-0.002l-0.082,29.647L143.497,75.475z M149.445,75.741c-0.652,0-1.18-0.53-1.18-1.187
	c0-0.655,0.527-1.187,1.18-1.187s1.181,0.531,1.181,1.187C150.626,75.211,150.098,75.741,149.445,75.741z M30.053,74.609
	c-0.652,0-1.18-0.531-1.18-1.187c0-0.656,0.527-1.19,1.18-1.19s1.184,0.534,1.184,1.19C31.236,74.078,30.705,74.609,30.053,74.609z
	 M26.871,74.559c-0.652,0-1.18-0.53-1.18-1.187s0.527-1.187,1.18-1.187s1.184,0.53,1.184,1.187S27.523,74.559,26.871,74.559z
	 M147.603,72.775c-0.652,0-1.185-0.535-1.185-1.191c0-0.655,0.532-1.187,1.185-1.187c0.651,0,1.18,0.531,1.18,1.187
	C148.782,72.24,148.254,72.775,147.603,72.775z M86.793,72.74c-6.153-0.767-4.523-7.257-1.929-8.605
	c3.531-1.653,6.36,1.678,4.104,5.053c-1.655,2.477-4.803,0.839-3.587-1.876c0.685-1.528,2.105-1.35,2.092,0.196
	c-0.507,1.47-0.041,0.946,0.354,0.428c1.245-1.629-1.267-3.356-2.557-1.749c-0.793,0.986-0.959,2.157-0.688,3.093
	c0.463,1.599,2.298,2.534,4.374,1.055c2.48-2.991,3.806-6.861,4.538-11.19c1.56-9.213,1.639-18.907,2.978-21.365l1.457,0.035
	c-2.119,10.545-2.129,19.569-4.391,27.882C92.421,69.816,89.564,72.749,86.793,72.74z M150.83,72.689c-0.652,0-1.18-0.534-1.18-1.19
	s0.527-1.187,1.18-1.187s1.18,0.53,1.18,1.187S151.482,72.689,150.83,72.689z M125.863,72.526c1.623-0.032,3.27-1.384,3.143-3.109
	c-0.153-2.096-1.389-3.03-3.42-2.819c-1.087,0.112-1.058,0.13-1.79-1.187c-0.658-1.186-2.396-6.245-2.406-7.012
	c0.835,1.113,2.783,3.181,4.581,3.095c1.932-0.142,3.557-1.981,2.098-4.588c-0.776-1.278-2.157-1.527-3.561-1.105
	c-2.102-3.286-2.498-6.578-3.166-10.397c0,0-0.829,8.175-1.08,11.437c-0.479,4.998-1.156,8.235-3.08,12.198
	c1.604,0.93,3.32,1.66,5.048,2.33c0.687,0.266,1.407,0.271,2.087,0.717C124.786,72.401,125.322,72.537,125.863,72.526z
	 M28.243,71.86c-0.652,0-1.181-0.53-1.181-1.187s0.528-1.19,1.181-1.19c0.653,0,1.181,0.534,1.181,1.19S28.896,71.86,28.243,71.86z
	 M122.539,69.238c-1.215-1.987-2.401-4.854-2.506-6.66c-0.042-1.195,0.193-2.662,0.395-4.034c0.1-0.679,0.354-0.017,0.815,1.448
	c1.913,6.082,2.418,7.246,3.747,6.942c0.757-0.173,1.545-0.202,2.061,0.084c1.685,0.935,1.84,4.067-0.621,4.667
	C124.485,72.111,123.233,70.374,122.539,69.238z M122.583,70.75c-2.452-0.971-4.018-2.435-3.57-4.816
	c0.196-0.896,0.328-1.635,0.566-1.54c0.276,0.11,0.656,1.186,1.417,3.034C121.17,68.026,122.916,70.738,122.583,70.75z
	 M82.006,70.646c-0.129,0.019-0.332-0.104-0.609-0.364c-1.933-1.913-0.884-6.228,1.69-7.47c1.06-0.733,3.011-0.613,3.021,0.096
	c0.004,0.276-0.058,0.351-0.328,0.354c-2.166-0.017-4.469,3.01-3.831,6.232C82.027,69.979,82.174,70.623,82.006,70.646z
	 M149.396,69.599c-0.652,0-1.181-0.53-1.181-1.187s0.528-1.19,1.181-1.19s1.184,0.534,1.184,1.19S150.048,69.599,149.396,69.599z
	 M79.975,69.234c-0.135,0.021-0.604-0.183-0.916-0.56c-1.821-2.207-0.342-5.966,2.521-7.255c1.093-0.594,2.014-0.184,1.782,0.428
	c-1.95,0.813-3.79,2.919-3.598,5.798C79.838,68.655,80.173,69.204,79.975,69.234z M118.576,68.833l-0.662-0.315l0.273-0.577
	C118.315,68.286,118.313,68.42,118.576,68.833z M77.904,68.595c-0.146,0.003-0.47,0.052-0.777-0.248
	c-1.178-1.15-1.363-4.376-0.232-5.971c0.531-0.748,2.178-2.106,2.668-2.243c0.572-0.07,0.97-0.156,1.922,0.279
	c0.318,0.011-0.144,0.313-0.744,0.662c-2.132,1.237-3.546,3.445-3.176,5.519C77.794,67.875,78.182,68.588,77.904,68.595z
	 M75.744,67.554c-0.564-0.048-1.002-0.548-1.271-0.971c-1.399-2.021-0.237-6.273,2.628-7.155c1.907-0.587,2.618-0.031,1.073,0.875
	c-2.218,1.301-3.369,3.845-2.729,5.865C75.754,67.134,76.045,67.533,75.744,67.554z M73.435,66.074
	c-0.667-0.01-1.184-0.523-1.419-1.054c-0.553-1.305-0.466-3.134,0.254-4.421c0.717-1.282,2.09-2.35,3.614-2.507
	c0.398-0.036,0.745,0.022,1.045,0.153c0.67,0.29,0.439,0.333-0.821,0.996c-2.009,1.057-3.195,3.252-2.892,5.678
	C73.33,65.829,73.693,66.072,73.435,66.074z M146.187,66.516v-3.134l6.556-6.224v3.061L146.187,66.516z M90.479,66.11
	c-0.125-0.13-0.866-1.908-0.958-2.274c1.535-2.222,1.969-5.866,2.207-8.628c0.866-7.826,1.767-17.276,2.16-17.363l1.707-0.038
	c-0.65-0.437-1.484,12.978-2.809,21.476C92.686,59.949,91.269,66.507,90.479,66.11z M70.645,64.723
	c-2.252-1.532-1.05-6.315,2.082-7.498c1.137-0.439,1.554-0.496,2.068,0.008c0.324,0.316,0.635,0.424-0.191,0.718
	c-2.315,0.607-3.951,2.781-3.56,5.306C71.09,63.87,71.664,65.492,70.645,64.723z M88.86,63.398l-1.024-0.662
	c1.104-3.312,1.513-7.217,1.965-10.997c0.546-4.573,1.027-9.28,1.689-13.77l1.567-0.058c-0.817,2.775-1.195,10.525-2.005,17.018
	C90.58,58.217,90.065,62.736,88.86,63.398z M87.082,62.316l-1.313-0.766c0.464-1.848,1.013-3.872,1.284-5.811
	c0.604-4.309,0.84-9.535,2.228-17.578l1.42-0.121c-0.357,2.583-1.035,8.337-1.611,13.63C88.419,57.817,87.366,62.466,87.082,62.316z
	 M146.187,62.523v-3.076l6.556-6.069v2.833L146.187,62.523z M84.861,61.344c0,0-1.13-0.64-1.272-0.715
	c0.853-3.396,1.269-6.551,1.689-9.629c0.566-4.151,0.987-8.19,1.77-12.753l1.514-0.096c-0.753,3.499-1.615,11.72-2.294,17.517
	C85.874,59.033,85.06,61.409,84.861,61.344z M120.955,54.434c-0.02-2.319,0.486-5.914,0.486-5.914
	c0.199-0.115,0.818,5.265,2.979,7.698c2.633-1.26,4.904,1.696,3.108,3.729C124.025,62.978,120.956,56.505,120.955,54.434z
	 M82.887,60.419l-1.832-0.851c0.226,0.039,0.657-1.23,1.078-3.21c1.285-6.032,2.559-17.922,2.766-17.917l1.414-0.117
	c-0.458,3.193-1.087,8.238-1.745,12.702C83.822,56.083,83.127,60.393,82.887,60.419z M80.34,59.263l-1.392-0.842
	c0.121,0.089,0.624-1.409,0.869-2.452c1.253-6.018,1.819-11.293,2.594-17.13l1.519-0.199c0.114-0.168-1.311,11.487-2.485,17.374
	C81.043,58.025,80.452,59.33,80.34,59.263z M78.17,58.216l-1.492-0.742c1.622-4.617,1.772-9.034,3.328-18.302l1.576-0.287
	c-0.635,5.934-1.535,12.306-2.828,18.113C78.575,57.777,78.186,58.199,78.17,58.216z M76.036,57.132l-1.679-0.678l3.515-17.016
	l1.417-0.193c-0.883,4.905-1.339,10.578-2.529,15.049C76.508,55.242,76.367,56.307,76.036,57.132z M149.145,54.437
	c-0.652,0-1.184-0.531-1.184-1.187c0-0.656,0.531-1.188,1.184-1.188s1.181,0.531,1.181,1.188
	C150.325,53.905,149.797,54.437,149.145,54.437z M147.603,51.652c-0.652,0-1.185-0.535-1.185-1.191c0-0.655,0.532-1.187,1.185-1.187
	c0.651,0,1.18,0.531,1.18,1.187C148.782,51.117,148.254,51.652,147.603,51.652z M150.676,51.578c-0.652,0-1.184-0.53-1.184-1.187
	s0.531-1.19,1.184-1.19s1.18,0.534,1.18,1.19S151.328,51.578,150.676,51.578z M149.203,48.841c-0.652,0-1.181-0.535-1.181-1.191
	c0-0.655,0.528-1.187,1.181-1.187s1.184,0.531,1.184,1.187C150.387,48.306,149.855,48.841,149.203,48.841z M138.522,44.875
	l14.161-14.425l0.044,2.883l-9.706,9.585l9.781,0.148l-0.022,1.951L138.522,44.875z M145.014,42.125l7.588-7.282l0.063,7.405
	L145.014,42.125z M136.908,41.593c0,0,0.041-0.266-0.671-1.521c-2.069-3.618-2.548-6.961-4.378-10.839
	c-0.911-2.122-2.963-4.264-3.421-4.386l2.279-4.193l-64.313,0.135L76.699,38.86c16.34-3.042,31.021-2.508,44.821-0.077
	c0.79-1.068,1.657-3.243,2.489-4.816C126.07,39.543,132.662,43.143,136.908,41.593z M134.567,41.107
	c-3.398,0.05-6.231-1.575-8.747-5.021c-0.8-1.098-1.11-1.594-1.107-2.055c0.084-0.533,1.139-2.237,1.139-2.237
	s0.61,1.691,0.756,2.511c0.914-3.384,1.277,0.538,1.629,1.572c1.115-3.27,1.717,1.225,1.66,2.437
	c1.517-2.097,1.419,1.347,2.159,1.986c0.019-1.816,1.08-0.574,2.457-0.187c-0.72-1.016-2.122-1.697-0.331-1.921
	c-1.786-1.24-2.681-1.051-0.947-1.734c-1.336-0.741-3.534-1.633-1.104-2.12c-1.485-0.941-3.874-1.337-1.306-2.237
	c-1.94-1.193-4.523-1.107-0.891-2.066c-1.315-0.773-3.636-1.063-1.04-1.736c-0.401-0.181-1.096-0.649-1.096-0.649l1.121-1.782
	c0,0,0.404,0.033,0.68,0.323c1.191,1.251,2.351,3.553,3.389,6.778c0.764,2.373,1.672,4.88,2.674,6.961
	C136.203,41.029,136.153,41.085,134.567,41.107z M77.13,37.038l-8.888-15.293l2.108-0.033l7.848,13.094l10.588-1.202l-3.487-11.706
	l3.146-0.086l3.124,11.515c5.911-0.239,11.55-0.306,16.466,0.091l1.666-11.682l3.002,0.101l-1.902,11.563l9.936,1.278l5.39-12.969
	l3.104-0.06c-2.003,3.398-7.006,14.371-7.94,15.452C99.646,33.617,88.409,35.496,77.13,37.038z M79.207,33.493l-6.729-11.766
	l10.811-0.05l3.632,10.895L79.207,33.493z M119.654,33.148c-2.133-0.625-4.428-0.761-6.739-0.847l1.966-10.526l9.578,0.02
	L119.654,33.148z M92.69,31.909l-2.541-10.222l18.032-0.094l-1.488,10.19C101.961,31.5,97.338,31.762,92.69,31.909z"/>
<path d="M130.563,223.552c7.819-0.17,11.326-8.975,5.535-15.812c-0.84-0.997-0.927-1.569,0.611-0.611
	c3.898,2.607,11.375,0.894,11.758-7.078c0.474-9.821-13.25-12.651-15.826-2.207c-0.137,1.102-1.032,1.076-0.816-0.487
	c0.235-4.245,1.561-8.213,3.383-12.082c-3.07,0-6.503,0-9.296,0c1.822,3.869,3.148,7.837,3.383,12.082
	c0.216,1.563-0.68,1.589-0.815,0.487c-2.576-10.444-16.3-7.614-15.827,2.207c0.383,7.972,7.859,9.686,11.759,7.078
	c1.538-0.958,1.451-0.386,0.611,0.611c-5.791,6.837-2.285,15.642,5.535,15.812h0.008H130.563z"/>
<path d="M48.105,27.045c7.82,0.17,11.326,8.974,5.535,15.811c-0.84,0.997-0.927,1.569,0.611,0.611
	c3.899-2.607,11.376-0.893,11.759,7.078c0.473,9.821-13.251,12.651-15.827,2.208c-0.137-1.102-1.031-1.077-0.815,0.487
	c0.234,4.245,1.561,8.213,3.383,12.082c-3.071,0-6.504,0-9.296,0c1.822-3.869,3.147-7.837,3.383-12.082
	c0.216-1.564-0.68-1.589-0.816-0.487c-2.576,10.443-16.3,7.613-15.826-2.208c0.383-7.971,7.859-9.686,11.758-7.078
	c1.538,0.958,1.451,0.386,0.611-0.611c-5.791-6.837-2.284-15.641,5.535-15.811h0.008H48.105z"/>
</svg>
