<?xml version="1.0" encoding="utf-8"?>
<!-- Generator: Adobe Illustrator 16.0.0, SVG Export Plug-In . SVG Version: 6.00 Build 0)  -->
<!DOCTYPE svg PUBLIC "-//W3C//DTD SVG 1.1//EN" "http://www.w3.org/Graphics/SVG/1.1/DTD/svg11.dtd">
<svg version="1.1" id="Layer_1" xmlns="http://www.w3.org/2000/svg" xmlns:xlink="http://www.w3.org/1999/xlink" x="0px" y="0px"
	 width="178.58px" height="249.45px" viewBox="0 0 178.58 249.45" enable-background="new 0 0 178.58 249.45" xml:space="preserve">
<path fill="#FFFFFF" d="M9.941,1.32H170.72c4.696,0,8.504,3.808,8.504,8.504v231.644c0,4.696-3.808,8.504-8.504,8.504H9.941
	c-4.696,0-8.504-3.808-8.504-8.504V9.824C1.438,5.128,5.245,1.32,9.941,1.32z"/>
<path fill="none" stroke="#000000" stroke-width="1.0006" d="M9.941,1.32H170.72c4.696,0,8.504,3.808,8.504,8.504v231.644
	c0,4.696-3.808,8.504-8.504,8.504H9.941c-4.696,0-8.504-3.808-8.504-8.504V9.824C1.438,5.128,5.245,1.32,9.941,1.32z"/>
<path fill="#D40000" d="M15.486,57.12c-1.722-2.846-3.532-5.612-5.795-7.975c2.263-2.362,4.073-5.129,5.795-7.975
	c1.721,2.846,3.531,5.612,5.794,7.975C19.018,51.508,17.207,54.274,15.486,57.12z"/>
<path fill="#D40000" d="M165.176,210.121c-1.721-2.846-3.531-5.611-5.794-7.975c2.263-2.362,4.073-5.129,5.794-7.975
	c1.722,2.846,3.532,5.612,5.795,7.975C168.708,204.51,166.897,207.275,165.176,210.121z"/>
<path fill="#D40000" d="M49.287,65.67c-4.131-6.83-8.477-13.468-13.907-19.139c5.431-5.671,9.776-12.309,13.907-19.139
	c4.13,6.83,8.476,13.468,13.906,19.139C57.763,52.202,53.417,58.84,49.287,65.67z"/>
<path fill="#D40000" d="M131.375,223.909c-4.131-6.83-8.477-13.468-13.906-19.139c5.431-5.671,9.775-12.309,13.906-19.139
	c4.131,6.83,8.476,13.468,13.906,19.139C139.851,210.441,135.506,217.079,131.375,223.909z"/>
<path fill="#131F67" d="M25.315,230.572V20.721h130.031v209.852H25.315z M72.127,55.614c-4.65-1.27-4.537,3.357-1.133,3.53
	c3.814,0.329,5.447-6.186,3.627-8.753C74.621,50.392,73.035,55.299,72.127,55.614z M41.955,81.775l-5.584,2.496l-0.022,4.177
	C38.678,86.593,40.497,84.329,41.955,81.775z M80.069,207.271c-1.099-0.556-2.424-1.75-2.22-1.959
	c0.101-0.104,0.695,0.084,1.236,0.327c4.363,1.842,7.751,1.724,12.954-0.169c0.394-0.143,0.982,0.609,0.763,1.022
	C90.498,209.907,83.042,208.693,80.069,207.271z M77.77,202.146c-1.003-1.508,0.326-0.365,0.772,0.063
	c3.229,3.009,7.603,4.027,11.358,1.193c0.175-0.194,0.198-0.375,0.146-0.511c-0.106-0.277-0.109,0.019-1.714,0.577
	c-3.604,1.352-6.643,0.241-9.604-2.03c-1.22-0.942-1.787-1.406-1.787-1.652c0-0.227,0.229-0.367,0.639-0.297
	c0.254,0.044,0.964,0.191,1.483,0.234c0.901,0.074,0.832,0.035,1.756-0.392c1.976-0.914,3.795-1.247,5.858-0.877
	c0.478,0.086,1.078,0.244,1.16,0.218c0.462-0.155-0.22-0.765-1.969-2.154c-0.345-0.273-0.772-0.508-0.914-0.745
	c-0.221-0.368,0.02-0.466,0.269-0.463c0.72,0.009,3.95,2.715,5.059,4.321c0.337,0.488,0.569,0.54,0.57,1.049
	c-0.064,0.527-0.149,1.033,0.421,1.771c0.409,0.53,0.805,1.383,0.809,1.424c0.008,0.046-0.082,0.313-0.456,0.066
	c-0.171-0.032-0.253-0.215-0.565-0.17c-0.271,0.039-0.714,0.254-1.199,0.483C85.333,207.173,81.164,205.749,77.77,202.146z
	 M87.688,201.941c0.091,0.01-0.313-1.668-0.769-2.162c-0.899-0.976-2.271-1.153-3.099-0.155c-0.466,0.562-0.979,2.127-0.979,2.127
	s0.727,0.214,0.93,0.214c0.028-0.351,0.03-1.331,0.751-1.906c0.355-0.279,1.119-0.271,1.417-0.038
	c0.591,0.29,0.84,1.466,0.848,1.924C87.11,202.045,87.854,201.953,87.688,201.941z M82.213,199.525
	c-0.638,0.285-1.468,0.478-1.658,0.905c-0.251,0.565,0.636,0.735,1.097,0.926c0.638,0.309,0.652,0.195,0.858-0.297
	c0.129-0.308,0.299-0.709,0.461-1.078C83.448,199.058,82.971,199.186,82.213,199.525z M89.121,201.131
	c0.367-0.368,0.437-0.611,0.108-1.029c-0.147-0.189-0.571-0.382-1.032-0.537c-0.592-0.199-0.85-0.441-0.479,0.361l0.531,1.146
	C88.521,201.622,88.761,201.476,89.121,201.131z M28.713,161.961c0.225,0,2.453-0.732,3.246-1.086
	c0.786-0.301,0.88-0.292,0.567-0.728c-0.117-0.163-0.212-0.624-0.155-1.129l0.059-0.704c-1.373-0.279-3.423,0.482-4.129,1.445
	C27.799,160.374,27.851,161.743,28.713,161.961z M28.434,165.395c0.417,0.418,0.532,0.433,1.785-0.033
	c0.438-0.294,1.355-0.661,1.998-0.703c1.51-0.402,1.51-0.243,1.082-1.211c-0.196-0.446-0.261-0.814-0.199-1.227
	c0.073-0.487,0.131-0.555-0.144-0.641c-0.722-0.226-4.078,1.031-4.68,2.01C27.854,164.279,27.909,164.869,28.434,165.395z
	 M106.51,198.555c0.063,0.772,0.08,1.973,0.082,2.617c-0.031,1.258,0.472,1.551,1.008,0.861c0.528-1.641,0.74-4.233,2.002-5.545
	c0.936-0.271,2.085,0.208,2.754-0.442c1.538-1.493,0.332-3.181-1.075-3.302C108.397,192.689,106.306,196.201,106.51,198.555z
	 M113.54,194.526c0.101,1.594-1.485,2.68-3.097,2.311c-0.652-0.165-0.849-0.015-1.287,0.919c-0.949,2.563-1.326,5.132-1.578,6.813
	c-0.108,1.513-0.663,5.449-0.262,6.704c4.594,5.688,9.429,11.611,14.723,17.465h31.585v-37.153l-9.051-8.666l0.018-13.739
	c-9.79,4.622-19.551,9.308-29.322,13.97c2.13,6.843-5.091,8.277-6.674,3.691c-1.37,1.259-2.493,8.052-1.988,8.388
	c0,0,0.182,0.245,0.485-0.296c0.499-0.889,1.152-1.545,1.852-1.978C110.979,191.691,113.4,192.314,113.54,194.526z M88.478,193.833
	c-1.546-1.23-0.718-3.107,0.565-3.67c0.681-0.298,1.772-0.258,2.975,0.167c1.056,0.486,1.686,0.418,2.768,0.284
	c0.719-0.08,0.585,1.426-0.165,1.814c-0.528,0.274-1.739,0.145-3.214-0.696c-2.542-1.45-3.659,0.43-2.084,2.127
	C90.195,194.795,88.7,194.045,88.478,193.833L88.478,193.833z M36.135,171.337c1.359-0.876,0.795-2.423-0.472-2.681
	c-1.704,0.036-2.138,1.997-0.918,2.675c0,0.238-0.606,0.044-0.935-0.202c-0.508-0.381-0.045-1.872-0.518-1.932
	c-0.36,0.006-3.881,1.254-4.261,1.503c-1.582,0.899-0.098,2.93,0.82,2.697C31.76,172.916,34.352,172.486,36.135,171.337z
	 M28.266,168.436c0.032,0.904,0.285,1.307,0.877,1.314c1.239-0.215,2.393-0.808,3.549-1.183c0.903-0.296,1.27-0.63,0.582-1.196
	c-0.209-0.239-0.394-0.582-0.293-1.234c0.236-0.746,0.056-0.783-0.261-0.819c-0.314-0.037-1.033,0.266-2.878,0.975
	c-0.971,0.374-1.157,0.535-1.408,1.07C28.32,167.772,28.25,168.023,28.266,168.436L28.266,168.436z M38.531,180.106
	c0.213-0.251,0.687-1.827,0.687-2.217c-0.097-0.649-0.578-0.796-1.004-0.377c-0.519,0.465-0.38,1.167-0.687,1.705
	c-0.107,0.188-0.221,0.446-0.189,0.552C37.504,180.336,38.2,180.44,38.531,180.106z M42.569,171.525
	c15.78-16.838,25.557-40.14,8.455-72.277c-1.046-1.029-2.51,2.307-2.693,2.434l-2.185,1.908c11.576,20,9.565,43.008-4.589,59.367
	l0.015,1.038c0.034,2.285,0.69,2.187,1.649,1.117c1.017-1.074,0.337-0.199-0.079,0.243c-0.357,0.379-0.927,1.136-1.078,1.333
	C42.25,168.059,43.111,170.613,42.569,171.525z M41.522,166.467c-0.162-0.455-0.335-1.494-0.423-2.294
	c-0.055-0.521-0.077-1.013-0.104-1.521c-0.168-1.013-0.58-3.335-0.914-3.847c-0.361-0.552-1.244-0.955-2.228-1.019
	c-0.841-0.054-0.911-0.039-1.091,0.235c-0.308,0.472-0.097,2.85,0.217,3.721c0.352,1.023,0.145,1.579-0.142,2.593
	c-0.099,0.366-0.136,0.392,0.045,0.418c0.787-0.056,1.05-1.023,1.36-0.735c0.105,0.105-0.168,0.9-0.535,1.702
	c-0.388,0.847-0.503,2.013-0.042,3.447c0.258,0.804,0.148,1.058-0.009,1.542c-0.104,0.324-0.286,1.316-0.292,2.304
	c0.368,1.237,0.183,1.792-0.033,2.201c-0.47,1.05-0.833,2.474-0.58,3.272c0.111,0.352,0.4,0.051,0.613-0.55
	c0.331-1.187,0.718-1.45,1.69-1.45c0.707,0,0.774,0.248,1.009-0.069c0.531-0.721,1.83-3.273,1.854-3.984
	C42.422,170.617,42.447,169.059,41.522,166.467L41.522,166.467z M49.068,178.386c0.43-0.163,1.089-1.071,1.09-1.385
	c0-0.345-2.646-2.923-3.748-3.635c-0.499-0.322-0.736-0.094-1.618,1.097c-0.784,1.057-0.888,1.066-0.741,1.27
	c0.175,0.245,2.871,2.002,3.766,2.5C48.127,178.405,48.651,178.545,49.068,178.386z M54.027,173.797
	c-0.395-0.303-3.561-3.82-4.501-3.995c-0.357-0.066-1.503,1.24-1.503,1.536c0,0.204,1.978,2.221,3.379,3.446
	c0.4,0.351,0.842,0.637,0.982,0.637C52.83,175.191,53.972,174.269,54.027,173.797z M57.393,170.479c0-0.209-0.35-0.638-1.202-1.477
	c-2.172-2.138-3.381-3.115-3.763-3.112c-0.415,0.139-1.168,1.406-1.213,1.848c0.142,0.265,3.775,3.565,4.245,3.886
	C56.041,172.186,57.312,170.877,57.393,170.479z M60.799,167.07c0.094-0.313-0.088-0.582-0.548-1.022
	c-0.326-0.313-1.484-1.449-2.574-2.525c-2.284-2.255-2.29-2.257-3.023-1.203c-0.755,1.085-0.751,1.094,1.476,3.271
	c2.374,2.32,2.931,2.791,3.299,2.791C59.99,168.121,60.604,167.687,60.799,167.07z M35.338,165.035
	c-0.397-0.119-0.764-0.049-1.076,0.201c-1.683,1.434,0.704,3.278,1.687,2.128C36.602,166.718,36.575,165.329,35.338,165.035z
	 M64.295,163.534c0-0.24-0.49-0.778-2.188-2.402c-4.2-4.018-4.012-3.865-4.477-3.615c-0.291,0.156-0.855,1.236-0.855,1.637
	c0,0.301,0.404,0.718,3.518,3.63c1.824,1.708,2.365,2.14,2.68,2.14C63.471,164.676,64.273,164.142,64.295,163.534z M35.445,163.686
	c0.824-0.36,0.979-1.254,0.511-1.961c-0.897-0.792-2.145-0.138-2.165,0.884C33.946,163.564,34.756,163.969,35.445,163.686z
	 M67.747,160.16c0-0.479-7.192-7.218-7.704-7.218c-0.348,0-0.597,0.282-0.923,1.045c-0.283,0.662-0.255,1.054,0.102,1.397
	c0.521,0.501,1.906,1.781,3.225,2.977c0.78,0.708,1.676,1.552,1.991,1.877c0.74,0.761,1.555,1.35,1.866,1.35
	C66.75,161.327,67.368,160.975,67.747,160.16z M35.068,159.292c0.008-0.271-0.063-0.547-0.256-0.753
	c-0.494-0.526-1.412-0.25-1.642,0.448C32.961,160.628,35.002,160.7,35.068,159.292z M40.395,106.844l1.406-4.309l4.299-0.111
	l0.602-4.283l4.424-0.638l0.07-4.426l4.231-0.579l-0.261-4.739l3.924-0.931l-0.195-4.388l3.565-1.096l-0.144-3.819l0.613-0.481
	l-1.542-1.571l-1.328,0.433l-0.023,3.925l-3.562,1.148l0.375,4.344l-3.599,0.822l-0.046,4.723l-4.135,0.465l-0.296,4.166
	l-4.033,0.797l-0.602,4.081l-3.915,0.267l-1.194,3.588l-2.587,0.029v2.401L40.395,106.844z M87.155,183.938
	c-0.135-0.323,0.218-0.275,0.832,0.114c0.643,0.406,1.579,0.746,2.245,0.747c0.277,0,1.269-0.177,2.203-0.394
	c1.116-0.411,2.106-0.436,3.267-0.184c0.862,0.116,1.73,0.21,1.929,0.208c0.576,0.081,1.554-0.632,1.814-1.08
	c0.709-1.215,0.541,0.993,0.544,1.245c0.013,1.131,0.153,2.431-0.655,1.826c-0.479-0.248-1.313-0.468-1.979-0.021
	c-0.672,0.449-1.227,0.544-2.014,0.07c-0.646-0.255-0.986-0.309-1.469,0.141c-0.538,0.501-1.844,0.322-2.544,0.093
	c-1.201-0.2-1.875-0.375-2.68,0.263c-0.43,0.247-0.541,0.063-0.864-0.891C87.461,185.121,87.205,184.058,87.155,183.938z
	 M90.215,183.141c-0.076-0.123,0.568-0.756,1.004-0.982c1.279-0.662,3.82-0.633,5.637,0.039c0.947,0.352,1.094,0.951,0.172,0.824
	c-1.917-0.402-4.322-0.734-6.175,0.149C90.707,183.249,90.251,183.199,90.215,183.141z M91.837,180.141
	c-1.312-0.487-1.954-1.007-1.954-1.172c0-0.178,0.281-0.146,1.312,0.137c1.404,0.521,3.064,0.797,4.449,0.311
	c0.997-0.369,1.494-0.603,1.494-0.381c0,0.235-0.412,0.847-1.097,1.198C94.679,180.79,92.881,180.526,91.837,180.141z
	 M120.295,176.492l0.973-0.134l-0.338-4.068l3.585-1.065l-0.252-4.047l3.819-1.316l-0.228-4.554l3.97-0.784l0.518-3.984l3.747-0.268
	l0.776-4.336l4.025-0.139l0.829-3.604l2.679-0.018l-0.012-2.023l-4.172,0.013l-0.884,3.9l-3.938,0.114l-0.836,4.284l-4.128-0.03
	l-0.528,4.618l-3.883,0.638v4.973l-3.745,0.974l0.29,4.252l-3.741,1.368l0.423,4.058L120.295,176.492z M145.316,81.036
	c-0.535,0.382-0.737,1.139-0.572,1.756c0.527,1.395,2.384,0.96,2.604-0.056c0.109-0.439-0.182-1.104-0.688-1.248
	c-0.089-0.025-0.403,0.004-0.567-0.166c-0.119-0.122,0.619-0.501,1.055-0.357c0.543,0.18,0.987,0.899,0.988,1.522
	c0,0.242-0.068,0.601,0.02,0.721c0.897-0.022,1.926-0.518,2.889-0.784c1.625-0.452,2.214-1.387,1.854-2.481
	c-0.301-0.912-1.232-1.273-2.457-0.813C148.759,79.764,146.786,80.066,145.316,81.036z M75.878,180.91
	c5.508-3.877,8.751-6.093,15.819-6.475c-2.521-1.04-2.934-2.405-3.643-3.712c-8.757,0.829-13.407,3.631-17.567,6.247
	C72.206,177.781,74.002,178.725,75.878,180.91z M106.578,175.533c-2.671-1.892-5.85-3.034-9.146-3.918l-2.527,2.623
	C94.758,174.146,102.222,174.314,106.578,175.533z M132.222,150.647c-17.226-26.521-5.654-49.858,6.323-64.729
	c0.385-0.488,0.479-0.513,0.392-0.9c-0.114-0.512-0.255-3.089-0.168-4.578c-22.141,21.985-22.708,50.626-8.82,73.357
	C130.941,152.909,132.943,151.725,132.222,150.647z M134.805,148.379c-2.828-4.718-17.889-30.266,5.115-58.766
	c0,0-0.079-1.453-0.25-1.999c-0.309-0.978-0.789-1.373-0.789-1.373c-9.662,14.532-23.703,32.715-6.166,64.293L134.805,148.379z
	 M121.634,100.297c0.344-0.281,0.845-1.304,0.845-1.726c0-0.376-0.271-0.69-2.866-3.329c-3.46-3.516-4.057-4.054-4.499-4.054
	c-0.419,0-1.511,1.037-1.511,1.435c0,0.19,1.019,1.289,3.421,3.692C121.482,100.775,121.271,100.593,121.634,100.297z M124.82,93.82
	c0-0.212-0.32-0.632-1.078-1.414c-2-2.063-4.853-4.676-5.103-4.676c-0.319,0-1.192,0.707-1.421,1.151
	c-0.161,0.313-0.158,0.384,0.031,0.679c0.354,0.553,4.814,4.796,6.083,5.863C124.095,96.125,124.784,94.353,124.82,93.82z
	 M126.545,91.188c0.354-0.189,1.023-1.444,0.942-1.766c-0.037-0.149-1.169-1.37-2.515-2.712c-2.662-2.654-2.817-2.75-3.48-2.155
	c-0.602,0.538-0.978,1.077-0.903,1.294c0.091,0.265,4.075,4.323,4.89,4.98C126.122,91.35,126.197,91.375,126.545,91.188z
	 M146.857,90.992c1.251-1.203-0.167-2.523-1.197-1.914c-0.438,0.271-0.699,0.863-0.564,1.257
	C145.318,90.987,146.201,91.344,146.857,90.992z M149.334,90.686c2.118-0.558,3.132-0.93,3.575-1.591
	c0.307-0.458,0.342-0.739,0-1.485c-0.318-0.689-0.69-0.899-2.017-0.172c-0.911,0.501-2.939,0.74-3.649,1.16
	c-0.284,0.244-0.146,0.242,0.083,0.387c0.511,0.325,0.76,0.547,0.704,0.977c-0.121,0.936-0.024,1.078,1.308,0.725H149.334z
	 M147.093,87.359c1.028-0.527,0.82-1.799-0.328-2.304c-1.516-0.4-2.491,1.428-1.251,2.318
	C145.846,87.607,146.689,87.566,147.093,87.359z M150.51,86.844c1.486-0.51,2.059-0.91,2.487-1.733
	c0.34-0.652,0.194-0.943,0.149-1.574c-0.068-0.956-0.548-0.847-1.934-0.347c-0.676,0.262-3.912,1.175-3.958,1.507
	c1.563,0.895,1.163,1.366,1.177,2.509C148.513,87.465,149.246,87.278,150.51,86.844z M130.244,85.321
	c0-0.432-4.154-4.508-4.594-4.508c-0.687,0-1.669,1.068-1.522,1.655c0.067,0.266,3.962,4.193,4.448,4.484
	C129.257,87.353,130.201,85.972,130.244,85.321z M132.631,82.78c0.18-0.142,0.497-0.506,0.707-0.811
	c0.447-0.652,0.415-1.016-0.12-1.359c-0.196-0.126-1.066-0.916-1.936-1.755c-0.868-0.84-1.691-1.567-1.828-1.618
	c-0.717-0.096-2.011,1.054-1.876,1.642c0.076,0.309,3.261,3.449,3.971,3.919C132.008,83.102,132.229,83.098,132.631,82.78z
	 M138.256,76.709c0-0.116-0.723-0.582-1.879-1.213c-3.538-1.926-3.599-1.938-4.704-1.036c-0.38,0.309-0.689,0.661-0.689,0.783
	c0,0.124,0.767,0.947,1.744,1.874c2.028,1.923,2.527,2.338,2.811,2.338C136.123,79.024,138.166,77.242,138.256,76.709z
	 M143.208,74.898c0.437-0.524,0.927-2.34,0.694-2.706c-0.215-0.215-0.766-0.182-1.031,0.059c-0.272,0.247-0.945,2.528-0.842,2.799
	C142.135,75.325,142.829,75.196,143.208,74.898z M104.563,152.196c0.336-0.045,0.99-0.454,1.944-1.275
	c1.019-0.876,4.247-2.828,4.598-3.612c0.157-0.446,0.043-1.086-0.294-1.135c-0.256-0.037-0.311,0.159-2.457,1.709
	c-1.447,1.046-3.991,2.914-4.373,3.311C103.813,151.618,104.189,152.152,104.563,152.196z M104.263,164.688
	c2.209-1.536,3.999-3.127,6.88-4.905c0.223-0.294,0.256-0.732,0.121-1.09c-0.168-0.442-0.4-0.268-1.271,0.34
	c-2.123,1.433-4.308,3.121-6.137,4.372c-0.586,0.398-1.08,0.618-0.957,0.843C103.063,164.545,103.97,164.635,104.263,164.688z
	 M106.411,165.631c1.453-1.19,3.192-2.328,4.744-3.479c0.217-0.218,0.273-0.95,0.051-1.25c-0.176-0.237-0.03-0.193-0.46,0.051
	c-0.628,0.357-4.387,2.925-5.087,3.505c-0.408,0.339-0.748,0.508-0.646,0.625C105.482,165.386,105.98,165.572,106.411,165.631z
	 M108.237,166.554c0.301-0.202,2.884-1.856,3.092-2.076c0.237-0.252,0.169-1.378-0.063-1.467c-0.652,0.521-4.098,2.623-4.104,2.962
	C107.514,166.288,107.977,166.579,108.237,166.554z M111,166.784c0.396-0.364,0.476-0.427,0.483-0.835
	c0.016-0.739-0.167-0.707-1.22,0.046c-0.734,0.476-1.182,0.811-1.05,1.097C109.736,167.91,110.477,167.265,111,166.784z
	 M111.284,168.295c0.206-0.077,0.208-0.184,0.179-0.441c-0.034-0.287-0.075-0.275-0.388-0.275
	C110.238,167.609,110.993,168.369,111.284,168.295z M101.227,164.156c0.38-1.256,0.912-2.249,1.781-3.19
	c3.475-3.085,2.413-6.883,0.219-9.975c2.839-3.982,5.674-8.201,8.113-12.067l-0.009-6.284l0.327,0.034
	c-0.113,13.715,0.512,36.203,0.512,36.203l2.823,2.157l-0.38,0.188C115.077,171.15,106.395,165.704,101.227,164.156z
	 M103.777,162.59c2.404-1.816,4.742-3.246,7.125-5.182c0.254-0.209,0.403-0.221,0.41-0.695c0.014-0.905-0.166-0.915-1.057-0.276
	c-0.395,0.283-1.84,1.296-3.212,2.224c-1.432,0.968-2.758,1.829-3.024,2.139c-1.341,1.558-1.837,2.291-1.699,2.514
	C102.464,163.546,102.736,163.294,103.777,162.59z M106.399,158.186c1.234-0.814,4.189-2.869,4.458-3.123
	c0.469-0.441,0.551-1.144,0.128-1.225c-0.206-0.039-2.493,1.488-4.427,2.957c-0.94,0.715-1.15,0.88-1.15,1.553
	C105.408,158.756,105.654,158.678,106.399,158.186z M107.631,154.985c3.787-2.697,3.689-2.47,3.607-3.474
	c-0.028-0.34-0.104-0.494-0.254-0.522c-0.117-0.022-0.787,0.46-1.54,0.991c-0.754,0.531-1.652,1.244-2.103,1.558
	c-1.316,0.915-1.752,1.161-1.752,1.686c0,0.517,0.139,0.843,0.367,0.843C106.043,156.066,106.796,155.58,107.631,154.985z
	 M107.088,152.896c1.743-1.234,3.665-2.627,3.927-2.957c0.318-0.402,0.262-1.276-0.145-1.276c-1.75,1.172-3.856,2.712-5.337,3.929
	c-0.192,0.169-0.436,0.331-0.512,0.552c-0.015,0.286,0.344,0.663,0.486,0.675C105.796,153.819,106.24,153.496,107.088,152.896
	L107.088,152.896z M105.951,148.72c1.332-0.904,2.543-1.979,3.866-2.891c0.993-0.681,1.274-0.892,1.216-1.748
	c-0.034-0.494-0.468-0.21-2.15,0.913c-1.234,0.823-1.801,1.148-2.238,1.712c-0.307,0.711-1.318,1.379-1.373,2.191
	C105.271,149.199,105.471,149.056,105.951,148.72L105.951,148.72z M110.04,143.286c1.022-0.679,1.12-0.694,1.009-1.596
	c-0.139-1.129-0.254-1.063-1.232,0.434c-0.643,0.983-0.862,1.269-0.765,1.451C109.219,143.888,109.402,143.709,110.04,143.286z
	 M106.314,134.982c-0.107-0.503-0.262-0.394-0.776,0.06c-0.948,0.833-1.097,1.437-0.507,1.753c0.313,0.168,0.556,0.148,0.742-0.263
	C106.175,135.645,106.287,135.332,106.314,134.982z M101.008,142.872c-0.122-0.458-0.682-1.083-1.106-1.304
	c-0.423-0.219-0.679-0.178-1.082,0.336c-0.371,0.474-0.198,0.755,0.36,1.462c0.408,0.519,0.574,0.684,0.896,0.684
	C100.467,143.896,101.09,143.37,101.008,142.872z M80.469,162.656c-0.27-0.523-0.845-1.076-1.107-0.983
	c-0.279,0.098-0.551,0.498-0.555,0.75c0.115,0.515,0.549,0.862,0.882,0.872C80.316,163.206,80.697,163.097,80.469,162.656z
	 M82.974,161.858c-0.541-0.571-1.61-1.832-1.785-1.832c-0.274,0-0.927,0.687-0.927,0.969c0,0.333,0.974,1.699,1.297,1.809
	C82.378,162.728,83.882,162.819,82.974,161.858z M86.064,162.02c-0.057-0.276-3.101-3.52-3.326-3.52
	c-0.29,0-0.863,0.639-0.863,0.933c0,0.237,0.983,1.522,1.892,2.474c0.452,0.473,0.493,0.541,1.047,0.454
	C85.418,162.266,86.205,162.397,86.064,162.02z M91.445,161.295c0-0.654-0.342-1.014-1.717-2.504
	c-0.499-0.541-1.342-1.48-1.873-2.088c-1.027-1.176-1.468-1.536-1.877-1.537c-0.324-0.002-0.819,0.525-0.819,0.859
	c0,0.215,2.53,3.122,4.822,5.59c0.509,0.547,0.736,0.707,1.225,0.446C91.486,161.87,91.444,161.546,91.445,161.295L91.445,161.295z
	 M87.482,153.508c-0.514,0.424-0.705,0.597-0.707,0.88c0,0.431,4.363,5.238,4.753,5.238c0.229,0,0.193-0.031,0.328-0.548
	c0.271-1.569-0.155-2.03-1.287-3.065C89.811,155.318,88.28,152.93,87.482,153.508z M95.186,150.291
	c-1.219-1.461-1.894-2.133-2.141-2.133c-0.17,0-0.424,0.164-0.697,0.467c-0.455,0.433-0.412,0.417-0.123,0.931
	c0.149,0.268,0.568,0.793,0.932,1.168c0.672,0.694,1.016,0.915,1.34,0.582C94.782,151.011,95.489,150.663,95.186,150.291z
	 M94.549,146.646c-0.297-0.004-0.797,0.533-0.797,0.825c0,0.247,0.99,1.489,1.68,2.108c0.558,0.501,0.821,0.636,1.209,0.306
	c0.291-0.423,0.225-0.809,0.044-1.131C96.191,148.191,95.111,146.671,94.549,146.646L94.549,146.646z M97.977,147.004
	c-0.009-0.426-1.256-2.051-1.651-2.213c-0.328,0-1.024,0.766-1.024,1.119c0,0.19,0.267,0.612,0.719,1.139
	c0.891,1.035,1.119,1.264,1.313,1.102C97.65,147.886,97.983,147.422,97.977,147.004z M99.384,145.174
	c0.082-0.357-0.138-0.725-0.637-1.352c-0.623-0.784-0.929-0.837-1.516-0.229c-0.217,0.224-0.317,0.42-0.317,0.528
	c0,0.299,1.307,1.963,1.549,1.963C99.023,146.015,99.195,145.605,99.384,145.174z M97.085,149.295
	c-0.116,0.537-0.343,0.888-0.86,1.138c-3.989,2.88-3.861,7.574-4.713,11.908c-6.461-0.065-16.675,2.591-16.611,2.729l34.336-34.706
	c0,0,0.426,0.106,0.165,0.41c-2.778,2.002-2.605,5.894-4.433,7.843C101.914,142.314,99.077,145.521,97.085,149.295z M78.448,163.471
	c0.056-0.393-0.304-0.499-0.619-0.184c-0.309,0.31-0.187,0.551,0.253,0.5C78.313,163.761,78.42,163.668,78.448,163.471z
	 M89.03,162.013c0.126-0.33-0.175-0.639-2.015-2.685c-1.863-2.072-2.286-2.557-2.608-2.557c-0.273,0-0.94,0.678-0.94,0.955
	c0,0.128,0.293,0.548,0.65,0.934c0.358,0.386,1.038,1.143,1.51,1.683c0.814,0.93,1.201,1.379,1.511,1.596
	c0.304,0.213,0.534,0.201,1.021,0.201C88.828,162.14,88.973,162.162,89.03,162.013z M92.213,155.5
	c0.127-0.408,0.308-0.768,0.309-0.921c0-0.284-2.35-2.687-2.748-2.944c-0.476-0.309-1.371,0.699-1.148,1.287
	c0.062,0.162,0.762,0.986,1.555,1.832c1.01,1.074,1.514,1.58,1.678,1.556C92.025,156.283,92.049,156.03,92.213,155.5z
	 M93.196,152.976c0.172-0.254,0.313-0.589,0.313-0.744c0-0.177-0.395-0.654-0.957-1.288c-1.049-1.182-1.318-1.317-1.893-0.767
	c-0.572,0.549-0.378,0.803,0.628,1.944C92.547,153.551,92.689,153.724,93.196,152.976L93.196,152.976z M102.188,141.693
	c0.392-0.466,0.4-0.697,0.042-1.122c-0.152-0.182-0.374-0.445-0.492-0.587c-0.323-0.388-0.75-0.323-1.19,0.18
	c-0.21,0.239-0.35,0.481-0.349,0.564c0,0.082,0.227,0.414,0.502,0.736C101.322,142.19,101.705,142.269,102.188,141.693z
	 M103.566,139.913c0.266-0.407,0.146-0.854-0.352-1.31c-0.472-0.432-0.706-0.449-1.037-0.081c-0.442,0.493-0.371,0.658,0.104,1.186
	C102.82,140.305,103.252,140.394,103.566,139.913z M104.671,138.436c0.368-0.368,0.36-0.684,0.03-1.104
	c-0.309-0.394-0.628-0.501-0.953-0.326c-0.565,0.303-0.506,0.824,0.051,1.411C104.137,138.774,104.295,138.812,104.671,138.436z
	 M78.398,212.466c7.032,0.789,14.587,1.341,27.904-0.732l0.067-4.528c-4.154,3.245-9.607,1.021-9.921-2.716
	c-0.037-3.329,0.85-7.17,1.598-9.909c0.557-2.035,0.716-2.82,0.195-3.217c-1.149-0.648-3.188-0.73-3.709-2.083
	c-0.25-0.714-0.273-1.478,0.091-0.934c0.168,0.25,1.494,0.868,2.53,1.1c1.803,0.403,2.094,0.538,2.298,1.28
	c0.129,0.469-0.168,2.086-0.644,3.545c-0.34,1.045-0.737,2.723-0.737,3.047c0,0.354,0.277,0.411,0.587,0.313
	c0.133-0.042,0.768-0.678,1.166-1.035c1.732-1.549,2.236-1.502,0.756,0.013c-0.589,0.603-1.4,1.435-1.4,1.497
	c0,0.321,0.301,0.284,0.965,0.044c1.025-0.371,3.428-0.326,4.496,0.212c1.328,0.669,1.385,0.639,1.354-1.389
	c-0.239-3.788-0.855-8.271-2.087-11.769c-1.88-5.335-5.781-10.286-11.547-10.063c-7.027,0.367-11.268,3.171-16.049,6.53
	c2.887,6.418-1.286,11.335-2.798,11.983c-0.146,0.063,1.893,6.524,2.763,9.808C77.068,206.444,78.398,212.466,78.398,212.466z
	 M108.313,57.654c-0.163-0.423-4.072-13.187-5.165-18.525c-10.569-0.615-18.384-1.495-27.689,1.152c0,0-0.202,3.596-0.105,3.771
	c0.096,0.444,0.415,0.434,0.677,0.288c4.299-2.366,8.957-1.3,9.28,4.535c0.123,2.229-0.624,3.8-0.76,5.913
	c-0.119,1.847-1.568,4.308-0.69,5.71c0.113,0.172,0.731,0.512,1.578,0.875c1.578,0.677,2.196,1.298,2.312,2.332
	c0.172,0.713-0.264,1.192-0.395,0.46c-0.083-0.465-0.165-0.875-2.113-1.543c-1.898-0.651-2.41-1.407-2.6-1.805
	c-0.262-0.549-0.212-0.938,0.032-1.812c0.521-1.86,1.032-3.758,0.985-4.654c-0.017-0.322-0.373-0.165-0.829,0.223
	c-0.579,0.494-3.056,2.127-3.124,2.058c-0.033-0.032,0.408-0.69,1.102-1.354c0.841-0.806,1.887-1.782,1.887-1.961
	c0-0.316-0.123-0.097-0.938,0.146c-1.421,0.392-3.059,0.336-4.159-0.151c-0.934-0.412-1.589-0.651-1.728-0.426
	c-0.346,5.685,0.497,11.544,2.877,16.115c2.133,4.153,6.564,9.354,13.229,8.188c6.886-1.206,13.585-6.756,13.345-6.763
	C102.751,64.597,105.68,60.255,108.313,57.654L108.313,57.654z M53.728,212.844c-3.052-3.062-10.742-6.393-16.028-7.921
	c-0.424-0.091-0.84-0.293-0.843,0.209l-0.063,10.508l-9.506,8.871v4.227h20.269l13.305-19.54c0,0,0.642-0.115,0.712-0.235
	c-2.442-10.379-6.119-18.668-8.456-22.822c0.039,0.052-3.359,2.751-6.348-0.605c-1.677-1.883-0.648-5.19,0.943-6.403
	c-1.343-0.989-4.124-2.783-5.947-3.301c-0.379-0.093-0.944,0.676-1.13,1.372c-0.333,1.13-0.888,2.142-1.259,3.281
	c-0.409,0.952-0.803,1.096-1.413,0.828c-0.95-0.282-1.202-0.381-1.202-0.381l0.031,12.353
	C44.085,195.818,51.591,202.313,53.728,212.844L53.728,212.844z M84.037,80.834l2.16-2.352c-3.418-0.42-7.001-1.032-11.194-2.352
	C77.914,78.3,80.963,79.642,84.037,80.834z M72.164,74.22c3.81,1.272,8.631,4.241,14.65,3.123
	c-5.487-2.181-9.654-7.276-11.43-17.651c-0.388,2.014-1.191,6.201-2.455,6.654c-1.775-6.885-8.914-2.881-6.052,2.734
	c-7.235,4.981-15.935,7.792-23.825,11.634c0,0-1.188,3.651-7.098,8.655c-1.116-5.866,0.214-14.568-0.479-20.462l-9.266-8.769
	c0.142,1.67,0.077,2.706,0,4.661c0.254,0.341,0.605,0.52,0.962,0.732c0.599,33.79-0.206,67.192-0.199,97.884
	c-0.092,18.809,0.405,38.406,0.13,56.164l-0.346,0.643l0.014,4.244l9.461-9.026c0,0-0.439-6.405,0.057-11.299
	c5.971,1.204,11.539,4.016,16.532,7.099c0.629,0.176-3.063-12.297-16.491-17.836c0,0-0.019-3.896-0.019-12.363
	c0-8.17-0.127-9.034-0.308-9.167c-0.544,0.592-7.415,2.911-7.764,2.52c0.184,0.062-1.938-14.461-0.104-16.666l6.574,0.139
	c1.88,1.521,1.124-0.331,2.216-0.636c0.654-0.177,3.695,1.01,3.695,1.01c12.528-14.817,11.276-39.187,2.285-52.897
	c-2.304,1.874-4.752,4.414-7.062,5.505l-0.043-7.561c11.972-7.698,24.993-29.999,24.162-30.074c0,0,3.707,3.617,5.146,5.662
	L53.293,96.023c2.707,5.461,5.445,10.413,7.222,15.215c0.24,0.649,0.98,0.631,1.167,1.314c0.16,0.584-0.552,1.396-0.454,2.04
	c2.494,9.557,3.06,19.696,0.599,28.883c-0.518,2.067,0.432,3.744,1.702,5.299c0.105,0.136-1.184-1.117-1.299-1.187
	c-0.442-0.266-1.179,0.667-1.334,1.844c0.103,0.721,0.493,0.848,1.011,1.433c0.912,0.76,4.535,4.334,6.131,5.967
	c1.417,1.45,1.783,1.516,2.738,0.487c0.27-0.252,0.55-0.596,0.811-0.809c0.049,0.079,0.402-0.289,0.522-0.407l21.341-20.87
	c2.479-2.425-21.31,21.898-21.31,21.898s-11.536,11.347-14.365,14.144c-2.923,2.89-3.317,3.521-3.435,3.736
	c-0.209,0.383,0.942,0.372,1.467,0.295c0.042-0.007-0.44,0.11-0.927,0.107c-3.005-0.408-4.028,2.654-5.922,3.324
	c-5.011,3.565-1.642,9.29,3.146,7.399l1.166-0.562c2.902,5.399,7.087,15.235,9.051,23.784l-0.791,0.367l-12.623,18.973h71.586
	c-5.142-5.129-9.516-11.427-13.971-16.14c-7.139,2.14-28.727,1.703-28.385,0.772c0,0-3.27-13.258-5.117-19.771
	c5.868-5.036,5.267-12.979-3.252-16.546c6.202-4.906,12.445-6.569,18.531-6.968c1.978,5.031,6.619,5.348,8.811,0.741
	c0.015-0.052,8.231,2.53,11.261,5.325c-4.492-0.466-8.928-1.361-13.423-1.576c3.956,1.564,7.984,5.653,9.275,10.328
	c0.631,1.67,1.598,7.182,1.854,7.202c0,0,1.499-6.366,2.661-6.017c2.965,6.199,8.077,1.536,5.923-3.402
	c7.552-3.61,16.048-7.644,22.994-10.991c2.027-3.063,7.012-8.88,7.34-8.905c0,0,9.168-52.629,9.166-70.223
	c-0.304-21.151,0.369-44.695-0.541-64.479v-5.632H134.3l-13.824,20.323c0,0-0.104,0.322-0.103,0.463
	c1.887,8.219,4.308,15.213,8.106,22.806c5.241-3.967,9.659,2.565,5.728,6.357c-0.738,0.713-0.54,0.893,0.198,1.388
	c0.728,0.488,5.702,2.996,5.935,2.996c0.899-1.339,1.16-3.317,1.767-4.828c0.153-0.575,0.587-0.646,1.453-0.544
	c1.114,0.131,1.108,0.596,1.071-6.508l-0.031-6.101c-6.721-3.102-15.619-10.987-16.034-19.188
	c3.886,2.833,12.814,6.951,15.199,7.319c1.047,0.294,0.886-1.535,0.919-2.269c0.283,0.189,0.386,3.015,0.386,3.015
	c-3.944-1.194-6.011-0.95-15.856-6.666c1.689,8.065,9.751,14.427,15.596,17.328c0,0,0.245,3.831,0.232,8.122
	c-0.037,13.088,0.094,13.664,0.094,13.664c0-0.007,3.217-0.821,4.109-1.266c1.596-1.28,4.151-0.299,4.505,0.645
	c0.519,4.938,0.02,9.519-0.09,14.235c-2.725,0.194-4.217,0.769-5.562,0.824c-0.873-0.117-1.404-0.123-1.851-0.621
	c-1.302-2.816-1.217-1.03-1.375,1.085c-0.12,0.626-3.377-0.464-3.702-0.652c-14.066,16.225-12.868,34.903-3.314,52.201
	c1.578-1.066,4.296-3.104,7.014-4.44c0.064,2.2,0.102,6.73,0.102,6.73c-11.012,8.096-24.199,29.542-23.754,29.602l-4.474-5.352
	c0,0,2.816-4.486,3.809-5.672c0.116-0.137,0.19-1.527,0.19-1.527l6.836-9.905c-2.915-6.61-6.916-11.689-7.945-18.147
	c-4.561-20.648,0.381-30.919,0.017-31.7c0,0-0.061-0.413-0.157-0.494c-0.149-0.124,0.039-0.243,0.207-0.538
	c0.325-0.572,0.844-1.745,0.666-2.093c-0.131-0.257-3.829-3.963-7-7.014c-1.669-1.605-1.603-1.789-2.465-0.913
	c-0.318,0.325-1.104,1.251-1.104,1.251c-11.458,10.621-20.551,20.293-32.05,31.599l-0.552-0.502
	c16.727-16.657,33.607-33.149,50.173-49.969l-2.914,0.05c0.082-0.211,0.203-0.408,0.373-0.466c1.562,0.001,3.168-0.474,4.329-1.134
	c2.362-1.759,5.755-4.113,6.02-6.433c-0.17-4.464-3.928-5.11-6.641-2.928c-3.772-6.789-6.759-14.955-8.358-22.579
	c-0.075-0.379-0.607-1.031-0.687-1.464c0.809-2.531,13.618-20.021,13.618-20.021H61.169L74.86,38.823
	c0-0.652,19.512-2.961,28.448-0.234l5.442,19.369c-4.944,4.789-6.405,12.665,2.688,16.765c0.177,0.384-0.862,1.016-0.862,1.016
	c0.145-0.236,0.396-0.48,0.294-0.697c-2.45-1.073-5.074-3.791-5.074-3.791c-5.47,4.281-10.583,6.665-15.592,6.877
	c0,0,2.645,1.796,3.155,3.77l-0.31-0.109c-0.543-0.665-1.79-2.815-2.843-3.448c-1.782-0.429-2.837-0.117-4.244,0.854l-1.905,1.844
	c-4.37-1.332-9.224-3.51-11.898-6.817H72.164z M71.432,121.626l1.995-1.972c0.228-1.463,0.624-3.324,2.31-5.351
	c1.87-2.249,3.937-4.362,5.458-6.364c1.828-2.404,2.82-4.58,2.34-5.589c2.724-0.491,5.226-2.9,5.305-7.272
	c0.032-2.297,1.138-5.646,1.222-5.601c0,0,19.015-0.647,32.094-13.142c0,0,0.917,0.199,0.702,0.365
	c-4.956,4.974-10.228,8.641-16.457,10.976L72.04,122.065L71.432,121.626z M75.236,117.681c0.514-0.515,0.629-0.684,0.339-0.925
	c-0.443-0.368-1.296,0.393-1.296,1.155C74.279,118.397,74.663,118.255,75.236,117.681z M77.016,115.929
	c0.408-0.393,0.393-0.678,0.056-1.016c-0.465-0.466-1.14-0.18-1.367,0.57C75.476,116.24,76.373,116.545,77.016,115.929z
	 M78.581,114.342c0.21-0.24,0.383-0.486,0.383-0.547c0-0.266-0.656-0.869-0.945-0.869c-0.368,0-1.027,0.62-1.027,0.968
	c0,0.289,0.661,0.885,0.983,0.885C78.098,114.778,78.371,114.582,78.581,114.342z M80.057,111.387
	c-0.467-0.394-0.775-0.396-1.16-0.011c-0.448,0.449-0.402,0.942,0.133,1.413c0.406,0.425,0.581,0.384,1.131,0.044
	C80.621,112.361,80.703,111.92,80.057,111.387z M81.789,111.124c0.506-0.427,0.434-0.776-0.117-1.329
	c-0.58-0.581-1.028-0.585-1.44,0.03c-0.155,0.231-0.184,0.463-0.184,0.528c0,0.226,0.957,1.079,1.209,1.079
	C81.395,111.433,81.581,111.3,81.789,111.124z M83.455,109.476c0.43-0.449,0.375-0.771-0.241-1.406
	c-0.519-0.534-0.879-0.575-1.335-0.151c-0.473,0.438-0.374,0.901,0.158,1.435C82.576,109.893,82.977,109.977,83.455,109.476z
	 M85.343,107.562c0.315-0.334,0.23-0.308,0.008-0.67c-0.346-0.561-1.354-1.489-1.642-1.489c-0.361,0-0.677,0.579-0.674,1.148
	c0,0.566,0.279,0.797,0.996,1.362c0.477,0.376,0.331,0.41,0.697,0.194C84.933,107.988,85.209,107.742,85.343,107.562L85.343,107.562
	z M86.84,106.19c0.676-0.771,0.548-0.92-1.084-2.643c-0.553-0.584-0.668-0.65-1.063-0.617c-0.376,0.031-0.401,0.124-0.595,0.521
	c-0.356,0.73-0.092,1.103,0.934,2.196C86.088,106.774,86.244,106.871,86.84,106.19z M88.513,104.391
	c0.261-0.229,0.436-0.497,0.436-0.666c0-0.301-1.321-1.77-1.793-2.04c-0.335-0.191-0.684-0.083-1.116,0.29
	c-0.26,0.225-0.254,0.278-0.192,0.525c0.101,0.403,1.8,2.197,2.081,2.197C88.043,104.697,88.273,104.602,88.513,104.391z
	 M90.172,102.778c0.28-0.286,0.502-0.634,0.502-0.785c0-0.324-1.424-1.976-1.864-2.206c-0.374-0.197-0.593-0.115-0.962,0.405
	c-0.426,0.599-0.26,0.873,0.586,1.848c0.801,0.926,1.058,1.206,1.207,1.206C89.689,103.246,89.896,103.061,90.172,102.778z
	 M91.738,101.09c0.359-0.219,0.83-0.681,0.639-1.058c-0.202-0.386-2.695-3.032-2.964-3.177c-0.526-0.282-0.511,0.124-0.511,1.436
	v0.681l1.147,1.126C91.723,101.738,91.349,101.338,91.738,101.09z M93.766,99.226c0.198-0.198,0.385-0.533,0.383-0.657
	c-1.035-1.263-4.045-5.256-4.588-5.107c-0.057,0.016-0.08,0.018-0.118,0.132c-0.136,0.4-0.19,1.228-0.097,1.897
	c0.951,0.914,3.19,3.893,3.697,4.077C93.346,99.685,93.479,99.513,93.766,99.226z M95.383,97.525
	c0.189-0.182,0.346-0.43,0.346-0.549c0-0.12-0.335-0.54-0.69-0.96c-0.356-0.42-1.053-1.271-1.549-1.89
	c-2.835-3.544-3.041-3.809-3.474-3.448c-0.285,0.236-0.354,1.071-0.211,1.383c0.246,0.539,3.344,4.281,4.342,5.246
	C94.781,97.922,94.906,97.982,95.383,97.525z M97.014,95.96c0.242-0.229,0.44-0.532,0.44-0.675c0-0.142-0.457-0.719-0.936-1.282
	s-1.276-1.524-1.772-2.136c-1.272-1.568-1.283-1.625-2.232-1.723c-1.438-0.147-1.246,0.17,0.384,2.076
	c0.395,0.461,1.14,1.371,1.655,2.023c1.209,1.525,1.742,2.088,1.981,2.088C96.64,96.332,96.771,96.188,97.014,95.96z M98.678,94.326
	c0.736-0.621,0.592-0.825-1.807-3.307c-0.787-0.813-0.843-0.943-1.454-0.943c-0.614,0-0.813,0.127-0.813,0.426
	c0,0.183,3.124,3.903,3.353,3.995C98.265,94.62,98.3,94.645,98.678,94.326L98.678,94.326z M100.425,92.533
	c0.196-0.211,0.357-0.483,0.357-0.605c0-0.268-0.679-1.131-1.313-1.689c-0.298-0.262-0.672-0.532-0.913-0.532
	c-0.408,0-1.107,0.231-1.228,0.427c-0.078,0.126,0.85,1.274,1.762,2.238C99.693,93.009,99.93,93.064,100.425,92.533z
	 M101.959,91.009c0.387-0.388,0.383-0.741-0.012-1.26c-0.286-0.376-0.373-0.413-0.962-0.413c-1.115,0-1.147,0.285-0.284,1.211
	C101.344,91.234,101.521,91.448,101.959,91.009z M103.602,89.39c0.434-0.553,0.063-0.856-0.649-0.531
	c-0.169,0.077-0.259,0.277-0.295,0.37C102.438,89.803,103.185,89.921,103.602,89.39z M76.172,94.061
	c-1.586,1.005-4.252,2.908-6.064,4.18c-0.048,0.273-0.082,0.969,0,1.51c1.027-0.7,4.33-2.814,5.829-4.005
	C76.013,95.299,76.122,94.511,76.172,94.061L76.172,94.061z M79.082,89.45c-0.054-0.271-0.23-0.1-0.701,0.298
	c-0.614,0.521-5.83,4.394-7.215,5.367c-0.527,0.37-1.022,0.684-1.079,0.813c-0.054,0.123-0.104,1.175,0.096,1.439
	c1.13-0.864,6.492-4.468,6.573-4.593C77.31,91.89,78.546,90.343,79.082,89.45z M78.484,101.12c0,0-6.397,7.705-8.455,11.544
	c0,0-0.014,4.391-0.073,6.919l-0.349,0.098c0,0-0.029-6.776-0.117-14.132c-0.215-18.379-0.396-22.842-0.396-22.842l-2.077-1.523
	l-0.087-0.724c0,0,9.219,6.468,13.717,7.499C77.361,93.119,74.322,95.109,78.484,101.12z M70.893,110.335
	c0.128-0.31,0.04-0.294-0.224-0.283c-0.194,0.009-0.304,0.188-0.313,0.385c-0.01,0.226,0.011,0.278,0.186,0.245
	C70.666,110.657,70.83,110.484,70.893,110.335z M72.431,108.052c0.921-1.136,1.682-1.872,1.818-2.708
	c-0.59,0.098-3.983,2.481-4.037,2.733c0.032,1.263-0.255,1.414,0.781,0.857C71.447,108.688,71.816,108.383,72.431,108.052z
	 M72.721,105.236c0.99-0.823,4.598-2.768,5.011-3.726c0.159-0.439-0.354-0.853-0.436-0.813c0.065,0.058-5.165,3.198-7.074,4.846
	c-0.17,0.212-0.126,0.574-0.013,0.874C70.418,106.97,70.836,106.521,72.721,105.236z M71.521,103.722
	c1.075-0.719,3.62-2.481,4.254-2.922c1.076-0.749,1.29-1.001,0.902-1.556c-0.155-0.222-0.365-0.354-0.721-0.196
	c-3.115,2.173-3.384,2.541-5.749,4.063c-0.16,0.428-0.12,1.066,0.127,1.293C70.514,104.415,70.814,104.193,71.521,103.722z
	 M71.509,101.376c2.838-2.057,4.369-3.097,4.47-3.324c0.111-0.25,0.145-1.229-0.041-1.333c-1.057,0.805-3.879,2.536-5.809,4.104
	c-0.051,0.322-0.109,1.045,0.047,1.201C70.567,102.187,70.684,101.974,71.509,101.376z M71.17,93.95
	c2.066-1.535,3.976-2.871,6.126-4.311c1.823-1.213,2.127-1.482,1.428-1.845c-0.24-0.125-0.726-0.321-1.036-0.217
	c-2.422,1.959-5.113,3.833-7.68,5.736c-0.063,0.284,0,0.842-0.016,1.093C69.968,94.796,70.479,94.464,71.17,93.95L71.17,93.95z
	 M70.887,91.76c0.169-0.149,1.251-0.867,2.403-1.703c3.091-2.241,3.455-2.459,3.455-2.697c0-0.65-0.892-0.789-1.704-0.126
	c-1.49,1.216-5.047,3.431-5.056,3.745c-0.013,0.463-0.09,0.919,0.045,1.122C70.201,92.357,70.451,92.143,70.887,91.76L70.887,91.76z
	 M71.778,88.725c3.145-2.198,3.021-2.096,3.021-2.49c0-0.344-0.307-0.189-0.787-0.225c-0.454-0.033-0.463,0.095-1.325,0.747
	c-1.835,1.39-2.507,1.77-2.699,2.18c-0.061,0.129-0.103,0.639,0.009,0.751C70.218,89.909,70.473,89.637,71.778,88.725z
	 M71.986,86.538c0.615-0.513,1.109-0.89,1.15-0.997c0.09-0.234-0.375-0.651-0.726-0.651c-0.38,0-0.675,0.196-1.615,1.007
	c-0.83,0.716-0.999,0.566-0.933,0.97c0.038,0.234,0.042,0.752,0.119,0.846C70.184,87.955,70.613,87.684,71.986,86.538z
	 M70.713,85.119c0.664-0.561,0.805-0.676,0.32-1.161c-0.439-0.44-0.951-0.55-1.221-0.279c-0.149,0.198,0,1.357-0.02,1.589
	C69.767,85.64,70.26,85.502,70.713,85.119z M84.954,73.025c0-0.24,1.156-1.088,2.024-1.281c1.106-0.246,2.495-0.119,3.467,0.367
	c0.838,0.419,1.747,1.427,0.401,0.813c-1.236-0.551-3.886-0.558-4.845-0.113C85.289,73.174,84.953,73.267,84.954,73.025
	L84.954,73.025z M84.094,68.779c0.09-0.09,1.246,0.209,1.883,0.377c1.708,0.451,3.111,0.187,4.9-0.331
	c0.42-0.122,0.629,0.169,0.37,0.383c-0.909,0.631-2.088,0.998-3.104,1.093C85.905,70.51,83.498,69.365,84.094,68.779z
	 M73.124,65.471c0.954-0.468,2.12-7.029,1.745-8.158c-1.169,1.789-2.479,2.592-4.346,2.281c-3.057-0.508-3.17-4.275-0.809-4.655
	c0.943-0.151,2.098,0.472,2.287,0.325c1.006-0.473,1.795-3.86,2.041-4.957c0.181-1.074,0.446-4.054,0.486-5.002
	c0.085-2.016,0.008-4.99,0.008-4.99L59.666,22.418H27.292c0,0-0.077,24.899,0,37.674l8.997,8.868l0.117,14.334
	c10.306-4.506,20.28-9.238,30.045-14.356c-1.133-1.356-1.1-4.772,0.965-6.064c3.04-1.903,5.564,0.615,5.712,2.598H73.124z
	 M81.288,68.51c0.069-0.809,0.669-1.473,0.711-2.295c0-0.184,0.148-0.396,0.633-0.138c0.632,0.337,0.826,0.1,1.541-0.229
	c1.269-0.586,1.632-0.572,2.608-0.181c0.631,0.339,0.826,0.337,1.417,0.029c0.812-0.537,1.673-0.711,2.386-0.46
	c1.063,0.371,1.433,0.576,2.039,0.281c0.306-0.148,0.688-0.703,0.756-0.662c0.437,0.65,0.348,1.673,0.627,2.249
	c0.493,0.977,0.301,1.676-0.281,1.196c-1.223-1.011-2.175-1.035-3.929-0.6c-1.026,0.254-1.543,0.452-2.681,0.317
	c-3.524-0.419-3.764-0.313-4.479,0.167C81.939,68.651,81.405,68.699,81.288,68.51z M90.75,62.109
	c-1.018-0.255-2.181-1.182-3.023-0.934c-1.039,0.07-1.631-1.157-1.098-1.829c0.912-0.89,2.327,0.007,2.877,0.425
	c1.194,0.908,1.365,0.98,1.848,0.98c1.981-0.039,1.603-1.895,0.645-2.571c-0.568-0.597-0.625-0.983-0.504-1.13
	c0.196-0.236,0.762-0.037,1.382,0.617c1.187,1.115,1.214,3.341-0.241,4.014C91.91,62.087,91.435,62.28,90.75,62.109z M94.887,55.678
	c-0.923-0.67-2.564-2.173-2.993-2.708c-0.726-0.904-1.015-1.483-0.925-2.21c0.07-0.564,0.156-0.901-0.206-1.088
	c-0.385-0.199-0.755-1.053-0.68-1.502c0.021-0.124,0.454-0.05,0.718,0.279c0.333,0.055,0.264-0.144,0.625-0.384
	c3.77-2.534,6.794-2.046,10.369-0.304c1.038,0.499,3.746,2.557,2.296,1.889c-0.087-0.039-1.037-0.452-1.996-0.937
	c-3.101-1.487-6.556-2.388-9.368-0.477c-0.484,0.34-0.777,0.601-0.4,0.601c1.582-0.308,3.145-0.967,4.77-0.864
	c2.421,0.032,3.886,1.229,5.702,2.057c1.972,0.882,2.352,1.184,1.633,1.912c-0.202,0.225-0.365,0.218-1.317,0.146
	c-1.023-0.079-1.108-0.05-1.684,0.32c-1.51,0.969-3.471,1.497-5.212,1.351c-2.052-0.173-2.271-0.337-2.313-0.041
	c-0.027,0.188,0.414,0.517,1.021,1.073c0.461,0.424,1.08,1.046,1.135,1.143C96.232,56.235,95.451,56.087,94.887,55.678z
	 M94.311,52.388c-0.008-0.243-0.456-1.301-0.727-1.574c-0.259-0.263-0.462-0.16-1.014,0.229c-0.414,0.292-0.458,0.523-0.076,0.862
	C93.305,52.627,94.318,52.809,94.311,52.388z M97.4,52.533c0.828-0.401,1.671-1.824,1.288-2.287
	c-0.228-0.274-0.426-0.014-0.86,0.758c-0.208,0.37-0.565,0.838-0.719,0.945c-0.677,0.476-1.57,0.031-1.945-1.016
	c-0.228-0.633-0.466-1.034-0.73-0.795c-0.478,0.434,0.063,1.998,1.012,2.402C96.007,52.78,96.819,52.815,97.4,52.533z M99.977,52.3
	c0.84-0.26,1.24-0.639,1.17-1.005c-0.059-0.305-0.663-0.663-1.074-0.663c-0.184,0-0.544-0.008-0.673,0.165
	c-0.286,0.381-0.739,1.537-0.761,1.662C98.736,52.714,99.021,52.596,99.977,52.3z M102.879,46.028
	c-4.188-1.604-7.496-2.249-11.48-0.547c-1.275,0.556-2.004,0.612-2.067,0.16c-0.055-0.382,0.864-1.513,1.856-2.035
	c2.781-1.274,6.12-1.394,8.918-0.049c1.045,0.513,3.979,2.603,3.979,2.792C104.085,46.559,103.819,46.396,102.879,46.028z
	 M151.9,93.049c0.998-0.527,1.457-1.563,0.846-2.175c-0.179-0.18-0.43-0.179-0.637-0.179c-0.35,0-2.97,0.703-3.478,0.976
	c-0.332,0.178-0.211,0.488,0.104,0.775c0.146,0.133,0.255,0.416,0.277,0.727c0.03,0.398-0.05,0.759,0.214,0.697
	C149.762,93.747,150.605,93.629,151.9,93.049z M148.177,94.01c0.284-0.518,0.163-1.229-0.583-1.665
	c-0.39-0.201-0.697-0.094-1.01,0.354C145.842,94.055,147.684,94.637,148.177,94.01z M144.438,94.646
	c0.16-1.732,0.082-6.851,0.082-6.851s-0.931,0.787-1.517,0.814c0.215-0.748,0.448-1.023,0.783-1.757
	c0.19-0.777,0.297-2.151,0.243-2.937c-0.058-0.86-0.664-0.884-0.04-2.431c0.319-0.789,0.377-1.621-0.037-2.6
	c-0.178-0.482-0.235-0.76,0.229-1.372c0.432-0.569,0.261-0.854,0.253-2.04c-0.011-1.644,0-1.91-0.498-0.585
	c-0.741,1.099-1.083,0.889-2.213,0.756c-1.093,2.455-2.372,5.028-2.422,7.145c-0.032,1.327-0.05,1.533,0.776,4.323
	c0.309,1.038,0.414,1.384,0.432,2.64c0.017,1.199,0.106,1.62,0.288,2.282C141.121,93.213,142.438,95.16,144.438,94.646z
	 M106.41,205.05l0.008-2.468c0,0-3.939,1.217-5.939,0.468c-2.06-0.558-2.053-0.66-2.012-0.437c0.072,0.398,1.6,1.207,3.015,1.539
	c0.995,0.233,2.987-0.003,3.966-0.293c0.555-0.164,0.613-0.01,0.392,0.161c-2.416,1.892-5.48,1.021-7.405-0.55
	c-1.028-1.01-1.718-1.015-1.162,0.341c2.644,5.368,9.208,2.201,9.143,1.238H106.41z M103.751,201.382l0.896,0.017
	c0,0-0.274-1.564-0.738-2.021c-0.951-0.933-2.293-0.791-3.145,0.126c-0.391,0.42-0.688,1.905-0.688,1.905l0.721,0.015
	C101.063,200.731,102.199,197.479,103.751,201.382z M100.165,199.016c-0.509-0.14-1.626,0.369-2.171,0.724
	c-0.201,0.223-0.203,0.255,0.037,0.571c0.522,0.689,1.32,1.018,1.377,0.761C99.64,200.708,100.219,199.156,100.165,199.016z
	 M106.086,200.756c0.117-0.481-0.335-1.305-1.041-1.593c-0.305-0.075-0.606-0.137-0.518,0.2c0.1,0.377,0.311,0.996,0.508,1.409
	c0.144,0.311,0.234,0.467,0.535,0.349C105.807,201.042,106.006,200.969,106.086,200.756z M144.538,168.037l0.008-4.181
	c-2.107,2.14-4.86,5.73-5.694,7.074L144.538,168.037z M80.185,52.828c0.892-0.383,1.548-1.552,1.321-2.143
	c-0.141-0.366-0.512-0.072-0.886,0.471c-0.603,0.873-0.756,0.968-1.286,0.968c-0.564,0-0.788-0.146-1.175-0.905
	c-0.267-0.72-0.456-0.832-0.704-0.519c-0.117,0.142-0.107,0.344,0.044,0.868C77.896,52.938,78.92,53.371,80.185,52.828z
	 M82.617,52.396c0.99-0.341,1.191-0.449,1.145-0.78c-0.049-0.346-0.837-0.807-1.282-0.722c-0.323,0.195-1.159,1.521-1.112,1.759
	C81.481,52.838,81.813,52.673,82.617,52.396z M76.906,51.817c-0.033-0.306-0.076-0.605-0.16-0.708
	c-0.318-0.383-0.988-0.112-0.988,0.375c0,0.371,0.525,0.79,0.952,0.79C77.01,52.274,76.967,52.348,76.906,51.817z M82.502,49.318
	c1.408,0.531,2.122,0.591,1.355-0.131c-1.053-1.17-5.88-2.507-8.471-0.597c-0.185,0.264-0.146,1.272,0.056,1.217
	C77.55,48.384,80.248,48.46,82.502,49.318z M77.68,45.282c-1.183,0.395-2.294,1.015-2.436,1.592
	c-0.229,0.93,0.186,0.939,1.732,0.452c1.994-0.654,4.223-0.358,5.922,0.625c1.291,0.94,1.672,0.629,1.454-0.16
	C83.632,45.177,79.6,44.706,77.68,45.282z"/>
<path fill="#E2CF00" d="M153.645,28.495l-8.703,8.642l0.121,10.226c0.875,1.606-13.433-4.582-15.691-6.455
	c0.262,6.831,9.567,14.614,15.618,17.462l0.165,21.865c2.5-1.273,5.59-2.047,7.785-2.259
	C154.127,63.106,155.141,43.761,153.645,28.495z M105.235,39.198c-0.849,0.015-1.356,0.245-1.345,0.791
	c-0.255-0.043,3.216,12.768,4.796,18.117c-3.075,3.113-6.285,8.522-1.691,13.528c0.98,1.068,2.776,1.973,4.484,2.999
	c0.761,0.739-9.341,7.265-18.333,7.268c-2.882-6.333-6.908-2.831-9.129-0.622c-1.734-0.152-8.21-4.017-11.521-6.229
	c-0.054-0.036-0.019-0.952-0.013-1.12c0.23,1.51,12.977,4.767,13.552,3.254c-0.367,0-5.717-3.625-7.253-7.202
	c-1.961-4.034-3.532-9.575-3.532-9.575c-0.714,2.049-0.47,4.889-2.436,5.905c-0.588-6.67-10.093-3.269-5.361,3.253
	c-2.658,0.781-4.932,2.16-7.512,3.308c5.398,7.36,12.829,12.256,20.678,15.142c-1.035,2.21-7.146,7.183-2.126,13.046
	c0.226,0.18-4.798,5.671-7.269,9.966c-1.86,3.232-1.3,5.713-1.087,5.793c6.807-7.815,10.632-14.428,10.632-14.428
	c-0.058,0.909,8.079,0.417,7.943-6.924c0.18-1.98,0.537-4.129,1.298-5.967c12.417,0.585,23.092-3.847,32.115-13.153
	c0,0,1.839,0.525,2.997,0.706c3.191-0.087,5.014-1.713,6.487-3.165c1.351-1.096,2.698-2.152,3.178-3.281
	c1.776-7.641-6.025-4.654-6.392-4.247c-4.456-6.069-8.226-23.318-8.832-23.453C117.075,42.404,108.561,39.142,105.235,39.198
	L105.235,39.198z M74.648,50.916c-0.332,0.022-1.526,5.36-2.584,5.318c-4.481-2.892-4.578,3.094-0.725,2.821
	c3.256-0.229,5.075-5.493,3.324-8.136L74.648,50.916L74.648,50.916z M26.748,61.07c0.148,32.455,0.731,64.899,1.49,97.345
	c2.928-0.725,5.057-1.276,7.928-0.02c0.27-9.224-0.54-32.5-0.347-55.039c10.942-8.526,18.628-17.93,24.026-30.221l-16.707,7.839
	c0,0-5.46,7.842-7.203,8.345c-0.248-1.116-0.527-14.39-0.301-20.082L26.748,61.07z M63.871,81.145l-3.282,4.759
	c0,0,0.076,16.345,0.266,24.22c0.136,1.568,1.558,3.006,0.42,4.411c0.693,0,3.728,21.204,0.844,29.801
	c-0.517,1.539-0.033,2.627,0.774,2.979c4.118,4.569,6.38,8.95,11.807,6.36c5.922-5.428,14.334-14.937,14.334-14.937l-22.238-21.063
	C64.887,112.567,63.871,81.145,63.871,81.145z M144.916,149.306c-10.097,9.042-19.327,18.319-23.107,29.595
	c5.397-2.176,10.536-4.832,15.788-7.278c2.545-3.063,4.502-6.02,7.415-8.935c0,0,0.315,13.299,0.059,19.97
	c2.628,1.957,8.867,8.074,8.867,8.074c0-0.002,1.724-94.483-1.995-96.881c-3.611,0.701-5.424,2.022-6.771-2.173
	C144.219,110.914,144.916,149.306,144.916,149.306z M109.95,96.131c-3.884,3.181-17.235,16.303-17.208,16.439
	c3.541,5.949,17.526,17.868,24.23,24.531l0.971,33.945c0.986-1.328,1.703-2.58,2.773-3.909c0,0-0.175-17.188-0.59-25.246
	c-0.122-2.383-0.668-4.261-0.496-4.478c-1.887-9.78-2.67-20.584,0-31.07C113.298,100.879,111.286,97.245,109.95,96.131
	L109.95,96.131z M110.99,134.901l-0.031,0.023c-3.278,4.678-9.547,14.833-9.996,14.81c-0.133-0.304-6.479-0.021-7.678,3.979
	c-1.008,2.978-1.084,5.718-1.818,8.788c-12.73-0.416-22.051,3.616-31.865,12.679c-4.809-0.03-8.381,1.083-10.05,3.115
	c-2.491,1.809-3.165,3.353-3.043,5.241c0.222,3.423,6.259,3.91,6.567,1.498c0.307,0,5.908,12.821,6.452,15.006
	c1.321,3.531,2.737,10.14,2.905,10.15c2.255,0.146,14.916,3.703,14.961,2.412c1.193-0.513-4.402-18.859-4.402-18.859
	c9.781-8.221-1.002-17.007-3.537-16.686c5.57-3.972,11.96-6.647,19.007-6.999c1.092,3.923,6.148,5.94,8.694,0.726
	c0,0,10.954,3.928,10.909,5.229c-4.511-0.682-8.219-1.038-12.735-1.471c8.654,4.706,8.919,10.908,10.686,17.083
	c0.241-1.094,2.523-5.871,2.523-5.871c2.936,6.521,8.517,1.996,6.214-3.269l6.945-3.227c0.8-0.407-10.382-13.009-20.552-14.794
	c0.513-0.938,0.716-1.821,1.245-2.586c2.55-2.507,4.526-6.177,0.628-10.568c2.573-3.603,8.541-12.3,8.162-12.455
	C111.182,138.857,111.298,134.793,110.99,134.901L110.99,134.901z M27.373,174.985c-0.099,0-0.278,30.159-0.067,45.13
	c-0.25,0.62-0.412,3.933-0.412,3.933l9.261-8.715l0.277-11.267c2.418-0.579,17.489,7.086,16.283,7.044
	c1.15-0.485-6.957-15.825-16.414-17.526c-0.176-8.69-0.265-18.529-0.512-21.174C32.504,173.038,27.373,175.006,27.373,174.985z
	 M109.592,193.128c-2.594,0.775-3.675,6.235-2.835,8.886c0.155,0.489,0.058,0.595,0.47,0.115c1.011-1.486,0.691-4.446,2.477-6.01
	C114.418,197.545,113.95,191.401,109.592,193.128z"/>
<path fill="#D40000" d="M49.597,228.699l12.259-18.556c14.636,4.9,29.577,4.989,44.678,2.571l13.495,15.984h-5.518l-8.494-12.153
	c-3.078,0.712-6.277,1.022-9.465,1.462l3.976,10.691H96.2l-3.123-10.575c-7.325,0.284-12.315-0.369-17.401-0.966l-1.832,11.541
	H69.44l2.972-11.917c-3.461-0.649-6.953-1.207-9.852-2.138l-9,14.055H49.597z M63.636,217.779l5.089,1.381l-2.485,9.539h-9.311
	L63.636,217.779z M76.779,228.699l1.438-8.427c3.418,0.675,7.878,0.811,12.58,0.763l2.212,7.664H76.779z M100.869,220.886
	l4.016-1.065l6.018,8.879h-7.314L100.869,220.886z M42.301,167.264c19.583-22.82,16.978-46.775,6.16-66.098l2.3-2.37
	c12.51,20.598,15.173,49.884-7.882,72.58C42.636,170.007,42.301,167.264,42.301,167.264z M120.391,141.671
	c2.813,4.798,4.533,9.655,7.505,14.479l-7.053,9.551L120.391,141.671z M36.139,156.785c-0.183-15.058,0.045-45.565,0.045-45.565
	l6.607-5.063c7.906,9.615,12.221,34.958-1.977,51.826C39.781,157.229,36.971,157.542,36.139,156.785z M129.947,153.747
	c-18.121-30.625-8.818-52.995,8.646-72.825c0.052,1.529,0.078,3.089,0.217,4.61c-14.995,17.202-20.991,42.642-6.29,65.657
	L129.947,153.747z M97.133,149.298l8.253-11.267c0,0,1.563-4.482,2.882-5.807l1.514-1.341c0.504,0.487,1.54,1.514,1.54,1.514
	l-0.916,3.476c-3.054,4.713-6.267,9.427-9.651,14.141C100.754,150.014,97.824,149.499,97.133,149.298z M141.029,94.609
	c0.261-0.295,3.537,1.074,3.537,1.074l0.209,46.301l-6.559,4.222C136.314,147.175,121.445,116.788,141.029,94.609z M71.938,114.113
	c2.986-4.075,6.132-7.604,9.025-11.347c0.748,0.258,2.714,0.302,2.714,0.302c0.207,0.111-0.661,3.105-2.803,5.169
	c-5.877,7.043-7.212,8.348-7.426,11.253c-0.069,0.934-2.143,2.007-2.143,2.007l-1.49-1.574
	C70.273,117.615,70.987,115.848,71.938,114.113L71.938,114.113z M53.314,96.354l6.745-8.842l0.481,22.995L53.314,96.354z
	 M74.823,38.782L61.812,22.488h6.301l7.749,11.531l9.28-1.063l-3.267-10.469h3.846l2.716,10.301
	c5.692,0.136,11.256,0.579,16.658,1.122l2.776-11.423h3.916l-3.554,11.953l10.48,2.756l9.338-14.709h4.64l-13.234,18.991
	C102.154,36.272,88.258,36.869,74.823,38.782z M112.335,31.962l2.965-9.483l8.867,0.01l-6.786,10.833L112.335,31.962z
	 M90.875,29.655l-1.874-7.167h15.634l-2.02,8.013C98.486,29.803,94.717,29.669,90.875,29.655z M72.134,22.488h6.24l2.431,7.416
	l-3.6,0.409L72.134,22.488z"/>
<path d="M59.772,21.438L74.84,39.499c3.139-1.125,18.962-2.934,28.453-0.764c1.654,6.491,3.404,13.048,5.255,18.958
	c0,0-0.593,0.693-1.021,1.135c-6.062,6.999-1.771,13.759,3.775,15.964c-1,2.082-11.63,7.264-18.103,6.647
	c0.011-0.064-1.988-4.756-6.04-3.17c-1.385,0.542-1.955,1.586-3.027,2.605c-3.867-1.169-8.973-3.717-11.627-6.517
	c4.967,2.478,9.857,3.812,14.768,3.154c0,0-0.608-0.508-1.299-0.826c-0.416-0.19-1.416-0.794-2.223-1.339
	c-2.283-1.541-3.799-3.399-5.363-6.577c-1.799-3.22-2.092-6.684-3.078-9.738c-0.521,1.565-0.747,5.7-2.11,6.558
	c-0.354,0.232-0.418,0.162-0.682-0.714c-1.04-3.18-4.849-2.777-6.105-0.513c-0.638,1.945-0.546,2.801,0.259,4.608l-2.309,1.285
	v0.382l-1.422,0.68l-0.296-0.201c-6.607,3.197-13.085,6.525-19.827,9.588c0,0-3.58,5.952-6.856,8.32l-0.128-20.212l-9.703-8.781
	l-0.047,4.81c0,0,0.466,0.488,0.697,0.733c0.133,33.836,0.022,67.123,0.043,97.842l0.044,28.278l-0.592,0.035l-0.03,3.298
	l0.668,0.15l-0.094,4.657l-0.348,0.023l-0.05,2.949l0.529,0.082l-0.01,16.646l-0.523,0.675l0.012,4.752l10.131-9.646l0.227-10.97
	c7.991,1.512,16.345,7.265,16.345,7.265c-1.406-9.188-11.127-16.759-16.71-18.271l0.018-21.77c0,0-4.149,1.733-6.2,2
	c-1.016,0.145-1.406-0.01-1.892-0.745c-0.353-0.534-0.362-1.023-0.042-2.13c0.149-0.518,0.144-0.653-0.042-1.174
	c-0.262-0.73-0.264-1.061-0.009-2.351c0.269-0.758,0.15-1.162-0.131-1.864c-0.302-0.751-0.325-0.891-0.196-1.323
	c0.34-1.14,0.359-1.325,0.182-1.834c-0.349-0.994-0.36-1.713-0.038-2.357c1.493-2.513,4.842-1.893,6.66-1.803
	c0.92,1.026,1.471,1.6,1.556,0.111c0.646-1.775,3.146,0.043,4.313,0.797c9.941-13.347,14.846-31.416,2.374-54.032l-6.938,5.563
	l0.016-6.963c9.199-5.923,19.55-19.391,24.031-30.01c1.49,1.749,3.202,3.469,4.814,5.233l-1.054,1.768l-0.312-0.177
	c-2.854,5.455-10.604,15.773-10.729,15.669c2.869,5.326,5.423,10.705,7.595,16.148l0.569-0.256l0.509,1.639l-1.004,0.302
	c3.395,11.155,3.506,21.485,0.952,31.011l0.599,2.531c0,0,3.592,3.485,4.561,4.51c2.53,2.454,5.351,5.195,5.351,5.195l3.278-3.215
	l-0.19-0.273l28.735-28.585l1.792,1.716c-17.6,17.759-48.168,48.42-48.168,48.42l-1.06,0.154c-0.602,0.09-1.493,0.129-2.061,0.089
	c-0.935-0.065-1.05-0.044-1.799,0.313c-0.846,0.402-1.543,0.998-2.478,2.118c-0.427,0.513-0.721,0.733-1.194,0.903
	c-5.991,3.58-0.574,10.788,4.521,6.994c3.734,7.148,6.897,15.477,8.642,23.713l-0.67,0.29l-13.429,19.95h5.166l0.539-0.918H49.69
	l12.354-17.878c15.716,4.289,30.141,4.899,44.781,2.347l12.742,15.531h-5.054l0.72,0.918l6.541,0.104l-14.978-17.71
	c-5.363,1.436-19.509,2.591-28.382,1.086c-1.357-6.604-3.596-13.782-5.251-19.494c8.469-6.642,2.11-15.408-3.116-16.631
	c-0.254-0.48,10.599-7.09,18.329-6.632c2.214,5.327,7.061,4.538,8.801,0.574c3.206,1.18,7.366,2.357,10.669,4.988
	c-4.404-0.967-9.508-1.495-13.708-1.56c7.989,3.104,10.23,9.644,11.215,15.813c0.173,1.023,0.72,2.344,0.72,2.344
	c0.681-2.228,1.237-4.528,2.577-6.435c0.616,2.182,2.884,3.875,5.17,2.578c1.326-0.962,1.788-2.615,1.367-4.898
	c-0.116-0.634-0.175-0.982-0.175-0.982l1.775-0.963l0.23,0.197c0,0,1.945-0.832,2.911-1.303c0.151-0.073-0.178-0.377-0.178-0.377
	l17.948-8.48c-0.067-0.038,4.525-6.319,7.162-8.743c0.08,7.528,0.061,10.622,0.057,19.56l1.014,0.992
	c0.898,0.879,2.858,2.703,7.276,6.77c0.994,0.915,1.689,1.368,1.689,1.368l-0.137-131.649h-0.147v-2.532l0.208-0.012v-6.587
	l-0.187-0.107v-2.076l0.247-0.181l0.017-17.782l-0.285-0.049l-0.018-4.266l-10.004,10.602l0.076,9.998
	c-4.465-0.579-9.988-3.441-13.791-5.751c-1.229-0.751-1.914-0.951-1.876-0.521c0.534,5.952,9.134,15.057,15.743,17.438l0.012,22.394
	c0,0.012,1.561-0.782,2.514-1.184l0.143,0.398l2.131-0.884l0.173-0.46l1.847-0.234c0.021,0.378,0.084,0.326,0.084,0.326
	c1.646,0.461,2.374,1.585,1.711,2.849c-0.231,0.423-0.276,1.023-0.084,1.181c0.713,1.128,0.899,2.121,0.038,3.188
	c-0.332,0.545-0.329,0.853,0.011,1.432c0.891,1.799,0.385,1.68-0.285,2.752c-0.15,0.81,0.735,1.338,0.443,2.1
	c-0.137,0.503-0.666,1.092-1.025,1.358c-0.42,0.306-0.766-0.263-0.766-0.263s-1.334,0.573-2.293,0.757
	c-0.942,0.307-2.565,0.854-3.127-0.417c-0.322-0.729-0.063-1.394-0.085-2.207l-1.383-0.151l-0.051,3.698
	c-0.791,0.421-3.937-1.189-3.937-1.189c-13.497,17.528-13.119,36.969-3.108,53.256c0.098,0.261,7.053-4.767,7.053-4.767
	s-0.015,4.122,0.047,6.356c-8.843,7.327-17.385,17.187-23.491,29.341l-3.782-4.492c0.651-0.577,0.676-1.49,0.662-2.181l2.747-4.104
	l0.023-1.064l7.141-9.996c0.112,0.599-7.368-13.418-8.364-17.981l0.495-0.134c-3.357-12.727-2.668-21.638-0.244-32.017l-0.691-0.669
	l-9.423-9.429c-0.765,0.708-1.527,1.419-2.288,2.133c-0.117,0.109-0.691,0.044-0.809,0.154c-4.959,4.658-9.725,9.334-14.443,14.192
	c-0.122,0.125,0.083,0.644-0.039,0.769c-4.726,4.877-9.625,9.506-14.408,14.374l-1.746-1.668
	c16.936-16.964,48.841-48.474,48.841-48.474s0.139-0.25,0.358-0.259c0.888-0.033,1.682-0.235,2.559-0.49
	c1.051-0.244,1.221-0.321,1.664-0.779c0.271-0.28,0.715-0.673,0.986-0.872c0.461-0.34,1.519-1.23,3.17-2.671
	c1.01-0.881,1.632-2.163,1.61-3.308c-0.039-2.038-1.386-3.776-3.12-4.026c-0.721-0.104-2.135,0.272-2.851,0.757
	c-0.546,0.369-0.803,0.538-1.037,0.373c-3.457-7.023-6.82-15.856-8.247-23.145c-0.076-0.46-0.035-0.596,0.34-1.174
	c0.232-0.359,0.738-1.152,1.128-1.764c4.313-6.727,8.723-12.366,12.496-18.555h-5.329l-0.658,1.05h4.387l-13.049,18.817
	c-24.047-7.876-43.752-2.884-44.225-2.776l-13-16.041h5.945l-0.721-1.05H59.772z M71.476,21.438l0.662,1.05h6.236l-0.354-1.05
	H71.476z M81.876,22.488h3.845l-0.221-1.05h-3.944L81.876,22.488z M88.756,21.438L89,22.488h15.634l0.277-1.05H88.756z
	 M107.871,22.488h3.916l0.295-1.05h-3.939L107.871,22.488z M115.622,21.438l-0.335,1.05h8.88l0.665-1.05H115.622z M153.599,28.7
	l0.139,2.917l-6.402,6.761l0.008,9.439l-1.863-0.434l-0.074-9.755L153.599,28.7z M151.804,34.918
	c0.054,2.891-0.413,5.662,0.351,8.61c0.375,1.451,1.137,3.152,1.232,4.867l-2.112-0.05c-0.267-0.866-0.372-1.821-0.688-2.888
	c-0.779-2.628-1.412-5.396-0.836-8.182L151.804,34.918z M105.713,39.633c0.076,0.145,0.329,1.365,0.563,2.499
	c1.108,6.219,2.594,10.834,4.109,15.53c1.927,5.918,4.779,13.368,7.551,16.82c0.367,0.431,0.548,0.922,0.416,1.135
	c-0.224,0.362-1.355-0.144-2.115-0.945c-0.311-0.328-0.908-1.248-1.348-2.072c-0.969-1.817-2.271-4.461-2.4-4.879
	c-0.053-0.17-0.563-1.476-1.136-2.902c-1.003-2.495-1.597-4.203-2.435-6.979c-0.665-2.201-1.277-4.505-2.019-6.823
	c-1.213-3.794-1.915-6.81-2.589-10.298c-0.1-0.512-0.27-1.11-0.207-1.232C104.486,39.21,105.528,39.32,105.713,39.633z
	 M106.391,39.869c-0.12-0.1,1.101-0.119,1.49,0.209c0.116,0.116,0.323,0.846,0.502,1.783c1.103,5.722,2.764,11.635,4.695,17.237
	c1.543,4.476,3.229,8.784,5.327,12.273c0.659,1.162,1.55,2.405,2.685,3.748c0.637,0.752,0.688,0.857,0.517,1.065
	c-0.21,0.253-0.577,0.221-1.286-0.116c-0.661-0.314-1.377-1.003-2.05-1.977c-0.229-0.332-0.579-0.833-0.778-1.111
	c-3.097-5.364-4.977-10.46-6.68-15.636c-1.746-5.307-3.316-10.674-4.384-16.858C106.416,40.281,106.403,40.075,106.391,39.869z
	 M110.28,40.676c0.271,0.276,0.427,0.806,0.663,1.911c1.289,5.306,2.345,10.046,3.868,14.4c0.819,2.343,1.528,4.683,2.407,6.89
	c1.404,3.524,3.121,6.735,5.231,9.409c0.696,0.881,1.96,1.967,3.021,2.598c0.734,0.438,0.846,0.55,0.797,0.803
	c-0.064,0.228-0.781,0.323-1.017,0.306c-1.161-0.199-2.877-1.101-3.367-1.769c-3.55-3.843-6.088-10.132-7.937-15.293
	c-3.178-8.884-5.74-19.981-5.252-19.637C108.662,40.035,109.966,40.332,110.28,40.676z M111.807,40.997
	c0.115,0.002,0.244,0.021,0.389,0.062c0.664,0.182,0.75,0.274,0.909,1.007c1.136,5.073,2.338,9.548,3.679,13.803
	c1.365,4.33,2.77,8.414,4.958,12.698c1.604,3.126,3.636,5.286,5.82,6.38c0.628,0.313,1.188,0.615,1.245,0.671
	c0.057,0.057,0.041,0.22-0.035,0.363c-0.116,0.216-0.248,0.26-0.782,0.251c-0.991-0.018-1.687-0.326-2.751-1.042
	c-2.789-1.928-5.229-6.293-6.306-8.77c-1.313-3.021-2.521-6.16-3.609-9.583c-1.954-6.143-3.172-10.206-4.063-15.389
	C111.26,41.15,111.461,40.99,111.807,40.997z M153.617,49.287l-0.019,1.799c-7.025,0.467-14.229-2.509-20.019-5.188
	c4.362,5.797,9.018,10.939,20.018,12.002l0.021,1.856c-14.328-0.203-24.419-14.741-23.889-18.364
	C135.623,45.207,146.269,49.617,153.617,49.287L153.617,49.287z M114.075,41.672c0.345,0.016,0.809,0.162,0.99,0.344
	c1.171,4.38,2.024,9.242,3.96,14.122c2.379,5.997,3.698,11.29,8.109,16.23c1.371,1.412,4.06,1.37,4.06,1.37s-0.34,0.764-0.798,0.892
	c-0.944,0.144-1.629,0.186-2.318-0.037c-2.555-1.081-4.508-3.815-5.517-5.668c-0.944-1.388-3.25-7.108-5.15-12.941
	c-2.068-6.35-3.772-12.951-3.578-14.28C113.905,41.675,113.961,41.667,114.075,41.672z M116.438,42.409
	c0.168,0,0.393,0.064,0.662,0.193c0.287,0.138,0.412,0.223,0.563,0.764c0.098,0.354,0.081,0.899,0.254,1.787
	c0.996,4.573,2.369,8.286,3.732,11.903c1.296,3.437,2.686,6.811,4.399,9.861c0.865,1.536,1.724,2.974,2.265,3.517
	c1.477,1.479,3.98,1.552,4.719,0.085c0.41-0.835,0.326-2.156-0.484-2.841c-0.628-0.601-2.051-0.347-2.088,0.378
	c0,0.192,0.354,0.107,0.866,0.046c1.433-0.166,1.881,2.375,0.038,2.799c-2.332,0.536-3.949-2.622-1.891-4.559
	c3.488-2.37,6.151,0.869,5.327,3.983c-0.797,1.841-2.132,2.779-3.895,2.845c-2.275,0.073-3.218-0.632-5.551-4.029
	c-2.675-4.302-3.835-8.5-5.721-13.204c-1.782-4.449-2.97-9.192-3.528-13.335C116.154,42.474,116.268,42.409,116.438,42.409
	L116.438,42.409z M118.649,43.144c0.206,0.007,0.64,0.116,0.831,0.234c0.114,0.071,0.278,0.229,0.278,0.229
	c3.138,11.47,5.753,18.34,8.417,23.189c0,0-0.043,0.892-0.221,1.145c-0.317,0.454-0.473,0.343-0.887-0.374
	c-1.675-3.25-3.27-6.838-4.757-10.537c-1.75-4.353-3.302-8.858-3.96-13.146C118.386,43.331,118.262,43.176,118.649,43.144
	L118.649,43.144z M139.812,49.7c0.444,0,0.806,0.358,0.806,0.803s-0.361,0.807-0.806,0.807c-0.443,0-0.805-0.362-0.805-0.807
	S139.368,49.7,139.812,49.7z M74.626,49.554c-0.931,1.269-1.692,5.815-2.661,5.87c-1.064-0.017-2.359-0.629-3.194,0.336
	c-1.015,1.172-0.392,2.467,0.859,3.181c0.575,0.285,1.799,0.353,2.542,0.139C75.217,58.057,76.373,53.107,74.626,49.554z
	 M142.855,50.746c0.641,0,1.159,0.523,1.159,1.166s-0.519,1.161-1.159,1.161c-0.642,0-1.16-0.519-1.16-1.161
	S142.214,50.746,142.855,50.746z M74.68,51.298c1.041,2.621-0.111,5.757-1.379,6.813c-1.167,0.972-2.999,1.097-4.045,0.15
	c-0.871-0.82-0.483-2.79,1.141-2.644c0.547,0.018,1.197,0.516,1.563,1.042C73.018,56.769,74.236,51.394,74.68,51.298z
	 M146.899,51.938c0.724,0,1.31,0.588,1.31,1.313s-0.586,1.313-1.31,1.313s-1.31-0.588-1.31-1.313S146.176,51.938,146.899,51.938z
	 M151.537,52.865c0.739,0,1.337,0.6,1.337,1.339c0,0.74-0.598,1.34-1.337,1.34c-0.738,0-1.336-0.6-1.336-1.34
	C150.201,53.465,150.799,52.865,151.537,52.865z M108.375,58.955c0.199-0.001,0.339,0.191,0.47,0.575
	c0.271,0.8,0.266,0.893-0.158,1.429c-4.111,5.702-0.363,11.532,5.593,12.165c0.503,0.036,0.756,0.603,1.021,1.263
	c-0.037,0.312-0.039,0.311-1.391,0.336c-0.884,0.016-1.592-0.039-2.034-0.158c-2.087-0.563-4.644-2.453-5.689-4.203
	c-1.204-2.018-1.405-4.104-0.663-6.886c0.478-1.786,1.083-2.965,2.02-3.938C107.916,59.15,108.175,58.957,108.375,58.955z
	 M147.351,59.589l0.069,19.564l-2.08,0.76l0.084-20.807L147.351,59.589z M151.286,60.344c2.591,6.445,2.706,12.354,0.366,17.729
	l-2.363,0.342c3.241-7.572,1.863-12.993,0.031-18.227L151.286,60.344z M27.002,61.418l8.413,7.955l0.293,88.621l-1.341-0.475
	l-0.535-87.167l-6.83-6.275V61.418z M109.16,61.673l0.043,0.004c0.225,0.027,0.431,0.312,0.619,0.849
	c0.223,0.634,0.22,0.652-0.03,1.281c-1.155,2.836-0.213,5.533,2.639,6.385c0.677,0.214,0.789,0.324,1.187,1.165
	c0.258,0.547,0.373,0.744,0.273,0.864c-0.148,0.108-0.511,0.159-1.583-0.073c-4.242-1.45-5.782-6.099-3.853-9.788
	c0.24-0.421,0.461-0.65,0.662-0.683L109.16,61.673z M75.385,61.321c0,0,0.887,3.137,0.802,3.849c-0.225,1.374-2.175,3.57-3.88,4.373
	c-1.581,0.606-3.97,0.302-4.969-0.753c-3.631-4.257,3.143-8.531,4.846-4.099c1.023,2.907-3.14,3.596-3.324,1.362
	c0-0.576,0.186-0.757,0.721-1.131c0.476-0.333,0.421-0.63,0.012-0.63c-1.572,0.574-1.608,2.027-0.901,2.942
	c1.417,1.483,3.169,0.619,4.377-0.47C74.693,65.299,75.013,63.193,75.385,61.321z M110.511,64.557c0.081,0,1.745,3.984,1.966,4.552
	c-0.055,0.399-0.49,0.37-1.232-0.148c-0.754-0.527-0.979-0.9-1.298-2.123C109.851,66.402,109.689,64.82,110.511,64.557z
	 M76.736,66.238c0.366,0,0.747,1.349,0.574,2.038c-0.299,1.195-3.424,3.215-5.62,3.632c-0.44,0.084-0.912,0.173-1.048,0.197
	c-0.454,0.081-0.984-0.174-1.537-0.737c-0.39-0.397-0.575-0.793-0.481-0.888c0.077-0.076,1.083,0.1,1.938,0.086
	c2.393,0.028,4.239-1.691,5.659-3.741C76.437,66.503,76.669,66.238,76.736,66.238z M29.183,67.236c0,0,1.619,1.469,2.473,2.311
	c-0.091,3.907-1.531,8.144-1.529,11.637c0.034,3.038,1.997,5.568,2.196,8.213c0.117,1.711-0.384,4.251-1.226,6.176
	c-0.783,1.791-1.195,3.702-1.194,5.558c0.1,4.317,3.194,9.037,2.107,13.308c-1.021,4.013-2.184,6.329-1.876,8.461
	c0.595,4.11,2.776,7.754,2.195,11.174c-0.54,3.184-1.976,6.363-1.821,9.235c0.177,3.316,1.414,6.088,1.764,9.113
	c0.228,1.97-0.328,5.034-0.328,5.034l-2.27,0.188c1.248-4.657-0.611-8.869-1.324-13.347c-0.606-3.812,1.099-6.845,1.607-10.097
	c0.314-2.02-0.042-3.942-1.041-6.515c-1.973-4.75-1.264-7.845,0.158-11.98c1.758-4.404-0.66-7.892-1.264-12.112
	c-0.311-3.636-0.069-6.207,1.295-9.44c1.016-3.112,1.303-4.917-0.213-7.904c-0.957-1.888-1.207-3.003-1.209-5.488
	C28.178,75.827,29.506,73.062,29.183,67.236L29.183,67.236z M77.819,69.203c0.353,0,0.527,0.249,0.527,0.752
	c0,0.921-1.369,2.086-3.79,3.228c-1.256,0.592-1.985,0.68-2.72,0.331c-0.687-0.324-0.652-0.609,0.1-0.829
	c1.894-0.554,3.236-1.312,4.766-2.687C77.188,69.561,77.691,69.203,77.819,69.203z M66.863,69.838
	c6.246,6.698,12.371,10.146,17.054,11.757l-0.737,1.751c-6.152-2.388-12.428-5.71-17.745-12.849L66.863,69.838z M78.898,70.932
	c0.168,0,0.805,0.809,0.805,1.023c0,0.125-0.232,0.53-0.517,0.896c-0.413,0.53-0.778,0.804-1.811,1.37
	c-1.398,0.767-2.243,0.954-2.851,0.633c-0.603-0.319-0.4-0.588,1.105-1.475c0.777-0.458,1.814-1.196,2.304-1.641
	C78.424,71.295,78.855,70.932,78.898,70.932z M62.354,71.92c5.116,7.016,11.705,11.676,19.452,14.163l-1.218,1.649
	c-7.077-2.443-13.998-6.862-20.32-14.644L62.354,71.92z M80.223,72.785c0.258,0,0.836,0.653,0.836,0.945
	c0,0.14-0.113,0.396-0.25,0.571c-0.273,0.349-1.702,1.425-2.312,1.74c-0.476,0.247-0.834,0.243-1.353-0.016
	c-0.615-0.307-0.511-0.564,0.494-1.212c0.491-0.316,1.234-0.904,1.652-1.305C79.709,73.11,80.128,72.785,80.223,72.785z
	 M59.639,73.296c-0.146,0.184-7.534,17.139-23.188,29.16l-0.073-2.815c8.67-6.89,14.974-16.322,19.728-24.56L59.639,73.296z
	 M81.71,74.514c0.237-0.007,0.403,0.154,0.57,0.471c0.198,0.379-0.019,0.716-0.895,1.378c-0.547,0.414-0.749,0.495-1.201,0.486
	c-1.165-0.021-1.136-0.302,0.143-1.447C80.99,74.808,81.405,74.522,81.71,74.514z M111.938,75.352l3.263,0.251
	c0.879,0.612-12.753,9.552-22.204,8.749l0.251-2.142C101.544,82.447,112.164,75.738,111.938,75.352z M83.949,76.188
	c0.75,0.421,1.684,0.919,1.451,1.081c-0.348,0.218-2.561,0.076-3.07-0.197c-0.382-0.204-0.36-0.312,0.166-0.902
	C83.14,75.445,83.252,75.799,83.949,76.188z M54.864,75.656c-5.171,9.14-11.329,17.481-18.457,22.916l-0.095-4.834
	c6.784-5.232,11.92-14.791,11.933-14.824L54.864,75.656z M119.624,76.239l1.581,0.925c-9.859,9.144-20.508,13.084-30.74,12.098
	l0.823-1.853C107.893,88.724,118.92,76.415,119.624,76.239z M122.021,76.563c0,0,0.53-0.067,0.474,0.041
	c-3.273,3.214-7.768,6.646-10.712,8.561c-13.94,14.344-25.874,25.663-38.017,38.44l-1.941-2.035l1.758-1.864
	c0.008-3.681,4.505-7.81,7.172-10.988c1.113-1.257,3.204-4.489,2.967-5.847c-0.081-0.312-0.093-0.429-0.093-0.429
	c4.22-0.845,5.229-4.272,5.32-7.303c0.196-2.026,0.466-3.866,1.147-5.53C109.191,91.142,121.495,77.057,122.021,76.563z
	 M88.744,78.679c2.166-0.008,3.803,1.71,3.798,4.145c-0.018,1.019-0.376,1.792-1.754,4.485c-1.335,2.302-1.509,3.703-2.033,6.362
	l-1.357-1.222l-2.469,2.229l0.034-3.248c0,0,0.852-1.085,2.229-2.634c1.745-1.941,3.325-4.44,3.252-5.845
	c-0.047-1.404-1.526-2.548-3.042-1.63c-1.315,0.922-1.923,2.589-2.697,7.572c-0.137,0.884-0.266,1.923-0.338,2.15
	c-0.194,0.613-2.098,2.417-2.098,2.417c-0.161,0-0.913-3.658-0.913-3.658l-1.923,0.318c2.229-2.424,3.957-5.346,5.08-8.406
	C85.547,79.828,86.86,78.698,88.744,78.679z M46.906,79.454c0,0-3.829,7.968-10.551,13.15l-0.043-3.119
	c3.904-3.034,6.881-8.263,6.876-8.252L46.906,79.454z M139.051,79.656c-13.289,13.787-30.634,39.175-9.108,74.841l2.844-3.288
	c-17.333-32.256-5.05-48.975,6.359-65.751L139.051,79.656z M67.191,80.793c3.891,2.772,7.953,5.524,13.204,7.273
	c-0.28,0.938-7.5,7.024-2.319,12.653c0.217,0.294-0.334,1.012-1.178,2.027c-2.475,3.39-4.945,5.803-7.015,9.618l-0.085,7.167
	l-2.068-1.829L67.191,80.793z M138.541,81.453l0.088,4.088c-19.745,24.044-17.522,45.694-6.36,65.635l-2.139,2.173
	C111.836,121.801,123.25,98.018,138.541,81.453L138.541,81.453z M89.828,83.871c-0.871,2.305-4.68,6.252-4.68,6.252
	s0.504-3.844,0.822-5.057c0.242-0.926,0.789-2.177,1.328-2.775C88.837,80.598,90.371,82.52,89.828,83.871z M63.63,81.71L64,113.925
	l-2.775-2.804l-0.408-24.634L63.63,81.71z M59.881,88.015l0.553,21.872c-2.771-6.553-6.665-13.727-6.743-13.656
	C53.69,96.23,56.877,91.994,59.881,88.015z M81.802,94.857c0,0,0.423-0.355,1.087-1.119c1.439-1.457,1.57-1.467,1.438,0.498
	c-0.052,0.756-0.009,1.726-0.009,1.726c0.843-0.49,2.829-2.841,3.391-2.417c0.434,0.408,0.784,1.26,0.793,2.583
	c-0.05,2.59-1.511,4.968-3.829,5.743c-6.397,1.985-10.688-5.408-6.246-10.096c0.441-0.466,1.699-1.328,2.305-1.158
	C81.479,91.987,81.452,93.508,81.802,94.857L81.802,94.857z M145.283,92.534c0.372,1.021,0.848,2.029,2.145,2.485
	c-0.199,31.322-0.051,86.775-0.051,86.775l6.287,5.91l-0.041,2.583l-8.332-7.642C145.291,182.646,144.844,117.251,145.283,92.534z
	 M151.526,93.985c0.224,3.03-0.288,6.221,0.23,9.333c0.513,2.152,1.289,4.092,1.353,6.21c0.059,1.937-0.067,3.039-0.894,5.743
	c-0.577,1.888-0.634,2.188-0.767,4.076c-0.312,2.627,0.536,5.008,1.187,7.102c0.864,2.775,0.623,6.133-0.759,10.56
	c-0.498,1.594-0.593,2.266-0.521,3.709c0.19,3.031,1.272,5.913,1.822,8.89c0.298,1.705-0.008,3.936-1.056,7.719
	c-0.39,1.407-0.801,3.859-0.801,4.786c0,0.994,0.316,2.866,0.624,3.674c1.453,3.829,1.524,4.515,1.6,6.815
	c0.011,1.728-0.487,3.475-1.099,4.995c-1.02,2.43-0.35,4.924,0,7.654l-2.506-2.146c-0.74-2.337-0.479-4.522,0.206-6.265
	c0.975-2.729,1.219-2.982,1.205-4.552c-0.019-2.082-1.209-4.544-1.702-6.009c-0.875-2.599-0.878-5.147-0.008-7.896
	c0.427-1.35,1.044-3.997,1.183-5.071c0.267-2.066,0.064-3.697-0.971-7.843c-0.505-2.022-0.612-2.804-0.647-4.817
	c-0.032-1.865,0.238-3.804,0.836-6.052c0.861-3.572,0.851-5.718-0.27-9.031c-0.906-2.739-1.16-4.597-0.929-6.778
	c0.134-1.265,0.479-2.451,1.06-3.635c1.073-2.687,1.238-5.256,0.439-7.82c-1.374-5.248-1.352-7.915-1.216-12.652L151.526,93.985z
	 M144.484,95.703c-0.219,21.465,0,46.04,0,46.04s-6.347,4.452-6.321,4.221c-8.178-13.511-11.294-33.414,2.989-51.364
	c0,0,2.299,0.982,3.328,1.104H144.484z M47.962,100.819c11.574,21.652,13.079,43.526-6.057,65.967
	c0.616,1.983,0.516,3.832,0.208,5.643c3.731-2.91,33.65-32.851,8.453-74.54L47.962,100.819z M106.941,99.058l5.685,0.334
	l0.383,4.899l-1.838,1.825c0,0-0.033-1.013-0.058-1.918c-0.029-1.107-0.186-2.076-0.289-2.042c-0.096,0.031-0.199,1.324-0.281,2.732
	l-0.085,2.104l-0.636,0.638c-0.848,0.848-1.019,0.781-1.052-0.413c-0.071-2.599-0.064-2.776-0.254-2.586
	c-0.106,0.106-0.167,0.996-0.192,2.339c-0.021,1.066-0.096,2.088-0.166,2.27c-0.144,0.372-1.225,1.339-1.498,1.339
	c-0.264,0-0.249-0.376-0.251-1.991c0-1.364-0.144-2.112-0.362-1.609c-0.051,0.118-0.143,1.474-0.161,2.574
	c-0.02,1.101-0.091,2.105-0.158,2.23c-0.235,0.442-1.353,1.388-1.548,1.313c-0.282-0.108-0.353-0.917-0.344-2.27
	c0.009-0.662,0.108-1.222-0.146-1.401c-0.254-0.18-0.299,0.587-0.23,2.532l-0.02,2.115l-0.713,0.779
	c-1.129,1.166-1.207,1.11-1.209-0.903c0.05-1.592-0.008-2.291-0.32-2.165c-0.313,0.126-0.188,0.896-0.127,2.467
	c0.055,1.403,0.037,2.106-0.057,2.284c-0.076,0.143-0.443,0.557-0.813,0.919s-0.827,0.864-0.882,0.864
	c-0.086-1.69-0.231-5.33-0.231-5.33l-5.929-0.262c0,0,1.214-1.444,1.729-1.722c0.269-0.145,0.687-0.161,2.173-0.097
	c1.014,0.044,2.375-0.042,2.496-0.089c0.445-0.171-0.482-0.324-1.791-0.409c-0.873-0.063-1.1-0.039-2.068-0.182l0.862-0.891
	l0.647-0.645l1.892,0.062c1.145,0.038,1.994,0.031,2.126-0.043c1.12-0.221,0.071-0.477-1.205-0.479
	c-1.246-0.002-1.949-0.004-1.949-0.277c0-0.279,1.394-1.547,1.791-1.629c0.205-0.043,1.219-0.085,2.253-0.093
	c1.778-0.014,2.423-0.04,2.323-0.336s-1.277-0.209-2.061-0.243c-2.177-0.003-2.277-0.086-0.79-1.39l0.72-0.633l1.364,0.039
	c2.058,0.058,3.055-0.025,3.055-0.221c0-0.176-1.34-0.347-2.478-0.347c-0.68,0-1.232,0.011-1.232,0.011
	c0.509-0.662,1.054-1.2,1.648-1.79l1.838-0.035c1.342,0.021,2.165,0.071,2.188-0.174c0.023-0.245-0.48-0.243-1.098-0.247
	c-0.834-0.005-1.825-0.077-1.957-0.208c-0.141-0.142,0.123-0.534,0.705-1.058L106.941,99.058z M50.661,99.121
	c15.902,26.026,10.162,54.15-7.569,71.655l-0.52-3.415c16.738-20.396,19.661-41.453,6.12-66.231L50.661,99.121z M80.234,102.616
	c-2.855,4.301-7.22,8.544-8.867,12.056c-0.338,0.396-0.447,1.286-0.971,1.464c-0.262,0-0.347-0.496-0.281-1.644
	c0.049-0.865,0.13-1.155,0.547-2c2.253-4.121,4.864-7.082,7.747-10.996L80.234,102.616z M80.903,103.032l2.639,0.168
	c-0.586,1.87-1.378,3.205-2.312,4.419c-1.197,1.557-2.638,3.126-4.315,5.04c-2.431,2.773-3.647,5.597-3.534,6.839
	c-0.608,0.643-1.03,1.085-1.803,1.742l-1.539-1.418C71.18,113.957,76.707,108.568,80.903,103.032L80.903,103.032z M113.189,105.414
	l0.855,0.05c2.927,0.173,4.752,0.352,4.857,0.479c0.065,0.078,0.15,0.528,0.192,0.999c0.063,0.715,0,1.191-0.374,2.895
	c-0.247,1.121-0.524,2.115-0.616,2.208c-0.337,0.343-0.471,0.002-0.628-1.59c-0.094-0.961-0.132-1.66-0.258-1.583
	c-0.061,0.038-0.191,1.068-0.154,1.837c0.099,2.002,0.086,2.492-0.535,3.096c-1.087,1.058-1.146,0.95-1.229-0.926
	c-0.035-0.778-0.219-1.914-0.273-1.969c-0.236-0.235-0.314,0.843-0.316,2.667v1.945l-0.516,0.563
	c-0.674,0.731-0.893,0.843-1.141,0.595c-0.153-0.153-0.097-0.487-0.097-1.599c0-1.303-0.227-2.052-0.474-1.802
	c-0.046,0.047-0.059,1.307-0.061,2.404c0,1.098-0.018,2.068-0.031,2.157c-0.04,0.264-1.273,1.506-1.495,1.506
	c-0.259,0-0.466-1.434-0.466-2.605c0-0.782-0.167-0.92-0.332-0.49c-0.041,0.107-0.072,1.206-0.072,2.192v1.791l-0.725,0.749
	c-0.969,1.004-1.127,0.945-1.129-0.429c0-1.185-0.081-1.811-0.319-1.811c-0.137,0-0.17,0.561-0.17,1.892
	c0,0.912-0.06,1.815-0.131,2.007s-0.39,0.611-0.705,0.934c-0.315,0.323-0.64,0.587-0.72,0.587c-0.134,0-0.324-1.122-0.273-1.605
	c0.01-0.102,0.011-0.809,0-1.571c-0.026-1.819,0.098-1.741-2.801-1.833c-3.401-0.107-3.451-0.127-2.428-1.119
	c0.973-0.942,0.836-0.907,3.09-0.757c1.811,0.121,2.029,0.113,2.211-0.069c0.111-0.111,0.174-0.231,0.139-0.266
	c-0.033-0.035-0.724-0.099-1.533-0.144c-2.239-0.124-2.434-0.285-1.486-1.235l0.535-0.54h2.292c1.547,0,2.599-0.067,2.656-0.161
	c0.148-0.24-0.464-0.301-1.936-0.387c-0.79-0.046-1.534-0.111-1.652-0.146c-0.375-0.111-0.235-0.489,0.396-1.081l0.608-0.571h2.022
	c1.878,0,2.797-0.122,2.797-0.37c0-0.176-0.373-0.246-1.337-0.259c-1.363-0.018-2.273-0.149-2.334-0.336
	c0.332-0.645,0.792-1.006,1.328-1.544l2.058,0.073c2.07,0.074,2.72-0.001,2.72-0.362c0-0.188-0.887-0.324-2.034-0.255
	c-0.738,0.045-1.633-0.133-1.633-0.394c0-0.112,0.297-0.503,0.662-0.864l0.667-0.656l2.014,0.081
	c1.124,0.045,2.323,0.034,2.412-0.027c0.335-0.229-0.441-0.409-1.707-0.482c-1.951-0.113-2.078-0.266-1.047-1.243L113.189,105.414z
	 M42.941,106.495c10.438,18.727,8.874,36.368-2.241,51.383c-1.276-0.744-2.637-1.15-4.091-1.305l-0.281-45.216L42.941,106.495z
	 M117.593,113.813c0.209-0.032,0.205,0.313,0.146,1.038c-0.047,0.584-0.134,1.195-0.195,1.358c-0.12,0.316-0.215,0.331-1.229,0.186
	c-1.154-0.165-1.138-0.374,0.131-1.625C117.059,114.164,117.408,113.842,117.593,113.813z M61.556,114.654
	c0,0,1.375-0.009,2.062,0.016c0,0,0.107,3.504,0.388,5.525l4.474,0.215l-1.736,1.811l-3.394-0.108
	C63.349,122.112,62.317,117.138,61.556,114.654L61.556,114.654z M114.865,116.773c0.63-0.012,2.283,0.273,2.477,0.467
	c0.151,0.151,0.156,0.525,0.023,2.786c-0.048,0.815-0.098,2.566-0.107,3.891c-0.02,2.398-0.021,2.408-0.297,2.447
	c-0.365,0.052-0.406-0.076-0.505-1.656c-0.056-0.889-0.178-1.667-0.281-1.702c-0.119-0.039-0.107,0.745-0.107,2.366v2.096
	c-0.356,0.296-0.687,0.688-1.095,0.896c-0.25,0-0.385-0.394-0.508-1.489c-0.123-1.089-0.244-1.856-0.39-1.613
	c-0.034,0.057-0.02,1.242,0.05,2.215l0.128,1.771l-0.786,0.792c-0.806,0.814-0.907,0.88-1.036,0.671
	c-0.3-0.807,0.125-4.503-0.601-4.971c-0.117-0.062-1.081-0.088-2.2-0.136c-1.889-0.08-2.96-0.111-3.224-0.34
	c-0.16-0.138,0.731-1.174,1.189-1.381c0.331-0.149,0.704-0.159,2.262-0.055c1.803,0.121,2.713,0.107,2.473-0.123
	c-0.062-0.061-0.979-0.195-1.698-0.267c-1.45-0.144-1.961-0.29-1.961-0.56c0.337-0.6,0.751-0.953,1.248-1.467l0.701,0.073
	c0.386,0.039,1.298,0.137,2.026,0.22c0.729,0.084,2.2,0.098,1.606,0.047c0.192-0.193-0.56-0.392-1.603-0.521
	c-1.967-0.244-2.145-0.467-1.156-1.443l0.609-0.598c1.033,0.078,2.076,0.104,3.101,0.262c0.75,0.119,1.155,0.077,1.155-0.177
	c0-0.179-0.373-0.171-1.278-0.352c-0.328-0.065-2.021-0.04-2.05-0.54C113.432,117.828,114.146,116.818,114.865,116.773z
	 M69.024,121.022c0.301-0.017,0.315,0.716,0.347,2.651c0.034,2.12,0.068,2.485,0.25,2.667c0.174,0.174,0.607,0.233,2.466,0.328
	c2.845,0.145,2.918,0.187,1.915,1.154c-0.698,0.673-0.728,0.588-1.303,0.521c-1.503-0.176-3.7-0.135-3.786,0.004
	c-0.148,0.241,0.013,0.289,1.387,0.395c1.673,0.127,2.13,0.187,2.13,0.471c0,0.125-0.285,0.493-0.632,0.818l-0.632,0.59l-1.76-0.069
	c-1.854-0.075-2.805-0.101-2.805,0.15c0,0.153,1.058,0.321,2.734,0.486c0.436,0.044,0.882,0.051,0.906,0.124
	c0.06,0.183-0.787,1.234-1.311,1.625c-0.425,0.317-0.568,0.141-2.427,0.1c-1.896-0.041-2.06,0.031-1.706,0.383
	c0.084,0.084,0.397,0.093,1.105,0.143c1.161,0.082,1.719,0.256,1.719,0.544c0,0.275-1.047,1.361-1.537,1.595
	c-0.433,0.205-0.618,0.215-1.576,0.081c-0.754-0.105-0.897-0.264-0.878-0.973c0.009-0.32,0.064-2.391,0.123-4.604
	c0.113-4.275,0.148-4.492,0.713-4.412c0.241,0.035,0.298,0.326,0.362,1.775c0.068,1.543,0.133,1.849,0.389,1.849
	c0.096,0,0.11-0.612,0.051-2.1c-0.094-2.308-0.098-2.65,0.604-3.319c0.313-0.297,0.562-0.536,0.709-0.32
	c0.298,0.91,0.213,1.904,0.301,2.818c-0.009,0.919,0.349,1.111,0.432,0.234c-0.041-1.388-0.053-2.634-0.062-4.117l0.855-0.85
	C68.56,121.314,68.845,121.033,69.024,121.022L69.024,121.022z M63.481,122.752c0.34-0.057,2.243-0.024,2.519,0.038
	c-0.479,0.759-1.498,1.745-2.195,2.181C63.629,124.98,63.448,123.131,63.481,122.752z M117.399,126.947l0.404,2.852l-3.108-0.212
	L117.399,126.947z M75.512,127.41l0.054,0.008c0.225,0.086,0.288,0.637,0.378,3.285c0.042,1.246,0.127,2.223,0.204,2.315
	c0.09,0.108,0.478,0.162,1.198,0.162c0.585,0,1.688,0.037,2.449,0.081c1.664,0.096,1.707,0.166,0.717,1.146l-0.67,0.664
	l-2.084-0.086c-2.137-0.086-2.492-0.051-2.492,0.244c0,0.2,0.364,0.295,1.047,0.277c0.271-0.007,0.951,0.029,1.511,0.081
	c1.247,0.116,1.272,0.212,0.343,1.216l-0.67,0.722l-0.651-0.089c-1.047-0.145-3.798-0.109-3.956,0.051
	c-0.257,0.257,0.077,0.367,1.329,0.443c1.941,0.119,2.28,0.177,2.28,0.397c0,0.107-0.275,0.473-0.609,0.807l-0.604,0.606
	l-2.466-0.128c-1.728-0.029-2.318,0-2.357,0.112c-0.066,0.194,0.217,0.255,2,0.439c1.711,0.178,1.96,0.354,1.31,1.166
	c-0.715,0.891-0.983,0.991-2.331,0.86c-1.482-0.144-2.997-0.146-3.217-0.008c-0.341,0.217,0.01,0.361,1.063,0.44
	c1.596,0.119,2.527,0.29,2.527,0.524c0,0.265-0.528,0.944-1.04,1.336l-0.42,0.32l-1.822-0.193c-1.814-0.193-2.743-0.097-2.484,0.162
	c0.074,0.075,0.75,0.182,1.498,0.235c1.369,0.1,2.05,0.277,2.05,0.56c0,0.085-0.349,0.5-0.774,0.923
	c-0.432,0.429-0.916,0.713-0.916,0.713l-5.609-0.504c0,0-0.286-1.003,0.277-3.729c0.508-2.457,0.716-3.009,0.959-2.552
	c0.068,0.127,0.131,0.724,0.178,1.131c0.113,0.986,0.354,1.605,0.5,1.605c0.163,0,0.162-0.586-0.05-1.964
	c-0.296-1.922-0.329-1.998,0.4-2.771c0.626-0.663,0.979-0.819,1.175-0.518c0.055,0.085,0.13,0.956,0.204,1.687
	c0.131,1.285,0.207,1.58,0.374,1.413c0.107-0.107,0.188-0.476,0.069-2.382l-0.15-1.853l0.82-0.837
	c0.75-0.766,0.836-0.819,0.986-0.622c0.103,0.136,0.219,0.932,0.273,1.88c0.081,1.402,0.192,1.864,0.397,1.659
	c0.096-0.097,0.049-3.28-0.055-4.018c-0.067-0.481-0.033-0.552,0.574-1.234c0.724-0.814,1.104-1.15,1.302-1.154
	c0.261-0.006,0.402,0.794,0.404,1.856c0,1.134,0.091,1.583,0.196,1.725c0.271,0.366,0.303-0.915,0.238-2.181l-0.072-2.308
	l0.747-0.749c0.707-0.708,0.764-0.739,0.963-0.54c0.164,0.164,0.153,0.556,0.22,1.722c0.1,1.61,0.414,2.396,0.504,1.277
	c0.048-0.253,0.041-0.746-0.015-1.097s-0.102-1.146-0.101-1.764c0-0.942,0.049-1.194,0.277-1.567
	C74.226,128.28,75.203,127.441,75.512,127.41L75.512,127.41z M107.912,129.166c0,0,1.252,1.072,1.252,1.378
	c0,0.137-0.496,0.726-1.168,1.386c-1.237,1.217-1.354,1.426-1.498,2.732c-0.054,0.487-0.299,1.133-0.871,2.285
	c-0.438,0.883-1.07,1.914-1.07,1.914c-1.977,2.365-3.84,4.532-7.305,9.527c-0.198,0.459-0.208,0.918-0.41,1.299
	c-0.156,0.283-0.506,0.515-0.66,0.579c-0.228,0.096-0.686,0.38-1.017,0.634c-1.294,0.989-2.128,2.293-2.504,3.913
	c-0.204,0.876-0.324,1.664-0.679,4.365c-0.145,1.11-0.631,3.046-0.631,3.046c-7.443-0.106-14.412,1.186-20.624,4.698
	L107.912,129.166z M117.857,130.313l1.657,7.538l-1.707-0.035l-0.169-5.473l-5.324-0.51l1.903-1.845L117.857,130.313z
	 M109.779,131.004c0.457,0.465,1.024,0.976,1.438,1.481c-1.424,4.769-5.932,10.954-10.408,17.091l-3.282-0.359
	c-0.058-0.135,4.546-6.566,6.749-9.004c0.84-1.019,1.41-1.984,2.158-3.484c0.271-0.542,0.744-1.948,1.108-3.413
	C108.315,132.381,109.785,131.018,109.779,131.004L109.779,131.004z M111.548,132.675l2.481,2.521l0.605,35.688
	c-3.826-3.009-8.336-5.237-13.145-6.934l0.839-1.918l0.925-0.996c3.271-3.546,2.542-7.363,0.055-10.062
	c3.03-4.429,5.776-7.728,8.086-12.05l-0.031-2.965C111.336,133.227,111.548,132.675,111.548,132.675z M81.867,134.164
	c0.26-0.025,0.293,0.634,0.358,2.506c0.062,1.749,0.135,2.577,0.25,2.759c0.155,0.244,0.305,0.266,2.365,0.328
	c2.175,0.066,2.627,0.13,2.627,0.363c0,0.066-0.279,0.401-0.62,0.745l-0.62,0.621l-1.938-0.031
	c-1.032,0.033-2.253,0.013-2.284,0.043c-0.172,0.159,0.473,0.376,1.418,0.378c0.587,0.002,1.521,0.105,1.629,0.146
	c0.367,0.142,0.195,0.505-0.604,1.274l-0.798,0.771l-1.76-0.035c-0.967-0.017-2.144,0.012-2.297,0.063
	c-0.535,0.178-0.269,0.323,0.617,0.335c1.48,0.021,2.502,0.144,2.546,0.375c0.021,0.112-0.253,0.523-0.616,0.915l-0.659,0.706
	l-2.589-0.108c-2.447,0.019-2.777,0.201-0.735,0.405c0.78,0.078,2.01,0.271,2.053,0.278c0.044,0.007,0.114,0.099,0.154,0.204
	c0.086,0.225-0.899,1.337-1.425,1.609c-0.271,0.141-0.459,0.149-0.929,0.043c-0.552-0.126-2.923-0.103-3.178,0.05
	c-0.215,0.129,0.251,0.276,0.909,0.289c0.99,0.021,2.172,0.308,2.172,0.545c0,0.194-0.502,0.817-1.035,1.285
	c-0.248,0.217-0.836,0.022-2.474,0.077c-1.122,0.037-1.868,0.142-1.868,0.216c0,0.068,0.557,0.289,1.271,0.34
	c0.708,0.051,1.68,0.22,1.744,0.285c0.167,0.167-1.094,1.658-1.094,1.658l-5.382-0.075l-0.496-5.712l0.458-0.529
	c1.03-1.192,1.255-1.019,1.46,1.119c0.151,1.566,0.263,2.045,0.489,1.818c0.083-0.083,0.05-0.978-0.035-2.293
	c-0.068-1.082-0.127-2.069-0.127-2.192c0-0.298,1.225-1.586,1.464-1.54c0.235,0.046,0.366,0.579,0.493,2.042
	c0.104,1.202,0.16,1.53,0.396,1.293c0.111-0.111,0.127-0.74,0.016-2.262l-0.146-1.987l0.521-0.618
	c1.043-1.239,1.248-1.102,1.375,0.911c0.086,1.357,0.216,2.072,0.466,2.072c0.084,0,0.086-1.015,0.034-2.547l-0.077-2.301
	l0.651-0.664c0.358-0.363,0.724-0.659,0.809-0.659c0.253,0,0.399,0.577,0.559,1.941c0.179,1.528,0.238,1.791,0.386,1.644
	c0.062-0.063,0.049-0.987-0.035-2.177l-0.182-2.277l0.794-0.807c0.438-0.441,0.876-0.787,0.975-0.768
	c0.238,0.046,0.394,0.734,0.412,1.71c0.018,0.91,0.172,1.693,0.374,1.895c0.1,0.101,0.129-0.46,0.104-2.084
	c-0.039-2.5-0.103-2.691,1.021-3.863c0.3-0.313,0.496-0.516,0.632-0.529H81.867z M110.927,135.187l0.024,3.49
	c-1.396,2.993-4.623,7.38-7.894,12.088l-1.706-0.926C105.443,144.465,108.863,139.456,110.927,135.187z M64.209,136.283
	c0.076-0.001,0.162,0.003,0.258,0.008c0.883,0.052,0.906,0.357,0.085,1.127c-0.345,0.323-0.735,0.579-0.886,0.579
	c-0.254,0-0.267-0.038-0.188-0.702C63.573,136.478,63.672,136.288,64.209,136.283z M117.526,138.8l2.411,2.378l0.605,25.559
	l-2.539,4.147L117.526,138.8z M120.547,142.169c2.174,5.125,4.433,9.931,6.934,13.828l-6.446,9.12L120.547,142.169z M98.859,150.136
	c2.964-0.041,5.693,2.309,6.036,4.697c0.647,2.742-0.763,5.696-3.075,6.604c-0.807,0.29-1.279,0.31-1.279,0.31
	c-0.28-1.654-0.159-3.247-0.534-4.926c0,0-1.387,1.833-2.168,2.476c-0.404,0.224-0.586,0.284-0.533-0.247
	c0.026-0.928,0.097-2.988,0.097-2.988l-3.424,3.551c0,0-0.279-0.386-0.608-1.27c-1.075-2.886,0.321-5.899,2.526-7.283
	C96.858,150.426,97.871,150.149,98.859,150.136z M144.422,149.92l0.065,3.124c-5.374,4.175-13.041,12.973-19.61,24.438l-2.894,1.223
	C126.44,168.033,135.85,157.164,144.422,149.92z M144.48,154.028l0.057,4.656c-4.742,4.568-8.862,9.287-12.449,15.362
	c-2.094,1.007-5.971,2.921-5.971,2.921C125.631,176.85,136.682,159.613,144.48,154.028z M96.641,158.016
	c0.217-0.003,0.206,0.418,0.138,1.024c-0.153,1.375-0.314,1.874-0.816,2.543c-1.737,2.055-4.497,4.85-4.873,7.449
	c-0.19,1.389,0.892,2.688,1.955,2.556c3.302-0.414,3.657-6.293,3.935-9.193c0.116-0.719,0.17-1.322,0.289-1.549
	c0.696-0.89,1.443-1.757,2.383-2.459l0.404,4.493l1.86-0.622c-5.247,7.145-3.738,7.592-6.506,10.519
	c-2.572,2.72-7.562-0.378-6.284-4.514c1.109-2.781,2.826-5.573,3.29-8.554c0.126-0.885,0.199-1.5,0.199-1.5l1.192,2.494
	C94.414,160.103,96.186,158.121,96.641,158.016z M144.676,159.557l-0.012,3.208c-2.446,2.761-4.558,4.88-7.057,8.694l-3.969,1.813
	C136.229,168.327,140.48,163.699,144.676,159.557z M96.175,162.388c0,0,0.264,1.497-0.317,4.217
	c-0.275,1.29-1.514,5.055-3.472,4.167c-1.663-1.471,0.364-4.201,1.384-5.49C94.56,164.354,95.416,163.354,96.175,162.388z
	 M90.95,162.772l-1.083,2.319c-9.725,0.035-19.17,3.521-27.577,10.637l-2.126-0.698C69.07,166.59,80.111,162.487,90.95,162.772z
	 M101.174,164.556c10.96,3.677,16.021,9.042,20.167,14.669l-1.733,0.89c-4.344-5.633-9.705-10.787-19.689-13.769L101.174,164.556z
	 M88.616,168.025l-0.466,1.987c-6.138,0.185-12.615,2.367-18.918,6.751L66.96,176.4C73.303,171.414,80.548,168.566,88.616,168.025z
	 M116.667,181.453l-1.946,0.92c-5.809-7.551-11.061-9.7-17.029-11.623l0.644-1.675C106.354,171.207,112.239,175.286,116.667,181.453
	z M35.667,172.55l0.169,20.149l-1.4-0.281l-0.2-19.486L35.667,172.55z M32.424,173.643c-2.67,10.022-0.6,12.617,0.366,18.466
	l-2.211-0.354c-2.152-5.924-2.373-11.315-0.558-17.606L32.424,173.643z M99.603,175.181c0.167,0.16-0.136,0.652-0.548,0.896
	c-0.397,0.236-0.31,0.2-0.947-0.03c-0.62-0.225-1.41-0.812-1.41-1.035C97.149,175.02,99.205,174.997,99.603,175.181z
	 M101.486,175.324c0.365,0.044,1.423,0.023,1.489,0.355c0.024,0.197-0.391,0.519-1.239,1.1c-1.289,0.882-1.729,1.056-2.107,0.637
	c-0.358-0.397-0.253-0.809,0.352-1.367C100.568,175.506,100.908,175.321,101.486,175.324z M57.46,175.544
	c0.738,0,2.062,0.915,2.858,1.976c0.808,1.269,1.737,2.57,2.488,3.853c1.706,2.915,3.023,5.872,4.125,8.9
	c2.889,7.199,4.582,14.18,5.99,21.116c-0.026,0.584-0.532,0.573-0.947,0.436c-0.217-0.069-0.431-0.214-0.474-0.324
	c-0.597-1.699-0.804-3.436-1.26-5.141c-1.14-4.266-1.549-6.708-3.745-12.722c-1.139-3.12-2.789-7.465-4.591-10.803
	c-1.155-2.141-2.492-4.119-4.226-5.867c-0.459-0.457-1.029-0.875-1.029-0.965C56.65,175.707,56.938,175.544,57.46,175.544
	L57.46,175.544z M104.298,175.775c0.685,0.168,2.337,0.362,1.711,0.911c-2.323,0.895-3.076,1.864-4.308,2.852
	c-0.186,0-0.92-0.911-0.92-1.135C101.78,177.174,103.039,176.648,104.298,175.775z M60.819,175.783
	c0.971-0.035,1.921,1.223,2.368,2.015c2.986,4.403,5.543,10.683,7.647,16.836c2.264,6.624,3.701,12.992,4.325,17.511
	c-0.053,0.141-0.334,0.193-0.655,0.19c-0.611-0.005-0.698-0.146-0.854-0.634c-1.558-7.476-3.648-15.191-6.179-21.741
	c-1.359-3.491-2.901-6.995-5.069-10.514c-1.479-2.172-2.318-3.312-2.254-3.481c0.044-0.115,0.289-0.174,0.574-0.174L60.819,175.783
	L60.819,175.783z M54.144,175.914c1.31-0.004,3.478,1.555,4.949,3.555c3.121,4.287,4.907,9.295,6.761,14.154
	c2.128,5.567,3.663,11.756,4.58,16.627c0.156,0.698,0.412,1.004-0.246,1.224c-0.996-0.285-0.974-0.257-1.256-1.471
	c-0.389-1.305-0.507-2.622-0.875-3.948c-2.104-7.586-4.46-16.004-8.374-22.854c-4.702-7.541-6.069-5.443-6.826-6.773
	C52.914,176.127,53.438,175.916,54.144,175.914L54.144,175.914z M65.457,177.756c4.041,7.044,5.822,11.369,7.051,15.623
	c1.863,6.448,4.068,11.598,5.037,19.125c0,0-1.062,0.02-1.486-0.154c-0.177-0.176-0.363-0.928-0.475-1.544
	c-0.97-5.315-2.55-11.605-4.229-16.562c-1.81-5.517-3.963-10.764-7.146-15.832c-0.834-1.365-0.993-1.903-0.481-1.927
	C64.639,176.548,65.04,177.251,65.457,177.756z M107.553,177.003c0.188,0.002,0.263-0.025,0.605,0.093
	c0.535,0.185,0.705,0.301,0.735,0.514c0.044,0.309-0.287,0.409-1.321,0.652c-0.813,0.189-2.398,1.037-3.501,1.956
	c-0.512,0.427-0.952,0.884-1.075,0.884c-0.254,0-0.859-0.668-0.859-0.945C102.981,178.863,105.669,177.09,107.553,177.003z
	 M51.878,177.177c3.421,0.104,6.098,4.085,7.5,6.77c0.547,1.051,1.256,2.193,1.792,3.393c2.775,6.219,5.132,14.019,6.282,19.001
	c0.554,2.397,1.193,4.155,0.967,4.624c-0.281,0.179-0.877,0.042-1.151-0.189c-0.176-0.147-0.271-0.696-0.582-1.698
	c-0.798-2.567-2.119-9.906-5.563-17.619c-0.077-0.172-1.743-5.051-4.622-9.68c-1.173-1.885-3.068-3.068-4.796-3.454
	c-0.87-0.143-1.129-0.039-1.075-0.51c0.034-0.3,0.128-0.381,0.593-0.528C51.43,177.219,51.648,177.183,51.878,177.177z
	 M73.258,193.082c-0.234,0-0.441-0.447-0.598-1.181c-0.076-0.361-0.182-0.618,0.493-1.042c4.243-4.521,0.595-11.16-4.738-11.737
	c-0.494-0.075-1.132-0.077-1.317-0.146c-0.271-0.153-0.767-1.115-0.983-1.501C73.485,175.685,81.307,186.255,73.258,193.082z
	 M109.973,178.312c0.439,0.11,1.394,0.999,1.275,1.192c-0.144,0.232-0.971,0.24-2.162,0.451c-2.534,0.45-3.621,2.105-4.799,3.335
	c-0.262,0.08-0.494-0.102-0.729-0.501c-0.172-0.295-0.313-0.648-0.313-0.788C104.564,180.079,108.092,178.136,109.973,178.312z
	 M50.145,178.879c2.155,0,4.309,1.047,5.521,2.752c4.423,6.633,9.393,21.377,10.578,28.65c-0.12,0.233-0.435,0.258-1.048,0.08
	c-0.343-0.099-0.301-0.208-0.517-0.884c-1.39-5.298-2.912-10.442-4.703-15.16c-0.924-2.432-2.01-4.809-3.032-6.943
	c-0.646-1.351-1.948-3.755-2.441-4.489c-1.163-2.189-3.514-2.831-4.995-2.124c-1.532,0.831-1.726,2.815-0.559,3.696
	c0.969,0.678,2.497,0.565,3.058-0.483c0.192-0.372,0.131-0.833,0.008-0.95c-0.12-0.112-0.337-0.08-0.382,0.043
	c0.08,1.289-1.562,1.372-2.277,0.864c-1.145-0.856-0.383-3.569,2.735-2.478c1.204,0.634,1.607,1.834,1.037,3.107
	c-0.584,1.303-1.488,1.896-2.886,1.887c-1.696-0.03-3.618-1.223-3.633-3.365c0.009-1.6,0.744-2.93,2.131-3.821
	C49.252,178.931,49.453,178.879,50.145,178.879z M68.393,179.875c5.229,0.24,7.631,6.407,4.881,10.127
	c-0.701,0.89-1.146,0.728-1.445-0.42c-0.146-0.472-0.31-0.543,0.112-0.907c2.448-2.352,0.438-6.921-3.598-7.106
	c0,0-0.754-1.099-0.828-1.683C67.784,179.788,68.146,179.874,68.393,179.875L68.393,179.875z M111.994,180.299
	c0.397,0.098,1.237,0.905,1.237,1.189c0,0.335-0.165,0.271-1.095,0.111c-2.198-0.394-4.401,0.881-6.24,3.663
	c-0.892,1.67-1.002,1.512-1.472,0.073c-0.24-0.738-0.245-0.722,0.69-2.084C106.86,181.009,109.436,179.984,111.994,180.299z
	 M114.04,183.128c1.84,1.675,0.981,5.362-1.505,5.744c-2.193,0.254-4.141-2.121-2.76-3.737c0.898-0.976,2.021-1.074,2.713-0.235
	c0.714,0.866,0.412,2.047-0.605,2.169c-0.118,0.043-0.216,0.135-0.216,0.205c0,0.216,0.902,0.156,1.21-0.093
	c0.619-0.684,0.629-1.728,0.077-2.474c-0.489-0.66-1.532-1.186-2.369-0.846c-1.475,0.529-2.978,2.532-3.837,5.057
	c-0.241,0.709-0.383,1.375-0.485,1.532c-0.21,0.321-0.194,0.313-0.389,0.188c-0.171-0.108-0.485-1.653-0.485-2.242
	c0-0.446,0.385-1.627,0.894-2.64C107.879,182.783,111.471,180.788,114.04,183.128L114.04,183.128z M69.204,182.38
	c2.142,0.129,3.836,3.167,2.904,5.283c-0.288,0.39-0.703,0.654-0.896,0.409c-0.069-0.088-0.399-1.081-0.854-2.135
	c-0.456-1.053-0.876-2.082-1.006-2.339C69.012,182.869,68.766,182.372,69.204,182.38z M54.656,184.144
	c2.439,4.328,4.479,9.292,6.171,14.138c1.318,3.775,2.398,7.479,3.02,10.753c0.06,0.33,0.141,0.504,0,0.648
	c-0.239,0.239-1.403-0.357-1.403-0.357c-2.04-7.042-3.688-14.103-8.545-23.07c0,0-0.21-0.355-0.266-0.588
	c-0.066-0.562,0.098-1.272,0.439-1.67c0.137-0.147,0.323-0.157,0.588,0.146H54.656z M27.286,192.319
	c11.535,0.776,20.458,5.646,25.224,18.511c-1.693-0.957-10.283-7.561-25.093-8.437l-0.024-1.783
	c10.617-0.087,20.974,5.449,20.758,5.368c-3.949-8.158-13.874-11.464-20.896-11.68L27.286,192.319z M107.314,194.92
	c-0.727,1.142-0.695,1.095-1.044,2.08c0.041,0.319,0.099,2.313,0.146,3.478c0.062,1.482,0.103,2.129,0.22,2.27
	c0.197,0.238,0.6,0.276,0.774,0.062c0.069-0.085,0.188-0.404,0.27-0.71c0.952-3.604,1.399-4.953,1.783-5.4
	c0.253-0.325,0.339-0.296,1.383-0.177c2.352,0.209,3.15-2.599,1.614-3.729C110.405,191.646,108.224,193.567,107.314,194.92
	L107.314,194.92z M109.796,195.686c-1.68,1.385-1.729,3.379-2.239,5.217c-0.272,1.235-0.658,1.887-0.813,0.022
	c-0.286-2.586,0.074-4.517,1.193-6.034c0.691-1.117,1.829-1.869,2.852-1.941c2.2-0.154,2.426,1.593,1.813,2.531
	C112.158,196.161,110.926,196.458,109.796,195.686z M30.337,196.518c0.829,0,1.503,0.674,1.503,1.505s-0.673,1.505-1.503,1.505
	c-0.829,0-1.502-0.674-1.502-1.505S29.508,196.518,30.337,196.518z M35.125,197.548c0.742,0,1.345,0.601,1.345,1.343
	c0,0.743-0.603,1.348-1.345,1.348c-0.741,0-1.34-0.604-1.34-1.348C33.785,198.148,34.384,197.548,35.125,197.548z M39.49,199.022
	c0.604,0,1.09,0.491,1.09,1.096c0,0.605-0.486,1.097-1.09,1.097c-0.604,0-1.094-0.491-1.094-1.097
	C38.396,199.514,38.886,199.022,39.49,199.022z M42.587,200.986c0.467,0,0.844,0.382,0.844,0.85c0,0.467-0.378,0.846-0.844,0.846
	s-0.848-0.379-0.848-0.846C41.739,201.368,42.121,200.986,42.587,200.986z M31.735,203.688c-0.321,1.633-0.069,3.311,0.305,4.467
	c0.854,2.492,0.466,6.952,0.466,6.952l-2.504,2.512c0.18-2.341,0.457-4.799,0.328-6.765c-0.089-1.305-0.678-2.524-0.831-3.834
	c-0.142-1.212,0.072-3.638,0.072-3.638L31.735,203.688z M35.793,204.439l0.087,10.639l-8.57,8.321l-0.013-2.196l7.309-7.26
	l-0.155-9.857L35.793,204.439z M56.929,228.699l-0.563,0.918h9.669l0.204-0.918H56.929z M69.443,228.699l-0.227,0.918h4.477
	l0.148-0.918C73.842,228.699,71.489,228.7,69.443,228.699z M76.778,228.699l-0.143,0.918h16.618l-0.246-0.918H76.778z
	 M96.201,228.699l0.266,0.918h4.426l-0.365-0.918H96.201z M103.601,228.699l0.324,0.918h7.607l-0.632-0.918H103.601z"/>
<path fill="#D40000" d="M15.4,12.355v2.754h2.672c0,0,0.064,2.656,0.088,8.288c0.021,5.47,0.133,8.183-0.216,9.74
	c-0.936,3.59-6.132,3.609-7.163,1.028c-0.601-1.502-0.44-2.669-0.469-4.181H7.44c0,0,0.017,0.761,0.021,1.692
	c0.018,4.037,1.352,5.968,4.476,6.729c3.212,0.869,6.968-0.456,8.304-3.204c0.795-1.566,0.704-1.674,0.724-11.145
	c0.013-6.318,0.108-8.948,0.108-8.948h2.459v-2.754H15.4L15.4,12.355z"/>
<path fill="#D40000" d="M165.262,238.938v-2.755h-2.672c0,0-0.064-2.655-0.088-8.288c-0.021-5.469-0.133-8.182,0.216-9.74
	c0.936-3.59,6.132-3.609,7.163-1.028c0.601,1.502,0.44,2.669,0.469,4.181h2.872c0,0-0.017-0.761-0.021-1.692
	c-0.018-4.036-1.352-5.968-4.476-6.729c-3.212-0.869-6.968,0.456-8.304,3.204c-0.795,1.566-0.705,1.674-0.724,11.145
	c-0.013,6.318-0.108,8.948-0.108,8.948h-2.459v2.755H165.262L165.262,238.938z"/>
</svg>
