<?xml version="1.0" encoding="utf-8"?>
<!-- Generator: Adobe Illustrator 16.0.0, SVG Export Plug-In . SVG Version: 6.00 Build 0)  -->
<!DOCTYPE svg PUBLIC "-//W3C//DTD SVG 1.1//EN" "http://www.w3.org/Graphics/SVG/1.1/DTD/svg11.dtd">
<svg version="1.1" id="Layer_1" xmlns="http://www.w3.org/2000/svg" xmlns:xlink="http://www.w3.org/1999/xlink" x="0px" y="0px"
	 width="178.58px" height="249.45px" viewBox="0 0 178.58 249.45" enable-background="new 0 0 178.58 249.45" xml:space="preserve">
<path fill="#FFFFFF" d="M8.941,0.422h160.777c4.697,0,8.504,3.807,8.504,8.504v231.644c0,4.696-3.807,8.504-8.504,8.504H8.941
	c-4.696,0-8.504-3.808-8.504-8.504V8.926C0.438,4.229,4.245,0.422,8.941,0.422z"/>
<path fill="none" stroke="#000000" stroke-width="0.9967" d="M8.941,0.422h160.777c4.697,0,8.504,3.807,8.504,8.504v231.644
	c0,4.696-3.807,8.504-8.504,8.504H8.941c-4.696,0-8.504-3.808-8.504-8.504V8.926C0.438,4.229,4.245,0.422,8.941,0.422z"/>
<path fill="#D40000" d="M14.15,56.222c0,0-1.771-2.544-4.162-5.534c-1.599-2.002-2.877-4.169-2.996-6.035
	c-0.136-2.133,1.154-4.271,3.49-4.375c2.335-0.104,3.282,1.644,3.668,3.084c0.386-1.44,1.334-3.188,3.668-3.084
	c2.336,0.104,3.627,2.242,3.49,4.375c-0.119,1.866-1.397,4.033-2.996,6.035C15.922,53.678,14.15,56.222,14.15,56.222z"/>
<path fill="#D40000" d="M164.512,193.273c0,0-1.771,2.544-4.162,5.534c-1.599,2.002-2.877,4.169-2.996,6.035
	c-0.137,2.132,1.154,4.271,3.49,4.375c2.334,0.104,3.281-1.644,3.668-3.085c0.386,1.441,1.333,3.188,3.668,3.085
	c2.336-0.104,3.626-2.243,3.49-4.375c-0.119-1.866-1.397-4.033-2.996-6.035C166.283,195.817,164.512,193.273,164.512,193.273z"/>
<path fill="#D40000" d="M14.064,11.456v2.755h2.671c0,0,0.065,2.655,0.089,8.288c0.021,5.469,0.132,8.182-0.217,9.739
	c-0.936,3.591-6.131,3.61-7.163,1.029c-0.601-1.502-0.44-2.669-0.468-4.182H6.104c0,0,0.018,0.762,0.021,1.693
	c0.017,4.036,1.352,5.967,4.476,6.729c3.212,0.869,6.968-0.456,8.303-3.205c0.796-1.566,0.705-1.674,0.724-11.145
	c0.013-6.318,0.108-8.947,0.108-8.947h2.459v-2.755H14.064z"/>
<path fill="#D40000" d="M164.597,238.038v-2.754h-2.672c0,0-0.064-2.655-0.088-8.288c-0.021-5.47-0.132-8.182,0.216-9.74
	c0.936-3.59,6.132-3.609,7.164-1.028c0.6,1.501,0.439,2.669,0.468,4.181h2.872c0,0-0.017-0.761-0.021-1.692
	c-0.017-4.037-1.352-5.968-4.476-6.729c-3.213-0.869-6.969,0.456-8.304,3.204c-0.795,1.566-0.704,1.674-0.724,11.145
	c-0.012,6.318-0.107,8.948-0.107,8.948h-2.46v2.754H164.597L164.597,238.038z"/>
<path fill="#E2CF00" d="M152.909,29.433l-9.168,5.994l-0.128,6.991c-5.437-2.617-7.799-6.902-8.655-11.923
	c-1.538,1.945-1.232,11.768-1.232,11.768c-1.397,0.728-1.908,1.677-2.801,2.53c0.877,1.452,3.359,3.925,3.359,3.925
	c-0.018-0.043-1.139,10.228,0.218,10.637c1.238-4.378,2.889-8.197,8.961-12.201c0,0,0.093,16.306-0.297,32.06
	c-2.569-1.774-8.002-4.961-11.513-8.222c4.552-5.888-0.089-13.562-6.881-8.464c-4.401-2.39-5.078-13.679-6.167-19.591
	c-0.209-1.187-1.234-4.664-1.234-4.664s-14.506-4.024-20.734-3.696c5.231,13.674,4.216,30.338-18.938,33.46
	c-11.094,5.089-23.911,10.761-36.367,21.357c-2.295,15.778-10.408,23.547-16.137,27.844c0.041,6.395-0.043,12.724,0.219,19.177
	c-0.005,0.039,5.229-3.446,6.052-2.805c4.374,28.518,20.394,34.171,18.791,34.961c-0.258,0.128-5.249,5.273-5.249,5.273
	l-19.551-12.918c-0.67,19.718-0.281,39.823,0,59.574c3.451-1.957,9.797-6.639,9.797-6.639l0.096-6.709
	c-0.029-0.637,8.891,5.589,8.912,13.005c0.695,0.474,2.217-10.672,0.831-11.879l3.656-3.783l-3.938-3.803c0,0,1-6.312-1.041-9.948
	c-1.322,8.323-8.211,10.919-8.211,10.919s-0.135-30.424-0.313-30.45l12.288,7.803c-6.654,9.091,5.058,12.041,6.429,7.618
	c7.558,7.063,4.648,15.508,7.953,25.529l21.445,3.945c-8.838-16.446,0.752-35.187,18.107-33.847
	c3.252-1.358,6.194-3.319,6.194-3.319s-2.157-3.538-4.883-6.82l-37.146-0.615l17.315-32.564l-11.389-0.367
	c0,0,9.256-19.689,7.256-21.275c-0.702-0.558-0.409-6.906-0.409-6.906l10.174,0.38c0.402-4.545-4.92-21.861-12.43-33.186
	l41.751,0.375l-23.504,32.88l12.624,0.363l-7.533,15.521l1.207,12.104l-11.2,0.364c1.931,16.782,14.36,34.463,18.729,39.924
	c7.223-1.717,20.709-12.069,29.078-18.506c1.084-11.262,4.95-20.849,15.058-28.001l0.03-18.54c0,0-5.768,3.735-5.767,3.478
	c0.023-4.013-2.062-12.365-5.909-19.812c-4.127-7.989-10.903-15.226-12.462-15.679c3.584-5.439,5.113-5.927,5.063-6.013
	l19.522,12.558L152.909,29.433z M54.508,68.965c0,0-3.797,1.449-7.098,1.404c-5.912,0.306-10.422,0.783-12.82,5.647
	c-0.486,1.481,0.581,2.026,1.365,2.414C40.413,72.881,52.258,80.212,54.508,68.965z M28.261,94.436c0,0.784,0.874,2.065,1.312,0.735
	c0.38-0.949,0.457-2.488,0.031-3.436C28.416,91.064,28.275,93.668,28.261,94.436z M92.29,121.292l-5.774,0.027l-0.034,6.797
	l5.812-0.004L92.29,121.292z M149.006,155.131c-0.127,0.676-0.75,3.712,0.659,3.184
	C151.328,157.031,149.912,151.127,149.006,155.131z M143.57,172.195c-0.682-0.997-2.791,1.48-4.521,1.573
	c-7.693,0.413-13.36-0.619-14.318,7.452c4.437-2.84,10.652-1.545,14.656-2.464C142.281,177.793,145.602,175.164,143.57,172.195z"/>
<path fill="#131F67" d="M24.023,230.01V19.484h130.614V230.01H24.023z M30,93.573c0.112-2.025-0.719-2.863-1.438-1.471
	c-0.17,0.329-0.729,3.849,0.599,3.966C30.031,96.145,29.952,94.442,30,93.573z M27.893,95.949c-0.008-0.479-0.302-0.686,0.348-4.847
	c-1.24-0.479-2.314-2.5-1.411-3.777c0.353-0.498,0.25-0.607,0.105-1.026c-0.355-1.033-0.167-1.876,0.79-2.535
	c0.611-0.422,0.638-0.534,0.441-1.089c-0.504-1.429-0.031-2.824,1.332-3.299c0.943-0.329,0.762-0.376,0.861-0.977
	c0.223-1.345,0.963-2.157,2.308-2.021c1.25,0.127,1.332,0.127,1.439-0.485c0.297-1.695,2.346-3.547,5.021-4.805
	c1.328-0.625,3.529-1.067,7.748-1.056c2.416-0.042,5.429-0.366,7.119-1.855c0.278-0.261,0.666-0.947,0.801-0.854
	c0.315,0.218,0.238,1.906-0.379,3.444c-1.799,4.484-4.232,5.72-11.115,5.679c-2.052-0.098-5.074,0.181-6.355,1.49
	c-0.382,0.405-0.637,0.788-0.493,0.996c2.851,0.406,5.778,1.696,7.482,7.339c5.17-3.676,13.411-9.307,23.63-14.396
	c-1.228-6.743,4.603-7.783,7.873-6.441c0,0,0.083-0.44-0.044-0.95c-0.123-0.498-0.305-1.146-0.907-1.984
	c-0.152-0.305-1.07-0.885-0.89-1.344c0.297-0.751,0.165-0.957-0.462-1.648c-0.406-0.449-0.137-1.409-0.038-1.796
	c0.129-0.723,0.604-1.754,0.185-2.143c-0.648-0.601-2.854-1.618-3.989-2.427c-1.256-0.916-1.28-1.74,0.561-4.752
	c0.838-1.752,1.63-3.633,2.298-4.891c1.012-1.902,1.115-3.157,0.503-4.248c-0.8-1.425-0.668-3.115-0.649-3.071
	c0,0-7.553-10.608-10.664-14.846H25.855v80.742l6.104-5.827l-1.652-1.96c-0.233,1.138-0.021,2.251-1.421,2.315
	C28.409,96.619,27.969,96.42,27.893,95.949z M48.89,203.985c0.201-3.203-1.328-8.449-3.631-12.082
	c0.099,2.759,0.297,6.133-0.255,8.831L48.89,203.985z M104.646,212.347c-0.279-0.09-2.598-0.231-4.055-0.31
	c-4.829-0.257-7.965-2.58-10.058-5.794c-0.515-0.79-0.302-0.754,0.839,0.14c3.207,2.513,6.208,4.016,8.843,3.639
	c3.735-0.534,5.751,0.839,5.233,2.439C105.358,212.741,105.328,212.567,104.646,212.347z M91.995,205.199
	c-0.747-0.65-0.803-0.941,0.084-0.35c2.712,1.81,5.985,4.765,10.031,3.034c0.839-0.54,0.067-0.469-1.337-0.318
	c-2.147,0.229-4.763-0.865-7.98-3.093c-1.57-1.088-0.879-2.006,0.891-1.154c0.546,0.264,1.1,0.457,1.452,0.479
	c1.741-1.159,5.401-1.146,5.315-1.14c0.418-0.359-0.95-0.932-2.984-1.702c-1.322-0.501-1.642-0.706-0.658-0.745
	c0.859-0.033,2.212,0.396,3.188,1.03c1.628,1.049,2.447,1.63,2.933,1.698c0.799,0.063,1.613,0.179,0.243,0.815
	c-0.623,0.29-0.568,0.364-0.496,1.065c0.111,1.096,0.177,1.083,0.681,1.703c0.851,0.939,1.221,2.688,0.009,1.594
	c-0.262-0.121-0.289,0.111-1.003,0.4C98.17,209.705,95.046,207.853,91.995,205.199z M99.734,205.512
	c0.233-0.309,0.585-1.098,0.633-1.317c-0.081-0.512-0.534-0.352-0.764-0.063c-0.391,0.481-0.938,1.19-0.488,1.432
	C99.328,205.678,99.536,205.773,99.734,205.512z M98.303,205.18l0.932-1.666c-0.23-0.107-3.387,0.547-2.892,1.001
	C96.78,204.917,98.303,205.18,98.303,205.18z M101.856,199.59c-1.438-0.771-1.856-2.435-0.782-3.538
	c0.902-0.928,2.434-0.85,4.265,0.281c0.646,0.398,1.04,0.601,1.481,0.438c0.739-0.273,1.021,0.143,0.961,0.724
	c-0.134,1.277-2.119,1.591-3.371,0.132c-1.655-1.929-3.455-0.583-2.927,0.812c0.269,0.71,0.79,0.82,1.389,1.087
	C102.871,199.664,102.275,199.814,101.856,199.59z M95.302,190.997c2.382-0.644,5.924,1.883,7.845,1.539
	c0.832-0.179,0.715,1.023-0.149,1.46c-1.011,0.51-2.447,0.166-5.494-1.427c-2.51-1.36-4.54,0.894-2.862,2.575
	c0.359,0.34,0.884,0.545,1.527,0.515c0.848-0.04,1.098,0.192,0.004,0.475c-0.629,0.162-1.799-0.094-2.365-0.668
	C92.456,194.094,92.788,191.455,95.302,190.997z M44.891,183.617c-0.07-2.84,1.442-4.418,1.48-4.43l-10.706-7.285l0.159,29.097
	c5.305-3.378,7.046-7.635,7.351-13.13c10.473,11.766,7.204,26.088,0.663,34.244c-0.27-4.992-1.755-10.89-7.803-13.913l-0.01,5.954
	l-10.17,7.138v6.992H49.66l11.418-17.063c-2.065-7.585-1.755-13.896-3.152-17.367c-1.048-2.853-3.039-6.538-4.325-5.967
	C49.25,191.342,44.976,187.311,44.891,183.617z M53.9,186.975c3.708,2.679,4.697,7.056,5.458,10.945
	c0.025,0.033,1.946,13.188,2.007,13.365c0.249,0.722,0.166,1.441-0.47,1.989c-3.424,4.711-10.118,14.815-10.118,14.815l65.615,0.387
	c-3.501-5.108-6.235-10.158-9.561-14.357c0.14-0.225-0.26-3.093-0.814-4.021c-0.57-0.955-0.702-1.456-0.315-2.329
	c0.96-2.152,1.944-4.486,2.831-6.461c1.697-3.784,1.893-3.816-0.426-5.045c-2.748-1.604-3.238-2.127-2.662-3.958
	c0.211-0.667,0.237-0.934-0.613-1.107c-0.395-0.081-1.353-0.311-1.996-0.489c-1.854-0.587-1.317-0.223-1.996,0.259
	c-0.517,0.256-0.961-0.727-1.566-1.888c-0.697-1.334-0.873-1.365,0.279-0.679c2.133,1.272,5.92,0.778,4.586-0.695
	c-0.65-0.719-1.254-1.087-1.186-2.714c0.068-1.614,0.094-2.088-1-2.312c-2.186-0.449-4.563-0.262-6.599,0.248
	c-6.192,1.55-11.161,6.939-13.046,10.943c-0.424,0.698,0.551,0.662,0.971,0.665c2.029-0.182,3.47,3.063,2.142,4.517
	c-0.614,0.649-1.227,0.251-0.571-0.592c0.748-1.396-0.367-3.239-2.001-2.77c-2.058,0.591-2.115,3.258-2.37,5.116
	c-0.701,5.354,2.012,12.514,2.675,13.975L83.249,215c-0.05,0-0.376,0.302-0.515,0.145c-0.476-0.543-1.678-4.923-2.329-8.053
	c-1.263-8.656,0.97-16.615,8.149-21.136c6.359-4.603,9.563-3.611,13.174-3.824c1.233-0.444,2.944-1.12,4.24-1.757
	c11.326-5.926,21.648-11.719,31.146-19.415c6.943-5.254,10.256-9.516,16.206-14.885l-0.604-30.001c0,0-0.6-0.5-0.597-0.978
	c0.39-2.008-3.123,1.339-5.376,2.462c-1.42-13.765-8.84-27.3-17.836-35.214l0.37-0.507c0,0,3.009,1.992,4.511,2.94v-1.919
	l-3.622-2.276c-0.162-0.7-0.071-0.809,0.72-0.812l2.902,2.146v-1.752l-2.347-1.5l0.752-0.95l1.257,0.818
	c-0.533-1.387,0.221-1.338,0.994-0.419c0.322,0.421,0.737,0.961,0.914,1.472c0.066,0.195,0.268,0.673,0.268,0.673l2.058,1.536
	c0,0-0.079-0.748-0.006-0.978c0.347-1.089,2.831,2.423,2.519,2.505l2.107,1.524c0.499-0.764,2.377,0.757,2.454,1.506
	c0.165,0.326,7.263,4.905,7.263,4.905l0.078-2.529l0.765-0.999l0.345-58.437l-9.424,6.043l-0.104,7.074
	c-4.452-1.444-8.309-7.913-8.872-11.947c-0.29-0.158-1.579,7.957-0.897,11.51c-1.178,0.879-3.159,2.933-3.144,2.943l3.57,3.918
	c0,0-0.714,6-0.547,8.98c0.145,1.415,0.173,1.559,0.595,1.561c0.342,0.002,0.649-0.368,0.651-0.692
	c0.839-3.568,3.593-9.138,8.358-11.034c0.315-0.01-0.025,31.836-0.025,31.836l-11.827-8.093c-0.589-0.507,0.772-0.475,1.604-3.17
	c2.144-6.951-5.291-9.408-8.162-5.383c-0.473-0.003-2.446-2.449-2.741-3.471c-2.188-4.421-2.606-9.432-3.031-13.45
	c-0.257-1.828-0.926-4.823-1.479-6.627c-0.296-0.964-0.326-1.659,0.313-2.557c2.748-5.681,8.042-9.589,10.048-15.325l-65.789-0.213
	c4.167,3.449,7.784,13.075,11.582,14.313c-1.819,0.235-1.201,1.831-0.494,3.547c0.868,2.109,0.771,2.545-1.432,6.891
	c-3.23,6.371-3.404,5.813-0.182,7.784c1.99,1.278,2.353,1.558,2.06,3.293c-0.292,1.735-0.374,1.199,1.27,1.341
	c0.879,0.075,1.579,0.234,1.975,0.414c0.449,0.204,0.784,0.489,1.362,0.299c0.973-0.32,0.996-0.084,1.035,0.632
	c0.017,0.305,0.477,0.934,0.619,1.168c0.374,0.616,0.199,0.719-0.488,0.285c-2.115-1.337-5.652-0.766-4.351,0.687
	c0.536,0.599,1.075,2.589,1.121,3.579c0.082,1.77,1.229,2.396,3.636,2.032c4.623-0.345,15.047-6.102,17.476-12.566
	c-5.339,1.824-4.242-4.749-2.339-4.541c0,0-0.512,1.165-0.528,1.83c-0.058,2.351,1.905,2.532,3.257,0.868
	c0.589-0.875,1.303-4.123,0.951-7.79c-0.426-4.441-2.22-9.409-2.544-10.642c7.635,18.281,0.623,26.319-10.105,31.565
	c-4.109,1.722-4.673,1.711-7.095,1.824c-1.657,0.135-3.152,0.961-4.742,1.485c-9.18,4.395-20.462,9.875-30.554,18.05
	c-7.241,5.382-12.993,10.219-18.712,16.434l-0.023,32.255c1.721-0.269,4.512-1.948,6.164-2.915
	c1.894,12.048,8.07,25.999,18.302,34.342l-0.247,0.452c-1.457-0.971-2.913-1.937-4.325-2.681l-0.073,1.535l3.442,2.374
	c0.091,0.369-0.59,0.884-0.59,0.884l-2.843-1.969l-0.021,1.563l2.2,1.407c0.595,0.598-0.72,0.909-0.72,0.909l-1.304-0.948
	c0,0,0.094,0.76,0.054,0.895c-0.34,1.153-2.223-1.396-2.563-2.666l-1.852-1.101c0.262,0.752-0.4,0.857-0.926,0.669
	c-1.392-0.708-1.314-1.896-1.604-2.602l-2.464-1.567c-0.424,2.354-2.93-0.962-2.533-1.756l-3.161-2.158
	c0.175,0.065-1.205,0.352-1.672,0.046c-0.538-0.352-0.727-1.789-0.727-1.789l-1.896-1.177v2.06l19.492,13.65l-0.281,0.53
	L24.58,160.268l0.824,60.559l9.912-6.878c-0.189-2.267,0.228-4.29,0.04-6.873c5.094,3.18,6.808,5.343,9.054,12.021
	c1.454-3.801,1.198-7.448,0.546-10.823c1.302-1.068,2.569-2.106,3.224-3.719c-1.225-1.691-2.423-2.166-3.713-3.735
	c-0.102-1.912,1.016-7.61-0.482-9.489c0,0-2.738,8.277-8.638,10.766c-0.179-8.74,0.024-30.712,0.024-30.712s6.063,4.197,9.154,5.902
	c1.453,0.777,2.465,1.266,2.484,1.819c0.01,0.281-0.574,0.641-0.83,1.037c-0.159,0.246-0.83,2.61-0.569,4.459
	c0.118,1.362,0.759,2.225,1.372,2.878C48.928,189.549,52.49,188.572,53.9,186.975z M65.635,171.508l23.318-32.719
	c2.774,12.04,7.458,23.066,13.567,33.063L65.635,171.508z M77.165,137.118c0,0,1.628-3.235,2.374-4.952h-2.856l1.708-1.922h4.253
	l-2.275,4.862h1.806l2.495-4.862h6.626l-2.317,4.862h1.526l2.479-4.862h6.161l-2.167,4.862h1.443l1.266-2.454l0.31,4.466h-6.12
	l2.419-4.952h-1.973l-2.733,4.952h-5.732l2.486-4.952h-2.18l-2.73,4.952H77.165z M96.048,119.694l2.472-5.238h-1.955l-2.735,5.129
	h-6.11l2.404-5.07l-1.522,0.005c-1.032,1.599-2.679,4.847-2.679,4.847H79.44c0,0,1.833-3.444,2.556-5.129h-1.598l-1.302,2.081
	c-0.458-0.776-0.156-2.841-0.233-3.717h6.108l-2.454,5.027h1.949l2.676-5.027h6.45l-2.628,5.027h1.527l2.604-4.752h6.563
	l-2.301,4.752h2.027l-0.895,2.065H96.048z M90.01,110.566l-1.236,0.233C87.19,97.225,79.7,83.385,76.53,77.67l37.266,0.525
	L90.01,110.566z M133.767,32.185c0,0-3.554,4.583-3.791,12.273l3.385-2.712C133.146,33.943,133.767,32.185,133.767,32.185z
	 M130.014,45.035c-0.057,5.722,1.438,9.369,3.33,12.225c0.032-3.686,0.402-7.416,0.62-8.394L130.014,45.035z M37.752,154.508
	l-12.051-8.325v1.825l14.322,9.758L37.752,154.508z M35.581,150.04c-3.229-1.626-9.88-6.657-9.88-6.657v1.664l10.589,7.462
	c0.208,0.205,0.487,0.153,0.585-0.076C36.459,151.727,35.957,150.767,35.581,150.04z M32.624,142.812l-6.923-4.845v1.508
	c1.775,1.595,7.616,5.389,7.616,5.389L32.624,142.812z M25.701,136.865l6.513,4.222l-0.405-1.869l-4.625-3.15L25.701,136.865z
	 M142.73,78.337l0.348-30.086c-6.785,3.219-8.131,12.604-7.904,12.896c-6.755-6.982-9.301-22.036,0.174-32.16
	c0.712,3.247,0.951,7.957,7.653,12.261l0.172-6.372l9.36-6.017v-7.526h-22.57c-3.494,4.439-6.986,9.601-10.441,14.312
	c-1.298,1.766-1.621,2.597-1.373,3.52c2.272,8.19,1.817,18.275,6.587,23.044c6.397-6.034,12.392,3.05,7.419,8.652L142.73,78.337z
	 M45.417,208.435c0.866,2.74,0.271,8.267,0.214,8.267c1.033-0.563,3.843-8.566,3.141-11.573 M81.367,58.196
	c-1.593-0.454-2.792-1.14-4.475-0.979c-1.324,0.138-1.773-0.302-0.967-1.024c1.057-0.897,2.08-1.268,4.037-0.241
	c5.89,3.09,6.07-1.422,3.419-1.741c-0.753-0.091-0.718-0.572,0.032-0.45C87.529,53.924,86.275,59.391,81.367,58.196z M74.482,53.689
	c-0.779-0.285-1.72-0.762-2.066-0.668c-0.874,0.235-0.904-0.247-0.8-0.817c0.251-1.379,1.656-1.129,3.513,0.058
	c2.66,1.698,3.68-0.744,1.26-2.062c-0.814-0.443-0.563-0.566-0.088-0.586c1.262-0.052,2.448,1.669,2.114,3.077
	C77.566,54.95,75.508,54.065,74.482,53.689z M82.276,49.52c-1.721-0.3-4.214-2.621-5.371-2.78c-0.649-0.074-1.414,0.006-1.622-0.257
	c-0.636-0.801,1.165-0.801,1.287-1.092c0.005-0.677,0.047-1.1,0.02-1.33c-0.317-0.433-1.569-2.159-1.526-2.996
	c0.03-0.052,0.657,0.463,0.979,0.465c3.073-1.625,5.174-0.904,7.768,0.244c1.071,0.475,3.838,2.626,3.873,2.967
	c0.059,0.577-1.174-0.506-2.137-1.153c-2.372-1.654-4.506-2.83-7.484-1.85c-0.464,0.16-0.384,0.246,1.142,0.152
	c1.491-0.091,2.712,0.367,4.616,1.614c0.474,0.31,1.045,0.838,1.386,1c2.396,1.146,2.918,2.271,1.393,1.967
	c-0.326-0.065-0.959-0.406-1.58-0.627c-1.095-0.389-0.708-0.271-1.762,0.222c-0.37,0.173-1.261,0.537-1.991,0.624
	c-0.561,0.093-2.378,0.078-1.574,0.848c0.854,0.857,2.269,1.489,3.241,1.88C83.633,49.729,83.094,49.661,82.276,49.52z
	 M82.48,45.788c1.123-0.416,0.245-1.36-1.186-1.568c-0.326-0.048-1.026,1.502-1.041,1.828C80.242,46.291,81.866,46.017,82.48,45.788
	z M79.385,45.955c0.257-0.163,1.119-1.413,1.12-1.612c0.005-0.802-1.02-0.578-1.256,0.257C78.961,45.615,78.937,46.24,79.385,45.955
	z M75.8,39.491c-0.922-0.409-2.176-2.198-0.742-1.896c0.31,0.071,1.918,0.155,2.957,0.16c3.536,0.015,7.061,1.622,9.302,3.959
	c1.248,1.301,1.328,2.264,0.063,1.367C82.896,39.045,80.145,39.795,75.8,39.491z M110.726,178.653l-1.251,0.668
	c0.003,0.696,0.253,0.588,0.807,1.08c0,0-0.768,0.125-1.329,0.088c-0.914-0.061-1.124-0.046-0.72,0.6
	c0.188,0.298,0.443,0.739,0.443,0.739s-0.496,0.107-1.242-0.099c-1.131-0.311-1.711-0.154-1.283,0.476
	c0.118,0.175,0.345,0.502,0.345,0.502c-0.825-0.188-2.341-0.928-2.341-0.928l-1.069,0.325
	C105.218,186.284,112.805,183.648,110.726,178.653z M147.729,172.69c1.173-0.987,0.604-2.197-1.109-3.085
	c-0.713-0.369-0.643-0.374-1.799,0.307c-1.425,0.839-1.525,0.883-0.511,1.962C145.534,173.177,146.867,173.416,147.729,172.69z
	 M143.376,169.9c1.079-0.48,0.678-0.398,0.604-1.529c-0.314-1.303,0.421-1.394,0.785-2.61c0.15-0.665-0.41-0.419-1.5,0.598
	c-0.898,0.757-1.166,0.941-1.163,0.573c0.101-0.308-0.617-1.098-1.261-1.205c-0.545-0.091-0.493-0.216,0.038-0.906
	c0.924-1.198,1.304-2.709,0.684-4.04c-0.782-1.683-1.041-1.931-2.771-0.461c-0.886,0.818-2.138,1.446-2.743,2.459
	c-0.433,0.744-0.182,1.465,0.503,2.929C138.262,169.359,140.902,171,143.376,169.9z M149.437,169.932
	c1.901-0.747,1.135-2.807-1.837-4.882c-1.792-1.251-2.3-1.237-0.779,0.118c0.974,0.867,1.126,1.174,0.709,1.797
	c-0.348,0.521-0.713,1.132-0.367,1.607C147.705,169.322,148.635,170.247,149.437,169.932z M42.369,166.508l-2.072-1.313v1.795
	l2.072,1.242V166.508z M145.963,168.13c0.411-0.29,0.764-1.104,0.767-1.465c0.093-0.835-1.263-0.635-1.91,0.289
	C144.091,167.992,144.952,168.843,145.963,168.13z M150.604,165.304c0.945-0.993,0.485-2.05-1.454-3.31
	c-0.749-0.492-1.13-0.813-1.038,0.162c0.028,0.297-0.297,0.691-0.506,0.926c-0.673,0.755-0.374,0.89,1.542,2.107
	C150.123,165.81,150.071,165.863,150.604,165.304z M42.369,163.395l-2.072-1.255v1.63l2.072,1.402V163.395z M37.838,165.021
	l0.027-1.634l-2.686-1.791l-0.039,1.821L37.838,165.021z M143.445,164.361c-0.346,0.935,1.046,0.511,1.126,0.416
	c0.241-0.474,0.028-0.518-0.091-0.567C144.236,164.106,143.289,164.27,143.445,164.361z M144.053,163.18
	c0.478-0.154,0.533-0.095,0.467-0.957c-0.1-1.304,0.096-1.407,0.958-1.98c0.689-0.458,0.694-0.389,0.684-1.188
	c-0.014-0.964,0.053-1.379,1.317-1.575c0.518-0.081,0.813-0.208,0.856-0.618c0.072-0.688-1.031-1.851-2.404-2.522
	c-0.202-0.001-3.27,2.676-4.126,3.602l-0.523,0.564l0.626,1.177c0.976,1.834,0.816,2.509,0.242,4.941
	c-0.118,0.651,0.384,0.557,0.515-0.227C142.836,163.663,142.936,163.397,144.053,163.18z M148.728,156.69
	c-0.235,1.478,0.527,2.386,1.247,1.651c0.393-0.398,0.722-3.661,0.449-4.179C148.944,152.574,148.786,156.335,148.728,156.69z
	 M124.895,181.157c5.5-3.23,12.57-0.59,16.554-3.239c1.857-2.054,3.725-3.363,2.672-4.779c-0.82-1.103-1.353-1.271-1.353-1.271
	c0.058,0.078-2.903,2.58-7.198,2.001C128.408,173.621,125.024,175.876,124.895,181.157z M134.295,173.465
	c3.503,0.122,6.352-0.488,7.653-1.508c0.809-0.632,0.931-0.743-0.337-0.846c-2.721-0.22-5.476-3.384-6.339-6.453
	c-0.175-0.631-0.383-1.316-0.383-1.316c-7.249,5.803-23.205,14.943-23.205,14.943c1.059,4.94-2.509,7.887-7.342,6.132
	c-0.841-0.076-0.731,1.009-0.573,1.455c0.264,0.73,0.848,1.343,0.962,1.44c0.72,0.619,0.854,1.027,0.745,1.619
	c-0.107,0.585-0.097,0.565,0.313,0.785c0.726,0.39,0.688,0.945,0.292,2.091c-0.427,1.613-0.456,2.019,0.699,2.786
	c1.487,0.958,4.405,2.006,3.975,3.447c-0.977,3.268-2.579,6.078-3.989,9.135c-0.523,0.846-0.411,2.243,0.001,2.896
	c0.512,0.999,0.452,2.193,1.115,3.11c3.664,5.456,6.819,10.174,10.158,15.103h34.493v-80.386c0,0-5.818,5.318-5.802,5.693
	c0.021,0.448,1.265,1.148,1.8,1.237c0.021-0.242-0.004-1.2,0.065-1.536c0.049-0.486,1.604-0.359,2.118,0.063
	c0.36,0.297,0.25,2.23-0.115,3.805c-0.299,1.287-0.257,1.305,0.294,2.049c0.671,0.907,0.903,1.676,0.815,2.701
	c-0.049,0.561-0.044,1.005,0.114,1.376c0.373,0.874,0.264,2.104-0.147,2.676c-0.596,0.83-0.604,0.957-0.475,1.4
	c0.488,1.538,0.305,2.849-1.404,3.515c-0.22,0.085-0.459,0.465-0.599,0.792c-0.745,2.461-2.145,2.458-4.058,1.749
	c-1.354,5.295-6.863,6.625-10.83,6.469c-4.135-0.163-8.339,0.147-10.209,2.859C124.539,176.322,127.404,173.225,134.295,173.465z
	 M146.77,162.798c0.703-0.264,0.79-0.998,0.2-1.47c-0.906-0.724-1.947,0.013-1.522,1.06
	C145.686,162.975,146.088,163.053,146.77,162.798z M37.953,160.465l-2.753-1.913l0.016,1.714l2.744,1.767L37.953,160.465z
	 M43.146,161.873l-1.948-2.344c-5.743-3.523-10.721-7.463-15.497-10.636l-0.036,2.172l1.366,0.69c0,0,0.115-0.478,0.209-0.753
	c0.175-0.518,1.754,0.939,2.257,2.106c0.126,0.29,0.398,0.939,0.398,0.939l1.84,1.02c0,0,0.027-0.523,0.028-0.67
	c0.007-1.111,1.976,0.418,2.873,2.235c0.217,0.44,0.502,0.908,0.502,0.908l1.732,1.055c0.684-0.937,2.425,0.346,2.87,1.483
	c0.565,1.442,1.56,1.567,1.6,1.572L43.146,161.873z M32.78,161.558l0.004-1.665L29.914,158l-0.037,1.687L32.78,161.558z
	 M150.947,161.693c0.075-0.437-0.354-2.137-0.999-2.231c-0.403-0.06-1.033,0.552-1.035,0.979
	C148.909,160.996,150.866,162.166,150.947,161.693z M148.612,159.674c0.627-0.687-0.164-1.582-1.122-1.271
	c-1.139,0.369-0.745,1.403,0.529,1.425C148.304,159.833,148.475,159.824,148.612,159.674z M32.632,158.449l0.011-1.586l-2.651-1.758
	l-0.056,1.551L32.632,158.449z M27.417,157.89l0.026-1.527l-1.742-1.218v1.829L27.417,157.89z M27.48,153.314l-1.779-1.164v1.656
	l1.859,1.066L27.48,153.314z M34.707,148.279c-0.184-0.489-0.936-2.037-0.936-2.037l-8.07-5.65v1.739l9.028,6.09L34.707,148.279z
	 M30.931,134.853l-0.095-0.707l-0.719,0.384L30.931,134.853z M29.221,135.029l-1.129,0.612l3.41,2.225l-0.274-1.582L29.221,135.029z
	 M147.62,116.289l0.88-0.639l-1.554-1.056l-0.116,1.071L147.62,116.289z M149.193,115.273l1.155-0.957l-3.864-2.732l0.274,1.7
	L149.193,115.273z M151.932,113.843v-1.167l-6.266-4.244l0.434,2.134c1.104,0.64,2.454,1.575,3.865,2.57
	C150.859,113.769,150.862,114.012,151.932,113.843z M151.932,111.681v-1.852l-7.248-4.827l0.589,2.173L151.932,111.681z
	 M151.932,108.899l0.004-1.941l-8.774-5.815l0.96,2.568L151.932,108.899z M151.932,104.022l-11.061-7.425l1.415,2.846l9.646,6.466
	V104.022z M151.932,101.186l-13.882-9.262l1.559,2.592l12.323,8.357V101.186z M151.932,98.175l-0.519-0.002
	c-0.042,1.327-1.476,0.364-2.015-1.096c-0.407-0.978-0.498-1.224-0.498-1.224l-2.796-1.895c0.059,0.385,0.22,1.484,0.22,1.484
	l-1.883-1.153l-0.562-1.837l-3.218-2.193c0.068,0.374,0.123,0.99-0.087,1.032c0,0-0.978-0.419-1.426-1.072
	c-0.466-0.68-0.536-1.363-0.536-1.363l-2.625-1.704l-0.653,0.07c0,0-0.354-0.24-0.687-0.511c-0.623-1.116-1.353-1.285-2.223-1.739
	c0,0,1.848,2.163,2.835,3.441c0.906,1.18,2.006,2.022,2.006,2.022l14.665,9.813V98.175z M151.932,95.146l-1.133-0.683l0.083,1.792
	l1.05,0.716V95.146z M37.602,91.203c0.07-0.112-0.22-0.241-0.539-0.944c-0.789-1.74-0.866-2.348-0.444-4.176
	c0.201-0.873-0.589-1.247-0.952-0.316c-0.283,0.724-0.723,1.131-1.143,1.078c-0.396-0.05-0.48,0.117-0.309,0.666
	c0.211,0.761-0.246,1.751-0.883,2.021c-0.642,0.166-0.759,0.574-0.578,1.165c0.299,0.98-0.756,1.811-1.585,1.763
	c-1.281-0.072-0.778,1.097,0.766,2.211c0.571,0.413,0.827,0.636,1.276,0.428C34.38,93.99,36.554,92.405,37.602,91.203z
	 M148.786,94.795l-0.064-1.709l-3.223-2.184l0.396,2.287L148.786,94.795z M151.932,94.078v-1.722l-1.326-0.854l0.068,1.829
	L151.932,94.078z M30.615,91.412c0.309,0.313,0.615,0.342,1.105,0.046c0.565-0.296,0.35-0.744-0.242-1.036
	C30.926,90.13,30.151,91.018,30.615,91.412z M29.652,90.657c-0.043-0.36,0.395-0.845,0.697-0.863
	c0.662-0.039,0.545-0.394-0.212-0.854c-0.355-0.216-0.985-0.72-1.215-0.888c-1.132-0.824-2.227,0.448-1.385,1.523
	C28.242,90.477,29.28,91.012,29.652,90.657z M148.468,91.725l-0.25-1.901l-2.911-1.94l0.229,2.094L148.468,91.725z M42.648,87.09
	c0.158-0.264,0.206-0.515,0.19-0.834c-0.06-1.195-0.675-2.602-1.536-3.778c-0.643-0.876-1.42-1.624-2.209-2.063
	c-2.227-1.148-5.197-0.654-4.766,0.825c0.309,0.999,0.236,1.836-0.619,2.339c-0.582,0.342-0.655,0.803-0.04,0.804
	c0.446,0,1.63-0.41,2.124-1.19c0.696-1.1,1.095-1.738,0.938,0.056c-0.065,0.751,0.028,0.695,1.188,0.635
	c1.573-0.081,1.282,0.215,0.362,0.926c-1.339,1.035-1.604,2.786-0.929,4.275c0.418,0.922,0.707,1.412,1.252,1.289
	C39.784,89.596,41.707,88.036,42.648,87.09z M143.326,89.309l-2.865-1.892l0.112,2.024l3.094,1.831L143.326,89.309z M33.368,87.458
	c-1.05-1.33-2.282,0.368-1.485,1.11C32.461,89.078,33.92,88.557,33.368,87.458z M30.886,87.643
	c-0.131-0.414,0.628-1.079,0.747-1.344c0.348-0.771-2.762-2.913-3.729-1.644c-0.666,0.875-0.204,1.751,1.593,2.948
	C30.581,88.325,31.101,88.325,30.886,87.643z M143.047,86.36l-2.648-1.654l0.047,1.747l2.813,1.701L143.047,86.36z M138.379,87.924
	v-1.785l-2.668-1.865l-0.044,1.848L138.379,87.924z M34.651,85.813c0.483-0.479,0.32-0.636-0.616-0.587
	c-0.592,0.03-0.772-0.068-0.813,0.203C33.135,86.031,34.153,86.307,34.651,85.813z M32.431,85.139
	c0.048-0.124-0.286-0.368-0.833-0.827c-1.042-0.877-1.16-1.422-0.158-2.104c1.43-0.975-0.068-2.359-1.728-1.797
	c-1.34,0.455-1.344,1.809-0.548,2.68C30.256,83.818,32.234,85.922,32.431,85.139z M138.379,83.354l-2.625-1.804v1.757l2.625,1.535
	V83.354z M32.925,83.47c1.169-0.598,1.231-2.096,0.061-1.547c-0.482,0.227-1.115,0.84-1.116,1.117
	C31.865,83.58,32.328,83.774,32.925,83.47z M33.783,80.03c1.514-0.816,1.283-1.574-0.227-2.523
	c-1.842-1.059-3.132,0.973-1.615,2.354C32.736,80.585,32.92,80.495,33.783,80.03z M35.748,78.558
	c2.462-2.653,4.094-2.518,7.346-2.446c8.387,0.075,10.957-3.945,10.691-6.764c-4.076,2.03-7.713,0.94-11.592,1.527
	c-6.693,1.499-7.479,4.656-7.945,6.463L35.748,78.558z M69.367,69.519c2.162,0.02,2.064,0.086,1.176-1.696
	c2.104,0.288,2.952,1.3,2.258-0.801c1.116,0.399,1.784,0.706,2.938,1.087l0.73-0.425c-4.451-4.345-9.387-0.664-8.087,3.719
	l1.653-0.793L69.367,69.519z"/>
<path fill="#D40000" d="M80.23,228.336l1.035-5.03l9.238,0.45c0,0,1.072,3.157,1.507,4.58H80.23z M58.896,228.214l4.901-8.119
	l6.96,1.894l-1.602,6.348L58.896,228.214z M72.435,228.336l2.108-8.667c-3.981-0.88-7.737-1.458-12.132-2.647l-7.133,11.305
	l-4.292-0.114c3.697-4.941,10.451-14.92,10.451-14.92c15.489,5.345,31.105,6.247,46.829,3.423c0,0,5.792,7.665,7.868,11.822
	l-4.085-0.201l-5.075-8.526c-3.535,0.385-7.011,0.857-10.698,1.012l2.524,7.515h-4.057l-2.301-7.494
	c-4.424-0.171-8.142,0.175-13.441-0.656l-1.87,8.146L72.435,228.336z M101.667,228.339l-1.397-5.33l4.986-0.584
	c0,0,2.313,4.064,3.578,5.911L101.667,228.339z M56.927,178.818c6.2-9.453,28.075-39.758,28.075-39.758l3.213,0.131
	c0,0-19.59,27.367-29.037,41.167L56.927,178.818z M25.305,164.112l7.637,5.516l0.055,42.939l-7.76,5.478L25.305,164.112z
	 M57.006,93.863l4.623,9.074c-19.641,18.665-15.787,40.567-5.266,56.189c0,0-1.36,3.494-4.324,7.206
	c-14.236-9.416-18.566-33.889-18.458-34.15C49.27,118.147,51.384,113.678,57.006,93.863z M137.264,160.755
	c1.014-13.818,7.752-22.851,15.303-28.369l0.387,14.056C148.01,151.199,142.783,156.112,137.264,160.755z M116.756,146.836
	c17.2-16.112,17.787-38.993,5.257-55.789l5.128-7.183c7.269,7.803,14.396,15.979,17.43,34.982
	c-10.893,8.611-20.518,22.842-23.078,37.207L116.756,146.836z M93.055,128.09l-0.031-6.585l6.433-0.032l-0.183,6.574L93.055,128.09z
	 M79.454,128.038l-0.092-6.563l6.36,0.047l-0.1,6.651L79.454,128.038z M90.469,110.468c0,0,21.319-29.933,29.688-40.736l1.778,1.312
	l-28.354,39.592L90.469,110.468z M40.671,89.536c-0.021,11.81-7.568,21.168-15.277,27.273l0.105-13.446L40.671,89.536z
	 M152.685,32.547l0.045,52.418l-7.205-4.352l0.611-43.958L152.685,32.547z M118.344,35.651c-16.265-4.242-31.082-5.512-46.658-2.163
	c-2.03-2.429-8.853-12.543-8.853-12.543l3.938,0.058l5.573,8.947l10.617-1.392l-2.734-7.278l4.378,0.02l2.181,7.138
	c-0.022-0.057,8.638,0.086,13.45,0.657c0.766-2.65,2.188-7.917,2.188-7.917l4.822-0.003c-0.619,2.531-2.283,8.552-2.283,8.552
	c3.949,0.551,11.274,2.419,11.342,2.5c2.569-3.644,4.958-7.287,7.283-10.931l4.698-0.022
	C126.902,23.625,118.604,35.768,118.344,35.651z M115.343,29.367l-7.186-1.68l1.876-6.352l10.044-0.006L115.343,29.367z
	 M74.082,27.07l-3.342-5.896h6.429l2.129,5.192L74.082,27.07z M88.674,25.869l-0.973-4.694h11.675l-1.193,5L88.674,25.869z"/>
<path d="M61.982,20.78l10.383,15.03c0.048-0.049,5.818-1.153,11.49-1.433c5.639-0.277,12.361,0.076,12.418,0.248
	c0,0,1.775,5.374,2.377,8.013c0.794,3.525,0.711,7.582-0.127,10.274c-1.229,3.944-1.877,5.129-4.621,7.839
	c-2.034,1.978-4.91,4.131-7.877,5.28c-4.109,1.722-4.527,1.712-6.949,1.825c-1.602,0.075-1.764,0.138-2.64,0.594
	c-0.271,0.095-0.446,0.377-0.687,0.458c-0.203,0.068-0.587-0.009-0.587-0.009c-13.356,5.871-23.811,12.417-31.708,18.264
	c-0.092,0.067-0.15,0.371-0.239,0.443c-0.646,0.531-1.242,0.933-1.872,1.417l-0.367,0.014c-9.291,7.181-14.554,13.002-16.49,14.683
	l0.19,33.434c0,0,4.229-2.181,6.399-3.51c1.523,12.945,7.961,25.521,18.124,34.254l-4.409,6.096l-20.318-14.031l0.283,61.686
	l10.803-7.525v-6.506c3.219,2.175,6.361,3.021,8.646,12.925c1.828-3.479,1.668-8.659,0.849-12.12c0.013,0,2.743-2.262,3.579-3.996
	l-4.014-3.571c0,0,1.039-8.649-0.854-10.392c-1.498,3.926-2.691,8.087-8.288,11.116l-0.07-30.048
	c2.789,1.771,5.427,3.767,8.185,5.585l0.381-0.077L46.824,179c0,0-0.303,0.613-0.579,1.033c-3.466,5.273,2.31,11.741,7.009,7.85
	c1.84-1.524,5.293,4.813,5.943,10.906c0.664,3.938,1.021,8.824,2.087,12.244c0.33,0.998,0.2,1.558-0.502,2.163
	c-3.601,5.081-10.838,15.32-10.838,15.32h5.214l0.378-0.601h-3.844c3.312-4.419,6.47-9.567,9.904-13.882
	c12.798,4.832,33.762,5.948,46.422,3.019c2.615,3.679,5.157,7.534,7.672,11.281h-3.642l0.502,0.785h4.925l-10.375-15.32
	c-7.151,2.135-24.585,1.303-24.268,1.126c0,0-0.049-0.118-0.652-1.856c-2.993-9.692-3.271-18.295,4.238-25.246
	c3.988-3.558,8.443-5.904,13.419-5.459c2.224-0.044,2.267-0.165,3.193-0.585c0.512-0.231,1.569-0.472,1.569-0.472l5.04-2.804
	l0.665-0.133l1.449-0.767l0.3-0.355l2.343-1.193l0.263,0.021l3.166-1.828l0.043-0.257l1.245-0.771l0.297,0.315
	c0.346,0.028,12.413-7.915,17.446-12.343l0.312,0.117c5.877-4.77,13.867-12.29,16.237-15.146l-0.128-14.311l-0.2-0.174
	l-0.081-15.848h-0.458l-0.021-1.953c-2.599,0.965-5.458,3.385-5.65,3.284c-1.654-13.416-7.813-25.772-17.876-34.848l4.285-5.936
	l19.897,13.429l0.054-3.923h0.247c0.244-15.043,0.378-54.034,0.378-54.034l-0.195-0.019l-0.006-3.113l-10.17,6.514l-0.143,6.581
	c-4.509-1.478-7.365-6.911-8.312-11.753c-1.313,0.528-1.924,5.627-1.438,12.085c-1.394,0.834-2.286,1.747-3.141,2.852
	c1.104,1.395,2.33,2.539,3.681,3.709c-0.282,0.609-0.878,9.227-0.286,10.296c0.271,0.788,1.211,0.675,1.215-0.154
	c1.373-6.721,7.728-11.131,8.084-10.725l-0.155,30.989l-11.29-7.938c2.371-2.685,2.869-7.213-0.117-9.429
	c-2.993-2.223-5.925-0.338-6.618,1.075c-3.665-2.396-4.899-11.275-5.435-14.752c-0.133-1.69-0.566-3.987-1.065-6.059
	c-0.313-1.298-0.684-2.538-0.731-3.701c-0.021-0.548,0.043-0.785,0.539-1.471l10.978-15.621l-5.604-0.021l-0.055,0.097l4.407,0.013
	l-9.899,14.102c-14.894-4.693-30.337-5.829-46.858-2.852l-8.161-11.514l3.71-0.016l-0.146-0.247H61.982L61.982,20.78z
	 M70.596,20.912l0.156,0.282l6.415-0.021l-0.097-0.238L70.596,20.912z M80.106,20.947l0.122,0.339l4.377,0.016l-0.133-0.332
	L80.106,20.947L80.106,20.947z M102.452,21.066l-0.044,0.154l4.822,0.008l0.044-0.154L102.452,21.066z M87.672,21.07l0.047,0.197
	h11.635l0.044-0.186L87.672,21.07z M110.077,21.174l-0.045,0.164l10.042-0.008l0.086-0.156H110.077z M152.453,29.767l0.031,2.121
	l-6.746,4.302c-0.168,9.068-0.428,43.951-0.428,43.951l-1.616-1.063l0.317-43.683C144.012,35.396,149.979,31.549,152.453,29.767z
	 M134.75,31.474h0.229l0.068,0.49h-0.393L134.75,31.474z M135.229,32.754l0.178,0.666l-0.987-0.005l0.167-0.642L135.229,32.754z
	 M152.258,33.099v1.384l-5.821,3.648v-1.373L152.258,33.099z M134.292,34.25l1.522,0.021l0.255,0.766h-1.917L134.292,34.25z
	 M96.91,34.662l1.018,0.152c2.332,5.582,2.936,10.376,3.34,15.363c0.931,6.475,2.808,12.965,4.113,15.723l-1.493-0.016
	c-0.173-0.022-3.323-9.395-3.98-14.929c-0.176-1.097-0.105-2.113-0.161-3.13C99.413,43.548,98.829,40.332,96.91,34.662z
	 M98.822,34.886l1.301,0.135c0.908,3.964,2.231,7.705,2.769,11.688c0.86,6.37,1.32,12.875,4.383,19.153l-1.215-0.011
	c-1.858-4.245-3.009-8.673-3.749-13.46c-0.578-2.745-0.585-4.807-0.892-7.288C101.046,42.123,99.901,38.333,98.822,34.886z
	 M100.797,35.071l1.301,0.193c0.855,3.937,2.322,8.269,2.711,11.826c0.792,7.247,1.926,13.999,4.204,18.791l-0.91-0.028
	c-3.521-6.84-3.577-12.933-4.563-19.342C102.959,42.736,101.728,38.961,100.797,35.071z M102.87,35.377l1.147,0.178
	c0.799,3.916,2.232,8.35,2.565,12.322c0.591,7.031,1.834,12.354,4.443,18.031l-1.077,0.021c-3.15-5.529-3.572-12.316-4.553-19.189
	C104.854,42.942,103.633,39.123,102.87,35.377z M152.258,35.385V37.1l-5.821,3.747v-1.69L152.258,35.385z M104.748,35.717
	l1.199,0.188c0.773,3.776,2.211,7.808,2.55,11.484c0.58,6.285,1.732,12.633,4.315,18.48l-1.107,0.07
	c-2.732-5.905-3.921-11.279-4.438-18.065C106.977,44.068,105.517,39.428,104.748,35.717z M136.448,35.737l0.417,1.018l-2.789,0.136
	l0.034-1.143L136.448,35.737z M106.723,36.093l1.427,0.278c1.511,6.025,1.907,11.73,2.938,17.457
	c1.287,7.115,2.643,10.691,3.751,12.018l-1.182,0.039c-2.881-6.16-3.901-12.286-4.57-18.632
	C108.691,43.51,107.468,39.82,106.723,36.093z M108.898,36.499l1.087,0.22c1.298,4.925,1.881,9.53,2.452,13.988
	c1.037,8.465,3.85,14.903,4.447,15.201l-1.199-0.055c-2.602-3.606-3.564-9.745-4.844-18.41
	C110.279,43.635,109.721,40.051,108.898,36.499z M110.648,36.852l1.219,0.301c0,0,1.1,4.333,1.93,10.082
	c0.691,4.792,1.054,14.22,6.247,19.642c2.592,2.706,7.159,5.057,10.275,2.503c1.331-1.139,2.189-2.963,1.389-4.914
	c-1.346-3.266-5.902-2.706-4.386,0.721c0.17,0.821-0.9,0.856-1.646,0.055c-0.784-0.857-0.589-1.835-0.033-2.733
	c1.172-1.895,4.309-2.09,6.149-0.397c2.942,2.89,1.669,7.848-2.056,9.42c-4.291,1.828-9.821-1.946-12.011-5.548
	c-3.622-6.274-4.183-12.229-5.032-18.564C112.262,43.996,111.43,40.404,110.648,36.852z M112.485,37.357l1.236,0.303
	c0.005,0.017,1.356,6.105,1.806,9.713c0.555,4.459,1.167,9.714,3.07,13.77c1.184,2.522,2.906,4.644,4.648,5.88
	c1.497,1.063,2.84,1.734,4.831,1.3c2.3-0.502,2.4-4.072,0.205-4.081c-1.121-0.005-0.39-1.087,0.541-1.118
	c3.308-0.109,3.403,5.12,0.289,6.287c-3.566,1.336-7.421-1.183-9.808-4.345c-4.178-6.507-4.014-12.44-4.93-17.688
	C114.13,44.614,112.578,37.488,112.485,37.357z M137.513,37.54l0.755,1.013l-4.199-0.019l0.019-0.964L137.513,37.54z
	 M114.328,37.877l1.184,0.413c0.033,0,1.189,4.728,1.906,10.314c0.852,5.387,1.129,9.869,3.91,13.76
	c1.157,1.619,3.342,3.778,4.717,4.035c0.853,0.185,1.735-0.003,1.951-0.653c0.355-1.064,1.266-0.574,1.285,0.392
	c-0.004,0.676-0.498,1.377-1.334,1.62c-4.088,0.71-7.828-4.438-8.963-7.048c-1.537-3.798-2.195-8.041-2.862-13.324
	C115.84,45.149,114.49,38.02,114.328,37.877z M152.258,38.065l-0.021,1.706l-5.801,3.669v-1.66L152.258,38.065z M116.109,38.398
	l1.327,0.363c0,0,1.106,4.157,1.767,9.293c0.67,5.208,2.107,11.258,4.795,14.388c0.244,0.3,0.411,0.513,0.517,0.688
	c0.192,0.426-0.037,1.145-0.235,1.146c-4.787-2.498-5.919-12.538-6.33-15.933C117.343,43.095,116.109,38.398,116.109,38.398z
	 M134.724,39.203l4.223,0.12l1.007,0.994l-5.592-0.05C133.771,39.656,134.139,39.727,134.724,39.203z M152.258,40.588v1.415
	l-5.821,3.7v-1.448L152.258,40.588z M134.87,41.037l6.179,0.107l2.167,1.294l-9.441-0.078L134.87,41.037z M152.258,42.832v1.699
	l-5.821,3.658v-1.594L152.258,42.832z M132.583,43.153l10.499,0.112l0.026,1.141l-11.386-0.295L132.583,43.153z M131.214,45.105
	l11.876,0.031l0.029,1.263l-10.799-0.104L131.214,45.105z M152.258,45.301v1.771l-5.821,3.617v-1.68L152.258,45.301z
	 M133.447,47.156l9.102,0.044l-0.987,1.056l-6.864-0.069L133.447,47.156z M152.258,47.78v1.67l-5.821,3.672v-1.647L152.258,47.78z
	 M140.297,49.057l-1.104,1.075l-4.717-0.065l0.162-0.979L140.297,49.057z M152.258,50.229v1.792l-5.821,3.567v-1.553L152.258,50.229
	z M134.411,50.883l3.892,0.086l-0.595,0.819l-3.405,0.016L134.411,50.883z M99.413,52.311c0.587,4.506,3.847,13.59,3.845,13.587
	l-1.283,0.011c0.064,0.087-2.331-5.722-3.193-11.195C98.676,54.19,99.031,52.429,99.413,52.311z M134.156,52.568l2.997,0.055
	l-0.652,1.161l-2.44-0.005L134.156,52.568z M152.258,52.845v1.566l-5.821,3.59v-1.427L152.258,52.845z M134.061,54.43l1.985,0.063
	l-0.47,1.075l-1.539-0.046L134.061,54.43z M152.258,55.274v1.67l-5.821,3.622v-1.613L152.258,55.274z M98.188,55.63
	c0.584,3.281,3.066,9.874,3.255,10.307l-1.101,0.014c-0.049,0.15-2.579-5.909-2.849-8.502C97.363,56.905,97.65,55.83,98.188,55.63z
	 M134.04,56.326l1.178,0.055l-0.2,0.613l-0.954,0.023L134.04,56.326z M134.146,57.804l0.612,0.016l-0.146,0.584h-0.382
	L134.146,57.804z M152.258,57.835v1.349l-5.821,3.695V61.6L152.258,57.835z M96.729,57.981c0.883,2.63,1.766,5.312,2.813,7.877
	l-1.304-0.031c-0.864-1.85-1.471-3.93-2.145-5.97C95.907,59.006,96.302,58.277,96.729,57.981L96.729,57.981z M95.43,59.737
	l2.167,6.074h-1.23c-0.506-1.222-1.075-2.587-1.474-3.845C94.483,60.663,94.521,60.619,95.43,59.737z M152.258,60.117v1.603
	l-5.821,3.612v-1.381L152.258,60.117z M93.968,61.409c0.283-0.028,0.302,0.333,0.555,1.059l1.188,3.362l-1.52-0.037
	c-0.445-1.059-0.718-1.984-0.83-3.016c-0.041-0.5-0.132-0.998,0.217-1.209C93.749,61.471,93.873,61.419,93.968,61.409z
	 M92.352,62.678c0.256,0.008,0.355,0.471,0.557,1.166l0.631,1.973l-1.418-0.036c-0.418-0.932-0.578-1.602-0.453-2.577
	C91.988,62.832,92.199,62.673,92.352,62.678z M152.258,62.686v1.676l-5.821,3.509v-1.555L152.258,62.686z M90.893,63.889
	l0.596,1.941l-1.281-0.029c-0.213-0.455-0.077-1.01-0.084-1.523L90.893,63.889z M89.215,64.883l0.044,0.016
	c0.183,0.859,0.004,0.913,0.016,0.905l-1.79-0.011C87.484,65.793,88.935,64.869,89.215,64.883z M152.258,65.387v1.338l-5.821,3.641
	v-1.357L152.258,65.387z M83.052,67.506l34.976,0.102l1.165,1.651c0,0-3.402,0.093-14.548,0.023
	c-9.383,0.121-28.237-0.201-28.237-0.201l1.835-0.866C80.781,68.155,83.088,67.492,83.052,67.506z M152.258,67.704v1.474
	l-5.821,3.536v-1.428L152.258,67.704z M53.841,69.119c-2.812,1.25-5.437,1.557-7.398,1.397c-4.223-0.344-10.684,1.428-11.983,5.498
	c-0.407,1.437-0.412,1.476,0.362,2.208c0.386,0.363,0.759,0.639,0.83,0.61c0.679-0.604,1.579-1.726,2.545-2.054
	c1.269-0.385,1.956-0.438,4.038-0.529c4.483-0.199,5.496-0.389,6.611-0.685c2.455-0.651,4.929-3.074,5.078-5.772
	C53.94,69.484,53.841,69.119,53.841,69.119z M53.72,69.486c-0.474,5.629-6.552,6.362-9.221,6.202
	c-5.413-0.325-7.546,1.297-8.403,2.304c-0.283,0.27-0.447,0.205-0.402-0.041c0.628-3.116,5.648-3.233,8.177-3.199
	c6.193,0.283,7.763-2.712,7.588-2.741c-0.47,0.212-0.818,0.396-1.294,0.624c-0.205,0.085-0.162-0.04-0.698-0.352
	c-0.009,0.041-0.619,1.434-1.411,0.112c0.021,0.066-0.563,1.174-1.643,0.139c0.007,0.112-0.653,1.062-1.709,0.091
	c-0.994,0.853-1.466,0.383-1.893-0.217c-0.313,0.188-1.232,1.435-2,0.094c-0.817,0.521-1.159,1.088-1.862,0.746
	c-1.642,0.295-3.062,1.983-3.641,3.531c-0.181,0.532-0.546,0.615-0.59,0.031c-0.194-1.614,2.455-4.412,5.114-5.185
	c2.068-0.601,3.478-1.034,8.023-0.86C50.439,70.865,53.72,69.486,53.72,69.486z M120.071,69.913l1.64,1.114L93.18,110.483
	l-2.518-0.065L120.071,69.913z M74.305,69.939h3.244v5.378h-2.796l-0.999-1.489c0.258,0.152,0.558,0.243,0.879,0.243
	c0.96,0,1.738-0.781,1.738-1.744s-0.778-1.74-1.738-1.74s-1.74,0.777-1.74,1.74l0.021,0.251l-1.046-1.555
	c0,0,0.444-0.266,1.504-0.739C73.646,70.162,74.305,69.939,74.305,69.939z M84.303,69.939h5.495v5.378h-5.495V69.939z
	 M96.344,69.939h5.688v5.412l-5.688-0.034V69.939z M108.628,69.939h5.685v5.378h-5.685V69.939z M152.172,70.067l0.086,1.679
	l-5.821,3.548v-1.659L152.172,70.067z M111.263,70.624c-1.016,0-1.845,0.823-1.845,1.842s0.829,1.845,1.845,1.845
	s1.839-0.826,1.839-1.845S112.278,70.624,111.263,70.624z M87.063,70.721c-1.016,0-1.839,0.823-1.839,1.842s0.823,1.846,1.839,1.846
	s1.839-0.827,1.839-1.846S88.079,70.721,87.063,70.721z M99.051,70.757c-1.016,0-1.839,0.821-1.839,1.84s0.823,1.847,1.839,1.847
	s1.84-0.828,1.84-1.847S100.066,70.757,99.051,70.757z M105.245,70.977c0.853,0,1.543,0.692,1.543,1.547s-0.69,1.548-1.543,1.548
	c-0.852,0-1.542-0.693-1.542-1.548S104.394,70.977,105.245,70.977z M80.858,71c0.853,0,1.543,0.692,1.543,1.547
	s-0.69,1.548-1.543,1.548s-1.543-0.693-1.543-1.548S80.006,71,80.858,71z M117.413,71.054c0.366,0,0.7,0.141,0.952,0.368
	l-1.681,2.289c-0.416-0.25-0.694-0.704-0.694-1.227C115.99,71.694,116.626,71.054,117.413,71.054z M93.263,71.063
	c0.853,0,1.542,0.692,1.542,1.547s-0.689,1.548-1.542,1.548s-1.543-0.693-1.543-1.548S92.41,71.063,93.263,71.063z M74.633,71.174
	c0.636,0,1.15,0.517,1.15,1.153c0,0.638-0.515,1.156-1.15,1.156c-0.635,0-1.152-0.519-1.152-1.156
	C73.48,71.69,73.998,71.174,74.633,71.174z M71.104,71.236c9.802,12.521,15.011,25.213,17.303,39.046l-1.645-0.078
	c-2.724-15.045-8.854-27.948-17.17-38.362L71.104,71.236z M111.263,71.248c0.672,0,1.218,0.544,1.218,1.218
	c0,0.675-0.546,1.224-1.218,1.224c-0.673,0-1.22-0.549-1.22-1.224C110.043,71.792,110.59,71.248,111.263,71.248z M87.063,71.344
	c0.672,0,1.22,0.545,1.22,1.219c0,0.675-0.548,1.224-1.22,1.224s-1.218-0.549-1.218-1.224
	C85.846,71.889,86.392,71.344,87.063,71.344z M99.051,71.379c0.673,0,1.219,0.544,1.219,1.218c0,0.675-0.546,1.224-1.219,1.224
	c-0.672,0-1.219-0.549-1.219-1.224C97.832,71.923,98.379,71.379,99.051,71.379z M129.552,72.254c0.646,4.956-0.63,8.154-4.396,8.673
	c-4.804,0.661-5.429,1.024-5.455,5.586c-0.032,5.408-0.828,6.971-4.646,7.397c-4.296,0.481-5.295,0.992-4.909,6.349
	c0.281,3.909-1.256,5.572-4.563,6.298c-2.587,0.567-4.827,1.436-5.786,4.05l-2.364,0.031c0.614-4.117,4.741-6.084,7.386-6.221
	c2.852-0.679,3.448-1.637,2.986-6.649c-0.348-3.774,1.032-4.921,5.453-5.783c3.534-0.698,4.399-1.717,4.207-4.615
	c-0.412-6.217-0.003-7.151,3.52-7.907c1.794-0.427,4.716-0.618,5.83-1.993c1.268-1.564,0.945-2.896,0.83-4.817L129.552,72.254z
	 M152.258,72.42v1.625l-5.821,3.602v-1.582L152.258,72.42z M66.714,73.383c-1.244,5.389,3.036,6.561,5.64,7.471
	c3.029,1.058,3.766,2.591,3.422,7.945c-0.261,4.051,0.184,4.947,2.799,6.338c4,2.07,5.075,5.012,3.299,9.319
	c-1.096,2.655-0.521,3.399,0.172,5.718l-1.938-0.02c-0.142,0.045-1.78-2.891-0.382-6.051c1.656-3.744,1.608-5.622-2.084-7.307
	c-2.856-1.304-3.732-2.534-3.91-5.216c-0.075-1.13-0.066-1.691,0.197-4.147c0.332-3.095-0.768-4.426-5.33-6.127
	c-2.033-0.758-3.416-2.522-3.832-5.32c-0.116-0.783-0.011-1.686-0.011-1.686L66.714,73.383z M134.951,73.967l17.352,11.58
	l-0.119,2.576l-18.409-12.338L134.951,73.967z M123.77,74.223c0.839,0,1.521,0.682,1.521,1.523s-0.682,1.524-1.521,1.524
	c-0.84,0-1.52-0.683-1.52-1.524S122.93,74.223,123.77,74.223z M69.18,74.888c0.762,0,1.377,0.617,1.377,1.381
	s-0.615,1.386-1.377,1.386s-1.381-0.622-1.381-1.386S68.418,74.888,69.18,74.888z M152.207,75.05l-0.058,1.552l-5.713,3.544v-1.552
	L152.207,75.05z M75.36,76.067h39.531l-1.015,1.37L76.11,77.051L75.36,76.067z M61.654,76.135
	c5.247,6.859,10.404,13.927,14.382,27.246l-1.696,0.654c-3.284-10.721-8.336-19.627-14.291-26.993L61.654,76.135L61.654,76.135z
	 M152.258,77.356v1.698l-4.378,2.673l-1.288-0.843L152.258,77.356z M59.333,77.539l0.775,1.021c0,0-0.84,0.661-1.79,1.343
	c-2.588,1.857-2.926,2.067-3.098,3.276c-0.41,2.87,2.533,4.287,5.488,2.627c1.061-0.485,3.383-1.962,3.383-1.962l0.666,0.986
	c0,0-3.329,2.499-5.283,3.068c-4.287,1.249-7.487-4.2-4.319-7.437c0.484-0.494,1.507-1.158,2.321-1.686
	C58.313,78.234,59.333,77.539,59.333,77.539z M76.978,78.215l36.425,0.217l-23.262,31.89l-1.033-0.058
	C87.305,98.336,82.832,87.914,76.978,78.215z M61.095,79.566l2.128,2.982c0,0-1.387,1.33-3.679,2.587
	c-1.837,1.008-3.825-0.823-2.669-2.475C58.063,81.021,61.095,79.566,61.095,79.566z M152.258,79.871v1.556l-2.523,1.551
	l-1.152-0.739L152.258,79.871z M60.829,81.066c-1.01,0.054-2.685,1.202-3.255,2.193c-0.245,0.426-0.158,0.784,0.068,1.076
	c0.345,0.445,0.753,0.419,1.964-0.229c2.474-1.322,2.937-2.106,1.847-2.882c-0.15-0.107-0.33-0.155-0.532-0.159H60.829z
	 M60.748,81.704c0.16-0.016,0.344,0.034,0.498,0.021c0.427,0.176,0.296,0.709-0.151,0.835c-0.099-0.155-0.841-0.177-0.791,0.58
	c-0.181,0.429-0.173,0.396-0.718,0.456c-0.36-0.088-0.601,0.163-0.671,0.321c-0.375,0.201-0.835,0.139-0.921-0.089
	c-0.084-0.221,0.225-0.855,0.486-0.854c0.125,0.01,0.348-0.179,0.578-0.334c-0.009-0.414,0.477-0.474,0.617-0.473
	c0.139,0.029,0.602,0.035,0.825-0.344C60.565,81.744,60.652,81.713,60.748,81.704z M152.258,82.076v2.398l-1.828-1.172
	L152.258,82.076z M51.19,82.377c6.634,7.857,11.411,16.22,14.452,27.793l-1.33,0.922c-2.01-8.114-5.104-16.689-14.26-27.836
	L51.19,82.377z M128.803,82.51c3.004,2.559,15.312,14.179,17.657,34.803l-1.647,1.013c-1.322-10.886-5.591-23.366-17.074-34.427
	L128.803,82.51z M122.868,83.225c0.839,0,1.52,0.683,1.52,1.524s-0.681,1.524-1.52,1.524s-1.521-0.683-1.521-1.524
	S122.029,83.225,122.868,83.225z M49.344,83.82c0,0,1.394,1.438,1.392,1.779c-0.005,0.678-0.542,1.063-3.746,2.233
	c-0.54,0.197-2.906,0.745-2.906,0.745l-0.087-1.152c1.207-0.437,4.449-1.216,4.687-1.907c0.116-0.271-0.46-0.958-0.339-0.958
	L49.344,83.82z M71.445,84.113c0.762,0,1.376,0.621,1.376,1.386c0,0.764-0.614,1.385-1.376,1.385s-1.382-0.621-1.382-1.385
	C70.063,84.734,70.684,84.113,71.445,84.113z M127.28,84.509c10.027,9.825,15.546,21.966,16.835,34.502
	c-11.678,9.526-19.611,21.502-22.764,36.483c-1.558-2.604-2.883-5.598-4.323-8.525c15.582-13.734,18.862-38.47,5.385-55.809
	L127.28,84.509z M65.955,86.382l0.701,1.091c0,0-0.146,0.134-2.33,1.493c-3.193,1.988-3.72,3.286-2.653,5.32
	c1.09,2.08,2.306,2.19,5.735,0.525c1.212-0.589,2.24-1.206,2.24-1.206l0.549,1.141c0,0-1.535,1.253-4.493,2.34
	c-2.781,1.023-5.411-0.72-5.905-3.942c-0.359-2.342,0.659-3.599,4.717-5.907C64.973,86.994,65.955,86.382,65.955,86.382z
	 M113.734,86.899c0.84,0,1.52,0.685,1.52,1.525c0,0.842-0.68,1.524-1.52,1.524s-1.52-0.683-1.52-1.524
	C112.215,87.584,112.895,86.899,113.734,86.899z M51.769,86.959l0.918,0.868c0,0-0.396,0.583-2.656,1.947
	c-2.033,1.228-2.243,1.028-1.23,1.886c1.887,1.599,4.504,5.14,4.489,6.055c-0.014,0.881-0.799,1.693-2.309,2.375
	c-0.826,0.372-4.095,1.541-4.575,1.625c-0.954,0.104-1.224,0.488-0.269,1.358c1.622,1.866,3.006,5.86,2.45,7.078
	c-0.627,1.372-1.379,1.604-7.386,1.88c-0.685,0.031-1.012-0.164-0.641,0.715c0.27,0.639,0.553,1.516,1.088,4.225
	c0.477,2.416,0.396,3.502-0.539,4c-0.538,0.286-4.716,0.187-6.441-0.154c-1.976-0.389-2.19-0.415-1.871,0.875
	c0.414,1.781,0.673,6.557-0.671,7.479c-0.56,0.364-1.16,0.275-3.613-0.554c-1.565-0.528-2.921-1.135-2.921-1.135l0.027-1.479
	c1.275,0.526,4.771,2.039,5.766,1.561c1.18-1.694-0.459-7.636-1.084-8.908c-0.756-1.52,0.034-1.852,1.773-0.909
	c0.914,0.646,8.779,3.756,8.332,0.973c-0.479-2.641-1.334-5.646-2.993-7.534c-1.534-1.746-0.77-2.46,0.938-1.694
	c3.021,1.354,9.266,1.022,8.955-0.382c-0.412-2.283-2.479-5.378-5.309-7.777c-0.787-0.668-0.818-0.953,0.109-1.117
	c2.645-0.212,10.211-0.991,9.152-2.772c-0.906-1.459-2.119-3.071-3.151-3.939c-1.695-1.426-3.404-2.045-4.163-2.341l0.049-1.093
	C47.439,89.78,49.231,88.741,51.769,86.959z M43.427,88.034c-1.235,12.991-6.654,23.696-17.839,31.162l-0.062-1.456
	c9.833-7.407,14.554-17.937,15.833-28.125L43.427,88.034z M52.923,88.648l0.92,0.827c0,0-0.238,0.359-1.562,1.421
	c-1.03,0.795-0.67,0.481,0.031,1.428c0.624,0.751,1.735,2.26,1.735,2.26l-0.331,2.007c-1.164-1.663-2.13-2.873-3.857-4.65
	c-0.878-0.907-0.828-0.932,0.426-1.586C51.224,89.834,51.988,89.201,52.923,88.648z M67.255,88.851l0.008,0.003
	c0,0,1.798,3.246,1.796,3.541c-1.068,0.992-3.87,2.445-5.017,2.104c-1.769-0.565-2.046-2.458-0.348-3.575
	c1.467-1.071,3.294-2.004,3.54-2.069L67.255,88.851z M78.031,89.941c0.762,0,1.376,0.617,1.376,1.381s-0.614,1.385-1.376,1.385
	s-1.382-0.621-1.382-1.385S77.27,89.941,78.031,89.941z M66.876,90.057c-1.313,0.348-2.602,1.524-3.325,2.043
	c-0.264,0.188-0.055,1.136,0.197,1.462c0.325,0.418,0.924,0.349,1.64-0.05c0.3-0.167,0.843-0.44,1.204-0.607
	c1.01-0.468,1.432-0.816,1.395-1.207C67.824,91.173,67.412,90.019,66.876,90.057z M40.439,90.561
	c0.283,1.458-0.593,4.019-1.089,5.462c-2.942,3.859-7.208,5.833-11.264,7.181c-0.901,0.3-2.111,0.147-2.111,0.147
	C31.587,97.561,36.398,93.315,40.439,90.561z M66.95,90.656c0.369,0.016,0.634,0.493,0.516,0.775
	c-0.633,0.343-0.983,0.052-0.902,0.532c0,0,0.063,0.749-0.864,0.767c-0.226-0.099-0.618-0.081-0.809,0.112
	c-0.648,0.27-1.215-0.3-0.51-0.623c0.19-0.087,0.661-0.235,0.791-0.526c0.066-0.361,0.365-0.649,0.691-0.449
	c0.173,0.013,0.56,0.041,0.685-0.235c-0.048-0.31,0.171-0.337,0.328-0.349L66.95,90.656z M28.921,91.305
	c-0.158-0.013-0.276,0.001-0.313,0.052c-0.272,0.257-0.707,4.279-0.424,4.569c0.394,0.402,1.481,0.513,1.585,0.034
	c0.34-1.578,0.257-2.757,0.419-4.088C30.219,91.629,29.395,91.345,28.921,91.305z M29.359,91.741c0.14,0.031,0.256,0.225,0.343,0.56
	c-0.015,0.663-0.091,2.039-0.347,2.809c-0.158,0.598-0.619,0.462-0.793-0.089c-0.182-0.573-0.03-2.199,0.312-2.866
	C29.057,91.84,29.22,91.71,29.359,91.741z M55.34,91.752l0.961,1.195c-2.035,19.385-15.839,36.154-30.577,42.803l-0.044-1.285
	C42.541,125.582,52.688,110.794,55.34,91.752z M122.046,91.833l1.827,2.521l-2.617,0.081L122.046,91.833z M43.652,92.653
	c0.904,0,5.707,2.964,5.064,4.44c-0.511,1.176-4.53,1.27-6.373,1.105l0.277-1.132c0,0,0.562,0.196,2.703-0.031
	c2.248-0.15,2.083-0.926-0.494-2.562c-1.109-0.696-1.365-0.868-1.365-0.868L43.652,92.653z M56.961,94.242
	c1.487,2.516,2.896,5.352,4.219,8.527c-18.155,17.185-16.746,40.587-5.299,55.947l-4.933,6.678
	c-9.863-9.439-15.234-21.052-17.048-33.386C48.297,121.619,55.063,106.114,56.961,94.242z M124.383,95.005l1.084,2.078l-2.604-0.043
	L124.383,95.005z M113.141,96.046c0.84,0,1.52,0.682,1.52,1.523s-0.68,1.521-1.52,1.521c-0.839,0-1.521-0.68-1.521-1.521
	S112.302,96.046,113.141,96.046z M70.895,96.455l0.518,1.182c0.024,0.147-3.674,1.318-4.864,2.823
	c-1.099,1.391-0.996,2.841-0.378,3.842c1.055,1.427,1.803,1.627,3.58,1.08c1.45-0.446,2.516-1.049,3.954-1.784l0.227,0.595
	c0.003-0.031-2.065,1.218-3.642,2.108c-0.592,0.335-1.303,0.477-1.92,0.461c-3.587-0.086-5.487-4.729-2.529-7.471
	c0.434-0.401,1.896-1.206,3.13-1.845C69.791,97.021,70.895,96.455,70.895,96.455z M118.378,97.188
	c11.842,17.133,3.735,35.906-3.91,42.548l-0.205-2.017c12.874-14.709,8.396-31.887,3.031-39.522L118.378,97.188z M125.998,97.958
	l0.932,2.116l-2.75-0.292L125.998,97.958z M78.269,98.649c0.762,0,1.38,0.621,1.38,1.386c0,0.764-0.618,1.381-1.38,1.381
	s-1.378-0.617-1.378-1.381C76.891,99.271,77.507,98.649,78.269,98.649z M116.966,98.921c10.379,15.124,4.591,39.24-15.207,46.586
	l-0.101-1.69c20.187-8.465,22.17-31,14.059-43.716L116.966,98.921z M71.975,99.013l1.312,3.552c-1.65,1.108-2.297,1.297-4.146,1.748
	c-1.457,0.334-2.593-2.192-1.475-3.16C68.943,100.047,70.318,99.569,71.975,99.013z M38.313,99.025
	c0.244-0.012-0.014,0.594-0.641,2.116c-1.38,3.353-1.473,3.424-4.949,3.977c-1.809,0.288-3.156,0.359-4.441,0.235
	c-1.94-0.188-2.771-0.737-1.514-1.002c3.645-0.804,7.674-2.697,10.295-4.53C37.744,99.33,38.146,99.033,38.313,99.025z
	 M104.282,99.438c0.942,0,1.709,0.768,1.709,1.713s-0.767,1.711-1.709,1.711s-1.704-0.766-1.704-1.711S103.34,99.438,104.282,99.438
	z M52.687,99.912l-0.146,1.318c0,0-2.106,1.115-3.104,1.536c-0.762,0.31-0.814,0.378-0.569,1.086
	c0.493,1.415,1.442,3.168,1.442,3.168l-0.879,2c-0.537-1.799-1.104-3.698-2.091-5.373c-0.937-1.311-1.111-1.474,0.347-1.747
	C49.569,101.265,51.033,100.805,52.687,99.912z M71.49,100.34c-1.03,0.046-3.182,0.914-3.395,1.744
	c-0.121,0.469,0.013,1.126,0.408,1.273c1.071,0.398,3.221-0.485,3.788-1.292c0.177-0.249-0.092-0.766-0.281-1.088
	C71.866,100.731,71.894,100.322,71.49,100.34z M71.543,101.048h0.055c0.174-0.016,0.81,0.791,0.096,0.723
	c-0.246-0.023-0.469,0.069-0.671,0.279c-0.024,0.388-0.579,0.534-0.845,0.402c-0.199-0.099-0.477,0.104-0.506,0.224
	c-0.4,0.29-0.906,0.276-0.971,0.07c-0.136-0.145,0.268-0.737,0.62-0.715c0.075,0.005,0.325-0.165,0.56-0.368
	c0.111-0.404,0.537-0.334,0.806-0.313C70.991,101.473,71.27,101.075,71.543,101.048z M127.303,101.11l0.761,2.119l-2.721-0.243
	L127.303,101.11z M114.699,101.576c0.914,0.26,1.421,1.117,0.916,1.976c-0.563,0.72-1.082,0.728-1.902,0.688
	c0.672,0.799,0.97,1.903,0.315,2.626c-0.995,1.019-2.916-0.543-2.773-0.686L114.699,101.576z M40.799,102.352
	c0,0,4.188,3.618,4.218,5.239c0.012,0.618-0.187,0.818-0.679,0.982c-1.646,0.547-6.225-0.859-6.225-0.859l0.59-1.12
	c0.721,0.199,4.268,1.12,4.573,0.667c0.316-0.471-2.964-3.681-2.971-3.684L40.799,102.352z M61.584,103.863l0.502,1.75l-1.712-0.427
	L61.584,103.863z M128.459,104.177l0.448,2.419l-2.742-0.643L128.459,104.177z M76.184,104.216l0.408,1.42
	c-18.19,8.46-23.502,27.89-14.017,43.925l-1.071,1.479C48.806,130.401,61.667,109.455,76.184,104.216z M34.761,105.645
	c0.36,0.005,0.429,0.2,0.428,0.413c-0.002,0.291-1.838,2.643-2.433,3.171c-1.291,0.523-6.268-1.563-7.011-3.177
	c-0.146-0.473,0.345-0.266,1.446-0.041C29.984,106.81,32.814,105.713,34.761,105.645z M83.225,105.673
	c0.762,0,1.379,0.616,1.379,1.381c0,0.764-0.617,1.386-1.379,1.386s-1.378-0.622-1.378-1.386
	C81.847,106.289,82.463,105.673,83.225,105.673z M59.795,105.702l0.246,2.154l-2.112-0.123L59.795,105.702z M25.924,107.376
	c1.385,1.248,3.42,2.28,5.224,2.64c1.123,0.248,0.798,0.364-0.244,1.443c-0.975,1.021-0.894,1.151-1.886,0.646
	c-1.655-0.842-3.457-2.755-3.384-3.796C25.664,107.876,25.739,107.374,25.924,107.376z M129.247,107.609l0.344,2.298l-2.593-0.901
	L129.247,107.609z M57.219,108.438l0.845,2.057l-2.299-0.065L57.219,108.438z M114.124,108.928c1.084-0.05,1.505,0.79,1.512,1.475
	c-0.001,0.288-0.069,0.773-0.069,0.773c1.352-0.863,3.146-0.154,3.093,1.24c-0.075,1.966-1.032,1.984-2.599,1.724
	c0.857,1.426-0.161,2.799-1.773,2.273c-1.469-0.479-1.186-2.033-0.498-2.955c-3.467,0.567-4.394,5.514-0.391,6.983
	c-0.805-1.25-1.004-2.741,0.741-2.992c1.622-0.232,2.309,1,1.608,2.484c1.523-0.531,2.958,0.346,2.5,1.834
	c-0.555,1.797-2.147,1.673-3.088,0.578c0.676,1.629-0.887,2.802-2.064,2.171c-1.857-0.995-0.938-2.771,0.307-3.243
	c-4.783-0.494-5.895,6.141-2.368,7.087c-0.905-0.569-1.007-3.181,1.06-2.823c2.029,0.409,1.546,2.301,0.244,3.16
	c1.571-0.336,3.043,1.04,2.086,2.433c-1.127,1.642-2.682,0.472-3.259-0.646c0.181,1.498-0.769,2.452-1.99,1.891
	c-2.099-0.965-0.549-3.38,1.092-3.226c-3.328-1.973-7.853,2.166-5.188,5.591c-0.104-1.556,0.67-2.833,1.735-2.656
	c0.938,0.105,1.759,1.178,1.494,2.021c-0.245,0.719-1.063,1.271-1.918,1.443c2.545,0.283,2.762,2.09,1.707,2.979
	c-1.791,1.512-2.622-0.232-3.037-1.253c-0.364,2.536-3.346,1.673-3.449-0.159c-0.102-2.007,2.208-1.966,2.635-1.853
	c0.055-0.069-1.787-1.896-3.752-2.157l0.013-1.164c7.745-4.871,10.409-13.378,7.951-21.442l0.466-0.538
	c1.264,0.969,2.531,3.043,4.866,2.282c0,0-0.544-0.383-0.813-0.648C111.775,110.406,112.452,109.006,114.124,108.928
	L114.124,108.928z M63.093,110.397l0.802,1.182c-11.744,13.801-9.604,29.59-2.85,40.043l-0.983,1.192
	C54.084,145.128,49.204,126.492,63.093,110.397z M25.869,110.569c0.971,0.562,1.618,1.409,2.523,2.15
	c0.699,0.568,0.69,0.671,0.112,1.211c-1.301,1.258-2.031-0.564-2.452-1.31C25.538,111.624,25.485,110.606,25.869,110.569z
	 M71.675,110.648c0.879,0.084,1.473,0.946,1.427,1.656c-0.017,0.308,0.006,0.556,0.006,0.556s0.254-0.314,0.459-0.692
	c1.002-1.682,3.16-0.714,2.805,1.217c-0.166,0.906-1.688,1.26-2.102,1.001c0.395,1.079,1.462,1.333,2.763,1.8
	c0.454,0.087,1.233,0.311,1.233,0.311l0.031,0.73c-7.045,4.451-11.033,11.999-8.45,22.321l-0.778,1.057
	c-1.422-3.429-2.718-3.353-5.055-3.487c0,0,0.581,0.411,0.916,0.807c0.708,0.84,0.393,2.304-0.588,2.456
	c-2.271,0.354-2.293-1.262-1.993-2.355c0,0-0.407,0.342-0.606,0.472c-0.9,0.588-2.022-0.022-2.128-1.188
	c-0.099-1.097,0.274-1.806,1.399-1.941c0.378-0.046,0.961,0.05,0.961,0.05s-0.224-0.431-0.347-0.673
	c-0.538-1.061,0.643-1.967,1.728-1.738c1.713,0.414,1.577,1.896,0.586,3.061c2.655,0.2,4.049-1.541,3.853-3.271
	c-0.239-2.109-1.207-3.249-3.297-3.617c0,0,0.338,0.53,0.481,0.787c0.535,0.951-0.233,2.12-1.357,2.113
	c-1.152-0.007-1.891-1.067-1.446-2.113c0.108-0.255,0.541-0.573,0.476-0.603c-0.046-0.021-0.641,0.164-0.804,0.189
	c-1.385,0.217-2.273-1.005-1.693-2.225c0.411-0.865,1.648-1.098,2.546-0.674c0.144,0.053,0.316,0.253,0.344,0.209
	c0.026-0.043-0.091-0.325-0.127-0.525c-0.285-1.117,0.25-1.715,1.457-1.638c1.689,0.108,2.319,1.491,1.184,2.736
	c-0.293,0.321-0.742,0.797-0.742,0.797c0.057,0.244,2.409,0.422,3.612-0.841c1.392-1.461,1.611-4.509,0.213-5.504
	c-0.231-0.164-0.694-0.49-0.694-0.49c0.666,1.34-0.561,2.881-1.643,2.593c-2.163-0.523-1.976-2.299-0.553-2.859
	c0,0-1.443-0.542-1.858-1.124c-0.588-0.823-0.39-1.582,0.315-2.161c0.888-0.716,2.148-0.246,2.758,0.638
	c0.367-1.124,0.886-1.884,2.419-1.271c1.071,0.513,1.062,1.947-0.118,2.729c-0.379,0.25-1.051,0.482-1.051,0.482
	s1.014,0.58,2.248,0.594c2.382,0.027,4.267-2.788,3.307-4.939c-0.195-0.438-0.682-1.001-0.682-1.001s-0.053,0.753-0.201,1.041
	c-0.55,1.073-1.815,1.092-2.563,0.415c-0.68-0.615-0.48-1.438,0.047-1.998c0.399-0.426,0.761-0.509,1.319-0.77
	c-0.635-0.215-1.34-0.371-1.648-1.029c-0.287-0.627-0.086-1.399,0.674-1.877C71.059,110.68,71.383,110.621,71.675,110.648z
	 M129.856,110.917l0.161,2.434l-2.703-1.041L129.856,110.917z M55.348,111.061l0.973,2.213l-2.511-0.012L55.348,111.061z
	 M107.813,111.063c2.36,8.748-0.959,15.028-7.255,19.946l-0.698-0.916c4.922-4.193,8.605-9.137,6.978-17.942L107.813,111.063z
	 M35.467,111.093c0,0,3.646,4.735,2.919,6.338c-0.966,1.528-6.716-1.762-6.641-1.936l0.722-0.695
	c0.912,0.372,3.755,1.944,4.384,1.696c0.22-1.432-1.457-3.285-2.088-4.518L35.467,111.093z M78.887,111.103l27.681,0.511
	l-0.828,1.462l-2.156,0.013l-4.277,7.582l-19.894-0.004L78.887,111.103L78.887,111.103z M47.819,111.864l-0.957,1.736
	c-0.896,0.275-3.6,0.324-3.817,0.505c0.326,0.89,0.686,3.503,0.686,3.503l-1.066,1.366c-0.284-1.681-0.758-3.807-1.178-5.365
	c-0.358-1.322-0.258-1.031,2.55-1.25C45.295,112.288,46.591,112.128,47.819,111.864z M53.496,113.957l1.139,2.027l-2.307,0.023
	L53.496,113.957z M25.776,114.093c0.126-0.052,0.841,0.752,0.964,0.983c-0.053,0.527-0.867,0.814-0.993,0.626
	c-0.051-0.075-0.067-1.259,0.014-1.586L25.776,114.093z M130.195,114.121l-0.023,2.537l-2.742-1.219L130.195,114.121z
	 M151.967,114.692l-0.037,1.645c-9.943,4.871-24.777,17.95-29.009,41.409l-0.867-0.958
	C126.282,134.39,140.876,121.146,151.967,114.692z M51.939,116.955l1.236,1.869l-2.232,0.244L51.939,116.955z M130.249,117.672
	l-0.219,2.247l-2.7-1.5L130.249,117.672z M78.301,118.14c0.011,0.533,0.057,0.919,0.089,1.451c-6.128,3.979-8.198,10.24-7.178,18.12
	l-0.849,1.258C68.369,131.823,70.383,123.02,78.301,118.14z M28.14,118.448c0,0,2.334,5.271,1.412,6.514
	c-0.897,0.733-2.966-0.487-3.905-0.984l-0.027-1.261c0,0,0.717,0.368,1.439,0.657c1.482,0.66,1.486-0.126,0.674-2.328
	c-0.285-0.774-0.568-1.671-0.568-1.671L28.14,118.448z M149.345,118.604c0.625,0.367,2.649,0.966,2.649,0.966l-0.022,1.494
	l-4.17-1.5L149.345,118.604z M50.485,120.232l1.595,1.676l-2.225,0.511L50.485,120.232z M147.344,120.421
	c0.15-0.011,0.308-0.007,0.471,0.013c1.413,0.002,4.137,1.153,4.137,1.153l-0.017,1.658c-1.384-0.402-2.991-1.174-4.454-1.391
	c-1.156-0.16-1.088,0.49-1.094,2.128c-0.009,2.218,0.547,4.222,1.605,6.44c0.875,1.837,0.418,2.328-1.012,1.508
	c-2.574-1.771-8.062-3.108-8.905-2.077c-0.869,1.061,0.842,6.341,2.819,8.859c0.804,1.023,0.854,1.188,0.479,1.586
	c-0.304,0.323-0.795,0.343-1.662,0.066c-2.853-0.911-6.98-1.116-8.169-0.345c-1.181,0.766,1.891,6.054,4.47,7.761
	c1.672,1.196,1.35,1.792-1.354,1.853c-4.414,0.021-7.811,1.009-7.622,2.218c0.32,2.055,3.179,4.871,6.46,6.367
	c2.009,0.822,1.169,1.149-0.166,1.625c-2.232,0.757-4.378,1.967-6.479,3.099l-1.01-1.296c0,0,2.113-1.348,4.412-2.643
	c0.539-0.304,0.511-0.414-0.244-1.049c-2.448-2.059-4.245-4.356-4.62-5.902c-0.365-1.504,0.383-2.453,2.606-3.301
	c1.375-0.524,1.881-0.678,3.094-0.951c1.748-0.393,1.777-0.447,1.03-1.795c-0.335-0.604-0.884-1.603-1.218-2.218
	c-2.604-4.466-1.231-6.077,4.813-6.169c1.484-0.078,1.768-0.084,1.686-0.597c-0.321-2.104-1.25-4.521-1.118-6.304
	c0.276-2.688,3.034-3.339,7.88-2.126c1.121,0.281,1.199,0.224,1.002-0.686C144.285,124.069,145.089,120.584,147.344,120.421z
	 M130.033,120.721l-0.424,2.606l-2.58-1.722L130.033,120.721z M33.537,121.336l7.117,0.468l-1.131,1.33l-4.301-0.081l-0.162,3.683
	l-1.376,1.185L33.537,121.336z M79.659,121.618h5.858l-0.047,6.213h-5.84L79.659,121.618z M86.64,121.618h5.453v6.213l-5.407,0.058
	L86.64,121.618z M93.169,121.618h5.847l-0.053,6.213h-5.791L93.169,121.618z M144.234,122.113c-0.137,1.598,0.197,4.485,0.332,5.726
	c-0.096,0.369-0.351,0.316-1.882-0.031c-1.062-0.356-4.005-0.461-4.005-0.461l1.233-1.311c1.008,0.12,1.804,0.11,2.848,0.241
	c-0.015-1.046,0.029-3.043,0.029-3.043L144.234,122.113z M49.555,123.343l1.636,1.652l-2.095,0.537L49.555,123.343z
	 M129.467,123.881l-0.651,2.658l-2.369-2.137L129.467,123.881z M148.627,123.954c1.185-0.028,2.176,0.374,3.269,1.339l0.01,1.356
	l-2.329-1.052c-0.026,1.547,1.34,4.342,1.34,4.342l-1.108,0.522c-0.958-1.571-1.624-2.983-1.679-4.753
	C148.141,125.068,148.052,123.984,148.627,123.954z M48.756,126.636l1.945,1.159l-2.156,0.875L48.756,126.636z M128.723,127.231
	l-0.953,2.734l-2.078-2.367L128.723,127.231z M25.635,128.103l5.245,1.782l-0.934,0.994l-4.358-1.381L25.635,128.103z
	 M99.229,128.825l0.432,9.691l-27.717-0.229l0.965-1.369l1.801-0.016l4.745-8.022L99.229,128.825z M48.387,129.579l2.06,1.459
	l-2.141,0.947L48.387,129.579z M152.021,130.436l0.005,1.584c-6.691,4.959-13.928,13.506-15.158,28.617l-1.806,1.548
	C135.943,147.43,142.069,137.258,152.021,130.436z M127.608,130.493l-0.973,2.46l-1.925-2.291L127.608,130.493z M135.581,130.946
	c-0.04,1.463,1.141,6.003,1.141,6.003c-1.824,0.09-3.595-0.12-5.563,0.435l0.928-1.659c0,0,0.857-0.091,1.607-0.24
	c1.552-0.31,1.391-0.121,1.03-1.475c-0.339-1.271-0.357-1.536-0.357-1.536S135.47,130.938,135.581,130.946z M140.691,131.255
	c1.818,0.015,4.549,1.65,5.773,2.584l-0.646,0.723c-0.182,0.061-2.733-1.31-4.739-1.632c0.656,1.304,0.967,2.275,2.422,4.34
	l-0.938,0.93c-0.282-0.063-3.919-5.451-2.956-6.667C139.901,131.334,140.271,131.251,140.691,131.255z M33.295,132.516
	c2.394,14.549,8.116,24.539,17.144,33.529l-0.918,1.203c-10.612-9.742-16.405-22.139-17.92-33.797L33.295,132.516L33.295,132.516z
	 M48.228,133.126l1.952,1.069l-2.005,1.172L48.228,133.126z M151.995,133.17l-0.013,2.134l-1.223-1.236
	C151.09,133.769,151.491,133.469,151.995,133.17z M126.27,133.606l-1.33,2.449l-1.737-2.32L126.27,133.606z M150.104,134.663
	c1.77,0.247,2.338,3.793,1.749,4.483c-0.273-0.432-2.71-1.951-3.815-2.589C147.967,136.37,149.749,134.773,150.104,134.663z
	 M121.651,136.483l2.833,0.27l-1.504,2.344L121.651,136.483z M48.256,136.484l2.206,1.08l-2.003,1.415L48.256,136.484z
	 M147.859,137.525c0.367,0.003,0.782,0.158,1.297,0.446c1.995,1.114,3.041,2.334,2.931,3.419c-0.051,0.498-0.328,0.599-0.651,0.236
	c-0.581-0.652-2.544-1.502-4.234-1.834c-1.281-0.252-1.399-0.361-1.015-0.955C146.769,137.937,147.248,137.521,147.859,137.525z
	 M113.745,138.554c3.067,11.648,8.458,20.613,15.228,27.991l-1.403,1.198c-5.14-5.914-10.792-12.835-15.409-27.799L113.745,138.554z
	 M119.868,139.178l2.834,0.43l-1.659,2.119L119.868,139.178z M79.909,139.302c0.329,0.012-0.976,4.969-5.477,5.312
	c-2.85,0.474-3.17,0.955-3.213,5.404c-0.059,6.03-1.029,7.442-5.944,7.814c-3.254,0.247-3.683,0.911-3.132,5.598
	c0.524,4.461-1.156,6.736-5.303,6.732c-3.591,0.298-5.076,1.979-5.072,5.315c0.001,1.352,0.023,1.679,0.023,1.679l-2.321,0.182
	c0,0,0.005-2.196,0.18-3.265c0.708-4.317,2.554-6.047,6.438-6.027c3.004-0.229,3.471-0.718,3.367-5.284
	c-0.116-4.646-0.179-4.615,1.03-5.832c0.777-0.783,1.666-1.135,3.243-1.283c4.912-0.465,5.3-0.793,5.287-5.846
	c-0.456-4.197,0.702-6.767,3.36-6.979c5.379-0.428,5.251-3.356,5.014-3.479l2.503-0.039L79.909,139.302z M90.908,139.302
	c3.155,17.066,13.137,33.046,18.614,38.944l-1.069,0.569c-7.984-9.947-15.24-21.368-18.829-39.487L90.908,139.302L90.908,139.302z
	 M85.211,139.309l2.497,0.028l-28.746,40.577l-1.515-1.146L85.211,139.309z M88.699,139.337c2.701,9.836,4.825,19.455,13.318,32.322
	l-36.024-0.236L88.699,139.337z M98.646,139.375c0.21-0.097,1.057,4.978-0.205,7.32c-1.134,3.17-0.579,4.956,1.888,6.111
	c4.236,1.984,5.305,3.965,4.767,8.836c-0.376,3.411,0.653,5.06,3.845,6.155c3.809,1.308,5.474,3.361,5.453,6.728
	c-0.003,0.517-0.195,1.106-0.195,1.106l-2.125,1.253c0,0,0.025-0.457,0.107-1.005c0.554-3.731-0.151-4.743-4.543-6.503
	c-4.148-1.662-5.176-3.584-4.47-8.376c0.23-1.563-0.089-3.143-0.733-4.333c-1.086-1.938-3.486-1.921-5.211-3.691
	c-1.426-1.517-1.585-3.634-0.37-7.26c0.753-2.248,0.866-3.099,0.281-4.972c-0.385-1.233-0.536-1.343-0.536-1.343L98.646,139.375z
	 M48.614,139.916l2.444,0.678l-1.84,1.916L48.614,139.916z M145.668,140.424c0.838-0.022,2.461,0.271,3.789,0.936
	c3.047,1.522,3.601,2.771,0.93,2.098c-1.505-0.38-3.67-0.294-5.759,0.225c-2.207,0.547-2.159,0.57-1.399-0.768
	C144.19,141.22,144.441,140.458,145.668,140.424z M134.678,141.062c1.848-0.028,3.71,0.503,5.461,1.161l-0.555,0.955
	c-1.211-0.201-2.484-0.797-4.329-0.649c0.757,1.451,1.653,2.201,2.855,3.481l-0.448,0.959c-0.108,0.13-3.513-2.719-4.195-4.634
	C133.158,141.47,133.438,141.094,134.678,141.062z M94.635,141.283c0.912,0,1.65,0.741,1.65,1.656s-0.738,1.659-1.65,1.659
	c-0.913,0-1.65-0.744-1.65-1.659S93.722,141.283,94.635,141.283z M128.832,141.333c0,0,2.691,5.339,2.521,5.543
	c-1.668,0.737-3.488,1.118-5.321,1.789l0.352-1.553c0,0,0.609-0.043,2.659-0.825c0.981-0.375-1.07-3.112-1.07-3.112L128.832,141.333
	z M117.899,141.731l2.789,0.502l-1.86,2.09L117.899,141.731z M65.743,141.752c0.66-0.053,1.679,1.23,1.677,1.232l-3.381,4.685
	c-1.609-0.324-1.266-2.77,0.208-2.844c0.341,0.002,0.962,0.061,0.962,0.061s-0.453-0.248-0.715-0.596
	C63.506,143.094,64.441,141.855,65.743,141.752z M110.217,142.911c3.927,0.033,3.976,4.865,3.224,6.464
	c-0.546,1.098-1.378,1.705-3.892,2.845c-2.178,0.986-2.422,0.921-2.422,0.921l-0.521-1.166c0,0,1.269-0.561,2.635-1.114
	c2.823-1.144,3.51-2.018,3.2-4.065c-0.438-2.9-2.672-3.352-6.992-1.407c-0.502,0.226-1.135,0.452-1.135,0.452l-0.297-0.585
	c0.069-0.058,3.461-1.841,5.362-2.283C109.677,142.93,109.955,142.909,110.217,142.911z M49.486,143.437l2.222,0.735l-1.62,1.598
	L49.486,143.437z M148.45,144.06c1.963-0.005,3.581,0.327,3.576,1.028c-0.003,0.334-0.078,0.363-1.841,0.608
	c-2.68,0.372-7.158,2.666-9.678,4.795c-1.492,1.261-1.105,0.968-0.477-0.86c0.625-1.818,1.558-3.988,2.063-4.319
	C143.356,144.483,146.225,144.066,148.45,144.06z M116.35,144.311l1.889,0.415l-1.229,1.195L116.35,144.311z M110.017,145.341
	c0.677-0.01,1.01,0.31,1.275,0.958c0.575,1.404,0.007,2.229-2.183,3.17c-0.992,0.446-1.879,1.072-2.966,1.271l-1.377-3.705
	c0,0,0.436-0.16,1.868-0.755C108.267,145.604,109.34,145.351,110.017,145.341z M103.63,145.789
	c4.371,12.403,9.72,20.459,15.381,27.135l-1.369,0.858c-6.013-7.134-11.546-15.493-15.533-27.8L103.63,145.789z M151.938,146.175
	c0.19,0.02,0.285,0.089,0.252,0.224c-0.003,0.521-7.865,7.995-12.36,11.8c-2.049,1.734-1.979,1.72-2.153,1.506
	c-0.11-1.288,0.761-5.887,1.289-6.688c3.003-3.188,7.636-5.783,12.144-6.759C151.462,146.186,151.748,146.154,151.938,146.175z
	 M109.691,146.23c-0.529,0.016-1.322,0.337-2.383,0.746c-1.541,0.597-1.674,1.316-0.983,2.209c0.302,0.389,0.612,0.303,2.095-0.285
	c1.512-0.602,2.164-0.869,2.256-1.409C110.808,146.704,110.373,146.211,109.691,146.23z M109.832,146.648
	c0.282,0.009,0.525,0.254,0.523,0.568c-0.002,0.241-0.35,0.475-0.71,0.473c-0.128-0.001-0.439,0.071-0.636,0.274
	c-0.194,0.282-0.32,0.554-0.671,0.487c-0.204-0.039-0.581-0.053-0.729,0.076c-0.69,0.604-1.378,0.104-1.059-0.502
	c0.081-0.152,0.36-0.23,0.587-0.229c0.197,0.001,0.645-0.045,0.709-0.287c0.078-0.288,0.52-0.368,0.826-0.358
	c0.335,0.045,0.604-0.123,0.69-0.263c0.124-0.112,0.27-0.227,0.408-0.237L109.832,146.648z M74.279,146.745
	c0.912,0,1.654,0.741,1.654,1.656s-0.742,1.659-1.654,1.659c-0.913,0-1.65-0.744-1.65-1.659S73.366,146.745,74.279,146.745z
	 M50.385,146.779l2.502,0.341l-1.576,2.027L50.385,146.779z M100.35,148.057c0.912,0,1.652,0.742,1.652,1.657
	s-0.74,1.656-1.652,1.656s-1.651-0.741-1.651-1.656S99.438,148.057,100.35,148.057z M51.503,149.929l2.716,0.175l-1.556,2.085
	L51.503,149.929z M65.84,150.327c0.912,0,1.649,0.74,1.649,1.655s-0.737,1.656-1.649,1.656c-0.913,0-1.652-0.741-1.652-1.656
	S64.927,150.327,65.84,150.327z M133.675,151.36c1.133-0.018,2.445,0.097,2.445,0.097l-0.318,1.273
	c-1.38,0.132-3.153-0.252-4.634,0.369c0.55,0.902,3.772,2.179,4.129,2.497c0.033,0.134-0.266,1.349-0.266,1.349
	c0.087,0.311-5.454-2.255-5.638-4.421C129.398,151.79,131.787,151.391,133.675,151.36z M114.617,152.684
	c3.148,0.029,4.703,4.438,3.479,6.391c-0.484,0.883-1.577,1.929-3.021,2.851c-0.693,0.443-2.53,1.347-2.53,1.347l-0.825-1.279
	c0,0,0.732-0.296,1.424-0.674c1.734-0.982,5.252-3.077,3.551-5.928c-0.955-1.543-2.383-1.844-5.352-0.332
	c-2.217,1.129-2.721,1.234-2.721,1.234l-0.563-1.022C108.208,155.355,112.484,152.773,114.617,152.684z M124.761,152.849
	c1.503,2.918,4.076,5.123,4.778,5.652c0,0-2.562,1.649-4.092,2.7l-0.898-1.06l2.197-1.892l-2.475-3.463L124.761,152.849z
	 M53.146,153.144l2.472,0.005l-1.057,2.234L53.146,153.144z M148.883,153.554c-0.278,1.44-0.321,2.97-0.439,4.652
	c0.543,0.497,1.03,0.746,1.456,0.718c0.479-1.515,0.821-3.234,0.594-5.004C150.041,153.565,149.445,153.605,148.883,153.554z
	 M149.629,153.986l0.205,0.013c0.309,0.149,0.282,0.372,0.289,0.649c-0.008,0.951,0.125,2.137-0.281,3.053
	c-0.23,0.522-0.757,0.326-0.775-0.383c-0.024-0.959,0.17-1.765,0.226-2.639C149.315,154.307,149.442,154.045,149.629,153.986z
	 M114.429,155.302c1.624,0.121,2.249,1.483,1.65,2.461c-1.468,1.879-2.968,2.221-4.892,3.308l-1.92-3.601
	C109.268,157.47,113.006,155.353,114.429,155.302z M114.384,156.105c-1.073,0.126-1.751,0.652-2.653,1.096
	c-1.105,0.543-1.465,1.383-0.715,2.145c0.826,0.924,3.713-1.278,4.189-1.811c0.293-0.457,0.244-0.875-0.167-1.203
	C114.859,156.189,114.638,156.107,114.384,156.105z M55.174,156.259l2.419,0.026l-1.308,1.853L55.174,156.259z M114.331,156.544
	c0.104,0.008,0.199,0.041,0.273,0.093c0.411,0.293,0.376,0.818-0.204,0.967c-0.293,0.075-0.799,0.078-0.811,0.471
	c-0.008,0.293-0.454,0.401-0.709,0.359c-0.259-0.042-0.699-0.064-0.784,0.262c-0.222,0.445-0.389,0.453-0.7,0.143
	c-0.334-0.339-0.178-0.767,0.475-0.839c0.279-0.03,0.521-0.234,0.62-0.448c-0.015-0.278,0.18-0.439,0.486-0.376
	c0.434-0.005,0.718-0.166,1.027-0.572C114.113,156.553,114.227,156.536,114.331,156.544z M100.455,156.686
	c0.913,0,1.652,0.74,1.652,1.655S101.368,160,100.455,160c-0.912,0-1.649-0.744-1.649-1.659S99.543,156.686,100.455,156.686z
	 M65.199,159.732c0.912,0,1.654,0.744,1.654,1.659s-0.742,1.655-1.654,1.655s-1.65-0.74-1.651-1.655
	C63.548,160.477,64.287,159.732,65.199,159.732z M134.734,161.135l0.013,1.246c0.042,0.057-2.571,1.213-4.102,1.908
	c-0.495,0.271-0.302,0.799-0.272,1.343l-0.736,0.5c0,0-1.02-0.745-1.152-1.223C128.111,163.399,132.904,161.591,134.734,161.135z
	 M25.692,161.201l18.911,12.972l-1.293,1.893l-17.563-11.98L25.692,161.201z M120.639,161.624c1.23,0.001,2.179,0.711,3.097,2.143
	c1.822,2.844,0.909,5.086-2.865,7.377c-1.753,1.065-1.767,1.077-1.767,1.077l-0.892-1.104c0,0,1.277-0.754,1.806-1.088
	c3.102-1.965,3.975-3.704,2.611-5.663c-1.314-1.887-2.695-1.736-6.527,0.708c-0.774,0.494-1.701,0.882-1.701,0.882l-0.84-1.146
	c0,0,2.17-1.117,2.908-1.59C118.166,162.134,119.553,161.623,120.639,161.624z M107.433,162.475c0.913,0,1.655,0.742,1.655,1.656
	c0,0.915-0.742,1.66-1.655,1.66c-0.912,0-1.651-0.745-1.651-1.66C105.781,163.217,106.521,162.475,107.433,162.475z M56.202,162.939
	c0.913,0,1.65,0.741,1.65,1.656s-0.737,1.655-1.65,1.655c-0.912,0-1.651-0.74-1.651-1.655S55.29,162.939,56.202,162.939z
	 M120.568,164.262c0.627-0.022,1.098,0.388,1.354,1.014c0.656,1.602-0.235,2.789-3.466,4.604c-0.271,0.152-0.846,0.463-0.846,0.463
	l-2.38-3.296c0,0,0.838-0.578,1.628-1.052C118.629,164.834,119.763,164.291,120.568,164.262z M120.252,165.051
	c-0.152,0.004-0.327,0.063-0.531,0.183c-0.83,0.479-2.216,1-2.869,1.868c-0.383,0.531-0.21,1.06,0.516,1.74
	c0.614,0.408,3.785-1.934,3.865-2.614C120.964,165.507,120.709,165.038,120.252,165.051z M25.828,165.229l0.527,0.355l-0.527,0.418
	V165.229z M120.283,165.627c0.194,0.011,0.379,0.067,0.474,0.18c0.234,0.286,0.093,0.773-0.404,0.858
	c-0.251,0.043-0.621,0.111-0.741,0.483c-0.1,0.245-0.441,0.452-0.777,0.444c-0.39-0.091-0.595,0.146-0.615,0.317
	c-0.192,0.328-0.667,0.382-0.956,0.073c-0.226-0.24,0.179-0.931,0.444-0.921c0.047,0.022,0.339,0.088,0.693-0.387
	c0.071-0.345,0.471-0.556,0.761-0.544c0.295,0.102,0.468-0.226,0.586-0.406C119.883,165.653,120.088,165.617,120.283,165.627z
	 M27.084,166.058l0.76,0.514l-2.016,1.436v-1.156L27.084,166.058z M28.558,167.023l1.034,0.693l-3.764,2.704v-1.467L28.558,167.023z
	 M30.487,168.258l1.091,0.725l-5.75,3.896v-1.502L30.487,168.258z M32.559,169.312v1.253l-6.73,4.712v-1.27L32.559,169.312z
	 M33.317,170.212l1.45,0.994l0.363,42.478l-9.068,6.249l0.008-1.857l7.614-5.521L33.317,170.212L33.317,170.212z M142.705,171.36
	c-2.033,2.329-4.762,2.485-7.141,2.422c-6.41,0.09-10.389,0.434-11.213,8.101c2.611-1.958,5.38-2.212,8.586-2.12
	c4.06-0.005,5.886-0.272,7.536-1.099c2.651-1.326,4.329-3.701,4.009-5.368C144.168,172.936,143.344,171.449,142.705,171.36z
	 M32.559,171.732v1.47l-6.73,4.522v-1.493L32.559,171.732z M109.408,171.868c0.912,0,1.654,0.742,1.654,1.657
	c0,0.914-0.742,1.654-1.654,1.654c-0.913,0-1.65-0.74-1.65-1.654C107.758,172.61,108.495,171.868,109.408,171.868z M65.473,172.038
	c11.892,0.371,37.146,0.228,37.146,0.228l1.347,1.946l-39.707-0.417L65.473,172.038z M142.977,172.108
	c0.364-0.024,0.413,0.467-0.339,1.206c-1.423,1.399-2.899,2.085-7.575,2.001c-4.941-0.089-6.867,0.693-8.146,2.9
	c-0.372,0.642-0.364,0.892,0.174,0.406c0.451-0.538,1.479-1.575,1.903-0.594c0.839-0.551,1.565-1.39,2.004-0.328
	c0.244-0.055,1.667-1.486,2.004-0.219c0.681-0.763,1.264-1.001,1.584,0.081c0.967-0.46,1.48-1.332,2.03-0.128
	c0.779-0.56,1.369-1.258,1.823-0.193c0.665-0.196,1.343-1.418,1.727-0.443c0.071,0.023,2.474-1.426,3.154-2.86
	c0.558-1.265,1.07-0.425,0.437,0.867c-1.629,3.164-4.414,4.318-10.808,4.329c-3.881,0.004-5.486,0.386-6.705,1.099
	c-1.958,1.145-0.902-1.738,0.469-3.486c1.729-2.203,3.699-2.854,9.099-2.657c2.951,0.018,4.837-0.392,5.635-1.038
	C142.123,172.504,142.612,172.133,142.977,172.108z M55.266,172.778c0.912,0,1.654,0.745,1.654,1.66s-0.742,1.656-1.654,1.656
	s-1.651-0.741-1.651-1.656S54.354,172.778,55.266,172.778z M32.559,174.007v1.494l-6.73,4.606v-1.527L32.559,174.007z
	 M65.099,174.724h5.222v5.527h-5.222V174.724z M76.801,174.724h5.619v5.527h-5.619V174.724z M89.309,174.901h5.422v5.35h-5.422
	V174.901z M101.057,175.009l3.609,0.124c0,0,2.005,2.558,2.851,3.737l-2.669,1.373l-3.791,0.008V175.009z M67.609,175.384
	c-1.016,0-1.84,0.823-1.84,1.843c0,1.019,0.824,1.845,1.84,1.845s1.84-0.826,1.84-1.845
	C69.449,176.207,68.625,175.384,67.609,175.384z M79.617,175.566c-1.016,0-1.84,0.823-1.84,1.842s0.824,1.846,1.84,1.846
	s1.84-0.827,1.84-1.846S80.633,175.566,79.617,175.566z M91.898,175.614c-1.016,0-1.841,0.822-1.841,1.841s0.825,1.847,1.841,1.847
	s1.84-0.828,1.84-1.847S92.914,175.614,91.898,175.614z M62.588,175.988c0.362,0.26,0.602,0.679,0.602,1.16
	c0,0.789-0.639,1.432-1.427,1.432c-0.277,0-0.537-0.079-0.757-0.217L62.588,175.988z M67.609,176.008
	c0.672,0,1.219,0.544,1.219,1.218c0,0.675-0.547,1.222-1.219,1.222s-1.219-0.547-1.219-1.222
	C66.391,176.552,66.938,176.008,67.609,176.008z M97.901,176.054c0.815,0,1.478,0.664,1.478,1.482s-0.662,1.48-1.478,1.48
	s-1.473-0.662-1.473-1.48S97.086,176.054,97.901,176.054z M104.122,176.058c-1.016,0-1.839,0.823-1.839,1.842
	s0.823,1.845,1.839,1.845c1.017,0,1.841-0.826,1.841-1.845S105.139,176.058,104.122,176.058z M73.568,176.112
	c0.816,0,1.477,0.663,1.477,1.481s-0.66,1.482-1.477,1.482c-0.815,0-1.474-0.664-1.474-1.482S72.753,176.112,73.568,176.112z
	 M79.617,176.189c0.672,0,1.22,0.545,1.22,1.219c0,0.675-0.548,1.222-1.22,1.222c-0.673,0-1.219-0.547-1.219-1.222
	C78.398,176.734,78.944,176.189,79.617,176.189z M32.559,176.212v1.486l-6.73,4.716v-1.462L32.559,176.212z M91.898,176.236
	c0.673,0,1.218,0.545,1.218,1.219s-0.545,1.224-1.218,1.224c-0.672,0-1.22-0.55-1.22-1.224S91.227,176.236,91.898,176.236z
	 M85.741,176.391c0.815,0,1.476,0.664,1.476,1.482c0,0.817-0.66,1.48-1.476,1.48s-1.478-0.663-1.478-1.48
	C84.264,177.055,84.926,176.391,85.741,176.391z M104.122,176.681c0.673,0,1.22,0.544,1.22,1.219c0,0.674-0.547,1.222-1.22,1.222
	s-1.218-0.548-1.218-1.222C102.904,177.225,103.449,176.681,104.122,176.681z M51.776,177.962c3.135-0.037,6.526,1.56,8.438,4.209
	c2.896,3.882,4.83,8.833,5.709,15.331c0.435,3.219,1.932,12.882,2.78,15.165l-1.168-0.224c-0.158,0.074-1.659-6.078-2.604-14.206
	c-0.35-3.011-0.986-6.896-2.729-10.442c-1.99-4.049-5.369-8.341-9.875-8.682c-2.629-0.199-5.095,1.453-5.36,3.78
	c-0.378,1.838,0.695,3.55,2.105,4.124c1.384,0.563,3.038,0.143,3.224-1.749c0.032-0.311,0-0.624-0.115-0.913
	c0.641-0.104,1.129,0.186,1.389,0.728c0.136,0.018,0.006,2.744-2.133,3.28c-2.58,0.848-5.559-1.714-5.79-4.324
	c-0.177-2.199,1.492-4.916,3.595-5.652C50.041,178.107,50.898,177.972,51.776,177.962z M32.559,178.808v1.517l-6.73,4.658v-1.527
	L32.559,178.808z M51.924,179.771c3.765-0.107,7.43,4.103,8.981,6.876c1.62,2.894,2.903,7.49,3.345,11.815
	c0.752,7.355,2.157,13.371,2.453,13.645l-1.026-0.225c-0.215,0.145-1.63-6.497-2.491-13.89c-0.482-4.146-2.018-8.257-3.842-11.424
	c-1.684-2.923-3.954-5.106-6.642-5.423c-1.685-0.17-3.417,0.317-3.757,2.096c-0.18,1.045,0.364,2.07,1.601,2.16
	c0.291,0.021,0.569,0.044,0.621,0.053c0.654,0.117-0.373,1.183-1.049,1.088c-2.413-0.338-3.525-3.571-1.623-5.292
	C49.607,180.243,50.771,179.804,51.924,179.771z M59.984,180.851l42.275,0.431c0,0,0.036,0.759-2.595,0.634
	c-2.237-0.106-3.683,0.207-5.166,0.685l-33.215-0.073L59.984,180.851z M32.559,181.342v1.408l-6.73,4.724v-1.556L32.559,181.342z
	 M52.205,181.938c0.813-0.011,1.64,0.198,2.264,0.561c5.236,3.042,7.237,10.594,7.927,15.347c0.94,7.04,2.026,13.581,2.329,13.742
	l-1.143-0.259c-0.152,0.005-1.4-6.099-2.178-12.938c-0.629-5.529-2.516-11.081-6.254-13.417c-2.398-1.638-2.869-1.803-3.98-0.847
	c-0.957,0.825-1.932-0.417-1.129-1.428C50.594,182.182,51.393,181.949,52.205,181.938z M32.559,183.846v1.156l-6.73,4.7v-1.37
	L32.559,183.846z M63.327,183.875c0.087-0.08,3.638,5.967,4.761,15.498c0.591,5.019,2.281,13.575,2.553,13.645l-1.23-0.131
	c-1.259-5.046-1.953-9.822-2.626-14.128c-0.761-4.87-1.371-9.197-4.396-14.845l0.937-0.031L63.327,183.875z M64.134,183.927
	l1.1,0.016c1.881,3.591,3.88,9.168,4.571,14.759c0.596,4.829,1.199,9.741,2.922,14.856l-1.179-0.326
	c-1.48-4.151-2.005-9.168-2.802-14.368C67.866,193.116,66.486,188.111,64.134,183.927z M70.918,183.935
	c1.924,4.997,3.175,7.379,4.054,13.528c0.683,4.772,1.646,10.741,3.837,17.063l-1.111-0.048c-1.625-4.364-2.869-10.209-3.438-15.823
	c-0.774-7.626-4.188-14.746-4.22-14.701L70.918,183.935L70.918,183.935z M69.024,183.953c0.104-0.155,3.667,6.996,4.493,14.856
	c0.549,5.229,1.77,10.404,3.444,15.4l-1.138-0.025c-1.313-1.524-2.297-8.747-3.382-15.489c-1.106-6.881-2.666-11.113-4.396-14.73
	h0.976L69.024,183.953L69.024,183.953z M66.152,183.962l1.01,0.005c2.643,5.794,3.74,9.24,4.555,14.843
	c1.029,7.085,2.018,13.478,3.112,15.143l-1.233-0.081c-1.703-5.107-2.471-10.21-3.075-15.317
	C69.866,193.023,68.282,188.287,66.152,183.962z M71.728,184.008l1.201,0.02c2.067,4.201,3.786,9.311,4.392,15.153
	c0.333,3.168,0.914,8.03,3.286,15.531l-0.96-0.061c-1.943-5.031-3.109-10.952-3.807-16.116
	C75.138,193.326,73.896,189.028,71.728,184.008z M79.118,184.043c1.134,2.913,2.067,5.808,2.681,8.785l-0.68,1.328
	c-1.063-3.932-2.26-6.992-3.45-10.094L79.118,184.043z M73.645,184.048l1.463,0.034c2.511,5.846,3.801,12.027,4.154,14.102
	c0,0,0.347,1.835,0.369,2.437c-0.084,5.108,0.797,8.753,2.692,14.245l-0.868-0.063c-2.2-6.383-2.792-10.918-3.354-15.25
	C77.635,194.107,75.867,188.495,73.645,184.048z M77.021,184.093c1.496,3.747,2.636,7.359,3.674,10.976
	c-0.047,0.82-0.125,1.721-0.658,2.384c-1.221-4.422-2.25-9.019-4.135-13.352L77.021,184.093z M79.781,184.124l1.158,0.021
	l2.305,6.626l-0.902,1.002C81.664,189.578,80.971,187.166,79.781,184.124z M86.535,184.171l0.846,1.993l-0.911,0.772
	c0,0-0.929-1.864-1.173-2.742L86.535,184.171z M88.252,184.171l0.424,1.148l-0.764,0.584l-0.594-1.709L88.252,184.171z
	 M81.626,184.194l1.191,0.008c0.481,1.392,1.762,4.801,1.762,4.801l-0.856,0.901C83.723,189.904,82.11,185.595,81.626,184.194z
	 M83.473,184.194l1.057,0.011c0.318,0.904,1.309,3.409,1.309,3.409l-0.73,0.695L83.473,184.194z M88.999,184.24l1.046,0.051
	l-0.123,0.258l-0.652,0.326L88.999,184.24z M54.719,185.715c4.378,2.315,5.586,9.248,6.061,13.061
	c0.828,6.652,1.758,12.064,1.955,12.21l-0.972-0.156c0,0-0.718-3.418-1.215-6.67c-0.413-2.705-0.733-4.971-0.845-6.007
	c-0.07-0.648-0.179-1.402-0.24-1.676c-0.611-2.732-0.808-3.357-1.597-5.021c-0.757-1.597-1.023-1.997-2.282-3.421
	c-0.483-0.546-0.954-0.944-1.118-1.295C54.23,186.24,54.719,185.715,54.719,185.715z M32.559,186.07v1.308l-6.73,4.767v-1.494
	L32.559,186.07z M32.559,188.364v1.505l-6.73,4.452v-1.334L32.559,188.364z M32.559,190.929v1.396l-6.73,4.705v-1.443
	L32.559,190.929z M43.797,192.341h0.594l0.041,0.979l-0.916-0.058L43.797,192.341z M32.559,193.549v1.492l-6.73,4.457v-1.393
	L32.559,193.549z M43.103,194.117l1.423,0.016l-0.016,1.025l-1.828-0.063L43.103,194.117z M42.277,195.762l2.337,0.042v0.976
	l-2.896-0.047L42.277,195.762z M32.559,195.974v1.567l-6.73,4.488v-1.576L32.559,195.974z M41.086,197.604l3.421,0.037l-0.021,0.816
	l-4.084-0.026L41.086,197.604z M32.559,198.512v1.532l-6.73,4.321v-1.378L32.559,198.512z M39.658,199.239l4.698,0.065l-0.116,0.789
	l-5.357-0.023L39.658,199.239z M32.559,200.907v1.473l-6.73,4.396v-1.416L32.559,200.907z M37.896,200.907l6.182,0.142l1.304,1.189
	l-9.623,0.058L37.896,200.907z M36.025,203.081l10.629,0.131l0.74,0.688l-11.404,0.042L36.025,203.081z M32.559,203.418v1.563
	l-6.73,4.421v-1.427L32.559,203.418z M36.037,204.791l11.779,0.054l-0.854,0.948l-10.941,0.031L36.037,204.791z M32.559,205.975
	v1.431l-6.73,4.582v-1.645L32.559,205.975z M35.743,206.722l10.183,0.034l-1.195,0.939l-7.036,0.164L35.743,206.722z
	 M32.559,208.488v1.367l-6.73,4.835v-1.531L32.559,208.488z M38.721,208.663l5.979,0.026l0.112,0.806l-5.142-0.013L38.721,208.663z
	 M40.376,210.322l4.589,0.047l0.217,1.041l-4.085-0.055L40.376,210.322z M32.559,211.051v1.268l-6.73,4.713v-1.404L32.559,211.051z
	 M45.282,212.092l0.053,0.989l-2.737,0.104l-0.772-1.036L45.282,212.092z M45.259,213.848l-0.023,1.041l-1.909,0.029l-0.429-1.002
	L45.259,213.848z M43.561,215.7l1.506,0.011l-0.128,0.802l-1.165,0.016L43.561,215.7z M44.013,217.623h0.733l-0.124,0.627h-0.375
	L44.013,217.623z M58.901,228.216l-0.352,0.451h10.521l0.114-0.451H58.901z M72.466,228.216l-0.187,0.61h4.748l0.132-0.61H72.466z
	 M80.222,228.336l-0.146,0.576h12.137l-0.2-0.576H80.222z M94.743,228.336l0.247,0.699h4.084l-0.27-0.699H94.743z M108.834,228.336
	l-7.168,0.003l0.258,0.782h7.414L108.834,228.336z"/>
<path fill="#D40000" d="M48.103,64.771c0,0-3.717-6.105-8.729-13.282c-3.354-4.804-6.035-10.005-6.285-14.484
	c-0.285-5.117,2.421-10.251,7.32-10.5c4.897-0.249,6.885,3.945,7.693,7.403c0.81-3.458,2.797-7.652,7.694-7.403
	c4.899,0.248,7.606,5.383,7.32,10.5c-0.249,4.479-2.931,9.681-6.284,14.484C51.818,58.666,48.102,64.771,48.103,64.771
	L48.103,64.771z"/>
<path fill="#D40000" d="M130.559,184.724c0,0-3.717,6.104-8.729,13.282c-3.354,4.804-6.035,10.004-6.284,14.484
	c-0.286,5.117,2.42,10.251,7.32,10.5c4.896,0.249,6.885-3.945,7.693-7.404c0.81,3.459,2.797,7.653,7.693,7.404
	c4.9-0.249,7.606-5.383,7.32-10.5c-0.249-4.48-2.93-9.681-6.284-14.484C134.275,190.828,130.559,184.724,130.559,184.724z"/>
</svg>
