<?xml version="1.0" encoding="utf-8"?>
<!-- Generator: Adobe Illustrator 16.0.0, SVG Export Plug-In . SVG Version: 6.00 Build 0)  -->
<!DOCTYPE svg PUBLIC "-//W3C//DTD SVG 1.1//EN" "http://www.w3.org/Graphics/SVG/1.1/DTD/svg11.dtd">
<svg version="1.1" id="Layer_1" xmlns="http://www.w3.org/2000/svg" xmlns:xlink="http://www.w3.org/1999/xlink" x="0px" y="0px"
	 width="178.58px" height="249.45px" viewBox="0 0 178.58 249.45" enable-background="new 0 0 178.58 249.45" xml:space="preserve">
<path fill="#FFFFFF" d="M9.941,0.871h160.777c4.697,0,8.504,3.808,8.504,8.504v231.644c0,4.696-3.807,8.504-8.504,8.504H9.941
	c-4.696,0-8.504-3.808-8.504-8.504V9.375C1.438,4.679,5.245,0.871,9.941,0.871z"/>
<path fill="none" stroke="#000000" stroke-width="0.9967" d="M9.941,0.871h160.777c4.697,0,8.504,3.808,8.504,8.504v231.644
	c0,4.696-3.807,8.504-8.504,8.504H9.941c-4.696,0-8.504-3.808-8.504-8.504V9.375C1.438,4.679,5.245,0.871,9.941,0.871z"/>
<path d="M15.15,40.722c-3.434,4.372-7.106,6.888-7.168,10.298c-0.021,1.104,0.648,2.982,2.743,3.341
	c1.359,0.232,3.229-0.75,3.269-2.745c-0.008-0.397,0.472-0.387,0.467,0.157c-0.063,1.574-0.621,3.406-1.56,4.898
	c1.499,0,2.998,0,4.497,0c-0.938-1.492-1.495-3.324-1.56-4.898c-0.008-0.544,0.473-0.555,0.467-0.157
	c0.039,1.995,1.91,2.978,3.269,2.745c2.095-0.358,2.764-2.236,2.743-3.341C22.256,47.609,18.583,45.094,15.15,40.722z"/>
<path d="M165.512,209.672c-3.434-4.372-7.106-6.888-7.168-10.298c-0.021-1.104,0.648-2.981,2.743-3.341
	c1.358-0.232,3.229,0.75,3.269,2.745c-0.008,0.397,0.471,0.387,0.467-0.157c-0.064-1.574-0.622-3.406-1.56-4.898
	c1.499,0,2.998,0,4.497,0c-0.938,1.492-1.496,3.324-1.56,4.898c-0.008,0.544,0.473,0.555,0.467,0.157
	c0.039-1.995,1.91-2.978,3.269-2.745c2.095,0.359,2.764,2.236,2.743,3.341C172.617,202.784,168.944,205.3,165.512,209.672z"/>
<path d="M15.064,11.906v2.754h2.671c0,0,0.065,2.655,0.089,8.288c0.021,5.469,0.132,8.182-0.217,9.74
	c-0.936,3.59-6.131,3.609-7.163,1.028c-0.601-1.502-0.44-2.669-0.468-4.181H7.104c0,0,0.018,0.761,0.021,1.692
	c0.017,4.037,1.352,5.967,4.475,6.729c3.213,0.869,6.969-0.456,8.304-3.205c0.796-1.565,0.704-1.674,0.724-11.145
	c0.012-6.317,0.107-8.947,0.107-8.947h2.46v-2.754H15.064z"/>
<path d="M165.596,238.487v-2.754h-2.672c0,0-0.064-2.655-0.088-8.288c-0.021-5.469-0.133-8.182,0.216-9.74
	c0.937-3.59,6.132-3.609,7.163-1.028c0.601,1.502,0.441,2.669,0.469,4.181h2.872c0,0-0.017-0.761-0.021-1.692
	c-0.018-4.036-1.352-5.968-4.477-6.729c-3.211-0.869-6.967,0.456-8.303,3.204c-0.795,1.566-0.704,1.674-0.724,11.145
	c-0.012,6.318-0.107,8.948-0.107,8.948h-2.46v2.754H165.596L165.596,238.487z"/>
<path fill="#131F67" d="M25.023,19.935v210.524h130.614V19.935H25.023z M66.516,21.09l59.169,0.217l-9.172,14.021
	c-11.959-3.784-31.361-1.329-41.362,0.583C72.521,31.523,68.708,26.016,66.516,21.09z M26.742,21.628h37.985l8.922,16.203
	c0.323,0.452,0.015,1.384-0.179,1.908c-1.101,3.094-2.074,4.887-4.302,8.574c-2.109,3.492-2.866,6.69-2.118,8.841
	c0.113,0.264,0.21,0.665,0.171,1.002c-0.123,1.072-1.025,2.313-2.253,3.163c-0.835,0.133-2.569,0.24-3.573,1.23
	c-0.86,0.849-1.565,2.092-1.454,4.362c0.052,0.813,0.155,1.328,0.155,1.328C48.75,72.951,40.619,78.47,40.889,78.672
	c-0.107-0.049-10.04-4.58-14.146-5.702V21.628z M127.795,21.628h26.074v74.436l-9.845-6.476c0.821-0.571,1.328-0.91,2.191-1.494
	c0.153-0.047,0.443-0.052,0.632-0.094c1.744-0.388,2.96-1.689,2.354-3.038c-0.41-0.916,0.15-0.86,0.655-1.606
	c0.569-0.84,0.451-1.589,0.09-2.296c-0.18-0.351-0.08-0.489,0.221-1.138c0.799-0.988,0.222-2.66-0.811-3.201
	c-0.107-0.159,0.113-0.405,0.163-0.635c0.291-1.34-0.243-2.516-1.404-2.814c-0.598-0.153-0.796-0.257-0.585-0.789
	c0.373-0.944-0.119-1.296-0.896-1.603c-1.308-0.517-0.938-0.599,0.679-1.324c3.308-1.483,4.087-5.896,1.812-9.901
	c-0.289-0.509-1.063-1.703-1.587-2.504c-0.612-0.936-1.206-1.742-1.206-1.742l4.379-6.093c0,0-3.049-3.604-4.135-5.597
	c0.256-0.984,3.309-4.073,3.705-7.072c0.62-4.702-2.958-7.712-6.343-7.358c-2.348,0.245-5.236,1.743-5.019,6.097
	c0.066,1.352,0.596,2.748,1.555,4.439c0.67,1.266,1.539,2.604,2.37,3.891l-4.406,6.011l4.453,5.629c0,0-0.059,0.09-0.155,0.243
	c-0.443,0.703-1.73,2.773-2.289,3.987c-1.642,3.24-2.224,6.798,1.148,9.306c0.59,0.361,1.045,0.668,1.296,0.917
	c0.331,0.327,0.124,0.576-0.407,0.7c-0.627,0.132-1.265,0.123-1.924,0.384c-2.115,0.77-4.233,2.012-5.741,3.229
	c-0.846,0.683-2.21,2.843-3.041,4.598c-0.903,1.908-1.155,2.331-1.155,2.331l-15.489-9.895c0,0-0.394-0.31-0.5-0.43
	c-0.288-0.322-0.185-0.509,0.016-0.867c0.169-0.303,0.176-1.193,0.101-1.869c-0.021-1.297-0.012-1.302,0.737-2.493
	c0.264-0.419,0.373-0.839,0.221-1.486c-0.243-0.728-0.266-0.495,0.198-0.994c0.181-0.223,0.398-0.332,0.434-0.573
	c0.048-0.322,0.018-0.885,0.023-1.936c0.012-2.104-0.017-1.932,1.168-2.856c1.472-1.149,2.02-1.69,2.254-2.21
	c0.335-0.745,0-1.307-0.826-2.795c-0.378-0.68-0.963-1.597-1.245-2.109c-0.529-0.922-1.293-2.135-1.657-3.294
	c-0.551-0.891-0.467-2.435,0.043-3.341c0.641-1.138,0.818-1.826,0.795-4.126c-0.021-2.133-0.176-1.935,0.369-2.647
	C121.333,31.752,127.795,21.628,127.795,21.628z M144.373,29.621l0.264,0.008c1.281,0.061,2.555,0.472,3.735,1.614
	c1.607,1.607,1.498,3.925,0.97,6.336c-0.243,0.7-0.424,1.413-0.919,2.145c-0.275,0.407-0.5,0.785-0.501,0.836
	c0,0.052-0.396,0.688-0.88,1.417c-0.474,0.713-1.017,1.707-1.017,1.707s0.758,1.354,2.099,3.05c1.013,1.502,1.669,2.81,1.745,2.733
	c0,0-0.256,0.648-0.608,1.11c-1.064,1.396-3.024,4.307-3.104,4.61l-0.217,0.221c0.014,0.271,0.403,0.591,0.989,1.394
	c3.537,4.847,4.037,8.938,1.381,11.342c-1.322,1.195-2.627,1.57-4.026,1.42c-2.564-0.274-4.932-2.458-4.655-5.644
	c0.125-1.463,0.049-1.899,0.912-3.6c0.39-0.957,1.271-2.599,1.857-3.426c0.513-0.594,1.06-1.439,1.06-1.439
	s-1.259-1.935-3.573-4.653c-0.416-0.497-0.674-1.169-0.674-1.169l3.964-5.86c0,0-0.461-1.137-1.233-2.287
	c-1.586-2.359-2.607-4.868-2.598-6.28C139.367,31.688,141.673,29.626,144.373,29.621z M154.245,113.343
	c-2.341,1.242-4.62,5.485-0.166,2.526l0.111,2.439c-2.316,3.281-6.847,0.876-5.694-2.521c-3.127,0.404-3.615-2.764-3.456-4.271
	c-4.114-0.894-2.692-5.241-2.692-5.241c-2.377-1.982-2.794-4.06-0.869-6.249c-1.946-1.208-2.495-1.981-4.635-2.859
	c1.641,14.558,9.515,22.119,17.801,28.857c-0.22,0-0.243,4.688-0.764,3.824c-11.833-8.822-19.439-18.911-20.748-35.229
	c-0.1,0.256-5.609-4.256-6.521-4.017c-1.909,26.425,19.172,43.794,27.939,47.218c0,0,0.124,3.682-0.026,3.694
	c-13.287-5.783-28.062-22.758-30.907-42.954l-7.839,12.116l-2.937-1.254l12.676-19.932l-8.572-5.36l-13.956,22.067
	c0,0-0.37,1.84,0.64,1.812c19.591,2.092,48.726,25.579,38.964,63.806c-0.847-0.334-2.194-0.988-2.261-0.96
	c1.53-3.294,5.803-24.635-7.049-41.874c-5.887-7.898-15.018-16.304-29.67-18.785c1.211,2.493,0.684,8.148,0.684,8.148l3.413,0.688
	c-1.151-1.215-2.115-2.216-2.571-3.534c-0.64-2.053,0.297-3.269,2.575-2.047c0.904,0.506,1.132,0.486,2.013-0.167
	c1.835-1.36,3.928,0.041,3.445,2.304c-0.072,0.334,0.017,0.545,0.888,0.623c1.974,0.195,3.961,1.172,5.248,2.701
	c0.631,0.808,0.774,0.688,1.335,0.202c1.376-1.193,3.657,0.46,3.25,2.307c-0.232,1.056-0.104,1.309,0.384,1.514
	c2.69,1.128,3.352,1.841,4.189,4.191c0.307,0.861,0.559,1.145,0.718,1.096c0.111-0.034,0.553-0.182,0.942-0.329
	c2.009-0.759,3.185,1.665,1.761,3.565c-0.291,0.389-0.075,0.763,0.442,1.045c1.672,0.91,2.809,3.085,3.007,5.365
	c0.074,0.867,0.166,0.868,1.035,0.832c2.225-0.093,3.283,2.903,1.474,4.006c-0.63,0.384-0.513,0.88-0.022,1.46
	c1.297,1.535,1.6,2.644,1.485,4.393c-0.152,2.329-0.004,2.284,0.741,2.566c2.161,0.822,1.758,4.269-0.361,4.257
	c1.526,3.549-0.484,7.876-0.418,7.956c4.072,2.286,0.395,4.716-0.788,4.289c0,0-0.604,1.594,0.081,2.415
	c-3.572,4.717-8.249,5.499-13.429,7.842l-0.163-16.605c2.154,1.73,4.289,3.346,6.424,4.955c0,0,0.541-0.162,0.049-0.616
	c-0.949-0.876-3.338-2.417-4.006-3.03c-1.441-1.092-6.725-6.133-7.664-7.327c-0.421-0.796-1.057-0.336-1.04-0.288
	c0.632,1.089,1.103,2.359,1.921,3.491c1.768,2.444,3.482,5.16,3.305,7.848c-0.005,1.505-0.604,3.058-0.939,3.813
	c-0.248,1.032-1.896-0.176-1.481-1.045c0.733-2.382,1.34-4.333-1.28-8.16c-1.277-1.865-2.932-5.252-2.932-5.252l-1.06,0.255
	l0.039,21.665c-0.889,0.037-3.141,0.619-2.677,0.635c7.02-1.399,9.167,8.623,2.39,8.949c-1.288,0.046-2.618,2.258-2.754,3.457
	c0.058,2.91,0.485,5.979-1.648,8.775c-0.562,0.734-0.819,1.9-1.339,2.817c-2.605,4.604-3.768,7.242-3.502,8.431
	c0.068,0.306,0.132,0.708,0.132,0.708c-8.299,2.069-14.521,2.601-22.882,2.795c-0.082-0.13,2.807-8.237,4.914-12.394
	c1.559-3.072,2.361-5.173,1.924-5.807c-6.629,0.332-5.357-9.368,0.986-9.027c0,0,1.591-5.588,3.37-8.108
	c1.687-0.938,5.08,0.339,6.982-0.918c4.481-1.371,7.416,3.917,7.416,3.917l1.206-5.031l-39.635-0.189c0,0-3.855,1.596-5.943,0.735
	c-1.334-0.55-3.232-2.005-3.234-2.005c0,0,15.285-24.449,17.51-27.951c0.182-0.285-0.395-0.896-0.396-0.902
	c-0.083-0.795-18.142,28.26-18.142,28.26c-10.196-6.516-23.012-14.76-34.371-22.005l-0.03-10.885
	c8.249-5.188,7.501-7.308-0.132-1.652c-0.107,0.09-0.163-4.088-0.163-4.088c5.819-5.188,0.979-3.563-0.169-1.766
	c0.027-1.294-0.273-3.05,0.557-3.823c2.543-2.34,5.54-0.192,5.69,3.266c3.317,0.649,2.905,3.559,3.761,4.728
	c3.382,1.905,1.601,4.796,2.439,5.778c3.563,2.242,1.078,5.846,0.324,5.764c0.449,0.302,4.876,3.264,5.256,3.155
	c-0.385-15.527-15.93-28.057-17.994-29.573l0.364-3.348c0,0,21.413,13.668,21.226,35.6l6.826,4.049
	c-0.605-22.502-10.816-37.76-28.033-47.422l-0.224-4.168c14.452,6.713,27.855,20.299,30.977,42.566l8.002-12.394l2.82,1.362
	l-12.849,20.572l8.023,5.266c6.223-8.177,11.413-18.203,14.576-22.974c-0.083-0.437-0.256-1.061-0.256-1.061
	c-30.593-5.036-47.824-33.644-39.611-63.535l2.126,0.933c-6.379,22.139,4.024,54.004,37.296,60.52
	c-0.066-2.354-0.481-8.144-0.481-8.144s-4.372-1.312-3.729-0.786c1.071,0.913,3.478,4.852,2.46,6.252
	c-0.73,0.102-1.954-0.307-3.293-1.285c-0.505-0.369-0.52-0.291-1.086,0.313c-1.572,1.675-3.857,0.715-3.879-1.587
	c-0.009-0.973-0.045-1.179-1.428-1.188c-2.096-0.016-3.037-0.374-4.294-2.052c-0.892-1.19-0.81-1.195-1.858-0.836
	c-2.009,0.954-3.612-1.05-2.982-2.702c0.311-0.774-0.02-1.021-0.935-1.173c-1.779-0.294-3.792-2.522-4.162-4.343
	c-0.075-0.372-0.262-0.466-1.312-0.43c-2.058,0.071-3.197-1.175-2.385-2.919c0.438-0.943,0.563-1.324-0.26-1.962
	c-1.009-0.783-1.578-1.327-2.025-2.276c-0.355-0.753-0.407-1.234-0.651-2.837c-0.085-0.558-0.271-0.648-1.001-0.743
	c-2.128-0.277-2.967-2.45-1.404-3.859c0.478-0.431,0.476-0.42-0.248-1.355c-1.393-1.798-1.914-4.146-1.307-5.709
	c0.164-0.423,0.004-0.941-0.493-1.064c-1.94-0.482-1.974-2.63-0.116-3.836c0.539-0.351,0.566-0.582,0.159-1.289
	c-0.715-1.237-0.679-4.479,0.012-6.03c0.446-1.003,0.443-1.026-0.249-1.468c-1.475-0.939-1.053-3.525,0.691-3.951
	c0.847-0.207,0.902-0.317,0.674-1.344c-0.406-1.829-0.476-2.305,0.605-3.027c2.975-1.928,10.594-5.612,10.594-5.612l2.518-1.196
	c0,0,0.251,15.345,0.089,17.159c-0.099,0.781,0.605,1.255,1.423,2.067c1.692,1.659,2.619,3.666,4.877,5.06
	c0,0,1.406-0.781,2.276-1.34l0.085-21.866c0.179-0.496,0.303-0.551,0.881-0.619c0.48-0.093,1.688-0.227,2.091-0.345
	c0.972-0.283,1.125-0.675-0.151-0.546c-0.385,0.039-0.961,0.203-1.605,0.333c-3.989,1.194-6.94-5.005-3.902-8.129
	c0.583-0.521,2.761-1.428,3.751-1.49c0.286,0.003,1.137-1.043,1.718-2.009c0.584-0.97,0.827-1.691,0.493-2.663
	c-0.704-2.046-0.032-5.187,2.071-8.616c2.278-3.236,4.038-6.85,4.961-10.695c8.073-0.971,14.922-2.975,22.219-2.531
	c0.284,2.461-7.979,16.972-6.253,17.821c6.501,1.554,4.281,9.247-0.659,8.992c-0.74-0.004-0.813,0.062-1.284,1.695
	c-0.897,2.386-1.477,4.206-2.44,6.425c-0.003,0.571-3.229,0.416-5.933,0.396c-1.161,0.895-6.137,3.313-8.856-2.879l-0.098,5.293
	c0,0,37.223-0.59,43.842,0.238c0.142-1.656,3.681,1.283,3.681,1.283l-18.167,28.52l0.85,0.829
	c2.621-3.175,18.433-28.622,18.433-28.622l34.204,22.025c-0.282,3.276,0.046,10.617,0.046,10.617
	c-9.388,4.975-6.519,7.51-0.056,1.484L154.245,113.343z M97.57,35.346c0,0,9.688,0.078,14.546,0.855
	c4.254,0.681,4.035,0.556,4.019,3.639c-0.012,2.189-0.016,2.14-0.578,3.189c-1.037,1.936-0.86,3.843,0.779,6.515
	c1.594,2.594,2.759,4.509,2.759,4.877c-0.001,0.572-0.099,1.271-1.478,2.233c-1.629,1.136-1.939,1.929-1.917,3.081
	c0.019,0.934-0.159,1.238-0.718,1.235c-0.224-0.001-1.016,0.366-1.865,0.767c-1.496,0.704-1.498,0.704-2.894,0.692
	c-0.7-0.006-1.039-0.27-1.233-0.193c-0.376,0.175-0.717,1.43-0.706,1.796c0.04,0.13,0.239,0.052,0.651-0.089
	c2.314-0.79,5.757-0.436,5.854-0.089c0.467,0.422,0.467,1.073-0.236,1.749c-0.457,0.717-0.664,1.087-0.474,2.195
	c0.259,1.506,0.065,2.104-0.706,2.624c-2.354,1.589-5.495,1.788-10.52,0.825c-5.295-1.017-8.916-3.031-11.928-6.639
	c-1.346-1.612-1.678-2.177-1.012-2.288c0.82-0.127,1.729-0.296,2.571-0.658c3.721-1.598,3.655-8.398-1.357-9.107
	C89.082,52.483,95.35,42.861,97.57,35.346z M102.35,40.03c-1.799,1.006-2.739,2.232-2.742,2.898
	c-0.002,0.272,0.059,0.224,0.919-0.341c2.495-1.637,9.066-4.001,11.411-2.636c1.691,1.013,2.348,0.683,1.369-0.68
	C111.008,36.075,104.81,38.693,102.35,40.03z M108.776,41.102c-0.266,0.002-0.543,0.033-0.818,0.089
	c-1.734,0.387-3.644,1.813-5.225,3.07c-0.78,0.619-1.884,1.847-2.056,2.167c-0.391,0.727,0.471,1.527,1.645,0.887
	c0.682-0.373,0.742-0.289,1.4-0.197c1.514,0.455,3.241,1.16,5.911,0.937c0.249,0.057,0.23,0.115,0.144,0.349
	c-0.158,0.426-1.104,1.24-2.339,2.152c-0.637,0.47-1.194,0.854-1.237,0.925c-0.197,0.313,0.654,0.338,1.586-0.189
	c1.323-0.749,2.847-2.405,3.778-3.735c0.089-0.127,0.212-0.231,0.252-0.368c0.091-0.308-0.466-0.181-0.764-0.263
	c-0.129-0.036-0.103-0.358-0.136-0.508c-0.089-0.39,0.064-1.035,0.136-1.591c0.058-0.448,0.54-0.805,0.856-1.134
	c1.396-1.448,1.286-2.104-0.589-0.991c-0.315,0.188-0.565,0.301-0.873,0.325c-2.768,0.087-4.368-0.02-6.676,1.92
	c-1.026,0.825-1.643,0.906-0.729,0.027c1.394-1.126,3.14-2.728,5.07-3.15c1.165-0.29,2.274,0.601,2.785,0.371
	C110.902,41.557,109.929,41.092,108.776,41.102z M108.375,45.104c0.317,0.208,0.629,1.289,0.6,1.653
	c-0.034,0.424-0.764,0.248-0.865,0.047l-0.396-1.2C107.541,45.198,108.065,44.969,108.375,45.104z M106.965,45.348
	c0.339,0.334,0.417,1.057,0.609,1.653c-0.123,0.43-2.848-0.151-3.189-0.632C104.793,45.839,106.197,45.205,106.965,45.348z
	 M111.744,53.098c-0.205-0.014-0.477,0.086-0.722,0.337c-1.227,1.253-0.831,3.388,0.644,4.079c0.72,0.337,1.808,0.09,3.41-0.402
	c0.764-0.234,1.315-0.342,1.458-0.341c0.626,0.004,0.967-0.965,0.528-1.409c-0.508-0.513-1.712-0.438-3.007,0.562
	c-0.655,0.505-1.123,0.75-1.652,0.743c-1.295-0.017-1.925-1.347-0.601-2.744C112.242,53.457,112.086,53.12,111.744,53.098z
	 M102.666,62.285c1.527,1.229,4.428,0.585,6.378-0.703c1.743-1.15,2.466-1.49,3.864-1.25c1.713,0.294,1.649-0.378,0.907-1.224
	c-0.842-0.958-2.92-0.662-4.659,0.488c-3.854,2.55-5.249,2.977-6.368,1.597c-1.202-1.482,0.229-3.385,1.644-2.347
	c1.161,0.789,1.144,0.196,0.664-0.345C102.3,56.15,100.281,60.365,102.666,62.285z M89.114,63.494
	c1.945,2.462,3.809,4.496,6.606,5.996l0.03,0.465l-9.046-0.02C87.337,68.834,89.133,63.567,89.114,63.494z M58.486,69.908
	c-0.191,3.711,0.476,5.891,2.653,8.484c2.314,2.758,2.143,7.056,0.653,9.712c-0.658,1.175-1.999-0.271-1.367-1.021
	c0.898-1.128,0.952-3.881,0.527-5.601c-0.953-2.844-3.115-4.237-3.991-7.243c-0.295-1.282-0.201-3.588-0.201-3.588L58.486,69.908z
	 M61.318,70.222c0.158-0.024,0.41,0.139,0.783,0.461c1.279,1.104,1.062,4.269-0.403,6.298c-0.448,0.615-0.82,0.439-1.249-0.132
	c-0.578-0.571-0.379-0.628,0.108-1.63c0.509-1.045,0.671-2.222,0.566-3.596C61.055,70.697,61.087,70.258,61.318,70.222z
	 M144.292,71.306c1.129-0.017,2.54,0.222,2.669,0.631c0.122,0.497-0.146,0.896-0.776,1.161c-1.652,0.696-3.836-0.277-3.285-1.467
	C143.037,71.418,143.614,71.315,144.292,71.306z M141.43,71.576c0.324-0.007,0.576,0.073,0.775,0.163
	c0.541,0.278-0.31,2.182,2.385,2.145c0.645,0.095,1.121-0.054,1.032,0.236c-0.134,0.438-1.29,1.096-2.544,1.28
	c-3.756,0.555-3.592,0.367-3.422,3.016c0.111,1.729-0.002,2.312-0.236,3.36c-0.407,1.817-0.568,3.573-0.295,2.996
	c0.366-0.772,1.302-3.212,1.296-4.599c-0.009-2.046,0.724-2.45,1.017-0.968c0.125,0.981-0.315,1.535,0.345,2.535
	c0.374,0.563,0.545,0.553,0.295,1.425c-0.222,0.769-0.067,0.995,0.201,1.386c0.271,0.393,0.544,0.483,0.314,1.033
	c-0.495,1.187,0.281,2.309,1.408,2.403c0.521,0.044,0.665,0.271,0.508,0.469c-0.275,0.342-0.824,0.505-1.28,0.604l-11.928-7.605
	c0,0,0.885-1.771,1.148-2.245c1.714-3.749,3.072-5.458,8.084-7.421C140.879,71.641,141.177,71.582,141.43,71.576z M147.768,74.038
	c0.328-0.012,0.572,0.16,0.85,0.515c0.731,0.939,0.093,2.113-1.707,3.124c-1.539,0.874-1.986,0.978-2.32-0.395
	c-0.076-0.248-0.281-0.552-0.414-0.674c-0.356-0.325-0.275-0.596,0.178-0.836c0.217-0.115,0.909-0.397,1.463-0.763
	C146.778,74.376,147.345,74.055,147.768,74.038z M142.689,76.764c0.377,0.006,0.766,0.097,1.052,0.282
	c0.477,0.31,0.481,1.088,0,1.397c-0.958,0.39-2.471-0.133-2.343-1.01C141.463,76.986,142.063,76.754,142.689,76.764z
	 M148.826,77.724c0.34-0.009,0.595,0.149,0.807,0.476c0.563,0.866-0.098,1.735-1.99,2.659c-1.244,0.608-2.835,0.873-2.73,0.515
	c0.085-0.287-0.36-1.708-0.559-1.935c-0.076-0.241,0.023-0.024,1.595-0.519c0.569-0.18,1.257-0.475,1.575-0.674
	C148.063,77.908,148.486,77.732,148.826,77.724z M59.344,79.969c-0.875,2.099-1.014,3.025-0.598,5.233
	c0.347,1.837,0.749,2.759,2.639,5.473c1.438,2.066,1.897,2.87,1.551,3.522c-0.244,0.352-0.793,0.68-1.135,0.342
	c-0.702-0.916-1.124-2.03-1.809-3.051c-2.641-3.865-2.824-4.849-3.162-7.9c-0.154-1.395,0.649-4.364,1.336-4.808
	C58.936,78.479,59.582,79.486,59.344,79.969z M120.352,79.001c-0.719,0.535-1.17,1.612-1.544,2.388
	c0.078,0.554,0.532,0.192,1.722-1.552C120.815,79.418,120.621,78.967,120.352,79.001z M143.078,79.949
	c1.057,0.031,1.431,0.978,0.957,1.471c-0.689,0.72-1.932,0.177-1.932-0.832C142.104,80.16,142.304,79.939,143.078,79.949z
	 M148.938,81.296c0.606,0.026,0.687,0.627,0.364,1.498c-0.401,0.81-0.886,0.946-2.338,1.397c-1.74,0.541-2.023,0.462-2.285-1.134
	c-0.101-0.613-0.051-0.478,1.552-0.902c0.688-0.183,1.491-0.508,1.92-0.685C148.475,81.339,148.736,81.287,148.938,81.296z
	 M46.213,82.012l0.428,3.225l0.694-2.415L46.213,82.012z M143.287,83.096c0.855,0.004,1.314,0.769,0.881,1.228
	c-0.242,0.256-0.858,0.261-1.156,0.112C142.332,83.939,142.455,83.093,143.287,83.096z M117.144,84.78l1.668,1.025l-13.55,21.348
	l-1.633-0.035l-0.154-0.341L117.144,84.78z M147.888,84.985c1-0.015,1.087,0.927-0.124,1.792c-0.497,0.317-1.054,0.395-1.486,0.414
	c-0.602,0.026-1.008-0.13-1.055-0.546c-0.262-1.02-0.41-1.272,0.52-1.212c0.186,0.013,0.691-0.017,1.098-0.189
	C147.256,85.067,147.607,84.989,147.888,84.985z M143.745,85.918c0.691,0.004,1.131,0.752,0.667,1.118
	c-0.574,0.453-1.288,0.174-1.284-0.511C143.131,86.088,143.25,85.915,143.745,85.918z M46.253,87.428l-3.687,3.258
	c1.352,1.596,2.485,3.188,3.655,4.861L46.253,87.428z M120.789,87.637c1.6-0.064,2.125,0.708,1.365,1.227
	c-1.03,0.688-1.913,0.655-3.083,0.496c-1.548-0.287-0.315-1.524,1.381-1.699C120.568,87.647,120.683,87.641,120.789,87.637z
	 M119.091,89.959c0.323-0.009,0.8,0.082,1.415,0.29c1.047,0.354,2.351,1.448,2.289,2.056c-0.1,0.982-1.952,0.476-3.444-0.933
	C118.416,90.489,118.38,89.978,119.091,89.959z M117.675,89.975c0.907,0.086,1.813,3.149,1.109,4.092
	c-0.689,0.923-1.904-1.064-1.684-2.625c0.087-0.617,0.243-1.434,0.485-1.463L117.675,89.975z M58.429,90.648
	c0.511,0.121,1.165,0.827,1.023,1.362c-0.103,0.215-0.317,0.152-0.551,0.097c-0.42-0.178-0.744-0.762-0.663-1.246
	C58.277,90.729,58.334,90.655,58.429,90.648z M127.178,91.175l2.665,1.804l-2.665,0.104V91.175z M116.135,94.824
	c2.045,0.012,2.477,0.672,0.95,1.475c-0.634,0.335-2.18,0.397-2.979,0.12C112.838,95.979,114.359,94.814,116.135,94.824z
	 M132.675,96.199l0.14,1.85l-5.132,0.449l-0.265-1.928L132.675,96.199z M114.933,97.12c0.355-0.022,0.922,0.142,1.664,0.522
	c1.396,0.717,2.19,1.919,1.47,2.299c-0.652,0.345-1.816-0.063-2.638-0.925C114.342,97.877,114.254,97.163,114.933,97.12z
	 M113.187,97.124c0.933,0.056,1.739,2.605,1.125,3.866c-0.336,0.69-0.762,0.54-1.373-0.596c-0.591-1.098-0.623-3.036,0.059-3.247
	L113.187,97.124z M46.439,97.844l-2.242,4.502l4.064,3.541L46.439,97.844z M133.307,101.313l0.361,1.78l-4.927,1.211l-0.481-1.938
	L133.307,101.313z M111.795,101.66c0.601,0.011,1.165,0.153,1.489,0.438c0.449,0.395,0.351,0.571-0.71,1.003
	c-1.89,0.768-4.218,0.303-2.867-0.844C110.185,101.852,111.021,101.646,111.795,101.66z M143.795,101.556
	c-1.881,1.259-0.069,1.951,1.275,1C144.97,102.231,144.19,101.562,143.795,101.556z M110.414,104.08
	c1.345,0.044,3.985,1.886,3.421,2.768c-0.308,0.482-2.072,0.07-2.773-0.601c-0.922-0.881-1.409-2.06-0.9-2.152L110.414,104.08z
	 M108.715,104.165c0.694-0.13,1.805,3.101,0.966,3.929c-0.313,0.31-0.401,0.291-0.927-0.174c-1.052-0.93-0.871-2.643-0.241-3.601
	C108.573,104.229,108.643,104.178,108.715,104.165z M150.065,105.867c-0.184-0.342-0.411-0.501-0.663-0.688
	C142.861,107.687,144.538,110.076,150.065,105.867z M134.567,106.089l0.651,1.804l-4.961,1.962l-0.729-1.974L134.567,106.089z
	 M49.709,109.503l-1.68,4.412c1.826,0.011,3.473,0.872,5.14,1.638L49.709,109.503z M136.216,110.799l1.052,1.773l-4.667,2.52
	l-0.931-1.869L136.216,110.799z M27.809,114.252l1.912,1.348l-2.809,3.483l-0.256-0.492l0.031-2.891L27.809,114.252z
	 M138.765,115.348l1.128,1.626l-4.491,3.115l-1.102-1.769L138.765,115.348z M32.626,117.438l2.063,1.587l-3.262,3.929l-1.975-1.505
	L32.626,117.438z M55.333,118.409l-0.097,4.727l4.856,0.186L55.333,118.409z M111.464,120.539l5.521,3.172l-0.832-4.841
	C114.711,119.15,112.86,120.088,111.464,120.539z M141.782,119.547l1.288,1.6l-4.15,3.479l-1.331-1.665L141.782,119.547z
	 M36.838,120.948l1.925,1.785l-3.391,3.653l-1.78-1.676L36.838,120.948z M145.327,123.542l1.493,1.514l-3.781,3.925l-1.494-1.514
	L145.327,123.542z M41.21,125.466l1.489,1.734l-3.871,3.069l-1.436-1.742L41.21,125.466z M63.518,125.872l1.086,4.63
	c-0.079-0.337,4.819-1.381,5.458-1.03L63.518,125.872z M120.543,126.264l4.623,4.871l0.52-4.692L120.543,126.264z M149.133,127.029
	l1.672,1.305l-3.104,4.413l-1.893-1.482L149.133,127.029z M44.542,129.972l1.377,1.985l-4.058,2.412l-1.151-1.754L44.542,129.972z
	 M153.512,130.439l0.256,0.256l-0.004,3.15l-1.287,1.89l-1.758-1.034L153.512,130.439z M127.358,133.979l4.09,7.42l1.153-5.533
	C131.089,135.843,128.695,134.876,127.358,133.979z M47.777,134.969l0.973,2.141l-4.285,1.951l-0.979-2.13L47.777,134.969z
	 M50.093,140.078l0.783,2.148l-4.558,1.51l-0.721-2.071L50.093,140.078z M29.717,143.969l1.42,0.992
	C38.53,141.083,36.226,139.938,29.717,143.969z M71.508,141.503c0.279-0.029,0.602,0.356,0.861,1.207
	c0.393,1.287,0.185,2.883-0.69,2.86c-0.589-0.071-0.809-1.579-0.811-2.017C70.861,142.263,71.148,141.54,71.508,141.503z
	 M75.562,142.272l1.761,0.19l-0.008,0.495L63.289,165.18l-1.699-1.075L75.562,142.272z M68.01,142.787
	c0.559,0.006,1.377,0.39,2.102,1.158c0.425,0.458,0.879,1.109,0.989,1.776c-0.013,0.22-0.388,0.137-0.752,0.085
	c-0.932-0.131-2.302-0.774-2.739-1.567C67.073,143.265,67.376,142.782,68.01,142.787z M132.491,143.579l1.87,9.101
	c0.579-2.278,1.803-3.592,2.709-5.38C134.687,146.204,133.708,144.906,132.491,143.579z M51.904,145.42l0.438,2.354l-4.725,1.092
	l-0.489-2.284L51.904,145.42z M69.525,146.236l0.198,0.008c1.728,0.193,1.973,0.576,0.811,1.354
	c-0.704,0.472-2.61,0.538-2.925,0.035C67.274,147.098,68.521,146.246,69.525,146.236z M35.244,147.618l1.467,0.855
	C39.223,146.662,36.479,146.3,35.244,147.618z M67.039,148.412c0.528,0.006,0.847,0.947,1.032,1.812
	c0.181,0.837,0.242,1.592-0.081,2.013c-0.396,0.515-0.783,0.605-1.098,0.097C65.971,150.841,66,148.399,67.039,148.412z
	 M63.146,149.778c0.246-0.009,0.557,0.054,0.919,0.189c1.227,0.462,2.852,2.335,2.164,2.594c-1.014,0.382-3.229-0.729-3.646-1.851
	C62.373,150.146,62.603,149.797,63.146,149.778z M53.037,151.288l0.112,2.326l-4.969,0.201l-0.147-2.314L53.037,151.288z
	 M65.209,153.246c0.489-0.014,0.979,0.051,1.373,0.221c0.711,0.307,0.193,0.863-1.028,1.285c-0.806,0.279-1.955,0.352-2.358,0.031
	C62.253,154.041,63.74,153.288,65.209,153.246z M26.742,153.518c3.403,2.063,10.461,6.657,10.461,6.657
	c-0.333,0.066-0.688,0.326-1.017,0.581c-0.253,0.208-0.528,0.401-0.768,0.499c-0.377,0.154-0.724,0.176-1.04,0.244
	c-2.193,0.476-3.268,1.715-2.583,3.255c0.269,0.605,0.339,0.508-0.128,1.019c-1.309,1.245-1.148,1.618-0.683,3.213
	c0.006,0.226-1.558,2.142-0.175,3.584c0.766,0.665,0.802,0.249,0.523,1.762c-0.097,0.909,0.152,1.655,1.479,1.916
	c0.737,0.337,0.727,0.22,0.465,0.844c-0.179,0.895,0.078,1.265,0.706,1.591c0.571,0.356,0.804,0.453,0.399,0.767
	c-4.416,2.257-5.775,6.183-1.609,11.968c0.491,0.683,1.727,2.607,1.727,2.607c-1.404,2.08-2.744,3.793-4.177,5.65l4.169,5.818
	c-0.676,1.056-2.254,3.202-3.224,5.32c-1.457,3.183-0.495,7.643,3.696,8.977c1.797,0.572,4.171,0.108,5.666-1.625
	c1.214-1.407,1.875-4.201,0.768-7.111c-1.4-3.26-3.08-4.859-3.623-5.787l4.463-5.591c0,0-3.075-4.414-4.302-6.018
	c8.369-10.224,1.532-13.082,0.221-13.958c-0.204-0.136-0.155-0.789-0.155-0.789c7.518-0.859,10.085-4.982,12.297-10.2
	c4.483,2.882,10.904,6.758,15.402,9.79c0.434,0.401,0.719,0.649,0.652,0.87c-0.055,0.181-0.229,1.011-0.237,1.862
	c0.21,1.356,0.109,1.97-0.438,2.489c-0.516,0.488-0.412,0.71-0.329,1.238c0.144,0.917,0.282,1.009-0.128,1.471
	c-0.507,0.569-0.676,0.836-0.582,2.218c0.056,0.821,0.16,1.436-0.055,1.92c-0.279,0.631-1.046,0.95-2.052,1.738
	c-1.76,1.38-1.522,1.801,0.907,6.809c2.071,4.268,2.309,5.243,1.514,6.759c-0.662,1.261-0.91,2.235-0.83,4.057
	c0.02,0.464,0.06,0.966,0.058,1.211c-0.005,0.59,0.003,0.522-0.337,0.891c-0.266,0.287-0.706,0.854-0.978,1.262
	c-2.89,4.326-10.493,15.438-10.493,15.438H26.742V153.518z M62.637,155.53c0.3-0.021,0.661,0.514,1.07,1.595
	c0.237,0.624,0.212,1.708-0.17,2.125c-0.762,0.83-1.809-1.115-1.479-2.655C62.209,155.899,62.404,155.547,62.637,155.53z
	 M134.538,154.361c0.004,3.941-0.081,9.057-1.44,12.828l1.542,0.697c-0.497-3.871,0.119-7.051,3.679-8.726
	C136.699,158.064,135.461,156.211,134.538,154.361z M58.805,156.847c0.123-0.004,0.267,0.027,0.423,0.077
	c0.577,0.158,1.279,0.494,1.707,0.929c0.73,0.744,1.485,1.638,1.295,1.723c-1.209,0.529-4.276-1.088-3.875-2.354
	C58.443,156.954,58.599,156.852,58.805,156.847z M53.429,157.013l0.031,1.932l-2.972-1.896L53.429,157.013z M121.282,157.941
	c0.481,0.042,1.225,0.671,1.109,1.107c-0.207,0.473-0.461,0.429-0.792-0.067C121.186,158.362,121.018,157.976,121.282,157.941z
	 M61.078,160.33c0.721-0.02,1.344,0.14,1.412,0.515c-0.002,0.355-0.551,0.814-1.227,1.022c-1.689,0.519-2.955,0.184-2.494-0.643
	C59.06,160.677,60.15,160.355,61.078,160.33z M119.913,162.521c-0.714,1.277-0.803,5.363,0.458,7.03
	c1.957,2.157,3.766,4.966,3.557,8.705l-1.881,0.84c0.104-3.074-0.02-5.073-2.425-7.727c-2.864-3.105-2.19-8.488-1.202-10.071
	C119.269,159.735,120.49,161.948,119.913,162.521z M37.494,160.821c0.602-0.035,1.337,0.32,2.669,1.196
	c3.404,2.405,5.25,3.333,8.626,5.714c0.494,0.461,0.47,0.395,0.385,0.758c-1.291,4.93-5.039,8.841-10.594,9.558
	c-0.643,0.083-0.311-0.319-0.698-1.092c-0.398-0.796-1.134-1.143-1.951-1.149c-2.294-0.021-0.332-1.306,2.468-1.673
	c0.925-0.142,2.04-0.267,2.629-0.824c0.129,0.061-0.486-3.855,0.145-5.233c0.32-1.239,0.017-1.838-0.33-1.076
	c-0.218,0.479-0.523,1.735-0.687,3.023c-0.139,1.088-0.368,1.236-0.625,0.708c-0.117-0.24-0.114-0.812,0.07-1.262
	c0.208-1.025-1.087-1.798-0.826-2.736c0.347-0.784-0.014-1.648-0.45-1.936c-0.237-0.508-0.21-0.876-0.179-1.23
	c0.073-0.832-0.481-1.631-1.357-1.979c-0.388-0.195-0.271-0.406,0.132-0.607C37.108,160.887,37.293,160.833,37.494,160.821z
	 M34.709,162.227c0.221-0.004,0.439,0.021,0.647,0.074c0.451,0.273,0.813,1.831,0.311,1.893c-0.186,0.022-0.765,0.093-1.214,0.225
	c-1.522,0.446-2.244,0.387-2.215-0.488C32.269,163.038,33.518,162.247,34.709,162.227z M36.734,162.386
	c0.599,0.003,1.082,0.703,0.705,1.076c-0.39,0.385-1.139,0.104-1.137-0.453C36.305,162.709,36.441,162.384,36.734,162.386z
	 M37.141,164.813c0.172-0.007,0.362,0.029,0.566,0.124c0.558,0.257,0.879,1.214,0.523,1.563c-0.27,0.267-1.041,0.173-1.454-0.178
	C36.039,165.695,36.396,164.841,37.141,164.813z M35.252,164.952c0.346,0.007,0.594,0.118,0.66,0.355
	c0.057,0.205-0.039,0.394,0.054,0.686c0.146,0.459,0.437,0.811,0.183,0.995c-1.168-0.07-3.593,1.393-4.294,1.323
	c-0.585-0.078-0.65-0.615-0.144-1.486C32.297,165.818,34.217,164.93,35.252,164.952z M35.958,167.781
	c0.255-0.016,0.298,0.124,0.194,0.495c-0.074,0.265-0.013,0.893,0.166,1.297c0.193,0.435,0.543,0.693,0.361,0.863
	c-0.299,0.086-1.303,0.286-2.146,0.601c-1.088,0.601-4.144,2.41-3.374-0.484c0.244-0.967,1.369-1.638,3.332-2.322
	C35.236,167.971,35.703,167.798,35.958,167.781z M37.561,167.816c0.472-0.034,1.011,0.192,1.252,0.777
	c0.709,1.408-1.324,1.61-1.974,0.438C36.453,168.337,36.953,167.86,37.561,167.816z M37.948,171.095
	c1.056,0.006,1.876,1.313,1.109,1.808c-0.568,0.341-1.273,0.277-1.925,0.116C36.154,172.59,36.606,171.087,37.948,171.095z
	 M139.094,171.122c4.02,2.1,9.475,4.035,14.775,5.473v52.138H117.64l-9.922-17.273c0,0-0.329-0.559-0.435-0.805
	c-0.2-0.469-0.129-0.85,0.008-1.336c0.328-1.172,1.324-3.471,2.242-5.102c2.396-4.391,5.801-9.205,3.956-13.424
	c-0.211-0.482,1.904-3.098,1.904-3.098c3.258,0.266,5.951-1.854,4.987-6.857C127.181,178.063,132.783,175.809,139.094,171.122z
	 M36.074,171.377c0.092-0.003-0.185,1.139,0.393,1.839c0.359,0.552,0.301,0.533-0.92,1.015c-0.456,0.246-0.914,0.622-1.172,0.852
	c-1.747,1.556-3.477-0.479-1.787-2.114c1.363-1.223,2.789-1.489,3.463-1.575L36.074,171.377z M119.163,172.453
	c0.586,0.104,1.346,0.882,1.103,1.307c-0.827,1.382-0.864,2.125-0.938,3.556c-0.082,1.596,0.191,1.831-0.419,1.556
	c-0.397-0.186-1.141-0.504-1.307-0.909C117.217,177.025,118.199,172.282,119.163,172.453z M35.504,176.46
	c0.649-0.012,1.331,0.2,1.715,0.692c0.32,0.41,0.354,0.762,0.035,0.93c-0.757,0.398-3.261,0.19-3.387-0.322
	C33.673,176.97,34.556,176.477,35.504,176.46z M73.432,177.474c3.059,0.013,6.628,0.662,9.391,1.866
	c3.922,1.476,7.377,5.238,8.158,6.848c0.236,0.488-0.248,0.488-0.668,0.533c-4.671,0.771-6.226,6.506-2.284,9.248
	c1.236,0.771,2.234,0.688,2.234,0.688c1-0.085-4.443,10.337-6.61,16.83c-6.703-0.273-11.77,0.757-18.323-1.494
	c-0.705-1.167-0.537-3.746-0.023-5.078c0.471-1.209,1.091-2.143,0.791-3.534c-0.521-2.424-2.734-5.581-3.476-7.583
	c-0.649-1.527-0.607-2.098,0.524-2.973c1.333-1.031,1.662-1.247,2.028-1.769c0.341-0.486,0.195-0.598,0.201-1.691
	c0.008-1.328-0.023-1.121,1.075-1.316c0.383-0.068,1.287-0.356,1.978-0.72c1.434-0.754,2.433-0.728,3.274-0.26
	c0.366,0.099,0.331-0.28,0.485-0.782c0.066-0.219,0.222-0.576,0.209-0.685c-0.026-0.225-0.51-0.16-1.043-0.085
	c-2.139,0.299-3.824,0.364-4.69,0.042c-0.751-0.279-0.753-0.784-0.313-1.622c0.391-0.746,0.668-0.734,0.508-2.291
	c-0.201-1.955,0.071-2.366,0.985-3.008C68.982,177.839,71.053,177.464,73.432,177.474z M84.486,179.196h9.942
	c-0.976,1.57-2.062,3.993-2.677,6.29c-0.09,0.179-0.196,0.355-0.427,0.124C89.984,183.693,88.458,181.645,84.486,179.196z
	 M76.244,186.184c-1.188,0.033-2.674,0.604-4.542,1.672c-1.27,0.726-2.306,1.177-3.654,0.929c-0.771-0.142-0.869-0.032-0.97,0.217
	c-0.453,1.122,1.229,2.326,2.929,1.537c0.494-0.207,4.282-2.167,4.492-2.335c0.228-0.182,1.796-0.644,2.211-0.639
	c1.253,0.016,2.026,0.999,1.873,2.133c-0.204,1.516-2.356,1.592-2.498,0.244c-0.108-1.037-0.542-0.576-0.581-0.065
	c-0.003,0.436,0.326,1.429,0.686,1.652c1.819,1.134,4.217-1.072,3.068-3.344C78.555,186.794,77.591,186.145,76.244,186.184z
	 M68.086,191.464c-1.233,0.234-2.036,0.713-3.366,0.823c-1.097,0.242-1.016,1.114-0.329,1.568c0.526,0.348,1.19,0.138,3.11-1.08
	c1.886-1.196,3.503,1.295,1.994,2.571c-0.95,0.804-0.298,1.015,0.353,0.53C71.518,194.634,70.56,190.994,68.086,191.464z
	 M73.925,197.877c-0.145-0.011-0.373,0.042-0.679,0.182c-1.413,0.646-2.5,1.326-3.177,2.233c-0.116,0.197-0.053,0.529-0.108,0.79
	c-0.045,0.204-0.208,0.465-0.179,0.604c0.024,0.121,0.425,0.25,0.484,0.364c0.246,0.461,0.088,1.636-0.054,2.484
	c-0.068,0.407-0.674,0.533-0.916,0.778c-0.796,0.808-0.596,1.055,0.252,0.739c0.593-0.22,0.342-0.628,1.809-0.345
	c1.898,0.368,3.404-0.146,4.898-0.975c1.659-0.92,2.26-1.431,2.327-1.32c0.111,0.181,0.023,0.276-1.159,1.258
	c-2.966,2.46-5.172,3.031-6.835,2.109c-0.498-0.338-0.896-0.476-0.52,0.248c0.048,0.079,0.451,0.392,0.733,0.519
	c1.709,0.77,3.852,0.119,6.578-2.032c0.599-0.472,1.127-1.001,1.819-1.579c2.263-1.89,1.667-2.755-0.889-1.835
	c-0.806,0.29-1.032-0.022-2.122-0.445c-1.463-0.566-1.943-0.62-3.626-0.65c-1.466-0.025-1.685,0.111-1.684-0.135
	c0.002-0.313,0.986-1.419,2.095-1.9C74.055,198.498,74.358,197.907,73.925,197.877z M76.621,202.541
	c0.272,0.275-0.119,0.451-1.176,0.952c-0.599,0.284-1.148,0.517-1.226,0.515c-0.095,0.17-1.091-2.073-0.818-2.183
	C73.518,201.778,75.959,201.984,76.621,202.541z M72.784,202.305c0.245,0.509,0.432,1.041,0.527,1.533
	c0.022,0.151,0.13,0.369-0.108,0.367c-0.188,0.027-0.497,0.043-0.609-0.131c-0.238-0.375-0.504-1.649-0.414-1.896
	C72.363,201.929,72.686,202.103,72.784,202.305z M81.48,206.338c-0.088,0.002-0.254,0.067-0.516,0.221
	c-4.206,2.479-9.25,3.771-12.494,2.547c-1.094-0.412-1.294-0.267-0.896,0.48c0.276,0.519,0.823,1.126,1.656,1.354
	c2.649,0.728,6.917-0.331,10.201-2.481C80.77,207.585,81.864,206.336,81.48,206.338z M106.236,212.98
	c0.008,0,8.159,15.291,8.879,16.01l-60.48-0.258l10.189-14.386C64.915,215.155,89.404,218.512,106.236,212.98z"/>
<path fill="#D40000" d="M55.018,228.729l9.766-14.394c14.446,2.74,27.441,1.292,41.678-1.243l9.481,15.957L55.018,228.729z
	 M131.606,175.086l-0.063-8.545l2.983,1.106c-1.035-3.975,1.579-8.128,3.96-8.293c-7.607-5.727-1.288-11.852-1.419-11.982
	c-8.32-4.285-4.146-10.864-4.723-11.454c-10.138-2.623-6.179-10.653-6.945-9.824c-5.901,1.771-9.151-3.164-9.251-7.178
	c-5.106,2.889-12.997-1.204-10.524-5.802c0,0,2.705,1.281,3.183,1.022c4.169-3.025,3.843,1.316,4.709,2.26
	c3.11-0.449,4.945,1.926,5.721,3.079c4.587,0.005,4.398-1.093,4.438,3.347c3.456,0.876,3.318,2.74,5.321,5.288
	c4.356,0.048,3.623,1.463,2.638,3.869c3.14,2.495,3.395,4.448,3.912,6.717c3.426,1.239,4.041,1.744,1.805,4.626
	c3.023,4.523,1.568,7.144,2.027,7.39c3.771,2.715,1.887,3.697,0.24,4.739c0.571,3.607,1.029,4.138-0.3,7.81
	c4.333,3.069-0.688,4.453-0.943,4.39l-0.013,3.04L131.606,175.086z M26.676,152.806l-0.088-10.589l36.736,23.689l-4.642,7.271
	L26.676,152.806z M75.479,168.39l8.683-18.143l-3.12-19.789l24.888,0.543c2.798,6.347,4.485,11.744,11.654,22.249l-7.575,2.355
	l0.264,12.719L75.479,168.39z M96.763,163.618c-0.254-0.524-0.396-0.884-0.348-1.117c0.093-0.303,0.324-0.289,0.621-0.126
	c1.058,0.513,2.115,0.954,2.895-0.016c0.391-0.508,0.289-1.231-0.043-1.648c-0.597-1.213-2.474-0.335-3.104-0.292
	c-0.586,0.013-0.813-0.479-0.33-1.179c0.287-0.306,0.467-0.642,0.514-1.038c0.329-2.772-4.407-1.786-2.764,0.902
	c0.747,0.997,0.312,1.596-0.786,0.966c-1.208-0.693-2.887-0.047-2.831,1.411c0.042,1.104,1.432,1.786,2.602,1.12
	c0.27-0.154,0.48-0.32,0.672-0.404c0.543-0.235,0.934-0.041,0.753,0.57c-0.486,0.763-1.058,1.859-0.579,2.58
	c0.478,1.053,2.125,0.954,2.69,0.3C97.112,165.197,97.222,164.464,96.763,163.618z M154.173,108.007L117.364,84.2
	c2.276-2.944,3.626-5.32,4.894-7.688l31.953,20.511L154.173,108.007z M96.624,99.959l3.77,19.22l-25.696,0.365
	c-1.412-6.453-10.238-21.06-10.215-20.804l6.852-16.804l34.101-0.041L96.624,99.959z M86.98,92.803
	c0.651-0.595,0.607-1.503-0.11-2.525c-0.695-0.99-0.386-1.705,0.729-1.034c0.617,0.413,1.597,0.499,2.259,0.289
	c0.84-0.285,1.188-0.955,1.064-1.8c-0.15-1.021-1.286-1.303-2.499-0.856c-0.351,0.074-0.563,0.359-0.866,0.496
	c-0.654,0.287-0.914-0.498-0.316-1.515c0.664-1.127-0.024-2.337-1.244-2.443c-1.303-0.113-2.079,1.366-1.548,2.177
	c0.763,1.165,0.21,1.977-0.884,1.197c-1.575-1.121-3.631,0.3-2.779,1.968c0.413,0.809,1.766,1.021,2.978,0.508
	c1.013-0.428,1.314,0.065,0.7,1.101C83.201,92.493,85.273,94.363,86.98,92.803z M49.697,73.932l-0.271,10.242
	c-3.844-2.347-3.273-2.376-3.414-2.341c1.131,3.079-0.189,6.883-3.451,8.752c5.877,5.502,2.702,9.369,1.737,11.981
	c7.507,4.35,3.698,11.865,3.729,11.477c7.402,0.041,7.253,6.5,7.466,9.194c9.152-0.573,7.926,6.725,9.133,7.353
	c4.437-1.982,9.618-1.303,10.992,4.648c0.891,3.376-2.373,0.122-3.794,0.265c-5.059,3.144-4.085-1.654-4.37-2.322
	c-4.189,0.397-4.754-1.597-6.589-3.011c-4.525,0.869-4.153-0.616-3.886-3.359c-3.551-0.718-4.322-2.929-5.737-5.093
	c-4.901,0.158-2.902-3.297-2.884-3.976c-0.595-0.531-3.409-3.295-3.548-6.46c-5.031-1.419-1.872-3.952-1.69-4.821
	c-1.903-2.366-2.403-4.112-1.767-7.094c-4.467-2.085-0.736-4.032-0.42-5.217c-1.456-3.885-0.396-5.048,0.18-7.149
	c-2.875-3.363-1.157-3.177,0.946-5.217c0.267-0.368-0.469-2.057-0.428-3.051L49.697,73.932z M75.507,35.975l-8.056-14.391h57.538
	c0,0-6.262,8.659-8.689,13.017C101.95,32.34,88.523,33.413,75.507,35.975z"/>
<path fill="#E2CF00" d="M35.345,219.383c-5.047-1.145-5.903-7.475-1.166-12.739c0.383-0.425,0.644-1.084,0.644-1.084
	c-1.637-2.522-2.394-3.411-4.064-5.918c1.476-2.225,3.201-3.921,4.309-5.853c-0.067-0.334-0.56-0.668-1.147-1.533
	c-3.417-5.022-3.794-7.014-2.06-10.001c1.631-2.809,5.526-3.133,7.896-0.657c2.563,2.675,2.443,5.105-0.885,10.054
	c-0.73,1.086-1.258,2.066-1.258,2.066c0.92,1.851,2.481,3.57,4.072,5.898c-1.475,1.823-2.979,3.534-4.277,5.634
	c0,0,0.132,0.451,0.42,0.776c5.287,5.979,4.871,12.846-1.108,13.43C36.412,219.486,35.665,219.44,35.345,219.383z M77.877,143.082
	c-0.139-0.227-19.029,30.279-19.029,30.279l2.156,1.381l18.07-28.2c0.273,0.206,0.539,0.452,0.484,0.796
	c0,0-14.884,24.203-17.363,28.072c-0.066,0.104,3.69,2.324,3.816,2.331c5.535-2.723,28.621-0.366,43.951-1.303l-0.236,5.374
	c0,0-3.495-4.035-4.201-4.06c-3.485-0.121-7.15,1.36-9.776,1.194c-1.677,0.512-3.591,6.61-3.968,8.139
	c-3.051-0.354-5.998,2.832-5.293,5.799c0.998,3.297,2.711,3.048,4.565,3.103c-0.173,3.731-6.774,13.566-6.803,18.413
	c6.982-0.551,14.537-0.678,21.739-2.846c0,0,2.705-7.763,6.118-12.88c1.126-1.957,1.666-4.896,1.209-6.748
	c-0.289-2.028,0.587-2.54,1.369-3.96c0.477-0.888,2.236-0.851,2.461-0.916c4.581-1.324,2.944-7.235,0.995-8.287
	c-2.432-1.312-5.869,0.721-7.189-1.938c-1.398-2.815-0.945-8.636-0.945-8.636l-34.587,0.165c0,0,9.772-18.531,9.524-18.668
	C82.273,148.223,77.909,143.135,77.877,143.082z M54.743,159.949c0.161-1.874,0.462-32.328-28.374-47.467l0.153-4.004
	c0.177-0.206,26.231,11.736,30.7,42.757l8.04-12.574l2.958,1.158C63.851,146.373,55.158,162.277,54.743,159.949z M37.232,148.979
	c1.188-3.516-0.761-1.65-2.537-1.795c-1.215-0.659-2.406-1.511-3.534-2.252c8.427-4.455,3.408-4.24-1.501-1.111
	c-1.273-0.688-2.883-2.197-2.984-2.069c9.51-6.105,5.942-6.228-0.143-1.809c0.209-4.145,0.061-2.589,0.143-3.982
	c5.188-5.547,0.355-2.533,0-2.467c-1.277-5.534,4.831-4.376,5.391-0.191c1.075,0.797,3.188,1.785,3.812,5.217
	c2.933,1.864,2.625,3.408,2.489,5.642c1.147,1.131,4.108,3.518,0.654,5.723L37.232,148.979z M26.295,123.726l0.194-3.062
	c0.398-1.248,22.637,14.585,21.034,34.931c0.262-0.143-2.461-1.421-3.242-2.119C44.293,138.504,28.367,125.34,26.295,123.726z
	 M153.847,140.9c-14.839-6.787-28.929-23.051-29.669-44.203l-8.381,14.009l-2.975-1.258c0.277,0.229,6.628-11.533,13.166-19.663
	c1.845,26.689,12.333,39.1,28.222,48.115L153.847,140.9z M76.137,131.142c-14.378-1.781-35.168-21.317-28.955-47.798
	c0.882-2.689,14.748,12.209,14.749,12.209c0.088-0.676,12.475,19.238,12.127,23.129c10.455,2.973,30.862,0.154,30.862,0.154
	c16.968,3.781,34.709,22.051,28.305,48.013c0,0-4.511-2.955-8.28-6.395c-11.452-11.047-15.086-20.124-19.144-30.138
	C91.14,128.991,77.394,131.616,76.137,131.142z M153.985,109.087c0.25,1.318,0.088,4.051,0.138,4.046
	c-3.822,4.152-4.219,4.229,0.572,2.894c-0.594,3.981-3.544,4.636-5.297,3.28c-0.646-0.499-0.651-3.243-0.651-3.243
	c-2.905-0.727-3.903-1.599-3.491-4.717c-3.346-0.399-3.214-2.024-2.939-5.418c-3.047-1.711-2.287-4.433-0.485-5.596l1.507,1.036
	c-0.482,0.432-0.248,3.135,2.424,1.124c0,0,2.135,1.77,3.161,2.456c-7.726,4.958-3.042,3.868,1.717,0.611
	c0.893,0.607,2.112,1.602,2.747,2.031C147.117,112.078,145.06,115.83,153.985,109.087z M154.36,125.944l-0.256,3.574
	c-15.255-9.314-19.384-21.598-20.518-34.681c0,0,2.048,1.505,2.983,2.129C137.932,113.845,153.419,125.24,154.36,125.944z
	 M70.786,81.656l36.582,0.233l-9.702,18.518l5.121,6.038c0,0,12.709-19.765,19.098-30.117l-2.21-1.319l-18.238,28.605l-0.725-0.802
	l17.98-28.582c-1.078-0.705-3.119-1.836-3.119-1.836s-31.154,0.499-44.695,0.444c0.439-1.865,0.534-5.171,0.534-5.171
	c1.996,2.861,4.137,5.416,8.792,2.604c0,0,5.507,0.186,5.71-0.076c0.673-1.088,1.867-4.507,3.26-8.369
	c5.312-0.354,4.782-2.919,5.387-3.759c-0.406-7.534-4.641-3.478-4.276-6.217c1.196-4.881,7.313-15.93,6.541-16.898
	c-1.579-1.045-17.226,2.03-21.779,2.59c-0.421-0.162-2.644,7.09-4.988,10.19c-2.551,3.373-3.46,6.99-2.158,10.401
	c-1.35,3.75-3.936,3.365-6.014,4.428c-2.356,2.547-1.707,6.447,0.539,7.957c1.564,1.051,3.965,0.995,6.411-0.987L70.786,81.656z
	 M143.481,55.464l-4.28-5.737l4.149-6.034c-1.638-2.592-4.339-6.558-3.854-9.702c1.057-6.233,9.482-5.318,10.216,0.645
	c0.398,2.768-1.622,6.162-3.675,9.051c1.354,2.465,1.938,2.867,3.908,5.693c-1.172,2.063-4.021,6.098-4.021,6.098
	c1.777,2.984,4.25,6.273,4.071,9.31c-0.188,2.607-3.034,5.249-5.691,4.693C136.042,67.753,140.656,58.936,143.481,55.464z"/>
<path d="M66.086,20.927c2.268,4.253,8.711,15.728,8.711,15.728c15.323-3.171,28.208-3.979,41.749-1.018l9.674-14.64L66.086,20.927z
	 M68.083,21.79h2.77l5.435,11.16l9.375-1.87l-1.598-9.267l2.652,0.016l1.343,8.91l13.773-0.348l1.784-8.602l2.541,0.031l-1.823,8.74
	l10.907,1.467l5.338-10.238h3.666l-8.115,12.643c-14.436-2.808-28.776-1.864-40.779,1.084L68.083,21.79z M73.308,21.79h8.088
	l1.939,7.533c-0.993,0.518-4.702,1.401-5.942,1.277C75.91,28.01,74.38,24.265,73.308,21.79z M88.905,21.79h12.308l-1.051,6.414
	L89.84,28.533L88.905,21.79z M108.416,21.79h9.483l-3.743,7.788l-7.152-0.972L108.416,21.79z M144.524,29.586
	c-0.555-0.003-1.066,0.045-1.536,0.144c-2.46,0.514-3.749,2.4-3.77,5.481c-0.01,1.411,1.032,3.907,2.617,6.267
	c0.773,1.15,1.288,2.21,1.288,2.21l-4.127,6.054l4.391,5.726c0,0-0.684,0.8-1.09,1.374c-2.014,2.842-2.944,5.5-2.815,7.68
	c0.139,2.354,1.515,4.15,4.092,5.013c1.414,0.473,3.431-0.105,4.787-1.332c1.094-0.989,1.645-2.275,1.667-3.785
	c0.033-2.157-1.011-4.771-3.091-7.622c-0.565-0.774-0.842-1.382-0.842-1.382s2.912-4.138,4.011-6.03l-3.979-5.706
	c3.164-4.745,3.802-5.797,3.891-8.713C149.874,32.072,147.772,29.604,144.524,29.586z M144.129,29.935
	c0.137-0.002,0.274,0.001,0.411,0.012c3.614,0.277,5.522,2.958,5.042,6.398c-0.49,3.28-3.453,6.338-3.929,7.394
	c1.425,2.311,4.111,5.597,4.111,5.597c-1.14,2.068-4.084,6.077-4.084,6.077s0.169,0.332,0.356,0.596
	c3.074,4.348,3.92,6.402,3.709,9.008c-0.168,2.056-1.793,3.89-3.821,4.262c-3.212,0.59-5.848-1.686-6.171-4.757
	c-0.198-2.689,1.539-5.304,2.89-7.344c0.571-0.854,1.063-1.672,1.063-1.672l-4.376-5.732c1.334-2.11,3.02-4.18,4.256-5.961
	c0,0-0.652-1.048-1.257-2.001c-2.399-3.783-3.069-5.722-2.7-7.812C140.083,31.428,142.08,29.969,144.129,29.935z M144.455,31.874
	c-1.336,0.035-2.611,1.018-3.119,2.438c-0.733,2.664,2.076,6.697,3.355,7.78c2.396-2.75,3.922-5.834,3.037-7.993
	C147.146,32.794,145.79,31.838,144.455,31.874z M144.784,32.737c2.42,0.05,3.325,2.916,1.459,6.178
	c-0.646,1.112-1.595,2.275-1.595,2.275s-0.887-1.103-1.42-1.935c-2.162-3.379-1.604-6.017,1.052-6.488
	C144.455,32.745,144.623,32.733,144.784,32.737z M96.628,34.228c-6.335,0.033-14.798,1.086-22.237,2.771
	c-0.646,3.981-2.649,7.976-4.834,11.147c-2.104,3.43-2.863,6.416-2.16,8.462c0.658,1.915-1.14,4.774-3.115,4.954
	c-2.455,0.224-4.018,1.93-3.987,4.358c-0.069,3.893,2.622,6.278,6.276,4.955c0.367-0.046,0.613,0.193,0.613,0.193L66.97,93.346
	c-2.057,0.322-3.43,0.77-5.179,1.695c-3.251-3.695-5.96-6.312-8.451-8.147c-0.072-4.958,0.132-9.944-0.09-14.892
	c-3.675,1.416-7.59,3.737-10.811,5.876c-1.081,0.723-1.189,1.125-0.783,2.954c0.228,1.025,0.172,1.136-0.675,1.343
	c-1.744,0.426-2.289,3.197-0.815,4.138c0.692,0.441,0.695,0.465,0.249,1.467c-0.69,1.552-0.664,4.519,0.05,5.756
	c0.408,0.707,0.381,0.936-0.158,1.285c-1.857,1.207-1.731,3.788,0.209,4.27c0.496,0.124,0.626,0.336,0.462,0.759
	c-0.606,1.563-0.054,3.938,1.338,5.736c0.724,0.936,0.722,0.925,0.244,1.355c-1.563,1.409-0.716,3.935,1.412,4.211
	c0.73,0.096,0.733,0.097,0.818,0.654c0.244,1.603,0.354,2.05,0.71,2.803c0.447,0.948,0.985,1.59,1.994,2.373
	c0.822,0.638,0.822,0.647,0.384,1.591c-0.812,1.743,0.479,3.473,2.536,3.402c1.049-0.036,1.05-0.039,1.125,0.333
	c0.37,1.82,2.538,3.956,4.317,4.25c0.915,0.15,1.06,0.368,0.749,1.142c-0.5,1.245-0.176,2.048,1.086,2.694
	c0.846,0.433,1.094,0.449,2.021,0.132c1.048-0.359,1.059-0.354,1.95,0.836c1.257,1.677,2.09,2.099,4.186,2.113
	c1.382,0.01,1.435,0.045,1.443,1.018c0.021,2.303,2.461,3.263,4.034,1.587c0.566-0.604,0.565-0.601,1.07-0.231
	c2.212,1.617,4.174,2.035,3.991,0.522c-0.427-3.542-2.995-5.702-2.995-5.702l3.209,0.836c0.141,3.739,0.273,8.248,1.055,11.365
	l-14.298,22.726c0,0-0.867-0.529-1.78-1.158c-1.344-0.925-2.99-2.013-3.999-2.644c-0.517-0.322-1.176-0.717-1.695-1.153
	c-0.497-0.414,0.308-0.96,0.478-1.397c3.292-5.865,8.444-12.917,12.195-19.771l-3.631-1.401c-2.777,4.363-4.823,7.875-7.409,11.898
	c-2.575-18.854-15.761-35.406-31.714-42.377l0.055,4.935c16.747,8.55,28.699,26.192,28.382,47.004
	c-0.065,0.078-1.402-0.721-3.208-1.92c-0.952-0.633-2.869-1.884-3.107-2.006c0.775-23.046-22.128-36.673-22.168-36.029
	c0,0-0.144,2.979-0.209,4.358c9.76,6.525,17.428,18.397,18.204,28.962l-4.581-2.857c2.731-1.356,1.979-4.873,0.012-5.825
	c-0.616-0.275-0.652-0.409-0.346-1.238c0.629-1.703-0.524-4.266-2.113-4.695c-0.697-0.188-0.813-0.371-0.846-1.348
	c-0.063-1.785-1.052-2.952-2.836-3.344c-0.492-0.108-0.497-0.112-0.523-0.728c-0.15-3.459-3.539-4.867-6.082-2.528
	c-0.284,0.262-0.582,0.759-0.582,0.759l-0.02,3.751c0.868-0.477,2.186-2.106,2.727-2.04c0.598,0.07,0.309,0.471-1.035,1.63
	c-0.872,0.752-1.719,1.544-1.719,1.544l0.055,4.939c1.447-0.938,2.898-1.999,4.255-2.941c1.17-0.814,1.769-1.079,1.912-0.844
	c0.162,0.264-0.099,0.609-0.764,1.006c-1.783,1.186-3.857,2.576-5.356,3.747l-0.004,3.402l0.287,0.422l0.085,2.98l-0.268,0.066
	l0.004,3.754l35.224,22.455l17.925-28.219l0.295,0.299L61.527,175.14c0,0,0.738,0.633,1.436,0.999
	c0.712,0.397,1.602,0.927,2.362,1.432c0.358,0.587,0.987,1.104,1.66,1.03c0.617-0.673,3.31-1.384,3.568-1.693
	c10.028-0.147,38.816,0.048,38.816,0.048l0.163,4.595c-1.294-4.455-5.467-5.374-8.747-3.379l-5.388,0.007
	c-0.042,0-3.188,5.723-3.65,8.71c-2.264-0.308-5.277,1.895-5.43,4.13c-0.367,3.181,1.727,5.499,4.464,5.048
	c0.05,0.02-0.43,3.151-1.978,5.597c-2.055,4.318-3.114,6.733-4.368,10.416c-0.849,2.315-0.56,2.727-0.415,2.783
	c8.037-0.115,15.433-0.893,23.061-3.348c0,0-0.142-0.543-0.21-0.848c-0.275-1.232,0.763-3.755,3.696-8.965
	c2.266-4.024,2.915-5.56,3.143-7.459c0.115-0.962,0.094-1.211-0.241-3.004c-0.021-0.167-0.151-0.408-0.116-0.588
	c0.238-1.208,2.08-3.33,2.122-3.279c0,0,0.668-0.123,0.935-0.146c4.156-0.291,5.443-5.928,1.936-8.47
	c-1.709-1.045-2.715-1.124-4.526-0.65l-0.031-21.858l2.526,0.095l2.776-1.368c4.46,3.802,7.37,7.688,12.172,10.614l-0.077,0.193
	l-3.569-2.442l0.008,14.321c4.131-2.146,7.981-4.124,11.695-7.126l-0.749-0.646l0.031-2.047c3.489,0.274,3.825-4.159,0.958-4.688
	c0,0,0.065-0.357,0.341-0.922c0.881-1.801,0.99-3.499,0.35-5.373c-0.391-1.143-0.374-1.43,0.09-1.428
	c2.119,0.012,1.924-3.742-0.237-4.563c-0.744-0.283-0.691-0.048-0.539-2.377c0.114-1.749-0.313-2.936-1.61-4.471
	c-0.489-0.579-0.447-0.858,0.183-1.242c1.81-1.103,0.499-4.285-1.726-4.192c-0.869,0.036-0.867,0.035-0.943-0.832
	c-0.197-2.28-1.474-4.455-3.146-5.365c-0.518-0.282-0.594-0.513-0.302-0.902c1.424-1.899,0.092-4.498-1.917-3.738
	c-0.389,0.146-0.8,0.294-0.911,0.328c-0.159,0.05-0.287-0.172-0.594-1.033c-0.835-2.345-1.576-3.08-4.235-4.195
	c-0.523-0.22-0.554-0.374-0.318-1.444c0.407-1.847-2.142-3.565-3.519-2.373c-0.561,0.486-0.579,0.482-1.21-0.325
	c-1.257-1.443-3.304-2.449-5.124-2.64c-0.871-0.078-1.002-0.146-0.931-0.479c0.483-2.263-1.723-3.737-3.558-2.377
	c-0.881,0.653-1.108,0.673-2.013,0.166c-1.901-1.064-2.734-1.104-2.933-0.143c-0.061,0.801,0.116,1.748,0.311,2.338
	c0.463,1.59,1.063,2.18,2.374,3.298c0,0-2.177-0.603-2.728-0.712c0.055-0.058-0.158-7.544-1.586-11.783l13.922-22.11l7.975,5.249
	l-12.754,20.132l3.712,1.506c0,0,4.958-8.218,7.553-12.247c1.698,20.012,17.201,37.559,31.244,42.765
	c-0.048,0.023,0.045-2.877,0.104-4.281c-14.815-6.51-28.908-24.701-28.021-46.534l5.95,3.801
	c1.727,17.499,9.365,27.754,22.098,36.424v-5.36c-8.768-6.477-16.055-14.935-17.986-28.47c0,0,2.973,1.874,4.306,2.764
	c0,0-0.376,0.214-0.57,0.375c-1.591,1.321-1.112,4.032,0.985,5.566c0.341,0.249,0.344,0.25,0.023,1.104
	c-0.637,1.693,0.345,3.74,2.001,4.169c0.951,0.245,0.945,0.233,0.962,1.319c0.034,2.108,0.885,3.08,3.143,3.585
	c0.309,0.068,0.319,0.101,0.314,1.045c-0.014,2.33,2.23,3.897,4.185,2.922c0.612-0.305,2.537-1.912,2.537-1.912v-3.751
	c0,0-0.872,0.712-1.501,1.297c-1.103,1.025-1.45,1.152-1.447,0.526c0.003-0.454,0.51-1.049,1.567-1.834
	c0.548-0.407,1.381-1.277,1.381-1.277v-4.37c0,0-0.492-0.779-0.462-1.711c0.017-0.508,0.159-1.277,0.159-1.277l0.527,0.011
	l-0.007-5.059l-0.641-0.499l0.027-3.353l-34.829-22.489l-18.142,28.791l-0.453-0.53l18.16-28.609l-4.825-3.077l-2.913,1.433
	c0,0-20.159-0.317-39.82-0.066c0,0-0.047-0.541-0.039-2.07c0.011-1.923,0.1-2.192,0.454-1.382c0.796,1.818,2.771,2.914,5.062,2.81
	c1.295-0.059,1.475-0.111,2.913-0.886c0.535-0.288,0.632-0.297,3.153-0.279c2.703,0.02,3.189-0.079,3.192-0.65
	c0.941-2.136,1.868-4.615,2.405-6.479c0.259-0.903,0.374-1.302,0.586-1.486c0.164-0.143,0.293-0.11,0.687-0.136
	c1.729-0.11,2.21-0.223,3.456-1.436c2.497-2.504,1.064-7.599-2.553-7.618c-0.958-0.005-0.303-2.55,1.723-6.677
	c2.095-4.271,2.389-4.926,3.472-7.788c0.708-1.871,1.046-3.213,1.132-4.029C97.037,34.227,96.832,34.227,96.628,34.228z
	 M96.438,35.462c0.501,0.42-0.75,3.504-3.006,8.171c-1.861,3.854-2.694,5.78-3.092,7.177c-0.114,0.402-0.277,0.983-0.364,1.289
	c-0.122,0.431-0.282,0.644-0.71,0.948c-0.304,0.217-0.728,0.536-0.942,0.709c-0.61,0.487-0.755,0.333-0.605-0.65
	c0.277-1.825,1.003-3.794,2.677-7.22c1.326-2.726,2.625-5.647,3.635-8.628c0.227-0.695,0.332-1.402,0.709-1.66
	C95.281,35.294,95.855,35.354,96.438,35.462z M93.723,35.64c0.346,0.239-1.292,4.463-4.127,10.328
	c-3.538,7.317-3.726,12.444-0.543,13.698c2.508,0.989,5.035-1.77,3.486-3.781c-0.744-0.968-2.349-1.05-2.904-0.047
	c-0.305,0.547,0.117,1.178,0.655,0.41c0.782-1.116,2.349,0.173,1.97,1.494c-0.259,0.906-1.531,1.636-2.319,1.479
	c-3.476-0.692-2.821-5.583,0.784-5.853c3.449-0.257,5.018,4.364,2.514,7.01c-0.795,0.857-1.725,1.284-3.344,1.281
	c-2.246-0.003-4.344-1.854-4.131-3.568c0.296-1.57,0.342-2.839-0.19-4.076c-0.171-0.397-0.38-0.792-0.368-1.293
	c0.031-1.391,1.179-3.55,3.738-8.883c0.918-1.911,2.043-5.225,2.6-7.316c0.195-0.611,0.1-0.783,0.33-0.868
	C92.445,35.528,93.263,35.356,93.723,35.64z M90.763,35.714c0.525,0.022-0.684,3.87-2.207,7.149
	c-1.156,2.51-2.735,5.734-3.909,8.717c-0.377,0.632-0.627,0.682-1.396,0.271c-0.849-0.452-0.598-1.172,1.403-5.144
	c1.509-3.018,2.96-6.43,3.977-9.867c0.092-0.412,0.231-0.77,0.573-0.968C89.726,35.645,90.235,35.69,90.763,35.714z M87.947,36.147
	c0.279,0.369-1.555,5.557-4.392,11.407c-0.605,1.242-1.016,2.377-1.625,3.646c-0.293,0.294-1.421,0.442-1.985,0.557
	c-0.583-0.077-0.031-1.168,1.629-4.517c1.353-2.73,1.736-3.503,2.447-5.164c0.518-1.216,1.271-3.306,1.979-5.257
	c0.057-0.157,0.111-0.507,0.264-0.588C86.79,36.011,87.432,35.92,87.947,36.147z M85.178,36.473c0.046,0.124-0.059,0.382-0.098,0.58
	c-0.445,2.088-1.466,4.031-2.211,6.027c-0.089,0.271-0.905,1.971-1.815,3.773c-0.909,1.804-1.743,3.525-1.854,3.828
	c-0.11,0.304-0.413,1.109-0.671,1.789c-1.633,3.494,0.123,6.249,2.285,6.441c3.372,0.278,3.69-4.439,1.311-4.893
	c-0.896-0.15-1.884,0.34-1.889,1.37c-0.063,0.538,0.6,1.163,0.591,0.39c-0.036-1.405,1.933-1.341,2.175-0.146
	c0.473,2.327-2.177,3.464-3.756,1.638c-0.65-0.753-0.645-1.611-0.523-2.381c0.328-2.082,2.732-3.589,4.961-2.017
	c3.05,2.15,1.997,6.905-1.943,7.68c-1.347,0.35-3.045-0.098-4.107-1.188c-0.677-0.694-1.121-1.718-1.291-2.988
	c-0.096-0.707-0.133-1.539-0.023-2.318c0.318-2.441,2.104-6.007,3.669-9.027c1.208-2.505,2.157-5.814,3.259-8.477
	C83.557,36.327,85.225,36.117,85.178,36.473z M82.202,36.805c0.18,0.056-0.741,2.948-2.056,6.074
	c-1.446,3.17-3.323,6.797-4.387,9.917c-0.336,0.765-0.58,0.742-1.532-0.144c-0.503-0.468-0.22-1.164,1.544-4.758
	c2.713-5.526,3.72-7.885,4.127-9.2c0.191-0.619,0.345-1.378,0.752-1.618C81.172,36.83,81.685,36.649,82.202,36.805z M79.491,37.498
	c-0.287,0.931-1.228,3.688-2.836,6.956c-1.009,2.063-1.994,4.347-2.99,6.476c-0.557,1.313-0.572,1.313-1.521,1.51
	c-1.599,0.333-1.6,0.315-0.187-2.543c0.42-0.85,1.227-2.409,1.796-3.465c1.049-1.944,2.67-5.729,3.258-7.617
	c0.158-0.506,0.377-0.98,0.633-1.239C77.809,37.488,79.067,37.113,79.491,37.498z M75.996,37.847
	c0.285-0.011,0.543,0.041,0.663,0.197c0.071,0.649-1.686,4.8-2.766,6.724c-0.329,0.59-0.657,1.354-1.028,2.036
	c-1.375,2.185-3.029,6.382-3.455,8.125c-0.678,2.768,2.492,4.86,4.137,2.848c1.043-1.218-0.043-3.41-1.546-2.798
	c-0.525,0.214-0.312,0.448,0.406,0.508c1.185,0.1,1.273,1.921,0.019,2.321c-1.395,0.426-2.422-0.781-2.416-2.018
	c0.01-2.534,2.789-3.465,4.527-2.081c1.735,1.442,2.012,4.869-0.616,6.197c-2.562,1.295-5.716-0.461-6.35-3.53
	c-0.483-2.343,0.04-4.49,2.3-8.102c1.299-2.079,3.316-5.668,4.349-8.817c0.202-0.534,0.381-0.977,0.565-1.2
	C74.958,38.058,75.52,37.863,75.996,37.847z M144.672,45.221l-3.44,4.366c0.992,1.431,3.352,4.246,3.352,4.246l3.262-4.204
	L144.672,45.221z M144.703,47.663l1.424,1.842l-1.63,1.92l-1.528-1.792L144.703,47.663z M144.831,57.154
	c0,0-4.159,4.548-3.204,7.923c0.854,3.007,5.386,3.738,6.489-0.661c0.078-0.351,0.017-0.824-0.03-1.413
	C147.99,61.211,144.831,57.154,144.831,57.154z M144.831,58.052c0,0,1.194,1.729,2.036,3.26c0.942,1.456,1.189,5.526-2.156,5.399
	c-1.814,0.187-3.545-2.199-2.103-5.117C143.001,60.705,144.831,58.052,144.831,58.052z M76.174,58.783
	c0.232-0.035,0.464,0.463,0.609,0.825c0.198,0.492-0.368,1.91-0.966,2.616c-0.113,0.119-0.878,0.185-2.013,0.763
	c-0.004-0.531,0.321-1.695,0.535-2.21c0.773-0.764,1.432-1.673,1.737-1.943L76.174,58.783z M67.885,59.039
	c0.512,0.577,1.014,1.078,0.993,1.436c-0.03,0.523-0.646,1.17-1.113,1.63c-0.585,0.577-1.753,0.234-1.749-0.515
	C66.018,61.313,67.685,59.038,67.885,59.039z M85.491,59.79c0.494,0.264,0.995,1.164,1.06,1.571
	c-0.725,3.89-3.403,8.645-3.313,8.466c0,0-1.643,0.292-2.34-0.063c1.805-2.499,3.013-5.68,3.833-8.283
	C85.083,60.358,85.243,59.793,85.491,59.79z M83.971,60.336c0.276-0.016,0.383,0.206,0.151,0.809
	c-1.06,4.302-3.444,8.823-5.317,9.646c-2.461,1.081-4.907,0.184-5.958-1.665c-1.138-2-0.936-5.157,2.854-5.849
	c2.229-0.228,4.514,1.526,3.324,4.348c-1.324,2.092-4.883,0.926-3.84-1.773c0.788-0.989,2.439-0.131,1.9,0.987
	c-0.273,0.567-0.009,0.916,0.396,0.522c1.298-1.261-0.837-3.425-2.276-2.342c-2.349,1.767,0.551,5.648,3.285,3.983
	c0.833-0.508,2.34-3.356,2.905-5.431c0.243-0.894,0.463-1.742,1.04-2.284C82.983,60.772,83.616,60.356,83.971,60.336z
	 M77.745,60.506c0.134,0.006,0.292,0.072,0.509,0.179c0.273,0.134,0.596,0.38,0.559,0.696c-0.043,0.366-0.253,1.162-0.676,1.549
	c-0.254-0.088-0.956-0.367-1.435-0.496c-0.301-0.08,0.1-0.727,0.283-1.084c0.296-0.575,0.46-0.816,0.702-0.84L77.745,60.506z
	 M69.999,60.653c0.354-0.007,0.914,0.385,1.284,0.438c0.071,0.534-0.609,1.677-1.719,3.026c-0.909,1.107-0.904,1.109-1.509-0.108
	c-0.394-0.792-0.403-0.771,0.718-2.163c0.604-0.749,0.894-1.092,1.156-1.185L69.999,60.653z M73.518,61.044
	c0.017,0.286-0.129,0.915-0.252,1.281c-1.258,3.748-4.195,7.46-6.617,8.373c-3.163,1.031-6.06-0.632-6.133-4.464
	c0.08-4.515,5.467-5.767,7.094-1.648c0.735,1.859-1.268,4.654-2.998,4.188c-1.746-0.471-2.476-3.19-1.035-3.863
	c0.943-0.44,1.92,0.298,1.714,1.297c-0.071,0.346-0.052,0.394,0.151,0.355c0.897-0.167,0.424-1.966-0.636-2.415
	c-2.003-0.848-3.517,1.844-2.165,3.852c1.618,2.403,4.163,1.942,5.629-1.021c0.249-0.505,0.725-1.229,1.051-1.606
	c0.888-1.025,1.17-1.429,1.955-2.783c0.433-0.747,0.664-1.219,0.885-1.464C72.512,61.102,72.752,61.199,73.518,61.044z
	 M80.611,61.241c0.38,0.003,0.672,0.249,0.664,0.774c-0.008,0.439-0.637,2.29-0.932,2.732c-0.112,0.17-0.375,0.766-0.414,0.635
	c-0.37-1.231-1.031-1.611-1.125-1.935c-0.11-0.379,0.223-0.743,0.372-1.084C79.493,61.639,80.124,61.238,80.611,61.241z
	 M87.299,61.826c0.459-0.004,1.107,0.206,1.241,0.546c0.419,0.732-2.413,7.558-2.517,7.579l-2.114-0.094
	c1.27-2.721,2.392-5.418,3.208-8.016L87.299,61.826z M115.662,72.629l2.688,1.596l-17.719,28.098l-2.576-1.967L115.662,72.629z
	 M71.454,73.21c16.55,0.062,39.343,0.031,39.343,0.031l-0.961,1.823c0,0-24.896-0.242-38.382-0.217V73.21z M49.111,74.359
	l-0.035,9.236c-1.712-1.496-6.895-4.784-6.921-4.707C42.155,78.889,46.621,75.91,49.111,74.359z M119.975,75.277l1.664,1.049
	l-18.618,29.572l-1.036-2.027L119.975,75.277z M71.458,75.688h2.591v2.922h-2.591V75.688z M77.393,75.688h3.146v2.922h-3.146V75.688
	z M84.266,75.719h3.235v2.922h-3.235V75.719z M91.012,75.729h3.27v2.923h-3.27V75.729z M97.807,75.749h3.228v2.923h-3.228V75.749z
	 M104.606,75.812h3.302v2.059l-0.501,0.863h-2.801V75.812z M122.399,76.764l31.578,20.388l-0.02,2.813l-32.874-21.2L122.399,76.764z
	 M120.328,79.147l0.271,0.194l-1.338,2.043l-0.275-0.154L120.328,79.147z M71.547,79.45h35.445l-1.066,1.792l-34.379-0.051V79.45z
	 M42.447,80.363c0.238-0.016,0.704,0.194,1.428,0.6c1.743,0.977,2.84,3.035,2.087,3.778c-0.67,0.661-2.239-0.756-3.212-2.779
	C42.234,80.889,42.099,80.386,42.447,80.363z M105.165,82.128L93.73,100.367c-2.585-3.535-5.482-6.59-11.812-4.521
	c-3.299-2.546-6.787-2.938-10.5-0.778l0.043-12.878L105.165,82.128z M46.299,82.136l0.893,0.771
	c-0.264,0.502-0.385,1.229-0.555,1.877C46.623,83.895,46.546,83.011,46.299,82.136z M118.792,82.326l35.231,23.132v2.144
	L117.563,84.16L118.792,82.326z M41.625,82.853c0.456-0.009,0.901,0.186,1.237,0.588c0.533,0.64,0.313,1.811-0.435,2.311
	c-1.488,0.997-3.275-0.932-2.094-2.26C40.703,83.074,41.17,82.861,41.625,82.853z M47.459,83.127l1.924,1.537
	c-3.34,19.005,6.201,38.191,26.749,43.941l0.232,2.435c0.039,0.116-8.729-2.599-12.56-5.458c-5.236-3.535-9.66-8.513-12.711-14.303
	c-2.082-3.733-3.224-7.845-3.961-11.167C46.261,94.412,46.286,88.77,47.459,83.127z M45.275,85.705
	c0.737,0.03,0.817,0.561,0.225,1.579c-0.762,1.311-1.903,2.222-3.755,3c-1.02,0.429-1.286,0.233-1.167-0.852
	c0.178-1.632,1.314-2.827,3.285-3.457C44.336,85.845,44.814,85.702,45.275,85.705z M50.938,85.91
	c0.301,0.254,0.396,0.334,0.764,0.646c-0.631,0.216-1.086,0.811-1.086,1.514c0,0.885,0.72,1.603,1.606,1.603
	c0.795,0,1.45-0.575,1.578-1.332c0.288,0.246,0.558,0.476,0.768,0.658c-0.37,0.933-1.281,1.591-2.346,1.591
	c-1.395,0-2.525-1.129-2.525-2.52C49.697,87.148,50.197,86.349,50.938,85.91z M52.223,87.172l0.252,0.039
	c0.201,0.171,0.363,0.311,0.559,0.476c0.056,0.117,0.089,0.245,0.089,0.384c0,0.495-0.403,0.897-0.899,0.897
	c-0.497,0-0.9-0.402-0.9-0.897C51.322,87.574,51.726,87.172,52.223,87.172z M46.159,87.753c-0.209,2.45-0.144,5.014-0.065,7.579
	c-0.475-2.033-1.532-3.555-3.293-4.595C44.017,89.898,45.289,88.879,46.159,87.753z M55.418,89.677l1.711,1.475
	c-1.471,20.118,16.197,27.753,16.672,27.417l0.744,2.275C62.346,116.7,53.912,104.117,55.418,89.677z M153.83,137.908l-0.09,2.533
	c-13.844-5.36-29.621-25.138-29.421-44.088c-3.555,5.438-5.552,9.067-8.604,13.966l-2.429-1.154
	c3.995-5.938,7.792-12.29,11.798-18.124c0.456-0.658,0.83-0.961,0.851,0.48C125.933,98.041,127.959,124.865,153.83,137.908z
	 M41.265,91.248c0.444-0.028,1.082,0.187,1.885,0.724c1.267,0.847,2.687,3.465,2.195,4.049c-0.441,0.525-2.318-0.1-3.25-1.084
	C40.248,92.986,40.127,91.32,41.265,91.248z M52.06,91.511c1.394,0,2.524,1.126,2.524,2.517s-1.131,2.52-2.524,2.52
	s-2.525-1.129-2.525-2.52S50.666,91.511,52.06,91.511z M57.711,91.751l1.648,1.928c0.322,16.885,13.678,22.092,13.553,22.134
	l0.403,1.814C72.571,117.731,56.792,110.563,57.711,91.751z M52.06,92.425c-0.888,0-1.606,0.718-1.606,1.603
	s0.719,1.603,1.606,1.603c0.887,0,1.605-0.718,1.605-1.603S52.946,92.425,52.06,92.425z M52.06,93.129
	c0.496,0,0.899,0.402,0.899,0.898s-0.403,0.897-0.899,0.897c-0.497,0-0.9-0.401-0.9-0.897S51.563,93.129,52.06,93.129z
	 M60.593,94.658c0.203,0.001,1.156,1.382,1.156,1.382s-1.046,0.366-1.497-0.089C59.804,95.499,60.045,94.655,60.593,94.658z
	 M133.722,95.281l2.475,1.688c1.155,11.392,7.694,21.783,17.556,28.992l-0.062,2.822C141.68,120.684,135.011,109.68,133.722,95.281z
	 M41,95.475h0.121c1.514,0.025,2.155,2.347,0.535,3.012c-1.019,0.418-2.126-0.186-2.234-1.22c-0.076-0.728,0.466-1.506,1.202-1.722
	C40.754,95.506,40.88,95.482,41,95.475z M61.652,96.996c0.396,0.001,0.828,0.229,1.236,0.689c1.086,1.221,1.076,1.576-0.069,2.039
	c-1.61,0.652-2.949-0.254-2.413-1.633C60.688,97.367,61.142,96.995,61.652,96.996z M45.162,97.054
	c0.131-0.002,0.253,0.015,0.365,0.059c1.188,0.462-1.387,5.167-3.088,5.644c-1.081,0.303-1.307-0.118-0.954-1.769
	C41.878,99.151,43.898,97.08,45.162,97.054z M52.734,97.162c1.394,0,2.525,1.126,2.525,2.517s-1.132,2.52-2.525,2.52
	s-2.525-1.129-2.525-2.52S51.341,97.162,52.734,97.162z M52.734,98.076c-0.887,0-1.605,0.718-1.605,1.603s0.719,1.603,1.605,1.603
	s1.605-0.718,1.605-1.603S53.621,98.076,52.734,98.076z M46.424,98.212c0.224,2.329,0.604,4.485,1.641,7.354
	c-0.973-1.552-2.359-2.322-3.689-3.201C45.307,100.98,46.386,99.596,46.424,98.212z M52.734,98.78c0.497,0,0.899,0.402,0.899,0.898
	s-0.402,0.897-0.899,0.897s-0.9-0.401-0.9-0.897S52.237,98.78,52.734,98.78z M67.024,99.056c2.633-0.057,4.495,2.107,4.379,4.181
	c0.077,2.407,0.164,3.949-0.035,6.939l-2.137-3.905c-0.03-1.106,0.158-1.945,0.073-3.046c-0.242-2.962-3.151-2.551-3.289-2.257
	l-0.92-1.49C65.771,99.199,66.416,99.068,67.024,99.056z M76.299,99.354c2.467-0.003,3.896,1.384,3.972,3.852
	c0.145,4.724-0.108,15.51-0.108,15.51l-5.338,0.004l-2.912-7.207c0,0-0.116-0.693-0.094-1.196c0.186-2.312,0.069-4.884,0.147-6.972
	C72.273,101.131,74.096,99.355,76.299,99.354z M63.948,100.101c0.343-0.005,0.661,0.1,0.903,0.345
	c1.238,1.249,1.231,2.068-0.023,2.632c-1.658,0.745-2.521,0.604-3.087-0.503C61.186,101.488,62.723,100.116,63.948,100.101z
	 M141.759,100.441l1.354,0.871c0,0-0.284,0.443-0.438,0.708c-0.768,1.319,0.538,2.094,2.348,1.394
	c0.326-0.127,0.604-0.306,0.604-0.306l1.117,0.759c0,0-0.806,0.434-1.684,0.862c-2.258,1.103-3.881,0.635-4.426-1.273
	c-0.216-0.757,0-1.705,0.423-2.26C141.273,100.912,141.759,100.441,141.759,100.441z M84.506,100.6
	c2.066-0.07,4.076,1.54,4.555,3.704c0.197,1.014-0.059,14.415-0.059,14.415l-8.196-0.004l0.144-14.059
	c-0.054-0.889,0-1.769,0.478-2.399C82.327,101.137,83.424,100.637,84.506,100.6z M75.996,101.215
	c-1.656,0.076-2.596,2.752-0.893,4.015c0.712,0.527,0.727,0.626,0.346,2.407c-0.435,2.032,0.016,4.816,1.031,6.383
	c0.779,1.298,0.621,0.635,0.222-0.522c-0.513-2.169-0.262-3.762,0.993-6.282c1.121-2.123,2.207-5.387-1.357-5.977
	C76.221,101.219,76.106,101.21,75.996,101.215z M144.017,101.827l0.741,0.499c0,0-0.111,0.092-0.271,0.248
	c-0.297,0.286-0.887,0.332-1.067,0.112C143.119,102.322,144.017,101.827,144.017,101.827z M84.972,102.864
	c-1.779-0.06-2.95,3.233-0.675,4.029c0.518,0.333,0.604,0.77,0.283,1.386c-0.432,0.828-0.862,2.795-0.795,3.615
	c0.096,1.179,0.398,2.718,0.636,3.252c0.598,1.472,0.478,0.884,0.322-0.817c-0.06-1.899,0.323-3.271,1.431-5.086
	c1.316-2.177,3.128-5.718-1.027-6.363L84.972,102.864z M54.359,102.876c1.394,0,2.525,1.125,2.525,2.516s-1.132,2.521-2.525,2.521
	s-2.525-1.13-2.525-2.521S52.966,102.876,54.359,102.876z M66.063,103.131c0.436-0.004,0.763,0.285,1.159,0.875
	c1.091,1.622,0.965,1.955-1.136,3.108c-2.228,1.223-3.717-1.852-1.587-3.274c0.644-0.431,1.101-0.669,1.474-0.705L66.063,103.131z
	 M42.951,103.251c2.35,0.024,6.018,3.37,4.229,3.855c-0.256,0.069-0.577,0.117-0.714,0.108
	C43.516,107.035,40.135,103.223,42.951,103.251z M54.359,103.789c-0.887,0-1.605,0.718-1.605,1.603c0,0.886,0.719,1.603,1.605,1.603
	s1.605-0.717,1.605-1.603C55.965,104.507,55.246,103.789,54.359,103.789z M147.375,104.262l1.172,0.793c0,0-0.716,0.329-1.56,0.778
	c-2.29,1.221-2.956,2.116-2.164,2.915c0.282,0.285,0.616,0.408,1.218,0.182c1.588-0.615,3.068-1.699,4.55-2.555l0.881,0.604
	c-0.021-0.04-3.502,2.471-5.403,3.526c-2.985,1.529-4.69-1.597-3.029-3.685C144.32,105.549,145.692,105.132,147.375,104.262z
	 M54.359,104.494c0.497,0,0.9,0.402,0.9,0.897c0,0.496-0.403,0.898-0.9,0.898s-0.9-0.402-0.9-0.898
	C53.459,104.896,53.862,104.494,54.359,104.494z M149.206,105.334l0.641,0.43c0,0-0.069,0.032-2.025,1.153
	c-2.128,1.22-2.221,1.241-2.339,1.049c-0.104-0.058,0.041-0.556,0.694-0.995C147.322,106.203,149.348,105.269,149.206,105.334z
	 M93.843,105.396c1.45-0.027,2.927,0.659,3.771,2.129c0.43,1.116,0.467,2.153,0.461,3.325l-0.034,7.869h-8.255
	c0,0-0.383-5.363,0-9.828C90.16,106.648,91.979,105.432,93.843,105.396z M68.207,106.561c0.524-0.038,0.91,0.476,1.408,1.587
	c0.493,1.102,0.122,1.725-1.428,2.393c-0.195,0.085-0.419,0.146-0.496,0.14c-1.567-0.149-2.208-1.952-1.082-3.047
	C67.307,106.955,67.799,106.591,68.207,106.561z M152.1,107.366l0.718,0.445c0,0-0.367,0.332-3.033,2.271
	c-2.152,1.567-2.463,1.993-2.013,2.872c0.362,0.71,1.15,0.617,2.238-0.217c1.508-1.156,3.883-3.115,3.883-3.115l0.077,1.339
	c-1.563,1.253-3.448,3.391-4.95,4.204c-2.896,1.424-4.975-2.486-2.326-4.413C148.975,109.092,152.1,107.366,152.1,107.366z
	 M94.157,107.37c-2.158-0.019-2.96,3.178-0.64,3.854c0.667,0.357,0.611,0.542,0.166,2.133c-0.27,0.964-0.356,2.152-0.209,2.907
	c0.174,0.963,0.387,0.94,0.299-0.093c0.003-0.565,0.586-2.073,1.167-3.02C97.092,110.16,96.528,107.398,94.157,107.37z
	 M43.887,107.408c1.423,0.01,2.22,1.988,0.984,2.842c-0.874,0.604-2.704-0.134-2.699-1.088c0.005-0.813,0.646-1.589,1.424-1.727
	C43.695,107.418,43.791,107.408,43.887,107.408z M47.982,107.575c0.448-0.001,0.706,0.653,0.702,1.95
	c-0.005,1.86-0.667,3.481-1.808,4.429c-1.651,1.371-2.02-2.366-0.477-4.839C47.043,108.086,47.587,107.575,47.982,107.575z
	 M153.613,108.066c0.406-0.006,0.343,0.305-0.129,0.631c-0.365,0.254-0.986,0.762-2.908,2.381c-0.35,0.294-0.85,0.678-1.109,0.852
	c-0.641,0.429-1.184,0.316-0.873-0.178C148.898,111.265,153.247,108.072,153.613,108.066z M56.881,108.151
	c1.394,0,2.525,1.126,2.525,2.517s-1.132,2.52-2.525,2.52s-2.525-1.129-2.525-2.52S55.487,108.151,56.881,108.151z M56.881,109.065
	c-0.887,0-1.605,0.718-1.605,1.603s0.719,1.603,1.605,1.603s1.605-0.718,1.605-1.603S57.768,109.065,56.881,109.065z
	 M26.684,109.111c17.078,8.617,27.725,24.737,30.353,43.102l8.297-13.134l2.242,0.844l-12.091,19.664l-0.523-0.163
	c-0.051-19.21-9.646-37.383-28.316-47.354L26.684,109.111z M56.881,109.77c0.497,0,0.9,0.402,0.9,0.898s-0.403,0.897-0.9,0.897
	s-0.9-0.401-0.9-0.897S56.384,109.77,56.881,109.77z M49.833,109.874c0.746,1.648,1.655,3.377,3.061,5.354
	c-1.425-1.335-2.981-1.277-4.523-1.479L49.833,109.874z M70.139,110.23c0.266-0.013,0.529,0.099,0.737,0.383
	c0.698,0.958,0.827,1.847,0.341,2.326c-0.665,0.657-1.725,0.397-2.203-0.537C68.517,111.429,69.344,110.269,70.139,110.23z
	 M153.893,111.562l0.026,1.49c0,0-0.318,0.383-0.655,0.697c-0.952,0.889-2.254,2.306-2.347,2.667
	c-0.302,1.175,0.862,1.606,2.009,0.743c0.396-0.298,0.967-0.751,0.967-0.751v1.835c-0.969,0.821-1.934,1.628-3.255,1.362
	c-0.771-0.234-1.446-0.839-1.587-1.61c-0.551-2.312,1.692-3.602,3.434-5.148C153.045,112.348,153.893,111.562,153.893,111.562z
	 M60.438,112.862h0.128c1.394,0,2.525,1.126,2.525,2.517s-1.132,2.52-2.525,2.52s-2.524-1.129-2.524-2.52
	C58.041,114.031,59.104,112.93,60.438,112.862z M111.143,113.428c1.376-0.006,2.104,1.844,0.997,2.892
	c-0.436,0.411-1.418,0.704-1.975,0.317C108.631,115.57,109.761,113.498,111.143,113.428z M108.396,114.895
	c0.797,0.843,1.399,3.292,0.931,3.755c-1.038,1.069-4.054-2.487-3.874-4.812C105.773,112.444,108.102,114.583,108.396,114.895z
	 M71.492,113.56c0.577,0.003,0.686,0.52,0.555,0.824c-0.124,0.29-0.575,0.313-0.935,0.166
	C70.502,114.3,70.788,113.556,71.492,113.56z M60.565,113.776c-0.887,0-1.605,0.717-1.605,1.603c0,0.885,0.719,1.603,1.605,1.603
	c0.888,0,1.606-0.718,1.606-1.603C62.172,114.493,61.453,113.776,60.565,113.776z M48.545,114.48
	c3.046,0.004,6.258,2.397,3.464,2.872c-2.074,0.353-3.419-0.057-5.034-1.529c-0.821-0.748-0.529-1.146,0.965-1.312
	C48.14,114.489,48.342,114.48,48.545,114.48z M60.565,114.48c0.497,0,0.9,0.402,0.9,0.898c0,0.495-0.403,0.897-0.9,0.897
	s-0.899-0.402-0.899-0.897C59.666,114.883,60.068,114.48,60.565,114.48z M64.782,116.761h0.132c1.394,0,2.525,1.125,2.525,2.516
	s-1.132,2.52-2.525,2.52s-2.525-1.129-2.525-2.52C62.389,117.93,63.449,116.827,64.782,116.761z M114.404,116.888
	c0.721-0.012,1.354,0.123,1.719,0.457c0.447,0.408-0.225,1.191-1.594,1.858c-1.601,0.778-4.392,0.67-4.388-0.171
	C110.148,117.914,112.563,116.919,114.404,116.888z M53.615,117.55c1.399,0.008,1.777,4.339,0.563,6.414
	c-0.631,1.077-1.48,0.357-2.088-1.769C51.593,120.451,52.547,117.544,53.615,117.55z M64.914,117.674
	c-0.887,0-1.605,0.718-1.605,1.603s0.719,1.603,1.605,1.603s1.605-0.718,1.605-1.603S65.801,117.674,64.914,117.674z
	 M117.236,117.956c0.119,0.002,0.27,0.062,0.47,0.159c1.528,0.749,2.639,4.244,1.843,5.803c-0.839,1.641-2.725-1.519-2.708-4.537
	c0.005-0.987,0.069-1.385,0.345-1.421L117.236,117.956z M49.646,118.181h0.098c1.381,0.034,2.386,1.94,1.086,2.919
	c-0.569,0.429-1.445,0.496-1.982,0.154c-1.059-0.672-1.002-2.308,0.101-2.879C49.184,118.252,49.42,118.19,49.646,118.181z
	 M64.914,118.378c0.497,0,0.9,0.403,0.9,0.898c0,0.496-0.403,0.898-0.9,0.898s-0.9-0.402-0.9-0.898
	C64.014,118.781,64.417,118.378,64.914,118.378z M55.48,118.681c0.756,1.122,3.819,4.087,4.244,4.343
	c-1.354-0.438-2.747-0.252-4.14-0.066C55.742,121.932,55.908,120.248,55.48,118.681z M104.707,118.936
	c20.765,4.851,33.44,26.838,28.429,47.464c0,0-1.748-0.974-2.024-1.439c0.734-3.569,1.187-9.223,0.268-14.907
	c-1.559-9.642-9.392-23.791-26.551-28.644C104.639,120.785,104.707,118.936,104.707,118.936z M115.896,119.087
	c0.234,1.41,0.461,2.832,0.809,4.101c-1.462-1.049-3.119-1.949-4.815-2.678C113.102,120.256,114.207,120.042,115.896,119.087z
	 M121.883,119.54c0.827-0.021,1.668,0.566,1.649,1.583c-0.008,0.447-0.486,1.251-0.857,1.439c-1.38,0.703-2.796-0.636-2.188-2.066
	C120.76,119.854,121.318,119.555,121.883,119.54z M69.716,120.085c1.394,0,2.525,1.126,2.525,2.517s-1.132,2.52-2.525,2.52
	s-2.524-1.129-2.524-2.52S68.322,120.085,69.716,120.085z M69.716,120.999c-0.887,0-1.605,0.718-1.605,1.603
	s0.719,1.603,1.605,1.603s1.606-0.718,1.606-1.603S70.603,120.999,69.716,120.999z M26.75,121.239
	c10.316,6.076,19.572,18.999,20.259,33.613l-2.498-1.629c-1.075-9.844-6.126-20.554-17.843-29.333
	C26.668,123.891,26.698,122.945,26.75,121.239z M83.882,121.239h13.336v2.868l3.999-2.056v6.345l-3.999-2.416v2.768H83.882v-2.91
	l-4.085,1.97l0.047-6.313l4.038,2.265V121.239z M69.716,121.703c0.497,0,0.9,0.402,0.9,0.898s-0.403,0.897-0.9,0.897
	s-0.899-0.401-0.899-0.897S69.219,121.703,69.716,121.703z M74.961,122.207h0.05l0.159,0.913l-0.078-0.004
	c-0.887,0-1.605,0.718-1.605,1.603s0.719,1.603,1.605,1.603c0.215,0,0.419-0.04,0.605-0.116l0.155,0.917
	c-0.24,0.076-0.495,0.116-0.761,0.116c-1.393,0-2.524-1.129-2.524-2.52C72.567,123.371,73.627,122.273,74.961,122.207z
	 M105.084,122.524h0.132c1.394,0,2.525,1.125,2.525,2.516c0,1.194-0.837,2.191-1.955,2.45l-0.151-0.906
	c0.683-0.184,1.187-0.804,1.187-1.544c0-0.885-0.719-1.603-1.605-1.603l-0.108,0.004l-0.155-0.906L105.084,122.524z
	 M122.791,123.376c3.114,0.017,4.406,1.801,1.854,2.559c-1.182,0.351-2.729,0.164-4.258-0.512
	C119.111,124.86,120.867,123.365,122.791,123.376z M57.699,123.546c0.754-0.003,1.482,0.113,2.021,0.368
	c1.301,0.615,1.271,1.033-0.121,1.834c-1.94,1.117-6.513-0.014-5.132-1.27C55.117,123.889,56.443,123.551,57.699,123.546z
	 M75.092,123.82l0.202,0.023l0.279,1.634c-0.14,0.088-0.304,0.14-0.481,0.14c-0.496,0-0.899-0.402-0.899-0.898
	S74.596,123.82,75.092,123.82z M105.224,124.142c0.493,0.005,0.892,0.405,0.892,0.898c0,0.391-0.251,0.721-0.601,0.844
	L105.224,124.142z M110.716,124.784c1.394,0,2.525,1.126,2.525,2.517s-1.132,2.52-2.525,2.52s-2.524-1.129-2.524-2.52
	S109.322,124.784,110.716,124.784z M61.559,125.419c0.149-0.008,0.319,0.062,0.5,0.209c1.514,1.235,2.268,3.848,1.672,5.791
	c-0.567,1.854-2.927-1.438-2.912-4.064C60.824,126.144,61.109,125.444,61.559,125.419z M126.938,125.64
	c0.209,0.002,0.43,0.16,0.648,0.522c0.939,1.562,0.896,4.787-0.078,5.791c-0.553,0.57-0.759,0.462-1.334-0.7
	C125.189,129.265,125.932,125.632,126.938,125.64z M110.716,125.698c-0.887,0-1.605,0.718-1.605,1.603s0.719,1.603,1.605,1.603
	c0.888,0,1.606-0.718,1.606-1.603S111.604,125.698,110.716,125.698z M63.564,126.128c1.906,1.2,3.857,2.296,5.888,3.209
	c-1.899-0.448-3.304,0.188-4.751,1.045C64.979,128.797,64.438,127.508,63.564,126.128z M120.855,126.467
	c1.421,0.2,2.828,0.433,4.477,0.123c-0.305,1.395-0.412,2.814-0.277,4.268C123.828,129.273,122.461,127.788,120.855,126.467z
	 M110.716,126.402c0.497,0,0.9,0.402,0.9,0.898s-0.403,0.897-0.9,0.897s-0.899-0.401-0.899-0.897S110.219,126.402,110.716,126.402z
	 M59.542,127.258c1.168,0.572,1.202,1.986,0.065,2.726c-1.429,0.929-3.292-0.702-2.4-2.103
	C58.002,126.933,58.554,126.94,59.542,127.258z M115.781,128.074c1.395,0,2.525,1.126,2.525,2.517s-1.131,2.52-2.525,2.52
	c-1.393,0-2.524-1.129-2.524-2.52S114.389,128.074,115.781,128.074z M130.553,128.497c0.243-0.005,0.496,0.05,0.748,0.182
	c0.898,0.47,1.087,1.658,0.373,2.354c-0.791,0.769-1.869,0.637-2.401-0.294C128.666,129.676,129.498,128.517,130.553,128.497z
	 M106.197,128.868c12.429,4.222,20.752,18.02,18.746,31.304l-1.551-1.464c1.182-7.527-2.962-21.911-16.804-27.815L106.197,128.868z
	 M115.781,128.988c-0.887,0-1.605,0.718-1.605,1.603s0.719,1.603,1.605,1.603c0.888,0,1.606-0.718,1.606-1.603
	S116.669,128.988,115.781,128.988z M115.781,129.692c0.497,0,0.9,0.402,0.9,0.898s-0.403,0.897-0.9,0.897
	c-0.496,0-0.899-0.401-0.899-0.897S115.285,129.692,115.781,129.692z M68.525,129.852c0.634,0.056,1.704-0.059,1.955,0.538
	c0.282,0.755-1.269,2.059-3.235,2.314c-0.801,0.048-2.517,0.251-2.878-0.325C64.027,131.66,66.343,129.873,68.525,129.852z
	 M29.069,130.293c1.68-0.074,3.573,2.169,1.873,3.998c-1.36,1.405-4.146,3.321-4.146,3.321v-1.23c0,0,2.729-1.992,2.773-2.888
	c0.006-1.041-0.853-1.628-1.812-1.003c-0.189,0.124-0.938,0.731-0.938,0.731l0.062-2.063
	C27.389,130.604,28.286,130.327,29.069,130.293z M71.989,130.819c1.245,0.047,4.134,4.49,3.397,5.399
	c-0.582,0.721-2.928-0.877-3.809-2.594c-0.473-0.921-0.331-2.563,0.24-2.779L71.989,130.819z M91.197,131.357
	c0,0,0.129,10.338-0.453,11.314c-2.335,4.217-7.375,2.021-7.805-1.139c-0.311-1.905-0.124-10.156-0.124-10.156L91.197,131.357z
	 M91.935,131.357h8.053c0,0-0.036,14.552-0.361,15.386c-0.264,0.68-1.434,1.852-2.168,2.172c-2.365,1.031-4.894-0.432-5.52-3.193
	C91.486,143.73,91.935,131.357,91.935,131.357z M100.662,131.357h5.345c0,0,0.184,0.771,0.396,1.404
	c0.371,1.106,1.631,4.277,1.777,4.472c0.652,0.869,0.685,10.382,0.038,11.465c-2.357,3.527-6.28,2.501-7.715-1.405
	C100.144,146.041,100.662,131.357,100.662,131.357z M106.896,131.717c9.586,4.544,16.923,14.179,16.004,26.542l-1.761-1.753
	c0.643-8.533-5.867-19.199-13.464-22.369L106.896,131.717z M120.096,132.008c1.393,0,2.524,1.125,2.524,2.516
	s-1.132,2.52-2.524,2.52c-1.395,0-2.525-1.129-2.525-2.52S118.701,132.008,120.096,132.008z M129.552,132.263
	c0.938,0.014,2.084,0.337,2.94,1.041c1.023,0.843,1.166,1.51,0.372,1.754c-1.534,0.472-3.377,0.015-4.534-1.122
	C127.256,132.878,128.182,132.243,129.552,132.263z M120.096,132.921c-0.888,0-1.606,0.718-1.606,1.603s0.719,1.603,1.606,1.603
	c0.887,0,1.605-0.718,1.605-1.603S120.982,132.921,120.096,132.921z M69.584,133.122c1.346,0.008,1.962,1.896,0.932,2.853
	c-0.424,0.393-1.577,0.477-2.08,0.151C67.055,135.231,67.864,133.113,69.584,133.122z M87.361,133.603
	c-0.445,1.277-1.161,2.719-1.754,3.704c-1.587,2.642-1.381,4.412,0.295,5.307c2.461,1.313,4.249-2.213,1.823-3.596
	c-0.851-0.485-0.851-0.491-0.543-1.8C87.566,135.584,87.634,133.637,87.361,133.603z M120.096,133.625
	c0.496,0,0.899,0.402,0.899,0.898s-0.403,0.898-0.899,0.898c-0.497,0-0.9-0.402-0.9-0.898S119.599,133.625,120.096,133.625z
	 M95.992,134.145c-0.113-0.008-0.027,0.649-0.035,1.815c-0.014,1.882-0.172,2.454-1.377,4.978c-1.539,3.223-1.334,5.425,0.574,6.139
	c1.481,0.555,2.923-0.576,2.932-2.303c0.005-0.822-0.363-1.467-0.927-1.634c-0.511-0.032-1.075-0.271-1.036-0.515
	C96.437,140.701,98.107,137.076,95.992,134.145z M127.838,134.403c1.246,0.782,2.527,1.524,4.383,1.618
	c-0.791,1.891-0.71,3.272-0.842,4.78C130.586,138.771,129.36,136.525,127.838,134.403z M32.758,134.697
	c0.1-0.001,0.2,0.006,0.299,0.02c1.191,0.186,2.197,1.707,1.877,2.842c-0.279,0.989-0.366,1.156-4.2,3.712
	c-2.128,1.418-2.351,1.479-2.351,1.479l-1.141-0.767c0,0,0.965-0.643,2.494-1.668c2.941-1.974,3.375-2.443,3.072-3.325
	c-0.329-0.958-1.43-0.757-3.17,0.581c-2.574,1.979-2.843,2.109-2.843,2.109v-1.181c0,0,1.129-0.896,1.618-1.316
	C29.607,136.336,31.257,134.713,32.758,134.697z M108.943,135.213c0.289-0.004,0.512,0.266,0.411,0.522
	c-0.048,0.123-0.218,0.202-0.442,0.201c-0.462-0.003-0.486-0.657-0.027-0.72L108.943,135.213z M134.796,136.586
	c0.544,1.863-0.626,4.968-1.343,5.365c-0.764,0.754-1.242,0.034-1.407-1.916C132.051,138.453,133.865,133.509,134.796,136.586z
	 M104.142,135.541c0.233,2.684,0.318,4.912-0.942,7.092c-1.636,2.826-1.211,5.249,0.539,5.783c1.742,0.532,3.283-0.713,2.975-2.404
	c-0.094-0.518-0.807-1.363-1.241-1.475c-0.536-0.138-0.6-0.469-0.295-1.533c0.592-2.061,0.393-4.671-0.5-6.557
	C104.595,136.166,104.267,135.531,104.142,135.541z M110.006,136.436c1.471,0.008,2.164,1.916,1.063,2.923
	c-0.613,0.561-1.004,0.306-1.646-1.068C108.829,137.015,109.013,136.431,110.006,136.436z M123.699,136.826
	c1.393,0,2.524,1.126,2.524,2.517s-1.132,2.52-2.524,2.52c-1.395,0-2.525-1.129-2.525-2.52S122.305,136.826,123.699,136.826z
	 M123.699,137.74c-0.888,0-1.606,0.718-1.606,1.603s0.719,1.603,1.606,1.603c0.887,0,1.605-0.718,1.605-1.603
	S124.586,137.74,123.699,137.74z M123.699,138.444c0.496,0,0.899,0.402,0.899,0.898c0,0.495-0.403,0.897-0.899,0.897
	c-0.497,0-0.9-0.402-0.9-0.897C122.799,138.847,123.202,138.444,123.699,138.444z M112.865,139.106
	c0.206-0.009,0.406,0.026,0.594,0.116c1.33,0.642,1.184,2.479-0.283,3.576c-0.93,0.694-1.322,0.454-2.188-1.339
	C110.518,140.487,111.751,139.153,112.865,139.106z M35.768,139.315c0.136,0.004,0.263,0.024,0.385,0.058
	c1.371,0.377,2.239,1.974,1.896,3.187c-0.756,1.87-3.316,2.499-5.26,3.282l-1.009-0.735c0,0,1.425-0.808,2.809-1.444
	c1.296-0.595,1.505-0.832,1.408-1.583c-0.189-1.467-0.899-1.414-4.12,0.317c-1.31,0.704-2.272,1.328-2.272,1.328l-0.714-0.585
	c1.065-0.7,1.706-1.088,2.87-1.881c1.944-1.329,3.054-1.9,3.867-1.939L35.768,139.315z M138.191,140.401
	c0.469,1.423-0.487,2.669-1.928,2.11c-0.781-0.303-1.336-1.301-0.851-2.225C136.061,139.273,137.877,139.449,138.191,140.401z
	 M109.289,139.908l2.269,4.067c0,0,0.03,1.132,0.051,1.762c0.087,2.642,0.653,3.515,2.203,3.259c0.11-0.018,0.663-0.178,0.663-0.178
	l0.985,1.656c0,0-1.065,0.465-1.342,0.523c-1.825,0.382-4.352-0.986-4.744-2.814C108.994,146.414,109.289,139.908,109.289,139.908z
	 M34.953,141.58c0.686,0.05,0.395,0.572,0.078,0.743c-1.333,0.677-2.593,1.414-3.984,2.214l-0.931-0.576c0,0,0.719-0.4,1.214-0.705
	C32.855,142.32,34.408,141.602,34.953,141.58z M126.146,142.103c1.394,0,2.525,1.125,2.525,2.516s-1.132,2.521-2.525,2.521
	s-2.525-1.13-2.525-2.521S124.753,142.103,126.146,142.103z M115.464,142.447c0.581-0.017,1.065,0.232,1.381,0.755
	c0.674,1.116-0.04,2.481-1.676,3.208c-0.913,0.406-1.065,0.322-2.04-1.118c-0.659-0.974-0.654-1.148,0.073-1.769
	C114.019,142.828,114.806,142.466,115.464,142.447z M26.843,142.668l36.163,23.367l-1.032,1.75l-35.062-22.903L26.843,142.668z
	 M134.296,142.97c2.197,0.042,5.065,2.581,4.05,3.584c-0.108,0.106-0.317,0.187-0.466,0.179
	C134.743,146.547,131.279,142.912,134.296,142.97z M126.146,143.016c-0.887,0-1.605,0.718-1.605,1.603
	c0,0.886,0.719,1.603,1.605,1.603s1.605-0.717,1.605-1.603C127.752,143.733,127.033,143.016,126.146,143.016z M77.85,143.461
	l0.959,2.485L60.811,174.54l-1.77-1.135L77.85,143.461z M126.146,143.721c0.496,0,0.899,0.402,0.899,0.897
	c0,0.496-0.403,0.898-0.899,0.898c-0.497,0-0.9-0.402-0.9-0.898C125.246,144.123,125.649,143.721,126.146,143.721z M132.756,144.019
	c0.881,1.636,2.35,2.638,4.019,3.341c-1.576,1.298-2.369,2.981-2.308,4.741C134.066,149.458,133.721,146.83,132.756,144.019z
	 M37.61,144.882c0.386,0.003,0.733,0.083,1.009,0.271c3.373,2.307,0.275,4.588-0.012,4.409l-1.148-0.724
	c0.395-0.653,1.291-1.539-0.151-2.365c-0.818-0.356-1.73,0.071-2.524,0.623l-1.207-0.824
	C33.576,146.271,35.939,144.869,37.61,144.882z M117.151,146.187c0.127-0.004,0.251,0.003,0.372,0.026
	c1.904,0.367,1.771,2.384-0.217,3.317c-1.132,0.532-1.332,0.424-2.32-1.27C114.523,147.466,115.924,146.227,117.151,146.187z
	 M37.002,146.926c0.202,0.005,0.461,0.182,0.492,0.348c0.098,0.529-0.885,1.061-0.885,1.061l-1.129-0.746
	C35.963,147.322,36.467,146.963,37.002,146.926z M138.431,147.409c0.276-0.021,0.478,0.108,0.559,0.438
	c0.386,1.566-1.358,4.472-2.968,4.943c-0.939,0.274-1.211-0.166-0.903-1.464C135.551,149.504,137.446,147.486,138.431,147.409z
	 M80.1,147.529l2.929,2.121l-17.571,27.715l-3.041-1.804L80.1,147.529z M127.915,147.754c1.394,0,2.525,1.125,2.525,2.516
	s-1.132,2.521-2.525,2.521s-2.525-1.13-2.525-2.521S126.521,147.754,127.915,147.754z M127.915,148.667
	c-0.887,0-1.606,0.718-1.606,1.603c0,0.886,0.72,1.603,1.606,1.603s1.606-0.717,1.606-1.603
	C129.521,149.385,128.802,148.667,127.915,148.667z M127.915,149.372c0.497,0,0.899,0.402,0.899,0.897
	c0,0.496-0.402,0.898-0.899,0.898s-0.899-0.402-0.899-0.898C127.016,149.774,127.418,149.372,127.915,149.372z M87.539,149.465
	c1.906,2.146,4.05,6.942,11.528,4.68c2.548,2.071,6.067,3.251,10.403,0.952l0.031,12.929l-33.207,0.035L87.539,149.465z
	 M26.889,149.794l32.703,21.479l-1.023,1.804l-31.71-20.225L26.889,149.794z M118.699,149.813l0.081,0.007
	c1.672,0.408,1.86,2.076,0.307,2.714c-0.832,0.342-1.002,0.257-1.796-0.909c-0.316-0.466-0.496-0.852-0.45-0.968
	C116.952,150.371,118.23,149.808,118.699,149.813z M139.684,151.578c0.585,0.004,1.166,0.313,1.439,0.921
	c0.409,0.914,0.173,1.681-0.672,2.188c-1.396,0.84-2.959-0.702-2.234-2.206C138.509,151.875,139.1,151.574,139.684,151.578z
	 M119.207,153.332c0.771,0.004,1.418,0.738,1.043,1.184c-0.248,0.297-0.568,0.211-0.977-0.259
	C118.793,153.705,118.765,153.329,119.207,153.332z M128.582,153.653c1.394,0,2.525,1.125,2.525,2.516s-1.132,2.52-2.525,2.52
	s-2.525-1.129-2.525-2.52S127.188,153.653,128.582,153.653z M135.696,153.792c1.903,0.011,4.54,3.184,4.092,4.924
	c-0.146,0.568-1.214,0.262-2.482-0.712C135.592,156.688,134.481,153.786,135.696,153.792z M128.582,154.566
	c-0.887,0-1.605,0.718-1.605,1.603s0.719,1.603,1.605,1.603s1.605-0.718,1.605-1.603S129.469,154.566,128.582,154.566z
	 M134.699,154.892c0.525,1.536,1.063,3.136,3.437,4.246c-3.683,1.712-4.385,4.595-3.832,8.291l-0.861-0.526
	C134.231,163.591,134.829,159.819,134.699,154.892z M128.582,155.271c0.497,0,0.9,0.402,0.9,0.898s-0.403,0.898-0.9,0.898
	c-0.496,0-0.899-0.402-0.899-0.898S128.086,155.271,128.582,155.271z M128.113,159.316c1.394,0,2.524,1.125,2.524,2.516
	c0,0.879-0.451,1.654-1.136,2.105l-0.814-0.607c0.603-0.23,1.031-0.815,1.031-1.498c0-0.885-0.719-1.603-1.605-1.603
	c-0.845,0-1.534,0.652-1.599,1.479l-0.818-0.611C126.013,160.066,126.977,159.316,128.113,159.316z M139.602,159.637
	c1.202,0.007-0.666,3.332-2.381,4.239c-1.307,0.689-2.502,0.744-2.498,0.112C134.731,162.335,137.768,159.627,139.602,159.637z
	 M128.113,160.934c0.496,0,0.899,0.402,0.899,0.898s-0.403,0.898-0.899,0.898c-0.494-0.055-0.895-0.441-0.9-0.898
	C127.213,161.336,127.616,160.934,128.113,160.934z M139.215,163.965c0.591,0.009,1.178,0.264,1.427,0.763
	c0.322,0.644,0.199,1.22-0.392,1.804c-1.452,1.434-3.428-0.039-2.479-1.847C138.029,164.193,138.623,163.956,139.215,163.965z
	 M134.571,165.315c2.022,0.063,3.554,2.574,3.188,3.995c-0.32,0.376-2.549-1.311-2.789-1.482
	C134.686,167.324,134.669,166.511,134.571,165.315z M131.813,166.872c2.157,1.444,4.274,2.729,6.338,3.801l-6.322,4.053
	L131.813,166.872z M75.375,168.753l34.045,0.124l0.004,1.428l-34.979,0.02L75.375,168.753z M73.986,170.986h2.289v2.783h-3.143
	v-1.537L73.986,170.986z M106.701,171.052h2.754v2.783h-2.754V171.052z M79.677,171.071h3.135v2.783h-3.135V171.071z
	 M86.197,171.095h3.387v2.783h-3.387V171.095z M93.125,171.095h3.259v2.783h-3.259V171.095z M100.084,171.142h3.104v2.782h-3.104
	V171.142z M71.736,174.57l37.762,0.09v1.668l-38.84-0.089L71.736,174.57z M103.955,178.086c3.845-0.043,6.085,4.239,3.08,7.246
	c-2.763,2.764-7.37-0.767-5.07-3.875c1.285-1.736,4.442-0.337,3.654,1.514c-0.52,1.218-2.221,0.649-2.168-0.67
	c0.002-0.53-0.39-0.168-0.435,0.395c-0.058,0.714,0.677,1.504,1.532,1.506c2.23,0.005,2.564-2.945,0.415-4.029
	c-1.921-0.968-3.944,0.267-4.411,2.717c-0.051,0.268-0.367,0.937-0.608,1.409c-0.71,1.423-0.94,2.245-1.296,3.871
	c-0.163,0.203-0.662,0.527-1.008,0.7c-1.096,0.547-1.051,0.316-0.641-1.463c1.182-5.125,3.113-8.426,5.474-9.097
	C102.987,178.164,103.482,178.091,103.955,178.086z M115.324,178.353c2.373-0.051,4.161,1.9,4.473,3.407
	c1.364,4.588-4.737,7.396-6.864,3.241c-1.188-2.376,1.272-5.21,3.528-4.105c1.846,0.904,1.727,3.715-0.159,3.704
	c-1.024,0.049-1.647-0.87-1.082-1.606c0.293-0.29,0.644-0.063,0.791-0.55c0.062-0.203-0.229-0.365-0.927-0.224
	c-1.158,0.234-1.04,2.563,0.303,3.026c2,0.691,3.709-1.414,2.758-3.495c-1.145-2.503-4.242-2.513-5.66,0.104
	c-0.205,0.381-0.527,0.924-0.705,1.165c-2.114,2.862-2.28,3.291-2.91,4.885c-0.063,0.159-0.173,0.277-0.364,0.256
	c-0.582,0-1.153,0.126-1.544,0.278c-0.264-0.069,0.088-1.073,0.113-1.149C108.514,182.854,112.211,178.461,115.324,178.353z
	 M96.931,179.599c-0.501,0.872-2.009,3.702-3.053,7.885c-0.275-0.171-1.017-0.479-1.552-0.665c-0.203-0.071-0.038-0.305-0.051-0.658
	c0.381-1.887,1.602-5.184,2.948-6.863C95.51,179.087,97.347,179.021,96.931,179.599z M99.083,180.435
	c-1.289,1.644-2.636,6.009-2.917,8.261c-0.042,0.34-0.104,0.717-0.14,0.836c-0.2,0.674-1.464-0.773-1.458-1.668
	c0.01-1.521,1.699-6.154,2.905-7.924c0.42-0.617,0.471-0.719,1.369-0.751C100.286,179.152,99.652,179.71,99.083,180.435z
	 M36.031,179.352c-0.318,0.007-0.635,0.049-0.946,0.123c-1.867,0.463-4.093,2.438-4.31,4.533c-0.102,0.063-0.356,1.528-0.193,2.272
	c0.617,2.812,2.262,4.72,4.274,7.509c0,0-2.528,3.911-4.263,5.717l4.104,5.927c-1.135,2.236-3.108,3.929-3.604,6.688
	c-0.773,3.634,1.133,7.176,5.189,7.502c3.027,0.091,5.013-1.951,5.389-5.044c0.152-2.056-0.695-4.634-3.743-8.709
	c-0.151-0.202-0.446-0.619-0.446-0.619s0.343-0.401,0.523-0.67c1.072-1.447,3.867-4.985,3.867-4.985l-4.178-5.896
	c0,0,0.182-0.396,0.505-0.836c3.409-4.641,4.045-7,3.44-9.306c-0.238-0.908-0.805-1.607-1.571-2.385
	C38.83,179.918,37.411,179.318,36.031,179.352z M35.935,179.92c1.333-0.02,2.707,0.514,3.821,1.676
	c2.562,2.676,2.334,4.938-0.993,9.887c-0.73,1.086-1.447,2.279-1.447,2.279l4.201,5.791c-1.378,1.944-2.945,3.668-4.384,5.717
	c0.729,1.115,1.911,2.307,2.653,3.646c0.897,1.518,1.432,3.031,1.591,4.417c0.335,2.913-1.563,6.018-4.811,6.093
	c-3.15,0.021-5.549-2.599-5.48-5.888c0.031-1.467,0.639-2.821,1.377-4.142c0.756-1.344,2.525-3.956,2.525-3.956l-4.065-5.915
	l4.306-5.736c0,0-3.131-3.826-4.092-6.584c-0.781-3.132,0.682-4.918,0.877-5.19C32.967,180.674,34.425,179.942,35.935,179.92z
	 M33.271,188.229c0.624,1.625,1.642,2.835,2.792,3.989c1.067-1.244,2.258-2.882,2.911-4.443
	C42.121,180.252,29.969,179.639,33.271,188.229z M36.018,191.479c-1.542-1.79-2.631-3.278-2.736-5.64
	c-0.169-4.677,5.957-4.151,5.652,0.029C38.592,188.146,37.395,189.586,36.018,191.479z M111.941,184.128
	c0.118,0.658,0.762,1.772,0.706,2.036c-0.298,0.69-0.732,1.034-1.338,2.171c-0.127,0.243-0.067,0.293-0.407,0.232
	c-0.319-0.045-0.88-0.22-1.18-0.306c-0.171-0.05-0.367-0.143-0.287-0.36C110.018,186.568,110.668,184.979,111.941,184.128z
	 M101.787,186.141l-0.721,1.865c-0.068,0.2-0.076,0.233-0.287,0.189c-0.411-0.052-0.771-0.084-1.18-0.054
	c-0.895-0.109,0.789-3.442,1.042-3.947C101.008,184.256,101.548,185.68,101.787,186.141z M102.466,186.57h0.046
	c0.367,0.047,0.913,0.245,1.319,0.422c0.224,0.092,0.23,0.098,0.132,0.375c-0.207,0.411-0.461,1.595-0.733,2.009
	c-0.008,0.06-1.273-0.751-1.634-0.907C101.582,188.244,101.996,186.633,102.466,186.57z M113.198,186.791
	c0.419,0.015,0.936,0.395,1.218,0.611c0.133,0.263,0.012,0.525-0.453,1.328c-0.412,0.709-0.842,1.475-0.947,1.393
	c-0.313-0.244-0.893-0.562-1.179-0.955c-0.214-0.295,0.192-1.045,0.47-1.456C112.742,187.063,112.952,186.83,113.198,186.791z
	 M106.371,186.696c0.388,0.087-0.226,2.076-0.341,2.324c-0.366,0.546-0.936,1.267-1.389,1.556c-0.231,0.148-0.943-0.276-0.927-0.773
	c0.012-0.354,0.689-2.137,0.914-2.609C104.662,187.124,105.938,186.704,106.371,186.696z M90.58,187.457l0.261,0.004
	c1.521-0.045,3.084,0.704,4.068,2.376c0.466,0.791,0.472,0.825,0.365,1.563c-0.252,1.737-0.165,2.904,0.294,3.968
	c0.523,1.212,0.444,1.628-0.834,4.324c-1.282,2.714-2.839,6.02-4.021,9.085c-0.525,1.313-1.007,2.8-1.308,4.018
	c-0.198,0.766-1.134,0.535-2.067,0.499c-0.475,0.104,0.685-3.082,2.401-6.89c1.374-3.048,3.243-6.481,3.989-9.893
	c0.607-2.78,0.413-3.924,0.079-5.092c-1.286-3.397-5.763-2.564-5.752,0.565c0.096,2.027,2.446,3.114,3.309,1.126
	c0.144-0.913-0.309-0.382-0.687,0.063c-0.811,0.951-2.201-0.106-1.982-1.51c0.287-1.843,2.672-2.449,3.824-0.991
	c1.264,1.597,0.986,3.243-0.838,4.479c-1.878,1.377-3.588,0.595-4.526-0.836C85.152,191.104,87.892,187.54,90.58,187.457z
	 M99.871,188.804c1.864,0.038,3.889,1.598,4.216,2.832c0.176,0.838-0.095,1.824,0.206,2.634c0.249,0.648,0.489,1.021,0.31,1.599
	c-1.534,4.928-5.157,10.183-6.946,16.017c-0.207,0.406-0.396,0.457-0.857,0.589c-0.716,0.203-0.995,0.183-1.07-0.189
	c-0.072-0.355,0.167-1.029,0.585-2.292c0.501-1.513,1.608-4.104,2.258-5.322c1.514-2.838,2.356-4.778,3.456-7.203
	c0.205-0.453,0.264-0.722,0.586-1.375c1.385-2.803-0.18-5.565-3.049-5.581c-2.273-0.013-3.29,3.54-1.3,4.579
	c1.946,1.016,3.398-1.652,1.668-2.598c-0.418-0.228-0.524-0.01-0.19,0.392c0.771,0.924,0.079,2.166-0.992,1.672
	c-1.66-0.766-0.806-3.589,1.132-3.426c2.991,0.252,3.381,4.594,0.33,5.694c-4.194,1.512-6.395-5.227-2.447-7.494
	C98.419,188.954,99.148,188.791,99.871,188.804z M108.707,188.939c1.104-0.028,2.263,0.364,3.215,1.277
	c2.346,2.248,1.721,5.716-2.242,12.425c-1.297,2.249-2.563,4.948-3.254,6.921c-0.172,0.492-0.315,0.741-0.706,0.956
	c-0.687,0.379-1.466,0.426-1.567,0.159c-0.257-0.682,1.706-4.92,5.202-11.578c0.919-1.773,2.08-3.834,2.021-5.945
	c-0.23-1.677-1.627-2.883-3.498-2.334c-1.26,0.369-1.773,2.142-0.846,3.035c0.387,0.373,0.863,0.568,1.171,0.537
	c0.58,0.02,1.239-0.553,0.116-0.615c-1.187-0.006-1.592-1.495-0.589-2.167c1.44-0.967,3.095,0.172,2.979,2.051
	c-0.241,3.778-5.769,3.215-5.915-0.677C104.702,190.576,106.6,188.992,108.707,188.939z M93.086,194.989
	c0.836-0.064-0.602,4.428-3.114,9.468c-1.371,2.791-2.409,5.791-3.476,8.709c-0.289,0.391-2.021,0.463-2.018,0.059
	c3.072-9.822,5.242-11.514,6.292-15.255c0.184-0.646,0.316-1.58,0.342-1.661C91.889,196.087,92.543,195.158,93.086,194.989z
	 M36.222,195.651l-3.255,4.234l3.178,4.498l3.301-4.301L36.222,195.651z M106.693,196.959c-0.002,0.508-0.978,2.949-1.707,4.417
	c-3.188,6.42-3.979,8.151-4.53,9.862c-0.099,0.31-0.261,0.514-0.462,0.589c-0.396,0.147-1.502,0.36-1.594,0.209
	c0.674-3.752,5.834-12.289,6.835-16.029C105.637,195.989,106.66,196.598,106.693,196.959z M109.246,196.568
	c0.215-0.016,0.302,0.072,0.24,0.36c-0.1,0.465-0.656,1.56-1.625,3.46c-2.686,5.268-4.094,8.387-4.543,9.99
	c-0.104,0.376-0.169,0.671-0.349,0.767c-0.369,0.196-1.66,0.716-1.722,0.155c0.403-2.381,1.975-3.93,6.039-13.857
	c0.189-0.326,0.356-0.485,0.535-0.515C108.322,196.847,108.755,196.609,109.246,196.568z M98.229,198.199
	c-0.103,0.612-0.807,1.896-1.97,4.269c-1.937,3.945-3.189,6.886-3.949,9.495c-0.123,0.424-0.293,0.869-0.458,0.982
	c-0.314,0.218-1.726,0.151-1.726,0.151c-0.214-1.079,1.488-5.102,3.386-9.332c1.032-2.302,2.229-4.595,3.031-6.659
	C97.094,197.188,98.153,197.715,98.229,198.199z M101.103,197.183c0.574-0.006,0.129,0.958-1.247,3.671
	c-1.116,2.201-2.896,5.289-4.046,8.837c-0.3,0.781-0.653,1.753-0.784,2.16c-0.168,0.526-0.326,0.786-0.543,0.894
	c-0.414,0.207-1.418,0.195-1.594-0.02c-0.28-0.34,1.205-4.334,2.653-7.4c1.277-2.577,2.177-4.646,3.281-7.029
	c0.302-0.474,0.315-0.506,0.622-0.567C100.084,197.677,100.744,197.251,101.103,197.183z M36.276,197.695l1.675,2.236l-1.966,2.443
	l-1.638-2.377L36.276,197.695z M36.023,207.345c0,0-0.711,0.818-1.442,2.113c-2.142,3.558-2.2,6.183,0.325,7.742
	c1.066,0.541,2.455,0.423,3.332-0.341c2.86-2.49,0.734-5.91-1.113-8.229C36.635,207.949,36.023,207.345,36.023,207.345z
	 M36.129,208.254c1.072,1.263,1.857,2.211,2.571,3.798c0.822,2.132,0.295,3.808-1.296,4.595c-2.514,1.244-4.8-1.55-3.607-4.533
	C34.682,209.903,36.129,208.254,36.129,208.254z M106.52,212.466c0.235,0.448-23.926,6.025-41.749,1.238l-10.846,15.661
	l62.613-0.107L106.52,212.466z M105.604,213.577c0,0,5.82,10.053,8.678,14.976h-4.016l-5.721-12.224
	c-3.061,0.852-6.078,1.467-9.139,1.854l2.036,10.37h-3.006l-1.699-9.909c-4.386,0.338-8.853,0.466-13.413,0.337l-1.967,9.572h-3.146
	l2.017-9.507c-3.462-0.466-6.908-0.905-10.426-1.482l-5.9,10.989h-4.441l9.259-13.791
	C78.542,217.529,91.289,216.878,105.604,213.577z M103.416,218.973l4.538,9.58h-8.596l-1.583-8.547L103.416,218.973z
	 M66.617,219.669l7.513,0.972l-1.939,7.912H62.043L66.617,219.669z M91.146,220.85l1.032,7.703H79.23l1.439-7.552L91.146,220.85z"/>
<path d="M49.103,26.943c-7.348,10.492-15.21,16.529-15.341,24.715c-0.044,2.651,1.388,7.156,5.871,8.019
	c2.908,0.557,6.913-1.8,6.996-6.589c-0.013-0.953,1.009-0.929,0.999,0.378c-0.138,3.777-1.331,8.175-3.338,11.755
	c3.208,0,6.417,0,9.625,0c-2.007-3.58-3.201-7.978-3.338-11.755c-0.01-1.307,1.012-1.331,0.999-0.378
	c0.083,4.789,4.088,7.146,6.996,6.589c4.483-0.862,5.915-5.367,5.871-8.019C64.313,43.473,56.45,37.436,49.103,26.943z"/>
<path d="M131.559,223.45c-7.348-10.492-15.21-16.53-15.34-24.716c-0.045-2.65,1.387-7.155,5.87-8.018
	c2.908-0.557,6.913,1.8,6.997,6.589c-0.014,0.953,1.008,0.929,0.998-0.378c-0.137-3.777-1.331-8.175-3.338-11.755
	c3.209,0,6.417,0,9.625,0c-2.007,3.58-3.201,7.978-3.338,11.755c-0.01,1.307,1.012,1.331,0.999,0.378
	c0.083-4.789,4.088-7.146,6.997-6.589c4.482,0.862,5.914,5.367,5.87,8.018C146.769,206.92,138.906,212.958,131.559,223.45z"/>
</svg>
