<?xml version="1.0" encoding="utf-8"?>
<!-- Generator: Adobe Illustrator 16.0.0, SVG Export Plug-In . SVG Version: 6.00 Build 0)  -->
<!DOCTYPE svg PUBLIC "-//W3C//DTD SVG 1.1//EN" "http://www.w3.org/Graphics/SVG/1.1/DTD/svg11.dtd">
<svg version="1.1" id="Layer_1" xmlns="http://www.w3.org/2000/svg" xmlns:xlink="http://www.w3.org/1999/xlink" x="0px" y="0px"
	 width="178.58px" height="249.45px" viewBox="0 0 178.58 249.45" enable-background="new 0 0 178.58 249.45" xml:space="preserve">
<path fill="#FFFFFF" d="M9.107,0.973h160.777c4.697,0,8.504,3.807,8.504,8.504V241.12c0,4.696-3.807,8.504-8.504,8.504H9.107
	c-4.697,0-8.504-3.808-8.504-8.504V9.477C0.604,4.779,4.41,0.973,9.107,0.973z"/>
<path fill="none" stroke="#000000" stroke-width="0.9967" d="M9.107,0.973h160.777c4.697,0,8.504,3.807,8.504,8.504V241.12
	c0,4.696-3.807,8.504-8.504,8.504H9.107c-4.697,0-8.504-3.808-8.504-8.504V9.477C0.604,4.779,4.41,0.973,9.107,0.973z"/>
<path d="M164.678,209.773c3.129-0.071,4.531-3.739,2.215-6.588c-0.336-0.416-0.371-0.654,0.244-0.255
	c1.56,1.086,4.551,0.372,4.703-2.949c0.189-4.093-5.3-5.271-6.33-0.92c-0.055,0.459-0.413,0.448-0.326-0.203
	c0.094-1.769,0.624-3.422,1.353-5.034c-1.239,0-2.479,0-3.718,0c0.729,1.612,1.259,3.266,1.353,5.034
	c0.087,0.651-0.271,0.662-0.326,0.203c-1.03-4.352-6.52-3.173-6.331,0.92c0.153,3.321,3.145,4.035,4.704,2.949
	c0.615-0.399,0.58-0.161,0.244,0.255c-2.316,2.849-0.913,6.517,2.214,6.588H164.678z"/>
<path d="M14.314,40.823c-3.128,0.07-4.53,3.739-2.214,6.588c0.336,0.415,0.371,0.653-0.244,0.255
	c-1.56-1.087-4.551-0.372-4.704,2.949c-0.188,4.092,5.301,5.271,6.331,0.92c0.055-0.46,0.413-0.449,0.326,0.202
	c-0.094,1.77-0.624,3.423-1.353,5.034c1.239,0,2.479,0,3.718,0c-0.729-1.611-1.259-3.265-1.353-5.034
	c-0.087-0.651,0.271-0.662,0.326-0.202c1.03,4.352,6.52,3.172,6.33-0.92c-0.152-3.321-3.144-4.036-4.703-2.949
	c-0.615,0.398-0.58,0.16-0.244-0.255c2.316-2.849,0.914-6.518-2.214-6.588H14.314z"/>
<polygon points="14.95,35.424 17.594,35.424 13.71,25.707 10.742,29.812 10.763,35.424 12.847,35.424 12.847,38.318 5.503,38.318 
	5.503,35.424 7.922,35.424 7.922,14.527 5.503,14.537 5.503,12.007 12.954,12.007 12.954,14.623 10.898,14.623 10.854,24.808 
	17.358,14.537 15.063,14.537 15.063,12.007 22.99,12.007 22.99,14.537 20.898,14.537 15.543,22.93 20.787,35.429 23.114,35.429 
	23.126,38.323 14.975,38.323 14.949,35.425 "/>
<polygon points="164.041,215.172 161.396,215.172 165.281,224.889 168.248,220.784 168.228,215.172 166.144,215.172 
	166.144,212.277 173.487,212.277 173.487,215.172 171.068,215.172 171.068,236.068 173.487,236.059 173.487,238.589 
	166.036,238.589 166.036,235.974 168.092,235.974 168.137,225.789 161.632,236.059 163.928,236.059 163.928,238.589 156,238.589 
	156,236.059 158.092,236.059 163.447,227.666 158.203,215.168 155.876,215.168 155.864,212.273 164.016,212.273 "/>
<path fill="#E2CF00" d="M128.799,21.662l-65.364,0.32l8.301,15.873c16.988-1.543,31.876-0.171,47.386,0.34L128.799,21.662z
	 M84.158,77.468c-0.068,0.093-2.72,0.784-2.449,1.391c6.922,14.957,10.013,27.127,12.904,42.499
	c1.461-1.197,3.824-1.149,3.824-1.149c-1.166-5.708,5.965-6.42,6.011-0.447c1.369,0.32,2.776,0.325,4.013,1.72
	c0.555-16.798,6.527-34.178,14.24-46.221c-8.789,3.511-21.686,12.262-21.686,12.262S90.283,83.048,84.158,77.468L84.158,77.468z
	 M137.586,79.257c-11.699,11.207-16.277,42.316-15.438,42.745c-15.079-0.508-19.649,16.268-6.578,25.313
	c-0.517,1.754-1.794,3.182-2.782,4.731c1.348,0.779,2.82,0.945,4.29,1.108c1.116,1.335,2.213,2.875,3.425,3.002
	c1.314-0.836,2.25-2.06,3.345-3.117c1.366-0.351,2.722-0.739,4.019-1.337c-1.148-1.617-2.51-3.252-2.545-4.767
	c11.364-8.085,9.805-19.078-0.44-24.706c3.052-18.515,7.504-30.342,12.671-38.752L137.586,79.257z M57.018,93.561
	c-1.486,0.731-2.298,2.276-3.376,3.488c-1.48,0.067-2.906,0.578-4.317,1.213c0,0,3.391,4.725,3.181,4.979
	c-10.992,7.265-10.902,17.883-0.349,24.877c1.789,15.111-10.938,39.025-11.58,38.33l-0.022,4.944
	c9.057-9.987,14.229-28.027,14.745-42.595c18.086-1.215,18.727-18.847,6.275-25.479c-0.957-0.886,3.131-4.983,3.131-4.983
	c-1.037-1.031-2.773-1.148-4.294-1.274C59.452,95.904,58.616,94.751,57.018,93.561z M133.514,105.763
	c2.558,5.74,11.899-1.254,13.521,1.801c1.315,1.731,4.182,1.909,4.026-1.009c-0.539-2.89-2.424-3.53-9.904-2.271
	c-2.838,0.478-4.002,0.761-3.984-0.544C135.209,101.348,133.525,104.601,133.514,105.763z M142.19,114.139
	c-2.098-0.002-2.454,8.272-2.424,10.757c-6.072,9.676,12.456,8.576,4.443-1.965c0.279-1.377-1.021-3.623-0.985-4.616
	C142.568,118.23,142.279,114.494,142.19,114.139z M33.741,126.618c-0.192,2.503,1.626,10.098,2.301,9.841
	c2.374-3.858,2.092-7.158,1.847-10.927C43.544,114.553,24.229,119.059,33.741,126.618z M68.995,128.384
	c-0.844,16.161-4.768,32.018-13.659,45.769c7.653-3.6,15.082-8.244,22.27-12.221l16.798,10.492c0.973-0.427,1.646-0.636,2.291-1.279
	c-7.74-11.424-10.136-27.867-13.509-42.741c-1.283,0.918-3.697,1.379-3.697,1.379c-0.172,5.159-5.535,6.831-6.631,0.103
	L68.995,128.384z M28.453,140.992c-1.792,0.114-3.14,4.59,1.936,5.253c3.582,0.511,8.169-1.269,10.444-0.444
	c2.646,4.258,5.021-2.01,1.484-3.032c-3.798-1.099-11.532,1.768-12.388-0.668C29.49,141.269,28.954,140.96,28.453,140.992z
	 M58.919,210.993l-10.134,18.063l64.79-0.394l-8.469-17.229C105.251,211.242,76.809,214.846,58.919,210.993z"/>
<path fill="#D40000" d="M72.748,39.583l1.284,2.351c15.175-2.523,27.126-2.917,42.825,0.144l1.434-2.448
	C103.961,37.023,89.346,35.947,72.748,39.583z M87.063,74.987l13.243,8.646c0,0,6.342-4.522,9.046-6.436l-1.642-2.433
	c-5.601,12.461-15.446,2.606-19.138-3.257C88.572,71.508,87.57,73.778,87.063,74.987z M122.633,79.171
	c0.917-0.021,1.426,0.337,1.887,1.279c0.521,1.064,0.72,0.803,0.385-0.525c-0.527-2.093,1.675-3.455,3.75-2.058
	c1.499,1.009,1.434,3.451-0.204,3.903c-1.323,0.365-1.356,0.716-0.195,0.658c2.085-0.103,2.639,2.704,1.155,4.076
	c-1.705,1.578-3.879,0.46-4.077-1.519c-0.091-0.56-0.208-0.552-0.392-0.235c-0.526,0.913-0.574,2.101-0.473,3.175l-3.079-1.928
	c1.097-0.548,1.765-0.879,2.558-1.71c0.104-0.108,0.182-0.188,0.18-0.234c-0.001-0.085-0.343,0.028-0.97,0.095
	c-1.86,0.195-3.292-1.021-2.911-2.789C120.571,79.855,121.343,79.199,122.633,79.171z M109.053,127.942
	c3.35-3.867,7.51-6.35,13.291-6.003c0.734-16.204,6.303-30.614,15.221-43.597l-9.811-5.952l-3.936,2.396
	C114.753,88.394,108.559,105.531,109.053,127.942z M35.524,90.076c0,0-6.641,5.02-9.726,7.444l0.148,44.684l0.857,0.296
	c0.062,0.096-0.074-0.662,0.319-1.009c0.321-0.283,0.831-0.604,1.134-0.716c0.854-0.313,0.892-0.888,0.095-1.385
	c-0.618-0.385-0.854-0.98-0.782-1.97c0.05-0.698,0.021-0.851-0.268-1.325c-0.359-0.59-0.389-1.335-0.084-2.108
	c0.142-0.358,0.128-0.455-0.125-0.94c-0.321-0.617-0.359-1.283-0.12-1.999c0.091-0.274,0.157-0.873,0.149-1.335
	c-0.033-1.78,1.423-2.961,4.111-3.333c1.052-0.146,1.084-0.189,0.602-1.079c-2.723-5.02,3.395-7.635,3.852-6.831L35.524,90.076z
	 M119.306,92.568c2.484-0.036,4.529,1.964,4.565,4.473c0.035,2.508-1.95,4.571-4.436,4.608c-2.484,0.036-4.529-1.969-4.564-4.477
	C114.835,94.665,116.82,92.604,119.306,92.568z M119.348,93.379c-1.99,0.029-3.577,1.68-3.549,3.688
	c0.029,2.008,1.664,3.615,3.653,3.586s3.581-1.684,3.553-3.691C122.976,94.952,121.338,93.35,119.348,93.379z M119.441,94.533
	c1.349-0.021,2.461,1.066,2.48,2.428c0.02,1.362-1.061,2.484-2.41,2.504c-1.35,0.021-2.457-1.07-2.477-2.432
	C117.016,95.671,118.092,94.553,119.441,94.533z M30.118,96.398c0.184-0.003,0.378,0.025,0.575,0.088
	c1.122,0.36,1.514,1.356,0.906,2.301c-0.477,0.742-0.422,0.806,0.413,0.493c0.656-0.247,0.991-0.169,1.509,0.349
	c1.553,1.551-0.759,4.159-2.278,2.579c-0.753-0.782-0.824-0.552-0.303,0.792c0.169,0.436,0.448,1.112,0.448,1.112l-2.229-0.033
	c0,0,0.347-0.896,0.506-1.319c0.386-1.019,0.398-1.168-0.405-0.526c-1.813,1.445-3.868-1.028-2.2-2.646
	c0.339-0.329,0.884-0.344,1.641-0.043c0.553,0.219,0.619,0.066,0.204-0.459C28.004,97.942,28.838,96.422,30.118,96.398z
	 M76.3,100.403c-0.906,5.987-0.115,14.392-0.135,18.882c2.416,0.465,2.443,2.125,2.814,4.19c1.174-0.413,3.741,1.337,4.093,1.184
	C83.34,118.583,80.21,100.947,76.3,100.403z M116.387,106.404c3.43,0.277,2.772,2.951,1.751,4.05
	c-0.483,0.563-0.395,0.816,0.137,0.492c1.448-0.884,2.599-0.245,3.065,1.276c0.797,2.6-2.588,4.839-4.098,2.505
	c-0.512-0.79-0.824-0.611-0.699,0.216c0.077,0.797,0.849,2.449,0.849,2.449l-3.365-0.305c0,0,1.028-1.727,1.209-2.191
	c0.374-0.965,0.177-1.222-0.542-0.444c-2.105,1.944-5.021-0.545-3.662-3.122c0.67-1.27,1.905-1.681,3.24-0.669
	c0.898,0.593,1.093,0.336,0.289-0.383C113.058,108.936,114.367,106.241,116.387,106.404z M30.281,108.526l0.115-0.001
	c0.288,0.005,0.59,0.086,0.892,0.257c0.836,0.475,1.065,1.411,0.541,2.226c-0.302,0.468-0.214,0.764,0.137,0.457
	c0.47-0.41,1.505-0.137,1.909,0.502c1.038,1.64-0.99,3.786-2.284,2.421c-0.571-0.604-0.79-0.628-0.724-0.231
	c0.186,0.743,0.67,2.011,0.67,2.011l-2.33,0.041c0,0,0.503-1.333,0.615-2.01c0.085-0.535-0.126-0.458-0.682,0.175
	c-0.539,0.615-1.031,0.679-1.719,0.219c-1.699-1.137-0.338-4.054,1.433-3.073c0.61,0.338,0.696,0.143,0.219-0.494
	C28.222,109.889,29.091,108.585,30.281,108.526z M151.279,107.484c-3.772,3.935-2.59,1.609-0.84,4.608
	c0.006,1.978,1.149,3.524,0.243,6.646c-0.29,0.61-0.315,0.9-0.157,1.514c-0.276,3.448-3.012,3.403-5.673,3.938
	c0.441-0.029,4.216,7.009-2.826,7.56l0.08,28.612l11.041-8.216l-0.048-44.662H151.279z M68.426,122.591
	c-3.131,2.036-7.528,7.125-13.059,6.02c-0.67,17.851-6.474,31.671-14.753,43.548c2.858,1.706,6.005,3.753,8.929,5.065
	c2.471-1.286,3.859-1.823,6.285-3.838C65.781,157.867,68.938,140.901,68.426,122.591z M94.416,125.855
	c0.559,9.168,2.037,17.851,6.762,24.815l0.32-19.483c-1.685-0.407-3.063-1.506-3.555-4.621L94.416,125.855z M60.269,131.265
	l3.157,0.075c0,0-0.717,1.44-1.026,2.246c-0.377,0.983-0.198,1.185,0.522,0.5c0.937-0.89,2.43-0.973,3.216-0.178
	c2.087,2.109-0.096,5.548-2.563,4.039c-1.057-0.646-1.233-0.429-0.395,0.485c1.631,1.527-0.072,3.727-1.979,3.736
	c-1.379-0.006-2.271-1.118-2.38-2.343c-0.053-0.771,0.331-1.544,0.993-1.92c0.691-0.393,0.196-0.646-0.555-0.239
	c-2.45,1.331-4.09-2.087-2.241-4.032c1.066-1.122,2.195-1.018,3.279,0.054c0.757,0.747,1.028,0.681,0.814-0.203
	C60.896,132.49,60.269,131.265,60.269,131.265z M145.494,133.947l2.262,0.003c-0.223,0.564-0.51,1.141-0.689,1.699
	c-0.195,0.608-0.053,0.687,0.547,0.098c1.559-1.057,3.223,0.001,2.884,1.675c-0.233,1.154-1.191,1.721-2.298,1.219
	c-0.976-0.441-0.662-0.252-0.107,0.422c0.66,0.801,0.492,1.736-0.381,2.355c-1.544,1.096-3.582-0.725-2.561-2.313
	c0.602-0.944,0.326-0.843-0.223-0.386c-0.822,0.608-2.066-0.252-2.092-1.445c-0.094-1.715,1.621-2.681,2.831-1.467
	c0.576,0.49,0.72,0.43,0.459-0.282C145.888,135.008,145.811,134.454,145.494,133.947z M145.615,146.424l2.371-0.027
	c0,0-0.033,0.184-0.398,0.876c-0.43,0.813-0.363,1.655,0.084,1.084c0.757-0.964,2.363-0.695,2.89,0.483
	c0.613,1.373-0.582,2.891-1.823,2.313c-0.807-0.375-0.861-0.294-0.326,0.487c0.521,0.761,0.291,1.695-0.557,2.241
	c-1.665,1.073-3.661-1.068-2.274-2.438c0.372-0.367,0.255-0.546-0.195-0.299c-1.839,1.008-3.194-1.499-1.604-2.967
	c0.677-0.625,1.194-0.582,2.307,0.194c0.347,0.241,0.413-0.008,0.164-0.62C145.826,146.707,145.615,146.424,145.615,146.424z
	 M57.605,147.925c2.639-0.039,4.807,2.087,4.845,4.75c0.038,2.664-2.067,4.855-4.706,4.895s-4.811-2.091-4.849-4.754
	C52.857,150.151,54.967,147.964,57.605,147.925z M57.66,148.785c-2.168,0.032-3.9,1.829-3.869,4.017
	c0.031,2.188,1.814,3.938,3.982,3.905c2.168-0.031,3.9-1.832,3.869-4.021C61.611,150.499,59.827,148.754,57.66,148.785z
	 M57.705,150.307c1.334-0.02,2.43,1.056,2.449,2.402s-1.045,2.457-2.379,2.477c-1.335,0.02-2.435-1.059-2.454-2.406
	C55.302,151.433,56.37,150.326,57.705,150.307z M51.699,161.991l2.758,1.361c0,0-1.305,1.071-1.823,1.623
	c-0.663,0.711-0.618,1.044,0.278,0.704c1.708-0.648,3.419,0.322,3.451,2.112c0.043,2.388-2.756,3.538-4.1,1.729
	c-0.4-0.538-0.877-0.762-0.69-0.322c0.455,1.069,0.177,2.415-0.615,2.968c-0.635,0.443-1.796,0.573-2.381,0.267
	c-2.014-1.053-2.118-3.395-0.192-4.319c0.969-0.466,1-0.901,0.048-0.661c-1.982,0.498-3.139-1.924-1.709-3.588
	c1.519-1.766,3.992-1.4,4.267,1.213c0.048,0.465,0.362,0.128,0.502-0.584C51.661,163.965,51.699,161.991,51.699,161.991z
	 M77.409,165.92c0,0-10.101,5.801-9.793,6.046l2.239,3.131c5.01-11.461,17.011-1.97,18.934,3.882
	c0.416,0.259,0.487,0.185,0.941,0.39c0.042-0.413,0.875-4.477,0.875-4.477L77.409,165.92z M60.854,208.236l-1.627,2.34
	c-0.563,0.241,25.179,4.641,45.482,0.171l-1.404-2.691C86.769,212.313,60.597,208.537,60.854,208.236z"/>
<path fill="#131F67" d="M24.189,20.035v210.525h130.614V20.035H24.189z M63.351,21.663l65.577-0.255l-12.12,20.944
	c0.116-1.104-23.565-4.487-42.92-0.358L63.351,21.663z M26.035,22.153h35.662l12.024,21.73c0,0,0.706,1.358,0.284,2.778
	c-0.46,1.55-0.855,2.238-1.27,3.029c0.041-0.451-3.466-0.898-3.172,2.131c0.198,2.052,2.771,3.212,4.686,1.615
	c0.306-0.025,0.303,0.262,0.236,0.762c-0.177,1.176-1.413,4.904-2.261,5.151c-4.317-3.572-5.857,2.952-2.946,4.253
	c1.685,0.753,4.275,0.131,5.487-1.914c0.927-1.563,0.823-1.306,1.116,0.593c0.107,0.706,0.262,1.524,0.34,1.892
	c0.248,1.15,0.001,1.374-1.918,1.896c-1.543,0.606-3.108,0.941-4.7,1.289c-2.909,0.481-4.396,2.697-4.47,5.393
	c-0.016,0.583,0.005,0.853-0.119,1.026c-12.31,4.715-25.259,11.313-38.98,22.582V22.153z M107.898,73.833
	c-0.467-0.761-1.957-4.757-2.366-6.425c-1.068-8.083-1.271-17.68-2.413-25.204l1.504,0.17c0,0,0.566,2.179,1.174,8.065
	c0.302,2.918,0.617,8.983,0.868,11.772c0.38,4.143,2.234,10.769,3.384,12.441c1.874,2.728,5.641,0.963,4.381-2.275
	c-0.653-1.681-3.185-1.408-2.834,0.335c0.007,0.312,0.24-0.223,0.611-0.55c1.094-0.418,2.324,0.73,1.682,2.114
	c-0.797,1.767-3.156,0.96-3.939-1.267c-0.936-2.659,2.215-4.653,4.572-3.031c2.625,1.807,2.631,6.388,0.516,7.834
	C111.479,79.123,109.06,76.506,107.898,73.833z M116.695,77.203c-0.143-0.086,0.005-0.364,0.182-1.025
	c0.657-2.472,0.243-4.401-1.342-6.22c-0.883-1.013-1.215-1.19-0.752-1.374c0.979-0.39,3.146,1.197,3.74,2.758
	c0.588,1.533,0.734,3.117-0.092,4.85C117.855,76.563,116.961,77.309,116.695,77.203z M119.377,75.557
	c-0.002-0.289,0.19-1.202,0.234-1.648c0.172-1.725-0.627-3.476-2.041-4.845c-1.187-1.149-1.296-1.268-0.173-1.287
	c2.896-0.049,4.744,4.678,3.407,7.006C120.461,75.151,119.411,75.906,119.377,75.557z M121.83,73.957
	c0.853-4.03-3.009-6.716-3.087-6.59c0.192-0.903,1.727-0.384,2.249-0.032c1.951,1.322,3.074,4.78,1.876,6.745
	c-0.13,0.241-0.29,0.38-0.501,0.51c-0.402,0.256-0.641,0.461-0.723,0.282C121.583,74.736,121.807,74.149,121.83,73.957z
	 M87.859,60.884c0.403-0.399,0.524-0.411,1.3-0.115c2.43,0.926,4.37-0.834,3.796-2.683c-0.207-0.67-1.117-1.396-1.678-1.455
	c-0.915-0.096-0.934,0.392,0.053,0.764c1.213,0.457,1.335,1.756,0.268,2.341c-1.254,0.854-3.307-1.313-4.813-1.131
	c-0.719,0.218-1.18,0.896-0.769,1.727C86.338,60.913,87.42,61.266,87.859,60.884z M85.165,60.619
	c-0.843-0.395-1.163-0.388-1.003-1.315c0.106-0.61,0.969-4.721,1.379-6.31c1.229-4.758,0.074-7.395-3.404-8.458
	c-2.357-0.721-4.387-0.355-6.789,0.934l-0.432-1.345c10.069-2.659,27.254-2.069,27.193-1.967c0.339,1.368,0.469,2.736,0.602,4.104
	c0,0-3.221-1.595-4.9-2.125c-2.588-0.801-6.678,0.077-7.402,1.576c-0.41,0.851-0.197,1.417,1.542,0.473
	c2.846-1.547,8.657-0.368,10.705,1.271c0.472,0.378,0.448,0.46,0.458,0.903c0.014,0.676,0.053,0.715-0.879,0.212
	c-4.885-2.521-9.058-2.228-10.498,1.081c-0.331-0.102-1.598-0.321-1.598-0.321l1.359,2.029l0.259,2.125c0,0,2.222,1.244,3.447,1.771
	c1.205,0.516,0.511-0.033-0.968-1.072c-1.087-0.764-0.223-1.008,0.494-0.716c1.474,0.342,3.629,0.775,6.123-0.823
	c0.775-0.497,2.549-0.066,2.576,0.159c0,0,0.236,1.857,0.471,5.733c0.111,1.834,0.335,4.229,0.462,5.213
	c0.384,2.971,0.494,3.14-1.055,1.715c-0.52-0.478-1.386-1.271-1.396-1.224c-0.196,0.922,2.088,2.54,2.62,3.095
	c0.808,0.843,1.456,3,1.132,3.128c-0.204,0.081-2.375-1.776-4.083-3.447c-0.64-0.626-1.594-1.466-1.62-1.437
	c-0.354,0.237,1.081,1.871,2.425,3.094c1.567,1.426,1.749,1.553,1.222,1.768c-0.973,0.397-1.849-0.097-4.212-2.068
	c-0.229-0.191-1.124-0.832-1.167-0.786c-0.215,0.29,1.965,2.373,2.459,2.553c0.92,0.332,1.185,1.229,0.459,1.581
	c-0.483,0.234-2.287-0.764-3.733-2.028c-0.259-0.227-0.979-0.612-1.026-0.561c-0.287,0.187,1.33,1.598,2.873,2.535
	c1.51,0.918,1.752,1.145,1.367,1.907c-0.359,0.786-3.674-1.033-5.332-2.908c-0.353-0.398-0.631-0.57-0.561-0.436
	c0.722,2.021,3.098,3.468,4.865,4.044c0.316,0.104,0.773,0.233,0.979,0.398c0.503,0.403,0.392,0.823-0.153,1.06
	c-1.885,0.534-4.858-1.771-6.984-4.185c-0.246-0.103-0.1,0.214-0.035,0.318c1.773,2.856,5.171,5.03,7.216,4.625
	c1.196-0.237,2.157,0.126,2.166,0.531c0.008,0.331-0.651,0.86-1.938,0.953c-2.909,0.209-7.455-3.004-10.114-7.096
	c-0.083-0.127-0.182-0.174-0.188-0.097c-0.072,0.867,1.581,2.994,2.85,4.211c3.768,3.615,7.329,4.836,10.107,2.8
	c1.566-1.226,3.08-3.904,0.747-4.8c-1.235-0.474-2.018,1.243-0.96,0.753c1.389-0.168,1.703,0.575,1.522,1.274
	c-0.354,1.199-1.531,1.391-2.489,0.886c-1.667-0.911-1.313-4.034,0.845-4.58c1.944-0.474,3.642,1.189,3.864,2.769
	c0.347,2.451-2.395,5.104-4.592,5.765c-7.496,2.251-13.351-8.262-13.385-8.5c-0.376-0.73-0.828-1.117-1.113-0.266
	c-0.307,1.233-1.999,4.85-2.904,4.827c0.282-1.275,1.469-3.42,1.181-5.298c-0.501,1.542-1.556,4.834-3.573,6.587
	c-0.523,0.48-2.059,1.047-1.002-0.19c1.275-1.81,2.945-4.285,2.6-6.609c-0.339,0.522-0.523,1.845-0.91,2.718
	c-0.969,2.186-3.086,4.779-4.484,5.2c-1.031,0.31-0.936-0.042,0.121-1.165c1.133-1.204,3.139-4.739,3.007-6.264
	c-0.058-0.673-2.081,5.822-5.884,7.601c-1.027,0.379-1.611-0.099-1.611-0.099c1.495-0.869,5.625-4.979,5.235-9.646
	c0,0-0.221,0.691-0.546,1.728c-1.4,4.456-4.408,7.386-6.754,7.628c-1.871,0.194-3.178-0.568-2.714-0.904
	c2.427,0.018,4.422-0.829,5.979-3.217c1.584-2.427,2.174-6.325,1.215-10.452c-0.865-3.722-1.057-7.068-1.358-10.646
	c2.659,0.917,5.335,1.527,7.924,0.506c-0.26,1.066-0.692,1.198-1.375,2.003c-0.495,0.589-0.326,0.729,1.608-0.65
	c0.563-0.401,0.766-0.723,0.867-0.615c0.165,0.174-0.092,1.271-0.654,3.459c-0.842,3.271-0.623,3.506,2.491,4.739
	c0.581,0.229,0.798,0.455,1.001,0.699c0.096,0.115,0.606,1.044,0.654,1.076c0.114,0.077,0.084-0.946,0.021-1.205
	c-0.167-0.688-0.535-1.203-0.857-1.407C86.611,60.931,85.73,60.88,85.165,60.619z M143.949,103.289l0.031-3.396l3.27,2.341
	l-0.041,1.121L143.949,103.289z M138.361,104.027l-0.119-62.826c0,0,2.509-1.683,3.763-2.517c0.784,2.491,0.778,7.832,0.484,10.211
	c-0.491,1.549-0.71,8.442-0.153,11.95c0.444,2.796,0.363,7.421-0.057,9.634c-0.163,0.865-0.037,4.918,0.271,8.668
	c0.234,2.865,0.167,5.471-0.176,6.962c-0.271,1.175-0.177,5.386,0.131,7.001c0.454,2.376,0.531,10.01,0.328,10.425
	C142.295,104.151,138.079,104.237,138.361,104.027z M143.333,38.279c0,0,2.526,1.686,3.745,2.527l0.018,2.707l-3.652-2.406
	L143.333,38.279z M105.609,42.653l1.563,0.099c0.623,3.271,0.893,6.99,1.141,10.719c0.079,5.749,0.782,11.812,2.119,15.786
	l-1.148,1.216c-1.957-4.554-2.111-11.738-2.547-16.601C106.545,48.403,105.654,42.688,105.609,42.653z M143.637,42.08l3.398,2.322
	l0.035,2.943l-3.425-2.293L143.637,42.08z M107.864,42.869l1.373,0.151c0.417,3.884,1.058,6.52,1.301,10.799
	c0.315,5.534,1.267,10.078,1.856,14.401l-1.027,0.345c-0.688,0.319-1.83-4.789-2.338-15.145
	C108.876,50.287,108.351,46.763,107.864,42.869z M109.94,43.016l1.64,0.296c0.725,9.833,1.87,19.066,3.07,24.358l-1.426,0.095
	C111.457,60.202,111.342,51.452,109.94,43.016L109.94,43.016z M112.309,43.364l1.506,0.264c1.813,22.485,2.931,22.195,3.28,23.079
	l-1.63,0.667C113.702,60.913,113.346,51.804,112.309,43.364z M119.148,65.449c-0.258,0.758-0.869,0.688-1.535,0.766
	c-0.746-2.067-1.183-4.53-1.495-6.941c-0.688-5.298-0.936-10.265-1.651-15.493l1.797,0.187
	C116.205,44.006,117.539,62.404,119.148,65.449z M80.484,45.686c2.368,0.115,4.333,1.188,4.522,2.76
	c0.042,0.353-0.235,0.182-0.556-0.067c-2.037-1.575-4.355-2.066-7.154-1.05c-0.61,0.222-1.109,0.57-1.383,0.522
	c-0.244-0.158-0.32-0.541-0.133-0.856C76.434,45.893,79.312,45.629,80.484,45.686z M74.991,48.84
	c0.051,2.477-0.546,3.842-1.834,4.414c-1.554,0.69-3.546-0.789-2.577-2.443c0.731-1.251,1.989-0.874,2.229,0.44l1.974-4.437
	C74.783,46.814,74.986,48.22,74.991,48.84z M147.1,48.442l-0.021,2.553l-3.643-2.458l0.242-2.454L147.1,48.442z M82.475,48.109
	c1.795,0.718,2.453,1.595,2.52,1.984c-0.104,0.29-0.282,0.092-1.593-0.622c-2.019-1.249-4.649-1.453-6.96,0.133
	c-0.576,0.115-0.636-0.215-0.059-0.842C78.145,47.371,80.576,47.352,82.475,48.109z M96.104,47.632
	c1.579-0.05,3.467,0.354,5.062,1.162c0.705,0.356,1.338,0.579,1.797,0.99c0.367,0.193,0.396,1.035,0.127,1.099
	c-0.24,0.034-0.633-0.155-1.221-0.569c-3.789-2.483-6.515-2.178-8.705-0.649c-0.122,0.085-0.498,0.172-0.647,0.16
	c-0.417-0.031-0.438-0.204-0.265-0.433C93.266,48.235,94.781,47.678,96.104,47.632z M143.446,49.419l3.651,2.575l-0.002,2.532
	l-3.882-2.724L143.446,49.419z M77.547,50.448l0.533,0.016c1.242,3.038,2.801,1.473,3.448,0.255l0.649,0.107
	C81.161,54.896,77.025,52.767,77.547,50.448z M76.639,50.854c0.604,0.073,0.582,0.762,0.771,1.264
	c0.422,1.12-1.18,0.172-1.453-0.101C75.492,51.522,76.152,50.904,76.639,50.854z M94.709,50.734
	c1.573,2.417,2.481,0.986,3.379-0.066l0.428,0.139c-0.113,1.734-3.008,3.585-4.381-0.029L94.709,50.734z M99.549,51.008
	c0.169,0.003,0.507,0.125,0.817,0.252c0.86,0.351,0.815,0.608-0.138,1.036c-1.524,0.685-2.055,0.773-1.598-0.193
	C98.893,51.66,99.066,51.074,99.549,51.008z M93.568,51.377c0.384,0.284,0.636,0.6,0.68,1.111c0.031,0.361-1.159-0.055-1.156-0.63
	C93.129,51.492,93.325,51.196,93.568,51.377z M83.02,51.515c0.783,0.292,0.689,0.668,0.145,1.009
	c-0.979,0.551-1.398,0.442-0.766-0.423C82.69,51.701,82.754,51.522,83.02,51.515z M143.201,52.788l3.954,2.805l-0.035,2.576
	l-3.95-2.718C142.986,54.348,143.159,53.605,143.201,52.788z M74.875,56.774c0.188,0.005,0.262,0.63,0.306,1.545
	c0.073,1.521-1.46,3.638-3.011,4.366c-1.866,0.879-3.865-0.353-3.53-2.178c0.308-1.683,2.676-1.752,2.766-0.198
	c-0.23,0.409,0.093,0.751,0.225,0.716c0.608-0.165,2.045-1.47,2.63-2.929c0.227-0.568,0.365-1.153,0.528-1.286L74.875,56.774z
	 M143.096,56.3l3.95,2.909l0.018,2.559l-3.918-2.72C142.991,57.907,143.059,57.094,143.096,56.3z M95.156,60.352
	c-0.299,0.507-0.054,1.414,0.559,0.641c1.574-1.849,3.854,0.466,2.635,1.936c-1.107,1.335-2.47,0.905-5.347-0.203
	c-2.095-0.808-2.426-0.532-2.942,0.051c-0.425,0.48-0.209,1.447,0.342,1.436c1.699,0.39,3.17,0.769,4.928,1.138
	c3.715,0.769,5.981-4.062,2.587-5.837C97.105,59.087,95.425,59.639,95.156,60.352z M78.758,60.908
	c-1.449,1.311-0.261,4.757,1.873,5.065c0.446,0.064,1.113,0.046,1.87-0.175c1.492-0.435,3.137-1.326,3.204-1.846
	c0.307-2.358-3.173-0.243-3.634,0.036c-1.097,0.673-2.258,0.586-2.843-0.213c-1.318-1.8,1.045-3.864,2.479-1.663
	c0.362,0.556,0.235-0.386-0.16-1.025C80.99,60.186,79.55,60.244,78.758,60.908z M143.356,60.165l3.714,2.649l-0.021,2.463
	l-3.6-2.619L143.356,60.165z M143.635,63.772l3.517,2.553l0.061,2.561l-3.69-2.452C143.594,65.512,143.61,64.646,143.635,63.772z
	 M123.918,65.243c3.092,0.051,4.836,4.662,3.206,6.581c-0.485,0.57-0.872,0.724-1.093,0.511c-0.047-0.046,0.031-0.562,0.063-1.145
	c0.101-1.858-0.291-3.131-1.639-4.543C123.445,65.589,123.063,65.261,123.918,65.243z M85.844,65.978
	c-0.585,0.21-1.202,0.636-1.681,0.531c-0.473-0.104-0.698,0.132-0.884,0.506c-0.708,1.431-0.488,1.894,0.914,1.081
	c0.666-0.385,0.898-0.247,2.681,0.093c1.272,0.242,2.14,0.218,3.26-0.075c1.393-0.365,2.224-0.394,2.928-0.004
	c0.705,0.389,1.187,0.924,1.205,0.488c-0.079-0.511-0.521-1.817-0.622-2.251c-0.049-0.209-0.396-0.025-0.723-0.001
	c-1.155,0.084-2.532-0.964-3.424-0.41c-0.715,0.444-0.809,0.561-1.788-0.02C86.98,65.484,86.476,65.751,85.844,65.978z
	 M123.087,66.299c2.093,1.765,2.63,3.33,2.427,4.615c-0.104,0.935-0.173,1.967-1.08,2.529c-0.168,0.08-0.417,0.13-0.648,0.165
	c0.704-2.655-0.126-5.032-3.086-7.568C121.561,65.609,122.438,65.754,123.087,66.299z M75.862,66.294
	c0.093,0,0.195,0.016,0.299,0.05c0.364,0.121,0.421,1.08,0.135,1.381s-0.517,0.053-0.849-0.71
	C75.201,66.6,75.459,66.296,75.862,66.294z M73.929,67.041c0.765-0.016,1.054,0.69,1.186,1.254c0.111,0.479-0.029,1.912-0.436,1.412
	c-0.097-0.303-0.513-1.282-0.845-1.536C73.094,67.604,73.168,67.057,73.929,67.041z M71.776,67.753
	c0.112-0.004,0.255,0.011,0.429,0.04c1.193,0.201,2.107,2.118,1.83,3.206c-0.631,1.17-0.865,0.382-1.074-0.68
	c-0.162-0.439-0.651-1.129-0.951-1.484C71.389,68.096,71.292,67.767,71.776,67.753z M143.533,67.195l3.634,2.629l0.005,2.813
	l-3.803-2.58C143.454,69.073,143.497,68.13,143.533,67.195z M69.416,68.336c1.779-0.031,3.299,2.092,2.738,4.104
	c-0.696,2.101-4.16,1.652-3.586-0.441c0.166-0.603,0.803-1.043,1.411-0.666c0.878,0.545,0.781-0.342,0.224-0.656
	c-0.86-0.485-2.044-0.191-2.308,0.791c-0.919,3.426,3.442,4.594,5.817,1.055c0.867-1.294,1.813-2.678,2.334-3.268
	c0.468-0.53,0.568-0.475,0.492,0.209c-0.303,3.183-2.501,7.16-6.625,6.942c-4.007-0.384-5.26-4.675-2.233-7.354
	C68.246,68.621,68.799,68.347,69.416,68.336z M90.65,68.51c-1.467,0.717-2.795,0.987-4.238,0.354
	c-1.067-0.469-1.051,0.04-0.587,0.458c1.341,1.151,3.778,0.631,4.823-0.018C90.987,69.093,91.099,68.483,90.65,68.51z
	 M147.178,73.597l0.012,2.559l-4.057-2.742c-0.064-0.612,0.004-1.543,0.138-2.504L147.178,73.597z M143.268,74.451l3.863,2.567
	l0.102,2.536l-3.753-2.349L143.268,74.451z M143.537,78.008l3.689,2.576l0.054,2.769l-3.655-2.428L143.537,78.008z M53.553,80.919
	l-2.259,6.887l1.479,0.09l0.999,1.816l1.025-1.861l1.556-0.119L53.553,80.919z M143.691,81.838l3.556,2.467l0.054,2.557
	l-3.694-2.578L143.691,81.838z M143.547,84.969l3.646,2.657l0.072,2.717l-4.132-2.779L143.547,84.969z M61.973,86.506l-2.236,7.372
	l1.261-0.173l1.181,1.973l1.191-1.771l1.13,0.064L61.973,86.506z M45.141,87.054l-2.13,7.328l1.428-0.005l1.205,1.848l1.058-1.784
	l1.618-0.043L45.141,87.054z M143.071,88.403l4.279,3.029l0.035,2.884l-4.147-2.804L143.071,88.403z M147.302,95.254l0.048,2.525
	l-3.601-2.586l-0.391-2.805L147.302,95.254z M70.919,95.688l-2.614,7.448l1.754,0.017l1.063,1.788l0.851-1.797l1.409,0.014
	L70.919,95.688z M143.986,96.431l3.34,2.311l-0.025,2.594l-3.289-2.223L143.986,96.431z M80.682,126.569l-1.902-1.846
	c-0.023-0.151,1.556-0.923,2.528-0.432c1.284,0.648,1.944,2.981,0.506,4.21c-1.144,0.978-2.891,0.165-2.925,0.05L80.682,126.569z
	 M78.988,123.525c0.033-2.852-1.454-3.584-2.685-4.161c0,0-0.206-18.07-0.179-18.61c0.001,0.079-0.316-1.957-0.352-2.077
	l-0.295-0.076c0.051,1.832,0.17,20.608,0.141,20.73c-2.303,0.268-2.945,1.841-3.154,3.954c-1.797-0.137-2.965,0.955-3.001,1.136
	c-0.663-0.919-0.169-2.273-0.692-3.233c-1.592,5.619,1.504,8.98,4.205,8.667c0.434,5.395,6.321,6.37,6.121-0.174
	C86.219,129.259,83.807,122.65,78.988,123.525z M45.526,100.84l-2.578,7.297l1.808-0.209l0.658,1.347
	c2.895-2.575,4.356,1.401,2.884-2.009L45.526,100.84z M143.542,113.823c0.333-0.025,0.771,0.277,0.858,0.689
	c0.063,1.232-1.578,0.956-1.63,0.178C142.733,114.138,143.229,113.846,143.542,113.823z M144.613,121.834
	c0.708-0.586,1.834-0.255,1.852,0.628c0.017,0.782-0.872,1.04-1.568,0.601C144.357,122.731,144.324,122.112,144.613,121.834z
	 M144.714,124.005c3.877,0.298,6.762-2.359,5.526-4.268c1.041-1.321,0.191-2.081,0.477-2.838c0.823-0.853,0.135-2.684-0.072-2.69
	c-0.168-2.458-0.875-2.772-1.929-4.082c-0.315-0.38,0.737-0.751,1.143-1.403c-1.239,0.33-1.902-0.3-2.574-1.142
	c-7.181,0.338-13.628,0.844-13.384,10.67c-1.033,4.171,0.717,7.886,5.729,6.738c1.097-0.989,0.374-2.423,0.239-3.112
	c-0.428-1.896,0.066-3.127,0.204-4.015c0.427-2.747,2.421-5.297,2.638-0.991c0.35-0.541,0.185-0.62,0.762-0.845
	c1.376-0.501,1.374,0.903,1.093,1.469c-0.182,0.291-0.455,0.267-0.734,0.234c-0.4-0.049-0.924-0.198-0.932-0.347
	c-0.108,0.447,0.728,1.278,0.641,1.698c-0.111,0.398-0.182,0.365,0.184,0.102c1.728-1.246,2.809,1.54,0.31,1.222
	C145.264,121.068,143.441,123.011,144.714,124.005z M142.157,109.009c1.362-0.07,1.688-0.083,1.624,0.639
	c0.259,1.331,0.59,1.947,2.309,1.809c1.732-0.228,2.281-0.337,0.538,0.72c-0.881,0.392-1.167,0.468-2.21,0.373
	c-1.053-0.096-0.973-0.203-1.572,0.159c-0.336,0.203-0.703,0.449-0.976,0.499c-0.405,0.074-1.117,0.231-1.117,0.231
	c-0.405,2.066-1.021,3.106-1.87,4.089c-1.2,1.377-1.809,1.617-0.337,1.515c0.544,0.034,0.263-0.241,0.5,1.986
	c0.083,0.78,0.228,1.685,0.343,1.988c0.382,1.016,0.434,1.521-1.021,1.592c-3.631,0.277-4.479-3.289-3.995-5.111
	c0.042-0.286,0.208-1.235,0.243-1.988c0.02-0.411-0.063-0.76-0.053-1.18c0.083-3.398,0.882-4.294,3.87-6.503
	C139.334,109.159,140.953,109.022,142.157,109.009z M145.346,109.191c1.677-0.035,3.296,0.777,2.488,1.305
	c-0.522,0.342-2.408,0.2-2.932-0.176C144.227,109.835,144.48,109.21,145.346,109.191z M70.607,112.077l-0.664,1.188
	c0.315,2.591,0.351,3.95-0.57,6.653l1.371,1.814l1.085-1.882l1.707,0.03L70.607,112.077z M148.973,111.525
	c1.086,0.22,1.129,1.22,0.853,1.835c-0.606,1.354-4.667,2.009-4.667,2.009c-0.033-0.581,0.047-1.141-0.375-1.795
	c0,0,2.704-0.714,3.276-1.24C148.441,111.982,148.673,111.537,148.973,111.525z M149.775,114.605
	c0.395,0.005,0.604,0.292,0.71,0.878c0.05,0.313-0.067,0.581-0.319,0.924c-1.032,1.131-3.93,1.914-4.976,1.626
	c-0.074-0.098,0.104-1.288,0.18-1.818C146.764,116.258,149.11,115.01,149.775,114.605z M108.47,121.567
	c-1.384-2.016-4.456-1.721-4.126-1.579c0.021-1.727-0.271-4.098-2.867-4.35c-2.618-0.2-3.964,3.285-2.971,4.762
	c-1.615-0.678-4.039,1.02-4.039,1.179c-0.206,0.007-2.059,4.947,3.546,5.201c0.51,2.332,1.384,3.46,3.175,4.419l0.045,19.034
	l0.632,0.863l0.056-19.946c2.869-0.128,3.223-3.44,3.01-4.204c1.273,0.056,2.431-0.202,3.405-0.952l0.335,3.251
	c0,0,0.673-1.147,0.524-1.756c-1.247-18.692,5.452-38.914,14.247-52.022c0.471-0.55,0.613-1.207,0.847-1.212
	c2.145-1.166,3.499-1.951,3.499-1.951c3.537,1.716,9.854,5.856,9.854,5.856l0.102,26.637c-0.098-0.262,11.769-1.336,11.591-1.013
	c0,0-1.04-0.41-1.056-1.111l-0.309-62.332l-5.191-3.422c0,0-4.269,2.815-5.463,3.777l0.131,36.696l-9.195-5.437
	c0,0,0.147-1.298,0.16-1.719c-0.146-5.008-2.583-6.688-7.22-5.202c-0.622,0.199-1.054,0.373-1.358,0.116
	c-1.952-5.761-2.83-20.899-2.828-20.899l13.087-22.377l22.201-0.123l0.383,85.496l0.804,44.814l-11.331,8.329l-0.165-28.707
	c0,0-1.624-0.783-2.049-0.837c-0.16-0.012-0.366,0.349-0.077,0.534c0.416,0.268,1.44,0.644,1.44,0.644l0.241,28.453
	c0,0-4.405,2.992-6.375,4.238c-3.683,2.035-7.307,3.972-11.108,5.674c-3.746,1.625-12.006,5.092-12.006,5.092
	c-0.717-2.389-7.801-7.971-15.767-4.025c-0.729,0.272-1.632,0.51-2.241,0.937c-3.035,0.56-4.035,3.834-4.494,7.019
	c-0.016,0.126,0.24,0.098,0.249,0.11c0.033,0.046,0.724-3.057,0.997-3.644c0.585-1.253,1.322-2.003,1.713-2.121
	c0.178-0.03,0.333,0.248,0.092,0.689c-0.48,0.878-0.871,2.743-0.987,3.585c-0.104,0.775-0.125,1.399,0.019,1.426
	c0.025,0.024,0.705-2.35,1.011-3.188c0.798-2.186,1.301-3.091,2.068-3.557c0.788-0.479,0.976-0.411,0.819,0.097
	c-1.172,2.308-1.655,4.052-1.885,6.509c-0.035,0.49,0.211,0.504,0.404-0.308c0.643-2.579,1.523-6.068,3.605-7.109
	c0.889-0.405,1.283-0.386,1.188-0.097c-2.479,3.16-3.099,6.671-3.069,7.804c0.01,0.378,0.161,0.303,0.479-0.516
	c0.84-3.115,2.084-5.765,3.562-7.064c0.571-0.503,1.264-0.642,1.843-0.714c1.752-0.22,1.811,0.436,0.287,1.331
	c-1.736,1.021-3.743,4.732-3.967,7.52c-0.076,0.964,0.262,1.068,0.5-0.217c1.029-5.54,5.735-9.202,9.507-7.506
	c1.696,0.763,2.005,1.823,0.527,1.353c-2.99-0.955-6.31,1.184-7.679,4.167c-1.238,2.698-1.212,4.115-0.342,7.729
	c0.594,3.337,1.75,7.601,1.369,10.869c-0.412,0.635-1.71-0.262-3.243-0.452c-0.925-0.175-2.055-0.219-3.021,0.154
	c-0.842,0.325-1.319,0.406-1.476-0.051c-0.05-0.147,0.649-0.866,0.961-1.265c0.498-0.636,0.213-0.737-0.489-0.047
	c-0.344,0.338-1.082,1.129-1.284,1.171c-0.444,0.09-0.462-0.414-0.104-1.698c1.256-4.985,0.92-5.07-1.233-6.08
	c-2.134-0.82-1.459-1.233-2.404-2.05c-0.666,0.525,0.87,2.935,2.607,3.462c1.422,0.431,1.249,1.164,0.626,3.138
	c-0.631,2.762-1.709,6.417-1.085,8.87c1.31,5.153,6.493,5.049,10.464,2.966l0.484,1.313c-3.356,1.372-21.051,2.544-27.015,1.853
	c-0.46-1.626-0.507-2.045-0.693-3.959c0,0,3.684,1.679,5.522,1.97c2.296,0.363,5.832,0.381,6.736-1.753
	c0.277-0.626-0.007-1.154-0.799-0.792c-1.457,0.666-3.945,1.159-5.956,1.033c-1.688-0.104-4.094-0.789-5.134-1.421
	c-0.494-0.301-0.912-0.888-0.524-1.626c0.343-0.077,0.794,0.306,1.062,0.444c3.045,1.551,4.716,1.853,6.702,1.257
	c1.507-0.451,3.536-2.091,3.035-2.557c-0.509,0.179-2.197,1.609-3.361,1.922c-2.396,0.643-4.95-0.342-7.439-1.969
	c-0.769-0.673-0.418-1.163,0.522-0.625c3.729,1.894,5.284,3.15,8.852,0.492c0.797-0.597,1.241-0.521,1.709-0.159
	c1.854,1.675,1.848,0.734,0.49-1.005c-0.309-0.396-0.588-0.949-0.772-1.538c-0.136-0.436-0.167-0.872-0.414-1.158
	c-0.421-0.488-1.179-0.725-2.044-1.109c-1.251-0.556-1.667-0.288-0.744,0.166c1.616,0.795,2.403,1.647,0.396,1.188
	c-1.822-0.823-4.864-0.362-6.585,0.843c-1.351,0.665-1.946,1.377-2.265-0.127c-0.669-3.14-0.018-7.398-0.913-12.878
	c-0.171-1.044-0.38-1.706-0.163-1.85c0.278-0.183,0.972,0.493,1.832,1.712c0.392,0.555,1.17,1.624,1.166,1.401
	c0.029-1.16-1.758-3.337-3.234-4.194c-0.811-0.472-1.361-2.649-0.434-2.17c0.716,0.352,4.441,3.656,5.15,4.835
	c0.329,0.547,0.607,0.197,0.26-0.445c-0.21-0.387-1.086-1.521-1.937-2.359c-1.509-1.487-1.684-1.417-1.394-1.722
	c0.572-0.604,1.801,0.174,3.988,2.172c0.561,0.715,1.303,1.36,1.212,1.005c0.224-0.557-1.967-2.933-3.266-3.569
	c-0.243-0.153-0.276-0.315-0.254-0.611c0.124-1.122,2.638,0.526,4.725,2.451c0.781,0.721,0.134-0.636-0.771-1.558
	c-0.712-0.724-1.858-1.625-2.637-1.934c-0.772-0.321-0.82-1.001-0.215-1.287c2.092-0.089,4.251,2.068,5.538,3.765
	c0.355,0.466,0.681,0.824,0.312-0.058c-1.192-2.655-3.672-4.151-5.39-4.454c-1.395-0.246-1.363-1.518-0.053-1.374
	c1.442,0.158,3.805,1.473,5.807,3.506c0.582,0.592,1.563,1.935,1.36,1.146c-0.005-0.215-0.62-1.056-1.329-1.865
	c-1.638-1.642-3.542-3.093-5.561-3.525c-0.944-0.27-3.745,0.276-3.762-0.214c-0.008-0.362,0.293-0.579,1.185-0.879
	c3.462-1.163,8.53,1.84,11.303,6.455c0.198,0.33,0.573,0.471,0.597,0.396c-1.338-3.772-5.496-7.191-8.804-7.777
	c-2.249-0.364-4.518,0.215-5.596,1.745c-1.214,1.722-0.739,4.025,1.083,3.841c0.956-0.09,0.881-0.637,0.862-0.655
	c-0.064-0.064-0.62,0.199-0.964,0.131c-1.246-0.247-1.116-2.521,0.708-2.297c2.098,0.258,2.394,3.597,0.05,4.299
	c-2.164,0.647-2.956-0.35-3.548-1.532c-0.867-1.732,0.063-4.526,1.592-5.598c4.277-2.998,9.687-0.485,12.744,2.488
	c1.513,1.471,2.617,3.219,3.312,5.104c0.178,0.438,0.56,0.394,0.385-0.058c-4.304-11.091-17.154-12.384-19.034-3.773
	c-3.11-4.922-5.834-5.266-10.001-3.117c-4.252,1.774-6.344,3.221-10.276,5.082l-8.915-4.831c-0.525-8.94-0.227-17.908-0.19-26.86
	c0.026-0.209-1.933,0.143-5.192,0.658c-8.668,1.746-7.924-2.942-9.057-3.179c-0.605-0.122-0.562,0.14-0.727-16.362
	c-0.048-4.793-0.142-13.219-0.212-18.726c-0.069-5.507-0.088-10.094-0.039-10.19c0.048-0.097,0.535-0.519,1.097-0.92
	c2.112-1.511,3.299-2.425,7.92-5.984c1.047-0.807,1.312-0.942,1.312-0.942c0.53,9.914,0.055,20.326,0.315,28.85l0.391,0.002
	l-0.152-28.62C35.33,89.826,54.354,78.59,64.778,74.945c0.195-0.068,0.683,0.15,0.683,0.15c5.983,7.401,21.728,5.16,22.996-3.85
	c2.609,5.492,14.068,16.166,19.305,3.301c0,0,1.897,3.695,3.525,3.939c3.66,0.49,4.065-0.093,12.12-4.036
	C114.198,88.553,109.12,103.484,108.47,121.567z M103.575,118.051c0.201,0.623,0.27,1.428,0.097,2.063
	c-0.235,0.497-0.586,0.49-0.586,0.49l-1.783-1.539l-1.745,1.633c0,0-1.067-1.085-0.481-2.591
	C100.192,116.006,102.748,116.385,103.575,118.051z M149.658,117.803c1.143-0.072,0.552,1.253-1.137,2.151
	c-1.061,0.563-1.939,0.723-2.32,0.52c-0.208-0.623-0.031-1.19,0.099-1.443C147.021,118.657,149,118.002,149.658,117.803z
	 M75.946,120.301c1.268-0.031,2.366,0.88,2.407,2.495c0.017,0.657-0.318,1.31-0.318,1.31l-2.117-1.576l-1.619,1.742
	c-0.275,0.097-1.267-1.15-0.586-2.509C74.209,120.776,75.079,120.322,75.946,120.301z M106.574,121.042
	c1.781,0.815,2.091,3.33,0.357,4.299c-0.823,0.46-2.119,0.717-2.726-0.215l1.751-1.928l-2.011-1.707
	C103.868,121.412,105.486,120.544,106.574,121.042z M149.346,120.381c0.307-0.001,0.385,0.118,0.473,0.407
	c0.251,0.821-0.385,1.648-1.481,1.909c-1.014,0.242-0.917,0.361-1.397-0.553c-0.376-0.716-0.477-0.687,0.112-0.913
	C147.764,120.999,148.524,120.727,149.346,120.381z M98.666,121.614c0,0-1.265,1.297-1.818,1.839l1.903,2.004
	c0.092,0.243-2.194,1.288-3.397-0.288c-0.781-1.022-0.342-2.969,0.768-3.636C97.253,120.851,98.876,121.417,98.666,121.614z
	 M101.391,121.388c1.123-0.017,2.045,0.888,2.062,2.021s-0.879,2.068-2.002,2.085c-1.123,0.016-2.05-0.892-2.065-2.025
	C99.368,122.335,100.268,121.404,101.391,121.388z M73.588,124.843l-1.824,1.928l1.974,2.167c0,0-1.562,0.257-2.116,0.152
	c-2.686-0.507-2.422-3.687-0.346-4.527C72.152,124.253,72.805,124.356,73.588,124.843z M37.779,125.497c0,0,0.358,4.084,0.687,5.479
	c-0.216,1.592-1.235,2.675-1.694,4.31c-0.245,0.727-1.164,1.704-1.342,0.68c-0.663-1.266-0.029-2.83-0.578-3.731
	c-0.42-0.85-0.194-1.326-0.38-2.208c-0.517-0.729-0.761-1.058-0.675-1.705c-0.109-2.887-0.824-2.314-2.094-2.078
	c-4.924,0.428-4.922,3.291-4.619,6.925c-0.699,3.407,0.59,2.601,0.548,3.214c-0.066,0.972,0.091,2.332,0.38,2.482
	c1.757,2.032,1.844,3.44,4.129,3.092c3.866,0.305,10.011-0.275,11.34-5.034C44.309,130.211,44.563,123.837,37.779,125.497z
	 M76.223,124.84c1.084-0.016,1.976,0.857,1.991,1.952s-0.851,1.995-1.935,2.011s-1.976-0.858-1.992-1.953
	C74.271,125.755,75.138,124.855,76.223,124.84z M39.472,125.881c0.731-0.009,1.593,0.146,2.301,0.831
	c1.518,1.469,1.583,2.8,0.91,8.451c-0.189,1.592-0.745,2.923-1.48,3.503c-1.478,1.164-3.286,1.994-4.777,2.364
	c-0.786,0.195-1.47,0.2-2.003,0.195c-0.574-0.004-0.909-0.272-0.952-0.759c0.126-1.315-1.204-1.443-1.976-1.369
	c-1.374,0.055-1.515,0.201-0.657-0.47c0.979-0.765,3.233-0.775,3.662-0.327c0.88-0.889,1.797-0.993,2.919-1.125
	c-0.166-0.246-0.568-1.232-0.302-1.865c0.581-1.031,1.56-2.852,2.586-3.534c1.016-1.341,0.153-0.734-0.478-0.712
	c-0.359,0.014-0.329-0.106-0.388-0.35c-0.251-1.044-0.611-2.996-0.614-4.159C38.221,125.995,38.741,125.89,39.472,125.881z
	 M33.002,127.328c0.396,0.355,0.392,0.853-0.025,1.223c-0.477,0.424-1.424,0.189-1.447-0.606
	C31.592,127.141,32.521,126.913,33.002,127.328z M101.525,130.156c-1.648,0.083-3.005-1.696-2.384-3.469
	c0.341-0.48,0.487-0.411,0.487-0.411l1.876,1.691l1.8-1.9C104.787,127.873,103.515,130.021,101.525,130.156z M30.994,127.402
	c-0.135,0.519,0.043,1.036,0.064,1.288c-0.326,0.235-1.717,0.646-2.463,1.016c-0.519,0.18-0.895-0.312-0.822-0.761
	c0.196-0.836,1.415-1.382,2.3-1.641C30.346,127.237,30.796,127.212,30.994,127.402z M31.299,129.794
	c0.502-0.061,0.354,1.042,0.166,1.605c-0.187,0.403-0.739,0.387-1.236,0.416c-0.877,0.052-1.982,1.073-2.458,0.908
	c-0.157-0.073-0.27-0.493-0.286-0.761C27.587,130.491,30.01,129.951,31.299,129.794z M33.951,131.328
	c-0.168,0.246-0.706,0.365-1.156,0.24c-0.737-0.204-0.851-1.271-0.204-1.639C33.733,129.549,34.42,130.63,33.951,131.328z
	 M106.773,128.896l-1,1.537l-1.52-0.028l2.455,7.605l1.136-2.972c0.153-1.367,0.333-2.73,0.474-4.099L106.773,128.896z
	 M74.447,129.537l1.943,1.601l1.666-1.72c1.24,2.789-0.189,4.066-1.709,4.033C74.671,133.413,72.884,131.81,74.447,129.537z
	 M31.789,132.422c0.615-0.118,0.352,1.562,0.266,1.609c-0.393,0.146-2.087,0.37-2.801,0.978c-1.52,1.201-2.168,0.468-1.465-0.972
	C28.456,133.2,30.906,132.438,31.789,132.422z M33.723,132.502c0.678-0.064,1.152,0.691,0.739,1.412
	c-0.562,0.527-1.547,0.141-1.543-0.604C32.916,132.841,33.3,132.526,33.723,132.502z M32.724,136.762
	c0.093,0.393-0.043,0.271-0.755,0.482c-0.392,0.116-1.008,0.381-1.65,0.708c-0.941,0.479-1.206,0.738-1.54,0.684
	c-0.266-0.059-0.571-0.175-0.654-0.446c-0.327-1.085,0.548-2.191,2.588-2.951c0.424-0.158,1.183-0.286,1.442-0.314
	C32.847,134.926,32.106,135.999,32.724,136.762z M33.929,135.129c0.986-0.014,1.171,1.307,0.434,1.539
	C32.635,137.119,32.781,135.128,33.929,135.129z M32.713,139.995c0.277,0.269,0.316,0.71,0.006,0.939
	c-0.569,0.283-2.757,0.042-2.771-0.578c-0.008-0.408,0.723-0.547,1.402-0.561C32.029,139.783,32.491,139.78,32.713,139.995z
	 M131.465,140.673l-1.803,2.433l2.419,6.111l2.209-7.399l-1.735,0.693L131.465,140.673z M29.494,146.951
	c0.418,18.82,0.347,61.946,0.347,61.946l5.307,3.642l5.587-4.053c-0.057-13.574-0.11-22.938-0.164-35.506l8.188,4.539
	c0,0,0.251,0.365,0.213,2.063c-0.565,4.689,3.928,7.734,6.909,5.883c1.15-0.488,1.243-0.574,1.487-0.208
	c0.67,1.009,1.426,5.329,1.553,8.086c0.189,4.152,1.272,12.62,1.533,12.677l-13.325,22.676H26.035v-84.538
	C27.114,145.441,27.689,146.283,29.494,146.951z M106.815,145.137l-1,1.541l-1.205-0.002l2.114,7.877l2.561-7.702l-1.41-0.177
	L106.815,145.137z M40.094,207.949c0,0-2.593,1.879-3.421,2.418c-0.436,0.165-0.646,0.196-0.75-0.225
	c-0.127-0.516,0.077-1.494,0.258-3.109c0.167-1.494,0.166-1.578-0.08-3.708c-0.257-2.224-0.288-2.316-0.079-5.252
	c0.232-3.274,0.277-6.454,0.02-8.423c-0.244-1.871-0.24-6.139-0.053-8.521c0.229-2.916,0.154-5.476-0.225-7.592
	c-0.675-3.772-0.786-5.071-0.083-7.91c0.263-1.063,0.394-1.627,0.339-3.406c-0.061-1.978-0.098-2.623-0.799-7.002
	c-0.404-2.521-0.435-2.867-0.057-6.856c0.076-0.806,0.103-1.344,0.406-1.599c0.355-0.299,4.054-0.516,4.054-0.516L40.094,207.949z
	 M30.368,147.022l4.028-0.044c-0.311,1.272-0.381,2.241-0.412,3.162l-3.578-2.373L30.368,147.022z M30.428,148.649l3.542,2.334
	c0.004,0.985-0.069,1.924,0.073,2.908l-3.591-2.404L30.428,148.649z M30.434,152.353l3.792,2.616
	c0.147,1.019,0.456,2.049,0.575,2.965l-4.299-2.936L30.434,152.353z M153.025,153.384l0.198,75.313h-37.736l-11.96-23.189
	c0,0,0.121-2.134,0.417-3.222c0.357-1.316,0.453-1.604,0.954-1.666c1.343,0.702,2.84-0.231,3.298-1.258
	c0.563-1.266-0.579-3.18-2.331-3.594c-0.773-0.187-1.617,0.165-2.472,0.822c-0.496,0.418-0.606,0.465-0.705,0.102
	c-0.223-0.819,0.497-3.044,1.785-4.955c0.716-1.062,0.91-1.367,1.142-0.963c0.938,1.634,2.947,1.296,3.71,0.372
	c0.923-1.117,0.729-3.665-1.36-4.34c-4.09-1.321-5.968,2.821-5.916,2.811l-0.876-4.966c4.923-1.218,7.766-1.648,9.329-3.155
	c1.23-1.186,1.817-3.236,1.666-5.06c0,0,13.678-5.607,20.078-9.09C143.268,161.351,153.025,153.384,153.025,153.384z
	 M132.198,153.928l-1.011,1.796l-1.436,0.002l2.903,7.583l2.217-7.917l-1.384,0.125L132.198,153.928z M30.611,156.104l4.344,3.023
	c0.096,0.981,0.221,1.855,0.09,2.968l-4.572-3.053L30.611,156.104z M115.357,155.176l-1.082,1.449l-1.246-0.133l2.443,7.509
	c0.742-2.17,1.419-5.117,2.153-7.29l-1.155,0.056L115.357,155.176z M30.535,159.966l4.495,3.004c0.017,0.929,0.061,1.803-0.26,2.458
	l-4.241-2.746L30.535,159.966z M123.779,160.398l-1.091,2.118l-1.453-0.199l2.599,7.198l2.841-7.131l-1.759,0.095L123.779,160.398z
	 M30.544,163.466l3.896,2.888c0.056,0.042-0.218,1.317-0.155,2.041l-3.707-2.307L30.544,163.466z M30.648,167.037l3.635,2.52
	c0.008,0.955,0.072,1.854,0.222,2.666l-3.945-2.584L30.648,167.037z M30.586,170.678l4.201,3.018l0.223,2.426l-4.451-2.824
	L30.586,170.678z M65.17,171.688c4.031,1.518,7.812,9.255,7.695,19.273c-0.08,6.955,2.001,16.883,1.963,16.768
	c0,0-1.17,0.158-1.501-0.104c-1.519-5.106-2.024-10.503-2.264-14.954c-0.196-3.711-0.408-7.354-0.642-8.204
	c-0.662-2.993-1.38-6.485-3.275-8.761c-1.477-1.715-3.16-2.014-4.166-0.087c-0.824,1.577,0.91,4.188,2.352,3.32
	c0.348-0.197,0.556-0.531,0.1-0.522c-1.496,0.224-2.5-1.863-1.554-2.858c1.667-1.753,4.582,2.151,3.229,4.301
	c-0.596,0.929-2.153,1.093-3.4,0.751c-2.773-1.354-3.469-4.667-2.541-6.851C61.874,172.096,63.428,171.102,65.17,171.688z
	 M60.293,172.684c0.327,0.016,0.104,0.625-0.199,1.576c-0.713,2.279,0.625,5.82,2.478,6.526c0.556,0.382,0.526,0.526,0.155,0.737
	c-1.21,0.686-3.405-1.372-3.984-3.664c-0.42-1.658-0.316-3.615,0.474-4.445c0.432-0.454,0.774-0.693,1.008-0.726L60.293,172.684z
	 M30.543,174.027l4.486,2.959c0.208,0.924,0.116,1.908-0.023,2.901l-4.49-3.157L30.543,174.027z M57.613,173.99
	c0.332-0.011,0.208,0.552,0.115,1.578c-0.214,2.379,0.517,4.107,2.181,5.544c0.702,0.605,0.895,0.795,0.593,1.113
	c-0.43,0.451-1.659-0.153-2.623-1.169c-1.767-1.857-2.352-5.364-0.976-6.636C57.205,174.143,57.438,173.995,57.613,173.99z
	 M107.51,174.402c1.916-0.075,3.534,0.676,3.713,3.039c0.26,3.462-2.936,5.355-5.164,3.367c-1.998-1.995,0.026-5.118,2.343-3.654
	c1.164,0.741-0.226,2.431-1.167,1.558c-0.426-0.395-0.612-0.149-0.311,0.306c0.912,1.373,2.707,0.231,2.579-0.979
	c-0.253-2.379-3.149-2.349-4.239-1.417c-1.492,1.274-2.807,3.152-3.787,4.52c-0.803,1.187-0.976,1.155-0.857-0.311
	C100.934,176.956,104.52,174.52,107.51,174.402z M55.307,175.159c0.305-0.011,0.184,0.431,0.207,1.57
	c0.123,2.924,1.345,4.745,2.895,5.764c0.519,0.579-0.146,0.989-1.123,0.709c-2.226-0.691-4.498-5.518-2.611-7.593
	C54.938,175.317,55.146,175.165,55.307,175.159z M53.143,176.118c0.309-0.02,0.135,0.627,0.163,1.847
	c0.062,2.567,0.849,3.801,2.74,5.367c0.616,0.511,0.692,0.454,0.45,0.736c-0.648,0.754-2.844-0.313-3.779-1.851
	c-1.113-1.83-1.277-4.591-0.241-5.634C52.766,176.292,52.981,176.129,53.143,176.118z M50.99,177.355
	c0.256,0.001,0.113,0.465,0.152,1.573c0.096,2.689,0.703,4.02,2.395,5.264c1.062,0.781,1.319,0.547,0.995,0.856
	c-0.569,0.541-2.125,0.076-3.292-0.919c-1.75-1.49-2.241-5.167-0.819-6.427C50.675,177.479,50.856,177.354,50.99,177.355z
	 M30.619,177.735l4.311,3.016l-0.121,2.546l-4.289-2.93L30.619,177.735z M105.99,182.51c-1.755-0.362-2.419-1.641-2.205-3.089
	c0.071-0.484,0.352-0.761,0.652-0.129c0.258,1.004,0.922,2.396,1.828,2.666C106.631,182.066,106.326,182.579,105.99,182.51z
	 M68.251,179.504c1.979,5.027,1.943,10.522,2.272,15.714c0.436,6.9,1.646,11.548,2.04,12.332c0,0-1.933,0.022-2.03-0.261
	c0,0-1.823-9.151-1.549-13.676c0.02-5.064-0.957-9.517-1.554-11.517C66.8,180.324,66.772,181.495,68.251,179.504z M30.596,181.467
	l4.146,2.736c-0.059,0.937-0.066,1.873-0.055,2.81l-4.065-2.903L30.596,181.467z M86.361,181.233c0.003,0.152,0.6,0.28,1.534,0.052
	c1.038-0.253,2.073-0.208,2.87,0.013c0.849,0.235,0.941-0.041,0.175-0.379c-0.374-0.164-0.97-0.539-1.86-0.523
	S86.354,180.901,86.361,181.233z M103.16,181.127c0.101,0.188,0.416,0.61,0.698,0.94c0.534,0.625,0.684,0.629,0.441,0.885
	c-0.56,0.588-1.733-0.265-1.86-1.352C102.33,180.807,102.723,180.306,103.16,181.127z M66.026,181.341
	c1.937,2.786,2.222,9.32,2.262,13.965c0.036,4.183,1.438,11.846,1.551,11.813c-0.398,0.237-0.936,0.154-1.439-0.042
	c-0.498-0.655-0.804-2.491-1.382-7.462c-0.148-1.282-0.441-5.361-0.508-8.646c-0.058-2.897-1.661-9.169-1.661-9.169
	S65.471,181.353,66.026,181.341z M63.87,182.038c1.766,3.976,2.053,7.923,2.132,12.713c0.075,4.531,1.072,9.84,1.449,12.183
	c-0.596,0.062-1.225,0.112-1.475-0.159c-0.158-0.22-0.285-0.563-0.363-1.007c-0.803-3.919-0.994-8.181-1.225-11.784
	c-0.346-5.586-0.434-6.969-1.219-9.753c-0.445-1.579-0.602-1.546-0.266-1.85C63.16,182.149,63.647,182.033,63.87,182.038z
	 M83.717,182.952c0.049,1.851,0.284,1.097,0.932,0.802c0.487-0.042,0.885,0.227,1.791,0.563c1.154,0.428,1.051,0.571,1.861,0.17
	c0.5-0.248,0.898-0.334,1.139-0.138c0.947,0.777,2.172,0.34,2.859-0.29c0.538-0.283,1.125-0.129,1.58-0.086
	c0.656,0.061,0.484-0.361,0.566-1.198c0.071-0.743-0.21-0.809-0.971-0.558c-0.779,0.256-1.553,0.293-2.229,0.085
	c-1.729-0.533-2.995-0.188-3.852-0.051c-2.024,0.321-2.133,0.115-2.592-0.178c-0.343-0.219-0.907-0.621-1.103-0.609
	C83.504,181.477,83.568,182.146,83.717,182.952z M101.678,182.103c0.193-0.1,0.281,0.165,0.55,0.517
	c0.448,0.59,0.579,0.867,0.203,0.923c-0.994,0.145-1.241,0.04-1.206-0.584C101.252,182.461,101.36,182.266,101.678,182.103z
	 M61.789,182.98c1.46,1.483,1.83,9.81,1.996,11.603c0.526,9.712,1.439,11.107,0.971,11.837c-0.553-0.01-0.745,0.196-1.105-0.291
	c-1.25-3.558-1.178-7.214-1.379-10.926c-0.286-4.916-0.77-7.578-1.455-10.015c-0.455-1.619-0.449-1.646,0.372-2.092
	C61.334,183.019,61.658,182.976,61.789,182.98z M59.823,184.15c0.515,1.18,1.547,6.542,1.687,11.171
	c0.111,3.676,0.981,10.862,1.143,10.902c-0.531,0.049-1.168-0.061-1.426-0.467c-1.592-7.085-1.085-13.953-2.926-21.078
	C58.41,184.333,58.992,183.764,59.823,184.15z M30.655,185.024l4.3,3.112l0.093,2.656l-4.39-3.144L30.655,185.024z M94.58,184.689
	c-2.429,0.951-3.058,1.731-2.676,2.417c0.322,0.578,1.288,0.375,3.875-0.714c1.934-0.814,2.539-0.459,2.932,0.77
	c-0.019,1.815-1.763,2.026-2.747,1.777c-0.423-0.017-0.36,0.023,0.091,0.592c2.001,1.585,4.457-1.515,3.233-3.48
	C98.33,184.256,96.673,183.744,94.58,184.689z M79.338,185.426c-2.004,1.587-1.288,4.446,0.379,4.875
	c0.465,0.238,1.156,0.126,1.427-0.056c0.25-0.167,0.248-0.439-0.264-0.525c-1.548-0.26-2.427-1.405-1.679-2.567
	c0.726-1.128,2.07-0.911,4.656,0.214c2.236,0.972,3.217,0.672,3.48-0.496c0.116-0.515-0.025-0.998-1.099-1.038
	C83.256,185.72,81.278,183.889,79.338,185.426z M106.152,189.803c-0.133-0.823-1.459,0.021-2.337,1.479
	c-0.864,1.435-0.954,1.64-1.13,0.149c-0.262-2.221,2.021-3.958,3.447-4.014c1.715-0.199,2.842,0.77,2.887,1.886
	C109.105,191.501,106.507,191.522,106.152,189.803z M30.56,188.491l4.555,3.156c0,0,0.153,1.692,0.056,2.602l-4.574-2.954
	L30.56,188.491z M85.248,189.552c-1.98,1.355-0.816,3.83,0.569,4.108c1.46,0.294,1.563-0.735,0.111-1.039
	c-0.776-0.308-0.976-1.054-0.673-1.63c0.693-1.144,1.974-0.403,2.719-0.047c1.652,0.794,2.509,1.084,3.031,0.535
	c0.928-0.976,0.1-2.714-1.125-2.101c-0.331,0.166-0.58,0.323-1.283,0.146C87.531,189.301,86.25,189.06,85.248,189.552z
	 M30.598,192.244l4.48,3.096l-0.137,2.737l-4.206-3.115L30.598,192.244z M30.69,196.007l4.214,3.031
	c-0.063,1.156-0.033,1.617,0.013,2.354l-4.262-2.776L30.69,196.007z M105.21,196.59c3.38,0.334,2.259,4.251-0.1,3.193
	c-0.63-0.478-0.819-0.438-1.519,1.279c-0.895,2.198-1.112,2.02-0.989-0.52C102.692,198.056,103.824,196.609,105.21,196.59z
	 M78.586,197.187l0.185,0.048c0.228,0.258-0.457,1.28-1.038,1.881c-0.428,0.283-1.469-0.482-1.217-0.855
	C76.811,197.896,78.041,197.242,78.586,197.187z M83.095,199.204l-0.604,0.087c-0.912-2.05-2.808-1.58-3.392,0.323l-0.834-0.095
	C79.107,197.185,82.107,195.753,83.095,199.204z M100.109,199.673l-1.022,0.062c-0.917-2.226-2.216-2.558-3.315-0.359l-0.792-0.231
	C96.342,196.335,98.619,196.109,100.109,199.673z M95,197.135c0.522-0.032,0.455,0.211-0.09,0.962
	c-0.473,0.653-0.588,0.756-1.063,0.399C93.066,197.912,94.363,197.178,95,197.135z M99.842,197.2
	c0.101,0.006,0.217,0.016,0.35,0.049c1.054,0.263,1.537,0.767,1.02,1.413c-0.321,0.402-0.635,0.561-0.848,0.291
	C99.652,197.771,99.259,197.165,99.842,197.2z M83.928,197.9c0.109,0.44-0.236,0.753-0.621,0.387
	c-0.156-0.148-0.293-0.403-0.273-0.591C83.274,197.468,83.851,197.657,83.928,197.9z M30.647,199.413l4.333,3.141
	c0.143,1.106,0.172,1.946,0.164,2.702l-4.46-2.982L30.647,199.413z M93.803,200.365c2.495,1.726,5.422,1.702,7.252,0.187
	c0.409-0.339,0.767-0.354,0.773-0.027c-0.261,1.21-3.443,2.761-5.93,1.882c-1.365-0.483-2.487-0.962-3.383-2.249
	C91.982,199.318,93.078,199.859,93.803,200.365z M92.746,201.206c3.647,3.176,6.548,2.294,8.746,0.692
	c0.324-0.082,0.329,0.213,0.401,0.762c0.093,0.702-0.485,1.049-2.065,1.526c-3.055,0.924-6.64-0.088-7.285-2.155
	C92.467,201.624,92.313,201.096,92.746,201.206z M30.632,203.108l4.393,3.041l-0.14,2.324l-4.279-2.92L30.632,203.108z
	 M30.702,206.669l4.146,2.837l-0.013,1.924l-4.034-2.9L30.702,206.669z M60.821,207.572c17.69,4.039,30.228,2.121,42.532-0.067
	l10.9,21.578l-65.689,0.089C52.854,222.159,56.424,214.491,60.821,207.572z"/>
<path d="M62.475,20.947c1.893,3.283,3.386,6.676,5.09,10.034l0.272,0.177l0.408,0.776l0.046,0.378l1.01,1.631l-0.006,0.351
	l4.285,8.046c3.535-1.332,32.57-3.73,43.32,0.193l1.566-2.679l0.375-0.003l2.761-4.889l-0.044-0.412l0.93-1.069l0.135-0.487
	l3.047-4.813l0.011-0.775l3.811-6.412L62.475,20.947z M128.217,21.871c0,0-1.987,3.856-3.012,5.415
	c-0.828-0.659-3.231-0.212-3.088,2.345c-3.918-1.497-4.861,3.219-1.833,4.28c-1.555,1.369-3.04-0.18-4.218-1.229
	c-1.153,0.288-3.546,1.143-4.9-1.373c0,0,0.566,0.309,1.131,0.645c3.204,0.982,3.463-3.381,1.079-4.095
	c-0.3-0.08-0.864-0.112-0.864-0.112c0.801-3.355-4.342-4.527-4.439-0.494c0,0-0.611-0.102-1.075-0.016
	c-2.727,0.501-2.103,4.559,0.685,4.365c0.385-0.027,0.728,0.042,0.728,0.042c-0.046,0.65-3.418,1.892-5.848-0.344
	c-1.152,0.886-2.976,1.996-5.354-0.212c1.564-0.064,3.064-0.514,3.047-2.303c-0.012-1.165-1.049-2.204-2.545-2.26
	c-0.085-1.302-1.045-2.543-2.293-2.639c-1.521,0.09-2.301,1.33-2.311,2.639c-1.295,0.135-2.506,1.286-2.228,2.607
	c0.38,1.802,1.755,2.023,3.325,1.681c-1.91,3.099-5.02,1.482-5.978,0.494c-1.142,1.075-3.132,2.53-5.583,0.541
	c1.307-0.226,2.759-0.999,2.514-2.84c-0.193-1.449-1.806-1.88-2.506-1.804c-0.002-0.958-0.719-2.539-2.412-2.375
	c-1.846,0.178-1.735,2.534-1.714,2.553c-1.524-0.127-2.632,1.684-2.196,2.839c0.529,1.407,1.637,1.844,3.674,1.465
	c-2.376,2.25-3.885,1.376-5.182,0.903c-1.148,1.214-2.681,1.605-4.252,0.529c3.515,0.169,2.955-6.102-1.213-3.828
	c-2.965-3.521-2.911-1.956-5.568-7.135L128.217,21.871z M95.463,28.051c0.17-0.007,0.35,0.029,0.527,0.12
	c0.55,0.282,0.652,0.775,0.318,1.503c-0.118,0.256-0.288,0.549-0.261,0.818c3.87,7.204,12.403,3.984,13.207,0.638
	c0.051-0.212-0.047-0.444-0.157-0.672c-0.328-0.551-0.285-1.002,0.142-1.379c0.908-0.805,2.211,0.145,1.684,1.228
	c-0.139,0.286-0.285,0.6-0.18,0.981c2.191,5.021,6.554,5.398,10.214,3.411c-1.686,3.047-8.223,4.916-10.968-2.422
	c-4.381,5.978-11.333,5.865-14.489-0.885c-2.838,6.904-11.398,7.067-14.515,1.333c-2.837,6.56-9.415,5.071-11.278,0.966
	c6.111,4.463,10.137-0.196,10.861-2.183c0,0-0.143-0.232-0.337-0.425c-0.782-0.775-0.761-1.687,0.05-2.048
	c1.037-0.463,2.01,0.543,1.477,1.53c-0.148,0.276-0.281,0.337-0.184,0.575c1.902,4.474,11.268,5.773,13.165-0.502
	c0.063-0.358,0.027-0.69-0.134-0.962C94.16,28.928,94.726,28.082,95.463,28.051z M68.123,30.585c1.477,0.085,1.064,1.367,0.77,1.464
	L68.123,30.585z M122.979,31.385l-0.911,1.661C121.58,32.26,121.706,31.281,122.979,31.385z M117.984,39.655
	c0,0-0.943,2.105-1.256,2.283c-17.498-4.524-41.913-0.591-42.514-0.155L73.14,39.74C88.482,36.646,103.779,37.307,117.984,39.655z
	 M88.425,70.951c-1.689,6.577-5.779,7.246-10.72,8.047c-6.118,0.99-10.105-1.26-11.971-4.697c0,0-8.75,3.337-11.943,5.276
	c6.639,3.07,15.411,9.868,20.397,17.587c1.776,2.354,1.687,1.821,1.684,6.984c-0.007,11.196,0.02,15.358,0.02,15.358
	c2.739,0.414,2.89,2.315,2.739,4.451c2.199-0.979,4.314,0.22,4.306,2.313c-0.018,3.85-3.765,2.804-4.542,2.379
	c1.218,3.393-0.213,4.798-1.673,4.965c-1.8,0.205-3.865-0.669-3.263-4.552c-1.963,0.77-4.448-0.629-4.793-2.967l-0.096-3.959
	c4.854-9.219-1.239-16.714-6.961-19.179c0,0,1.619-3.378,3.712-4.326c0.213-0.065-1.27-2.26-3.762-1.781
	c-1.147,0.023-0.88,0.016-1.96-1.398c-2.133-2.796-3.137-2.987-5.216,0.004c-0.915,1.316-1.134,1.353-2.216,1.375
	c-1.192,0.025-3.021,0.89-3.414,1.661c-0.089,0.177,0.379,0.357,1,1.09c0.893,1.054,2.271,2.501,2.055,3.975
	c-4.712,1.935-12.528,10.425-4.31,21.295l-5.942,0.078l-0.283-38.698l-4.134,2.322l0.184,30.311l-1.179-0.394
	c0.091-9.669-0.054-19.33-0.355-28.994L24.89,97.493l0.486,45.449l1.159,0.247c0.86,6.193,13.014,1.862,13.724,2.399l0.146,25.255
	l-0.532,1.251l9.671,5.335l8.871-4.644c0,0,1.197-0.217,1.646-0.455c3.678-1.957,6.419-1.518,8.419,1.352
	c1.233,1.771,1.443,2.032,1.443,2.032c0.747-5.107,5.234-6.99,9.586-5.655c3.201,0.981,7.574,4.2,8.913,8.131
	c0,0,0.24,0.592,0.478,0.857l0.185,0.081c-0.012-0.103-0.212-0.592-0.287-0.83c-4.489-10.405-17.138-12.001-19.089-3.5l-1.791-2.534
	l9.418-5.829l12.87,8.549c0,0-0.604,3.005-0.674,4.303l0.222,0.104c0.09-1.572,0.556-3.369,1.294-4.701
	c0.305-0.549,0.657-0.995,1.053-1.328c0.769-0.451,1.481-0.404,2.262-1.144l-1.88-1.418l-0.041-4.55l3.776,5.338
	c1.188-0.277,5.813-1.67,8.558-0.127c0.31,0.097,4.333-1.062,6.838,4.604l12.063-5.057c0,0,0.77-0.438,0.777-0.553
	c-12.027-4.479-24.172-20.341-23.004-20.597c0,0-0.035-1.627,0.058-5.62c0.098-4.45,0.044-8.994,0.118-13.46
	c-4.093-1.319-3.075-4.648-3.075-4.648c-2.46,0.545-2.853,0.063-3.476-0.375l-0.426-4.214c1.477-1.268,2.361-1.386,4.188-0.981
	c0,0-0.886-1.831-0.08-3.338c0.678-1.191,2.481-1.943,3.922-1.104c1.862,1.28,1.269,3.963,1.003,4.338
	c1.936-0.875,4.302,0.101,4.883,2.032c0.29-5.712,0.782-12.107,1.917-17.089c2.095-8.993,5.522-18.41,9.816-25.815
	c0.703-1.237,1.6-2.477,2.323-3.635c0.672-1.032,0.991-1.7,0.991-1.7s-0.918,0.511-1.891,0.784c-1.398,0.383-2.45,0.747-2.609,0.908
	c-1.023,0.868-2.364,1.513-3.46,1.993c-3.863,1.518-6.46-0.746-8.064-4.202c-0.893,4.39-4.878,8.104-10.756,5.796
	c-3.321-1.779-4.365-2.917-7.471-7.558C89.098,71.497,88.424,70.951,88.425,70.951L88.425,70.951z M88.553,71.669
	c2.197,4.386,5.487,7.493,8.686,8.735c5.71,1.889,9.477-1.801,10.539-5.191l1.102,1.884l-8.646,6.195l-13.046-8.371
	C87.406,74.72,88.572,71.771,88.553,71.669z M127.812,71.972l-3.873,2.302c0,0-2.572,4.189-3.437,5.768
	c-4.518,8.054-7.91,16.816-9.678,25.51c-0.715,3.184-1.474,8.998-1.727,11.793c-0.403,4.459-0.384,6.29-0.268,10.379l0.302,0.333
	c0,0-0.475,0.84-0.815,1.549c-0.924,1.925-1.15,3.014-1.094,5.245c0.129,5.137,3.223,10.053,7.593,12.056
	c0.246,0.113,0.573,0.259,0.573,0.259s-0.748,2.045-2.108,3.484c-0.907,0.961-1.101,1.008-0.78,1.479
	c0.445,0.657,1.886,1.229,3.674,1.201c0.633-0.009,0.629-0.011,1.799,1.275c2.283,2.51,2.97,2.458,5.047-0.387
	c0.618-0.846,0.97-1.048,1.872-1.069c1.327-0.032,3.749-1.113,3.739-1.619c-1.635-0.73-3.527-4.495-3.227-4.535
	c8.936-4.771,10.829-14.663,4.303-21.937l6.232-0.101l0.23,39.459c1.22-0.818,3.979-2.577,3.979-2.577l-0.091-30.704
	c0.428,0.082,0.865,0.392,1.698,0.528l0.245,29.237c0,0,8.008-5.697,11.817-8.672l-0.233-44.742h-0.911l0.146,44.719l-10.581,7.8
	l-0.069-27.793c0,0,0.836-0.126,1.148-0.17c3.097-0.438,4.531-4.424,2.476-7.026c-0.729-0.924-0.212-0.859,1.34-1.159
	c2.751-0.245,4.274-2.344,3.475-3.84c-0.343-0.642,0.104-0.572,0.395-1.182c0.19-0.479,0.154-1.074,0.072-1.545
	c-0.107-0.618,0.144-0.893,0.299-1.287c0.243-0.617,0.007-1.315-0.398-1.896c-0.428-0.612-0.31-1.27-0.313-1.676
	c-0.019-0.909-0.344-1.039-1.297-1.916c-0.722-0.664-0.143-0.809,0.918-1.36c1.669-0.867,1.784-3.935-0.437-5.241
	c-1.187-0.699-3.346-0.642-8.024,0.104c-1.774,0.283-3.857,0.472-3.857,0.472s-0.016-17.493-0.139-26.511L127.812,71.972z
	 M127.812,72.589c0,0,9.501,5.61,9.426,5.768c-3.19,4.411-15.092,21.987-15.178,43.24c-8.728-1.105-12.3,5.781-12.725,5.756
	c-1.147-26.015,9.313-44.627,14.673-52.526L127.812,72.589z M121.818,76.012l-0.03,0.638l-1.883,2.839l-0.05-2.839L121.818,76.012z
	 M118.91,77.001l0.068,4.573l-3.857,2.975l-0.226-4.771L118.91,77.001z M83.154,78.048l1.982,1.383l-0.068,4.538l-2.984-5.48
	L83.154,78.048z M137.421,79.577l0.015,3.283c-7.605,10.828-11.596,23.196-12.816,38.86l-1.852-0.063
	C123.258,106.083,128.453,91.872,137.421,79.577z M85.91,79.913l4.691,3.094l-0.202,5.177l-4.26-2.758l-0.397-1.059L85.91,79.913z
	 M114.314,80.134l-0.02,4.813l-3.624,2.716l-0.169-4.778L114.314,80.134z M70.389,81.393c0.537,0.007,0.967,0.401,1.067,1.151
	c0.397,3.199,2.81,2.275,3.383,3.237c0.217,0.327-0.297,0.612-1.948,0.479c-3.025-0.229-5.232-2.699-3.685-4.326
	C69.604,81.564,70.021,81.388,70.389,81.393z M91.303,83.455l4.007,2.577l-0.012,5.314l-3.927-2.418L91.303,83.455z M109.584,83.471
	l0.31,4.701l-4.386,2.943l-0.156-4.67L109.584,83.471z M117.93,83.49l-2.518,5.412l-14.691,10.669l-12.193-7.97l-2.262-5.222
	l14.226,9.367L117.93,83.49z M78.311,85.638c3.903-0.048,6.899,4.135,7.925,7.799c0.746,2.424,0.859,3.296,0.938,7.143
	c0.08,3.919,0.201,4.596,0.93,5.149c0.448,0.341,0.578,0.249,0.635-0.444c0.127-1.54,1.95-0.591,1.982,1.031
	c0.035,1.802-1.93,2.381-3.383,0.997c-0.773-0.737-0.784-0.73-1.025,0.718c-0.162,0.971-1.281,7.045,1.58,8.557
	c0.539,0.051,0.668-0.385,0.268-0.893c-0.803-1.019,0.802-2.193,2.109-1.545c1.58,0.783,1.42,3.354-0.268,4.269
	c-1.932,1.045-4.429-0.144-5.596-2.662c-0.855-1.849-0.853-4.412,0.016-8.22c0.399-1.755,0.576-2.872,0.666-4.218
	c0.029-0.442,0.081-0.924,0.114-1.07c0.093-0.41-0.107-0.43-0.8-0.077c-1.89,0.961-3.95,0.278-4.458-1.479
	c-0.607-2.102,1.713-4.272,3.146-2.943c0.544,0.504,0.478,1.005-0.172,1.328c-1.127,0.561-0.742,2.034,0.455,1.742
	c3.947-1.191,0.338-12.371-4.106-13.145c-2.938-0.512-5.245,2.866-3.118,4.674c0.832,0.708,1.678,0.328,1.496-0.672
	c-0.254-1.396,1.582-1.245,2.262,0.186c1.104,2.326-1.748,4.22-4.413,2.932C70.711,91.927,73.98,85.726,78.311,85.638z
	 M96.01,86.526l3.938,2.669l0.035,5.188l-3.912-2.341L96.01,86.526z M104.686,86.975l0.019,4.763l-3.8,2.789v-5.068L104.686,86.975z
	 M114.922,90.096l-1.943,5.466l-12.266,8.467l-10.118-6.404l-1.741-5.057l11.921,7.796L114.922,90.096z M35.318,90.493l-0.004,27.67
	c-3.975,0.17-6.256,4.138-3.279,7.888c0,0-0.52,0.07-1.125,0.154c-2.689,0.372-4.49,1.811-4.134,3.554
	c0.109,0.534-0.001,1.073-0.153,1.341c-0.238,0.716-0.176,1.263,0.146,1.881c0.253,0.484,0.211,0.68,0.069,1.039
	c-0.305,0.773-0.232,1.369,0.126,1.958c0.442,0.438,0.32,0.791,0.261,1.491c-0.071,0.99,0.105,1.388,0.723,1.773
	c0.797,0.496,1.094,1.311,0.188,1.243c-0.449-0.033-2.031,1.507-2.031,1.507l-0.15-44.402L35.318,90.493z M56.867,94.043
	c0.712-0.002,1.444,0.9,2.496,2.422c0.635,1.091,0.646,0.942,2.101,0.885c1.485,0.109,2.39,0.506,2.778,0.958
	c0.146,0.172-0.242,0.217-1.183,1.179c-0.974,0.997-1.109,1.394-1.757,2.511c-0.232,0.402-0.741,0.44-0.979,0.073
	c-0.192-0.297,0.301-1.264,1.225-2.402c1.304-1.271,1.03-1.398-0.864-1.198c-1.332,0.142-1.474,0.074-1.979-0.741
	c-1.508-3.024-2.309-2.922-3.751,0.093c-0.394,0.844-0.237,0.789-1.944,0.656c-1.344-0.104-1.676,0.238-0.918,0.95
	c1.184,0.981,1.646,3.297,1.58,3.269l-0.914,0.085c0,0-0.279-0.521-0.402-0.85c-0.248-0.666-0.914-1.665-1.638-2.453
	c-1.024-1.117-0.462-1.729,1.825-1.978c1.275-0.14,1.305-0.157,1.891-1.024C55.467,94.949,56.156,94.045,56.867,94.043z
	 M112.504,96.798l-1.32,4.72l-10.463,7.405l-8.512-5.732l-1.129-4.438l9.778,6.25L112.504,96.798z M76.432,100.537
	c0,0,3.023,5.946,4.121,9.8c0.954,3.352,2.281,13.058,1.933,13.654c-0.743-1.029-3.2-0.797-3.233-0.788
	c0.207-1.137-0.703-3.428-2.798-3.882L76.432,100.537z M110.854,102.711l-1.045,4.647l-8.909,6.501l-7.352-5.068l-0.965-4.492
	l8.137,5.485L110.854,102.711z M59.061,102.971l1.156,0.405l0.218,8.394l8.913,1.495l0.203,1.437l-10.322-1.68
	C59.121,109.441,59.061,102.971,59.061,102.971z M54.537,103.222l0.249,9.761c-0.097-0.032-7.431,1.022-10.237,1.766l0.164-1.337
	c0,0,5.099-1.119,8.791-1.549c0-2.729-0.021-5.601-0.027-8.382L54.537,103.222z M137.459,105.018c0,0,1.213,0.113,3.809-0.348
	c6.689-1.182,8.501-0.703,9.356,1.379c0.935,3.228-2.571,3.306-3.196,1.257c-0.397-1.328-1.834-1.037-6.632,0.11
	c-4.103,0.981-6.702,0.196-6.651-2.149C134.195,102.854,136.918,102.641,137.459,105.018z M82.481,103.252
	c0.827-0.012,1.511,0.656,1.522,1.491c0.013,0.835-0.649,1.521-1.477,1.533c-0.827,0.013-1.508-0.651-1.52-1.486
	S81.654,103.265,82.481,103.252z M60.748,103.519l1.057,0.321l0.188,6.377c2.273,0.506,7.045,1.41,7.045,1.41l0.253,1.259
	c-1.998-0.473-8.366-1.525-8.366-1.525C60.726,108.599,60.748,103.519,60.748,103.519z M53.037,103.639c0,0,0.004,5.081-0.08,7.811
	c0.035-0.024-5.404,0.874-8.167,1.452l0.214-1.02c2.186-0.498,4.563-0.997,6.969-1.507c-0.047-1.998-0.045-6.381-0.045-6.381
	L53.037,103.639z M56.922,104.731c0.664-0.01,1.215,0.531,1.225,1.201c0.009,0.671-0.526,1.219-1.19,1.229
	c-0.665,0.01-1.208-0.522-1.218-1.193S56.257,104.741,56.922,104.731z M147.436,107.903c0.74,1.106,1.361,1.073,2.09,0.966
	c-0.184,0.054-1.044,0.567-0.995,0.737c0.024,0.085-0.363,1.484,0.226,1.541c2.221,0.217,1.097,2.544,1.363,2.901
	c0.6,0.69,1.039,1.128,0.627,1.989c-0.365,0.765-0.889,0.74-0.482,1.395c0.885,1.342-0.337,1.62-0.229,2.534
	c0.075,0.552,0.267,1.305,0.065,1.734c-0.607,1.293-2.754,2.031-5.14,2.132c-0.34,0.016-0.082-0.545-0.241-0.899
	c-0.59-0.377-0.267-1.011-0.068-1.426c0.195-0.551,0.197-0.552-0.169-0.83c-1.019-0.639-0.966-0.934-0.884-1.395
	c0.223-1.364,0.014-1.498-0.395-1.7c-0.521-0.259-0.45-0.834-0.218-1.572c0.16-0.51,0.047-0.638-0.199-1.101
	c-0.145-0.272-0.188-0.42-0.191-0.595c0.073-0.705-0.552-0.702-1.427-0.012c-0.743,1.291-0.998,2.985-1.463,4.056
	c-0.359,0.822-0.416,1.682,0.012,3.577c0.822,2.897,0.212,3.381-3.02,2.762c-2.43-0.603-3.146-3.22-2.472-6.424
	c0.109-0.518,0.079-1.019,0.03-1.425c-0.264-2.206,0.301-4.324,1.826-5.771c2.545-2.416,3.804-2.784,9.065-2.445
	c2.06,0.147,2.216,0.278,2.216,0.278L147.436,107.903z M109.538,108.567l-0.612,4.492l-4.941,3.52
	c-2.326-1.854-4.122-1.236-5.759,0.749c-1.297-0.663-3.889-2.472-3.889-2.472l-0.661-5.096l7.183,5.029L109.538,108.567z
	 M57.028,109.634c0.664-0.01,1.208,0.526,1.217,1.197c0.01,0.671-0.519,1.223-1.183,1.232s-1.215-0.523-1.225-1.193
	C55.828,110.199,56.364,109.644,57.028,109.634z M108.711,114.234l-0.271,4.326l-1.757,1.333l-1.768-0.182l-0.417-2.681
	L108.711,114.234z M56.998,114.269c0.664-0.01,1.215,0.531,1.225,1.202c0.01,0.67-0.526,1.218-1.19,1.228s-1.207-0.522-1.217-1.193
	C55.806,114.835,56.334,114.278,56.998,114.269z M61.843,114.404c0.664-0.01,1.207,0.523,1.217,1.193
	c0.01,0.671-0.519,1.223-1.183,1.232s-1.211-0.527-1.221-1.197C60.646,114.962,61.179,114.414,61.843,114.404z M52.211,114.636
	c0.664-0.01,1.211,0.527,1.221,1.197c0.01,0.671-0.519,1.223-1.184,1.232c-0.664,0.01-1.215-0.527-1.225-1.197
	C51.014,115.197,51.546,114.646,52.211,114.636z M141.68,114.833c0.34-0.027,0.842,0.479,0.598,1.24
	c-0.326,0.867-0.098,1.162,0.447,1.865c0.461,0.595,0.38,0.678,0.311,1.059c-0.106,2.497,1.488,1.418,0.796,3.233
	c-0.15,0.395,0.049,0.959,0.118,1.425c-0.155-0.427-3.088-0.388-3.337,0.047c-0.417-0.063-0.945-2.844-0.524-3.21
	c0.055-0.001,0.36,0.477,0.518,0.745c0.394,0.675,0.479,0.649,0.355-0.131C140.474,118.007,140.766,114.852,141.68,114.833z
	 M66.699,115.049c0.664-0.01,1.211,0.527,1.221,1.198c0.01,0.67-0.522,1.218-1.187,1.228s-1.207-0.522-1.217-1.193
	C65.507,115.611,66.035,115.059,66.699,115.049z M47.213,115.273c0.664-0.01,1.207,0.527,1.217,1.197
	c0.01,0.671-0.519,1.219-1.183,1.229s-1.216-0.523-1.225-1.193C46.013,115.835,46.549,115.283,47.213,115.273z M94.391,115.625
	l3.605,2.36c0.06,0.743-0.036,1.809,0.206,2.171c-2.353-0.222-3.544,1.131-3.544,1.132L94.391,115.625z M68.712,119.398
	l-0.279,1.283c-7.103-1.846-15.042-1.943-22.629,0.085l-0.589-1.349C52.877,117.072,61.019,116.986,68.712,119.398z M35.081,119.317
	c1.034-0.018,2.091,0.371,2.836,1.213c1.398,1.582,0.726,4.515-1.252,5.447c-2.958,1.395-6.04-1.589-4.783-4.663
	C32.403,120.038,33.751,119.341,35.081,119.317z M108.294,119.692l-0.046,1.286l-0.899-0.757L108.294,119.692z M89.469,119.75
	c1.305-0.019,2.377,1.036,2.396,2.353c0.019,1.316-1.022,2.399-2.327,2.418c-1.304,0.02-2.376-1.032-2.396-2.349
	S88.165,119.77,89.469,119.75z M35.146,119.827c-0.318,0.005-0.848,0.136-1.088,0.359c-0.629,0.587,0.004,0.604,0.835,0.757
	c1.477,0.274,1.883,1.558,1.749,2.944c-0.122,1.26,0.297,1.24,0.635,0.772C38.653,122.756,37.479,119.981,35.146,119.827z
	 M103.675,120.461l-0.065,0.039L103.675,120.461z M57.01,121.21c1.767-0.036,1.952,2.896,0.39,6.173
	c-0.47,0.985-0.709,0.863-1.225-0.625C54.904,123.089,55.181,121.248,57.01,121.21z M61.097,121.295
	c0.341-0.017,0.671,0.114,0.941,0.426c0.95,1.093,0.22,2.862-2.312,5.585c-0.615,0.662-0.934,0.915-1.16,0.92
	c-0.633,0.013-0.631-0.094,0.088-2.457c0.317-1.042,0.631-2.187,0.697-2.542C59.563,122.091,60.347,121.334,61.097,121.295z
	 M54.701,123.918c0.173,0.813,0.477,1.941,0.67,2.511c0.194,0.569,0.323,1.111,0.291,1.202c-0.156,0.437-1.284-0.158-2.09-1.102
	c-1.621-1.9-2.268-3.554-1.933-4.441c0.491-0.711,1.75-1.026,2.329-0.404C54.568,122.325,54.657,123.7,54.701,123.918z
	 M65.88,122.025c1.71,1.018-0.26,3.341-4.091,5.269c-1.639,0.825-1.521,0.454-0.279-1.174c0.476-0.623,1.112-1.637,1.424-2.256
	C63.621,122.495,64.31,121.126,65.88,122.025z M48.813,122.033c0.542-0.005,1.098,0.581,2.127,2.086
	c0.459,0.67,1.204,1.624,1.657,2.121c0.453,0.496,0.81,0.99,0.792,1.097c-0.176,1.055-5.51-2.287-5.893-3.693
	C47.363,122.786,48.032,122.02,48.813,122.033z M125.145,125.093c0.961,1.996,1.044,3.237,0.248,3.688
	c-1.131,0.642-2.584-0.337-2.613-1.758c-0.01-0.477-0.496-2.143-0.941-3.225c-0.367-0.891-0.417-1.44-0.115-1.484
	C122.901,122.505,124.646,124.154,125.145,125.093z M118.761,123.578c-0.372,1.142-0.767,2.923-0.762,3.441
	c0.002,0.204-0.121,0.622-0.268,0.928c-0.977,2.029-3.288,0.374-2.438-1.746c0.768-1.912,2.718-3.901,3.486-3.968
	C119.305,122.188,118.813,123.411,118.761,123.578z M120.317,122.482c0.386-0.038,0.708,0.812,1.206,2.243
	c0.673,1.934,0.645,3.441-0.08,4.083c-1.554,1.376-3.184-0.622-2.557-3.133C119.389,123.669,119.881,122.526,120.317,122.482z
	 M68.184,122.837c1.935,28.733-12.658,50.841-13.698,51.443l-4.966,2.74l-8.711-4.789c9.026-12.492,14.422-26.811,14.83-43.438
	C63.989,129.611,68.285,122.866,68.184,122.837z M116.037,122.928c0.609-0.168,0.184,0.368-0.42,1.248
	c-0.646,0.938-1.482,3.489-2.146,3.898c-1.488,0.723-3.174-0.654-2.271-1.851C112.032,125.121,114.477,123.359,116.037,122.928z
	 M124.896,123.122c0.233-0.001,0.67,0.155,1.305,0.468c3.101,1.528,4.63,3.544,3.303,4.508c-0.932,0.678-1.928,0.152-2.858-1.63
	c-0.316-0.605-0.894-1.504-1.278-2.001C124.668,123.566,124.506,123.124,124.896,123.122z M142.327,124.146
	c1.992-0.029,3.63,1.573,3.658,3.584c0.029,2.012-1.563,3.668-3.555,3.697c-1.993,0.029-3.63-1.581-3.659-3.593
	C138.743,125.824,140.334,124.176,142.327,124.146z M141.229,125.092c-2.345,1.048-1.639,4.764,0.382,5.301
	c0.854,0.24,1.892-0.118,1.464-0.532c-2.669-0.846-2.687-2.832-1.611-4.285C141.637,125.342,141.404,125.013,141.229,125.092z
	 M43.564,130.202c-0.091,2.1,0.359,4.535-0.635,6.814c-1.506,3.504-6.344,5.104-8.928,4.794c-0.539-0.223-1.166-0.435-1.696-0.207
	c-0.321,0.138-0.718,0.12-1.06-0.041c-0.33-0.155-0.647,0.048-0.968-0.068c-0.375-0.256-0.987-0.836-0.915-1.268
	c0.117-0.608,0.07-1.06-0.635-1.259c-0.979-0.276-1.176-0.81-0.889-2.372c0.063-0.337,0.138-0.49-0.08-0.637
	c-0.72-0.487-0.993-1.389-0.521-2.338c0.309-0.546,0.547-0.933-0.007-1.367c-0.22-0.5-0.182-0.689,0.29-1.328
	c0.503-0.606,0.591-0.676,0.269-1.194c-0.725-1.164,0.096-2.023,1.071-2.503c1.307-0.541,2.448-0.82,3.827-0.981
	c0.513,0.029,0.49,0.485,0.8,0.924c0.454,0.713-0.187,1.743,0.184,2.108c0.534,0.249,0.776,0.746,0.734,1.171
	c-0.019,0.989,0.041,1.328,0.307,1.742c0.294,0.459,0.404,1.301,0.13,1.874c-0.244,0.51-0.218,0.476,0.104,0.775
	c0.317,0.298,0.475,1.79,0.361,1.761l1.341-0.124c-0.14,0.151,0.505-2.789,2.032-5.062c-0.084-1.78-0.756-3.418-0.696-5.77
	C41.299,124.45,43.69,127.293,43.564,130.202z M95.019,126.201c0.479,0.379,2.853,1.046,2.938,0.97
	c-0.074,1.147,0.618,3.377,3.093,4.121c0.03,3.198,0.004,17.966,0.004,17.966C97.606,143.429,95.471,135.903,95.019,126.201z
	 M37.361,126.723c0,0,0.132,0.426,0.253,1.248c0.212,1.68-0.017,1.909-0.459,0.761c-0.519-1.345-0.545-0.297,0.038,2.781
	c0.142,0.745,0.136,0.918-0.046,1.421c-0.113,0.315-0.316,1.049-0.475,1.623c-0.466,1.689-0.738,2.175-1.217,0.83
	c-0.244-0.686-0.448-0.793-0.274-1.329c0.219-0.673,0.166-1.177-0.273-1.83c-0.071-0.107-0.229-0.353-0.256-1.047
	c0.135-1.561-0.554-1.575-0.688-1.979c0.022-0.611-0.26-2.091,0.156-2.051c0.343,0.033,1.583,0.067,2.17-0.15
	C36.551,126.904,37.361,126.723,37.361,126.723z M88.742,126.916c1.28-0.02,2.331,1.014,2.35,2.306s-1.004,2.354-2.284,2.372
	s-2.335-1.011-2.354-2.303C86.436,127.999,87.462,126.935,88.742,126.916z M52.953,128.341l1.756,0.336
	c0.392,0.132,0.106,24.578-13.953,42.221l-0.122-4.087C47.324,157.038,52.141,145.053,52.953,128.341z M82.738,128.854l0.321,5.841
	c-0.989-0.849-3.501-2.438-3.483-2.472l0.012-2.16C79.591,130.068,81.747,130.23,82.738,128.854z M69.198,128.936
	c0.423,0.181,0.793,0.594,1.155,0.893l-1.147,0.78L69.198,128.936z M109.442,129.229c7.584,2.271,15.053,2.205,22.437,0.545
	l0.506,1.429c-8.013,2.192-15.976,2.066-23.888-0.482L109.442,129.229z M72.711,130.322l0.406,2.519l-4.28,2.797l0.208-3.824
	l2.231-1.46L72.711,130.322z M110.602,132.42c0.691-0.01,1.261,0.55,1.271,1.248c0.011,0.698-0.544,1.272-1.235,1.282
	c-0.692,0.011-1.258-0.55-1.268-1.247C109.359,133.005,109.91,132.431,110.602,132.42z M130.088,132.524
	c0.692-0.01,1.261,0.55,1.271,1.248c0.01,0.698-0.545,1.272-1.236,1.282s-1.257-0.55-1.267-1.248
	C128.846,133.108,129.396,132.535,130.088,132.524z M93.591,136.454c0.562,1.995,0.438,6.505-0.283,9.563
	c-0.217,0.918-0.349,4.179-0.349,4.179c-0.133,0.17,4.297-3.7,5.721,1.376c0.49,1.745-1.5,3.399-2.833,2.915
	c-0.259-0.094-0.181-0.958,0.067-1.467c0.738-1.518-1.367-2.307-2.568-0.962c-2.772,3.108,0.08,10.979,4.428,11.743
	c3.609,0.635,6.504-2.992,4.096-5.153c-1.054-0.945-2.738,0.357-1.968,1.561c0.824,1.285-0.692,1.798-1.841,0.606
	c-2.001-2.077,0.246-5.204,3.269-4.48c4.832,1.108,3.838,8.733-1.229,9.162c-3.874,0.328-6.482-1.375-8.121-4.396
	c-1.538-2.902-1.653-5.216-0.948-10.306c0.418-3.022,0.074-5.568-0.758-5.551c-0.457,0.009-0.813,0.231-0.885,0.772
	c-0.147,1.106-0.273,1.313-0.96,0.911c-0.873-0.511-1.357-2.155,0.068-3.268c1.462-1.141,3.357,0.64,3.28,0.946
	c0.035-0.057,0.182-0.346,0.379-1.642c0.639-4.217-0.781-8.671-2.534-7.958c-0.384,0.157-0.338,0.333,0.165,0.618
	c1.168,0.663,0.139,2.362-1.328,2.19c-2.077-0.243-2.549-3.168-0.72-4.461C90.621,131.787,92.969,134.242,93.591,136.454z
	 M79.412,132.941c0,0,3.685,2.269,3.881,2.851c0.125,0.374,0.275,3.628,0.275,3.628l-6.395-4.041l-9.168,5.721
	c0.149-1.256,0.81-4.488,0.81-4.488l4.876-3.113C73.715,133.686,77.063,135.916,79.412,132.941z M125.193,133.158
	c0.692-0.011,1.261,0.55,1.271,1.247c0.01,0.698-0.541,1.272-1.232,1.283c-0.691,0.01-1.261-0.546-1.271-1.244
	C123.951,133.746,124.502,133.168,125.193,133.158z M115.436,133.178c0.691-0.011,1.264,0.545,1.273,1.243
	c0.011,0.698-0.548,1.276-1.239,1.286c-0.692,0.011-1.257-0.549-1.267-1.247S114.743,133.188,115.436,133.178z M120.342,133.463
	c0.691-0.01,1.264,0.55,1.273,1.248c0.011,0.698-0.544,1.272-1.236,1.282c-0.691,0.011-1.26-0.55-1.27-1.247
	C119.099,134.048,119.649,133.474,120.342,133.463z M108.057,135.256c3.32,0.697,6.648,1.414,9.832,1.765l0.13,9.862l-0.931-0.055
	l-0.134-8.811c-3.074-0.223-5.975-0.889-8.698-1.6L108.057,135.256z M132.744,135.576l-0.172,1.159c0,0-5.744,1.003-8.744,1.395
	c-0.049,1.984-0.043,8.617-0.043,8.617l-1.147,0.213l-0.004-10.04C126.04,136.547,129.442,136.16,132.744,135.576z M77.162,136.133
	l6.762,4.512l0.797,4.781l-7.884-5.288c0,0-7.146,4.855-9.82,6.656l0.815-4.508L77.162,136.133z M108.378,137.024
	c2.723,0.582,5.444,1.186,8.167,1.422l0.115,7.935l-1.252-0.337l-0.1-6.438c-2.126-0.187-4.31-0.602-6.506-1.07L108.378,137.024z
	 M132.461,137.261l-0.229,1.077c0,0-4.356,0.663-6.605,1.07c-0.198,0.046-0.126,6.983-0.126,6.983l-1.075,0.166l-0.126-8.1
	L132.461,137.261z M120.257,138.148c0.692-0.01,1.257,0.55,1.267,1.248s-0.54,1.272-1.232,1.282c-0.691,0.011-1.26-0.546-1.27-1.243
	C119.011,138.737,119.565,138.159,120.257,138.148z M77.059,141.011l7.994,5.447c0,0,0.928,2.836,1.125,4.407l-9.199-5.995
	l-11.512,7.702l1.332-4.759L77.059,141.011z M28.602,141.177c0.475,0.007,0.948,0.327,1.194,1.063
	c0.347,1.035,0.994,1.342,2.698,1.31c3.345-0.18,6.851-1.767,10.008-0.575c1.533,0.57,2.08,2.854,0.795,3.449
	c-1.395,0.646-1.988,0.24-2.472-0.865c-0.446-0.47-1.002-0.396-3.999,0.124c-1.322,0.216-2.876,0.41-4.183,0.518
	c-3.342,0.272-5.187-0.79-5.603-2.797C26.775,142.119,27.812,141.166,28.602,141.177z M120.188,143.02
	c0.691-0.01,1.26,0.546,1.271,1.244c0.01,0.698-0.545,1.276-1.236,1.286s-1.261-0.55-1.271-1.248
	C118.941,143.604,119.496,143.03,120.188,143.02z M95.695,144.561c0.9-0.013,1.641,0.715,1.654,1.623
	c0.013,0.908-0.708,1.655-1.607,1.669c-0.9,0.013-1.637-0.715-1.65-1.623C94.079,145.321,94.796,144.574,95.695,144.561z
	 M77.07,145.712c0,0,6.579,4.437,9.625,6.485l1.684,4.883l-11.205-7.354l-13.711,9.004l1.645-5.021L77.07,145.712z M124.57,147.238
	c0.597,1.622,1.679,2.858,2.824,4.113c0,0-0.638,1.22-2.912,1.147c-1.243-0.039-1.31,0.157-1.734,1.008
	c-0.696,1.078-1.264,1.782-1.714,2.133c-0.797,0.619-2.29-0.306-3.521-2.187c-0.449-0.686-0.635-0.847-1.986-0.819
	c-2.076,0.044-2.828-0.537-1.749-1.479c0.94-1.155,1.615-2.427,2.456-3.643l0.935,0.108c0.039,0.14-0.726,2.475-1.803,3.423
	c-0.546,0.622,0.219,0.849,1.554,0.563c0.847-0.257,1.064-0.156,1.691,1.151c1.307,2.494,1.986,2.374,3.536-0.154
	c0.542-1.129,0.521-1.241,2.009-0.916c1.599,0.163,2.08-0.04,1.424-0.603c-1.326-1.136-2.059-3.816-2.059-3.816L124.57,147.238z
	 M77.127,150.579c0,0,11.898,7.866,11.868,7.694l2.384,5.671l-13.965-9.375l-17.061,11.198l2.553-5.612L77.127,150.579z
	 M77.587,155.744l4.148,2.754l-0.012,4.956l-4.236-2.874L77.587,155.744z M76.523,155.887l0.076,4.891l-3.72,2.236l-0.207-4.589
	L76.523,155.887z M71.805,159.039l-0.035,0.189l0.088,0.046l0.031,0.004l0.134,4.407l-4.278,2.994l0.016-4.979L71.805,159.039z
	 M82.761,159.093l3.899,2.627l0.161,5.245l-4.232-2.796L82.761,159.093z M87.575,162.295l3.911,2.743l0.138,5.237l-3.995-2.715
	L87.575,162.295z M66.875,162.314l-0.02,4.84l-3.892,2.743l-0.184-4.944L66.875,162.314z M108.037,168.561
	c-0.771,0.813-1.057,0.712-1.718-0.63c-0.687-1.392-1.716-2.042-3.207-2.017c-1.882,0.033-0.651-1.212,1.343-1.359
	C107.904,164.401,109.654,166.737,108.037,168.561z M61.904,165.722l0.104,4.855l-3.873,2.031l-0.119-2.302l1.994-3.52
	L61.904,165.722z M56.91,172.211l0.134,0.885l-0.716,0.278L56.91,172.211z M103.518,207.208c-16.298,3.52-31.924,2.276-43.137,0.182
	l-5.124,8.838l-0.353-0.016l-1.32,2.287l0.142,0.263c0,0-4.257,8.246-6.05,10.847c20.945-0.204,66.922-0.306,66.922-0.306
	l-2.802-5.686l0.153-0.154l-2.768-5.938l-0.898-1.027c0,0-0.55-1.073-0.961-2.225c-0.379-1.061-2.002-3.964-2.002-3.964l-0.229,0.02
	L103.518,207.208z M60.971,208.452c0.216,0.173,20.876,4.103,42.291,0.065l1.171,1.978c-18.742,4.354-45.86,0.195-44.79-0.209
	L60.971,208.452z M61.326,212.342c1.889-0.068,3.803,0.956,5.094,2.665c0.41,0.544,1.083,2.147,1.083,2.147s0.903-1.511,1.791-2.268
	c1.341-1.144,3.081-2.099,5.599-2.008c2.317,0.083,4.869,1.35,7.172,5.01c0.581-2.112,8.196-9.288,14.47-0.34
	c0.718-2.378,4.074-7.127,9.51-3.809c0.371,0.802,0.754,1.684,0.754,1.684c-3.208-2.268-8.497-0.746-9.747,2.793
	c-0.112,0.432,0.029,0.655,0.195,1.074c1.652,2.385-2.648,2.327-1.374,0.397c0.238-0.438,0.258-0.8-0.122-1.375
	c-1.01-1.525-4.045-3.425-6.273-3.376c-2.572,0.057-5.423,1.779-6.375,3.345c-0.352,0.578-0.432,1.156-0.123,1.661
	c0.225,0.51,0.148,0.936-0.229,1.248c-0.886,0.733-1.999-0.112-1.573-1.197c0.281-0.479,0.238-1.064-0.336-1.878
	c-1.153-1.634-3.844-3.355-6.185-3.307c-3.351,0.078-6.735,2.515-6.521,4.52c0.094,0.882-0.145,1.21-0.857,1.108
	c-0.867-0.123-0.965-0.949-0.353-1.622c0.091-0.216,0.237-0.738-0.042-1.12c-3.538-4.83-8.836-3.422-10.05-2.341
	C58.013,213.313,59.659,212.401,61.326,212.342z M58.177,215.694c1.327,0.011,2.758,1.024,3.21,1.815
	c0.328-0.343,3.332-1.789,4.792,0.278c-3.823-0.291-3.87,3.805-1.045,4.199c-1.288,3.95,4.487,4.189,4.122,0.479
	c4.315,0.644,3.783-4.878-0.279-4.295c2.128-1.564,3.576-1.06,6.135,0.733c0.859-1.13,4.365-2.186,5.227-0.212
	c-4.019-0.251-3.334,4.447-0.332,4.488c-0.893,3.256,5.013,4.453,4.102-0.409c3.748,0.265,3.205-4.846-0.387-4.423
	c0.267-0.931,3.912-1.332,5.523,0.443c1.479-1.363,3.113-2.297,6.065-0.348c-4.024-0.677-4.075,4.597-0.337,4.28
	c-0.349,3.492,4.936,3.551,4.053-0.482c4.023-1.097,1.811-5.442-1.145-4.245c1.315-1.579,3.549-0.835,4.436-0.515
	c2.738-3.163,5.124-0.518,5.124-0.518c-4.766-0.502-3.729,6.354,0.915,3.867c-0.005,1.41,0.596,2.632,2.491,2.831l2.254,4.709
	l-63.874,0.425l3.523-6.257c0.356,0.113,2.394,0.301,2.832-2.109c4.197,1.344,4.479-3.59,1.344-4.369
	C57.305,215.797,57.734,215.69,58.177,215.694z M55.686,217.479c0.417,0.677,0.067,1.117-0.65,1.136
	C55.035,218.615,55.502,217.93,55.686,217.479z M108.232,218.352l0.414,0.877C108.199,219.046,108.145,218.853,108.232,218.352z"/>
<path d="M130.728,223.552c7.819-0.17,11.326-8.974,5.534-15.811c-0.84-0.998-0.926-1.57,0.612-0.612
	c3.899,2.607,11.375,0.894,11.758-7.077c0.474-9.822-13.25-12.651-15.827-2.208c-0.136,1.102-1.031,1.076-0.815-0.487
	c0.235-4.245,1.562-8.213,3.384-12.082c-3.072,0-6.504,0-9.297,0c1.822,3.869,3.148,7.837,3.383,12.082
	c0.217,1.563-0.68,1.589-0.815,0.487c-2.577-10.443-16.3-7.614-15.827,2.208c0.383,7.971,7.859,9.685,11.759,7.077
	c1.538-0.958,1.451-0.385,0.611,0.612c-5.791,6.836-2.285,15.641,5.534,15.811h0.009H130.728z"/>
<path d="M48.271,27.045c7.819,0.17,11.325,8.974,5.534,15.811c-0.84,0.997-0.927,1.569,0.611,0.611
	c3.899-2.607,11.376-0.894,11.759,7.078c0.473,9.821-13.25,12.651-15.827,2.207c-0.136-1.102-1.031-1.076-0.815,0.488
	c0.234,4.245,1.561,8.213,3.383,12.082c-3.071,0-6.504,0-9.296,0c1.821-3.869,3.147-7.837,3.383-12.082
	c0.216-1.564-0.68-1.59-0.815-0.488c-2.577,10.444-16.3,7.614-15.827-2.207c0.383-7.972,7.859-9.686,11.759-7.078
	c1.537,0.958,1.451,0.386,0.611-0.611c-5.791-6.837-2.285-15.641,5.534-15.811h0.009H48.271z"/>
</svg>
