<?xml version="1.0" encoding="utf-8"?>
<!-- Generator: Adobe Illustrator 16.0.0, SVG Export Plug-In . SVG Version: 6.00 Build 0)  -->
<!DOCTYPE svg PUBLIC "-//W3C//DTD SVG 1.1//EN" "http://www.w3.org/Graphics/SVG/1.1/DTD/svg11.dtd">
<svg version="1.1" id="Layer_1" xmlns="http://www.w3.org/2000/svg" xmlns:xlink="http://www.w3.org/1999/xlink" x="0px" y="0px"
	 width="178.58px" height="249.45px" viewBox="0 0 178.58 249.45" enable-background="new 0 0 178.58 249.45" xml:space="preserve">
<path fill="#FFFFFF" d="M10.107,1.32h160.777c4.696,0,8.504,3.808,8.504,8.504v231.644c0,4.696-3.808,8.504-8.504,8.504H10.107
	c-4.697,0-8.504-3.808-8.504-8.504V9.824C1.604,5.128,5.41,1.32,10.107,1.32z"/>
<path fill="none" stroke="#000000" stroke-width="1.0006" d="M10.107,1.32h160.777c4.696,0,8.504,3.808,8.504,8.504v231.644
	c0,4.696-3.808,8.504-8.504,8.504H10.107c-4.697,0-8.504-3.808-8.504-8.504V9.824C1.604,5.128,5.41,1.32,10.107,1.32z"/>
<path fill="#131F67" d="M25.492,20.721c0.067,63.295-0.047,140.913,0,209.852h130.02V20.721H25.492z M63.546,21.911
	c22.439,0.613,45.018-0.05,67.624,0.128c0,0-8.213,14.405-10.703,18.938c-0.545,0.997-0.601,1.703-0.307,2.116
	c0.454,0.64,0.417,1.722-0.092,2.348c-0.218,0.268-0.317,0.441-0.334,0.603c-0.017,0.16,0.127,0.335,0.242,0.625
	c0.401,1.381-0.636,2.337-1.723,2.78c-0.729,0.297-2.35,0.493-3.547,0.437c-7.501-0.358-22.214-6.742-28.275-7.24
	c-4.207-1.183-9.643-0.769-14.123-0.513c-0.846,0.051-0.698-1.935-0.698-1.935C70.904,33.64,66.291,27.931,63.546,21.911z
	 M132.389,22.634h21.463v3.348l-9.084,9.208c-0.841,0.861-1.504,1.576-1.504,1.576l-0.053,8.309
	c-6.083-3.291-7.295-7.223-8.406-11.549c-10.167,7.554-10.644,24.083,0.457,32.593c0.091-3.696,2.888-10.96,7.846-11.499
	l0.068,28.793l-6.097-5.996l-13.256,0.173c2.185-3.57,2.234-6.406,0.82-9.753c-2.384-5.468-6.061-17.95-5.778-17.908
	c0,0,0.105-0.269,0.406-0.336c1.099-0.246,1.798-1.314,1.484-2.599c-0.061-0.413-0.058-0.315,0.222-0.853
	c1.079-1.854-0.207-3.865-0.207-3.865L132.389,22.634z M62.059,22.634l7.956,14.533c0,0-0.104,0.664-0.062,1.054
	c0.063,0.562,0.25,1.061,0.568,1.583c0.211,0.347,0.366,0.819,0.414,1.255c0.079,0.719,0.079,0.72,1.123,1.668
	c0.22,0.199,0.262,0.322,0.181,0.529c-0.346,0.88-0.144,2.679,0.541,4.826c0.863,2.713,1.087,2.678-0.521,6.306
	c-0.336,0.758-0.741,1.769-1.178,2.699c-1.985,4.106-2.292,5.22,1.116,7.409c0.959,0.616,1.24,1.15,1,2.379
	c-0.188,0.965-0.227,1.582,0.234,2.127c0.299,0.354,0.569,0.411,0.494,0.684c-0.051,0.186-0.273,0.988-0.199,1.664
	c0.201,1.82-1.887,4.501-3.792,5.44c-0.381,0.272-0.49-0.061-0.706-0.44c-1.974-3.48-6.887-2.07-7.213,2.081
	c-0.086,1.098-0.053,1.574-0.333,1.808c-0.096,0.079-0.384,0.243-0.384,0.243s-7.353,4.814-12.029,7.29
	c-0.305,0.161-0.578,0.427-0.793,0.471c-0.249,0.051-0.434,0.005-0.587-0.15c-1.727-3.307-0.77-7.211-0.622-8.596
	c-0.037-0.49-0.453-0.579-1.081-0.586c-1.063-0.013-2.593,1.073-2.926,2.085c-0.282,0.86-0.464,1.417-0.721,1.413
	c-0.258-0.004-0.384-0.351-1.024-1.591c-1.332-2.58-1.538-2.907-2.783-4.405c-0.994-1.195-1.841-1.354-2.814-0.464
	c-0.678,0.619-0.655,0.081-1.231-0.231c-0.995-0.682-2.49-0.071-2.526,0.888c-0.031,0.806-0.038,1.41-0.848,1.464
	c-0.902,0.059-1.293,1.231-1.039,2.903c0.133,0.88,0.159,1.021-0.107,1.344c-0.872,1.052-0.986,1.778-0.506,3.247
	c1.367,4.187,3.349,7.004,5.211,10.812c0,0-4.597,2.703-7.405,4.274V22.634H62.059z M153.993,26.823l0.111,67.662l-10.154-10.05
	c0,0-0.198-12.967-0.188-18.268c0.011-5.301,0.087-10.602,0.066-11.587c-0.021-0.986,0.052-5.181,0.084-9.487
	c0.066-9.021-0.754-7.906,0.912-9.638L153.993,26.823z M134.148,34.936l0.561,1.633c-4.256,2.456-9.461,16.135,0.096,26.179
	l-0.191,2.069C124.596,55.668,126.449,42.548,134.148,34.936z M134.877,36.865c1.461,3.035,3.123,5.723,5.388,7.367
	c-1.22,2.933-1.744,6.167,0.322,10.529c-1.449,0.802-3.464,2.928-5.549,7.282C127.497,54.373,129.176,43.252,134.877,36.865z
	 M78.773,42.6c4.182,0.007,8.545,0.693,12.543,1.907c2.521,12.838,6.951,21.469,6.933,26.495c0,0-0.349-0.059-1.093-0.599
	c-1.822-1.324-4.214-0.585-5.495,1.101c-1.214,1.599,0.009,3.821-0.613,4.753c-1.179,1.738-4.209,4.952-4.717,4.846
	c-0.369-0.077-0.31-0.239,0.989-2.247c1.354-2.09,2.391-3.984,1.944-4.447c-0.189-0.197-0.29,0.218-1.3,1.984
	c-2.37,4.145-4.455,6.707-5.28,6.375c-0.387-0.156-0.187-0.5,1.568-2.835c1.982-2.637,2.532-4.286,2.335-5.016
	c-0.151-0.561-0.458,0.346-1.28,1.966c-0.877,1.715-2.462,3.625-3.743,5.459c-0.406,0.664-0.928,1.049-1.595,1.352
	c-0.495,0.217-1.283,0.569-1.741,0.51c-0.234-0.03-0.072-0.169,0.25-0.486c2.528-2.622,4.702-5.545,5.936-8.352
	c0.19-0.368-0.083-0.893-0.395-0.506c-1.893,3.352-4.526,7.534-7.386,9.379c-0.614,0.396-1.537,0.73-2.37,0.66
	c-1.408-0.041-0.91-0.356,0.372-1.186c2.744-1.775,6.595-6.879,7.217-8.684c0.146-0.427-0.017-0.67-0.288-0.641
	c-2.258,3.637-5.24,7.639-8.708,9.313c-1.869,0.902-4.226,1.08-5.384,0.51c-0.85-0.418-0.637-0.562,0.87-0.66
	c3.626-0.36,7.874-3.787,9.978-7.413c1.232-2.008,0.367-1.547-1.039,0.39c-2.4,3.306-7.167,6.475-10.123,6.225
	c-2.989-0.179-4.709-2.511-4.325-4.51c0.232-1.21,1.085-2.442,2.757-2.796c2.863-0.604,4.737,3.962,2.117,4.822
	c-0.893,0.294-1.232,0.071-0.909-0.289c1.944-0.856,1.08-3.208-0.56-3.448c-1.031-0.151-2.228,0.549-2.278,2.158
	c0.03,1.2,1.012,2.374,2.979,2.402c2.334,0.033,5.915-1.658,8.088-4.772c1.542-2.381,0.121-1.577-1.027,0.011
	c-1.015,1.401-4.291,3.362-4.541,3.29l0.111-1.614c0.051,0.279,5.044-3.163,4.751-5.726c-0.187-1.86,0.083-2.429,2.006-2.405
	c1.438,0.017,3.265,0.524,3.796,1.188c0.548,0.657,1.161,0.864,0.89-0.243c-0.44-1.797,0.087-2.094-0.947-1.753
	c-0.714,0.235-1.347-0.341-2.063-0.853c-0.787-0.563-1.783-0.805-2.972-0.761c-0.889,0.032-1.289-0.022-1.146-0.865
	c0.1-0.595,0.213-1.136,0.042-1.525c-0.278-0.634-1.39-1.288-2.646-2.22c-1.482-1.1-1.208-1.165,1.952-8.499
	c1.327-3.079,1.332-3.711,0.537-5.984c-1.258-3.593-1.455-5.031,0.9-5.533C76.004,42.673,77.379,42.598,78.773,42.6z M92.152,44.681
	l1.223,0.352c0.01,0.001,3.819,13.13,6.002,19.541c0.665,1.956,1.172,4.599,1.299,7.081c-0.059,3.419-1.971,5.871-4.302,6.14
	c-1.65,0.19-3.44-0.672-4.261-2.521c-0.691-1.759-0.17-3.833,1.822-4.548c3.447-1.239,5.973,3.191,2.592,4.556
	c-1.749,0.706-3.41-0.566-2.623-2.046c0.553-1.038,2.106-0.926,2.474,0.146c0.3,1.141,0.795,0.603,0.583-0.17
	c-0.642-2.462-3.782-1.882-4.034,0.386c0,2.81,3.055,3.47,4.878,1.892c1.412-1.261,1.56-3.54,1.207-5.518
	c-0.484-4.107-2.793-9.434-4.433-15.514C93.761,51.422,92.575,47.802,92.152,44.681z M140.824,44.827l2.297,0.915l-0.053,7.622
	l-1.948,0.676C138.571,50.118,140.691,44.831,140.824,44.827L140.824,44.827z M94.269,45.321l1.684,0.653
	c0.922,5.38,5.269,15.664,6.803,23.34c0.427,4.613,0.496,5.968-2.607,8.426v-0.035h-1.68c0,0-0.008-0.104,0.729-0.656
	c4.064-3.061,1.639-9.806,0.104-14.989C96.625,53.781,94.236,45.312,94.269,45.321z M78.535,45.858
	c-0.213,0.003-0.43,0.011-0.648,0.023c-2.538,0.137-2.955,0.301-2.963,0.856c-0.016,1.048,0.41,1.512,2.771,1.255
	c2.044-0.222,5.005,0.098,7.045,0.981c2.326,1.008,2.879,1.246,3.716,1.68c2.099,1.088,1.732,0.005-0.165-1.252
	C84.414,46.836,81.734,45.819,78.535,45.858z M96.854,46.229l1.58,0.606c0,0,0.417,1.24,0.566,1.95
	c1.538,6.868,5.72,14.592,6.209,22.626c0.11,2.633-0.338,5.088-2.255,6.274h-1.445c1.546-1.548,2.575-1.994,2.144-7.375
	C102.968,63.401,98.441,54.768,96.854,46.229z M99.656,47.345l1.457,0.541c1.678,9.274,9.997,23.133,4.701,29.819h-1.322
	c1.181-1.855,1.668-3.485,1.491-5.988C105.469,63.289,101.199,55.109,99.656,47.345z M102.099,48.198l1.568,0.482
	c2.13,9.397,10.312,24.797,4.479,29.056l-1.15-0.031C111.391,69.434,104.729,60.873,102.099,48.198z M104.833,49.074
	c0.481,0.271,1.17,0.399,1.694,0.553c1.65,7.105,4.668,14.093,6.04,20.711c0.462,3.623-0.327,6.336-2.589,7.367h-0.482
	c2.028-3.084,1.646-6.975,0.563-11.178C108.604,60.873,105.775,54.654,104.833,49.074z M80.123,49.198
	c-0.729-0.007-1.491,0.104-2.297,0.363c-0.826,0.313-0.725,0.969,0.042,0.834c0.26-0.046,0.719-0.128,1.023-0.182
	c1.882-0.33,4.2,0.353,7.01,2.065c0.679,0.414,1.416,0.813,1.599,0.95c0.517,0.388,1.067,0.386,0.879-0.108
	c-0.076-0.198-1.159-1.043-2.117-1.583C84.213,50.291,82.309,49.219,80.123,49.198z M107.498,49.816l1.58,0.243
	c2.972,13.751,9.494,22.296,3.915,27.398h-1.396c1.527-1.57,2.217-4.028,1.711-6.935c-0.517-2.967-2.039-7.675-3.302-11.815
	C108.542,53.908,107.363,49.85,107.498,49.816z M109.764,50.202l1.339,0.251c1.567,5.59,4.229,12.519,5.832,18.29
	c0.985,3.55,0.59,7.921-1.61,8.727l-1.131,0.02c1.867-2.513,2.134-5.13,1.28-8.515C113.723,62.028,111.072,55.966,109.764,50.202z
	 M118.023,50.21c1.353,5.795,4.598,14.636,5.764,17.688c1.552,3.118,1.086,7.733-1.246,9.561l-1.104,0.023
	c1.334-1.257,1.792-3.372,1.58-5.564c-0.601-6.196-4.956-14.79-6.534-21.391L118.023,50.21z M112.153,50.484l1.38,0.127
	c1.383,6.062,4.072,11.953,5.817,18.017c0.325,1.368,0.608,3.04,0.495,4.271c-0.239,2.579-1.3,4.613-2.232,4.613h-0.951
	c1.942-2.33,1.848-5.508,1.017-8.923C116.305,62.944,112.981,56.139,112.153,50.484z M76.211,50.515
	c-0.575,0.003-0.585,0.533,0.334,1.344c0.563,0.496,0.519,0.331,0.487,0.646c-0.137,1.342,0.073,2.57,0.621,1.188
	c0.146-0.369,0.36-0.785,0.575-0.733c0.405,0.126,0.199,0.876,0.395,1.255c0.331,0.669-0.021,0.832-0.824,0.626
	c-0.578-0.149-0.611,0.166-0.971,0.567c-0.628,0.702-0.525,1.122,0.441,0.903c0.159-0.036,0.295,0.01,0.418,0.039
	c0.302,0.069,0.578,0.262,1.296,0.814c0.924,0.709,2.231,1.654,3.079,1.799c1.359,0.231,1.056-0.424-0.057-0.854
	c-0.954-0.367-2.137-1.389-2.133-1.672c0-0.217,0.303-0.088,2.021-0.563c0.745-0.206,1.794-0.668,2.235-0.872
	c0.729-0.339,0.764-0.336,1.905-0.302c1.945,0.059,2.242-0.008,0.879-1.026c-2.756-2.059-6.433-3.399-8.383-2.545
	c-0.591,0.259-0.577,0.101-1.004-0.146C76.969,50.659,76.513,50.514,76.211,50.515L76.211,50.515z M115.654,50.7
	c1.91,7.409,5.604,14.047,6.504,21.074c0.203,2.01-0.132,3.974-1.791,5.672l-1.12,0.02c-0.164,0.003,1.563-2.687,1.415-4.989
	c0.045-1.228-0.09-2.545-0.438-3.846c-2.17-6.247-4.307-11.91-5.967-17.865L115.654,50.7z M81.283,53.149
	c0.434,0.08,0.438,0.291,0.297,0.547c-0.225,0.404-0.621,1.182-0.621,1.182s-0.528,0.104-0.637-0.031
	c-0.18-0.262,0.43-1.519,0.779-1.694L81.283,53.149L81.283,53.149z M82.484,53.372c0.059-0.001,0.13,0.029,0.242,0.073
	c0.5,0.199,1.368,0.607,0.993,0.923c-0.444,0.374-2.166,0.542-2.083,0.386l0.576-1.069C82.335,53.458,82.389,53.373,82.484,53.372z
	 M77.212,59.848l-0.11,0.03c-0.101,0.061,0.125,0.463,0.456,0.919c1.522,2.069-0.586,2.684-2.079,1.575
	c-1.417-1.109-3.605-1.005-3.29,0.159c0.111,0.41,0,0.609,0.794,0.621c0.703,0.011,0.885,0.05,1.519,0.486
	c2.425,1.67,5.557-0.565,4.026-2.961C78.238,60.225,77.523,59.829,77.212,59.848z M83.194,63.079c-0.88,0-1.437,0.661-0.334,0.859
	c3.938,0.712,1.297,4.822-1.479,2.704c-2.503-2.274-5.851-2.259-5.891-0.645c-0.008,0.406,0.013,0.42,0.605,0.533
	c1.396,0.265,3.479,0.904,4.276,1.309c0.469,0.238,0.962,0.461,1.097,0.494c1.668,0.61,3.807-0.183,4.229-1.597
	C86.086,65.442,85.773,63.079,83.194,63.079L83.194,63.079z M33.801,76.308c0.527,0.006,1.088,0.471,1.488,1.15
	c0.924,1.571,2.047,4.212,2.764,5.668c0.182,0.367,0.188,0.694,0.177,0.869c0.057,0.854,0.341,1.176,0.844,0.791
	c0.495-0.378,1.181-1.01,0.376-1.111c-0.81-0.614-1.261-1.517-0.76-2.066c0.369-0.404,0.225-0.667-0.072-0.683
	c-1.135-0.018-2.825-3.415-2.028-4.147c1.075-0.987,2.265,0.235,4.797,5.294c1.115,2.233,1.167,4.678,0.211,3.467
	c-0.325-0.305-0.259-0.146-0.641,0.814c-0.286,0.724-0.522,1.066-1.614,2.124c-1.33,1.288-2.137,2.306-2.167,2.529
	c-0.058,0.427,0.719,0.028,1.285-0.714c1.264-1.244,1.312-1.575,1.3,0.073c-0.011,1.49-0.087,1.763,0.18,1.753
	c0.416-0.016,0.639-1.195,0.832-2.618c0.232-1.281,0.894-1.928,1.994-2.642c0.303-0.195,0.308-0.33,0.25-0.896
	c-0.203-1.811,0.818-5.187,1.284-4.352c0.065,0.188,0.268,0.627,0.376,0.935c0.087,0.477,0.385,1.015,0.84,1.051
	c0.565,0.426,0.563,0.656,0.759,2.216c0.063,0.509,0.288,1.273,0.445,1.68c0.292,0.756,0.554,1.199,0.391,1.425
	c-0.103,0.111-0.321,0.32-0.321,0.32L37.57,94.74c0,0-0.724,0.403-0.985,0.514c-0.731,0.332-1.175,0.087-1.534-0.463
	c-1.953-2.93-3.294-6.221-4.667-9.256c-0.823-1.801-0.017-2.993,1.047-1.54c0.414,0.564,0.202,0.925,0,2.016
	c-0.037,0.197,0.146,0.122,0.487,0.177c0.538-0.058,0.798,0.426,0.778,1.248c-0.34,1.177,0.13,0.541,0.353,0.482
	c0.426,0.006,0.521,0.264,0.76,0.753c0.148,0.688,0.45,0.489,0.89,0.034c0.363-0.375,0.364-0.366-0.368-1.247
	c-1.266-1.38-3.02-4.496-3.475-6.394c-0.125-0.523-0.079-0.941,0.016-1.221c0.571-1.296,1.367-1.3,2.235,0.51
	c0.147,0.309,0.438,0.805,0.645,1.104c0.333,0.486,0.54,0.903,0.528,1.676c-0.256,0.647-0.298,0.661-0.076,0.749
	c0.551,0.219,1.528,1.221,1.572,2.116c0.045,0.91,0.198,1.394,0.909,0.854c0.811-0.616,0.466-0.863-0.334-1.653
	c-0.837-1.004-0.888-1.874-0.392-2.598c0.082-0.244,0.048-0.313-0.26-0.282c-0.973,0.095-1.919-1.146-1.243-2.089
	c0.312-0.553,0.274-0.695-0.165-0.711c-0.229-0.008-0.607,0.036-0.793-0.069c-0.288-0.543-0.889-1.302-0.883-1.923
	c0.284-0.873,0.724-1.226,1.189-1.22H33.801z M91.576,76.354c1.599,0.987,3.182,2.015,4.978,2.482
	C92.393,86.383,85.7,90.427,80.1,92.007c0.19,0.966,0.326,1.929,1.254,2.521c-0.031-0.146-0.443-1.86-0.353-2.213
	c7.715-1.983,14.507-9.594,16.243-13.518l33.905-0.371c-25.135,24.278-26.137,58.448-5.629,87.089l-2.358,1.386
	c-15.803-23.834-15.642-46.798-10.902-62.176c3.361-10.903,9.391-19.233,13.974-23.993c0,0-18.383-0.255-27.532,0.085
	c-1.329,2.048-2.565,3.72-4.353,5.652c0,0,4.649-4.521,4.528-5.305c8.48-0.005,17.225-0.498,25.692,0.097
	c-9.909,11.941-14.794,24.269-15.642,35.865c-0.031,1.509-0.122,0.666-0.617,1.221l-1.564,2.444l-1.254-2.541
	c-0.853-0.277-2.529,0.17-3.24-0.089c-3.486,15.661,0.037,34.563,4.625,46.897c0,0-1.152,0.649-2.569,0.541
	c-1.552-0.347-1.931,0.084-3.274,0.358c-1.546,0.297-2.086,0.295-2.428,0.688c-0.19,0.219-0.535,0.524-0.924,0.737
	c-3.766,1.378-8.184,6.541-8.184,6.468l-4.146-1.873c3.819-7.552,8.302-10.27,16.183-13.622l-0.732-3.374
	c-8.393,3.147-13.734,6.917-17.946,14.239c-5.11-0.073-25.813-0.22-25.834-0.154c8.444-9.669,15.102-24.253,15.829-35.623
	c0.179-2.214-0.129-1.149,0.844-1.811l1.53-1.834l1.2,1.807c0,0,0.869,1.114,1.419,0.186c1.54-15.855-0.089-33.936-7.677-46.538
	c1.346-0.09,2.687-0.127,3.977,0.641c2.968,6.768,4.717,15.128,5.476,21.395c0.961,7.932,0.825,16.879-0.153,24.476l0.506,0.07
	c1.479-9.874,0.979-20.375-0.379-29.554c-0.697-4.788-2.94-12.277-4.483-15.734c-0.426-0.955-0.757-1.202-0.353-1.344
	C84.005,84.42,88.255,81.313,91.576,76.354z M65.938,77.188c0.708,0,1.28,0.578,1.28,1.29s-0.572,1.289-1.28,1.289
	c-0.707,0-1.28-0.577-1.28-1.289S65.231,77.188,65.938,77.188z M135.438,77.844c-2.708,2.468-4.883,5.024-7.168,7.75
	c6.763,9.363,14.277,19.513,20.596,27.622c0,0,2.188-1.305,2.179-1.467c-0.008-0.086-0.175-0.517-0.215-0.421
	c-0.094,0.225-1.771,1.17-1.771,1.17l-19.997-26.426c0,0,1.084-1.307,1.419-1.719c1.554-0.514,5.877-5.906,6.089-5.795
	c3.388,2.613,13.604,13.689,17.539,17.086l0.051,30.746c-0.407,1.229-11.3,5.971-18.993,23.657
	c-3.868,2.183-8.154,3.356-12.14,5.255c0,0,1.014,1.606,1.511,2.046c-0.609-1.324-0.717-1.577,0.663-2.143l28.786-11.815
	l-0.053,2.387c-2.887,2.248-21.977,16.153-27.848,19.438c-27.544-38.667-9.985-71.731,6.066-87.193L135.438,77.844z M45.742,79.933
	c0.751,0.013,0.562,1.769,0.283,2.375c-0.555,0.439-1.109,0.049-1.097-0.772c0-0.268-0.048-0.521-0.115-0.563
	C44.396,80.704,45.094,79.924,45.742,79.933z M62.564,81.029c0.633,0.484,0.866,1.128,1.1,1.772
	c-0.854-0.135-3.139-0.795-2.066-1.309L62.564,81.029z M58.403,83.312c19.866,30.252,18.977,62.382-3.194,86.737l28.051-0.043
	c3.57-7.094,9.518-11.418,17.129-14.082l0.663,2.229c-8.747,2.827-13.172,7.514-16.692,14.008H50.906
	c12.854-13.925,18.741-25.688,19.668-41.6c0.883-15.154-2.946-28.994-14.575-45.646L58.403,83.312z M64.002,83.659l4.686,2.228
	l-0.693,4.842l-4.909-2.277L64.002,83.659z M55.555,85.018c25.054,38.163,14.309,65.007-5.695,87.348l-3.685,0.062l-8.59-8.035
	l0.157,48.824c0,0-8.375,8.261-9.337,9.251c-0.95,0.922-1.664-0.494-1.664-0.494l0.022-64.724l0.373-2.537l0.114-13.946l5.338-2.834
	l20.017,26.418c0,0-0.804,1.193-1.177,1.405c0.427,0.962,1.847-1.437,1.967-1.822c-7.261-9.058-20.761-26.793-20.761-26.793
	l-5.621,2.954c0,0,0.163-11.579,0.062-16.023c0.216-1.049,0.996-0.768,1.522-1.236c7.311-4.782,13.337-11.65,18.463-23.371
	c3.896-1.277,7.983-3.09,11.896-4.719l-5.634-8.514L55.555,85.018z M40.201,85.505c-0.211-0.003-0.749,0.243-1.477,0.907
	c-1.343,1.227-3.112,3.242-3.117,3.625c0.359,0.131,0.679-0.077,0.966-0.37c1.123-1.669,2.859-2.322,3.877-3.784
	C40.608,85.612,40.441,85.501,40.201,85.505z M52.82,87.277c0,0,3.888,5.701,4.882,7.216c-10.243,4.084-20.961,9.478-30.454,12.966
	v-2.285C27.248,105.174,45.077,91.713,52.82,87.277z M68.06,91.045l3.83,1.993l-1.081,4.351l-3.865-2.177L68.06,91.045z
	 M71.219,98.285l3.148,2.309l-1.438,3.691l-3.171-2.197L71.219,98.285z M45.531,100.992c0,0-0.485,1.711-1.301,3.243
	c-3.896,6.815-7.707,12.872-15.583,18.132c-0.3-0.269-1.158-1.78-1.158-1.78l-0.077-2.02c4.176-3.377,7.78-5.856,13.311-15.769
	l1.603-0.656l1.365,0.595l0.925-1.661L45.531,100.992z M61.916,101.007c-3.629,7.754-7.201,15.751-12.984,21.793l15.826,22.243
	C69.965,129.338,68.032,114.618,61.916,101.007z M42.003,102.698l-0.759,1.324l1.315,0.765l0.759-1.324L42.003,102.698z
	 M39.855,102.841c-2.867,6.455-7.17,11.421-12.818,14.993l-0.219-9.472L39.855,102.841z M40.864,104.768l-0.759,1.324l1.314,0.765
	l0.76-1.324L40.864,104.768z M73.209,105.046l2.854,2.726l-1.695,3.008l-2.926-2.436L73.209,105.046z M116.916,106.386l-0.008,0.008
	c-5.014,15.692-3.509,30.681,3.37,43.728c3.375-8.457,6.146-14.117,12.735-23.12C128.956,121.651,117.323,106.217,116.916,106.386z
	 M39.744,106.637l-0.797,1.301l1.292,0.804l0.798-1.302L39.744,106.637z M61.621,108.467c4.52,10.88,4.121,20.689,1.718,29.19
	L52.05,123.298C56.186,118.128,58.933,113.233,61.621,108.467z M38.579,108.506l-0.855,1.262l1.254,0.865l0.855-1.267
	L38.579,108.506z M37.317,110.313l-0.936,1.209l1.196,0.941l0.936-1.208L37.317,110.313z M74.509,111.599l2.558,2.443l-1.614,3.17
	l-2.596-2.39L74.509,111.599z M35.841,112.193l-0.981,1.162l1.154,0.988l0.981-1.162L35.841,112.193z M118.3,112.536l11.39,14.796
	c-3.811,4.565-6.976,9.944-9.806,15.742C116.711,133.063,115.278,123.226,118.3,112.536z M34.242,114.034l-1.051,1.104l1.096,1.059
	l1.051-1.104L34.242,114.034z M60.847,115.514l-5.212,7.587l5.975,7.68C62.252,126.623,62.396,121.797,60.847,115.514z
	 M32.543,115.761l-1.119,1.034l1.027,1.128l1.119-1.035L32.543,115.761z M30.898,117.239l-1.182,0.966l0.959,1.188l1.178-0.965
	L30.898,117.239z M75.406,118.023l2.14,2.518l-2.17,2.591l-2.032-2.302L75.406,118.023z M102.609,118.475l1.453,0.055
	c-2.384,23.673,2.301,35.65,6.445,46.067c0,0-0.009,0.417-0.148,0.54c-0.676,0.234-2.042,0.487-3.137-0.482
	C101.646,150.223,100.43,132.445,102.609,118.475z M28.984,118.78l-1.23,0.896l0.89,1.239l1.23-0.896L28.984,118.78z
	 M120.072,119.622c-0.37,0-0.691,9.739,0.701,14.494l5.242-7.15L120.072,119.622z M106.521,121.228l1.752,2.371l-1.859,2.552
	l-1.902-2.417L106.521,121.228z M27.563,121.873c0.088-0.015,0.231,0.232,0.514,0.428c0.262,0.276,0.224,0.256-0.069,0.491
	c-0.459,0.367-0.596,0.309-0.587-0.267C27.459,122.052,27.493,121.884,27.563,121.873L27.563,121.873z M75.51,123.652l1.937,2.792
	l-2.144,2.776l-1.833-2.923L75.51,123.652z M106.367,127.189l2.039,2.502l-1.752,2.745l-2.228-2.621L106.367,127.189z
	 M153.602,127.719l0.18,2.884l-0.705-1.054l-1.296,1l0.905,1.208l1.131-0.888l0.069,1.162c-7.185,5.229-10.284,11.233-13.198,15.738
	l-1.297,0.552l-1.477-0.471l-0.721,1.286l-1.254,0.297c-0.038-0.008,2.518-5.521,6.891-11.132
	C146.725,133.306,153.581,127.673,153.602,127.719z M154.434,132.232l0.062,10.255l-12.857,5.001
	C144.975,141.764,148.909,136.45,154.434,132.232z M151.239,130.985l-1.173,0.969l1.012,1.17l1.17-0.969L151.239,130.985z
	 M149.434,132.529l-1.132,1.016l1.055,1.131l1.132-1.022L149.434,132.529z M106.497,133.097l2.424,2.599l-1.775,3.07l-2.523-2.437
	L106.497,133.097z M147.607,134.189l-1.062,1.093l1.162,1.124l1.062-1.093L147.607,134.189z M145.937,135.916l-1.021,1.135
	l1.234,1.077l1.021-1.135L145.937,135.916z M144.257,137.851l-0.947,1.196l1.284,1l0.947-1.2L144.257,137.851z M107.329,139.688
	l3.029,1.98l-1.479,3.63l-3.025-2.321L107.329,139.688z M142.792,139.703l-0.89,1.244l1.369,0.941l0.9-1.285L142.792,139.703z
	 M141.423,141.665l-0.825,1.286l1.385,0.896l0.82-1.328L141.423,141.665z M140.199,143.607l-0.759,1.324l1.434,0.822l0.76-1.34
	L140.199,143.607z M139.095,145.615l-0.759,1.324l1.588,0.691l0.628-1.263L139.095,145.615z M108.971,146.434l3.102,2.116
	l-1.372,3.803l-3.275-2.332L108.971,146.434z M153.851,150.175v78.388h-33.897c0,0-1.598-2.84-4.939-9.377
	c-1.415-2.768-2.611-3.943-2.734-6.136c0.128-1.287-0.463-2.747-1.511-3.336c-0.353-0.197-0.94,0.041-0.744-0.51
	c0.217-0.606-0.447-1.539-0.629-1.737c-0.206-0.351-0.077-0.437-0.1-1.741c-0.021-1.262-0.088-1.789-0.356-2.741
	c-0.679-2.407-0.83-3.609-0.441-4.857c1.009-3.166,2.061-5.594,3.421-8.545c0.791-1.728,0.671-2.402-1.756-3.656
	c-1.817-0.939-2.059-0.93-1.829-2.302c0.107-0.643,0.207-1.048,0.072-1.359c-0.082-0.189-0.384-0.454-0.56-0.605
	c-0.237-0.204-0.166-0.626,0.076-0.938c0.238-0.308,0.24-0.746,0-1.479c-0.496-1.541,0.627-3.582,2.749-4.993
	c0.938-0.623,0.912-0.494,1.891,0.541c2.86,3.024,7.109,1.124,7.117-3.14c0-1.328-0.447-1.25,0.802-1.876
	c4.231-2.711,12.915-7.642,12.857-7.507c0.565,1.161,0.755,2.152,1.112,3.402c0.309,1.071,0.268,1.153,0.152,3.239
	c-0.104,1.886-0.16,2.323,0.28,2.444c2.507,0.277,3.078-0.615,3.559-2.243c0.208-0.72,0.607-0.573,0.855-0.271
	c0.953,1.747,2.159,3.564,2.952,4.807c0.99,1.587,2.658,2.375,3.532,1.626c0.184-0.616,0.335-0.636,1.441-0.382
	c1.342,0.307,2.106-0.45,2.235-1.444c0.052-0.396-0.235-0.381,0.483-0.772c1.782-1.328,1.103-3.143,0.836-4.235
	c0.023,0.058,0.762-0.452,0.778-1.476c0.085-5.311-4.485-12.958-4.383-12.761L153.851,150.175z M110.83,153.233l3.627,1.765
	l-0.854,4.362l-3.728-1.687L110.83,153.233z M146.128,154.854c2.089,2.439,3.6,6.506,4.379,9.155
	c0.385,1.319,0.432,2.825,0.088,3.034c-0.339,0.207-0.497-0.015-0.433-0.803c0.053-0.657,0.072-1.166-0.207-1.158
	c-0.812,0.211-0.843-1.026-0.76-1.316c0.056-0.194,0.155-0.331,0.199-0.437c0.2-0.479-0.322-0.414-0.863-0.421
	c-0.478,0.012-0.602-0.281-0.578-0.737c-0.014-0.507-0.68-0.408-1.059-0.023c-0.347,0.352-0.273,0.765,0.195,1.054
	c0.674,0.416,1.311,1.437,2.88,4.958c0.911,2.044,0.642,3.495-0.444,3.479c-0.754-0.022-1.631-2.099-2.34-3.629
	c-0.183-0.396,0.276-0.838,0.438-1.051c0.416-0.55,0.354-0.725-0.265-0.733c-0.579-0.009-0.824,0.043-1.174-0.676
	c-0.131-0.271-0.227-0.683-0.18-0.946c0.298-0.792-0.314-0.983-0.909-0.679c-0.749,0.314-0.743,0.987,0.398,2.089
	c0.736,1.215,0.544,1.131-0.153,1.949c-0.146,0.289-0.058,0.467,0.25,0.472c0.884-0.272,1.847,1.331,1.583,1.88
	c-0.271,0.236-1.011,1.092-0.295,0.927c1.455-0.398,2.342,1.747,1.484,2.476c-1.279,0.646-1.582,0.443-3.551-3.518
	c-0.611-1.23-1.348-2.553-1.438-2.688c-0.091-0.136-0.13-0.499-0.126-0.792c0.086-0.717-0.219-0.879-0.836-0.595
	c-0.465,0.112-0.884,0.496-0.295,0.861c0.686,1.192,0.929,1.385,0.552,1.688c-0.858,0.688-0.486,0.66,0.476,0.854
	c0.471,0.143,0.71,0.387,0.84,0.68c0.496,1.123,1.377,2.708,1.465,3.03c0.291,0.824-0.235,1.194-0.955,1.158
	c-0.754,0.019-1.099-0.581-1.465-1.093c-1.37-1.916-2.356-3.815-3.754-5.992l0.188-2.035c0,0,0.366,0.08,0.571-0.019
	c0.402-0.195,0.642-0.831,0.87-1.676c0.368-0.735,2.537-2.407,3.367-3.306c0.153-0.102,0.282-0.269,0.283-0.37
	c-0.008-0.329-0.94-0.109-1.557,0.603c-0.904,0.809-1.29,0.531-1.262-0.502c-0.089-1.276-0.861-0.637-0.9,0.609
	c-0.1,0.984-0.439,1.584-1.124,2.136c-1.291,1.04-1.076,0.776-1.016,2.22c0.104,2.518-0.86,4.589-1.492,3.217
	c-0.224-0.487-0.486-1.041-1.051-1.066c-0.399-0.018-0.597-0.411-0.816-1.386c-0.327-1.576-0.783-2.591-1.2-4.043L146.128,154.854z
	 M113.975,160.279l4.18,1.676l-0.782,4.402l-4.142-1.595L113.975,160.279z M145.844,160.686l-0.096,0.022
	c-1.178,0.896-2.264,1.901-3.547,2.672c-0.481,0.286-1.043,1.026-1.047,1.225c0,0.192,0.571,0.188,1.131-0.059
	c0.531-0.233,3.563-3.1,3.566-3.362C146.061,160.951,146.041,160.672,145.844,160.686z M107.463,166.029
	c0.988-0.003,0.412,0.293-1.744,1.799c-2.105,1.471-5.575,6.12-5.979,7.846c-0.183,0.783,0.311,0.845,0.867-0.231
	c2.556-4.947,7.392-9.468,11.818-9.267c2.168,0.098,3.34,0.688,1.545,0.945c-4.921,0.608-8.599,3.435-11.818,9.066
	c0,0.126,0.292,0.12,0.629-0.097c2.947-3.627,6.267-8.432,12.099-8.043c4.206,0.256,5.401,5.293,1.909,7.013
	c-3.044,1.498-5.852-2.152-3.328-4.317c0.819-0.703,1.331-0.395,0.545,0.324c-1.689,1.543,0.381,4.29,2.438,3.247
	c1.252-0.527,1.759-2.332,0.655-3.694c-2.455-3.031-7.742-0.727-11.427,4.17c-0.387,0.515-0.721,1.634-0.396,1.514
	c0.572-0.237,0.918-0.689,1.254-1.197c1.316-1.837,2.326-2.758,4.107-3.745c1.376-0.763,1.461-0.62,0.947,0.702
	c-0.217,0.558-0.391,0.743-0.924,1.089c-2.244,1.543-3.638,3.61-3.693,4.927c-0.041,0.962,0.658,2.218-0.1,2.476
	c-1.285,0.611-4.791,0.112-5.736-1.104c-0.681-0.875-0.945-0.368-0.434,1.054c0.337,0.939,0.322,1.471,0.832,1.375
	c0.645-0.344,1.086-0.263,2.335,0.425c0.603,0.331,1.67,0.641,2.32,0.791c1.186,0.275,1.433,0.159,1.407,0.676
	c-0.008,0.159,0.046,0.604,0.011,0.885c-0.192,1.556,1.099,2.085,2.856,3.108c1.028,0.598,0.623,1.212-0.567,4.174
	c-0.618,1.339-1.146,3.142-1.909,4.502c-0.713,1.528-0.774,3.201-0.314,5.108c0.854,3.539,1.467,5.337-0.054,5.656
	c-3.913,0.597-12.56,0.572-17.278-1.255c-1.207-9.122-7.604-22.656-6.783-26.155c1.637,2.485,8.502,1.827,6.434-5.12
	c0,0,0.563-0.848,1.68-1.988c2.882-2.943,3.593-3.43,2.225-0.838c-1.052,1.992-2.394,4.593-2.424,5.097
	c-0.023,0.401,0.287,0.495,0.529,0.174c0.18-0.238,0.393-0.815,0.579-1.255c1.717-4.048,4.652-7.697,6.676-8.576
	c0.521-0.226,0.495,0.016,0.135,0.46c-2.381,2.982-4.199,5.74-5.491,9.34c-0.058,0.371,0.465,0.526,0.633,0.174
	c2.232-4.712,2.9-5.781,5.645-9.101c1.078-1.305,2.082-1.963,2.883-1.892c0.693,0.062,0.488,0.176-0.153,0.864
	c-0.489,0.526-1.214,1.258-2.385,2.742c-2.065,2.617-4.144,6.875-3.378,6.652c0.131,0.354,0.783-0.777,1.334-1.857
	c1.51-2.552,3.112-5.924,6.698-8.142C105.922,166.217,106.74,166.037,107.463,166.029z M38.126,166.852l6.385,6.425l12.842-0.166
	c-2.118,3.313-0.986,8.45,0.181,11.452c2.288,5.885,5.642,15.6,5.396,15.742c0,0-1.868,0.482-2.036,1.676
	c-0.25,1.767,0.511,1.636-0.587,3.231c-0.247,0.358-0.088,1.036,0.176,1.575c0.175,0.395,0.341,0.989,0.016,1.452L49.17,228.563
	H27.466v-3.94l10.971-10.974l-0.131-8.074c5.871,1.758,7.887,7.856,8.391,12.375c10.604-9.744,10.343-24.415,0.321-33.618
	c-1.953,9.728-8.949,11.749-8.796,11.556L38.126,166.852z M117.989,168.006c0.688,0.05,1.614,0.161,2.243,0.502
	c-0.426,0.257-0.729,0.563-1.012,0.876C118.877,168.77,118.413,168.434,117.989,168.006z M135.79,168.075
	c0.571-0.001,1.273,1.683,0.87,2.077c-0.228,0.223-0.964,0.307-1.227,0.139C135.096,170.04,135.268,168.077,135.79,168.075z
	 M115.535,170.998c0.737,0,1.335,0.602,1.335,1.344s-0.598,1.344-1.335,1.344c-0.736,0-1.334-0.602-1.334-1.344
	S114.799,170.998,115.535,170.998z M59.056,172.913l0.962,0.023c-1.749,2.355-1.985,4.383-1.365,7.32
	c0.698,3.307,6.019,15.733,6.362,19.155c0.015,0.155,0.031,0.591,0.031,0.591l-1.308,0.089c0,0-0.098-0.354-0.139-0.49
	c-1.83-6.196-3.65-10.922-4.924-14.533C57.408,181.174,55.467,175.398,59.056,172.913L59.056,172.913z M66.088,172.937l0.023,0.004
	l0.924,0.008c-0.034,0.021-1.379,2.926-1.477,4.688c-0.109,1.998,0.371,4.174,1.028,6.321c1.553,4.646,3.825,9.819,5.089,15.684
	l0.152,0.637l-1.368-0.186l-0.149-0.683c-0.945-5.158-3.582-10.515-5.154-15.592c-0.806-2.308-1.365-5.145-1.077-7.313
	C64.282,174.975,65.807,172.967,66.088,172.937z M77.266,172.948c-0.979,1.526-1.869,3.438-1.932,4.938
	c-0.057,2.79,0.75,5.146,1.557,7.61c2.481,7.589,3.686,11.593,4.928,17.68l-1.319-0.567c0,0-0.052-0.342-0.081-0.44
	c-0.705-3.812-0.749-3.479-4.889-16.298c-0.971-3.076-1.895-5.774-1.714-8.336c0.041-1.459,1.306-4.349,2.638-4.579L77.266,172.948z
	 M78.85,172.948h1.231c0,0-0.679,0.723-0.875,0.992c-2.149,3.003-1.527,6.225-0.46,10.066c1.469,5.285,4.186,11.195,5.606,19.251
	c0.026,0.149,0,0.927,0,0.927l-1.465-0.595c-1.331-7.386-4.614-15.045-6.196-21.688c-0.931-3.901-0.666-6.366,1.483-8.491
	C78.714,172.992,78.85,172.948,78.85,172.948z M63.83,172.99h0.92c0,0-1.539,2.545-1.538,4.043
	c-0.257,2.682,0.707,5.645,1.813,8.749c1.701,4.772,3.95,10.543,4.641,13.58c0.027,0.119,0.119,0.664,0.119,0.664l-1.607-0.085
	c0,0-0.084-0.735-0.18-1.073c-1.854-6.531-3.661-10.756-5.791-16.719c-0.322-0.902-0.836-4.472-0.229-6.784
	C62.454,173.55,63.829,172.99,63.83,172.99L63.83,172.99z M61.364,172.994l0.993,0.027c0,0-0.149,0.271-0.529,0.927
	c-1.813,3.304-1,6.319,0.122,9.68c1.499,4.483,3.851,9.959,5.319,15.14c0.082,0.292,0.195,1.174,0.195,1.174l-1.435-0.02
	c0,0-0.291-1.055-0.311-1.17c-0.807-4.803-5.166-12.808-6.3-18.9C58.798,176.584,59.332,174.56,61.364,172.994z M74.666,172.994
	c0,0-1.566,2.736-1.71,4.26c-0.281,2.986,0.66,5.46,1.737,8.83c1.857,5.813,4.479,12.635,4.713,15.754
	c0.008,0.103,0.046,0.482,0.046,0.482l-1.614-0.579c0,0-0.072-0.326-0.104-0.44c-1.407-5.643-3.07-11.262-5.307-17.596
	c-0.552-2.137-1.276-4.287-1.213-6.123c0.328-2.453,0.743-3.115,2.194-4.568L74.666,172.994z M81.768,172.998l1.301,0.027
	c0,0-0.389,0.21-1.316,1.205c-5.128,4.719,3.192,18.041,5.112,30.171c0.021,0.13,0.08,0.587,0.08,0.587l-1.43-0.518
	c-0.136-0.604-0.237-1.34-0.403-2c-1.555-6.201-3.629-12.576-5.533-18.359c-1.068-4.215-1.458-7.926,0.461-10.001
	C80.64,173.394,81.768,172.998,81.768,172.998z M68.396,173.007l1.385,0.038c-1.001,1.264-1.588,3.23-1.642,4.981
	c-0.054,2.069,0.496,4.083,1.173,6.212c1.389,4.368,3.371,9.115,4.732,15.009c0.076,0.39,0.141,0.641,0.176,0.811
	c0.057,0.271,0.212,0.699,0.212,0.699l-1.462-0.294c0,0-0.15-0.382-0.249-0.583c-0.147-0.302-0.282-0.687-0.402-1.146
	c-0.708-3.074-3.312-10.051-4.896-14.942C66.165,180.708,65.822,175.319,68.396,173.007z M85.68,173.061
	c1.771-0.065,3.371,1.447,3.75,2.869c0.367,1.509-0.104,3.213-1.752,4.054c-2.676,1.364-5.555-2.265-3.444-4.263
	c1.601-1.514,3.967-0.394,3.451,1.545c-0.332,1.262-2.232,1.343-2.546,0.069c-0.086-0.424-0.297-0.847-0.449-0.614
	c-0.983,2.326,2.324,3.416,3.697,1.251c0.814-1.734-0.736-3.969-3.018-3.544c-3.129,0.582-3.489,4.58-2.19,9.243
	c1.813,7.371,6.136,17.284,6.128,21.835l0.016,0.247l-1.373-0.413l-0.02-0.143c-0.822-6.355-5.512-16.878-6.855-24.967
	c-0.583-3.688,0.844-6.365,4.053-7.097C85.313,173.092,85.496,173.067,85.68,173.061z M72.104,173.118
	c-0.963,1.296-1.592,3.243-1.622,4.634c-0.029,2.036,0.697,4.019,1.297,6.139c1.517,5.236,5.061,14.904,4.932,16.715
	c0.036,0.195,0.134,0.796,0.134,0.796l-1.369-0.409c0,0-0.055-0.087-0.157-0.336c-0.456-1.797-2.627-9.498-5.059-16.155
	c-0.935-2.677-1.391-4.762-1.326-6.537c0.197-2.448,0.894-3.471,1.959-4.834L72.104,173.118z M98.172,181.799
	c-3.548,0.203-3.206,4.559-1.008,5.297c0.787,0.219,1.248,0.029,1.373-0.143c0.142-0.196-0.018-0.496-0.533-0.571
	c-1.492-0.493-2.025-2.262-0.678-3.003c0.735-0.389,1.91-0.139,3.327,0.918c2.532,1.888,5.636,2.006,5.23,0.096
	c-0.098-0.463-0.297-0.525-2.151-0.779c-1.506-0.207-2.185-0.687-2.842-1.043C99.856,182.009,98.944,181.775,98.172,181.799z
	 M47.371,185.849c9.168,9.015,7.809,23.144-0.022,30.218c-0.161-0.571-0.504-1.971-0.541-1.931
	c5.89-6.171,8.663-16.286,0.138-26.653C46.99,187.521,47.135,186.733,47.371,185.849z M104.825,186.088l-0.229,0.035
	c-2.374,0.654-2.866,3.017-1.327,3.988c0.944,0.596,1.669,0.23,0.495-0.49c-1.007-0.618-0.511-2.242,0.709-2.224
	c0.533,0.008,0.896,0.241,2.251,1.247c1.115,0.828,2.166,0.894,2.404-0.229c0.143-0.669-0.08-0.966-0.79-0.791
	c-0.314,0.077-0.498-0.107-0.924-0.405C106.467,186.557,105.432,186.074,104.825,186.088z M46.424,187.856
	c8.264,9.657,5.611,19.729,0.039,25.631c-1.53-4.547-5.28-7.383-5.28-7.383c1.413-3.157,2.256-6.454-0.388-10.618
	C43.254,193.249,45.292,190.791,46.424,187.856z M100.112,191.382c-0.388-0.007-0.262,0.369,0.652,1.012
	c2.178,1.491,2.364,1.761,0.253,1.726c-0.535-0.031-1.373,0.351-1.848,0.51c-2.756,0.926-2.889,0.852-4.207,0.541
	c-0.439-0.104-0.885-0.289-1.077-0.112c-0.298,0.273-0.632,0.454-0.257,0.861c0.273,0.297,0.781,0.523,1.399,0.88
	c3.199,1.846,3.489,2.287,7.251,2.387c0.431,0.011,0.652-0.214,0.905-0.217c0.614-0.007,0.936,0.145,1.557,0.715
	c1.137,1.044,1.189,0.285,0.514-1.085c-0.354-0.719-0.665-0.89-0.491-1.437c0.396-1.246-0.168-1.494-0.908-0.391
	c-0.555,0.865-0.618,0.845-1.143-0.266c-0.696-1.388-0.369-2.027,0.686-1.124c0.801,0.685,1.005,0.176,1.315-0.366
	c0.409-0.714,0.348-1.354-0.383-1.298c-0.421,0.032-0.813-0.163-1.144-0.525C102.541,192.482,101.301,191.591,100.112,191.382z
	 M101.018,195.135l0.176,0.131c0.009,0.457-0.304,1.391-0.56,1.881c-0.081,0.219-0.222,0.246-0.418,0.286
	c-0.659,0.122-0.705-0.083-0.587-0.495c0.242-0.635,0.442-1.538,1.293-1.799L101.018,195.135z M99.342,195.451
	c0.268-0.02,0.275,0.093,0.169,0.336c-0.19,0.412-0.525,0.802-0.774,1.124c-0.529,0.344-1.389-0.708-1.009-0.98
	c0.531-0.212,0.931-0.43,1.484-0.464L99.342,195.451z M40.146,196.139c0.143,0,0.288,0.028,0.438,0.093
	c2,2.718,1.863,6.854,0.311,9.144c-0.115,0.171-0.234,0.201-0.43,0.135c-0.668-0.398-1.517-0.546-2.151-0.776v-7.958
	C38.967,196.637,39.53,196.137,40.146,196.139z M92.842,196.787c-0.152,0.008-0.216,0.112-0.023,0.313
	c2.916,2.124,6.929,4.587,10.63,3.633c0.34-0.074,0.614-0.261,0.549-0.614c-0.041-0.219-0.417-0.409-0.825-0.301
	c-0.849,0.226-2.476,0.255-3.144,0.146c-2.546-0.42-4.794-2.06-6.749-3.02C93.134,196.834,92.961,196.782,92.842,196.787z
	 M91.99,198.814c-0.13-0.006-0.12,0.125-0.038,0.371c0.411,1.23,4.537,4.098,7.796,5.046c2.799,0.814,6.818,0.014,6.584-1.324
	c-0.122-0.698-0.631-0.864-2.415-0.637c-3.932,0.769-7.716-0.85-10.588-2.649C92.555,199.131,92.158,198.822,91.99,198.814z
	 M66.245,200.498c1.717-0.021,3.42,0.12,5.261,0.429c3.583,0.615,7.734,1.732,11.247,3.37c5.97,2.257,13.476,3.997,19.845,3.762
	c1.555,0.043,4.364-0.09,4.908-0.271c1.42-0.321,1.813-0.017,2.151,1.757c0.06,0.386,0.178,0.498,0.671,0.834
	c0.754,0.514,0.628,1.022,0.537,2.158c-0.078,0.955,0.496,1.492,2.795,5.765c2.617,4.863,5.169,10.514,5.169,10.514
	c-22.938-0.016-44.821-0.872-68.29-0.139c2.11-5.039,7.865-14.126,11.472-21.421c-0.872-2.244,0.205-2.626-0.247-3.158
	c-0.73-1.247-0.203-2.997,1.341-3.391C64.181,200.582,65.215,200.511,66.245,200.498z"/>
<path fill="#E2CF00" d="M50.807,228.833c0,0,7.518-15.301,10.684-19.885c4.557-5.816,25.124,2.527,35.353,4.612
	c4.157,0.807,13.794,0.429,13.794,0.429l8.055,14.618L50.807,228.833z M35.199,211.447l-0.319-47.633l2.354,1.479l0.54,47.847
	l-10.172,9.807l-0.057-2.873L35.199,211.447z M41.355,206.013c2.423-4.91-0.282-10.906-0.281-10.904
	c1.404,0.349,5.32-7.134,5.669-6.918c5.993,7.401,7.032,18.429-0.291,25.263C44.604,208.703,41.379,206.013,41.355,206.013z
	 M45.829,172.323c4.554-4.687,8.165-8.336,11.774-13.58c0.295-0.427-19.213-25.377-18.91-25.814c3.01-3.35,7.044-5.81,10.183-9.854
	c0,0,15.999,21.089,16.367,20.903c1.621-6.6,2.808-12.574,2.498-19.473c-0.987-17.648-8.478-28.453-8.535-28.241
	c-2.532,16.216-27.425,40.776-32.326,39.026l-0.028-11.331c0.297,0.566,15.77-10.025,19.85-24.022
	c0.294-1.006,12.301-4.875,12.217-5.022c-0.508-1.314-5.761-8.796-5.761-8.796s2.122-0.995,2.357-0.992
	c6.809,8.524,11.946,19.755,13.694,30.448c2.121,11.518,3.492,33.171-19.445,56.818L45.829,172.323z M114.592,142.526
	c-3.589-11.218-3.491-22.831-1.841-30.939c2.519-14.692,11.74-25.214,19.137-33.235l3.209,0.001c0,0-3.836,3.997-5.232,5.452
	c-2.396,2.768-5.865,8.54-5.865,8.54l19.142,25.193l10.911-2.374c0,0-0.329,11.27,0.01,11.27
	c-8.479,7.067-14.574,13.464-18.948,23.761c-2.682,0.999-11.57,4.857-11.57,4.857c-4.227-1.04,12.573-27.561,9.379-28.011
	c-1.316-1.093-15.889-20.886-16.173-20.845c-6.718,20.708-0.164,42.455,11.653,57.644c-1.341,0.875-2.555,1.557-2.443,1.351
	C120.896,158.119,116.461,149.677,114.592,142.526z M79.623,132.144c0.757,1.181,4.162-25.272-4.789-46.447
	c0.853-0.649,8.236-2.072,8.236-2.072l1.987,6.34l-5.037,2.147l0.93,2.973c3.91-1.91,12.379-4.729,17.588-13.442
	c0,0,25.311-0.219,25.85-0.173c0.524,0.044-5.162,5.532-10.556,16.642c-2.465,5.074-4.424,11.641-4.833,19.344
	c-0.08,1.522-5.791-7.156-5.791-7.156c1.424-7.333,5.229-14.552,9.023-21.771c0,0-5.82-0.333-9.887-0.214
	c-6.323,6.959-10.288,10.626-19.822,13.949c3.477,11.215,24.745,16.604,20.015,15.58c-0.965-0.229-2.19,10.31-1.167,22.186
	c0.198,9.495,5.271,25.324,5.45,25.196c0,0-3.383,0.767-3.653,0.221c0.57-0.138-5.032,1.29-5.032,1.29l-2.004-5.899l5.422-2.512
	l-0.877-3.329c-0.021,0.001-11.963,3.639-17.813,14.128l-26.159,0.03c10.088-11.022,14.203-21.925,16.394-36.338
	C75.238,133.201,79.622,132.144,79.623,132.144L79.623,132.144z M143.957,36.982c3.289-2.771,9.891-9.988,9.891-9.988l0.086,3.697
	l-7.492,7.846l0.075,48.438l-2.534-2.446L143.957,36.982z M140.494,54.711c-1.35,0.646-4.039,3.83-5.32,7.408
	c-8.68-7.809-5.105-22.158-0.354-25.146c1.378,3.133,5.371,7.287,5.278,7.199C139.182,47.454,138.479,50.782,140.494,54.711z
	 M63.645,22.193l66.941,0.118c-3.818,7.57-7.322,13.69-11.381,21.143c-2.111,2.565-47.825-8.283-48.04-7.202L63.645,22.193z"/>
<path fill="#D40000" d="M27.459,219.191l-0.447-63.602l7.609,7.443l0.452,48.842L27.459,219.191z M62.374,206.866
	c-1.575,0.242-0.684-1.226-0.396-2.621c0.16-0.778-0.587-1.51-0.584-1.747c0.021-1.38,1.048-1.963,5.702-1.908
	c10.974,0.767,16.647,4.304,22.942,5.948c6.027,1.574,12.004,1.543,18.655,1.389c0.487,0.282,2.271,4.907,1.938,5.37
	C95.586,216.282,76.384,205.158,62.374,206.866z M89.495,173.933c-1.586-1.156-3.073-1.37-4.544-1.622
	c2.58-4.57,5.705-8.735,10.925-11.342l2.429,6.051C95.235,168.608,92.222,170.5,89.495,173.933L89.495,173.933z M57.794,158.22
	c0,0-2.252,3.707-4.378,5.511c-6.319-8.532-20.45-26.698-20.45-26.698l-5.996,3.058c0,0-0.024-3.517,0.111-3.763
	c16.196-8.403,27.309-24.286,32.202-39.159c0,0,2.607,2.68,2.265,3.813c-4.379,11.731-11.867,23.496-22.879,32.319L57.794,158.22z
	 M77.993,140.912l20.446,0.029l0.905,7.156c-7.829,2.642-14.29,8.038-20.332,14.28l-9.698-0.171
	C72.494,155.193,76.912,148.077,77.993,140.912z M153.691,110.76c0.662,2.018-0.008,4.194,0.25,4.104
	c-24.491,12.195-31.49,38.963-31.49,38.963s-2.324-3.706-2.219-4.279c12.677-28.369,21.157-29.215,22.787-32.295l-19.28-25.124
	l4.361-5.972l20.679,27.095C150.835,112.298,152.007,111.499,153.691,110.76z M141.616,147.461
	c4.153-7.521,8.438-11.892,12.705-14.899l-0.207,9.925L141.616,147.461z M27.117,117.944l0.106-9.629l12.615-5.467
	C36.351,110.504,31.616,114.607,27.117,117.944z M83.318,109.287l-0.745-6.773c7.657-3.363,14.423-7.861,19.886-14.019
	c5.867-0.283,9.875,0.116,9.843,0.036c0.011-0.012-5.581,8.246-9.284,21.248L83.318,109.287z M146.768,38.146l6.971-7.092
	l0.22,63.414l-7.002-6.833L146.768,38.146z M85.505,89.681l-2.212-6.274c3.479-1.313,6.113-4.173,8.566-7.004
	c1.664,1.499,3.811,2.026,4.556,2.314C97.436,78.957,89.362,88.717,85.505,89.681z M72.437,42.159c0,0-0.87-0.507-0.774-1.222
	c0.288-0.925-0.93-3.02-0.93-3.02c14.845-4.534,36.461,8.227,49.29,5.542c-0.107,0.902,0.041,1.979-0.323,2.829
	c0.404,1.808,0.689,1.865-1.063,2.969c-9.013,2.568-18.512-2.907-27.316-5.525C84.137,41.455,78.303,42.035,72.437,42.159z"/>
<path fill="#100F08" d="M62.879,21.301l2.711,5.142l-0.469,0.32c0.738,1.238,1.366,2.632,2.121,3.86l0.545-0.063
	c0.891,1.718,1.251,2.354,2.416,4.39l-0.525-0.003c0.271,0.905,0.965,1.506,0.979,2.156c0.008,0.808-0.199,1.628,0.294,2.175
	c0.584,0.648,0.654,0.827,0.533,1.207c-0.318,1.009,0.59,2.125,1.51,2.024c6.49-0.873,13.103-0.132,19.713,1.88
	c4.755,1.509,8.975,3.2,12.97,4.389c1.26,0.379,3.806,0.976,5.997,1.138c6.08,0.448,9.491-0.799,8.467-3.345
	c-0.081-0.204-0.264-0.353-0.279-0.458c-0.029-0.193,0-0.403,0.346-0.688c0.997-1.025,0.439-1.772-0.168-2.908
	c0,0,7.807-14.042,11.705-21.039L62.879,21.301z M130.471,22.563l-5.697,9.905c-3.046-0.556-3.762,2.023-3.808,2.386
	c-3.956-1.021-3.349,4.144-1.364,4.492c0.129,0.749-3.251,1.68-5.032-0.075c2.737,0.369,3.706-3.276,0.363-4.087
	c4.407-3.299-3.861-8.238-3.96-1.414c-3.889-0.689-3.383,4.484-0.916,4.887c-1.262,1.4-4.972,1.439-6.91-1.513
	c3.298,1.725,5.082-2.728,1.656-3.974c4.229-3.733-4.052-7.176-3.857-1.143c-3.121-1.862-5.268,2.886-1.101,3.614
	c-0.237,0.854-5.694,0.86-7.079-1.348c3.869,0.889,4.047-3.854,0.633-4.239c3.428-4.38-5.271-6.595-3.812-0.618
	c-3.36-1.339-4.63,2.881-1.357,4.235c0.182,0.672-5.3,1.243-7.219-1.18c4.214-0.637,2.739-4.748,0.01-4.419
	c0,0,0.039-0.118,0.192-0.519c1.289-4.127-5.639-4.472-4.68-0.096c0.154,0.403,0.324,0.94,0.324,0.94
	c-1.91-0.392-3.077,0.392-2.939,2.195c0.477,2.396,1.732,2.219,3.341,1.741c0.674,0.71-3.879,3.082-6.737,0.964
	c3.5-1.013,1.728-5.144-1.202-4.586c-0.121-1.318-1.544-3.168-3.399-2.266l-1.964-3.889L130.471,22.563z M136.196,77.588
	l-4.112,0.062c-2.889,2.97-23.808,22.371-20.285,51.679c1.508,12.535,4.984,23.38,14.278,36.191l2.483-1.469l0.38,0.257
	l25.757-14.919l0.013-4.531l-29.896,12.63c-0.594-0.636-0.942-1.345-1.441-2.127l11.98-5.127c0,0,0.287-0.733,0.38-1.07
	c3.939-10.034,11.941-17.299,18.907-22.911c-0.037-9.88-0.083-30.563-0.083-30.563l-18.014-18.063
	c-2.311,2.127-4.358,4.314-6.407,6.688l20.682,27.411l-1.833,1.201l-20.464-27.269C130.943,82.722,133.574,80.162,136.196,77.588z
	 M154.57,95.41c0,0-0.1-47.062-0.235-69.787l-10.733,11.088l0.041,47.703L154.57,95.41z M153.658,30.104l-7.584,7.879l0.085,48.488
	l-1.949-1.935l0.001-47.183l9.474-9.995L153.658,30.104z M79.856,28.937c0.227,0.402,0.129,0.96-0.235,1.415
	c-1.552,1.938,3.32,5.304,6.825,4.719c2.668-0.445,4.942-2.059,3.961-3.286c-0.799-1-0.277-2.011,0.683-2.004
	c0.987,0.007,1.779,0.798,0.924,1.88c-1.902,2.409,1,5.235,5.438,5.294c3.139,0.041,4.185-0.737,4.016-2.988
	c-0.08-1.055,0.126-1.346,0.854-1.506c1.164-0.256,1.751,1.087,0.786,2.112c-2.084,2.212,0.285,5.466,4.227,5.676
	c1.441,0.076,1.727-0.001,3.336-0.916c1.258-0.715,1.701-1.794,1.085-2.633c-0.793-1.08,0.276-2.369,1.511-1.838
	c0.883,0.38,1.317,1.062,0.341,2.217c-1.282,1.518-0.675,2.769,1.795,3.613c1.924,0.658,3.257,0.576,4.157-0.251
	c0.28-0.257,0.903-0.795,0.895-0.631c-0.605,1.053-1.142,2.03-1.142,2.03c-4.03,1.81-7.175-1.578-7.071-1.704
	c-4.151,2.412-7.833,1.903-10.943-2.148c-0.809,0.451-6.6,1.514-10.779-3.105c-4.218,2.13-8.139,1.237-11.623-1.146
	c-2.575,2.447-5.289,2.835-8.109,1.659l-0.835-1.691c0.21-0.08,1.12,1.696,5.533,0.869c1.481-0.278,4.031-2.786,2.604-4.009
	c-0.653-0.931-0.673-1.351-0.096-1.915C78.56,28.093,79.529,28.379,79.856,28.937z M69.045,31.154c0.246,0.48,0.279,1.279,0.008,0.8
	c-0.143-0.253-0.891-1.383-0.855-1.417C68.545,30.508,68.891,30.869,69.045,31.154z M153.661,31.54l0.05,62.573l-6.459-6.451
	l-0.31-49.02L153.661,31.54z M78.872,34.57l2.034,1.287l-3.642-0.021L78.872,34.57z M90.305,35.647l1.707,1.67l-3.59-0.758
	L90.305,35.647z M122.292,36.514l-0.763,1.575C121.089,37.594,120.961,36.542,122.292,36.514z M135.196,62.527
	c1.296-2.93,3.03-6.661,5.838-7.848c-2.09-4.182-1.818-8.36-0.336-10.652c-2.12-1.986-4.296-4.367-5.646-7.79
	C128.354,42.192,127.276,54.425,135.196,62.527z M134.996,37.381l0.461,1.145c-5.966,7.352-4.124,17.002,0.197,22.151l-0.621,1.297
	C129.753,56.366,127.441,44.512,134.996,37.381z M99.333,41.54c6.913,2.042,12.449,5.226,20.44,2.39l0.038,1.566
	c-5.087,3.288-15.221-0.186-22.066-2.73c-11.004-4.09-19.567-3.851-25.687-3.384c-0.538-0.106-0.967-1.522-0.104-1.532
	C83.396,37.723,81.548,36.285,99.333,41.54z M100.896,38.769l2.27,2.425c-1.704-0.538-3.362-1.137-4.904-1.88L100.896,38.769z
	 M135.543,39.367l0.445,0.617c0.192,0.268-1.256,0.406-1.012,0.093L135.543,39.367z M96.539,43.805
	c8.252,3.12,17.338,6.233,23.3,3.441c0,0,0.038,1.188-0.644,1.525c0,0-0.629,0.512-2.733,0.804
	c-9.647,0.797-15.91-3.225-23.697-5.602c-2.954-0.901-7.7-1.994-12.572-2.197c-2.894-0.132-7.32,0.286-7.32,0.286
	c-0.964-0.081-0.95-0.654-0.959-1.217C80.302,39.72,88.015,40.561,96.539,43.805z M136.44,40.813
	c0.106-0.005,0.216,0.003,0.322,0.02l0.844,1.085l-1.001,1.603c0,0-0.883-0.818-1.33-1.622
	C135.028,41.379,135.695,40.849,136.44,40.813z M112.129,41.119l2.613,1.985c-1.965,0.098-4.176,0.171-6.364-0.704L112.129,41.119z
	 M134.262,42.131c0.205-0.006,0.422,0.213,0.674,0.648c0.487,0.836,0.423,0.995-0.521,1.301c-1.239,0.401-1.336,0.313-0.936-0.807
	C133.752,42.511,133.996,42.137,134.262,42.131z M138.23,42.643l1.766,1.493c-0.975,2.556-1.613,5.8,0.346,10.456
	c-0.217,0.015-1.487,1.276-1.885,1.491C137.338,55.611,134.874,46.384,138.23,42.643z M136.221,44.598l-0.449,2.826
	c-0.036,0.232-1.954-1.338-1.775-2.123C134.338,44.367,135.506,44.566,136.221,44.598z M133.051,45.59
	c0.231,0.002,0.596,0.566,1.043,1.305c0.349,0.576,0.277,0.794-0.494,1.494c-1.137,1.157-1.36,0.78-1.109-1.188
	C132.615,46.228,132.788,45.588,133.051,45.59z M135.401,48.151c0.154,0.003,0.289,0.04,0.388,0.119l0.13,2.753
	c0.013,0.249-2.134-0.098-2.415-1.146C133.147,49.205,134.568,48.134,135.401,48.151z M132.569,50.479
	c0.153-0.022,0.634,0.3,1.089,0.571c0.79,0.472,0.807,0.679,0.127,1.56c-0.8,1.034-1.197,0.868-1.319-0.931
	C132.421,51.019,132.371,50.506,132.569,50.479z M135.719,51.531l0.184,0.065c0.381,0.327,0.962,3.087,0.717,3.374
	c-0.348,0.41-2.18-0.135-2.588-0.783C133.643,53.57,135.051,51.531,135.719,51.531z M133.477,54.779
	c0.211-0.015,0.589,0.132,1.162,0.409c0.344,0.167,0.919,0.481,1.046,0.75c0.224,0.472-0.147,1.172-0.628,1.752
	c-0.318,0.385-0.615,0.099-1.231-1.188C133.33,55.466,133.126,54.804,133.477,54.779z M137.174,56.014l0.115,0.027
	c0.624,0.348,0.52,1.382-0.219,2.146c-0.885,0.918-1.654,0.227-1.043-0.938C136.415,56.512,136.879,56.021,137.174,56.014z
	 M85.714,81.686c-0.539,0.024-1.381,0.517-1.749,0.992c-0.464,0.602-0.869,0.523-1.384,0.479c-0.612-0.009-1.545,0.128-2.807,0.707
	c-0.716,0.328-1.042,0.402-2.09,0.455c-0.685,0.035-1.37,0.129-1.522,0.209s-0.645,0.254-1.094,0.386
	c-0.916,0.271-0.59,0.532-0.064,1.721c2.674,6.9,4.589,14.941,5.287,21.49c0.783,7.513,0.546,16.624-0.497,23.582
	c-2.56,0.017-4.166-0.115-6.86-0.069c-1.838,15.047-6.826,26.994-16.793,37.74l26.945,0.068c3.087-8.29,17.176-14.614,17.639-14.147
	l0.742,3.025c0,0-10.135,1.458-16.96,14.407c0.698-0.425,3.239-0.13,4.918,1.624c3.352-4.279,8.851-7.075,8.886-7.01l0.184-0.516
	c0,0,1.009-0.345,1.895-0.515c0.284-0.055,0.867-0.165,1.254-0.302c0.599-0.211,0.895-0.435,1.818-0.354
	c1.921,0.185,3.849-0.377,3.809-0.387c-5.721-15.885-7.072-30.223-4.838-46.879c2.107,0.017,6.729,0.096,6.729,0.096
	c0.465-4.68,1.053-9.362,2.48-13.78c1.833-5.674,4.044-10.947,7.604-15.769c2.01-3.029,3.764-5.184,5.842-8.022l-26.377,0.062
	c-3.49,5.907-10.216,10.841-15.621,12.896c-1.84,0.696-2.1,0.593-2.404-0.277c-0.545-1.557-0.52-1.491,0.92-1.904
	c0.48-0.138,2.018-0.953,4.418-2.085c5.092-2.603,8.593-7.367,10.652-10.583c0.819-1.271,0.269-0.983-1.132-0.996
	c-1.282-0.102-1.868-0.501-3.021-1.583c-0.425-0.399-0.607-0.684-0.802-0.661C90.214,77.963,87.687,80.835,85.714,81.686
	L85.714,81.686z M91.904,76.656c1.186,1.278,2.592,2.025,4.443,2.27c-2.959,4.675-6.573,8.331-10.728,10.554l-2.112-5.981
	C88.686,81.071,90.069,78.64,91.904,76.656z M134.897,78.56c-27.896,25.968-26.255,58.707-6.72,85.3l-2.047,1.239
	c-18.348-24.757-21.667-61.378,6.366-86.65L134.897,78.56z M117.312,81.727l6.839-0.014l-4.656,6.075l-6.246-0.022L117.312,81.727z
	 M116.24,81.777l-3.804,6.037l-10.259,0.133c-6.139,7.62-12.732,11.338-19.444,13.875l-1.311-6.508c0,0,10.628-2.58,17.511-13.62
	L116.24,81.777z M105.815,82.276l-2.378,2.648l2.47,2.529l2.255-2.567L105.815,82.276z M111.199,82.215l-2.408,2.521l1.879,2.536
	l2.496-2.464L111.199,82.215z M99.323,82.674l-0.41,3.966l3.099,1.022l0.452-3.39L99.323,82.674z M118.172,82.822l-2.249,3.539
	l3.386,0.054l2.368-3.523L118.172,82.822z M82.774,83.727l2.194,6.125l-1.927,0.936l-1.954-6.396L82.774,83.727z M80.177,84.709
	l2.263,6.336l-1.895,0.629l-2.078-6.595L80.177,84.709z M82.889,109.725c0.252,8.813,0.377,14.125-1.086,21.87
	c-0.076,0.405-1.648,0.046-1.648,0.046c0.199,0.067,0.886-8.753,0.831-14.293c-0.104-10.55-1.88-20.986-5.992-31.441
	c0.784-0.483,2.718-0.729,2.718-0.729C80.306,93.105,82.605,101.635,82.889,109.725z M55.5,85.293
	c9.005,12.031,15.441,28.353,14.365,44.457c-1.031,18.727-8.082,29.519-20.466,42.486l-3.194,0.075
	c14.658-14.152,21.144-26.264,21.655-42.243c0.588-18.378-4.986-30.602-14.374-43.627L55.5,85.293z M26.694,101.831l0.031,4.383
	l30.681-13.25L52.981,86.4L26.694,101.831z M98.603,87.478l-3.341,0.17l0.111,3.394l3.482-0.085L98.603,87.478z M128.374,86.832
	l19.883,26.252l-4.92,3.68l-18.954-24.669L128.374,86.832z M112.791,88.625l5.951,0.093l-2.302,3.845l-5.752-0.047L112.791,88.625z
	 M111.691,88.72c-2.736,5.124-6.51,10.967-8.63,20.409l-19.591,0.018c-0.037-2.156-0.313-4.313-0.633-6.468
	c8.442-3.111,14.981-7.762,19.791-13.908L111.691,88.72z M115.314,88.99l-2.554,1.483l1.561,1.807l2.814-1.085L115.314,88.99z
	 M91.995,90.879l-0.843,3.344l3.175,1.231l0.587-3.973L91.995,90.879z M110.264,93.377l5.709,0.035l-2.404,4.834l-5.655-0.085
	L110.264,93.377z M123.857,92.744l18.814,24.558l-1.764,1.405l-18.387-24.005L123.857,92.744z M112.43,93.767l-2.572,2.159
	l1.936,2.251l2.374-1.907L112.43,93.767z M87.459,93.944l-0.79,3.251l3.302,0.885l0.59-3.486L87.459,93.944z M82.893,96.107
	l-0.672,3.2l3.11,0.846l0.655-3.085L82.893,96.107z M57.216,95.786c0.159-0.032-0.521,3.81-1.521,4.502
	c-0.478,0.331-0.725,0.258-1.14-0.192c-0.285-0.311-1.579-2.436-1.579-2.436l1.104-0.56c1.341,2.159,1.34,1.115,1.848-0.725
	L57.216,95.786z M52.059,97.999c0.438-0.004,0.969,0.544,1.568,1.605c0.867,1.535,0.839,1.636-0.586,2.077
	c-2.565,0.684-3.52,0.848-2.73-0.856C51.16,98.99,51.496,98.003,52.059,97.999z M59.695,97.694l1.756,3.025
	c-7.039,18.048-18.394,30.995-34.023,38.829l-0.035-2.998C45.819,125.989,53.375,113.514,59.695,97.694z M107.561,98.999
	l5.541,0.101l-1.48,4.267l-5.891-0.043L107.561,98.999z M50.395,98.813c-4.51,10.822-10.673,20.264-22.994,28.235l-0.049-2.874
	c13.837-8.397,19.818-24.125,19.816-24.13L50.395,98.813z M120.429,98.794c3.281,0.091,6.731,3.692,6.381,6.661
	c-0.247,2.092,0.151,3.644,0.718,2.787c1.249-1.893,4.932-0.635,4.898,1.639c-0.018,1.209-0.82,1.408-1.281,0.316
	c-0.68-1.613-2.592-1.653-2.874,0.037c-0.265,1.585,1.07,2.749,4.636,4.047c4.18,0.987,6.694,4.759,5.209,6.927
	c-0.517,0.573-0.827,0.714-0.925,0.417c-0.027-0.085-0.13-0.532-0.226-0.992c-0.475-2.272-1.556-3.227-2.87-2.446
	c-0.658,0.391-0.575,0.908-0.19,1.592c0.512,0.909,0.191,1.262-0.725,0.799c-1.446-0.731-1.925-2.465-0.522-3.265
	c1.667-0.672,1.103-0.816-1.027-1.541c-4.535-1.56-6.48-4.421-6.718-9.873c0.086-2.484-0.251-3.371-1.412-3.71
	c-1.063-0.312-2.266,1.048-1.503,1.765c0.415,0.389,0.753,0.742,0.533,0.957c-0.705,0.689-2.468-0.43-2.45-1.629
	c0.011-0.785,0.307-0.946,1.473-1.869c0.323-0.256,0.047-0.738-0.426-0.745C119.344,101.245,119.471,98.871,120.429,98.794z
	 M110.157,99.424l-2.771,1.603l1.443,2.03l3.066-1.451L110.157,99.424z M56.262,100.999c0.318,0,0.579,0.259,0.579,0.579
	s-0.261,0.583-0.579,0.583s-0.575-0.263-0.575-0.583S55.943,100.999,56.262,100.999z M61.939,101.25
	c5.847,12.848,7.237,27.539,3.169,42.221L49.32,122.787C55.377,115.921,59.449,108.06,61.939,101.25z M40.588,102.193l-14.088,5.96
	l-0.078,10.636C34.293,113.381,37.631,107.844,40.588,102.193z M54.129,102.104c1.389-0.043,0.703,3.729-1.1,5.018
	c-0.66,0.511-1.106,0.448-1.324-0.574c-0.113-0.53-0.668-1.651-1.365-2.555c-0.813-1.05-0.803-1.076,0.383-1.15
	C52.033,102.862,53.106,102.229,54.129,102.104z M52.757,103.708c-1.024-0.015-1.331,0.468-0.721,1.128
	c0.513,0.556,0.921,0.437,1.265-0.367C53.512,103.979,53.324,103.717,52.757,103.708z M27.348,117.506l0.034-9.027l12.048-5.108
	C37.013,108.645,32.539,113.874,27.348,117.506z M134.373,124.798l-1.604,1.625l-15.554-20.415l0.975-2.577L134.373,124.798z
	 M49.137,104.148c0.521,0.008,1.704,1.828,2.036,3.135c0.246,0.97-0.015,1.175-1.841,1.448c-0.756,0.209-2.8,0.007-2.634-0.54
	C46.994,107.4,48.953,104.146,49.137,104.148z M105.481,104.356l5.675,0.062l-1.3,4.688l-5.943-0.088L105.481,104.356z
	 M107.989,104.643l-2.643,1.842l2.09,2.073l2.8-1.741L107.989,104.643z M116.893,106.659l15.732,20.561
	c-4.693,6.012-9.375,12.918-12.453,22.047C114.57,136.073,112.52,123.232,116.893,106.659z M52.992,108.408
	c0.318,0,0.579,0.259,0.579,0.579s-0.261,0.583-0.579,0.583s-0.575-0.263-0.575-0.583S52.674,108.408,52.992,108.408z
	 M51.182,109.192c0.982,0.069,0.056,3.22-1.423,4.368c-1.165,0.906-1.667,0.485-1.936-1.172c-0.098-0.599-0.723-1.615-1.273-2.419
	c-0.614-0.897-0.361-1.04,1.196-0.68C48.834,109.502,50.177,109.242,51.182,109.192z M103.764,109.962l5.951,0.036l-0.917,7.118
	L103.764,109.962z M45.787,110.291c0.938,0.881,2.122,3.969,1.515,4.191c-0.707,0.258-3.906-0.115-4.265-0.487
	c-0.246-0.255-0.247-0.257,0.276-0.961c0.288-0.388,0.836-1.16,1.22-1.719C44.879,110.908,45.262,109.803,45.787,110.291z
	 M49.1,110.396c-0.906,0.031-0.967,0.156-0.536,1.14c0.351,0.802,0.594,0.874,1.196,0.348
	C50.598,111.151,50.246,110.358,49.1,110.396z M153.545,111.015l0.215,3.51c-22.874,11.424-31.439,38.396-31.563,38.396l-1.66-3.112
	C131.032,123.765,144.991,116.224,153.545,111.015z M45.762,115.166c1.361-0.029,1.76-0.123,1.752,0.386
	c0.016,1.366-1.253,3.307-2.803,4.038c-1.044,0.493-1.067,0.505-1.186-0.733c-0.09-0.952-0.398-2.178-0.889-3.154
	c-0.154-0.362-0.746-1.192,0-0.956c0.743,0.236,2.277,0.438,3.127,0.42H45.762z M48.816,114.848c0.318,0,0.575,0.259,0.575,0.58
	c0,0.32-0.257,0.579-0.575,0.579s-0.575-0.259-0.575-0.579C48.241,115.106,48.498,114.848,48.816,114.848z M41.527,115.648
	c0.248-0.008,0.482,0.503,0.764,1.255c0.611,1.634,0.798,2.519,0.617,2.903c-0.278,0.592-4.032,0.21-4.67-0.452
	C38.116,119.446,40.999,115.977,41.527,115.648z M44.231,116.054c-0.538,0.037-0.254,0.363,0.146,1.309
	c0.276,0.655,0.65,0.761,1.077,0.302c0.572-0.614,0.649-1.102,0.288-1.364C45.213,116.086,44.821,116.057,44.231,116.054z
	 M153.705,119.604l0.02,1.176c-0.891-0.268-1.443-0.647-2.459-0.987c-0.622-0.211-0.99-0.36-0.44-1.021
	c0.862-1.034,1.786-1.681,2.836-2.321l0.008,1.331c-1.679,0.749-1.516,1.44,0.038,1.822H153.705z M87.585,118.409h6.319v4.2h4.943
	l-0.384,4.788h-4.56v4.201h-6.318v-4.201h-4.514l0.364-4.788h4.149L87.585,118.409z M101.857,118.424
	c-3.2,15.966-0.265,32.916,4.673,46.726l-2.491,0.276c-3.849-11.044-6.908-26.767-3.796-46.993
	C100.243,118.433,101.357,118.412,101.857,118.424z M148.763,118.733c0.317,0,0.575,0.259,0.575,0.579s-0.257,0.579-0.575,0.579
	s-0.575-0.259-0.575-0.579S148.444,118.733,148.763,118.733z M37.594,120.073c0.209-0.007,0.852,0.272,1.422,0.433
	c0.858,0.24,1.535,0.344,2.316,0.358c1.571,0.031,1.777,0.017,1.101,1.317c-0.487,0.937-1.583,2.175-2.351,2.552
	c-1.086,0.584-1.502,0.505-1.438-0.571c0.008-0.729-0.308-1.999-0.718-2.903C37.608,120.555,37.244,120.084,37.594,120.073z
	 M44.239,120.586c0.318,0,0.579,0.259,0.579,0.579s-0.261,0.583-0.579,0.583s-0.575-0.263-0.575-0.583
	S43.921,120.586,44.239,120.586z M150.568,120.51c0.445-0.01,1.209,0.265,1.906,0.605c1.847,0.904,1.797,1.111-0.706,2.9
	c-1.817,1.389-2.247,1.544-2.313-0.646C149.391,121.525,149.589,120.53,150.568,120.51z M36.646,121.038
	c0.732,0.011,1.545,3.854,0.886,4.197c-1.026,0.533-4.204-0.506-4.191-1.382C33.341,123.568,36.323,121.033,36.646,121.038z
	 M148.359,120.88c0.438-0.02,0.497,0.327,0.457,1.552c-0.021,0.649,0.089,1.708,0.134,2.201c0.093,1.024,0.008,1.096-0.798,0.638
	c-0.514-0.294-1.56-0.774-2.691-0.873c-0.928-0.081-0.995-0.465-0.708-1.08C145.572,121.953,147.055,120.996,148.359,120.88z
	 M39.369,121.459c-0.641-0.005-0.481,0.338-0.085,1.302c0.281,0.683,0.769,0.747,1.27,0.166c0.701-0.814,0.563-1.246-0.456-1.402
	C39.882,121.492,39.517,121.46,39.369,121.459z M147.513,122.374c-0.267,0.025-0.63,0.237-0.806,0.352
	c-0.602,0.38-0.846,0.653,0.027,0.954c0.776,0.268,1.189,0.384,1.127-0.29C147.824,122.983,147.854,122.395,147.513,122.374z
	 M88.199,122.872v4.186h5.03v-4.186H88.199z M143.019,123.235c0.318,0,0.575,0.259,0.575,0.579s-0.257,0.579-0.575,0.579
	s-0.575-0.259-0.575-0.579S142.7,123.235,143.019,123.235z M48.84,123.888l15.872,20.512l-1.055,2.675l-16.347-21.653L48.84,123.888
	z M153.805,123.791l0.035,2.681c-1.793,1.321-13.18,9.63-19.07,23.614l-3.084,1.322
	C136.027,139.372,145.312,129.063,153.805,123.791z M33.068,124.927c1.033,0.316,2.02,1.04,2.995,1.17
	c1.121,0.138,1.508,0.065,1.204,0.648c-0.68,1.306-1.963,2.673-3.317,3.12c-0.968,0.319-1.425,0.199-1.272-0.406
	c0.285-1.133,0.334-2.063,0.295-3.096C33.126,125.8,32.648,125.012,33.068,124.927z M31.857,125.166
	c0.658,0.567,0.527,4.151-0.208,4.923c-0.384,0.403-1.499,0.035-3.171-0.919c-1.093-0.624-1.297-1.004-0.752-1.387
	C28.651,127.219,31.359,125.031,31.857,125.166z M145.246,125.243c0.343-0.007,0.767,0.052,1.277,0.17
	c1.978,0.447,2.418,0.902,0.732,2.251c-0.624,0.498-1.285,1.118-1.477,1.355c-0.907,1.12-1.539,0.308-1.737-1.727
	C143.902,125.87,144.116,125.06,145.246,125.243z M142.77,125.437c0.32,0,0.526,0.169,0.521,0.571
	c-0.009,0.514,0.358,2.738,0.563,3.352c0.357,1.041,0.099,1.276-0.759,0.822c-0.624-0.339-2.277-0.596-3.171-0.525
	c-1.018,0.08-0.988-0.193-0.69-1.054C139.761,127.078,141.805,125.437,142.77,125.437L142.77,125.437z M34.035,126.178
	c-0.387-0.002-0.402,0.523-0.139,1.726c0.084,0.383,0.411,0.359,1.028-0.077c0.729-0.516,0.699-0.84-0.123-1.336
	C34.463,126.286,34.211,126.178,34.035,126.178z M38.533,126.309c0.318,0,0.575,0.259,0.575,0.579s-0.257,0.579-0.575,0.579
	s-0.575-0.259-0.575-0.579S38.215,126.309,38.533,126.309z M140.891,128.56c0.275,0.271,1.296,0.26,1.472,0.097
	c0.27-0.25,0.145-1.412-0.08-1.552C141.707,126.907,140.546,128.131,140.891,128.56z M45.631,130.772
	c0.347,1.657,2.661,1.565,2.4-0.162c-0.152-1.009-0.188-0.988,0.314-0.966c2.39,0.118,1.976,3.911-0.778,3.618
	c-0.574,0.069-0.651,0.306-0.165,0.51c0.483,0.202,2.334,0.681,2.619,0.68c2.996-0.011,7.319,4.628,7.213,8.745
	c-0.069,2.692,0.837,4.63,1.764,4.85c0.737,0.175,1.807-0.5,1.715-1.324c-0.128-1.138,0.79-0.782,1.318,0.035
	c0.807,1.128-0.233,2.757-2.154,2.629c-0.818,0.16,0.6,0.684,1.65,0.989c0.954,0.055,0.148,1.236-0.029,1.447
	c-0.539,0.63-2.304,0.148-3.688-0.977c-1.7-1.383-2.431-3.234-2.631-6.873c-0.129-2.339-0.302-2.814-0.978-1.85
	c-1.215,2.151-4.123,1.099-4.486-1.174c-0.204-1.203,0.849-2.071,1.188-0.98c0.901,2.267,3.108,1.722,2.749-0.529
	c-0.236-1.485-1.713-2.305-4.628-3.132c-3.505-0.993-4.548-2.201-5.23-5.096c-0.303-1.281-0.255-1.952,0.418-2.622
	c0.332-0.331,0.755-0.668,0.755-0.668S45.436,129.87,45.631,130.772z M137.318,128.936c0.318,0,0.574,0.258,0.574,0.579
	c0,0.32-0.256,0.579-0.574,0.579s-0.575-0.259-0.575-0.579C136.743,129.193,137,128.936,137.318,128.936z M27.302,129.485
	c1.044,0.381,1.94,0.944,3.017,1.313c0.698,0.238,0.508,0.802-0.216,1.601c-0.807,0.958-1.599,1.43-2.717,1.964l0.012-1.62
	c1.358-0.478,2.224-1.617-0.059-1.982L27.302,129.485z M140.033,130.39c0.396,0.004,0.955,0.019,1.612,0.155
	c1.663,0.346,1.858,0.494,0.858,1.672c-0.37,0.436-0.921,1.094-1.223,1.463c-0.983,1.38-1.514,0.906-1.971-0.877
	C138.742,130.941,138.612,130.228,140.033,130.39z M32.517,131.054c0.318,0,0.575,0.259,0.575,0.579s-0.257,0.579-0.575,0.579
	s-0.575-0.259-0.575-0.579S32.198,131.054,32.517,131.054z M138.357,132.315c0.158,0.588,0.399,1.337,0.583,1.867
	c0.902,2.005,0.331,1.229-1.286,1.053c-1.087-0.119-2.817,0.063-3.245-0.239c-0.187-0.244-0.015-0.888,0.334-1.613
	c0.491-1.022,1.383-1.894,2.049-2.289C138.479,130.31,138.085,131.307,138.357,132.315z M41.186,131.603l18.129,24.135l-1.422,2.04
	l-18.647-24.814L41.186,131.603z M154.799,131.692c-9.424,6.857-13.043,15.18-13.777,16.267l13.816-5.367L154.799,131.692z
	 M136.807,132.479c-0.517,0.144-1.259,1.108-0.939,1.486c0.19,0.198,0.95,0.224,1.314,0.09
	C137.743,133.847,137.36,132.476,136.807,132.479z M57.361,158.58l-3.861,4.9l-20.121-26.206l5.078-3.691L57.361,158.58z
	 M153.795,133.11l0.142,9.007l-11.817,4.961C146.076,140.348,149.953,136.186,153.795,133.11z M72.992,133.874l4.732,6.204
	l-5.783-0.132L72.992,133.874z M132.84,134.382c0.317,0,0.574,0.259,0.574,0.579s-0.257,0.579-0.574,0.579
	c-0.318,0-0.576-0.259-0.576-0.579S132.521,134.382,132.84,134.382z M136.308,135.85c2.165,0.03,2.888,0.148,2.258,1.219
	c-0.84,1.046-1.336,2.039-2.252,3.006c-0.529,0.543-1.19-0.575-1.743-2.363c-0.445-1.444-0.22-1.809,0.628-1.82
	S136.189,135.848,136.308,135.85z M133.808,137.804c0.177,0.57,0.591,1.508,0.92,2.081c0.329,0.572,0.698,1.209,0.676,1.319
	c-0.056,0.269-0.309,0.29-0.878,0.073c-1.234-0.56-4.133,0.032-4.209-0.244c-0.432-0.617,0.215-2.303,1.432-3.469
	c0.595-0.57,1.14-0.941,1.454-0.947C133.517,136.612,133.574,137.051,133.808,137.804z M32.685,137.359l20.473,26.771l-1.416,1.736
	l-20.703-27.288c0,0-3.27,1.612-4.23,2.15l0.13,13.847l-0.561-0.027l0.084,70.133l11.424-11.47l-0.148-47.587
	c2.424,2.296,4.498,4.744,7.272,6.995l4.751-0.038c12.402-12.701,19.195-23.572,20.687-43.039c0.997-13.022-3.3-29.398-14.696-45.27
	l-2.783,1.701l5.498,8.345l-11.647,5.197c-4.64,9.849-10.139,18.937-20.198,24.142l-0.057,12.747l-0.176,0.263l0.134,4.003
	L32.685,137.359z M132.781,138.274c-0.544,0.041-1.395,1.222-1.005,1.625c0.459,0.22,1.167,0.204,1.463-0.191
	C133.441,139.32,133.391,138.501,132.781,138.274z M71.709,141.031l6.012,0.035l-1.572,5.193l-5.855-0.112L71.709,141.031z
	 M128.823,141.008c0.318,0,0.575,0.259,0.575,0.58c0,0.32-0.257,0.578-0.575,0.578c-0.318,0.001-0.575-0.258-0.575-0.578
	C128.248,141.267,128.505,141.008,128.823,141.008z M98.191,141.166l0.777,6.745c-6.558,2.4-13.629,6.474-19.813,13.963
	c-1.057-0.069-9.489,0.073-9.489,0.073c0.211,0.031,7.814-14.414,8.689-20.685L98.191,141.166z M74.379,141.795l-2.758,1.907
	l2.155,2.313l2.853-1.946L74.379,141.795z M131.76,141.822c0.586-0.003,1.372,0.069,2.002,0.182
	c1.017,0.198,1.166,0.218,0.824,1.063c-0.458,1.121-1.488,3.141-1.749,3.302c-0.932,0.581-3.001-3.587-2.295-4.308
	C130.729,141.913,131.124,141.826,131.76,141.822z M129.123,143.104c0.267-0.023,0.622,0.498,0.727,0.947
	c0.128,0.546,1.066,1.922,1.658,2.581c0.744,0.829,0.705,0.945-0.36,1.031c-1.269,0.102-2.508,0.353-3.223,0.614
	c-1.106,0.405-1.258,0.315-1.115-0.988C127.023,145.328,128.324,143.174,129.123,143.104z M128.151,147.163
	c0.139,0.38,1.856-0.318,1.951-0.774c-0.016-0.204-0.689-1.387-1.095-1.441C128.32,145.056,128.032,146.625,128.151,147.163z
	 M70.134,146.896l5.683,0.054l-1.863,4.715l-5.618-0.016L70.134,146.896z M72.678,147.528l-2.723,1.733l2.121,2.066l2.607-1.812
	L72.678,147.528z M130.468,148.383c0.482-0.005,0.993,0.042,1.101,0.221c0.302,0.5-0.928,3.298-0.928,3.298l-2.004,0.8
	c-0.43-0.893-1.167-1.82-1.346-2.787c-0.07-0.423,0.142-0.577,0.605-0.84C128.588,148.684,129.663,148.391,130.468,148.383z
	 M125.102,148.611c0.318,0,0.576,0.259,0.576,0.579s-0.258,0.579-0.576,0.579s-0.575-0.259-0.575-0.579
	S124.783,148.611,125.102,148.611z M99.188,148.692c0,0,1.228,6.985,1.295,6.216c-9.479,3.594-15.021,8.897-17.648,14.071
	l-17.781-0.013l3.969-6.201l10.527-0.054C84.637,156.495,90.914,151.537,99.188,148.692z M96.91,150.337l-0.877,2.822l2.657,1.706
	l1.001-3.03L96.91,150.337z M126.038,150.392c0.226-0.021,0.448,0.36,0.905,1.178c0.338,0.603,0.781,1.48,0.781,1.48l-0.795,0.298
	c-0.641-2.207-1.229-1.387-1.298,0.562l-1.09,0.437c0,0,0.118-1.877,0.741-2.974C125.641,150.742,125.839,150.41,126.038,150.392z
	 M68.078,152.321l5.511,0.069l-2.305,4.808l-5.603-0.155L68.078,152.321z M92.113,152.707l-0.437,3.568l2.968,0.633l0.406-3.39
	L92.113,152.707z M70.422,152.75l-2.723,1.772l1.786,2.366l2.619-1.771L70.422,152.75z M87.857,155.873l-0.563,3.286l2.784,0.638
	l0.633-3.306L87.857,155.873z M27.355,156.066l6.967,6.954l0.384,48.516l-6.929,6.996L27.355,156.066z M65.262,157.843l5.559,0.161
	l-2.234,4.061l-1.908-0.086l2.512-1.727l-1.611-2.073l-2.58,1.695l1.438,2.097l-3.77-0.081L65.262,157.843z M101.203,159.044
	l1.893,6.295l-2.275,0.397l-1.709-5.922C99.809,159.451,100.506,159.271,101.203,159.044z M83.328,159.438l0.039,3.776l3.037,0.259
	l0.119-3.541L83.328,159.438z M98.426,160.04l1.73,5.98l-1.443,0.414l-2.068-5.677C97.211,160.42,97.802,160.174,98.426,160.04z
	 M95.791,161.274l2.224,5.855c-3.072,1.255-6.259,3.939-8.657,6.62c-1.777-1.315-2.824-1.453-3.921-1.751
	C88.461,166.324,92.033,163.346,95.791,161.274z M62.221,162.742l5.844,0.178l-4.065,6.112l-6.61-0.008L62.221,162.742z
	 M79.617,162.971l-0.38,3.575l3.129,1.861l0.476-3.673L79.617,162.971z M75.848,163.473l-2.225,2.366l2.362,2.715l2.167-2.834
	L75.848,163.473z M70.874,163.596l-2.643,2.44l2.102,2.761l2.416-2.776L70.874,163.596z M37.212,165.872l0.259,47.396l-9.707,9.474
	l-0.072-2.55l7.717-8.114c0.009-16.031-0.042-32.063-0.096-48.095L37.212,165.872z M63.04,164.341l-2.681,3.68l3.179,0.008
	l2.305-3.563L63.04,164.341z M46.509,187.276c-1.057,3.829-5.93,7.983-6.017,7.913c2.412,3.481,2.331,8.445,0.203,10.891
	c0.011-0.055,3.879,3.178,4.422,4.857c0.306,0.669,0.429,1.482,0.816,2.146c0.103,0.176,0.43,0.613,0.43,0.613
	C55.813,204.049,51.313,192.742,46.509,187.276z M46.65,188.277c9.175,11.461,3.126,21.952-0.074,24.879l-0.611-1.018
	c6.817-7.978,3.928-17.778-0.044-22.419L46.65,188.277z M45.658,190.508c0.061,0.187,0.418,0.727,0.152,0.691l-0.46-0.093
	L45.658,190.508z M45.588,191.786c0.199,0,0.366,0.063,0.457,0.201c0.187,0.313-0.762,2.948-1.348,2.334
	c-0.176-0.349-0.385-0.65-0.547-1.011c-0.191-0.43-0.065-0.638,0.372-1.064C44.824,191.951,45.256,191.786,45.588,191.786z
	 M46.907,192.5c0.464,0.037,1.124,1.506,1.185,2.557c0.029,0.108-1.565-0.247-1.989-0.737
	C46.153,193.889,46.554,192.795,46.907,192.5z M43.318,193.7c2.763,5.593,2.59,9.96,0.157,13.977l-1.905-1.641
	c1.281-3.054,1.915-6.314-0.242-10.465L43.318,193.7z M45.182,195.099c0.191-0.017,0.781,0.071,1.305,0.239
	c1.848,0.596,1.917,1.813,0.138,2.707c-0.737,0.37-0.968,0.206-1.393-1.656C45.021,195.468,44.863,195.127,45.182,195.099z
	 M48.752,197.242c0.356-0.002,0.521,0.676,0.563,1.846c0.042,1.11-0.192,1.197-1.081,0.405c-0.961-0.856-1.126-1.06-0.246-1.765
	C48.246,197.522,48.59,197.242,48.752,197.242z M46.232,199.076c0.176-0.016,0.687,0.313,1.186,0.695
	c1.264,0.969,0.983,1.635-0.453,2.104c-0.995,0.325-0.945,0.366-0.92-1.366C46.058,199.651,46.006,199.096,46.232,199.076z
	 M62.967,200.653c-1.543,0.395-2.19,1.78-1.679,3.028c0.232,0.566,0.586,0.571,0.171,0.918c-0.463,0.538-0.709,1.784-0.199,2.237
	c0.602,0.348,0.756-0.251,0.123,0.921L49.76,229.254l69.764-0.131l-8.385-15.813c0.02-0.022,0.67-2.608-0.671-2.921
	c-0.431-0.1-0.677-0.503-0.765-0.889c0.109-1.101-0.387-1.568-0.805-2.136c-6.632,0.942-12.393,0.473-17.15-0.605
	c-6.855-1.552-11.754-4.24-14.939-5.084C72.415,200.512,67.113,200.006,62.967,200.653z M66.725,200.802
	c5.406-0.032,11.457,1.634,15.691,3.479c4.394,1.827,9.049,3.188,13.751,3.888c3.881,0.491,7.753,0.245,11.464-0.052
	c0.406-0.062,0.826-0.006,1.129,0.318c0.77,0.86,0.245,1.399-1.68,1.579c-3.091,0.257-6.923,0.146-10.322-0.367
	c-5.384-0.622-11.09-2.262-16.014-4.316c-6.153-2.325-11.805-3.104-16.27-2.417c-2.453,0.377-2.813,0.436-2.804-0.229
	C61.689,201.392,62.753,200.801,66.725,200.802z M49.013,204.555c-0.237,0.548-1.919-1.246-1.901-1.753
	c0.035-0.224,1.396-1.117,1.937-1.48c0.261-0.202,0.244-0.097,0.247,0.14C49.305,202.138,49.252,203.884,49.013,204.555z
	 M46.425,203.23c0.775,0.105,2.051,2.214,0.928,2.541c-0.995,0.289-1.899,0.475-2.021-0.197c0.512-1.649,0.705-2.302,1-2.34
	L46.425,203.23L46.425,203.23z M91.537,210.433c4.952,0.862,11.452,1.378,15.7,1.044c2.436-0.247,2.948-0.168,2.934,0.854
	c-0.01,0.641,0.061,0.625-3.083,0.622c-2.612,0.175-4.964-0.107-7.492-0.238c-5.232-0.262-9.986-1.164-14.381-2.7
	c-4.873-1.272-9.096-3.719-13.865-4.224c-4.374-0.433-8.309,0.348-9.134,0.809c-0.275-0.004-0.419-0.414-0.403-0.794
	c0.016-0.37,0.153-0.668,0.461-0.904C74.811,201.717,81.522,208.537,91.537,210.433z M48.062,206.215
	c0.418,0.005,0.285,0.627-0.398,1.946c-0.581,1.121-0.811,1.115-1.139-0.034c-0.352-1.229-0.317-1.365,0.38-1.545
	C47.314,206.482,47.661,206.267,48.062,206.215z M45.137,206.841c0.489,0.007,1.185,2.24,0.828,2.66
	c-0.282,0.332-1.302,0.106-1.6-0.285C43.888,208.585,44.499,206.831,45.137,206.841z M67.054,207.444
	c1.944-0.02,3.883,0.189,5.665,0.498c-1.026,0.382-2.048,0.734-3.113,1.354C68.871,208.659,68.035,208.04,67.054,207.444z
	 M69.58,210.154c6.873-3.858,9.775,1.469,10.768,2.327c6.009-1.339,7.186-0.679,10.537,2.968c6.017-2.963,8.934-0.444,11.444,1.148
	c2.946-2.772,6.682-2.849,8.629-1.457c0.364,0.613,0.87,1.392,0.911,1.623c0.033,0.182-0.242-0.029-0.92-0.518
	c-3.533-2.545-9.396,0.625-7.83,3.981c0.422,0.904,0.354,1.294-0.276,1.656c-0.896,0.61-1.997-0.402-1.372-1.437
	c1.042-1.727,0.257-3.171-2.278-4.506c-3.573-1.881-9.411,0.227-8.21,3c0.769,0.886,0.056,1.511-0.959,1.479
	c-1.148-0.035-1.537-0.81-0.801-1.637c0.919-1.057,0.678-2.127-0.393-3.347c-3.209-4.603-9.701-2.778-8.842,1.255
	c0.377,1.002-0.695,1.406-1.81,0.961c-0.709-0.283-0.603-1.387,0.173-1.776c0.893-0.091,1.019-1.393,0.912-2.228
	c-0.154-1.216-1.936-2.414-3.696-3.05c-1.274-0.46-2.459-0.558-3.394-0.472c-1.973,0.182-3.074,1.53-2.749,3.552
	c0.191,1.192-0.14,2.429-1.53,1.773c-0.761-0.358-0.57-1.226,0.207-2.024c2.731-2.686-2.769-5.955-6.09-3.703
	c-0.563,0.467-0.974,0.548-0.974,0.548C63.121,205.053,69.641,209.94,69.58,210.154z M78.632,209.451l4.149,1.573
	c-0.957,0.19-1.631,0.462-2.309,0.732L78.632,209.451z M67.794,211.148c-3.83-0.73-4.038,3.578-1.542,4.281
	c-3.434,4.75,5.557,6.594,3.908,0.732c4.556,0.826,3.731-4.394,0.344-4.346c0.792-1.945,7.046-0.471,6.776,0.974
	c-4.228,0.452-2.538,4.33-0.709,4.335c-4.421,4.214,4.426,8.1,4.19,1.746c3.55,0.751,3.968-3.993,0.556-4.305
	c1.25-1.771,5.712-0.654,6.95,1.37c-3.522,0.471-3.303,3.585-0.546,4.089c-3.493,4.479,5.104,6.134,4.211,0.928
	c3.081,1.066,4.771-3.072,0.78-4.256c4.088-2.452,8.528,1.203,8.047,1.277c-4.666-0.277-3.736,4.43-0.359,4.175
	c-2.148,4.889,6.364,5.161,4.205,0.091c3.829,0.07,3.493-4.396-0.175-4.695c2.31-1.695,4.914-1.845,6.59-0.258
	c-3.491,0.925-2.04,5.011,1.472,3.879c0.324,3.419,3.086,2.694,3.147,2.591l2.47,4.641l-66.938,0.108l5.713-10.617
	c3.377,0.174,3.257-3.099,3.108-3.179c2.245,1.614,4.661-2.398,1.375-3.549C64.052,208.333,68.032,210.945,67.794,211.148z
	 M46.003,210.853c-0.14,0.144-0.177,0.23-0.407,0.016C45.013,210.195,46.6,210.14,46.003,210.853z M59.844,212.631
	c0.295,0.243,0.092,0.908-0.146,1.136c-0.604,0.651-0.808,0.599-0.276-0.524C59.578,212.902,59.727,212.627,59.844,212.631z
	 M89.17,212.932l3.48,0.848l-1.652,0.938C90.388,214.05,89.8,213.474,89.17,212.932z M100.048,214.343l3.784,0.243
	c-0.5,0.343-0.99,0.662-1.603,1.286C101.753,215.362,100.851,214.853,100.048,214.343z M112.657,218.229
	c0.211,0.442,1.046,1.979,0.968,2.02C112.4,220.464,112.072,218.63,112.657,218.229z"/>
<path fill="#D40000" d="M49.451,65.67c-4.13-6.83-8.476-13.468-13.906-19.139c5.431-5.67,9.776-12.309,13.906-19.139
	c4.131,6.83,8.477,13.469,13.906,19.139C57.928,52.202,53.582,58.84,49.451,65.67z"/>
<path fill="#D40000" d="M15.65,57.12c-1.721-2.846-3.531-5.612-5.794-7.975c2.263-2.362,4.073-5.129,5.794-7.975
	c1.722,2.846,3.532,5.612,5.795,7.975C19.183,51.508,17.372,54.274,15.65,57.12z"/>
<path fill="#D40000" d="M131.54,185.632c-4.131,6.83-8.476,13.468-13.906,19.139c5.431,5.671,9.775,12.309,13.906,19.139
	c4.13-6.83,8.476-13.468,13.906-19.139C140.016,199.1,135.67,192.462,131.54,185.632z"/>
<path fill="#D40000" d="M165.342,194.172c-1.722,2.846-3.532,5.612-5.795,7.975c2.263,2.363,4.073,5.129,5.795,7.975
	c1.721-2.846,3.531-5.611,5.794-7.975C168.873,199.784,167.063,197.018,165.342,194.172z"/>
<polygon fill="#D40000" points="16.286,35.771 18.93,35.771 15.046,26.055 12.078,30.16 12.1,35.771 14.183,35.771 14.183,38.666 
	6.839,38.666 6.839,35.771 9.259,35.771 9.259,14.875 6.839,14.885 6.839,12.355 14.291,12.355 14.291,14.971 12.234,14.971 
	12.19,25.155 18.695,14.885 16.399,14.885 16.399,12.355 24.327,12.355 24.327,14.885 22.234,14.885 16.879,23.278 22.123,35.776 
	24.451,35.776 24.463,38.671 16.311,38.671 16.286,35.772 "/>
<polygon fill="#D40000" points="164.706,215.521 162.063,215.521 165.946,225.237 168.914,221.133 168.893,215.521 166.81,215.521 
	166.81,212.626 174.153,212.626 174.153,215.521 171.733,215.521 171.733,236.417 174.153,236.407 174.153,238.938 166.702,238.938 
	166.702,236.321 168.758,236.321 168.802,226.137 162.297,236.407 164.593,236.407 164.593,238.938 156.665,238.938 
	156.665,236.407 158.758,236.407 164.113,228.014 158.869,215.516 156.541,215.516 156.529,212.621 164.682,212.621 164.706,215.52 
	"/>
</svg>
