<?xml version="1.0" encoding="utf-8"?>
<!-- Generator: Adobe Illustrator 16.0.0, SVG Export Plug-In . SVG Version: 6.00 Build 0)  -->
<!DOCTYPE svg PUBLIC "-//W3C//DTD SVG 1.1//EN" "http://www.w3.org/Graphics/SVG/1.1/DTD/svg11.dtd">
<svg version="1.1" id="Layer_1" xmlns="http://www.w3.org/2000/svg" xmlns:xlink="http://www.w3.org/1999/xlink" x="0px" y="0px"
	 width="178.58px" height="249.45px" viewBox="0 0 178.58 249.45" enable-background="new 0 0 178.58 249.45" xml:space="preserve">
<path fill="#FFFFFF" d="M9.107,0.422h160.777c4.697,0,8.504,3.807,8.504,8.504v231.644c0,4.696-3.807,8.504-8.504,8.504H9.107
	c-4.697,0-8.504-3.808-8.504-8.504V8.926C0.604,4.229,4.41,0.422,9.107,0.422z"/>
<path fill="none" stroke="#000000" stroke-width="0.9967" d="M9.107,0.422h160.777c4.697,0,8.504,3.807,8.504,8.504v231.644
	c0,4.696-3.807,8.504-8.504,8.504H9.107c-4.697,0-8.504-3.808-8.504-8.504V8.926C0.604,4.229,4.41,0.422,9.107,0.422z"/>
<path fill="#D40000" d="M14.315,56.222c0,0-1.771-2.544-4.161-5.534c-1.6-2.002-2.878-4.169-2.997-6.035
	c-0.136-2.133,1.154-4.271,3.49-4.375c2.335-0.104,3.282,1.644,3.668,3.085c0.386-1.441,1.334-3.189,3.668-3.085
	c2.336,0.104,3.627,2.242,3.49,4.375c-0.118,1.866-1.397,4.033-2.996,6.035C16.088,53.678,14.315,56.222,14.315,56.222z"/>
<path fill="#D40000" d="M164.677,193.273c0,0-1.771,2.544-4.161,5.534c-1.6,2.002-2.878,4.169-2.996,6.035
	c-0.137,2.133,1.153,4.271,3.489,4.375c2.335,0.104,3.282-1.644,3.669-3.085c0.385,1.441,1.333,3.188,3.668,3.085
	c2.336-0.104,3.626-2.243,3.489-4.375c-0.118-1.866-1.397-4.033-2.996-6.035C166.449,195.817,164.678,193.273,164.677,193.273
	L164.677,193.273z"/>
<polygon fill="#D40000" points="16.245,35.879 18.889,35.879 15.005,26.162 12.037,30.267 12.059,35.879 14.143,35.879 
	14.143,38.773 6.798,38.773 6.798,35.879 9.218,35.879 9.218,14.982 6.798,14.992 6.798,12.462 14.25,12.462 14.25,15.077 
	12.193,15.077 12.149,25.262 18.654,14.992 16.358,14.992 16.358,12.462 24.286,12.462 24.286,14.992 22.193,14.992 16.838,23.385 
	22.082,35.883 24.41,35.883 24.422,38.777 16.27,38.777 "/>
<polygon fill="#D40000" points="164.041,214.621 161.396,214.621 165.281,224.338 168.248,220.233 168.228,214.621 166.145,214.621 
	166.145,211.727 173.488,211.727 173.488,214.621 171.068,214.621 171.068,235.518 173.488,235.509 173.488,238.038 
	166.037,238.038 166.037,235.423 168.093,235.423 168.137,225.238 161.633,235.509 163.928,235.509 163.928,238.038 156,238.038 
	156,235.509 158.093,235.509 163.448,227.115 158.204,214.617 155.877,214.617 155.865,211.723 164.017,211.723 "/>
<path fill="#E2CF00" d="M65.144,211.361c13.955,1.623,28.261,2.003,42.974,0.931c3.807,5.305,11.449,16.12,11.449,16.12
	l-69.252,0.566L65.144,211.361z M47.16,215.054c1.856-3.778,2.216-7.42,1.862-12.669c-0.279-4.027,2.219-7.164,4.796-5.963
	c1.992,0.93,1.072,4.74-0.988,3.935c-0.788-0.309-1.479-0.028-1.375,1.781c0.185,4.461,1.362,9.485,0.35,13.761
	C51.099,220.054,45.436,218.14,47.16,215.054z M29.762,209.228c-2.188-3.312,1.732-6.414,4.187-4.886
	c1.164,0.549,0.999,1.744-0.468,1.107c-2.047-0.89-4.251,2.257-2.47,3.521c0.82,0.582,1.133,0.504,0.509-0.225
	c-1.66-1.948,2.587-2.81,2.464-1.525c-0.29,1.563-0.326,2.221-0.468,2.527C32.65,211.112,30.988,210.416,29.762,209.228z
	 M35.863,195.303c-2.363-2.976,0.346-5.316,0.311-5.23c0.701-0.767-5.631-12.675-4.83-12.752c7.996-0.859,16.078-0.211,24.091,0.041
	c0,0.001-4.272,7.753-5.976,11.589c-0.687,1.546,0.918,3.365,0.254,4.514c-2.063,2.274-0.779,4.794-2.066,4.908
	c-3.299-0.625-6.808-0.987-11.067-0.047C36.255,198.298,36.306,196.313,35.863,195.303z M70.477,112.566
	c4.043,20.766-1.918,42.778-15.584,57.3c-1.929-1.87-3.408-5.419-5.332-7.735c-5.341-1.618-9.184,0.287-12.928,2.152
	c-3.328-1.936-7.076-3.073-10.729-3.024l-0.118-3.212c3.696-0.08,7.601,0.265,10.892,2.319l5.15-2.108l-16.06-16.811l0.218-2.873
	l19.486,19.84l2.51,0.09C42.468,143.711,47.292,120.215,70.477,112.566z M97.648,138.613l2.817,13.561
	c0,0-15.8,15.803-24.104,23.875l-6.938-0.638c3.465-5.202,5.438-10.464,7.74-15.712L97.648,138.613z M153.641,157.212
	c-6.614,7.475-14.518,12.227-23.295,17.463c-3.51-3.956-7.769-8.307-10.228-12.207c7.657-4.129,14.956-7.328,22.454-14.555
	c-0.41,0.467-9.564,3.602-9.535,3.24c-0.33,1.543-0.131,2.494-1.621,2.9c-1.763-2.485-3.468-4.503-6.248-5.613
	c-1.166,0.105-2.715-0.672-2.715-0.672c0.779-0.161,0.436-9.698,0-9.808c0.854-0.279,1.717-0.941,2.893,0.371
	c0.545,0.368,5.82-4.993,7.617-6.825c7.052-0.586,13.299,0.115,20.246-0.074c-0.054,8.489,0.432,17.29,0.43,25.779H153.641z
	 M108.858,135.713c-0.177-0.36-1.957-14.426-0.267-23.246c4.643-14.845,3.459-18.979,15.458-33.579
	c0.79-0.78,3.549,1.733,5.61,6.079c5.988,3.808,13.667-1.106,13.667-1.106s2.98,2.456,9.72,3.798l-0.115,2.643
	c-0.034,0.769-7.58-0.818-9.205-2.352c0,0-5.651,1.902-5.651,2.249c0,1.48,15.054,15.522,15.054,15.522l-0.085,3.293
	c0.097,0.004-20.64-21.712-20.909-19.438C138.005,115.078,128.019,127.998,108.858,135.713z M83.921,131.229l-0.335-13.49
	l12.702,0.152l0.522,13.631L83.921,131.229z M25.803,116.647c0.34-0.479-0.494-25.143-0.441-25.143
	c8.083-8.122,15.99-12.661,23.916-17.599c3.584,3.585,6.63,6.61,9.271,10.954l-10.935,6.804c0.415,1.657-0.664,2.255,6.386,8.71
	c0.119-0.441,2.441-1.756,2.847,0.21c-0.954,4.149,0.424,7.677,0.605,9.907c-0.963,1.307-3.114-0.097-3.114-0.097
	c-1.394-1.466-6.85,5.773-8.407,6.582C39.131,116.72,25.422,117.186,25.803,116.647L25.803,116.647z M102.21,72.794
	c0.047,0.084,6.993,0.012,6.929,0.174c-1.264,3.128-4.143,9.353-7.029,16.24c-2.411,4.01-19.656,20.707-19.656,20.707
	c-0.817-4.844-2.046-9.569-3.326-14.279L102.21,72.794z M132.18,49.542c2.499,1.077,9.522,0.514,10.637,0.029
	c1.429,0.979,0.537,2.284,0.356,3.01c1.466,1.875,2.27,2.54,0.604,5.563c-0.38,0,5.119,12.511,5.267,12.52
	c0,0-5.812-2.787-7.861-4.669l-4.008,5.386l-4.657-6.082c-0.017,0.549-8.974,6.554-9.082,6.265
	c-0.281-0.286,8.18-9.489,6.501-14.893c-0.404-1.303,0.521-2.626,1.154-3.772C131.523,52.11,130.939,50.589,132.18,49.542z
	 M127.53,48.421c0.379-0.44-2.172-11.753,0.594-16.318c1.171-1.66,3.29-1.745,4.175-0.386c0.678,1.89-1.339,4.521-1.743,5.807
	c-1.312,3.581,0.636,8.305-0.315,11.688C127.395,56.604,122.353,48.484,127.53,48.421z M146.479,43.397
	c-1.5,0.065-0.452-4.466-0.205-5.764c-0.009-0.257,2.746-0.905,3.738,0.876C151.613,41.174,149.688,44.533,146.479,43.397z
	 M128.587,20.553l-14.134,17.371c-14.291-1.662-28.633-2.718-43.246-0.458L59.455,20.896L128.587,20.553z"/>
<path fill="#131F67" d="M154.803,19.485H24.189V230.01h130.613V19.485z M128.451,20.578l-15.655,19.464l-0.386,0.131
	c1.044,3.088,2.533,6.938,3.955,9.863c2.265,4.727,7.956,13.411,4.405,20.359c-0.349,0.596-0.672,0.886-1.107,0.884
	c-0.603-0.004-0.592-0.361-0.232-1.059c0.791-1.534,1.327-5.173,1.012-7.099c-0.202-1.229-0.878-3.123-2.161-5.987
	c-5.949-11.104-7.809-17.022-7.471-17.022c-0.077-0.051-0.211-0.119-0.428-0.171l-0.584-0.196c2.062,7.02,5.412,12.922,8.063,18.386
	c2.175,5.078,2.408,7.049,1.271,10.746c-0.44,1.431-1.236,2.348-2.02,2.344c-0.586-0.003-0.553-0.122-0.152-0.849
	c2.084-3.781,1.602-7.908-0.988-12.71c-3.763-7.93-6.02-12.947-7.36-18.034c-0.034-0.002-0.687-0.224-0.922-0.28
	c1.116,5.295,4.234,11.402,7.137,17.652c2.399,4.813,3.091,8.319,2.226,11.09c-0.283,1.201-1.188,2.989-2.332,3.042
	c-0.447-0.002-0.519-0.238-0.096-0.856c1.777-3.082,2.094-5.925-1.088-12.396c-2.926-5.949-5.861-12.608-6.864-18.426
	c-0.063-0.478-1.335-1.043-1.062-0.252c1.57,6.871,4.699,13.907,8.021,20.767c1.87,4.258,2.063,6.983,0.661,9.366
	c-0.785,1.332-0.984,1.635-1.573,1.647c-0.695,0.016-0.683,0.042-0.299-0.769c1.696-3.581,1.418-6.736-0.851-11.911
	c-3.109-7.098-5.729-12.971-6.848-19.217c-0.201-0.059-1.254-0.472-1.104-0.159c1.555,5.95,3.546,11.473,6.111,17.059
	c0.894,1.938,2.342,5.706,2.81,7.595c0.887,3.596-1.112,8.532-3.729,8.781c-0.976,0.093-0.854-0.399,0.232-1.422
	c1.872-1.763,2.234-4.572,1.6-7.832c-0.477-2.51-1.299-5.203-2.428-7.939c-2.283-5.535-4.769-11.326-5.555-16.435
	c0.025-0.458-1.02-0.459-0.725,0.02c0.564,3.592,1.913,7.683,3.39,11.481c1.616,4.157,4.021,8.814,4.808,13.916
	c0.645,4.174-1.93,8.114-5.054,8.35c-3.763,0.284-4.503-3.483-3.599-5.25c1.477-2.637,5.765-1.131,4.49,1.565
	c-0.734,1.552-2.975,1.145-2.879-0.558c-0.025-0.155,0.215-0.622,0.172-0.647c-0.077-0.046-0.406,0.259-0.512,0.449
	c-0.761,1.379,1.526,3.228,3.115,2.12c5.327-2.92,1.73-11.824-0.592-17.264c-2.248-5.067-3.896-9.647-4.611-14.338
	c-0.193-0.137-1.073-0.362-0.95-0.201c0.646,2.504,0.942,4.615,1.585,6.72c1.006,3.299,2.811,6.991,4.283,10.69
	c1.337,3.641,2.68,6.733,2.068,10.529c-0.057,0.351-0.199,0.771-0.436,1.026c-0.238,0.254-0.437,0.215-0.508-0.752
	c-0.023-0.131-0.191-0.305-0.217-0.473c0.131-1.426,0.035-2.839-0.328-4.181c-0.313-1.123-0.905-2.271-2.157-4.452
	c-0.494-0.813-1.786-3.298-1.333-1.581c0.26,0.972,1.146,3.129,2.069,4.692c0.573,0.97,1.175,3.619,0.997,4.131
	c-0.188,0.5-0.625,0.528-0.829,0.356c-0.183-0.155-0.182-0.864-0.229-1.302c-0.193-1.8-2.013-4.94-3.275-6.174
	c-0.906-1.024,2.137,4.356,2.359,5.79c0.095,0.607,0.281,1.101,0.076,1.398c-0.135,0.196-0.408,0.197-0.676,0.128
	c-0.257-0.066-0.246-0.246-0.519-1.17c-0.467-1.581-1.044-2.377-2.241-3.802c-0.41-0.488-0.684,0.123-0.03,0.915
	c0.904,1.444,1.583,2.368,1.813,4.228c-0.586,0.842-0.874,0.678-2.1-1.453c-0.81-1.408-1.296-1.77-1.508-1.76
	c-0.537,0.026-0.031,0.699,1.477,3.104c0.781,1.283,0.8,2.081-0.087,2.076c-0.302-0.001-1.987-1.879-2.409-2.692
	c-0.35-0.676-0.785-1.193-0.786-0.368c0,0.328,1.044,2.056,1.76,2.895c1.129,1.322,1.452,1.588,1.596,2.174
	c0.069,0.279,0.205,0.768,0.302,1.085c0.289,0.952,0.143,1.224-0.443,0.721c-0.265-0.705-0.479-0.778-1.206-1.321
	c-0.612-0.458-1.462-1.644-2.02-2.48c-0.21-0.315-0.392-0.716-0.606-1.038c-0.547-1.034-1.273-1.124-0.747-0.08
	c0.249,0.483,0.651,1.277,1.075,1.866c0.709,1.021,0.563,1.555-0.279,1.551c-0.359-0.002-1.367-1.339-1.996-2.384
	c-0.41-0.682-1.052-1.163-0.974-0.488c0.02,0.168,0.516,1.365,1.26,2.302c0.809,1.018,0.915,1.558,0.13,1.554
	c-0.535-0.002-0.997-0.52-1.68-1.573c-0.648-1.001-1.054-1.354-1.237-1.239c-0.232,0.144,0.931,2.128,1.886,3.212
	c0.904,1.025,0.241,1.608-0.797,0.697c-0.564-0.494-1.692-1.969-2.009-2.67c-0.565-1.253-0.93-0.911-0.564,0.082
	c0.402,1.094,1.03,2.291,1.79,3.068c0.398,0.408,1.219,0.728,1.619,1.078c1.134,0.992,1.852,1.908,1.76,2.072
	c-3.234,0.186-5.89-3.307-6.616-5.421c-0.516-1.39-1.104-1.595-0.546,0.368c1.577,4.877,6.492,7.409,9.891,5.224
	c2.052-1.319,0.239-4.753-1.438-3.646c-0.456,0.301-0.477,1.153,0.103,0.697c1.09-0.857,2.187,1.258,0.996,1.884
	c-1.672,0.879-3.527-0.843-2.39-2.93c1.124-2.144,5.631-0.916,4.749,2.546c-0.534,1.554-2.873,3.496-4.879,3.534
	c-3.726,0.071-6.299-2.819-7.733-5.673c-0.184-0.368-0.514-1.089-0.786-1.678c-0.235-0.509-0.422-0.887-0.441-0.883
	c0.415,3.465,3.688,7.75,6.617,8.458c4.869,1.158,6.201-1.778,9.387-4.813l2.409,0.256c0.214-0.134,4.528-0.328,4.657-0.206
	c-17.431,31.973-16.104,69.93-1.115,98.741c0.992,2.107,1.164,1.708-0.477,1.278c-1.695-0.447-3.234,0.24-4.611-0.081
	c-2.85-0.589-3.457,1.379-5.646,2.43c-2.73,1.044-2.113,2.964-2.764,4.82c-0.205,0.287-0.354,0.522-0.242,0.484
	c0.182-0.061,0.764-0.605,0.808-1.085c0.112-1.229,0.545-2.2,1.038-2.689c0.471-0.466,0.799-0.701,0.912-0.5
	c0.089,0.157,0.022,0.707-0.21,1.151c-0.662,1.267,0.217,5.501,0.271,2.486c0.043-2.392,1.477-5.059,3.481-6.15
	c1.605-0.795,2.103-0.714,0.796,0.51c-1.484,1.601-2.494,3.466-2.554,5.788c-0.024,0.963,0.354,1.766,0.489,0.902
	c-0.058-4.421,4.31-9.345,8.991-6.897c0.232,0.171,0.43,0.491,0.361,0.672c-4.535-0.77-8.48,1.736-7.898,7.671
	c0,0,0.406-1.162,0.635-2.323c0.715-3.634,4.777-5.224,7.628-4.228c0.536,0.228,0.957,0.993,0.882,1.097
	c-3.485-1.107-7.311,2.226-7.532,5.836c-0.071,1.174-0.044,2.18,0.55,0.062c2.25-8.021,9.193-4.386,8.34-3.728
	c-5.373-0.648-7.318,3.009-7.194,7.238c0.077,0.387,0.273,0.516,0.435,0.876c0.717,1.594,1.042,2.96,1.1,5.852
	c-0.055,0.745,0.555,5.487-0.059,5.287c-1.952-0.73-3.436-1.593-6.817-0.054c-0.305,0.017-0.404-0.153-0.3-0.42
	c0.141-0.359,0.67-1.068,1.592-2.117c2.076-2.24,0.884-1.64-0.824-0.086c-1.104,1.003-0.863,0.317,0.176-3.109
	c0.421-1.39,0.158-1.558-1.654-2.489c-1.865-0.958-3.155-1.104-1.572-0.101c0.621,0.384,1.283,0.787,1.987,1.071
	c0.826,0.457,0.731,0.648,0.122,2.651c-1.184,3.889-1.595,5.311-1.533,7.926c0.15,6.363,6.145,5.731,9.557,4.301l0.143,4.189
	l12.851,18.31c0,0-44.922-0.047-68.955,0.353c1.373-3.334,15.901-17.454,16.767-19.979c0.083,0.012-1.61-5.162-2.5-7.413
	c-4.202-10.629-9.726-15.098-6.527-22.08c0.688-1.385,0.809-1.851,1.331-1.849c0.71,0.003,0.938,0.48,0.139,1.835
	c-3.435,5.825,3.894,15.877,6.369,22.289c0.396,1.026,2.055,5.838,2.347,7.458c0.027,0.495,1.19,0.664,0.865,0.085
	c-0.913-3.275-2.059-6.854-2.591-8.142c-1.957-4.733-4.015-7.963-5.922-12.59c-1.066-2.923-1.633-6.3,0.02-9.331
	c0.602-1.104,0.773-1.717,1.171-1.774c0.342,0.001,0.543,0.119,0.565,0.402c0.023,0.311-0.165,0.818-0.615,1.593
	c-2.887,4.972,2.245,13.005,4.787,18.732c1.658,3.734,3.132,7.661,3.653,11.203c0.008,0.244,0.327,0.893,0.963,0.45
	c-1.1-6.616-4.332-13.031-7.164-19.212c-2.418-4.829-3.326-9.039-0.094-13.015c0.281-0.274,0.885-0.229,0.928,0.179
	c0.023,0.276-0.186,0.8-0.691,1.86c-2.848,6.024,1.563,10.918,3.631,16.662c2.019,4.803,3.896,8.837,4.649,13.954
	c0.571,0.22,0.854,0.494,0.915-0.23c-1.477-7.231-4.659-13.731-7.42-19.993c-1.275-2.721-1.727-4.025-1.813-5.848
	c-0.119-2.506,1.127-5.677,2.245-6.513c0.29-0.217,0.471-0.255,0.735-0.109c0.363,0.199,0.29,0.332-0.427,1.705
	c-1.371,2.622-1.488,5.568-0.218,8.684c2.194,4.785,4.043,8.712,5.354,12.23c1.434,3.848,2.239,7.189,2.564,10.205
	c0,0,0.977,0.438,0.831-0.218c-0.608-4.219-1.986-8.598-3.474-12.303c-1.403-3.497-3.162-6.862-4.588-10.329
	c-1.729-4.158-0.297-8.703,3.248-10.974l1.631,0.036c-0.095-0.043-3.72,1.413-3.91,6.655c-0.181,4.995,2.158,8.064,3.849,12.296
	c2.062,5.103,3.905,9.578,4.345,15.031c0.161,0.189,1.054,0.23,1.039,0.149c-0.439-3.668-1.497-7.155-3.01-11.441
	c-1.606-4.556-3.204-6.575-4.695-11.358c-1.009-3.235-0.873-7.618,1.374-9.621c3.363-3.438,8.056-0.99,6.88,2.944
	c-0.907,2.771-4.656,2.22-4.637-0.376c-0.008-1.676,2.034-2.128,2.709-0.863c0.156,0.246,0.262,1.323,0.332,1.363
	c0.07,0.041,0.281-0.848,0.282-1.046c0.008-1.376-1.84-2.536-3.214-1.837c-1.883,0.957-3.105,3.157-2.982,6.104
	c0.132,3.133,0.693,5.16,3.228,10.073c2.952,5.725,3.932,11.924,4.562,16.101c0.272-0.115,0.6,0.033,0.705,0
	c-0.43-5.694-2.279-11.544-4.586-16.406c-2.794-5.889-3.576-9.492-2.645-12.131c0.138-0.389,0.268-0.68,0.436-0.706
	c0.313-0.047,0.409,0.459,0.699,1.516c0.088,0.324-0.023,0.835-0.088,1.229c-0.244,2.415,1.43,7.438,2.984,9.672
	c0.456,0.637,1.038,0.615,0.535-0.516c-1.603-2.919-2.578-5.565-2.707-9.114c-0.037-1.043,1.163-0.574,1.19-0.051
	c0.087,1.694,0.254,3.691,1.055,5.112c1.625,2.812,2.529,2.934,0.866-0.206c-0.369-0.729-1.426-3.808-1-4.867
	c0.237-0.215,0.525-0.254,0.668-0.038c0.471,1.74,1.121,3.464,2.271,4.805c0.604,0.698,0.703,0.383,0.386-0.488
	c-0.53-1.008-2.188-4.379-1.424-5.138c0.246-0.206,0.102-0.095,0.771,1.011c0.932,1.54,1.44,2.143,1.894,2.593
	c0.602,0.599,0.748,0.195,0.125-0.856c-1.243-2.102-1.951-3.848-1.514-4.287c0.432-0.434,0.536-0.233,1.518,1.458
	c0.438,0.753,1.07,1.861,1.287,2.124c0.215,0.26,0.411,0.327,0.416,0.112c-0.229-2.041-1.963-4.369-2.661-4.774
	c-0.101-0.189-0.064-1.802-0.064-1.802c2.604,1.356,2.71,2.887,4.436,5.243c0.178,0.175,0.431-0.039,0.355-0.364
	c-0.061-0.441-1.082-2.402-1.722-3.263c-0.504-0.677-0.526-1.064-0.1-1.26c0.69-0.315,1.654,0.722,2.68,2.573
	c0.477,0.859,1.113,1.357,1.115,0.906c0-0.248-0.885-2.463-1.496-3.104c-1.02-1.066-0.516-1.813,0.664-0.825
	c0.535,0.447,1.26,0.784,2.008,2.414c0.437,0.952,0.812,1.073,0.813,0.313c0-0.853-1.417-2.938-2.37-3.515
	c-0.739-0.446-1.158-0.945-0.95-1.278c0.646-0.962,3.267,1.492,4.16,3.774c0.265,0.674,0.727,1.017,0.84,0.721
	c0.201-0.151-0.329-1.796-0.874-2.558c-0.898-1.741-3.023-3.424-4.283-3.221c-0.243,0.04-0.912-1.387-0.912-1.387
	c3.212-0.524,6.332,3.362,6.887,4.816c1.054,2.76,1.589,2.437,0.668,0.016c-1.8-4.73-7.392-7.38-10.494-5.092
	c-1.767,1.303-0.71,4.42,1.107,3.892c0.723-0.274,1.423-1.019,0.151-0.772c-1.413,0.143-1.864-2.032-0.423-2.468
	c2.318-0.702,2.851,3.031,0.978,3.863c-1.943,0.842-3.878-0.414-3.695-2.569c0.344-4.074,5.298-5.253,10.188-1.957
	c1.376,0.927,3.067,3.949,3.649,5.863c0.192,0.633,0.84,0.854,0.92,0.774c0.186-0.188-1.358-3.551-1.866-4.405
	c-2.13-4.927-9.829-5.171-9.829-4.916c0,0-3.016,1.917-5.693,5.077l-6.882-0.641c17.532-28.446,18.91-70.272,0.927-99.881
	c0.23,0.149,3.457,0.993,4.57,0.108c0.82-0.397,1.056-0.535,1.962-0.206c1.021,0.371,2.096,0.043,3.206-0.984
	c0.838-0.773,0.854-1.012,1.394-0.941c1.597,0.209,2.657-0.734,2.985-3.062c0.129-0.913,0.218-1.863,0.088-1.724
	c-0.075,0.08-0.261,0.871-0.378,1.367c-0.323,1.367-0.622,1.868-1.149,2.313c-0.868,0.734-1.369,0.324-1.008-0.79
	c0.344-0.72,0.629-2.569,0.157-3.41c-0.083-0.151-0.103,0.421-0.222,0.88c-0.947,3.645-1.94,5.495-3.658,5.923
	c-0.807,0.2-1.18,0.076-0.919-0.394c3.03-3.262,2.828-6.877,2.6-6.568c-0.644,2.092-1.841,5.209-3.806,6.491
	c-1.697,1.106-4.184,1.212-5.566,0.282c-0.785-0.527,0.401-0.684,2.179-0.708c2.993-0.04,5.791-4.079,5.326-7.483
	c-0.109-0.629-0.279,0.046-0.522,1.081c-1.104,3.687-2.999,6.275-7.326,5.503c-0.338-0.061-0.563-0.286-0.748-0.415
	c-0.704-0.493-0.445-0.832,0.954-0.647c3.13,0.413,5.854-2.551,5.837-6.134c-0.008-1.719-0.252-1.699-0.522-0.419
	c-0.381,1.806-1.771,7.342-6.833,5.534c-0.912-0.5-1.409-1.139-1.085-1.232c2.952,0.602,5.658-0.054,6.71-3.972
	c0.453-1.692,0.345-3.344-0.117-4.728c-0.146-0.94-0.459-1.657-0.564-2.612c-0.283-2.559-0.687-5.384-0.565-8.184
	c0.242-0.244,0.284-0.19,1.134,0.379c1.668,1.12,2.931,0.862,4.627,0.198c2.183-0.797,1.984-0.652-0.298,1.953
	c-0.476,0.543-0.957,1.206-1.012,1.31c-0.581,1.1,0.509,0.292,1.325-0.744c1.134-1.439,1.371-1.771,1.596-1.771
	c0.075,1.557-0.48,3.448-0.768,4.724c-0.377,1.414-0.372,1.741,0.52,2.104c0.386,0.158,1.131,0.467,1.546,0.667
	c1.866,0.901,1.694,0.168,0.206-0.683c-2.01-1.146-2.026-1.089-1.451-2.995c0.674-2.234,1.006-4.17,1.371-6.382
	c0.902-5.47-3.181-8.479-8.604-6.568c-0.311,0.157-0.669-2.875-0.618-3.678c0.048-0.289-0.82-0.226-1.531-1.108
	c0.217-0.195-7.997-10.596-11.822-16.902C83.452,21.018,106.912,20.521,128.451,20.578z M110.811,40.112l0.084,0.062L110.811,40.112
	z M129.402,21.066h23.634v50.298l-2.337,0.051c0,0-3.84-6.677-4.852-9.831c-0.253-0.788-0.694-1.872-0.867-2.298
	c-0.39-0.965-0.663-1.085-0.145-1.675c1.039-1.181,0.834-3.568-0.176-4.72c-0.313-0.373-0.474-0.247-0.458-1.154
	c0.014-0.78,0.086-1.279-0.118-1.682c-0.342-0.673-0.572-0.721-0.084-1.461c0.512-0.775,1.19-2.034,1.478-3.022
	c0.462-1.596,0.137-1.895,1.168-1.52c2.589,0.833,4.756-1.033,4.688-3.672c-0.057-2.221-2.111-4.201-4.502-3.594
	c-0.551,0.14-0.659,0.092-1.508-0.445c-0.242-0.154-0.613-0.48-0.928-0.601c-0.393-0.151-0.718-0.139-0.881-0.423
	c-0.321-0.558-1.32-1.444-2.539-1.387c-0.744,0.034-1.71-0.237-1.966-0.372c-0.425-0.225-1.616-0.042-3.13-0.271
	c-0.674-0.103-1.217,0.162-1.543,0.166c-0.932,0.012-0.552-0.104-0.729-0.821c-1.169-3.734-4.582-3.289-6.146-0.48
	c-0.574,1.103-0.99,2.737-1.206,4.426l-9.192-0.14L129.402,21.066z M58.26,21.175c3.434,4.415,6.72,9.364,10.182,13.872
	c4.26,5.46,4.4,6.088,3.256,11.583c-0.64,3.105-0.914,3.823-2.211,3.588c-1.217-0.22-2.246,0.748-2.412,1.973
	c-0.312,2.3,1.881,3.716,4.085,2.565c1.161-0.606,1.2-0.672,0.813,1.333c-0.555,2.873-1.666,5.347-2.382,5.267
	c-1.847-3.964-6.341-1.144-4.849,2.977c-0.467,0.719,0.146,1.631,0.382,2.384c0,0,0.01,0.09-2.558,0.948
	C49.963,71.436,34.576,81.28,26.054,90.522V21.364L58.26,21.175z M130.578,30.61c0.528-0.014,1.037,0.157,1.458,0.538
	c1.099,0.998,0.841,2.393-0.68,5.019c-1.595,3.658-1.159,6.54-0.794,10.382c-0.011,2.23-0.756,4.35-1.943,5.266
	c-1.924,1.485-4.297-0.504-3.298-2.519c0.511-1.001,1.597-0.417,1.851-1.364c0.353-3.492-0.506-7.055-0.564-10.481
	c0.02-1.536,0.518-3.465,1.206-4.91C128.486,31.335,129.568,30.637,130.578,30.61L130.578,30.61z M133.608,36.579
	c-0.437,0.367-1.164,0.375-1.249-0.084c0-0.481,0.374-2.015,0.631-2.185C134.566,33.938,134.064,36.183,133.608,36.579z
	 M135.964,34.187c1.302-0.051,2.161,3.318,1.031,5.29c-0.215,0.041-1.794,0.03-1.802,0.062c-0.026-0.353,0.076-1.055,0.194-1.728
	c0.101-0.576,0.16-1.014-0.011-1.632C134.949,34.635,134.671,34.345,135.964,34.187L135.964,34.187z M138.445,34.233h0.152
	c1.323,0.007,2.076,2.591,1.661,5.413c-0.06,0.406-0.094,0.831-0.241,0.927c-0.553-0.151-2.087,0.402-2.113,0.397
	c-0.146-0.149-0.086-0.952,0.109-1.677c0.363-1.339,0.464-2.23,0.039-3.615C137.747,34.481,137.735,34.254,138.445,34.233z
	 M141.74,34.978c1.453,0.247,1.547,4.319,0.95,5.642c-0.143,0.195-0.69,0.148-0.886,0.222c-1.235,0.357-0.96,0.544-0.816-1.446
	c0.098-1.365,0.121-2.426-0.08-3.553c-0.099-0.495-0.139-0.84,0.217-0.872C141.332,34.928,141.552,34.935,141.74,34.978z
	 M134.49,36.57c0.578,0.803,0.113,2.659-0.328,3.349c-0.504,0.762-0.706,0.824-0.432,1.158c0.117,0.141,0.36,0.86,0.211,1.162
	c-0.277,0.56,0.434,0.659,1.08,1c1.048,0.555,1.557,1.578,2.339,3.44c0.272,0.649,0.832,0.444,0.561-0.254
	c-0.232-0.598-0.322-1.479-0.483-2.066c-0.168-0.604,0.016-0.906,0.704-0.729c1.034,0.267,0.892,0.018,1.27-0.123
	c0.83-0.466,1.388,0.193,0.886,0.558c-0.288,0.209-0.901,0.336-1.581,0.525c-0.577,0.16-0.442,0.724,0.138,0.721
	c0.535-0.002,2.071-0.438,3.073-0.746c2.872-0.881,2.968-1.349,2.699,0.306c-0.354,2.189-1.533,3.831-3.481,4.387
	c-1.696,0.483-5.611,0.391-7.356-0.174c-1.656-0.761-1.767-1.292-2.268-2.771c-0.686-2.023-1.089-5.449-0.302-7.44
	c0.694-1.682,0.625-1.505,1.291-1.42c0.592,0.209,1.389-0.023,1.564-0.392C134.164,36.886,134.39,36.564,134.49,36.57z
	 M145.488,37.783c0.164,0.9,0.18,1.825-0.129,2.522c-0.179,0.327-1.185,0.31-1.573,0.313c-0.23,0.055-0.212-3.042,0.034-3.379
	C144.405,36.352,145.161,37.065,145.488,37.783z M116.35,37.248l2.845,0.035v0.701l-3.355-0.023L116.35,37.248z M126.303,37.368
	v0.911l-4.283,0.008v5.704l4.79,0.016l0.026,1.186l-6.413-0.023l0.02-7.797l5.855-0.004H126.303z M148.073,37.187
	c4.391,0.979,2.432,5.901,0.786,6.2c-2.052,0.371-3.791,0.137-3.222-1.693c0.57-1.241,0.175-2.787,0.336-3.914
	C146.369,37.407,147.402,37.037,148.073,37.187z M114.969,38.914l4.226,0.043v0.941l-4.829-0.012L114.969,38.914z M124.355,39.782
	c0.675,0,1.222,0.556,1.222,1.24s-0.547,1.24-1.222,1.24s-1.222-0.556-1.222-1.24S123.681,39.782,124.355,39.782z M136.277,40.274
	c0.786,0.088,0.854,1.308,0.533,1.664c-0.412,0.415-1.181,0.238-1.415-0.396C135.184,40.969,135.657,40.25,136.277,40.274z
	 M113.789,40.806l5.404,0.016v0.763l-5.459,0.047l-0.145-0.492L113.789,40.806z M144.217,41.135c0.75-0.018,1.209,0.622,0.741,1.167
	C144.252,43.097,142.813,41.88,144.217,41.135z M86.617,42.803c-1.21,1.036-0.24,2.055,1.366,1.073
	c3.456-2.11,8.556-0.438,11.879,1.32c0.651,0.338,0.74-0.451,0.099-0.996C96.892,41.457,90.348,39.884,86.617,42.803L86.617,42.803z
	 M138.996,41.36c0.844,0.004,0.832,1.071,0.29,1.453c-0.542,0.238-0.636,0.172-0.996,0.029
	C137.796,42.648,138.165,41.364,138.996,41.36z M141.986,41.376c1.001,0.051,0.89,2.094-0.622,1.356
	C140.816,42.135,141.172,41.372,141.986,41.376z M114.048,42.429l5.253,0.047v0.868l-4.913-0.051L114.048,42.429z M80.1,44.472
	c1.436,1.155,0.99,1.226-1.39,0.376c-1.556-0.353-3.104-0.128-4.077,0.263c-1.152,0.463-1.419,0.329-0.92-0.453
	C75.053,43.132,78.745,43.439,80.1,44.472z M87.002,46.386c-0.145,0.36-0.637-0.289-1.303-0.163
	c-0.949,0.18-0.675,0.226,0.329,1.384c1.004,1.159,1.332,1.433,1.271,1.879c-0.09,0.657,0.092,1.019,0.737,0.946
	c0.31-0.035,0.678,0.329,1.153,0.767c1.643,1.517,2.474,2.27,3.008,2.504c2.176,0.953,1.196-0.123-0.195-1.097
	c-2.318-1.625-3.124-2.707-1.477-2.128c1.75,0.616,4.535,0.267,5.905-0.572c0.675-0.413,1.103-1.046,2.054-0.737
	c1.337,0.434,1.849-0.365,1.478-0.813c-0.606-0.396-1.991-0.866-3.306-1.764c-2.814-1.448-5.771-1.406-7.742-0.24
	c-1.161,0.688-1.565,0.204-0.428-0.477c4.567-2.499,8.182-0.105,11.105,1.689c0.507,0.313,0.861,0.287,0.862,0.066
	c-0.077-0.726-1.378-1.171-1.904-1.496C94.476,43.617,90.194,42.815,87.002,46.386z M114.735,44.173l4.565,0.004v0.915l-4.229-0.02
	L114.735,44.173z M77.588,45.34c1.264-0.007,4.016,1.146,3.97,2.1c-0.053,0.362-0.742,0.038-1.34-0.333
	c-1.157-0.717-2.933-0.909-4.604-0.593c-1.283,0.242-1.691,0.458-1.874,0.302C73.296,45.805,76.414,45.345,77.588,45.34z
	 M126.955,46.021l0.008,1.639c-2.479,0.184-2.988,2.979-1.398,4.535c1.304,1.276,3.457,0.773,4.54-1.035
	c0.189-0.322,0.212-0.517,0.328-0.357c0.073,0.101,0.136,0.405,0.194,0.702c0.172,0.86-0.071,1.08-0.633,1.817
	c-0.908,1.19-1.031,2.691-0.463,3.809c0.157,0.308,0.484,0.747,0.428,0.949c0.317-0.01-2.813,8.886-7.389,13.368
	c-0.766,0.517-1.32-0.091-0.926-0.925c3.727-8.644-3.402-16.673-6.168-24.397L126.955,46.021z M93.831,47.514l0.652,0.058
	c-0.525,3.982-4.331,3.341-4.481,0.097l0.55-0.02C91.293,50.667,93.839,49.431,93.831,47.514z M72.327,47.595
	c0,0,0.274,0.444,0.274,0.693c0,0.927-0.016,2.268-0.038,2.674c-0.221,3.832-5.011,4.542-4.646,1.264
	c0.285-1.393,2.018-1.546,2.443-0.287c0.622,1.584,0.732-0.381,0.741-0.996C71.608,49.978,71.98,48.806,72.327,47.595L72.327,47.595
	z M95.407,47.866c0.196,0.005,0.548,0.179,0.825,0.48c0.314,0.344,0.197,0.515-0.539,0.898c-0.796,0.416-1.156,0.38-0.87-0.461
	C95.002,48.262,95.155,47.859,95.407,47.866z M131.238,48.067c0.107,0.005,0.385,0.149,0.32,0.565
	c-0.108,0.695-0.7,1.091-0.855,0.927C130.803,49.192,130.921,48.213,131.238,48.067z M89.688,49.412
	c-0.094,0.281-0.257,0.159-0.675-0.201c-0.461-0.398-0.438-0.652,0.038-0.938C89.734,47.855,89.776,49.152,89.688,49.412
	L89.688,49.412z M75.187,48.373c0.799,2.564,2.429,2.238,3.157,0.125l0.698-0.012c-0.154,3.301-4.271,3.242-4.306,0.05
	L75.187,48.373z M73.743,48.691c0.243-0.039,0.069,0.817,0.069,0.817s-0.677-0.354-0.279-0.729L73.743,48.691z M79.79,48.908
	c0.083-0.006,0.241,0.06,0.412,0.175c0.4,0.269,0.331,0.427-0.126,0.813c-0.703,0.596-1.021,0.265-0.641-0.535
	C79.576,49.064,79.683,48.915,79.79,48.908z M132.368,49.467c0.297-0.02,0.715,0.117,1.6,0.356c2.436,0.656,5.696,0.633,8.471-0.144
	c0.876-0.245,1.526,1.314,1.054,2.449c-0.209,0.501-0.172,0.563,0.466,1.235c0.904,0.955,1.05,2.493,0.362,3.895
	c-0.5,1.021-0.467,0.929,0.126,2.67c1.272,3.787,3.146,7.309,5.113,10.767l-2.625-0.992c0,0-11.851,10.341-20.209,10.732l3.027,4.79
	c4.763,1.931,9.315,1.447,13.671-1.333c-0.107,0.4,5.298,3.083,9.738,3.375l0.026,3.225c-3.294-0.375-6.632-0.452-9.692-2.407
	c0,0-2.813,1.194-5.631,2.089l15.781,16.571l0.009,2.77c0,0-6.737-6.383-13.671-13.578l0.149,35.383l13.655,0.271
	c-0.43,9.209-0.257,15.063-0.164,25.61c-6.453,6.72-15.332,13.443-23.535,17.48c-3.871-3.789-7.069-7.895-9.868-12.284
	c-0.06-0.093,0.282-0.27,0.224-0.362c-0.086-0.136-0.57-0.187-0.658-0.319c-1.707-2.579-5.671-9.729-5.043-9.897
	c1.213,0.086,6.836-0.621,7.955-4.041c0.01-0.218-0.122-0.827,0.03-1.543c0.396-1.854,0.599-4.67-0.072-6.459
	c-1.209-3.227,2.427-2.192,2.55-1.977v-12.188c-4.73,3.85-9.504,7.639-15.827,9.223c-3.934-20.125,2.304-45.154,20.087-62.129
	l-0.975-0.084c-18.271,19.188-23.063,40.291-19.945,62.516c0,0,0.116,0.694,0.135,0.929c0.042,0.554-0.089,0.765-0.573,1.163
	c-0.462,0.309-0.882,0.64-0.84,1.02c0.078,0.714-0.598,0.736-1.481,0.732c-0.406-0.362-0.955,0.095-1.282,0.26
	c-0.458,0.068-0.687-1.83-1.271-0.438c-0.224,0.879-0.646,0.944-1.622,0.507c-0.614-0.182-0.628,0.128-0.039,0.849
	c0.815,0.891,1.504,2.221,1.371,2.62c-0.3,0.895-0.17,1.796,1.076,2.31c-0.071,0.005-0.752,2.729,1.18,2.65
	c0.615,0.006,2.172,0.325,2.172,0.325c0.102,0.521-0.063,0.816-0.305,1.046l-1.344-0.682l-0.352,1.624l-1.791-0.128l4.355,5.46
	l0.508-4.259l5.093,0.654c0.817,2.153,5.962,14.09,15.797,23.002c-0.108,0.292-6.765,3.079-6.765,3.079l-1.054-3.314l-0.844,1.232
	l-1.504-0.392l-0.176,1.395l-1.34,0.438l2.415,1.591l-6.123,1.773c-17.154-28.086-24.878-66.82-3.515-108.076l5.397,0.069
	l-1.053,1.829l1.534-0.248l0.434,1.333l1.126-0.54l1.134,1.441l1.289-3.851c0,0,3.824,0.088,4.302,0.039
	c0.374-0.043,8.083-6.608,7.917-6.858c-0.119-0.182-8.396,5.958-8.673,5.723c0,0-0.831,0.201-0.184-0.585
	c1.162-1.41,1.981-2.483,3.161-4.511c1.948-2.691,2.823-5.975,3.283-8.199c0.008-0.156,0.05-0.514-0.08-0.775
	c-0.743-1.496-0.579-2.474,0.756-4.239c0.467-0.617,0.495-0.771,0.362-1.15c-0.301-0.857-0.012-1.591,0.604-2.166
	c0.244-0.229,0.402-0.339,0.633-0.353H132.368z M86.884,55.441c3.388,1.412,0.667,4.54-1.849,1.813
	c-1.318-1.429-2.359-1.338-3.077-0.294c-0.323,0.47,0.147,1.297,0.565,1.034c0.388-0.243,0.786-0.531,1.352-0.004
	c4.284,4.004,7.36-1.601,3.668-2.995C87.087,54.782,86.438,55.256,86.884,55.441z M72.93,55.306l0.119,0.047
	c0.16,0.102,0.172,1.517,0.011,2.112c-0.535,3.015-2.652,10.021-6.997,6.591c-1.726-1.361-0.156-4.78,1.908-3.619
	c1.612,0.907,0.524,3.071-1.222,1.829c-0.847-0.604-0.578,0.641,0.138,0.996c1.213,0.645,3.41-0.459,4.439-2.426
	c0.411-0.784,0.797-2.17,1.229-4.166C72.773,55.666,72.791,55.313,72.93,55.306z M73.297,60.525c0.357,2.18-1.277,5.997-3.604,6.561
	c-1.781,0.432-3.983-0.746-3.826-1.837c0.046-0.316,0.174,0.102,1.787,0.372c2.254,0.378,3.688-0.856,4.985-3.7
	C73.05,61.023,73.225,60.546,73.297,60.525z M78.904,61.568c0,0.246-0.116,0.895-0.218,1.325c-0.239,1.021-0.391,1.409,0.71,0.902
	c0.729-0.34,1.793-0.678,2.895-0.058c1.215,0.684,2.374,0.557,3.806-0.059c1.243-0.42,1.849-0.424,2.542-0.019
	c1.267,0.739,0.832,0.267,0.668-1.597c-0.112-1.313-0.465-1.14-0.92-0.644c-0.298,0.326-0.9,0.397-1.572,0.031
	c-0.801-0.437-1.914-0.229-2.291,0.081c-0.375,0.31-0.918,0.353-1.652-0.151c-0.487-0.333-0.759-0.158-1.355,0.112
	c-0.983,0.447-1.36,0.206-1.894-0.213C79.138,60.922,78.91,61.035,78.904,61.568z M74.025,63.134
	c0.129-0.002,0.143,0.502,0.054,1.515c-0.409,3.738-3.294,5.82-6.688,4.011c-1.486-0.861-1.284-1.469,0.18-0.93
	c2.334,0.859,4.691-0.342,5.845-3.414C73.711,63.528,73.912,63.135,74.025,63.134z M82.31,65.8c1.679,0.704,3.54,0.48,4.013-0.144
	c0.531-0.701-0.284-0.586-0.711-0.48c-1.469,0.356-2.478,0.227-3.072-0.043C80.799,64.451,80.908,65.19,82.31,65.8z M64.799,67.896
	c2.176,2.703,2.463,3.23,4.337,6.305c13.702,23.608,18.09,53.447,9.082,80.535c-2.473,7.475-5.959,15.093-9.868,21.212l-4.691,0.051
	l1.61-1.864l-2.184,0.163l-0.134-1.232l-1.656,0.543l-0.798-1.86l-1.5,4.259l-8.696,0.023c20.367-20.091,24.379-44.439,20.58-63.985
	c0,0,1.702-1.081,1.939-1.713c0.057-0.153,0.184-0.806,0.301-0.903c0.758-0.502,1.261-0.991,1.634-0.895
	c0.215,0.055,0.325,0.155,0.481,0.388c0.718,1.066,0.872,1.233,1.264,0.158c0.281-0.771,0.16-1.051,1.084-0.902
	c0.541,0.291,1.26,0.283,1.195,0.174c-0.049-0.081-0.816-0.995-1.18-1.515c-0.86-1.229-1.106-1.45-1.027-1.988
	c0.121-0.819-0.522-1.704-0.924-1.926c0.115-2.208-0.72-2.429-3.085-2.922c-0.012-0.381,0.052-0.69,0.218-1.03l1.39,1.123
	l0.504-2.084l1.886,0.104l-5.467-5.371c0.027,1.515,0.099,3.047-0.038,4.507c-2.563-0.143-5.091-0.98-5.13-0.822
	c-3.763-8.993-9.496-16.599-15.55-22.533l6.047-2.949l1.714,3.317l0.42-1.879l1.501,0.267l0.252-1.205l1.657-0.236l-1.829-1.763
	L64.799,67.896z M100.809,71.775c0.231,0.295,0.417,0.315,0.726,0.585l-0.618,0.445C100.945,72.384,100.908,72.168,100.809,71.775z
	 M60.577,72.883c-0.513,0-0.932,0.426-0.932,0.946s0.419,0.941,0.932,0.941s0.927-0.421,0.927-0.941S61.09,72.883,60.577,72.883z
	 M65.622,73.033c-0.515,0-0.932,0.423-0.932,0.945s0.417,0.945,0.932,0.945s0.932-0.423,0.932-0.945S66.137,73.033,65.622,73.033z
	 M49.369,73.725c2.994,2.525,5.746,5.817,9.085,10.966l-0.068,0.694l1.019,0.383c0,0,5.555,7.421,5.261,10.719
	c-1.906,0.404-3.648-0.121-7.058,3.115c-1.609-0.878-2.563-0.598-4.23-0.104c0,0,0.029,0.733,0.604,0.98
	c1.109-1.322,2.317-0.709,2.974-0.38c-0.235,0.103-0.837,7.475,0.332,9.045c0.881,2.503-1.434,2.027-3.039,1.41l0.462,11.707
	c5.283-6.117,16.439-10.197,15.648-9.754c5.6,30.025-7.714,50.055-21.648,64.737l7.302,0.042c0,0-6.296,10.252-6.765,13.086
	c0.358,0.942,1.349,2.894-0.324,4.263c-0.566,0.63-0.626,3.488-0.626,3.488c-3.841,0.134-7.169-1.22-11.597,0.356
	c-0.459,0.156-0.559-2.447-0.581-2.918c-2.475-2.227-0.208-6.052,0.128-5.771c-1.998-5.954-6.014-13.063-6.014-13.063
	s-2.421-0.131-3.895-0.216c-0.307-0.262-0.506-7.203-0.194-7.371c10.944,0.882,28.073-0.128,28.073-0.128l-4.597-6.518
	c-5.661-2.24-13.44,1.585-13.065,1.787c0.018,0.022-6.218-3.452-10.544-2.958l0.142-3.404c3.843-0.016,7.389,0.711,10.483,2.563
	l5.259-1.987l-16.117-17.163l0.187-2.828c5.253,4.934,13.868,14.477,13.868,14.477l0.012-36.03l-13.857-0.034l-0.37-7.273
	l-0.358-0.636l-0.164-5.22l0.385-0.531l-0.133-2.231l-0.131-0.318l-0.175-5.332l0.298-0.449l0.045-3.355
	C32.08,84.915,49.368,73.725,49.369,73.725L49.369,73.725z M61.207,74.735l1.614,7.185l1.084-1.364l1.665,0.531l0.114-1.655
	l1.516-0.534L61.207,74.735z M116.274,75.931c-0.515,0-0.931,0.423-0.931,0.945s0.416,0.945,0.931,0.945s0.932-0.423,0.932-0.945
	S116.789,75.931,116.274,75.931z M111.915,76.521c-0.515,0-0.932,0.424-0.932,0.946c0,0.521,0.417,0.945,0.932,0.945
	s0.932-0.424,0.932-0.945C112.847,76.945,112.43,76.521,111.915,76.521z M58.52,77.359c-0.515,0-0.932,0.423-0.932,0.945
	c0,0.521,0.417,0.945,0.932,0.945c0.514,0,0.931-0.424,0.931-0.945C59.45,77.782,59.033,77.359,58.52,77.359z M115.258,77.929
	l-6.482,6.188l1.817-0.078l0.325,1.807l1.627-0.756l1.316,1.232L115.258,77.929z M118.017,80.008c-0.515,0-0.932,0.424-0.932,0.946
	c0,0.521,0.417,0.945,0.932,0.945s0.931-0.424,0.931-0.945C118.947,80.432,118.531,80.008,118.017,80.008z M66.467,81.227
	c-0.515,0-0.932,0.423-0.932,0.945s0.417,0.945,0.932,0.945s0.932-0.423,0.932-0.945S66.981,81.227,66.467,81.227z M70.498,82.017
	c-0.515,0-0.932,0.424-0.932,0.945c0,0.522,0.417,0.946,0.932,0.946s0.932-0.424,0.932-0.946
	C71.43,82.44,71.013,82.017,70.498,82.017z M66.841,83.424c0.179,2.528,0.47,5.526,0.535,8.06l1.229-1.229l1.42,0.586l0.504-1.555
	l1.546-0.077L66.841,83.424z M106.752,85.532c-0.514,0-0.931,0.424-0.931,0.946c0,0.521,0.417,0.945,0.931,0.945
	c0.516,0,0.932-0.424,0.932-0.945C107.684,85.956,107.268,85.532,106.752,85.532z M64.169,85.698c-0.515,0-0.932,0.423-0.932,0.945
	s0.417,0.945,0.932,0.945s0.932-0.423,0.932-0.945S64.684,85.698,64.169,85.698z M110.445,85.928c-0.515,0-0.932,0.424-0.932,0.945
	c0,0.522,0.492,0.946,0.932,0.946s0.932-0.424,0.932-0.946C111.377,86.352,110.959,85.928,110.445,85.928z M109.893,87.97
	l-5.373,5.61l1.76,0.167l0.553,1.592l1.127-0.969l1.367,1.016L109.893,87.97z M112.844,89.173c-0.514,0-0.932,0.423-0.932,0.945
	s0.418,0.945,0.932,0.945c0.515,0,0.932-0.423,0.932-0.945S113.358,89.173,112.844,89.173z M70.476,90.922
	c-0.515,0-0.932,0.423-0.932,0.945s0.417,0.945,0.932,0.945s0.932-0.5,0.932-0.945S70.99,90.922,70.476,90.922z M47.518,91.688
	l-1.357,1.054c1.119,0.441,1.748,1.394,1.748,1.394S47.757,93.576,47.518,91.688z M74.881,92.324c-0.515,0-0.932,0.424-0.932,0.945
	c0,0.522,0.417,0.946,0.932,0.946s0.932-0.424,0.932-0.946C75.813,92.748,75.396,92.324,74.881,92.324z M68.208,93.673
	c-0.515,0-0.932,0.424-0.932,0.945c0,0.522,0.417,0.946,0.932,0.946s0.931-0.424,0.931-0.946
	C69.139,94.097,68.723,93.673,68.208,93.673z M106.688,95.578c-0.515,0-0.932,0.423-0.932,0.945s0.417,0.945,0.932,0.945
	s0.932-0.423,0.932-0.945S107.202,95.578,106.688,95.578z M103.012,96.966c-0.515,0-0.932,0.423-0.932,0.945
	s0.417,0.945,0.932,0.945c0.514,0,0.932-0.423,0.932-0.945S103.525,96.966,103.012,96.966z M140.537,97.199l1.936,2.135v31.241
	l-1.89,0.039L140.537,97.199z M65.191,97.42c1.577,0.003,3.335,0.233,3.895,1.205c0.87,1.092-0.98,0.669-2.539,0.907
	c-1.439,0.179-0.604,0.477,1.428,0.597c2.801,0.168,3.901,0.242,4.318,0.897c0.237,0.61,0.063,1.022,0.113,1.68l-3.18-0.151
	c-1.649,0.002-2.618-0.029-3.107,0.097c-0.39,0.101-0.277,0.418-0.145,0.555c0.069,0.071,1.335,0.088,2.813,0.128
	c3.979,0.105,4.859,0.242,5.142,1.542c0.213,1.191-0.744,1.011-4.833,0.558c-1.819-0.15-2.798,0.284-3.062,0.415
	c-0.448,0.224,1.3,0.443,1.871,0.349c0.356-0.057,2.981,0.231,3.947,0.415c0.813,0.124,0.097,0.102-0.313,0.604
	c-0.271,0.415-0.186,0.893-0.61,1.127c-0.521,0.28-1.555,0.275-3.409,0.275c-2.12,0.001-3.108,0.522-0.198,0.651
	c1.879,0.083,1.985,0.05,2.146,0.601c0.425,1.358-0.48,1.597-2.397,1.906c-0.916,0.16-2.275,0.07-3.303-0.004
	c-4.055-0.293-5.46-1.274-6.009-3.089c-2.045-6.769,0.479-10.9,6.387-11.233C64.474,97.434,64.828,97.42,65.191,97.42z
	 M106.182,97.723l-4.58,6.762l1.765-0.697l0.84,1.833l1.413-1.023l1.41,0.884L106.182,97.723z M71.918,98.544
	c0.237,0.295,0.133,0.515-0.26,0.732c-0.331,0.184-0.897,0.048-1.271-0.116c-0.493-0.217-0.542-1.109-0.138-1.205
	C70.832,97.837,71.554,98.111,71.918,98.544z M38.748,98.199l-2.102,2.325c0,0,1.936-0.702,2.973-1.116L38.748,98.199z
	 M109.037,99.237c-0.515,0-0.932,0.424-0.932,0.946c0,0.521,0.417,0.945,0.932,0.945c0.514,0,0.932-0.424,0.932-0.945
	C109.969,99.661,109.551,99.237,109.037,99.237z M143.133,100.055c0,0,2.333,2.34,3.291,3.321l-0.867-0.004l0.023,1.845l2.76,0.031
	l1.516,1.507l-4.215-0.019v1.883l5.219,0.004l-0.026-0.806l2.062,1.895l0.244,20.949l-9.944-0.031
	C143.158,120.314,143.186,110.37,143.133,100.055L143.133,100.055z M74.911,102.326c-0.143,0.453-0.462,0.454-1.008,0.229
	c-0.807-0.334-0.692-1.237-0.08-1.333C74.978,101.088,75.191,101.628,74.911,102.326z M78.041,102.722
	c-0.514,0-0.931,0.423-0.931,0.945s0.417,0.945,0.931,0.945c0.515,0,0.932-0.423,0.932-0.945S78.556,102.722,78.041,102.722z
	 M74.762,103.446c0.364,0.022,0.726,0.212,0.932,0.418c0.51,0.522,0.329,1.009-0.24,1.31c-0.639,0.338-1.089-0.122-1.275-0.891
	C74.053,103.765,74.352,103.463,74.762,103.446z M104.002,105.926c-0.516,0-0.935,0.425-0.935,0.949s0.419,0.949,0.935,0.949
	c0.518,0,0.936-0.425,0.936-0.949S104.52,105.926,104.002,105.926z M73.22,107.077c0.803,0.027,1.045,0.859,0.626,1.306
	c-0.602,0.604-1.535,0.346-1.668-0.232C72.135,107.5,72.657,107.077,73.22,107.077z M100.665,107.46
	c-0.515,0-0.932,0.424-0.932,0.946c0,0.521,0.417,0.945,0.932,0.945s0.931-0.424,0.931-0.945
	C101.596,107.884,101.18,107.46,100.665,107.46z M103.973,108.088l-4.168,7.1l1.688-0.679l1.022,1.368l1.054-0.934l1.592,0.79
	L103.973,108.088z M71.262,109.273c0.745,0.004,0.954,0.599,0.412,1.144c-0.368,0.37-0.785,0.382-1.21,0.039
	C69.819,109.937,70.313,109.27,71.262,109.273z M106.894,109.361c-0.515,0-0.932,0.424-0.932,0.945c0,0.522,0.417,0.946,0.932,0.946
	s0.931-0.424,0.931-0.946C107.824,109.785,107.408,109.361,106.894,109.361z M76.545,110.107c-0.515,0-0.894,0.423-0.894,0.945
	s0.417,0.945,0.932,0.945s0.932-0.423,0.932-0.945S77.059,110.107,76.545,110.107z M145.606,110.316v2.007l5.253,0.005v-2.008
	L145.606,110.316z M76.613,112.099l-2.012,7.46l1.684-0.973l1.05,1.089l0.978-1.221l1.756,0.465L76.613,112.099z M80.19,112.909
	c-0.515,0-0.932,0.423-0.932,0.945s0.417,0.945,0.932,0.945s0.932-0.423,0.932-0.945S80.705,112.909,80.19,112.909z M73.632,113.288
	c-0.515,0-0.931,0.424-0.931,0.946c0,0.521,0.416,0.945,0.931,0.945s0.932-0.424,0.932-0.945
	C74.563,113.712,74.146,113.288,73.632,113.288z M145.603,113.878v1.802h5.253v-1.791L145.603,113.878z M102.377,116.233
	c-0.516,0-0.932,0.423-0.932,0.945s0.417,0.945,0.932,0.945c0.514,0,0.931-0.423,0.931-0.945S102.891,116.233,102.377,116.233z
	 M145.606,117.241v1.941h5.253v-1.941H145.606z M37.298,117.478l1.848,0.035l0.03,33.841l-1.802-1.934L37.298,117.478z
	 M36.526,117.543l-0.091,30.932l-3.501-3.736l0.931-0.012v-2.107l-3.03-0.023l-1.294-1.279l4.32,0.005v-2.069l-5.126-0.02v1.252
	l-2.52-2.729l0.042-20.197L36.526,117.543z M102.514,118.488l-2.805,7.359l1.764-1.02l0.912,0.911l0.943-0.864l1.604,0.794
	L102.514,118.488z M28.747,118.842l-0.026,1.979h5.176v-1.979H28.747z M105.689,119.24c-0.514,0-0.931,0.424-0.931,0.945
	c0,0.522,0.417,0.945,0.931,0.945c0.516,0,0.932-0.423,0.932-0.945C106.621,119.664,106.205,119.24,105.689,119.24z M99.351,119.346
	c-0.515,0-0.932,0.424-0.932,0.946c0,0.521,0.417,0.945,0.932,0.945s0.932-0.424,0.932-0.945
	C100.282,119.77,99.865,119.346,99.351,119.346z M77.431,119.698c-0.515,0-0.932,0.423-0.932,0.945s0.417,0.945,0.932,0.945
	s0.932-0.423,0.932-0.945S77.945,119.698,77.431,119.698z M145.606,120.461v2.081h5.253v-2.081H145.606z M77.316,121.636
	l-0.779,1.221l-1.782-0.616l2.432,7.467l3.05-7.789l-1.752,1.016L77.316,121.636z M28.747,122.178v1.977h5.149v-1.977H28.747z
	 M145.606,123.949v2.061h5.249v-2.061h-5.252H145.606z M28.747,125.673v1.98h5.149v-1.98H28.747z M102.447,126.045
	c-0.518,0-0.936,0.426-0.936,0.949c0,0.524,0.418,0.95,0.936,0.95c0.516,0,0.935-0.426,0.935-0.95
	C103.382,126.471,102.963,126.045,102.447,126.045z M74.403,127.033c-0.517,0-0.935,0.425-0.935,0.949s0.418,0.949,0.935,0.949
	s0.936-0.425,0.936-0.949S74.92,127.033,74.403,127.033z M80.382,127.212c-0.517,0-0.936,0.425-0.936,0.949s0.419,0.949,0.936,0.949
	s0.936-0.425,0.936-0.949S80.898,127.212,80.382,127.212z M145.606,127.344v1.859h5.249v-1.859h-5.252H145.606z M102.439,128.211
	l-1.115,1.19l-1.6-0.462l3.627,6.867l1.832-7.386l-1.6,1.034L102.439,128.211z M28.747,128.909v2.247h5.149v-2.247H28.747z
	 M77.351,129.928c-0.517,0-0.936,0.426-0.936,0.949c0,0.524,0.419,0.95,0.936,0.95s0.936-0.426,0.936-0.95
	C78.286,130.354,77.867,129.928,77.351,129.928z M77.29,131.885c-0.399,0.287-0.573,0.791-0.989,1.051l-1.702-0.736l1.022,9.35
	l4.727-8.835l-2.16,0.368L77.29,131.885z M28.747,132.191v2.336h5.149v-2.336H28.747z M106.094,133.274
	c-0.517,0-0.936,0.426-0.936,0.95c0,0.523,0.419,0.949,0.936,0.949c0.516,0,0.936-0.426,0.936-0.949
	C107.029,133.7,106.61,133.274,106.094,133.274z M100.047,133.383c-0.517,0-0.936,0.426-0.936,0.95s0.419,0.949,0.936,0.949
	s0.936-0.425,0.936-0.949S100.563,133.383,100.047,133.383z M28.747,135.582v2.34h5.149v-2.34H28.747z M103.42,136.104
	c-0.517,0-0.936,0.425-0.936,0.949s0.419,0.949,0.936,0.949s0.936-0.425,0.936-0.949S103.937,136.104,103.42,136.104z
	 M116.623,136.179c5.008,0.162,5.742,1.798,5.771,7.443c0.023,4.507-1.299,6.268-4.531,7.137c-1.178,0.316-5.581,0.023-6.828-0.383
	c-0.021-0.386-0.644-1.281-0.784-1.97c0.317-0.092,1.323,0.051,3.229,0.234c1.545,0.149,1.942-0.103,1.454-0.411
	c-2.906-0.695-4.885-0.506-7.677-1.05c-0.039-0.848-0.714-1.834-0.714-1.834c0.151-0.062,4.304,0.392,6.494,0.322
	c0.965-0.041,0.385-0.501-0.008-0.586c-2.555-0.371-4.214-0.312-6.916-0.657c0.074-0.701-0.278-1.34-0.714-1.876
	c0,0,1.367-0.013,4.185,0.031c1.482,0.023,2.773,0.086,3.421,0.063c1.089-0.002,0.989-0.518,0.046-0.588
	c-1.151-0.13-5.682-0.157-5.682-0.157c0.337-0.159,0.777-2.218,0.604-2.24c0,0,1.174,0.024,1.92-0.004
	c3.631-0.138,4.257-0.08,4.325-0.217c0.478-0.442-0.812-0.616-2.153-0.612c-0.578,0.001-1.422,0.13-1.416-0.19
	c0.008-0.293-0.008-0.896-0.303-1.517c2.227-0.87,4.275-1.005,6.275-0.939H116.623z M73.441,137.337
	c-0.516,0-0.935,0.425-0.935,0.949s0.419,0.95,0.935,0.95c0.518,0,0.936-0.426,0.936-0.95S73.959,137.337,73.441,137.337z
	 M109.17,137.535c0.617,0.003,0.812,1.13,0.232,1.306c-0.889,0.27-1.375,0.058-1.344-0.477
	C108.076,138.062,108.77,137.533,109.17,137.535z M79.55,138.516c-0.517,0-0.935,0.425-0.935,0.949s0.418,0.949,0.935,0.949
	s0.936-0.425,0.936-0.949S80.066,138.516,79.55,138.516z M106.185,139.581c2.116-0.02,1.021,2.902-0.607,1.849
	C104.77,140.906,105.338,139.587,106.185,139.581z M72.713,141.918c-0.043-0.005-0.066,0.039-0.061,0.146l0.488,8.882l5.093-8.297
	l-2.023,0.764l-0.87-1.341l-1.092,0.872C73.799,143.304,72.947,141.939,72.713,141.918L72.713,141.918z M104.223,142.826
	c0.949,0.135,1.582,1.1,0.924,1.563C103.662,145.05,102.867,142.892,104.223,142.826z M101.941,144.775
	c-0.516,0-0.935,0.426-0.935,0.95s0.419,0.949,0.935,0.949c0.518,0,0.936-0.425,0.936-0.949S102.459,144.775,101.941,144.775z
	 M105.539,145.579c0.809-0.012,1.189,1.18,0.39,1.554c-0.171,0.08-0.677,0.138-0.901-0.03
	C104.084,146.396,104.572,145.654,105.539,145.579z M70.521,147.044c-0.517,0-0.936,0.425-0.936,0.949s0.419,0.95,0.936,0.95
	s0.936-0.426,0.936-0.95S71.037,147.044,70.521,147.044z M141.962,148.233l-3.467,1.183v1.663
	C140.009,150.591,140.873,149.343,141.962,148.233z M109.479,149.037c0.602,0.256,0.765,1.082,0.248,1.36
	c-0.408,0.219-1.512,0.184-1.781-0.177C107.246,149.082,108.75,148.759,109.479,149.037z M76.802,149.365
	c-0.517,0-0.936,0.425-0.936,0.949s0.419,0.949,0.936,0.949s0.935-0.425,0.935-0.949S77.318,149.365,76.802,149.365z M72.97,151.006
	c-0.455,0-0.824,0.375-0.824,0.837s0.369,0.837,0.824,0.837c0.456,0,0.825-0.375,0.825-0.837S73.426,151.006,72.97,151.006z
	 M111.848,152.418c-0.516,0-0.935,0.425-0.935,0.949s0.419,0.949,0.935,0.949c0.518,0,0.936-0.425,0.936-0.949
	S112.365,152.418,111.848,152.418z M69.957,152.469l-0.046,8.39l5.513-6.866l-1.912,0.422l-0.817-1.701l-1.18,0.779L69.957,152.469z
	 M104.946,154.401c-0.517,0-0.935,0.425-0.935,0.949s0.418,0.95,0.935,0.95s0.936-0.426,0.936-0.95S105.463,154.401,104.946,154.401
	z M132.533,154.434l-0.905,1.565l2.565-1.445L132.533,154.434z M108.68,155.549c-0.517,0-0.936,0.425-0.936,0.949
	s0.419,0.949,0.936,0.949s0.936-0.425,0.936-0.949S109.196,155.549,108.68,155.549z M111.83,156.573l-1.118,1.619l-1.474-0.48
	l-0.435,1.543l-1.768-0.066l5.745,5.076L111.83,156.573z M67.051,157.222c-0.517,0-0.936,0.425-0.936,0.949s0.419,0.949,0.936,0.949
	s0.936-0.425,0.936-0.949S67.567,157.222,67.051,157.222z M153.036,159.501v68.985H121l-13.449-18.909
	c-0.276-3.036-0.115-6.154,1.145-10.229c1.314,0.925,4.195,0.42,4.098-3.164c-0.064-2.348-3.629-3.548-5.404-1.782
	c0.092-2.269,0.999-5.678,2.306-6.684c0.897,0.827,1.096,2.053,3.125,1.71c1.442-0.243,2.583-1.879,1.958-3.784
	c-0.16-0.483-0.246-1.071-0.244-1.465c0-0.394,0.038-1.093-0.038-1.484c-0.101-0.517-0.138-1.077-0.138-1.077
	C129.331,178.159,142.385,168.957,153.036,159.501z M73.599,159.779c-0.517,0-0.935,0.425-0.935,0.949s0.418,0.949,0.935,0.949
	s0.936-0.425,0.936-0.949S74.115,159.779,73.599,159.779z M69.188,160.706c-0.517,0-0.936,0.425-0.936,0.949s0.419,0.95,0.936,0.95
	s0.936-0.426,0.936-0.95S69.705,160.706,69.188,160.706z M115.469,161.163c-0.517,0-0.936,0.426-0.936,0.95
	c0,0.523,0.419,0.949,0.936,0.949s0.936-0.426,0.936-0.949C116.404,161.589,115.985,161.163,115.469,161.163z M65.834,162.176
	l-1.458,8.84l6.367-6.607l-1.729-0.039l-0.343-1.507l-1.619,0.53L65.834,162.176z M109.128,164.063
	c-0.517,0-0.936,0.425-0.936,0.949s0.419,0.949,0.936,0.949s0.936-0.425,0.936-0.949S109.645,164.063,109.128,164.063z
	 M113.255,165.093c-0.517,0-0.936,0.425-0.936,0.949s0.419,0.949,0.936,0.949s0.935-0.425,0.935-0.949
	S113.771,165.093,113.255,165.093z M61.868,166.245c-0.517,0-0.936,0.425-0.936,0.949s0.419,0.949,0.936,0.949
	s0.936-0.425,0.936-0.949S62.385,166.245,61.868,166.245z M116.977,166.962l-1.523,1.174l-1.4-0.869l-0.328,1.877l-1.195,0.636
	l5.013,3.564L116.977,166.962z M120.681,169.49c-0.517,0-0.936,0.425-0.936,0.949s0.419,0.949,0.936,0.949s0.936-0.425,0.936-0.949
	S121.197,169.49,120.681,169.49z M67.793,169.811c-0.517,0-0.936,0.425-0.936,0.949s0.419,0.949,0.936,0.949
	s0.936-0.425,0.936-0.949S68.31,169.811,67.793,169.811z M63.64,171.05c-0.517,0-0.936,0.426-0.936,0.95
	c0,0.523,0.419,0.949,0.936,0.949s0.935-0.426,0.935-0.949C64.574,171.476,64.156,171.05,63.64,171.05z M118.285,173.56
	c-0.518,0-0.936,0.426-0.936,0.95c0,0.523,0.418,0.949,0.936,0.949c0.516,0,0.935-0.426,0.935-0.949
	C119.22,173.985,118.801,173.56,118.285,173.56z M114.364,174.41c-0.517,0-0.936,0.425-0.936,0.949s0.419,0.949,0.936,0.949
	s0.936-0.425,0.936-0.949S114.881,174.41,114.364,174.41z M78.156,175.761l0.015,0.009c0.105,0.114,0.431,0.978,0.142,1.418
	c-0.149-0.071-0.821-0.706-0.649-0.922C77.742,176.166,78.068,175.761,78.156,175.761L78.156,175.761z M56.932,177.25
	c0,0,0.905,0.048,1.104,0.136c0,0.234-0.218,0.747-0.462,1.321c-1.221,2.869-1.408,6.085-0.168,9.185
	c1.946,4.207,7.44,14.159,7.032,15.069l-12.14,0.051l0.053-1.874c3.411-0.136,3.947-2.253,3.097-4.003
	c-0.59-1.213-2.242-1.906-3.754-1.27c-2.181,0.919-2.315,2.013-3.095,3.709l-0.347-0.447c0.655-0.884,0.874-1.733,0.82-2.701
	c-0.053-0.95-0.081-0.688,0.246-1.209c1.9-2.072,0.656-4.77,0.656-4.77C49.748,188.791,55.66,178.221,56.932,177.25L56.932,177.25z
	 M29.172,177.521c3.452,2.789,6.441,12.182,6.26,12.326c-0.16-0.132-2.781,3.018,0.042,5.953c0,0-0.173,1.764,0.37,2.67
	c-1.246,2.626-1.467,2.824-1.572,4.982c-0.024-0.008-0.217-0.025-1.375-0.03c-5.721-0.027-5.987,7.356-0.271,7.762
	c0.782,0.056,1.052-0.125,1.522,0.349c0.479,0.603,0.908,1.208,1.727,0.895c0.193,0.002,0.508,0.187,0.836,0.496
	c0.549,0.755,1.347,1.292,2.484,1.085c0.404,0.04,0.816,0.158,1.252,0.318c0.501,0.4,1.371,0.704,2.051,0.403
	c0.202-0.09,0.592-0.12,0.908,0.026c0.826,0.383,1.668,0.144,1.978-0.097c0.767-0.404,0.937,0.244,0.901,0.841
	c-0.392,1.367,0.469,2.648,1.771,3.15c2.746,0.862,4.131-0.853,4.722-4.255c0.146-0.745,0.274-1.631,0.274-1.631l9.196,0.244
	l-13.204,15.477H26.054v-50.988C27.042,177.439,28.183,177.521,29.172,177.521L29.172,177.521z M111.861,180.292
	c1.678,0.656,1.812,1.859,0.142,1.337c-2.714-0.848-5.632,0.835-6.241,3.24c-0.113,0.443-0.232,0.779-0.303,0.863
	c-0.379,0.467-0.36,0.041-0.248-1.294c0.22-2.591,2.025-4.468,4.379-4.546C110.361,179.895,111.192,180.057,111.861,180.292z
	 M111.029,182.125c0.701,0,1.444,0.209,1.999,0.698c0.629,0.7,0.441,1.165-0.042,1.142c-2.272-0.963-5.162,0.202-6.293,3.114
	c-0.695,1.787-0.82,0.829-0.513-0.554C106.75,184.021,108.627,182.17,111.029,182.125z M95.225,182.814
	c-0.991,0.004-1.933,0.203-2.412,0.663c-0.911,0.873-0.153,0.888,1.496,0.306c0.803-0.282,2.346-0.152,3.333,0.194
	c0.827,0.29,1.119,0.413,1.073,0.151C98.671,183.343,96.878,182.809,95.225,182.814L95.225,182.814z M113.751,185.738
	c0.419,0.971,0.147,2.683-1.313,2.856c-1.722,0.204-2.611-2.727,0.533-2.214c-0.407-1.172-1.818-0.848-2.514-0.551
	c-1.42,0.629-2.387,2.045-3.257,4.646c-0.258,0.771-0.446,1.175-0.546,1.097c-0.164-0.129-0.242-1.327,0.138-2.771
	c0.685-2.602,2.353-4.174,4.119-4.224C112.056,184.4,113.389,184.896,113.751,185.738z M89.11,184.609
	c-0.152,0.035,0.116,0.581,0.534,1.43c0.232,0.47,0.39,1.078,0.39,1.197c0,0.461,0.347,0.575,0.859,0.279
	c0.591-0.342,0.686-0.6,1.522-0.221c0.789,0.42,1.566,0.686,2.287,0.259c0.391-0.231,0.649-0.222,1.405-0.019
	c0.901,0.241,1.021,0.278,1.694-0.009c0.86-0.365,1.883-0.114,2.1,0.131c0.207,0.234,0.087-0.09,0.555-1.19
	c0.217-0.51,0.527-1.13,0.442-1.304c-0.116-0.235-0.899,0.024-1.753,0.252c-0.461,0.122-0.901,0.086-1.786-0.167
	c-1.866-0.534-3.042-0.381-4.21,0.183c-0.653,0.314-2.291-0.12-3.943-0.803L89.11,184.609L89.11,184.609z M92.782,189.682
	c-0.842-0.013-1.605,0.524-1.955,1.263c-0.405,1.025,0.285,2.876,1.337,3.034c0.935,0.142,0.899-0.438,0.429-0.596
	c-0.713-0.237-1.552-1.273-1.01-2.174c0.373-0.619,1.5-0.615,2.283,0.147c1.579,1.538,3.388,1.64,3.73,0.305
	c0.104-0.533-0.296-1.243-0.913-1.05c-0.478,0.15-1.581,0.195-2.505-0.441C93.7,189.84,93.223,189.688,92.782,189.682
	L92.782,189.682z M109.453,194.564c4.029-0.246,2.297,5.342-0.03,3.907c-0.831-0.513-0.462-2.395,1.746-2.36
	c-2.166-1.712-3.642,0.373-3.112,2.713c-0.486,0.764-0.621,2.219-0.94,3.042c-0.49,0.94-0.875-1.521-0.38-3.901
	C107.215,195.661,108.025,194.65,109.453,194.564L109.453,194.564z M86.658,194.758c-0.832,0.01,0.023,0.919,0.153,1.027
	c2.51,1.999,3.736,3.235,1.718,2.576c-3.28-0.792-4.125,0.149-6.623,1.268c-0.459,0.224-0.589,0.085-1.142-0.081
	c-2.194-0.659-2.034,0.738,0.26,1.999c3.463,1.904,6.321,2.334,9.013,0.907c1.729-0.918,1.818-0.317,0.21,0.697
	c-2.753,1.63-5.651,1.382-10.101-1.43c-1.438-0.909-1.639-0.302-0.168,0.654c3.359,2.06,7.884,3.928,11.578,0.888
	c0.727-0.655,0.873-0.996,1.432-0.713c1.477,0.748,0.991-0.555-0.016-1.783c-0.355-0.434-0.618-0.784-0.596-1.081
	c0.084-1.064-0.496-1.061-1.026-1.034c-0.634,0.031-0.563-0.184-1.34-1.05C88.877,196.338,87.492,194.983,86.658,194.758
	L86.658,194.758z M53.122,200.423c-1.395,0.112-1.714,0.176-1.374,3.077c0.064,0.546,0.304,2.18,0.37,2.794
	c0.827,7.598,0.157,10.958-1.928,11.889c-0.75,0.335-1.488,0.212-2.038-0.012c-1.32-0.536-1.863-2.163-0.905-4.1
	c0.259-0.521,0.569-1.329,0.694-1.794c0.125-0.466,0.406-1.487,0.623-2.271c0.525-1.904,0.81-4.803,0.5-7.571
	c-0.211-1.88-0.164-2.038,0.297-3.306c1.014-1.874,1.668-2.833,3.802-2.856C55.549,196.526,56.217,200.191,53.122,200.423z
	 M104.402,200.257l-0.652,0.03c-0.787-2.655-2.428-1.796-2.701,0.068l-0.555-0.006C100.59,196.804,104.96,197.765,104.402,200.257z
	 M43.105,198.273c4.455,0.447,5.267,1.571,5.617,7.032c0.032,2.644-0.14,4.238-0.539,4.841c-0.668,0.324-1.307-0.283-2.257,0.328
	c-0.522,0.325-0.423,0.358-0.647,0.006c-0.212-0.331,0.035-1.726,0.377-2.839c0.326-1.062-0.232-1.68-1.707-3.041
	c-0.399-0.369-0.749-0.881-1.107-1.612c-0.767-2.09-1.156-1.17-0.518,0.632c0.316,0.776,0.391,1.16-0.57,0.825
	c-0.564-0.198-1.058,0.036-1.493,0.271c-1.223,0.315-2.276-0.363-1.216-0.771c0.645-0.248,1.803-0.607,2.16-0.605
	c0.26,0.002,0.386-0.059,0.386-0.183c0-0.522-2.355-0.465-4.154,0.163c-2.208,1.032-2.335,0.849-2.132-0.757
	C35.822,198.493,39.556,197.996,43.105,198.273z M86.67,198.629c1.139-0.052,2.186,1.273,1.978,2.398l-0.542-0.034
	c-0.255-2.118-2.227-2.208-2.752,0.162l-0.783,0.02C85.068,199.345,85.891,198.664,86.67,198.629z M99.914,198.672
	c0.449,0.271,0.138,1.003-0.342,1.15c-0.181,0.046-0.755-0.359-0.617-0.606C99.214,198.918,99.606,198.762,99.914,198.672z
	 M105.02,199.03c0.313,0,0.719,0.162,0.774,0.591c0.018,0.626-0.451,0.497-0.606,0.44
	C104.877,199.769,104.759,199.054,105.02,199.03L105.02,199.03z M89.403,199.532c0.835,0.1,1.138,1.164,0.19,1.231
	C89.172,200.853,89.152,199.787,89.403,199.532z M84.322,199.648c0.1,0.001-0.055,0.875-0.264,1.003
	c-0.412,0.255-0.939-0.022-0.92-0.286C83.186,199.734,83.938,199.645,84.322,199.648z M98.894,201.771
	c1.591,0.611,3.659,1.205,5.604,0.516c0.709-0.271,1.277-0.596,1.275-0.289c0,0.32-0.563,0.806-1.58,1.095
	c-2.095,0.596-3.611,0.365-5.051-0.731C98.736,202.052,98.595,201.767,98.894,201.771z M98.237,202.684
	c2.58,1.528,4.909,1.68,7.005,0.566c0.85-0.299,0.877-0.025,0.875,0.527C102.339,207.146,97.617,203.648,98.237,202.684z
	 M34.905,205.012c-0.64,1.309-0.983,4.535-2.028,5.491C25.749,210.088,30.334,200.544,34.905,205.012z M79.081,203.941
	c-0.403,0.215-0.047,1.242,0.588,1.52c5.452,2.381,8.248,2.665,11.349,1.569c1.285-0.454,1.987-1.521,2.051-2.038
	c0.075-0.616-0.754-0.677-2.207-0.023c-4.421,1.76-7.194,0.388-10.764-0.976C79.767,203.866,79.43,203.822,79.081,203.941z
	 M58.203,204.016l-0.02,8.067l-5.191-0.093l0.061-1.193l3.887,0.116l-0.061-5.763l-4.509-0.042l-0.008-1.069L58.203,204.016z
	 M59.409,204.035l5.181,0.008l0.26,0.821h-5.44V204.035z M38.509,206.597c-0.341,0.31-0.935,0.379-1.18,0.128
	c-0.548-0.563,0.008-1.596,0.882-1.588C39.088,205.144,39.162,206.002,38.509,206.597z M40.896,205.285
	c0.783,0.004,1.042,0.745,0.446,1.345c-0.403,0.373-0.609,0.397-0.973,0.124C39.91,206.346,40.15,205.312,40.896,205.285z
	 M35.783,205.484c0.206-0.008,0.387,0.014,0.52,0.221c0.477,0.989-1.087,1.674-1.413,0.938
	C34.649,206.046,35.257,205.504,35.783,205.484z M65.078,205.593l0.302,1.038l-5.971,0.027v-1.039L65.078,205.593z M43.707,205.892
	c0.891,0.108,0.753,1.018,0.34,1.422c-0.71,0.667-1.398,0.45-1.218-0.445C42.941,206.308,43.3,205.902,43.707,205.892z
	 M38.906,208.867c-0.314,1.136,0.355,3.435,0.155,3.675c-0.435,0.523-1.136,0.255-1.446,0.076c-1.078-0.703-1.146-4.826-0.104-5.072
	c0.672,0.341,1.122-0.27,1.429-0.358C39.247,207.098,39.041,207.659,38.906,208.867z M54.688,207.174
	c0.588,0,1.064,0.484,1.064,1.081s-0.477,1.081-1.064,1.081c-0.589,0-1.065-0.484-1.065-1.081S54.099,207.174,54.688,207.174z
	 M59.409,207.313h6.108c0.365,0.517,0.328,0.866,0.225,1.224l-6.333,0.009V207.313z M41.473,207.453
	c0.278-0.003,0.418,0.604,0.231,1.295c-0.337,1.25-0.319,2.95-0.088,3.688c0.155,0.51,0.308,0.859,0.218,1.004
	c-0.316,0.507-1.284,0.16-1.695-0.508c-1.003-1.888-0.843-5.411,0.355-5.138C40.944,208.022,41.201,207.664,41.473,207.453z
	 M36.088,207.93c-0.295,0.478-0.084,3.161-0.114,3.383c-0.038,0.279-0.793,0.135-1.214-0.059c-1.037-0.493-0.755-1.747-0.553-2.759
	c0.226-0.795,0.725-0.854,1.34-0.927C35.887,207.529,36.334,207.56,36.088,207.93L36.088,207.93z M44.396,208.077
	c0.33-0.013,0.375,0.234,0.301,1.228c-0.06,0.778-0.088,1.44,0.037,2.174c0.266,1.559,0.299,1.981-0.088,2.286
	c-0.457,0.362-1.075,0.253-1.553-0.174c-0.98-0.789-1.045-4.657-0.275-4.991C43.534,208.78,43.985,208.206,44.396,208.077z
	 M65.49,209.247l-0.878,1.224h-5.207v-1.22l6.081-0.005L65.49,209.247z M46.923,210.885c0.813,0.01,0.679,1.469,0.241,2.384
	c-0.371,0.553-0.643,0.609-1.199,0.09C45.333,212.77,46.084,210.881,46.923,210.885z M63.971,211.293l-0.732,0.682l-3.817,0.004
	v-0.678L63.971,211.293z"/>
<path fill="#D40000" d="M38.412,182.183l-6.33-5.038c7.528-0.167,15.055,0.01,22.581,0.141l-7.518,5.437
	c-1.538-1.707-2.448-4-4.632-5.106C40.887,178.297,39.775,180.646,38.412,182.183z M93.621,180.349
	c-0.173-0.11-0.285-0.356-0.411-1.166c-1.879-8.895-11.114-8.265-11.053-8.003c-0.068-0.352,11.479-10.935,18.266-19.238
	c2.052,6.346,8.271,20.844,8.011,20.791c0,0-1.799,0.015-6.464-0.103c-4.246,1.945-7.2,3.841-7.062,6.584
	c-0.023,0.967-0.253,1.368-0.57,1.285C94.084,180.47,93.854,180.398,93.621,180.349z M114.666,151.799
	c6.006-0.096,7.14-3.074,7.824-3.433c3.945-0.659,6.384,1.948,8.112,4.737c2.208,1.35,1.933,0.104,2.39-1.998l5.498-1.636
	l-0.008,1.777c-1.697,0.928-4.217,3.306-4.217,3.306l-1.673-0.101l-0.96,1.298c-3.819,2.098-7.564,4.597-11.593,6.218
	c0,0-4.825-6.334-5.376-10.169H114.666z M39.818,152.356l-0.063-35.164c2.485-0.179,7.061-0.155,7.061-0.155
	c1.912-3.427,4.521-5.038,7.209-7.029c0.377,4.335,0.521,8.476,0.436,12.813c-7.119,8.819-11.074,19.676-6.684,35.9l-2.635-0.296
	L39.818,152.356z M79.156,154.328c2.027-7.335,3.603-14.777,4.255-22.461l13.554-0.204l0.27,4.711L79.156,154.328z M125.306,138.315
	l-0.252-13.157c9.891-11.995,10.477-22.455,6.808-35.681c3.268,0.763,4.949,3.349,8.063,6.912v34.309
	c-2.163,0.327-7.526,0.647-7.526,0.647c-0.162,1.607-4.694,5.451-7.094,6.97H125.306z M83.425,117.579l-0.604-5.801l17.611-17.075
	c-1.454,7.398-3.212,14.996-3.726,22.872L83.425,117.579z M54.205,99.458c-1.257,0.837-5.891-4.05-6.648-7.336
	c1.162-1.594,11.358-6.664,11.358-6.664s5.959,7.764,5.716,11.002c-2.646,0.714-4.942,0.918-6.952,3.107
	C56.529,99.672,56.125,98.359,54.205,99.458z M46.163,92.894c1.418,0.231,0.509,2.174,0.291,3.597l-7.493,2.254
	C41.537,96.514,43.363,94.614,46.163,92.894z M70.563,75.728c1.54-0.048,3.146,0.598,4.334,0.111
	c0.444-0.176,1.331-0.447,2.304-0.261c2.24,0.703,3.025-1.802,4.453-1.813c1.849,0.005,2.873-1.308,2.886-3.936
	c0.008-1.136,0.099-1.264,0.31-1.377c0.63-0.339,1.303,0.136,1.387,0.76c1.325,4.84,4.672,9.192,9.949,8.846
	C91.983,82.406,79.201,95.77,79.201,95.77C76.898,88.65,73.841,82.022,70.563,75.728z M124.939,71.557l7.698-5.672l4.608,5.693
	l3.983-5.42c2.343,1.702,7.667,5.498,7.667,5.498S132.929,71.896,124.939,71.557L124.939,71.557z"/>
<path d="M129.307,20.14l-70.775,0.461l13.754,18.647c14.612-3.02,27.332-1.058,40.533,1.282L129.307,20.14z M127.497,21.085
	l-4.711,5.94c-1.304-1.195-4.212-0.764-3.801,1.854c-3.61-1.905-4.376,3.325-1.311,3.111c-0.385,1.026-3.479,1.298-4.353-0.566
	c-3.178,1.808-4.147,0.055-4.989-1.085c4.038,2.783,6.003-2.937,1.558-3.259c1.746-3.586-4.482-5.213-4.115-0.547
	c-4.107-0.944-3.166,4.923-0.148,3.721c-1.96,2.99-5.175,0.981-5.825,0.399c-1.653,1.258-4.778,1.298-5.654-0.714
	c4.572,0.934,4.071-5.178,0.012-3.77c2.164-4.693-5.036-4.063-3.287-0.218c-4.096-0.158-3.189,4.969,0.408,4.097
	c-3.196,3.058-5.591,0.208-6.097,0.146c-1.893,2.119-5.216,0.958-5.672-0.294c3.26,1.308,4.329-4.253,0.219-3.919
	c1.053-3.582-4.861-4.017-3.557,0.052c-3.259-0.749-3.437,4.548,0.215,3.724c0.227,1.45-2.646,2.84-4.413,1.438
	c-1.296,0.721-2.715,1.841-4.401,0.183c2.569-0.42,2.991-4.828-1.156-3.875c0.197-2.706-1.333-2.854-3.224-2.167l-3.03-4.165
	L127.497,21.085z M78.672,27.731c-0.226,0.504-0.605,0.848-0.517,1.231c0.073,0.315,0.392,0.752,0.837,1.345
	c3.541,4.686,10.721,4.528,12.88-0.302c0.44-0.897,0.351-1.101-0.179-1.864c-0.641-0.921,0.082-1.903,0.866-1.821
	c1.17,0.124,1.372,1.159,0.81,1.896c-1.223,1.562,2.134,5.094,5.485,5.649c4.296,0.712,8.369-2.354,7.802-5.103
	c-0.032-0.158-0.111-0.305-0.145-0.47c-0.457-2.301,3.139-1.198,1.844,0.268c-0.485,0.53-0.748,0.688-0.683,1.271
	c1.044,4.87,6.876,5.381,9.654,3.879c-3.584,5.934-9.263,1.361-10.261-2.786c-5.033,7.376-11.08,5.844-14.449-0.639
	c0.398,0.404-6.639,11.619-14.625,0.12c-3.381,9.255-9.546,2.999-9.124,2.619c2.833,1.602,7.976,1.021,8.472-3.93
	c0.067-0.611-0.389-0.648-0.653-1.131C75.348,25.517,79.668,25.499,78.672,27.731z M65.364,28.34
	c0.64,0.061,0.747,0.331,0.642,0.991L65.364,28.34z M120.285,30.079l-0.928,1.183C119.137,30.684,119.131,30.152,120.285,30.079z
	 M130.375,30.471c-2.201,0.095-3.902,3.183-3.791,7.301c0.054,1.997,0.4,7.009,0.535,7.754c0.188,1.042-0.018,2.455-0.378,2.604
	c-0.953,0.393-1.312,0.646-1.569,1.107c-0.669,1.2-0.115,2.556,1.294,3.162c1.007,0.434,2.282-0.165,3.146-1.472
	c0.48-0.727,0.593-1.05,1.016-2.876c0.195-0.841,0.178-2.234-0.045-3.515c-0.508-2.909-0.131-6.532,0.854-8.234
	c1.767-3.052,1.734-5.051-0.092-5.681C131.014,30.508,130.69,30.457,130.375,30.471z M130.261,30.936
	c2.562,0.01,2.493,2.604,1.072,3.402c-0.551,0.25-1.224,0.309-1.897-0.14c-0.756-0.443-0.653,0.063,0.13,0.64
	c0.92,0.678,1.312,0.636,0.817,2.225c-0.461,1.479-0.703,4.678-0.451,6.494c0.689,4.972,0.107,7.449-1.954,8.313
	c-1.016,0.425-2.112-0.175-2.395-1.003c-0.44-1.296,0.345-2.409,2.284-2.098c0,0,0.138-0.413-0.367-4.728
	c-0.701-6.002-0.425-10.191,0.661-11.656C128.74,31.603,129.49,30.933,130.261,30.936z M147.642,37.124
	c-0.599,0.005-1.243,0.17-1.901,0.547c0,0-0.071,2.698-0.148,3.107c-0.436,2.283-0.309,2.556,0.74,2.879
	c2.543,0.786,4.632-0.926,4.539-3.611C150.819,38.537,149.438,37.109,147.642,37.124z M147.985,37.484
	c1.39-0.042,2.652,1.607,2.516,3.162c-0.073,1.861-1.826,2.875-3.397,2.55c-0.465-0.071-0.946-0.161-1.096-0.516
	c-0.315-0.492,0.191-0.671,1.248-0.666c1.157,0.006,1.372-0.155,1.756-0.813c0.761-1.304-0.213-2.957-1.454-2.647
	c-0.424,0.106-0.485,0.301,0.011,0.442c1.521,0.696,0.955,1.667,0.428,2.062c-0.628,0.469-1.666-0.174-1.844-0.563l0.106-2.519
	C146.259,37.977,146.762,37.499,147.985,37.484L147.985,37.484z M132.311,49.156c0,0-0.58,0.281-0.859,0.543
	c-0.614,0.575-0.743,1.448-0.442,2.306c0.133,0.379,0.112,0.443-0.355,1.062c-1.331,1.761-1.502,2.64-0.82,4.228
	c0.31,0.721,0.312,0.721,0.019,1.674c-1.255,4.089-3.731,8.723-6.375,11.932c-0.408,0.496-0.572,1.004-0.572,1.004
	s0.619-0.032,0.962-0.206c2.731-1.379,5.617-4.052,8.299-5.805c-4.241,3.493-8.761,6.619-8.761,6.619l5.771,0.313
	c-1.449,1.509-26.758,23.277-20.037,62.323c7.9-1.995,11.577-5.304,15.789-9.13c0.039,3.146,0.106,11.613,0.133,11.613
	c0.081-0.14-3.655-1.429-2.768,1.693c0.529,1.713,0.796,6.048-0.141,8.494c-0.04,0.104,0.402,0.268,0.358,0.364
	c-0.05,0.111-0.6,0.112-0.6,0.112c-1.435,2.716-5.129,3.312-6.95,3.229c-0.672-0.064-0.4,0.87-0.312,1.208
	c0.339,1.398,1.927,4.394,4.892,9.203l0.778,0.104l-0.45,0.422c0.35,0.647,1.285,1.865,1.285,1.865l0.041,0.413
	c0,0,1.627,2.299,2.5,3.378l0.256-0.027c0.483,0.59,1.064,1.252,1.557,1.842l-0.037,0.257c0.928,1.025,2.75,3.1,2.75,3.1
	l0.362-0.089l1.433,1.639c11.891-5.488,24.317-17.63,24.188-17.604l0.102-26.133l-14.078-0.042l-0.061-34.618l14.064,14.113
	l-0.092-4.049c-3.189-3.079-16.011-16.21-16.011-16.21c1.866-0.264,3.674-0.879,5.425-1.845c3.059,1.708,6.328,2.734,10.074,2.229
	l-0.015-3.84c-4.254-0.009-6.892-1.439-8.8-3.166l-2.626-0.09c-4.852,3.745-8.282,2.008-11.972,1.271l-2.55-3.728l26.122-0.136
	l-0.187-9.049l-3.967,0.09l-2.576-1.934l2.989,1.282c0,0-0.048-0.498-0.646-1.445c-1.61-2.671-3.653-6.601-4.879-10.029
	c-0.593-1.741-0.592-1.669-0.092-2.688c0.688-1.401,0.538-3.099-0.366-4.054c-0.638-0.673-0.617-0.816-0.408-1.317
	c0.848-1.985-1.198-2.716-1.206-2.589C138.074,50.973,132.205,49.21,132.311,49.156z M142.488,49.877
	c0.873-0.008,0.969,0.382,0.965,1.043c-0.074,1.21-1.627,1.648-2.328,1.817c-3.356,0.78-9.209,0.317-9.59-1.271
	c-0.279-1.168,0.438-1.815,2.821-1.236C138.188,51.065,140.559,50.167,142.488,49.877z M131.654,53.248
	c0.348-0.002,0.766,0.357,0.885,0.946c0.103,0.502-0.412,1.979-0.844,2.32c-1.066,0.844-2.029-0.468-1.316-1.895
	C130.79,53.798,131.206,53.252,131.654,53.248z M143.106,53.415c0.159,0.004,0.444,0.037,0.63,0.171
	c0.845,0.606,0.924,2.707,0.133,3.011c-0.805,0.309-1.552-0.543-1.546-1.88C142.323,53.898,142.628,53.402,143.106,53.415z
	 M140.423,53.849c0.172-0.009,0.354,0.029,0.542,0.116c0.704,0.33,1.046,2.533,0.348,3.236c-0.542,0.545-1.707,0.515-2.047-0.616
	C138.859,55.232,139.494,53.896,140.423,53.849z M134.471,53.911c1.031,0.007,1.266,2.335,0.256,3.294
	c-0.844,0.802-2.133,0.012-1.729-1.577C133.199,54.833,133.663,53.967,134.471,53.911z M137.403,54.283
	c1.509,0.262,1.382,4.013-0.596,3.639C135.682,57.125,135.712,54.339,137.403,54.283z M130.803,58.302l2.134,0.201
	c-0.056-0.033-3.396,7.166-6.382,9.071C128.195,64.801,129.635,61.493,130.803,58.302z M143.595,58.34
	c1.246,3.373,2.525,6.797,4.227,10.246c-2.585-2.529-4.875-6.418-6.986-10.067L143.595,58.34z M133.563,58.666l1.413,0.016
	c0.47,2.185,1.284,3.577,2.24,4.773c0.828-1.419,1.351-2.979,1.859-4.643l1.122-0.015c0.43,0.26-1.32,6.845-3.035,7.646
	C135.347,64.946,133.816,60.901,133.563,58.666z M132.967,60.224c-0.118,0.157,2.194,5.798,4.15,7.606
	c1.844-1.815,3.02-4.208,3.81-7.061l6.065,8.642l-5.913-4.107c-1.181,1.991-2.435,3.891-3.939,5.472
	c-1.623-1.782-3.027-3.896-4.501-5.905c-2.281,1.716-3.882,3.549-6.845,5.149C125.808,70.087,131.599,63.68,132.967,60.224z
	 M132.398,66.365l4.127,5.119l-10.987-0.159L132.398,66.365z M141.335,66.447l6.933,4.844l-10.33,0.108L141.335,66.447z
	 M86.101,68.83c0,0,0.059,0.308,0.126,0.492c1.23,5.095,4.624,9.33,9.73,8.827L79.172,95.181c0,0-2.771-9.547-8.387-19.333
	c0,0,1.024,0.214,1.824,0.372c0.75,0.116,1.32,0.08,1.883-0.069c0.429-0.064,0.758-0.35,1.141-0.435
	c0.647-0.138,1.46,0.099,1.89,0.252c1.153,0.222,1.938-0.434,3.383-1.729c0.384-0.344,0.531-0.261,1.015-0.259
	c1.81,0.004,2.964-1.571,2.761-4.015l-0.092-1.085l-0.229,1.221c-0.432,2.301-0.733,3.293-2.978,3.391
	c-0.543,0.023-0.748,0.395-1.606,1.143c-1.203,1.049-2.053,1.139-2.905,0.729c-0.87-0.418-0.95-0.172-1.771,0.225
	c-0.939,0.455-2.309,0.401-3.542,0.043c-1.723-0.501-1.512-0.333-1.512-0.333c9.975,18.021,13.479,35.306,13.258,50.658
	c-0.314,21.877-7.854,39.534-14.469,50.179c0,0,1.135-0.117,2.146-0.268c0.487-0.138,0.862-0.005,1.344,0.167
	c0.45,0.16,0.789,0.152,1.229,0.101c0.344-0.04,1.185,0.006,1.726,0.085c1.228,0.179,1.31,0.016,2.646-1.302
	c3.793-3.74,3.547-3.602,6.295-3.511c4.124,0.136,7.422,2.896,8.796,7.374c0.174,0.566,0.401,1.36,0.432,1.36l-0.268-1.186
	c-1.207-6.003-6.265-8.198-10.486-8.118l17.819-18.136c-0.091,0.018,4.131,13.799,7.807,19.941c0.008,0.042-1.115-0.49-3.165-0.221
	c-1.114,0.146-2.361-0.002-3.062-0.124c-0.901-0.022-1.45,0.247-2.572,1.186c-0.466,0.405-0.887,0.849-1.798,1.24
	c-2.167,0.929-3.031,1.889-3.043,4.301c0,0.438-0.067,1-0.061,1.217l0.011,0.161l0.131-0.153c0.107-0.16,0.326-0.598,0.494-1.607
	c0.301-1.804,0.674-2.435,2.357-3.234c0.505-0.24,1.568-0.893,2.04-1.275c1.551-1.255,2.067-1.542,3.327-1.245
	c0.717,0.17,1.325,0.257,2.286,0.139c1.144-0.14,1.21-0.199,2.433,0.12c0.83,0.217,1.857,0.428,1.857,0.428
	c-17.271-35.205-16.701-67.842,0.345-100.954c0,0-5.046,0.061-5.261,0.193c-0.081,0.051-0.694-0.006-1.363-0.128
	c-1.373-0.252-1.072-0.082-4.313,3.225c-4.007,4.088-10.416,0.827-12.346-6.034c-0.102-0.358-0.188-0.575-0.34-0.829L86.101,68.83
	L86.101,68.83z M102.428,72.856c0.742,0.079,1.295,0.278,1.203,0.983L79.844,97.482l-0.37-1.523L102.428,72.856z M107.443,73
	c-0.293,0.587-1.086,1.321-1.435,1.875l1.294,1.636l-0.718,1.317l-1.989-1.697l-3.786,3.794l3.157,3.596l-2.989,3.062l-0.997-1.144
	l1.581-1.678l-2.455-2.333l-4.325,4.267l3.523,3.635l-2.584,2.515l-1.031-0.991l1.355-1.52l-2.298-2.41l-4.027,4.17l3.188,3.6
	l-2.462,2.48l-1.092-1.124l1.184-1.252l-2.279-2.422l-4.104,4.107l3.328,3.666l-2.446,2.221l-0.863-0.927l1.184-1.29l-2.237-2.43
	l-2.546,2.345l-0.424-1.608l25.188-25.397L107.443,73z M108.895,73.375l-1.062,2.163l-0.82-0.915l1.069-1.115L108.895,73.375z
	 M49.487,73.515c-0.653,0.162-15.649,8.642-24.188,17.95l-0.026,3.468l-0.316,0.415l0.152,5.366l0.214,0.287l0.073,2.189
	l-0.34,0.577v6.011l0.454,0.077l0.072,7.354l14.025,0.039l-0.015,35.14c0,0-8.236-9.189-14.167-14.613l0.023,4.107l15.689,16.453
	c-1.079,0.154-2.483,0.419-4.6,1.604c-5.091-3.228-10.976-2.239-10.976-2.239l0.023,4.185c3.742-0.366,7.119,0.153,11.052,2.841
	c3.237-2.228,7.14-3.583,12.956-1.813c1.28,2.058,2.561,4.181,3.84,5.561l-27.779,0.209l0.035,8.475c1.232,0.025,4.313,0,4.313,0
	c1.563,3.107,4.634,7.35,5.908,12.687c-1.751,2.134-1.61,3.852,0.093,6.001c-0.016,0.97-0.303,2.04,0.77,3.12
	c3.535-1.754,7.525-0.976,10.495-0.08c1.007,0.304,1.387-0.86,1.352-2.324c-0.089-0.839-0.085-1.197,0.55-1.756
	c1.511-1.33,0.572-4.063,0.336-4.123c-0.088-2.396,7.477-14.397,7.481-14.178l-1.507,0.555l-6.467,0.029
	c17.009-16.647,24.118-35.637,22.629-57.08c-0.331-5.402-1.16-7.878-1.16-7.878c-5.991,2.702-10.914,4.667-15.697,9.866
	l-0.316-11.176c0.266,0.529,2.041,1.018,2.836,0.341c0.544-0.361,0.599-0.747,0.096-2.104c-0.731-1.969-0.904-6.191-0.359-7.626
	c0.064-0.167,0.118-0.612,0.164-1.05c0.063-0.588-0.064-0.622-0.118-0.612c0.14-0.034,0.724,0.086,0.794,0.023
	c2.043-1.825,4.235-2.966,6.925-3.085l0.068-1.333c-1.994-5.112-3.683-7.116-5.489-9.974c0,0-0.512-0.173-0.836-0.105l0.416-0.445
	c-2.534-4.082-6.141-7.797-9.456-11.323l-0.019-0.012H49.487z M49.377,74.209l1.798,1.686c-8.581,4.186-17.046,10.319-25.382,18.639
	l0.114-3.058C35.33,82.481,42.438,78.161,49.377,74.209z M104.481,77.266l1.08,1.094l-1.496,1.763l0.974,1.008l-0.543,1.345
	l-2.488-2.624L104.481,77.266z M50.915,77.405c0.565,0,1.022,0.465,1.022,1.039c0,0.573-0.457,1.038-1.022,1.038
	s-1.023-0.465-1.023-1.038C49.892,77.87,50.35,77.405,50.915,77.405z M124.34,78.84c17.491,19.761,8.51,48.479-14.838,55.378
	l-0.26-1.623c23.556-8.055,29.081-34.998,13.796-51.938L124.34,78.84z M53.946,78.971l1.114,1.311
	c-9.972,4.832-19.698,12.075-29.101,22.525l-0.091-2.639C34.699,90.746,44.139,83.93,53.946,78.971L53.946,78.971z M47.514,79.374
	c0.564,0,1.023,0.465,1.023,1.039c0,0.573-0.459,1.038-1.023,1.038s-1.023-0.465-1.023-1.038
	C46.49,79.839,46.949,79.374,47.514,79.374z M44.398,81.327c0.565,0,1.023,0.465,1.023,1.038c0,0.574-0.458,1.039-1.023,1.039
	c-0.564,0-1.023-0.465-1.023-1.039C43.375,81.792,43.834,81.327,44.398,81.327z M54.771,82.009c0.565,0,1.023,0.466,1.023,1.039
	s-0.458,1.038-1.023,1.038s-1.022-0.465-1.022-1.038S54.205,82.009,54.771,82.009z M99.202,82.727l1.022,1.096l-1.622,1.651
	l2.31,2.449l2.222-2.17l-1.114,3.231l-19.588,19.871l-0.408-2.085l1.542-1.573l-2.362-2.395l-0.416-1.597l2.324-2.208l0.974,1.015
	l-1.359,1.593l2.188,2.186l3.974-3.712l-3.279-3.654l2.707-2.658l0.936,0.926l-1.294,1.353l2.278,2.507l4.077-3.964l-3.348-3.593
	l2.691-2.692l1.02,0.987l-1.355,1.651l2.317,2.274l3.993-4.003l-3.283-3.503L99.202,82.727z M41.345,83.424
	c0.565,0,1.022,0.465,1.022,1.038c0,0.574-0.457,1.039-1.022,1.039s-1.022-0.465-1.022-1.039
	C40.322,83.889,40.779,83.424,41.345,83.424z M57.478,83.625l0.778,1.313c-11.871,6.088-20.081,12.186-32.23,26.196v-1.764
	C35.404,97.682,45.156,90.146,57.478,83.625z M51.515,83.78c0.564,0,1.022,0.465,1.022,1.038c0,0.574-0.458,1.039-1.022,1.039
	c-0.565,0-1.023-0.465-1.023-1.039C50.491,84.245,50.949,83.78,51.515,83.78z M143.366,84.18c2.094,1.891,6.492,3.776,9.326,3.576
	l0.076,2.274c-4.944,0.477-9.262-2.735-9.262-2.735c-3.808,2.355-7.683,2.653-11.724,1.631l-1.553-3.379
	C136.222,88.366,141.841,85.676,143.366,84.18z M119.709,84.795c0.22,0.412,0.959,0.888,0.959,0.888
	c4.611-1.219,6.048,3.606,3.897,6.363l0.614,2.022c0.823,0.151,1.545,0.444,2.13,0.856c1.122,0.789,1.739,2.157,1.6,3.592
	c0.157,1.556-2.136,3.003-2.26,2.896l-0.03,2.224c0.645,0.546,1.422,1.073,1.916,1.845c1.103,1.878,0.665,3.771-1.034,4.96
	c-1.012,0.694-2.109,0.785-2.153,0.713l-1.064,2.526c0.938,0.538,1.2,1.451,1.347,2.104c0.318,1.416-0.66,3.261-1.89,3.941
	c-1.551,0.859-3.666,0.096-3.664,0.097l-1.512,1.534c0.389,1.33,0.496,2.122,0.289,2.902c-0.509,1.931-2.502,2.688-4.104,2.542
	c-1.257-0.113-2.202-1.046-2.202-1.046l-1.676,0.651c0.047,0,0.024,2.154-0.821,2.813c-0.266,0.279-1.21,0.899-1.21,0.899
	l-0.222-1.484c0.664-0.485,1.077-1.661,0.943-2.522l3.619-1.798c0,0.133,0.99,1.107,1.668,1.248c1.39,0.287,2.841-0.813,2.844-2.108
	c0-0.756-0.428-1.27-0.55-1.879l3.073-3.229c1.271,0.443,2.164,0.52,2.733,0.186c1.074-0.629,1.363-1.927,1.156-2.708
	c-0.244-0.924-1.056-1.521-1.11-1.608l1.714-4.398c0.799-0.004,1.293-0.131,1.916-0.542c1.271-0.848,1.106-2.493,0.565-3.274
	c-0.659-0.951-1.616-1.127-1.691-1.104l0.126-4.569c0,0.038,1.733-0.845,1.921-1.863c0.274-1.5-0.35-2.455-2.165-2.879
	c-1.007-0.236-0.954-0.039-0.954-0.039l-1.436-4.135c2.274-1.408,1.554-3.647,0.4-4.398c-1.215-0.792-2.932-0.058-2.932-0.058
	s-0.781-0.788-1.374-1.423L119.709,84.795z M58.836,85.633c1.495,2.04,4.025,6.127,5.44,9.784c0.062,0.159,0.03,0.969,0.03,0.969
	c-4.036,0.356-5.422,1.962-6.856,3.092c-1.112-0.579-1.581-1.258-3.592,0.02c-0.009,0.061-5.128-3.145-6.108-7.494
	C51.411,89.713,54.9,87.532,58.836,85.633z M38.348,85.659c0.565,0,1.023,0.465,1.023,1.039c0,0.573-0.458,1.038-1.023,1.038
	c-0.564,0-1.022-0.465-1.022-1.038S37.783,85.659,38.348,85.659z M48.049,85.865c0.564,0,1.022,0.465,1.022,1.038
	s-0.458,1.038-1.022,1.038c-0.565,0-1.023-0.465-1.023-1.038S47.483,85.865,48.049,85.865z M118.061,87.14
	c1.764,2.356,4.422,6.812,5.054,10.757c0.89,5.55,0.298,11.372-2.21,15.442c-4.549,8.696-12.437,10.548-12.441,10.851l-0.08-1.782
	c0.074,0.4,6.029-2.146,10.082-7.894c2.502-3.896,3.923-9.463,3.439-13.808c-0.301-6.261-4.678-12.034-4.715-12.055L118.061,87.14z
	 M35.156,87.988c0.565,0,1.023,0.465,1.023,1.039c0,0.573-0.458,1.038-1.023,1.038c-0.564,0-1.022-0.465-1.022-1.038
	C34.134,88.453,34.592,87.988,35.156,87.988z M44.846,88.004c0.564,0,1.022,0.465,1.022,1.039c0,0.573-0.458,1.038-1.022,1.038
	c-0.565,0-1.023-0.465-1.023-1.038C43.822,88.469,44.28,88.004,44.846,88.004z M132.196,89.756c2.271,0.249,5.047,4.428,7.574,6.812
	l0.026,34.063l-7.547,0.155c-0.983,2.396-3.264,4.765-6.895,7.103v-12.765c12.385-13.468,9.015-28.208,6.845-35.367H132.196z
	 M32.377,90.143c0.565,0,1.023,0.465,1.023,1.039c0,0.573-0.458,1.038-1.023,1.038c-0.564,0-1.022-0.465-1.022-1.038
	C31.354,90.607,31.813,90.143,32.377,90.143z M41.703,90.329c0.565,0,1.023,0.465,1.023,1.038c0,0.574-0.458,1.039-1.023,1.039
	c-0.564,0-1.022-0.465-1.022-1.039C40.681,90.794,41.139,90.329,41.703,90.329z M137.518,90.41l15.431,15.791l-0.054,2.317
	l-17.389-17.934L137.518,90.41z M47.361,91.895l0.408,1.984c-0.498-0.796-0.518-1.09-1.382-1.229L47.361,91.895z M39.008,92.472
	c0.565,0,1.023,0.465,1.023,1.039c0,0.573-0.458,1.038-1.023,1.038c-0.564,0-1.022-0.465-1.022-1.038
	C37.985,92.937,38.443,92.472,39.008,92.472z M29.767,92.763c0.565,0,1.022,0.465,1.022,1.038c0,0.574-0.457,1.039-1.022,1.039
	s-1.023-0.465-1.023-1.039C28.743,93.228,29.201,92.763,29.767,92.763z M116.579,92.763l3.046,2.189l-0.992,3.948l-3.119-2.844
	L116.579,92.763z M46.182,93.084l0.542,0.325l-0.63,2.701l-7.013,2.569C41.336,96.726,43.654,94.595,46.182,93.084z M47.33,94.34
	c0.499,2.002,1.58,4.962,2.906,7.469c-0.9,0.473-4.137,2.331-4.127,3.195c0.456,1.566,3.874,3.003,3.874,3.003
	c-1.296,2.132-2.526,4.646-3.534,7.537c-0.584-1.01-0.652-4.99,0.606-6.646c-1.241-0.497-2.938-1.632-4.229-2.806
	c0.832-2.989,4.38-4.774,4.535-4.798C47.299,101.445,46.313,95.051,47.33,94.34z M35.947,94.844c0.564,0,1.022,0.465,1.022,1.038
	s-0.458,1.038-1.022,1.038c-0.565,0-1.023-0.465-1.023-1.038S35.382,94.844,35.947,94.844z M114.052,94.929
	c4.552,8.608,1.845,16.086-5.417,21.444l0.168-2.03c5.01-3.689,8.255-10.953,4.597-17.88L114.052,94.929z M27.305,95.177
	c0.564,0,1.022,0.465,1.022,1.038c0,0.574-0.458,1.039-1.022,1.039c-0.565,0-1.023-0.465-1.023-1.039
	C26.281,95.642,26.739,95.177,27.305,95.177z M100.122,95.23c-3.341,12.64-3.258,18.433-3.646,21.859l-12.968,0.112l-0.504-4.557
	L100.122,95.23z M48.315,95.58c0,0,2.813,2.649,5.337,4.964l-0.302,0.604l-2.454,0.333C49.018,97.728,48.315,95.58,48.315,95.58z
	 M45.986,96.967l0.02,0.004l0.156,1.884c-0.843-0.032-9.962,3.835-16.969,10.009c1.045-1.867,2.807-3.658,4.509-5.185
	C37.324,100.069,45.986,96.967,45.986,96.967z M33.022,97.396c0.565,0,1.023,0.466,1.023,1.039s-0.458,1.038-1.023,1.038
	S32,99.009,32,98.436S32.457,97.396,33.022,97.396z M38.764,98.579l0.52,0.542l-2.42,1.271L38.764,98.579z M55.637,99.133
	l0.104,0.004c0.375,0.048,0.53,0.229,0.744,0.411c-0.474-0.1-0.938-0.156-1.382-0.132C55.215,99.28,55.406,99.143,55.637,99.133z
	 M46.376,99.524l0.222,1.406c-5.247,3.028-11.49,5.891-20.572,14.606v-2.899C31.726,107.277,38.374,102.782,46.376,99.524
	L46.376,99.524z M53.435,99.656c0.327,0.081,0.618,0.086,0.916,0.012c0,0-0.19,0.383-0.416,0.392
	C53.696,100.068,53.435,99.656,53.435,99.656z M55.66,99.737c0.66-0.041,1.11,0.571,0.978,1.36
	c-0.507,2.674-0.487,5.382,0.058,7.273c0.424,1.475,0.531,1.993,0.18,2.24c-3.094,2.165-4.789-7.598-2.207-10.366
	C55.019,99.911,55.361,99.757,55.66,99.737z M30.4,100.078c0.564,0,1.023,0.466,1.023,1.039s-0.459,1.038-1.023,1.038
	c-0.565,0-1.023-0.465-1.023-1.038S29.835,100.078,30.4,100.078z M119.297,100.318l1.924,3.275l-2.68,3.045l-1.63-3.537
	L119.297,100.318z M53.087,102.098l-0.1,1.131c-1.382,0.426-2.586,1.029-3.622,1.923c-0.2,0.174,3.201,1.731,3.558,1.371
	l-0.008,1.205c-0.048,0.396-5.624-1.401-6.001-2.743C47.546,104.092,51.074,102.017,53.087,102.098z M27.709,102.698
	c0.564,0,1.023,0.465,1.023,1.038c0,0.574-0.459,1.039-1.023,1.039c-0.565,0-1.023-0.465-1.023-1.039
	C26.686,103.163,27.145,102.698,27.709,102.698z M42.918,103.891c-0.395,0.764-0.981,1.777-1.094,2.886
	c-3.826,2.354-7.75,4.555-12.523,9.957l-2.573-0.016l-0.058-0.686C31.888,110.983,37.537,106.627,42.918,103.891z M52.774,104.217
	l0.026,1.423c-0.89,0.011-1.376-0.283-2.039-0.624C51.32,104.657,51.754,104.302,52.774,104.217L52.774,104.217z M81.562,104.368
	l0.718,0.764l-0.446,0.426L81.562,104.368z M42.799,107.325l1.417,0.895c-3.646,1.932-7.485,4.786-10.808,8.514h-2.806
	C34.146,112.835,37.963,109.337,42.799,107.325z M118.354,108.352l0.282,3.867l-3.558,1.98l0.068-4.08L118.354,108.352z
	 M50.693,108.367l2.447,0.271l0.252,1.05c-2.053,1.325-3.837,2.88-5.547,4.495C48.5,112.108,49.522,110.049,50.693,108.367z
	 M44.826,108.782l1.05,0.492l-0.416,1.817c-2.997,1.353-5.386,3.18-7.944,5.642h-2.878C37.158,113.991,41.35,110.54,44.826,108.782z
	 M53.931,110.491l0.012,0.004l0.382,11.92c-10.569,12.56-9.995,24.705-6.914,35.72l-2.016-0.093
	c-2.342-2.954-5.459-5.964-5.459-5.964l-0.008-34.674l7.287,0.027C48.934,113.396,53.66,110.523,53.931,110.491L53.931,110.491z
	 M45.326,112.165l0.088,1.589c-1.507,0.907-2.786,1.907-3.886,2.979h-2.737C40.684,114.946,42.562,113.146,45.326,112.165z
	 M70.174,112.944l0.401,1.875c-24.532,9.008-28.965,35.194-14.487,53.17l-0.984,1.116C38.479,150.983,45.775,121.381,70.174,112.944
	z M45.521,114.819c0,0,0.134,1.437,0.176,1.914h-2.749C43.566,115.998,44.115,115.235,45.521,114.819z M114.557,115.42l-1.581,3.739
	l-4.218,0.066l1.916-3.739L114.557,115.42z M87.854,117.981h3.844v3.728h-3.844V117.981z M71.217,118.35l0.064,1.639
	c-1.708,0.883-1.277,2.286-1.706,2.264c-1.05,0.27-3.817,1.759-3.817,1.759c-0.982-0.903-2.306-0.676-2.921-0.236
	c-0.853,0.567-1.041,1.887-0.798,3.004l-2.936,3.483c-1.418-0.615-2.801-0.577-3.489,0.384c-0.776,1.083-0.482,2.427,0.802,3.933
	l-1.6,4.166c-0.184-0.249-2.861,0.549-2.897,2.162c-0.038,1.708,2.214,2.822,2.21,2.953l-0.106,4.596
	c-0.102-0.221-2.298,0.689-2,2.891c0.273,2.027,2.993,1.78,3.05,1.949l1.478,4.398c-0.1-0.135-2.002,1.757-0.836,3.546
	c0.972,1.49,3.795,0.526,3.771,0.43l0.782,1.12l-0.866,0.953c0,0-0.374-0.455-0.584-0.415c-1.644,0.319-3.479-0.063-4.359-1.395
	c-1.199-1.879,0.14-4.813,0.564-4.79l-1.015-2.534c-1.851-0.037-3.418-1.714-3.501-3.119c-0.175-2.942,2.205-4.174,2.21-4.154
	l0.069-2.743c-0.146,0.164-2.351-1.425-2.298-3.248c0.038-1.332,1.144-2.899,2.504-3.529C53.386,137.626,54,137.33,54,137.33
	l0.92-2.248c0,0-1.303-1.91-0.966-3.836c0.627-2.916,4.371-2.717,4.963-2.434l1.736-2.209c-0.854-2.016,0.622-4.354,2.554-4.735
	c0.859-0.14,3.265,0.438,3.265,0.438l2.226-1.166C68.658,119.905,69.986,119.102,71.217,118.35z M83.871,122.43h3.295v3.729h-3.295
	V122.43z M92.647,122.43h3.715v3.729h-3.715V122.43z M71.483,123.364l-0.042,1.426c-21.269,10.468-12.57,32.141-9.536,34.662
	l-0.684,1.531C57.49,158.68,47.869,133.671,71.483,123.364z M87.854,127.139h3.996l0.035,3.832h-3.997L87.854,127.139z
	 M70.56,129.002l-1.267,3.492l-3.906,0.333l1.443-3.484L70.56,129.002z M150.359,131.556l2.673,0.016
	c-4.996,5.932-10.388,9.974-15.709,12.188c0,0-0.019-0.528,0.146-0.946c0.129-0.33-0.08-1.166-0.08-1.166
	C143.304,138.689,147.367,135.255,150.359,131.556L150.359,131.556z M136.666,131.606c-0.688,0.839-1.473,1.578-2.446,2.126
	l-0.386-2.161C134.651,131.562,136.666,131.606,136.666,131.606z M141.369,131.56c0.271,0.69-7.013,4.683-7.039,4.343l0.02-1.328
	l3.931-2.96L141.369,131.56z M142.942,131.56h0.016l2.05,0.012c-1.852,2.965-11.645,8.348-11.237,7.59l0.395-2.168
	C137.322,135.584,140.188,133.667,142.942,131.56z M146.397,131.56l2.697,0.012c-4.058,5.231-8.175,7.141-12.124,9.392
	c-0.237-0.035-0.13-0.125-0.869-0.104l-1.352-1.069C135.003,140.025,143.826,134.774,146.397,131.56z M70.922,131.746l-0.091,1.581
	c-5.678,4.955-7.955,11.288-5.001,18.639l-0.703,1.569C61.951,145.692,62.889,138.071,70.922,131.746z M96.774,131.994l0.302,4.266
	L79.45,153.675c2.684-9.729,3.426-15.602,4.146-21.658L96.774,131.994z M153.215,132.997l0.008,2.368
	c-6.948,7.77-13.952,11.252-20.003,12.66l-0.138-0.911l2.802-1.751C144.912,141.371,148.867,137.352,153.215,132.997z
	 M132.126,133.061c0.122,1.712-1.379,4.941-3.095,6.765l-2.939-0.008l-0.324-1.294C128.204,137.189,130.462,135.383,132.126,133.061
	z M133.013,133.571c1.08,1.763-0.54,6.326-0.606,6.146c-0.13,0.314,9.234,2.324-0.386,7.025c0.21,1.382,1.111,4.331,0.416,6.153
	c-0.217-0.697-1.891-5.43-3.184-6.642c3.003-0.868,5.166-2.733,4.933-3.348c-0.489-0.875-1.834-1.949-4.097-2.736
	C132.015,137.457,132.588,135.42,133.013,133.571L133.013,133.571z M64.241,134.436l0.302,3.596l-3.42,2.089l-0.264-3.949
	L64.241,134.436z M123.748,137.775c0.267,0.003,0.518,0.073,0.642,0.209c1.689,0.694,1.812,9.061,0.278,9.912
	c-1.114,0.711-1.898-0.432-1.859-0.635c0.739-3.85,0.277-6.229-0.03-8.921C122.812,137.95,123.303,137.77,123.748,137.775z
	 M153.215,137.899v2.976c-9.934,10.452-20.636,18.69-31.563,23.316l-0.996-1.717C133.927,156.246,145.023,147.359,153.215,137.899z
	 M151.471,138.171c-4.602,6.501-10.207,10.745-17.885,12.671l-0.146-1.844C143.004,146.792,151.719,138.171,151.471,138.171z
	 M26.258,139.225c5.992,6.218,12.132,12.381,18.232,18.763l-2.424,0.128l-15.881-16.725L26.258,139.225z M97.591,139.535
	l0.214,1.534l-1.744,1.941l2.756,3.007l0.141,0.709l-2.366,2.512l-1.069-1.074l1.31-1.491l-2.222-2.372l-4.119,4.022l3.395,3.739
	l-2.563,2.473l-1.008-1.059l1.31-1.534l-2.274-2.438l-4.199,4.239l3.176,3.562l-2.119,2.379l-1.004-1.073l1.088-1.267l-2.302-2.406
	l-4.034,3.944l3.32,3.728l-2.698,2.729l-1.046-1.031l1.515-1.674l-2.488-2.406l-1.997,1.914c0,0,0.754-1.899,0.863-2.22
	c0.16-0.473,0.822-0.846,5.02-5.05C87.454,149.81,92.592,145.065,97.591,139.535z M126.328,140.558
	c1.465,0.025,3.956,0.384,5.166,1.03c2.243,1.202,1.538,2.147,0.08,2.853c-1.743,0.843-3.174,1.255-5.143,1.313l0.058-0.98
	c1.144-0.28,2.33-0.563,3.341-1.131c0.694-0.391,0.874-0.706,0.874-0.706s-0.678-0.699-1.757-1.097
	c-0.789-0.29-1.917-0.288-2.53-0.391L126.328,140.558z M60.791,141.852l1.844,2.806l-2.184,3.717l-2.097-3.205L60.791,141.852z
	 M97.984,142.154c0.064,0.528,0.724,2.584,0.378,2.186l-1.226-1.399L97.984,142.154z M126.443,142.43
	c1.02,0.087,2.092,0.117,2.836,0.484c-0.863,0.68-1.842,0.831-2.817,0.999L126.443,142.43z M152.023,143.832
	c0.616,0,1.115,0.507,1.115,1.132s-0.499,1.132-1.115,1.132c-0.615,0-1.114-0.507-1.114-1.132S151.408,143.832,152.023,143.832z
	 M94.495,145.793l0.95,0.934l-1.229,1.453l2.229,2.384l2.76-2.624l0.367,1.666l-25.859,25.828l-1.436-0.105l1.645-1.972l-1.87-1.941
	l0.768-1.396l2.206,1.992l4.043-3.926l-3.275-3.499l2.802-2.918l1.058,0.927l-1.607,1.767l2.34,2.426l4.23-4.224l-3.311-3.654
	l2.643-2.558l0.969,0.934l-1.229,1.321l2.412,2.55l3.565-3.767l-3.245-3.627l2.883-2.848l0.885,0.898l-1.328,1.504l2.424,2.546
	l3.891-4.058l-3.203-3.526L94.495,145.793z M149.436,146.467c0.615,0,1.115,0.507,1.115,1.132s-0.5,1.132-1.115,1.132
	s-1.114-0.507-1.114-1.132S148.82,146.467,149.436,146.467z M128.417,146.518c1.756,2.094,2.813,4.423,3.023,6.929
	c-1.403-2.161-3.188-4.078-5.528-5.743l0.401-1.05L128.417,146.518z M153.215,146.688v2.527c-7.834,9.009-17.344,15.8-27.107,20.526
	l-1.661-2.05C135.994,162.458,144.352,155.959,153.215,146.688z M141.69,148.451l-3.177,2.504v-1.086l3.18-1.418H141.69z
	 M125.32,148.637c2.704,1.341,4.971,3.604,6.322,6.96c-3.693,2.353-7.744,4.257-11.605,6.153c-1.854-3.03-3.719-5.869-5.184-9.771
	c5.955-0.045,7.589-3.347,7.631-3.372C123.92,149.157,124.221,149.223,125.32,148.637z M146.718,149.129
	c0.555,0.012,1.11,0.442,1.13,1.09c0,0.624-0.499,1.131-1.114,1.131c-0.616,0-1.115-0.506-1.115-1.131
	C145.738,149.438,146.229,149.12,146.718,149.129z M138.476,149.873l0.008,1.093c-1.521,1.353-4.474,3.542-4.474,3.542l-1.222-0.065
	l0.397-3.101C135.035,150.964,136.827,150.415,138.476,149.873L138.476,149.873z M60.688,150.001l2.916,2.434l-0.893,3.774
	l-2.871-2.213L60.688,150.001z M99.854,150.714l0.271,1.093l-23.963,24.045l-1.362-0.225L99.854,150.714z M144.061,151.645
	c0.615,0,1.115,0.506,1.115,1.131s-0.5,1.132-1.115,1.132s-1.114-0.507-1.114-1.132S143.445,151.645,144.061,151.645z
	 M152.909,151.637c0.132,0,0.286-0.01,0.286,0.116v2.08c-0.116,0.043-0.242,0.066-0.373,0.066c-0.616,0-1.027-0.507-1.027-1.132
	S152.294,151.637,152.909,151.637z M150.205,154.159c0.616,0,1.115,0.506,1.115,1.131s-0.499,1.132-1.115,1.132
	c-0.615,0-1.114-0.507-1.114-1.132S149.59,154.159,150.205,154.159z M140.839,154.171c0.615,0,1.114,0.506,1.114,1.131
	s-0.499,1.132-1.114,1.132c-0.616,0-1.115-0.507-1.115-1.132C139.724,154.678,140.223,154.171,140.839,154.171z M132.779,154.52
	l1.146,0.039l-2.13,1.286C132.187,155.348,132.551,154.968,132.779,154.52L132.779,154.52z M153.211,155.049l0.016,2.326
	c-5.481,5.562-12.402,11.331-22.985,16.892l-1.349-1.386C137.521,168.703,145.618,162.851,153.211,155.049z M137.646,156.317
	c0.616,0,1.115,0.507,1.115,1.132s-0.499,1.131-1.115,1.131c-0.615,0-1.114-0.506-1.114-1.131S137.031,156.317,137.646,156.317z
	 M147.557,156.402c0.616,0,1.115,0.507,1.115,1.132s-0.499,1.132-1.115,1.132c-0.615,0-1.114-0.507-1.114-1.132
	S146.941,156.402,147.557,156.402z M36.545,160.944c3.782-2.229,6.822-2.489,11.155-1.817l1.294,2.592
	c-4.219-0.759-8.663-0.69-12.464,2.287c-3.938-2.526-6.931-3.256-10.165-2.845l-0.058-2.733
	C30.522,157.83,34.305,159.297,36.545,160.944L36.545,160.944z M134.574,158.479c0.615,0,1.114,0.507,1.114,1.132
	s-0.499,1.131-1.114,1.131c-0.616,0-1.115-0.506-1.115-1.131S133.958,158.479,134.574,158.479z M144.767,158.944
	c0.615,0,1.114,0.507,1.114,1.132s-0.499,1.132-1.114,1.132c-0.616,0-1.114-0.507-1.114-1.132S144.15,158.944,144.767,158.944z
	 M131.223,160.634c0.615,0,1.114,0.507,1.114,1.132s-0.499,1.132-1.114,1.132c-0.616,0-1.115-0.507-1.115-1.132
	S130.606,160.634,131.223,160.634z M141.614,161.29c0.616,0,1.115,0.507,1.115,1.132s-0.499,1.132-1.115,1.132
	c-0.615,0-1.114-0.507-1.114-1.132S140.999,161.29,141.614,161.29z M127.786,162.634c0.624,0,1.13,0.514,1.13,1.146
	c0,0.634-0.506,1.147-1.13,1.147s-1.13-0.514-1.13-1.147C126.656,163.147,127.162,162.634,127.786,162.634z M138.636,163.583
	c0.615,0,1.114,0.507,1.114,1.132s-0.499,1.131-1.114,1.131c-0.616,0-1.115-0.506-1.115-1.131S138.02,163.583,138.636,163.583z
	 M124.484,164.366c0.615,0,1.114,0.506,1.114,1.131s-0.499,1.132-1.114,1.132s-1.115-0.507-1.115-1.132
	S123.869,164.366,124.484,164.366z M75.205,165.389l2.771,2.577l-2.867,2.922l-1.05-1.023l1.596-1.693l-1.081-1.477L75.205,165.389z
	 M135.56,165.64c0.616,0,1.115,0.506,1.115,1.131s-0.499,1.132-1.115,1.132c-0.615,0-1.114-0.507-1.114-1.132
	S134.944,165.64,135.56,165.64z M132.351,167.555c0.615,0,1.114,0.507,1.114,1.132s-0.499,1.132-1.114,1.132
	c-0.616,0-1.114-0.507-1.114-1.132S131.734,167.555,132.351,167.555z M128.862,169.477c0.616,0,1.115,0.507,1.115,1.132
	s-0.499,1.132-1.115,1.132c-0.615,0-1.114-0.507-1.114-1.132S128.247,169.477,128.862,169.477z M71.536,172.678l0.904,0.748
	l-1.42,1.736l-1.084-0.016L71.536,172.678z M54.025,177.359c-3.159,1.587-4.66,2.592-6.863,4.537l-3.158-4.444L54.025,177.359z
	 M32.529,177.39l8.414,0.12l-2.799,4.019C36.299,179.555,34.429,178.214,32.529,177.39z M42.551,177.828
	c0.911,0.294,3.297,3.746,4.42,5.63c2.393-1.932,4.736-4.09,7.291-5.25c-3.038,3.257-5.706,6.627-7.604,9.885
	c-0.539-1.469-2.037-5.675-3.933-7.502c-2.991,2.834-4.173,6.255-4.173,6.255c-1.608-2.782-3.546-5.57-5.787-8.177
	c-0.371-0.508,2.728,1.446,5.795,4.476C39.424,180.936,41.736,177.915,42.551,177.828z M32.445,179.998
	c1.445,1.165,5.374,6.281,5.826,9.358l-1.883,0.12C35.389,186.316,33.707,183.158,32.445,179.998z M53.369,180.521
	c-1.424,2.961-3.188,5.987-4.455,9.265l-1.859-0.081C49.092,185.188,49.833,184.361,53.369,180.521z M42.707,181.839l0.045,0.012
	c1.768,2.447,2.601,4.827,3.127,7.723l-1.367-0.054c0,0-0.953-2.907-1.607-3.934c-0.423-0.627-0.762-0.547-1.061-0.027
	c-0.674,1.229-0.927,2.46-1.306,3.798l-1.573-0.116C38.674,187.046,42.154,181.895,42.707,181.839z M42.459,190.274
	c0.639,0.009,1.307,0.712,1.301,1.946c0.05,0.579-0.394,1.863-0.873,1.929c-0.892,0.479-1.945-1.012-1.681-2.255
	C41.433,190.834,41.895,190.268,42.459,190.274z M39.363,190.509c1.264,0.113,1.535,2.988,1.023,3.576
	c-0.588,0.592-2.143,0.172-2.289-0.853C37.59,191.928,38.516,190.521,39.363,190.509z M45.589,190.491
	c1.375,0.196,1.028,3.353,0.317,3.815c-1.105,0.595-1.948-0.398-1.575-1.882C44.632,191.23,45.08,190.52,45.589,190.491z
	 M48.769,191.015c1.575,0.179,0.665,2.958-0.022,3.523c-1,0.79-1.965-0.392-1.485-1.803
	C47.633,191.642,48.25,191.007,48.769,191.015z M36.054,191.1c1.146,0.187,1.81,2.818,1.128,3.57
	c-0.355,0.432-1.393-0.197-1.865-0.919C34.748,192.885,35.28,191.097,36.054,191.1z M48.252,196.833
	c0.137,1.382-0.891,1.381-3.851,0.707c-1.495-0.34-4.144-0.125-5.497,0.124c-2.277,0.42-2.6,0.26-2.596-0.682
	c0.008-1.092,1.281-1.712,4.237-1.805C42.66,195.111,47.924,195.091,48.252,196.833z M52.854,196.021
	c-3.524,0.337-4.461,4.819-4.073,6.476c0.31,2.768,0.178,5.667-0.347,7.571c-0.377,1.368-0.711,2.825-1.317,4.065
	c-0.927,1.873-0.688,3.264,0.687,4.011c1.129,0.613,2.52,0.403,3.391-0.547c1.574-1.718,1.762-5.362,0.797-13.633
	c-0.34-2.918-0.157-3.5,1.237-3.336C56.155,200.605,56.038,196.025,52.854,196.021z M52.43,199.788
	c-0.788-0.31-1.322,0.417-1.218,2.228c0.027,0.804,0.167,1.707,0.268,2.426c1.14,7.936,0.713,13.251-1.688,13.513
	c-2.09,0.341-3.505-1.221-2.485-2.836c0.578-0.915,1.075-1.039,2.199-0.559c1.544,0.973,1.157-0.443-0.233-1.488
	c-0.892-0.64-0.959-0.64-0.48-2.643c0.646-2.701,0.862-4.628,0.626-8.044c-0.333-2.417,0.462-5.623,3.493-5.812
	C55.976,196.479,55.051,200.896,52.43,199.788z M30.797,210.239c0.997,0.488,1.967,0.405,2.916,0.008
	c0.37-1.687,0.393-3.091,1.512-5.385c-1.863-1.893-4.999-1.148-5.882,0.835C28.46,207.682,29.282,209.497,30.797,210.239z
	 M33.785,204.383c1.129,0.243,0.96,1.447-0.104,1.055c-2.533-1.211-4.599,2.434-2.553,3.806c1.043,0.593,1.504,0.252,0.469-0.562
	c-0.424-0.495-0.316-0.697-0.061-1.194c0.531-1.001,2.461-0.839,2.324-0.112c-0.439,2.309-0.729,2.975-1.412,2.98
	C28.516,210.561,27.774,203.086,33.785,204.383z M67.207,208.534c0,0-11.721,13.451-17.365,20.34l70.756-0.333l-13.464-18.856
	C95.584,212.392,82.013,211.609,67.207,208.534z M66.855,212.831c1.768,0.02,3.778,1.323,5.517,5.666
	c0.095,0.041,7.782-11.851,14.438,0.461c1.087-2.764,7.355-9.973,14.603-0.721c2.573-6.191,8.51-4.098,9.066-1.938
	c-0.125-0.465-5.656-1.798-8.052,2.306c-0.442,0.869-0.465,1.693,0.042,2.182c1.197,1.151-0.105,2.802-1.468,1.863
	c-0.531-0.366-0.599-1.134-0.191-1.688c1.202-0.91-1.262-3.741-3.288-4.76c-2.78-1.398-6.658-0.781-8.522,1.225
	c-1.003,1.079-1.616,2.048-1.763,2.822c-0.078,0.359-0.03,0.548,0.181,0.788c0.809,0.99,0.275,2.346-0.819,2.182
	c-1.434-0.216-1.242-1.576-0.283-2.319c0.294-0.147,0.183-0.322,0.094-0.576c-2.617-7.481-12.372-6.057-13.427-0.876
	c-0.038,0.188-0.122,0.386-0.08,0.579c0.109,0.496,0.396,0.914,0.286,1.304c-0.448,1.591-2.409,1.134-2.498-0.184
	c-0.04-0.6,0.598-0.78,0.909-1.327c0.188-0.343,0.273-0.763,0.094-1.145c-2.644-5.621-7.181-4.444-9.433-3.175
	C62.213,215.528,64.273,212.803,66.855,212.831L66.855,212.831z M63.924,216.09c0.967-0.034,1.847,0.448,2.669,1.415
	c2.771-1.487,4.74,1.088,4.413,1.337c-3.924-2.585-5.197,3.438-1.332,3.21c-1.699,3.566,4.369,5.095,3.688,0.536
	c3.744,1.326,4.361-3.893,0.568-3.813c1.227-2.153,4.407-1.562,5.753-0.212c1.582-1.961,5.466-0.091,5.852,1.585
	c-4.356-2.266-4.796,4.659-0.576,3.186c-1.249,4.407,5.458,3.78,3.604-0.02c4.178,1.395,3.609-4.943-0.496-3.658
	c-0.249-0.328,3.245-3.992,5.787-0.55c0.344-0.606,4.312-2.593,6.482,0.526c-4.704-1.614-3.813,4.813-0.443,3.534
	c-0.901,4.258,5.181,3.567,3.626-0.062c4.713,1.209,2.627-6.078-0.686-3.388c0.54-2.929,4.501-1.714,4.457-1.263
	c0-0.002,2.104-2.309,4.459-0.62c-3.68,0.314-2.428,5.353,1.05,3.918c-0.038,1.71,1.362,2.843,3.257,2.263l2.974,4.22L51.2,228.669
	l5.418-6.556c1.813,1.521,3.691,0.801,3.923-1.583c3.944,2.455,4.969-3.378,1.268-3.63C62.561,216.381,63.262,216.114,63.924,216.09
	z M60.133,217.985c0.235,0.168-0.084,0.979-0.603,0.744L60.133,217.985z M113.021,219.679c0.201,0.293,0.345,0.481,0.546,0.775
	C113.663,220.715,112.509,220.314,113.021,219.679z"/>
<path fill="#D40000" d="M48.268,64.771c0,0-3.716-6.105-8.729-13.282c-3.354-4.804-6.034-10.005-6.284-14.484
	c-0.286-5.117,2.42-10.252,7.32-10.5c4.896-0.249,6.885,3.945,7.693,7.403c0.81-3.458,2.797-7.652,7.693-7.403
	c4.9,0.248,7.606,5.383,7.32,10.5c-0.249,4.479-2.93,9.681-6.284,14.484C51.984,58.666,48.268,64.771,48.268,64.771z"/>
<path fill="#D40000" d="M130.725,184.724c0,0-3.717,6.104-8.73,13.282c-3.354,4.804-6.034,10.004-6.283,14.484
	c-0.287,5.117,2.42,10.251,7.319,10.5c4.897,0.249,6.885-3.945,7.694-7.404c0.809,3.459,2.797,7.653,7.693,7.404
	c4.899-0.249,7.606-5.383,7.32-10.5c-0.249-4.48-2.931-9.681-6.284-14.484C134.44,190.828,130.725,184.724,130.725,184.724z"/>
</svg>
