<?xml version="1.0" encoding="utf-8"?>
<!-- Generator: Adobe Illustrator 16.0.0, SVG Export Plug-In . SVG Version: 6.00 Build 0)  -->
<!DOCTYPE svg PUBLIC "-//W3C//DTD SVG 1.1//EN" "http://www.w3.org/Graphics/SVG/1.1/DTD/svg11.dtd">
<svg version="1.1" id="Layer_1" xmlns="http://www.w3.org/2000/svg" xmlns:xlink="http://www.w3.org/1999/xlink" x="0px" y="0px"
	 width="178.58px" height="249.45px" viewBox="0 0 178.58 249.45" enable-background="new 0 0 178.58 249.45" xml:space="preserve">
<path fill="#FFFFFF" d="M10.107,0.871h160.777c4.697,0,8.504,3.808,8.504,8.504v231.644c0,4.696-3.807,8.504-8.504,8.504H10.107
	c-4.697,0-8.504-3.808-8.504-8.504V9.375C1.604,4.679,5.41,0.871,10.107,0.871z"/>
<path fill="none" stroke="#000000" stroke-width="0.9967" d="M10.107,0.871h160.777c4.697,0,8.504,3.808,8.504,8.504v231.644
	c0,4.696-3.807,8.504-8.504,8.504H10.107c-4.697,0-8.504-3.808-8.504-8.504V9.375C1.604,4.679,5.41,0.871,10.107,0.871z"/>
<path d="M15.316,40.722c-3.434,4.372-7.107,6.888-7.168,10.298c-0.021,1.104,0.648,2.982,2.743,3.341
	c1.358,0.232,3.229-0.75,3.269-2.745c-0.008-0.397,0.471-0.387,0.467,0.157c-0.064,1.574-0.622,3.406-1.56,4.898
	c1.499,0,2.998,0,4.497,0c-0.938-1.492-1.496-3.324-1.56-4.898c-0.009-0.544,0.473-0.555,0.466-0.157
	c0.04,1.995,1.91,2.978,3.27,2.745c2.095-0.358,2.764-2.236,2.742-3.341C22.422,47.609,18.748,45.094,15.316,40.722L15.316,40.722z"
	/>
<path d="M165.677,209.672c-3.433-4.372-7.106-6.888-7.167-10.298c-0.021-1.104,0.648-2.981,2.742-3.341
	c1.359-0.232,3.23,0.75,3.27,2.745c-0.008,0.397,0.471,0.387,0.467-0.157c-0.064-1.574-0.622-3.406-1.56-4.898
	c1.499,0,2.998,0,4.497,0c-0.938,1.492-1.496,3.324-1.56,4.898c-0.009,0.544,0.472,0.555,0.466,0.157
	c0.04-1.995,1.91-2.978,3.27-2.745c2.094,0.359,2.764,2.236,2.742,3.341C172.783,202.784,169.109,205.3,165.677,209.672z"/>
<polygon points="15.95,35.322 18.594,35.322 14.71,25.605 11.742,29.71 11.763,35.322 13.847,35.322 13.847,38.217 6.503,38.217 
	6.503,35.322 8.922,35.322 8.922,14.426 6.503,14.436 6.503,11.906 13.954,11.906 13.954,14.521 11.897,14.521 11.854,24.706 
	18.358,14.436 16.063,14.436 16.063,11.906 23.99,11.906 23.99,14.436 21.898,14.436 16.543,22.828 21.786,35.327 24.114,35.327 
	24.126,38.222 15.974,38.222 15.949,35.323 "/>
<polygon points="165.041,215.071 162.396,215.071 166.281,224.787 169.248,220.684 169.228,215.071 167.144,215.071 
	167.144,212.177 174.487,212.177 174.487,215.071 172.068,215.071 172.068,235.968 174.487,235.958 174.487,238.487 
	167.036,238.487 167.036,235.872 169.092,235.872 169.137,225.688 162.632,235.958 164.928,235.958 164.928,238.487 157,238.487 
	157,235.958 159.092,235.958 164.447,227.564 159.203,215.066 156.876,215.066 156.864,212.172 165.017,212.172 165.041,215.07 "/>
<path fill="#131F67" d="M25.189,19.935h130.613v210.524H25.189V19.935z M117.896,229.118c-4.856-8.856-12.534-23.284-12.762-23.398
	c-2.839,1.521-31.784,5.417-45.706,1.644c-4.762,7.193-9.437,14.318-13.582,21.449L117.896,229.118z M73.441,202.627
	c-0.728,0.017-1.54,0.463-1.391,0.074c0.087-0.225,0.293-2.495,0.383-3.308c0.218-0.361,0.524,0.586,0.489,1.466
	c-0.02,0.505,0.222,0.145,1.87,0.231c1.782,0.094,3.243,0.43,3.848,0.562c2.109,0.459,6.188,0.129,7.937-1.149
	c0.946-0.692,1.305,0.056,0.329,0.798c-4.406,3.354-7.898,2.076-11.727,1.514C74.609,202.73,74.032,202.614,73.441,202.627z
	 M75.314,199.445c-0.273-0.18-0.453-0.198-0.804-0.034c-1.353,0.635-0.999-0.275-0.025-1.191c0.445-0.418,0.433-0.632,0.095-1.071
	c-0.171-0.223-0.457-0.25-0.389-0.584c0.293-1.438,2.301-3.611,4.547-4.583c0.934-0.404,1.081,0.038-0.1,0.735
	c-1.816,1.072-2.404,1.987-1.377,1.614c1.992-0.722,3.81-0.212,6.357,1.065c0.729,0.364,1.062,0.436,1.682,0.369
	c0.457-0.381,0.867,0.078,1.151,0.317c0.178,0.144,0.216,0.213,0.419,0.165c1.45-0.342,0.581,0.586-1.4,2.039
	C81.92,200.808,78.047,201.996,75.314,199.445z M80.777,200.064c1.451-0.438,3.221-1.356,4.306-2.313
	c1.319-1.163,0.573-0.985-0.943-0.253c-2.193,1.062-3.729,1.368-6.197,1.311c-2.066-0.047-2.001-0.131-2.076,0.127
	C75.602,199.843,78.444,200.771,80.777,200.064z M76.769,196.521c0.118-0.391,0.208-0.911,0.103-1.08
	c-0.19-0.307-0.602-0.081-1.124,0.582c-0.323,0.41-0.278,0.466,0.038,0.79c0.159,0.107,0.281,0.188,0.377,0.244
	C76.603,197.246,76.674,196.835,76.769,196.521L76.769,196.521z M77.672,197.057c0.636-2.171,2.058-2.129,3.072-0.051l0.716,0.004
	c-1.472-4.043-4.319-1.996-4.415,0.016C77.381,197.137,77.672,197.057,77.672,197.057z M82.986,196.69
	c0.671-0.376,0.572-0.631-0.283-1.074c-0.607-0.314-0.93-0.378-1.04-0.175c0.008,0.447,0.026,1.088,0.284,1.443
	C82.216,197.049,82.584,196.888,82.986,196.69z M73.572,190.508c-0.123-0.204-0.102-0.577,0.366-0.795
	c2.88-1.338,0.781-4.163-1.442-2.045c-0.705,0.581-1.754,0.852-2.564,0.505c-0.762-0.333-0.775-1.268,0.236-1.467
	c0.332-0.065,1.185-0.247,1.499-0.467c3.866-2.076,5.919,2.438,3.176,3.941C74.279,190.511,73.681,190.695,73.572,190.508z
	 M62.742,186.408c-1.569-0.713-1.784-3.19-0.313-4.155c0.936-0.643,1.893-0.817,4.472,0.463c1.82,0.904,2.863-0.069,2.816,0.982
	c-0.029,0.64-0.066,1.285-1.126,1.439c-1.721,0.25-2.896-2.093-5.105-1.872c-1.595,0.159-1.394,2.074-0.241,2.463
	C64.78,186.247,63.85,186.861,62.742,186.408z M91.592,186.768c-0.288,0.136-0.424-0.496-0.299-0.834
	c0.784-1.866,1.506-3.35,2.217-5.098c0.566-1.394,0.947-1.992,1.201-1.99c0.261,0.001,0.381,0.205-0.054,1.063
	C94,181.639,91.596,186.916,91.592,186.768z M78.71,186.284c-0.694-0.496-0.577-1.231,0.213-0.675
	c1.015,0.717,2.679-0.594,2.339-1.831c-0.41-1.494-2.389-1.856-4.045-0.518c-2.613,2.111-5.48,2.219-5.48,0.568
	c0.008-0.472-0.061-0.579,1.026-0.652c1.265-0.086,2.69-0.667,3.399-1.101c3.18-1.944,6.562-0.603,5.861,2.642
	C81.707,186.248,79.838,186.989,78.71,186.284z M67.053,181.496c-0.258-0.008-0.729,0.253-0.864,0.152
	c-0.265-0.199-0.227-0.774-0.444-1.391c-0.387-1.094-0.01-0.752,0.67-0.457c0.924,0.358,1.798,0.289,2.577,0.019
	c0.803-0.28,1.856-0.216,3.543,0.005c1.357,0.178,2.119,0.126,3.351-0.228c1.337-0.42,0.983-0.269,0.76,0.559
	c-0.145,0.542-0.328,1.271-0.498,1.445c-0.924-0.52-1.625-0.318-2.232,0.035c-0.998,0.44-1.705,0.517-2.522,0.271
	c-0.769-0.439-1.225-0.403-1.842-0.024C68.485,182.4,68.014,181.545,67.053,181.496z M86.983,179.223
	c0.188-0.33,0.46-0.785,0.715-1.295c2.065-4.116,2.206-5.261,0.749-6.648c-1.959-1.863-3.629-1.055-5.505,2.667
	c-0.456,0.903-0.729,1.582-0.912,1.86c-0.212,0.322-0.46,0.074-0.582-0.051c-0.231-0.237,1.851-4.188,2.667-5.051
	c2.137-2.257,6.106-0.451,5.854,2.619c-0.127,1.546-0.42,2.394-1.829,5.229c-0.349,0.701-0.651,1.296-0.836,1.582
	C86.644,180.579,86.794,179.56,86.983,179.223z M67.521,179.059c0.326-1.466,5.008-2.145,6.242-0.222
	c0.12,0.188,0.05,0.18-0.479,0.034c-2.381-0.79-2.854-0.747-5.134,0.158C67.807,179.162,67.563,179.217,67.521,179.059z
	 M85.386,178.78c0-0.138,0.175-0.68,0.438-1.204c1.562-3.098,1.992-3.845,1.516-4.424c-0.928-1.129-2.174-0.148-3.319,3.087
	c-0.428,1.209-0.72,0.951-0.929,0.76c-0.399-0.365,1.371-4.129,2.225-4.689c1.936-1.236,3.459,0.194,2.604,2.722
	c-0.667,1.141-1.219,2.896-1.842,3.82C85.782,179.266,85.384,179.144,85.386,178.78z M78.385,173.749
	c-0.095-0.156,0.088-0.366,0.759-1.809c0.922-1.982,1.208-2.718,0.833-3.851c-0.667-2.018-3.184-2.512-4.713-1.188
	c-0.5,0.427-0.84,1.019-1.075,1.55c-0.552,1.229-1.013,2.819-1.34,3.153c-0.286,0.29-0.686,0.349-0.659-0.156
	c0.363-1.071,0.534-1.901,1.394-3.471c2.143-4.673,8.317-2.509,6.872,2.41c-0.538,1.786-1.156,3.139-1.521,3.577
	C78.73,174.211,78.393,173.998,78.385,173.749z M76.951,172.891c0-0.153,0.232-0.592,0.479-1.202
	c1.044-2.594,1.051-3.388-0.471-3.422c-0.91,0.118-1.046,0.492-1.845,2.538c-0.26,0.665-0.403,1.139-0.558,1.341
	c-0.165,0.218-0.476,0.089-0.604-0.042c-0.326-0.334,1.099-3.689,1.853-4.321c1.731-1.514,3.977,0.636,2.925,2.565
	c-0.492,1.349-0.917,2.264-1.206,2.682C77.269,173.397,76.948,173.346,76.951,172.891z M40.077,142.657l-5.262-0.362
	c0.933,5.654,0.979,11.878,0.038,16.291c-0.806,3.774-0.814,6.554-0.574,9.825c0.279,3.807,1.883,7.034,2.287,11.075
	c0.293,2.928-0.352,5.983-0.928,8.895c-0.963,4.864-0.765,5.372-0.623,11.08c0.132,5.293-0.359,5.104-0.662,4.794
	c-0.045-0.047-0.088-0.982-0.08-2.096s-0.063-3.835-0.125-5.725c-0.126-3.775,0.291-7.111,0.594-8.484
	c0.616-2.794,1.309-5.656,0.882-8.749c-0.866-3.903-2.087-7.802-2.515-11.563c-0.528-4.639,0.77-9.294,1.199-12.663
	c0.414-3.253-0.025-8.881-0.873-11.223c-0.146-0.779-0.839-1.795-0.839-1.795c-0.793-0.114-1.59-0.227-2.702-0.22
	c-0.063,22.34,0,44.688,0.017,67.031l4.906,4.578l5.042-4.819L40.077,142.657z M40.432,168.284c0,0,7.486,4.334,15.74,8.594
	c-0.786-4.873,1.707-5.608,4.047-6.174c-0.561-9.415,8.017-7.483,9.331,0.696l0.845,0.004c1.486-4.079,2.956-6.894,6.34-7.565
	c2.622-0.521,5.209,1.15,5.864,5.084c-0.115-0.276,8.695-5.201,8.938,5.202c4.001-2.498,6.856-0.34,8.01,2.832
	c1.689-2.589,5.918-2.702,7.27-2.891c0.471-0.546,1.302-0.857,2.812-0.848c1.294-0.066,3.032-1.041,3.927,0.146
	c1.361,0.216,2.397-0.031,3.561,0.872c0.925,0.708,1.957,2.285,3.497,1.197c2.937-1.423,6.237-2.064,8.864-3.779
	c0,0-0.697-0.902-0.494-0.772c0.075,0.048,0.402,0.474,0.895,0.673c0.177,0.07,1.79-0.901,1.79-0.901
	c-10.938-12.675-19.937-37.42-13.995-60.313c0.164-0.39-0.496-0.539-0.82-0.678c0.1-0.175,1.705,0.061,1.023,1.516
	c-0.688,4.387-1.465,9.14-1.638,12.776c0,0.443,0.036,0.84,0.036,0.84c24.527,11.378,21.521,36.023,15.219,44.602l0.993,1.331
	c0.439,0.296,19.296-10.763,18.674-11.217l3.567-1.787l-0.578-48.326l-14.11-1.085c0,0,0.15-0.406,0.329-0.512
	c0.129-2.95-0.134-7.313,0.008-10.966c0.055-10.438,0.159-13.987,0.024-14.276c-4.353-2.882-10.842-7.097-16.304-9.141
	c0.225,0.064-0.089,4.325-0.255,4.568c-5.11,1.64-2.738,3.735-4.626,5.987c-1.27,1.402-4.238,1.669-5.672-0.014
	c-1.713-1.667-2.517-5.492-2.517-5.492c-2.703,2.907-2.147,6.42-5.769,7.742c-5.818,2.902-7.665-5.776-7.326-5.575
	c-2.23,2.162-8.486,3.92-9.162-5.208c-2.813,2.604-5.967,1.312-7.305-1.894c-1.717,0.061-3.643,1.414-5.381,2.146
	c-1.612,0.718-3.676,1.14-5.207,1.107c-1.915,0.233-3.493,0.225-5.219-0.293c-0.812,0.265-2.64-0.527-3.204-1.661
	c-0.863-1.021-1.616-1.08-2.437-0.896c-2.795,1.48-5.792,1.838-9.092,3.389c-0.206,0.144,0.29,0.415,0.123,0.361l-1.733,0.821
	c16.714,22.102,17.624,44.417,14.12,60.232c-0.137,0.548-0.213,0.946,0.148,1.377c-0.53-0.092-0.539,0.064-0.638-0.277l1.737-13.275
	c0.052-1.604,0.251-1.484-1.149-2.083c-1.296-0.553-2.521-1.086-3.59-1.747c-4.075-3.037-8.682-6.776-10.927-11.44
	c-6.404-10.027-4.291-21.99,0.506-31.47l-1.193-1.247c-14.009,7.06-22.28,14.672-22.28,14.672l0.06,47.421l14.396,1.67
	L40.432,168.284z M33.486,136.618c-0.462-0.514-1.638-0.604-2.127-0.214c-0.113,0.097-0.355,0.6-0.427,0.581
	c-0.652-0.169-1.104-0.305-1.19-0.858l0.692-1.053c0.548-0.832,1.338-1.128,2.669-1.44c0.473-0.111,1.185-0.213,1.437-0.32
	c1-0.435,1.349-1.376,0.335-0.954c-0.739,0.204-1.773,0.137-1.91-0.544c-0.112-0.559-0.586-0.778-1.113-0.712
	c-0.976,0.235-1.866,0.748-2.73,1.264c-0.383,0.231-1.108,0.758-1.108,0.758c-0.114,0.181-0.537-1.138-0.144-1.522
	c0.489,0.06,0.91,0.064,1.388-0.127c1.19-0.477,2.336-1.053,3.537-1.515c0.765-0.302,0.835-0.276,0.634-0.822
	c-0.1-0.201-0.188-0.87-0.057-1.221c0.141-0.372,0.125-0.56-0.113-0.719c-0.54-0.362-1.837-0.024-3.66,0.856
	c-0.555,0.269-0.921,0.376-1.271,0.661c0.226-0.58,0.094-0.688,0.088-1.295c0.744,0.094,1.414-0.203,2.009-0.519
	c0.49-0.258,1.04-0.512,2.387-0.686c0.368-0.047,0.2-1.401-0.219-1.794c-0.396-0.371-1.229-0.379-2.236-0.079
	c-0.9,0.208-2.019,0.418-2.638,1.391c-0.781,0.743,0.02-1.232,1.442-2.021c0.624-0.013,2.001-0.311,2.325-0.383
	c0.549-0.122,0.638-1.419-0.161-1.974c-0.5-0.439,1.816-0.451,1.771-0.316c-0.029,0.076-0.051,0.63,0.126,0.771
	c0.998,0.302,0.989,1.122,1.076,1.468c1.146,1.892,1.71,0.705,2.498,0.054c-0.166,4.119,1.267,4.588,1.456,4.849
	c-1.968,3.691-0.483,3.782,1.36,4.631c0,0-0.701,0.286-1.168,0.258c-0.733-0.046-2.139,0.829-2.752,1.345
	c-0.34,0.285-0.35,0.048-1.705,0.009c-1.276-0.038-1.37,0.058-1.952,0.317c-1.148,0.512-1.142,0.995-0.021,0.805
	c1.195-0.203,2.366,0.527,2.504,1.521c0.094,0.188,0.01,0.521-0.01,0.51c-0.248-0.047-0.812,0.047-0.803-0.072
	c0.009-0.12,0-0.57-0.221-0.887H33.486z M35.23,131.626c0.324-0.208,0.379-0.801,0.098-1.041c-0.257-0.218-1.348-0.102-1.656,0.177
	C32.976,131.313,34.248,132.236,35.23,131.626z M35.928,129.146c0.401-0.314,0.451-1.071,0.104-1.51
	c-0.59-0.745-2.129-0.299-2.213,0.641C33.73,129.276,35.09,129.804,35.928,129.146z M35.428,125.743
	c0.072-0.821-0.736-1.342-1.48-0.952c-0.926,0.485-0.363,1.508,0.797,1.448C35.387,126.206,35.387,126.206,35.428,125.743z
	 M32.716,122.41c-0.433,0.213-0.454,0.726-0.044,1.055C34.297,124.368,33.802,121.95,32.716,122.41z M146.205,127.32
	c-0.713-2.645-2.68-0.022-2.683,0.014c-0.069-2.71,0.44-3.916-1.579-4.842c2.026-3.09,1.604-3.516-0.545-4.701
	c0.197,0.018,2.853-0.581,3.308-2.107c0.101,0.071,4.167,1.079,4.674-1.153c-1.227,0.563-3.64,0.646-3.667-1.755
	c0.228-0.069,0.8,0.05,0.752,0.126c-0.32,1.54,2.467,1.921,2.923,0.704c0,0,0.937,0.632,1.349,0.729
	c0.045,0.03-1.268,1.864-2.466,2.141c-2.16,0.72-2.905,0.914-2.908,1.346c0,0.168,0.353,0.194,0.995,0.326
	c1.341,0.094,1.313,0.384,1.488,0.83c0.156,0.396,0.308,0.476,0.755,0.435c1.532-0.512,2.299-0.781,3.366-1.855
	c0.13-0.025,0.281,1.13,0.363,1.169c0.014-0.184-1.084,0.138-2.768,1.129c-1.375,0.81-1.913,0.927-2.088,1.146
	c-0.13,0.162,0.204,0.673,0.239,1.228c0.03,0.466-0.282,0.692-0.053,0.838c0.265,0.168,0.675,0.137,1.214-0.004
	c1.188-0.288,2.063-0.758,3.131-1.422c-0.228,0.432,0.153,1.528,0.153,1.528s-0.527-0.373-0.961-0.179
	c-0.836,0.368-2.188,0.872-2.553,0.958c-0.354,0.084-0.507,0.13-0.645,0.248c-0.17,0.146-0.142,0.494-0.146,1.007
	c0,0.359-0.104,0.691,0.121,0.8c0.499,0.162,1.506,0.11,2.531-0.25c0.438-0.191,1.365-0.7,1.365-0.7l-0.291,1.517
	c-0.389-0.441-1.506-0.116-2.253,0.181c-0.378,0.119-0.49,0.358-0.586,0.689c-0.167,0.565,0.19,0.955,0.603,1.142
	c0.273,0.124,0.696,0.073,0.696,0.073c-1.937,0.741-1.552,1.015-2.682,0.452C146.871,128.573,146.393,128.012,146.205,127.32
	L146.205,127.32z M148.232,127.321c-0.32-0.374-0.881-0.588-1.207-0.44c-0.29,0.155-0.186,0.479-0.093,0.728
	C147.178,128.295,148.88,128.073,148.232,127.321z M147.103,125.431c0.454-0.6-0.046-1.405-0.885-1.41
	c-0.583-0.004-0.894,0.361-0.888,0.821C145.342,125.711,146.723,125.931,147.103,125.431z M146.17,123.147
	c0.842-0.23,1.1-1.051,0.518-1.646c-0.413-0.423-1.711-0.476-2.058-0.094C143.744,122.386,144.736,123.54,146.17,123.147z
	 M146.87,120.146c0.493-0.255,0.589-0.679,0.152-1.16c-0.792-0.678-2.175-0.149-1.729,0.84
	C145.513,120.311,146.268,120.455,146.87,120.146L146.87,120.146z M45.615,97.355c0.743-0.272,1.279-0.853,2.062-1.298
	c0.527-0.29,0.368-0.243-0.306-0.641c-0.531-0.245-1.596-1.33-1.695-1.071C45.436,94.808,45.47,97.334,45.615,97.355z M64.4,123.814
	c0.03-0.516,0.092-1.292,0.077-1.861c0.101-1.086-0.093-0.769-0.677-0.414c-0.432,0.28-1.125,0.706-1.396,0.843
	c-1.071,0.538-0.943,0.565,0.564,1.296C64.235,124.248,64.377,124.192,64.4,123.814z M62.93,121.274
	c1.024-0.649,1.363-0.984,1.413-1.713c0.009-0.838-0.092-1.143-0.821-0.563c-2.491,1.979-5.056-1.904-2.775-4.063
	c0.465-0.439,1.056-1.129,1.061-1.304c0.038-1.251-1.362-0.036-2.506,1.683c-1.267,1.563-2.057,3.518-0.945,5.396
	C59.245,122.084,61.224,122.356,62.93,121.274z M57.27,118.746c-0.045-0.612,0.127-1.297,0.206-1.5
	c0.279-0.718,0.268-0.807-1.002-0.21c-0.507,0.168-1.11,0.305-1.343,0.304c-1.037-0.007-0.778,0.321,0.707,1.567
	C57.332,120.16,57.382,120.273,57.27,118.746z M60.801,112.746c0.158-0.377-0.171-0.521-0.485-0.451
	c-0.025,0.006-0.569,0.414-1.208,0.92c-1.936,1.534-3.355,1.713-4.316,0.545c-0.975-1.186-0.566-2.591,1.609-4.199
	c0.961-0.71,1.191-0.758,0.729-1.068c-0.352-0.235-0.372-0.199-1.753,0.74c-2.782,1.896-3.615,3.189-3.336,5.075
	c0.057,0.774,0.46,1.181,0.85,1.481C55.544,118.154,59.224,114.894,60.801,112.746z M63.608,113.865l-0.167-2.609
	c-2.829-2.453-5.512-6.645-6.439-10.115c-0.944-3.087-0.191-9.525-0.049-9.048l-1.528-2.912c-1.331,3.091-1.911,7.804-0.464,12.606
	C56.188,105.864,58.648,110.802,63.608,113.865L63.608,113.865z M51.694,112.345c0.899-1.735,0.927-1.548-0.81-1.563
	c-1.981-0.017-1.76-0.26-0.643,1.443C51.139,113.592,50.988,113.711,51.694,112.345z M52.885,109.966
	c1.142-0.369,0.881-0.284,2.396-1.275c1.738-1.138,1.812-1.76,0.065-0.883c-2.241,1.125-4.21,0.838-4.94-0.632
	c-0.65-1.309,0.708-2.941,2.946-3.58c0.765-0.219,1.167-0.403,1.169-0.74c0.008-1.026-3.803,0.344-5.372,1.894
	C46.12,107.742,48.771,111.294,52.885,109.966z M47.986,105.306c0.103-0.156,0.375-0.53,0.626-0.919
	c1.073-1.254,0.171-0.879-0.781-1.222c-0.503-0.188-1.019-0.373-1.314-0.328c-0.569,0.087,0.192,1.194,0.375,1.909
	C47.404,106.338,47.346,106.289,47.986,105.306z M52.043,102.438c1.92-0.189,2.116-0.376,2.118-0.776
	c0-0.397-0.234-0.321-1.198-0.187c-2.554,0.356-4.244-0.297-4.609-1.666c-0.377-1.414,1.353-2.752,3.657-2.673
	c1.248,0.043,2.079-0.392,1.319-0.809c-0.396-0.217-3.834-0.17-4.611,0.058c-2.283,0.669-3.215,1.947-3.006,3.717
	c0.316,2.185,1.502,2.811,4.393,2.656C50.659,102.728,51.365,102.504,52.043,102.438z M53.528,95.32
	c0-0.341-0.546-0.391-2.358-0.661c-2.414-0.361-3.492-2.608-2.037-3.96c0.552-0.513,1.865-0.732,2.598-0.599
	c1.592,0.292,2.564,0.621,2.58,0.078c0-0.484-0.459-0.52-3.446-1.154c-4.513-0.96-6.991,3.497-3.382,5.677
	C48.853,95.529,53.524,96,53.528,95.32z M54.647,88.942c0-0.17-0.146-0.302-0.487-0.437c-0.497-0.195-0.83-0.231-1.95-0.99
	c-1.49-1.011-1.942-2.98-0.948-4.078c0.965-1.024-0.771-2.234-2.155-1.078c-1.438,1.201-1.316,3.088,0.339,4.581
	C50.97,88.315,54.643,89.745,54.647,88.942z M47.334,88.677c1.569-0.741,2.696-0.314,1.496-1.337
	c-0.674-0.628-1.25-2.414-1.718-0.898c-0.358,0.902-0.622,2.495-0.632,2.651C46.586,89.2,46.563,89.016,47.334,88.677z
	 M102.822,84.833c-1.787-0.447-3.008-2.535-2.553-4.541c0.258-1.134,1.317-3.805,1.526-3.971c0.788-0.629,0.68,0.208-0.044,1.661
	c-0.659,1.484-1.174,2.678-0.97,3.561c0.291,1.257,0.796,2.216,2.095,2.535c0.914,0.224,1.774-0.158,2.357-0.573
	c0.771-0.548,1.5-1.952,2.371-3.897c0.278-0.547,0.652-2.228,1.116-1.202c0.224,0.53-1.636,4.061-2.331,4.955
	C105.518,84.485,104.04,85.146,102.822,84.833z M113.594,83.652c0.871,0.839,2.342,1.261,3.302,0.96
	c2.356-0.836,3.428-3.075,2.536-6.676c-0.452-2.019-0.839-3.273-1.229-3.523c-0.189-0.121-0.397,0.105-0.582,0.386
	c-0.165,0.251,0.087,0.604,0.354,1.553c1.126,4.002,0.832,5.811-0.543,6.575c-1.994,1.109-3.702-0.168-4.281-3.022
	c-0.093-0.441-0.365-1.341-0.365-1.341c-0.153-0.396-1.389-0.309-0.939,1.02C111.98,80.611,112.923,83.063,113.594,83.652z
	 M123.703,73.173c-0.031-1.408-2.975-7.516-3.175-6.868c0,0-0.013,1.428,0.103,1.99c0.044,0.212,0.196,0.408,0.322,0.634
	c2.558,4.588,2.163,7.821-0.055,8.529c-0.756,0.345-0.92,0.685-0.582,1.04c0.684,0.748,2.397-0.73,2.731-1.268
	C123.887,76.026,123.77,73.83,123.703,73.173z M80.871,72.135c0.964-1.083,3.078-4.82,3.73-6.781
	c2.005-5.835,4.112-12.547,4.695-18.751c0.064-0.783,0.104-1.974,0.144-2.076c-0.158-0.171-1.152-0.081-1.486,0.09
	c-0.159,0.21-0.053,0.675-0.109,1.28c-0.897,6.975-2.554,13.328-5.011,19.797c-1.074,2.81-2.072,4.659-3.366,6.613
	c-0.226,0.342-0.514,0.693-0.626,0.892c-0.328,0.475-0.087,0.785,0.292,0.584C79.807,73.399,80.388,72.663,80.871,72.135z
	 M77.584,73.831c3.075-4.258,5.262-9.368,6.96-15.401c1.074-3.904,2.019-7.855,2.586-11.882c0.116-0.859,0.21-1.435,0.043-1.691
	c-0.415-0.112-1.19-0.043-1.459,0.166c-0.165,0.25-0.056,0.751-0.207,1.91c-0.394,2.996-0.982,6.005-1.977,9.943
	c-2.624,8.718-5.036,13.598-8.204,17.868c-0.256,0.359-0.484,0.592-0.461,0.745c0.033,0.223,0.341,0.205,0.844-0.111
	C76.367,74.857,77.119,74.403,77.584,73.831z M72.899,76.094c1.504-0.859,4.153-4.598,6.024-8.624
	c2.1-4.753,3.857-10.122,5.008-14.771c0.499-2.038,1.209-7.127,1.107-7.462c-0.12-0.397-1.591-0.066-1.387,0.209
	c0,0-1.461,8.18-3.032,12.688c-2.918,8.37-5.441,14.05-8.157,16.78c-0.355,0.357-1.057,1.058-1.057,1.058s0.015,0.313,0.241,0.36
	C72.189,76.433,72.55,76.274,72.899,76.094z M70.597,75.761c3.395-1.912,7.37-10.842,10.616-22.055
	c0.555-1.918,1.569-8.341,1.569-8.341s-1.353,0.051-1.613,0.337c-0.263,0.389-0.221,1.376-0.6,3.724
	c-1.459,7.092-3.66,13.561-6.969,19.955c-1.431,2.833-3.809,5.501-5.31,6.261c-0.839,0.425-1.085,0.893-0.471,0.927
	c1.035,0.037,1.127,0.256,1.879-0.151L70.597,75.761z M117.111,175.627c-2.545-0.009-4.707,2.452-6.634,5.545
	c-4.098,6.336-6.853,16.926-7.522,22.554l1.546-0.294c-0.231,0.107,2.89-14.979,7.646-21.439c2.572-4.076,2.463-4.138,3.907-4.511
	c1.825-0.474,3.288,1.517,2.384,2.716c-0.328,0.405-0.688,0.107-0.586-0.471c0.323-1.845-2.348-2.2-3.095-0.388
	c-0.858,2.086,1.425,3.945,3.654,3.125c1.993-0.709,2.828-3.517,1.429-5.591C119.121,176.172,118.08,175.549,117.111,175.627z
	 M103.711,175.369c-3.048,3.856-4.559,7.82-6.43,13.232c-1.87,5.407-3.214,10.696-3.796,16.766l1.645-0.214
	c-0.06-3.901,4.183-22.479,10.145-29.438c0.333-0.44,0.601-0.807,0.575-0.908C105.52,173.868,104.105,174.999,103.711,175.369z
	 M110.445,173.929c-3.951,3.262-7.106,10.388-9.188,16.976c-2.25,7.121-3.259,13.646-3.09,13.646l1.569-0.233
	c-0.116-0.413,4.41-25.504,12.81-30.072c0.729-0.366,0.882-0.735,0.268-0.896C111.869,173.217,111.108,173.529,110.445,173.929z
	 M114.868,173.945c-8.626,1.145-14.263,27.816-14.451,30.031l-0.031,0.206l1.717-0.357l0.022-0.128
	c1.184-6.814,2.336-11.592,5.023-17.752c2.097-4.564,4.987-10.4,9.308-10.967c0.351-0.046,0.684,0.096,0.561-0.316
	C116.754,174.008,115.462,173.925,114.868,173.945L114.868,173.945z M63.457,165.546c-3.117,0.808-3.219,4.575-1.143,9.389
	c0.157,0.363,0.129,0.563,0.288,0.702c0.354,0.313,0.634-0.123,0.673-0.411c0.061-0.438-0.125-1.026-0.455-1.882
	c-1.285-3.332-0.977-5.252,0.296-6.101c3.261-1.694,4.139,1.784,4.632,3.385c0.121,0.39,0.162,0.926,0.375,0.955
	c0.65,0.09,0.961-0.143,0.951-0.143c0,0-0.864-2.996-1.391-4.121C66.831,165.498,64.805,165.117,63.457,165.546L63.457,165.546z
	 M40.838,169.103l-0.031,39.707l-5.969,5.653c-2.562-2.215-5.926-5.683-5.926-5.683l0.105-67.126l-1.92-0.154
	c-0.471,28.84-0.009,58.263-0.031,87.159h17.521l14.605-23.029c0,0,0.185-0.274,0.243-0.419c0.18-0.444,0.158-1.106,0.07-3.553
	c-0.036-0.995,0.075-1.759-0.07-1.991c-0.147-0.236-0.459-0.067-0.75,0.063c-0.296,0.135-0.473,0.087-0.313-0.266
	c0.09-0.199,0.383-0.638,0.635-1.056c0.82-1.357,1.021-1.793,0.744-3.298c-0.068-0.37-0.405-0.684-0.698-1.12
	c-2.458-3.66-3.459-9.086-2.238-13.06c0.389-1.757,0.249-2.112-0.592-3.481L40.838,169.103z M118.09,126.408
	c-1.605-0.832-1.574-0.813-1.584,0.76c0.01,1.177,0.031,1.461,0.469,1.303c0.633-0.324,1.406-0.622,1.99-0.872
	C120.079,127.212,118.664,126.717,118.09,126.408z M124.441,130.497c-1.245-1.003-0.785-0.888-1.138,1.374
	c-0.213,1.366-0.488,1.401,0.913,0.949c0.795-0.277,2.429-0.103,1.696-1.044C125.921,131.793,124.686,130.707,124.441,130.497z
	 M74.407,165.213c-1.91,1.167-3.861,6.818-3.861,6.818c-6.675,0.803-9.47,7.429-9.769,12.953c-0.235,4.361-0.528,9.454-0.092,9.9
	c4.377-1.986,6.063,0.307,6.478-0.312c0.189-0.27-0.971-1.165-2.428-1.967c-0.339-0.187-0.862-0.522-1.062-0.688
	c-0.531-0.444,1.061-0.062,2.067,0.63c1.283,0.882,1.499,0.698,0.942-1.879c-0.605-2.802-0.705-3.146,1.429-4.256
	c0.854-0.444,1.339-0.821,1.95-1.513c0.488-0.553,0.613-0.688,0.434,0.125c-0.313,1.408-1.553,2.022-2.671,2.595
	c-0.556,0.287-0.786,0.866-0.788,1.363c0,0.507,0.573,3.244,0.84,4.119c0.248,0.831,0.339,1.664,0.53,2.512
	c0.501,2.198,0.533,2.63,0.28,4.226c-0.149,0.937-0.225,1.47-0.173,2.035c0.047,0.514,0.117,1.213,0.117,1.213
	c0-0.024-1.191-1.235-3.806-0.197c-1.885,0.749-3.373-0.031-4.43-0.586c-0.242,0.866-0.188,1.807-0.158,2.801
	c10.867,2.006,20.148,1.736,27.963,0.911c0.203-2.333,1.188-9.75,3.258-16.438c0.861-2.783,1.835-5.717,2.933-7.675
	c0.749-1.335,1.513-2.234,1.782-2.39l0.09-0.114v-0.209c-0.027-0.434-0.131-1.105-0.5-1.402c-0.902-0.727-2.341,0.208-2.814,1.828
	c-0.414,0.971-2.306,5.168-2.44,5.098c-0.111-0.071-0.374-0.076-0.278-0.4c0.724-1.701,1.719-3.5,2.278-5.027
	c0.774-2.199,2.457-3.36,3.715-1.974c0.431,0.476,0.604,0.914,0.802,1.064c0.148,0.114,0.35,0.036,0.474-0.151
	c0.474-0.722-0.625-2.359-1.805-2.688c-1.702-0.475-2.971,0.779-4.901,4.845c-1.114,2.347-1.313,2.937-1.49,2.756
	c-0.039,0.016-0.335,0.016-0.228-0.439c0.229-0.977,1.709-3.817,2.78-5.618c1.586-2.667,4.529-2.883,5.768-0.568
	c0.189,0.315,0.199,0.728,0.409,1.009c0.38,0.496,1.006,0.398,1.16-0.417c-0.168-0.539-1.203-2.487-1.923-2.826
	c-1.655-1.149-3.665-0.924-5.356,0.601c-0.384,0.346-0.783,1.049-1.905,3.349c-1.652,3.687-1.696,3.7-2.148,3.106
	c0.665-1.793,2.413-4.707,3.118-6.496c0.135-0.267,0.162-0.553,0.151-0.828c-0.041-1.301,0.169-3.598-2.554-5.23
	c-2.322-1.264-5.388,0.065-6.432,2.553c-0.8,1.904-1.384,3.213-1.786,3.483c-0.566,0.379-0.461-0.149-0.404-0.341
	c0.805-1.725,1.937-3.466,2.115-5.201c0.117-4.694-4.595-6.43-7.658-4.061H74.407z M50.082,77.247
	c3.676-1.727,6.193-2.596,9.94-3.711c0.507-0.225,0.587-0.276,0.05-1.351c-2.374-4.746,4.14-8.53,6.354-3.871
	c0.295,0.621,0.363,0.965,0.654,0.668c0.544-0.721,1.191-1.745,1.863-2.913c2.492-3.9,3.619-8.349,4.948-12.275
	c0.551-2.307,1.32-4.718,1.538-7.192c-4.943-8.691-13.634-24.623-13.634-24.623H27.066v69.679
	C36.741,83.502,43.324,80.552,50.082,77.247z M89.033,74.68c0.42-0.448,0.783-1.191,2.288-4.311c0.269-0.557,0.697-1.419,0.872-1.82
	c0.226-0.734,1.07-1.193,0.659,0.121c-0.094,0.283-0.255,0.666-0.511,1.175c-0.5,0.909-0.976,2.022-1.332,2.75
	c-1.924,3.896-1.832,6.165,0.317,7.855c1.606,1.551,4.979,1.727,6.773-0.778c0.269-0.403,0.509-0.922,0.586-1.112
	c0.78-1.912,1.355-2.869,1.503-3.058c0.799-1.024,0.927,0.244-0.266,2.197c-1.367,2.237-1.391,4.663-0.209,6.369
	c1.751,2.529,5.078,2.601,7.166,0.571c1.085-1.284,1.947-2.92,2.643-5.01c0.154-0.463,0.313-0.807,0.426-1.078
	c0.174-0.419,0.424-0.574,1.072-0.7c4.444-0.859,8.174-5.468,8.704-10.499c0.069-0.681,0.261-1.885,0.331-2.6
	c0.14-1.426,0.143-8.812,0-9.252c-0.075-0.237-0.208-0.363-0.497-0.36c-0.222,0.003-0.536,0.081-0.987,0.244
	c-1.465,0.528-2.147,0.662-3.555,0.153c-0.466-0.168-0.787-0.225-0.979-0.208c-0.621,0.054,0.205,0.954,2.016,1.948
	c0.775,0.426,1.389,1,0.76,0.957c-0.184-0.012-2.368-1.152-2.67-1.339c-0.995-0.617-0.735,0.159-0.223,2.201
	c0.688,2.743,0.292,3.514-1.853,4.588c-0.399,0.2-0.93,0.618-1.2,0.888c-1.136,1.696-0.843,0.446-0.27-0.457
	c0.978-1.034,0.378-1.387-1.627-0.67c-2.287,0.817-3.32,0.221-3.96-1.063c-0.724-1.452,0.638-3.319,1.772-3.283
	c0.367,0.012,0.301,0.146-0.24,0.519c-0.654,0.451-0.964,0.886-1.031,1.656c-0.139,1.57,0.973,2.237,2.527,1.185
	c0.734-0.498,1.312-0.841,1.867-0.969c0.551-0.126,1.378,0.08,1.375,0.525c0,0.184-0.026,0.634,0.014,0.733
	c0.145,0.497,0.933-0.207,1.275-0.457c1.17-0.884,1.132-1.058,0.813-2.491c-0.523-2.007-0.787-3.841-1.285-5.875
	c-0.266-1.065-0.311-2.27-0.148-3.355c0.081-0.544,0.291-1.663,0.333-2.429s-0.008-1.86,0.023-1.86
	c1.162,0.898,1.635,1.056,2.769,0.62c1.756-0.726,2.863-0.65,4.343,0.063c0.547,0.265,1.045,0.451,1.045,0.451l0.067-2.303
	c0,0-1.369-0.285-3.898-0.621c-7.615-1.011-23.241-1.224-23.823-0.295c-0.147,0.236-0.296,1.881-0.711,4.169
	c-0.921,4.753-1.954,9.49-3.336,14.129c-0.283,0.945-0.554,1.325-0.409,1.354c0.059,0.012,0.342-0.354,0.473-0.508
	c0.741-0.863,0.174,1.188-0.945,3.657c-0.101,0.224-0.184,0.468-0.184,0.543c0,0.149-0.704,1.871-1.188,2.912
	c-0.301,0.646-0.551,0.842-0.548,0.428c0.34-1.423,1.238-3.264,1.367-4.532c-0.787,1.148-1.933,3.044-2.801,4.176
	c-0.159,0.305,0.01,0.398,0.149,0.775c0.521,1.406,1.784,1.532,2.514,0.259c0.407-0.71,1.671-3.385,2.11-4.556
	c0.452-1.204,0.77-1.839,0.921-1.918c0.303-0.157,0.36,0.526-0.176,1.666c-1.627,3.456-2.324,5.394-3.121,6.108
	c-0.618,0.555-1.688,0.519-2.282-0.468c-1.008-1.674-1.868-1.119-0.943,0.597c0.955,1.772,3.138,1.938,4.277,0.342
	c0.376-0.527,2.147-3.941,2.703-5.33c0.312-0.774,0.643-1.379,0.754-1.422c0.595-0.23-0.084,1.539-1.791,5.082
	c-0.554,1.368-1.442,2.804-2.645,3.248c-2.923,0.646-3.318-0.915-4.335-2.693c-0.494-0.443-0.941,0.265-0.753,1.047
	c0.307,1.27,0.881,1.766,1.767,2.402c1.85,1.189,4.421,0.371,5.354-0.984H89.033z M102.072,82.093
	c-0.266-0.593-0.228-1.194-0.092-1.755c0.307-1.266,0.813-2.493,1.406-3.561c0.959-0.459,0.227,1.365,0.106,1.637
	c-1.157,2.438-1.267,3.381-0.187,3.662c0.926,0.241,1.423-0.331,2.298-2.517c0.449-1.122,0.629-1.618,0.788-1.683
	c0.336-0.137,0.498,0,0.479,0.343c-0.578,1.435-1.031,2.943-1.981,4.136C103.959,83.142,102.559,83.146,102.072,82.093z
	 M93.39,80.22c-0.402-0.079-1.093-0.604-1.573-1.048c-1.635-1.513-1.365-3.604,0.662-7.535c0.158-0.305,0.748-1.494,0.938-1.884
	c0.34-0.699,0.674-0.426,0.671,0.037c0,0.13-0.508,1.216-1.02,2.223c-2.239,4.422-2.163,6.225,0.014,7.277
	c2.124,1.026,3.075,0.436,4.77-2.939c0.979-2.534,1.463-2.575,1.409-1.612c0,0.359-1.188,2.788-1.953,3.917
	C96.197,80.293,95.236,80.584,93.39,80.22z M93.551,78.086c-0.834-0.521-1.174-1.817-0.682-2.878
	c0.449-0.875,1.598-4.229,2.137-4.418c0.868-0.03,0.405,0.704-0.67,2.767c-1.272,2.732-1.227,3.463-0.245,3.881
	c0.909,0.387,1.34-0.406,2.68-3.602c0.211-0.502,0.505-1.023,0.677-0.914c0.213-0.017,0.583,0.146-0.121,1.594
	c-0.168,0.346-0.451,1.072-0.765,1.749C95.646,78.242,94.606,78.746,93.551,78.086z M108.604,72.286
	c-0.367-0.19-2.088-0.872-1.832-1.438l0.182,0.022c1.575,1.065,3.533,1.336,5.576-0.143c0.344-0.306,0.601-0.1,0.408,0.285
	C112.319,72.252,109.566,72.781,108.604,72.286z M103.545,70.49c0.047-0.119,0.189-0.473,0.314-0.949
	c0.189-0.715,0.145-1.242,0.313-1.15c0.713,0.389,1.988,0.398,2.613,0.014c0.685-0.422,2.073-0.551,2.58-0.219
	c0.723,0.475,1.091,0.254,1.598-0.145c0.572-0.45,0.582-0.258,1.615,0.104c0.764,0.267,1.063,0.45,1.388,0.391
	c0.124-0.022,0.376-0.309,0.457-0.294c0.248,0.045,0.276,0.756,0.505,1.567c0.202,0.718,0.087,0.891-0.551,0.461
	c-0.474-0.32-1.836-0.471-3.253-0.032c-1.05,0.324-1.292,0.194-2.062,0.063c-1.92-0.327-3.305-0.58-4.736,0.256
	C103.563,71.003,103.285,71.235,103.545,70.49z M98.77,66.944c-0.931-1.884,1.209-4.378,3.09-3.497
	c0.623,0.292,1.178,1.398,0.256,0.891c-4.277-0.871-3.209,5.451,1.384,2.111c3.053-2.045,5.213-2.361,5.393-0.383
	c-0.085,0.728-0.726,0.611-1.21,0.678c-1.266,0.178-1.733,0.386-3.199,1.02C102.252,68.474,100.072,69.053,98.77,66.944z
	 M115.506,67.814c-1.043-0.271-1.949-0.687-3.038-0.885c-1.078-0.19-1.564-0.758-1.37-1.522c0.203-0.794,1.282-0.878,2.904,0.122
	c1.799,1.107,3.102,1.376,3.76,0.959c1.331-0.846,0.613-2.221-0.656-2.573c-0.953-0.268-0.252-0.642,0.772-0.333
	c1.653,0.633,1.688,3.648-0.012,4.274C117.297,68.066,116.295,68.01,115.506,67.814z M100.938,57.832
	c1.215-0.758,2.387-1.435,2.805-1.887c0.219-0.237,0.828-1.034,0.355-0.791c-2.477,1.502-5.352,0.255-7.435-0.772
	c-1.001-0.473-0.755-0.264-1.522-0.212c-0.521,0.035-0.939,0.146-1.033-0.23c-0.041-0.166-0.332-0.096-0.519-0.115
	c-0.77-0.076-0.283-1.104,1.333-2.238c1.907-1.337,3.571-2.209,5.223-2.569c1.715-0.374,3.464-0.162,4.747,1.085
	c0.493,0.479,0.449,0.798,0.899,0.504c1.028-0.672,1.037,0.22,0.17,1.044c-0.596,0.565-0.377,0.72,0.352,1.259
	c0.348,0.257,0.062,0.502-0.132,0.876c-0.073,0.229-0.017,0.48-0.051,0.653c-0.162,0.806-3.794,3.65-5.108,4.136
	C100.117,58.743,100.592,58.056,100.938,57.832z M103.459,52.605l-0.604,0.008c-0.686,2.114-1.953,2.835-3.007,0.3l-0.48,0.049
	C99.347,55.109,103.008,56.458,103.459,52.605z M99.494,54.588c-0.249-0.421-0.528-1.388-0.789-1.401
	c-0.707-0.03-1.686,0.099-1.454,0.541C97.617,54.428,99.783,55.076,99.494,54.588z M104.346,54.211
	c0.652-0.396,0.792-0.67,0.366-1.105c-0.55-0.563-0.837-0.275-1.01,0.623C103.555,54.501,103.662,54.627,104.346,54.211z
	 M95.498,52.724c4.371-1.996,6.029-2.254,7.805-1.76c0.412,0.114,0.776,0.347,1.006,0.333c0.851-0.052,0.309-1.013-1.219-1.563
	c-1.742-0.629-2.849-0.343-6.199,1.42C94.928,52.186,93.334,53.712,95.498,52.724z M108.168,50.302
	c-0.063-0.12-0.328-0.914-0.402-1.204c-0.075-0.289-0.143-0.589-0.225-0.59c-2.028,0.326-3.812-0.056-4.291-0.171
	c-3.067-0.739-6.031-0.589-8.244,0.285c-0.54,0.214-1.21,0.56-1.274,0.62c-0.175,0.165-0.434-0.022-0.432-0.229
	c0-0.242,1.359-1.326,2.215-1.754c2.604-1.302,5.351-1.524,8.368-0.705c1.965,0.761,3.231,0.638,4.488,0.082
	c0.616-0.272,0.179,0.401-0.017,1.296c-0.135,0.619,0.014,1.149,0.038,1.499C108.471,50.277,108.375,50.701,108.168,50.302
	L108.168,50.302z M153.849,228.66v-69.862c-17.427,12.113-25.049,14.521-33.237,17.49c2.738,5.632-3.295,10.451-6.756,4.732
	c-3.563,4.035-8.469,18.168-8.643,22.86c0,0,9.475,16.539,14.098,24.779H153.849z M90.519,205.759
	c0.315-3.516,1.061-9.475,3.381-16.41c0.973-2.909,2.146-6.248,3.806-9.236c0.661-1.044,0.707-1.448,0-1.073
	c-0.444,0.237-2.472,2.543-2.748,3.126c-3.109,6.62-4.548,14.573-5.686,20.646c-0.259,1.365-0.335,3.063-0.335,3.063L90.519,205.759
	z M92.793,205.47c0.74-8.539,3.854-20.068,8.532-27.583c0.44-0.717,0.981-1.338,0.961-1.586c-0.061-0.73-1.862,0.532-3.26,2.688
	c-1.56,3.121-3.123,6.451-4.319,10.139c-1.688,5.204-2.921,10.013-3.401,16.538L92.793,205.47z M97.289,204.757
	c0.469-4.921,1.982-9.436,3.252-13.958c1.552-5.53,3.623-9.601,6.037-13.265c0.773-1.176,1.688-2.276,2.557-3.397
	c0.11-0.134,0.222-0.377,0.196-0.478c-0.558-0.099-1.001,0.076-1.433,0.319c-0.602,0.34-1.449,1.198-1.943,1.835
	c-3.438,4.425-5.288,9.589-7.005,14.808c-1.648,5.012-2.836,9.831-3.068,14.369L97.289,204.757z M66.409,200.985
	c0.691-0.055,1.137,0.076,1.338-0.108c0.198-0.185,0.134-0.68,0.196-1.313c0.135-1.354-0.008-1.28-0.844-0.405
	c-1.388,1.449-3.922,2.007-5.429,1.132c-0.761-0.442-1.289-0.748-1.36-0.381c-0.084,0.429,0.031,0.757,0.356,0.985
	C62.493,201.734,64.226,201.157,66.409,200.985z M64.777,199.947c0.961-0.322,1.938-0.84,2.488-1.631
	c0.525-0.754,0.517-0.862,0.119-0.719c-1.955,0.97-3.238,1.463-4.985,1.194c-2.365-0.362-2.464-0.058-0.9,0.93
	C62.522,200.367,63.371,200.387,64.777,199.947z M61.305,196.922c0.366-0.272,0.46-1.383,0.165-1.446
	c-0.299-0.063-0.734,0.487-0.841,0.937C60.509,197.007,60.946,197.159,61.305,196.922z M64.967,196.874l0.628-0.058
	c-0.321-2.783-3.317-2.904-3.87,0.278l0.475,0.071C62.818,194.629,64.629,194.699,64.967,196.874L64.967,196.874z M66.941,196.426
	c0.917-0.516,0.6-1.154-0.637-1.398c-0.812-0.192-0.767,0.477-0.346,1.385C66.168,196.863,66.314,196.778,66.941,196.426z
	 M59.886,193.014c-0.008-0.311-0.134-0.811-0.279-1.112c-1.057-2.183-1.64-4.761-1.52-7.965c0.086-2.297,0.114-3.007-0.359-3.011
	c-0.661,0.321-1.052,4.595-0.21,8.153C58.111,191.59,59.93,194.706,59.886,193.014z M59.86,189.535
	c-0.064-1.2,0.197-3.89,0.067-4.477c-0.172-0.771-0.624-1.468-0.88-1.653c-0.396-0.288-0.496,0.265-0.358,1.706
	C59.012,188.494,59.55,191.055,59.86,189.535L59.86,189.535z M60.194,183.378c0.261-0.475,0.159-0.978-0.416-2.109
	c-2.265-4.456-2.559-7.501-0.192-8.607c0.265-0.124,0.432-0.147,0.607-0.246c0.746-0.417,0.463-1.174-0.653-0.861
	c-3.082,0.863-3.689,3.772-1.092,9.156C59.771,183.396,59.977,183.772,60.194,183.378z M60.756,180.851
	c0.041-0.187,0.12-0.915,0.15-1.063c0.031-0.149-0.279-0.578-0.613-1.438c-0.871-2.244-0.889-3.175,0.059-3.825
	c0.308-0.182,0.624-0.19,0.672-0.399c0.074-0.326,0.069-0.861-0.125-1.016c-1.359,0.01-1.986,0.809-2.225,1.569
	c-0.359,1.202,0.015,2.965,1.082,5.147C60.273,180.508,60.544,181.752,60.756,180.851z M61.795,177.947
	c0.727-1.479,0.037-3.396-0.963-2.742c-0.649,0.424-0.683,0.873-0.284,2.104C61.033,178.81,61.32,178.914,61.795,177.947z
	 M64.344,173.989c0.291-0.29,0.033-0.708-0.505-2.342c-0.461-1.4-0.25-2.357,0.628-2.634c1.258-0.313,1.703,1.763,1.968,2.638
	c0.137,0.675,0.577,0.861,0.968,0.392c0.109-0.131,0.141-0.24-0.045-0.978c-0.813-3.217-1.875-4.241-3.586-3.439
	c-1.586,0.743-1.377,2.405-0.228,5.899c0.153,0.468,0.257,0.814,0.367,0.863C64.002,174.428,64.183,174.15,64.344,173.989z
	 M65.748,172.896c0.376-0.375,0.354-0.205-0.076-1.548c-0.49-1.53-0.748-1.85-1.275-1.323c-0.324,0.323-0.16,0.678,0.209,1.931
	C65.035,173.411,65.149,173.494,65.748,172.896z M131.488,167.656c2.503-1.74,1.471-4.863-1.823-6.021
	c-0.389-0.137-0.816-0.302-0.951-0.366c-1.513-0.734-2.69-0.961-2.694-0.388c0,0.338,0.452,0.508,1.903,1.221
	c2.146,1.054,2.632,2.271,1.572,3.807C128.731,167.016,130.162,168.283,131.488,167.656z M133.76,163.855
	c0.217-0.893,0.54-1.659,0.694-2.179c0.212-0.815-0.062-0.626-0.597-0.499c-1.379,0.722-2.366,0.33-1.696,1.322
	C132.905,163.819,133.521,164.838,133.76,163.855z M133.588,160.734c1.719-1.038,2.101-3.741,0.501-5.03
	c-0.383-0.308-1.045-0.714-1.847-0.96c-1.628-0.501-3.978-0.729-4.839-0.465c-0.185,0.22-0.192,0.565-0.008,0.666
	c0.239,0.09,0.673,0.149,1.299,0.213c2.393,0.245,3.572,0.963,3.458,2.674c-0.118,1.764-1.518,2.441-4.043,1.884
	c-1.357-0.3-1.99-0.155-1.445,0.165c0.647,0.381,2.041,0.881,3.414,1.152C131.252,161.241,132.591,161.321,133.588,160.734
	L133.588,160.734z M125.337,160.289c1.935-4.377,2.954-15.856-8.103-24.155l0.365,2.297c6.516,5.753,8.08,13.078,6.73,19.799
	L125.337,160.289z M135.209,152.442c-0.692,0.452-1.271,0.922-2.16,1.322c-0.532,0.239-0.546,0.298,0.178,0.695
	c0.35,0.192,0.925,0.546,1.146,0.786c0.383,0.416,0.833,0.575,1.003,0.424C135.357,155.019,135.578,152.865,135.209,152.442z
	 M131.937,153.272c2.239-0.713,3.438-1.799,3.183-3.615c-0.375-2.665-2.587-3.229-6.729-2.187c-1.993,0.501-2.171,1.443-0.279,0.957
	c2.388-0.613,4.263,0.314,4.009,2.076c-0.147,1.52-1.36,2.404-3.49,2.404c-1.124,0-1.472,0.102-1.319,0.51
	C127.414,153.695,131.014,153.566,131.937,153.272z M128.238,146.941c3.661-1.264,5.363-3.229,4.527-5.431
	c-0.984-2.593-4.18-2.618-7.391-0.206c-1.499,1.106-1.27,1.517,0.184,0.953c1.884-0.872,3.096-1.007,3.867-0.313
	c1.393,1.252,0.453,3.436-1.659,4.219c-1.023,0.429-1.353,0.665-1.354,0.975C126.412,147.627,126.596,147.509,128.238,146.941z
	 M134.414,146.901c0.095-0.768-0.766-3.428-1.138-2.815c-0.099,0.162-0.44,0.913-0.872,1.304c-1.26,1.137-1.021,0.706,0.229,1.054
	C133.328,146.637,134.311,147.13,134.414,146.901z M124.731,141.215c3.701-2.161,5.113-5.245,3.196-7.296
	c-1.725-1.843-4.583-0.77-7.237,2.581c-1.218,1.536-0.303,1.344,1.338-0.118c1.911-1.702,4.343-0.88,4.329,1.244
	c-0.008,0.908-1.279,2.435-2.485,3.144c-0.374,0.22-0.429,0.558-0.296,0.777C123.719,141.784,124.019,141.631,124.731,141.215z
	 M131.219,138.961c-0.192-0.581-1.585-3.074-1.885-2.989c-0.315,0.64-0.338,1.48-0.717,2.158c-0.517,1.02-0.451,0.859,1.192,0.854
	C131.033,138.98,131.182,139.153,131.219,138.961z M120.341,136.142c3.109-3.251,3.384-7.058,0.471-7.934
	c-1.613-0.485-4.194,0.69-4.201,1.904c-0.008,0.755,0.136,0.893,0.79,0.621c2.747-1.029,4.925,1.632,2.401,4.691
	c-0.614,0.886-0.696,1.108-0.518,1.291C119.494,136.931,119.664,136.85,120.341,136.142z M153.849,108.342V21.979h-18.213
	l-14.454,22.945l-0.021,5.63c-0.001,0.194,0.328,0.315,0.541,0.071c0.821-0.641,0.504,0.031-0.44,1.48
	c-0.955,1.465-0.663,2.672,0.382,4.235c2.213,3.315,3.367,9.399,2.426,12.617c-0.356,1.214-0.436,1.705-0.203,2.384
	c0.266,0.777,0.429,1.192,1.196,1.693c0.669,0.469,6.166,2.629,15.021,8.365l-0.044-40.482l5.58-5.388l5.895,5.682l0.206,66.834
	C151.72,108.753,153.849,109.39,153.849,108.342L153.849,108.342z M150.641,41.402l-4.935-4.631l-4.879,4.563
	c-0.025,21.77,0.124,66.45,0.124,66.45l4.849,0.351c0,0,0.355-1.019-0.099-3.654c-0.681-3.954-0.639-8.783,0.456-16.127
	c0.682-4.507,0.008-8.414-1.03-12.528c-0.897-2.741-0.93-5.278-0.767-7.73c0.345-3.911,1.413-6.863,1.544-12.49
	c0.075-3.207-0.077-6.348,0.04-10.304c0.048-0.53,0.27-0.465,0.31,0.082c0.148,3.581,0.286,6.982,0.318,10.479
	c-0.106,4.547-1.21,9.227-1.331,13.389c-0.091,2.884-0.138,3.881,1.071,7.392c1.898,5.518,0.649,13.993,0.627,14.144
	c-0.805,5.431-1.392,12.377,1.326,17.574l2.633,0.236L150.641,41.402z M116.688,82.471c1.456-0.674,1.744-1.864,0.96-4.731
	c-0.14-0.512-0.3-1.119-0.354-1.352c-0.168-0.707-0.483-0.785-0.904-0.222c-0.252,0.336-0.02,0.414,0.366,1.99
	c0.585,2.382,0.245,3.17-0.634,3.165c-0.779-0.005-1.387-0.652-1.609-2.198c-0.075-0.527-0.187-0.888-0.313-1.099
	c-0.213-0.354-0.467-0.29-0.673,0.101c-0.267,0.506,0.233,2.591,0.898,3.602C115.146,82.745,115.643,82.954,116.688,82.471z
	 M116.291,80.331c0.31-0.587-0.074-2.03-0.275-2.977c-0.185-0.527-0.395-0.656-0.741-0.57c-0.517,0.127-0.491,0.696-0.304,1.633
	C115.351,80.324,115.557,80.564,116.291,80.331z M120.717,76.891c1.666-0.957,1.825-2.607,0.706-5.609
	c-0.459-1.23-1.03-2.098-1.346-2.106c-0.124,0.783-0.238,1.2-0.1,1.507c0.13,0.285,0.349,0.723,0.505,1.088
	c0.948,2.214,0.693,3.49-0.223,4.182C119.405,76.598,119.946,77.141,120.717,76.891z M66.19,75.736
	c3.908-0.842,7.433-7.17,9.651-12.812c2.022-5.685,4.172-11.931,4.512-17.14c0,0-1.478,0.069-1.658,0.377
	c-0.168,0.303-0.241,0.956-0.398,1.887c-1.019,4.792-1.828,8.431-3.605,12.935c-1.233,3.126-2.58,6.665-5.921,11.418
	c-1.098,1.329-2.354,2.152-3.932,2.374c-0.401,0.056-1.078-0.02-1.248,0.102c-0.3,0.213-0.03,0.696,0.743,0.891
	C65.025,75.942,65.729,75.828,66.19,75.736z M120.031,74.996c0.596-0.639,0.654-1.397-0.014-3.002
	c-0.188-0.449-0.273-0.704-0.496-0.642c-0.471,0.133-1.021,1.381-0.696,2.437C119.25,75.166,119.497,75.568,120.031,74.996z
	 M64.827,73.991c1.145-0.153,2.595-1.07,3.642-2.508c2.153-2.838,3.64-6.065,4.741-8.575c0.882-2.022,2.476-6.388,2.908-7.969
	c0.919-3.358,1.422-5.525,1.841-7.929c0.039-0.222,0.075-0.574,0.01-0.688c-0.453-0.125-1.447-0.051-1.752,0.258
	c-0.549,3.855-1.824,7.724-2.757,10.938c-1.571,5.469-6.054,14.218-8.497,14.63c-1.313,0.223-2.819-0.929-2.577-2.109
	c0.148-0.725,0.247-1.001,0.601-1.183c0.852-0.302,1.347,0.282,0.412,0.663c-1.082,0.948,0.866,2.398,2.063,1.386
	c2.029-1.718-0.951-5.006-3.391-3.494c-2.703,1.674-2.009,4.574-0.309,5.952C62.618,74.059,63.611,74.156,64.827,73.991z
	 M83.966,70.065c1.67-1.727,2.924-3.961,3.836-6.756c1.978-6.274,3.616-13.468,4.21-19.103c0,0-1.426-0.148-1.744,0.155
	c-0.224,0.214-0.009,0.418-0.616,4.536c-1.019,6.003-2.503,11.966-4.652,17.126c-0.88,2.087-1.13,2.343-1.751,3.427
	C82.38,70.982,82.701,71.372,83.966,70.065z M121.012,56.984c-0.154-0.081-0.142-0.028-0.207,0.018
	c-0.228,0.158-0.079,0.96,0.438,2.197c1.361,2.214,1.521,6.509,1.432,8.123c-0.027,0.485-0.076,0.763,0.068,1.194
	c0.146,0.423,0.398,0.914,0.807,0.09c0.447-3.18,0.096-6.51-1.114-9.205C122.008,58.442,121.59,57.506,121.012,56.984z
	 M122.061,66.362c0.238-0.855-0.203-4.249-0.749-5.441c-0.221-0.48-0.618-0.519-0.571,0.028c0.009,1.176-0.121,3.412,0,4.074
	c0.596,1.382,1.059,2.262,1.316,1.339H122.061z M118.979,52.653l-0.643,0.001c0.021,2.219-1.932,2.836-2.652,0.171l-0.578,0.135
	C115.874,56.722,119.35,54.997,118.979,52.653z M115.072,54.326c-0.334-0.984-0.195-1.345-1.043-0.901
	c-0.646,0.338-1.035,0.698-0.123,1.14C114.717,54.91,115.283,54.949,115.072,54.326z M119.966,53.76
	c0.269-0.547,0.236-1.039-0.168-1.042c-0.312-0.002-0.398,0.248-0.487,0.778C119.153,54.442,119.545,54.617,119.966,53.76z
	 M120.306,50.072c0.248-0.08,0.178-0.432,0.111-0.878c-1.06-1.482-3.679-1.028-4.619-0.734c-1.087,0.355-1.358,0.223-2.099-0.118
	c-0.611-0.114-0.697,0.035-0.846,0.329c-0.131,0.259-0.154,0.751-0.196,1.608c-0.036,0.725-0.011,1.061,0.24,0.834
	c0.97-0.877,2.092-1.973,3.729-2.041C118.612,48.99,120.308,50.104,120.306,50.072L120.306,50.072z M113.095,52.079
	c0,0.299,0.251,0.112,0.897-0.296c2.351-1.407,3.712-1.208,5.725-0.537c0.448,0.149,0.726-0.323,0.24-0.726
	C117.566,48.542,114.622,49.804,113.095,52.079z M121.613,42.965l12.752-21.248l-71.048-0.053l12.063,22.559
	C85.219,41.929,101.412,39,121.613,42.965z"/>
<path fill="#E2CF00" d="M58.603,209.181c1.505-2.263,8.958,1.768,9.352,3.364c4.411-3.498,9.767-3.753,14.076,0.626
	c4.431-4.881,9.175-4.548,14.11-1.72c-0.552-1.104,6.31-5.974,10.479-2.879l11.278,20.24l-72.25,0.234
	C49.916,222.592,53.697,214.881,58.603,209.181z M27.044,103.613c-0.393-1.095-1.978-12.339,2.044-12.619
	c6.501,2.904,14.8,13.293,18.645,19.642c4.766,7.867,9.58,25.957,6.921,25.167c-0.384-0.114,8.206,8.552,8.799,9.398
	c0.973,1.392-14.481,27.326-17.034,26.396c-0.771-0.281-5.918-3.378-5.918-3.378l0.148-8.653l0.125-17.46l-14.163-1.243l0.497-3.803
	c4.75,0.394,9.625,1.29,14.023,0.264c2.895-5.341,1.789-13.309-1.691-16.52c-1.842-1.129-3.58-0.769-5.449-0.529
	C26.407,119,30.336,106.122,27.044,103.613z M153.863,109.39l0.045,3.192c-4.992,1.097-13.815-3.165-16.487,3.7
	c0.331,7.415,1.979,10.74,3.131,12.979c0.865,2.011,6.937-0.283,9.074,1.745c6.135,7.61,4.688,17.743,4.741,26.874l-2.662,1.354
	c-18.393-10.933-32.517-44.895-34.473-54.563c-0.125-6.207,16.874-26.155,16.874-26.155l6.193,3.776
	c0.148,0.06-0.131,26.181-0.13,26.06C145.03,108.604,149.743,109.082,153.863,109.39z M117.393,85.516
	c-21.45,37.821-12.678,65.803,3.106,89.949c0,0-1.364,0.313-1.516,0.178c-3.456-3.099-5.871-2.556-7.639-2.584
	c-3.379-0.054-4.313,0.962-6.251,1.155c-4.951,0.495-4.549,0.621-8.748-0.973c-5.299-4.354-12.396-7.694-18.044-9.45
	c-4.528,0.41-11.432,2.566-14.043,0.82c18.162-33.782,15.441-55.408-3.36-90.817c1.559,0.463,1.801,1.931,2.969,2.292
	c3.864,1.505,9.189,0.935,12.382-0.47c5.071-2.327,10.49,3.927,26.07,10.808c1.271,0.66,2.875-0.383,4.277-0.669
	c2.873-0.586,5.335-1.825,7.479-1.1C114.764,84.889,117.393,85.516,117.393,85.516z M74.096,41.307
	c-0.924-1.734-10.382-19.867-10.382-19.867l70.345,0.427l-10.553,17.495c-0.996,0.949-5.954,3.596-11.011-2.397
	c-0.095,0.861-7.504,6.188-13.872-0.227c-3.832,3.511-7.741,5.544-14.189,1.593C84.29,39.432,79.261,44.374,74.096,41.307z"/>
<path fill="#D40000" d="M81.792,212.766c-6.815-6.441-13.911-0.627-13.748-0.259c-2.698-2.765-5.336-5.028-8.892-3.917l0.027-0.991
	c10.602,1.957,26.839,2.464,45.819-1.542l0.975,2.055c-5.091-1.824-7.714,0.638-9.97,3.512
	C87.834,206.48,85.841,210.992,81.792,212.766z M97.688,137.854l4.822-0.095c0.908,14.154,12.624,35.813,12.905,35.813
	c-0.815-1.143-8.551-0.241-8.493-0.097C102.67,162.022,98,150.581,97.688,137.854z M69.566,171.433c0,0-1.552-4.058-2.48-5.794
	c5.063-8.726,9.215-17.757,11.346-27.801l3.448,0.031C80.858,151.734,69.863,172.792,69.566,171.433z M131.597,169.576
	c7.595-13.832,6.284-33.77-15.263-44.787c0,0,0.563-14.614,2.164-14.647c0.361,0.113,9.752-0.122,9.752-0.122
	c2.461-6.094,6.42-13.465,11.951-18.441l0.139,16.335c-4.094,0.408-6.591,1.727-7.831,4.959l-5.673,1.274
	c0.417,16.41,6.535,31.571,24.677,45.189c-4.335,3.761-19.154,11.396-19.098,11.263L131.597,169.576z M40.689,159.266l0.16-17.01
	c2.752-0.601,4.92,0.205,7.191-4.772c0,0,3.813,1.826,5.079,2.5C49.557,146.419,46.48,153.296,40.689,159.266z M76.81,129.149
	l0.187-8.636l8.123,0.236c-0.689,2.929-0.905,5.856,0.016,8.785L76.81,129.149z M95.341,129.045c0.555-2.826,0.95-5.668-0.2-8.666
	l8.796,0.151l-0.207,8.601L95.341,129.045z M78.614,112.158C77.15,95.221,65.653,76.049,65.492,76.457
	c1.354,0.219,3.739,0.896,5.053,0.269c1.59,0.267,2.967,0.085,3.042-0.063c0.106-0.592,10.688,24.593,9.275,35.457
	C82.694,112.486,78.959,112.511,78.614,112.158z M98.943,112.307c1.241-7.824,4.445-22.138,12.012-33.745
	c0.86,2.061,1.582,4.18,2.762,6.106c-5.705,8.379-9.221,17.956-11.354,27.732L98.943,112.307z M46.351,108.089
	c-3.462-7.13-17.864-18.354-17.128-17.22c5.962-5.395,12.611-8.821,19.248-12.283c0,0,1.18,1.131,1.002,1.416
	c-4.081,6.492-6.06,20.247-2.108,28.13c3.796,8.421,10.531,13.398,17.397,17.307c-0.531,5.265-0.791,9.07-2.073,14.305
	c0,0-4.314-2.291-7.851-3.766C54.275,126.036,52.237,117.144,46.351,108.089z M84.496,38.225c5.076,3.125,9.623,2.795,14.03-1.444
	c5.533,5.068,11.517,2.708,14.046,0.423c2.34,2.661,5.389,4.138,9.847,3.259l-1.104,2.34c0.264-1.243-30.747-3.273-45.752,0.968
	c0,0-0.877-1.766-0.779-1.78C76.09,41.909,80.436,43.534,84.496,38.225z"/>
<path d="M62.682,20.877l12.535,23.575c0,0,0.367-0.067,0.551-0.104c17.375-3.428,31.135-3.897,45.915-1.272l13.139-21.948
	C110.909,20.853,62.682,20.877,62.682,20.877z M64.079,21.881l69.706,0.078l-3.921,6.493c-2.349-0.731-3.657,0.355-3.985,2.627
	c0,0-0.291-0.126-0.835-0.186c-3.436-0.375-3.869,4.196-0.663,4.748c0.819,0.141,0.958-0.023,0.958-0.023
	c-2.86,2.427-4.485,0.789-5.831-0.012c-0.037,0.283-2.564,2.201-4.947-0.093c3.413,0.344,3.944-3.109,2.313-4.423
	c-0.342-0.339-0.689-0.604-0.689-0.604c0.804-0.706,0.979-1.646,0.464-2.721c-1.035-2.161-4.278-2.035-4.774,0.325
	c-0.193,0.919-0.199,1.08-0.199,1.08c-2.619,0.172-3.151,2.669-2.252,4.055c0.512,0.788,1.638,0.959,2.677,0.906
	c-1.4,2.003-4.606,1.321-6.034-0.329c-2.269,2.692-4.854,2.364-6.145,0.921c0.876-0.01,1.48-0.022,2.285-0.774
	c1.377-1.285,0.7-3.564-1.244-4.202c-0.377-0.124-0.648-0.149-0.67-0.15c0.014-0.02,0.051-0.146,0.134-0.832
	c0.483-3.976-5.413-3.583-4.843,0.328c0.066,0.454,0.188,0.697,0.188,0.697s-0.626-0.035-0.984,0.131
	c-3.274,1.525-1.019,5.724,1.513,4.644c0.24-0.103,0.893-0.426,0.987-0.422c-3.135,3.925-5.766,1.144-6.459,0.716
	c-2.117,3.172-5.794,1.008-5.869,0.786c0.229,0.064,0.918-0.079,1.573-0.418c2.071-1.091,1.485-3.897-0.13-4.508
	c-0.495-0.175-1.094-0.193-1.766-0.14c0,0,0.052-0.707-0.015-0.956c-1.019-3.821-5.726-1.913-4.568,1.315
	c0.102,0.284,0.376,0.569,0.376,0.569s-0.639,0.392-0.923,0.65c-2.247,2.041,0.04,5.409,2.665,4.009
	c0.338-0.181,0.667-0.561,0.762-0.538c-1.235,2.278-3.109,3.074-5.781,1.188c-1.648,2.64-4.338,1.543-5.097,0.221
	c2.513,0.232,4.145-4.632-0.686-4.79c-0.375-1.321-0.356-3.334-3.419-2.987L64.079,21.881z M98.12,30.228
	c0.554,0,0.999,0.455,0.999,1.015c0,0.559-0.445,1.014-0.999,1.014c-0.553,0-1.003-0.455-1.003-1.014
	C97.117,30.683,97.567,30.228,98.12,30.228z M113.695,30.348c0.586,0,1.061,0.483,1.061,1.076c0,0.592-0.475,1.071-1.061,1.071
	s-1.061-0.479-1.061-1.071C112.635,30.831,113.109,30.348,113.695,30.348z M83.165,31.521c0.565,0,1.022,0.462,1.022,1.033
	s-0.457,1.037-1.022,1.037s-1.026-0.466-1.026-1.037S82.6,31.521,83.165,31.521z M126.9,32.793l-0.888,1.595
	C125.032,33.52,125.708,32.382,126.9,32.793z M70.971,34.991l-0.883-1.648C71.668,33.451,71.202,34.595,70.971,34.991z
	 M97.99,34.094c5.981,6.889,11.347,4.851,14.855,0.271c1.504,3.904,4.857,6.604,10.628,3.979c-0.349,0.624-1.225,1.726-1.225,1.726
	c-5.101,1.389-7.632-1.037-9.599-3.348c-5.188,4.354-10.074,3.298-14.105-0.541c-3.44,4.378-9.013,5.318-14.17,1.745
	c-2.357,3.517-5.74,4.937-9.993,3.177c0,0-0.902-1.434-0.979-1.524c0.615,0.522,8.448,3.808,10.36-4.095
	C86.489,40.159,95.429,40.407,97.99,34.094z M98.591,36.926c6.729,6.359,13.791,0.86,13.972,0.473
	c0.105,0.354,3.945,4.988,9.483,3.246l-0.899,1.56c-10.42-1.781-20.005-2.926-41.956,0.337c0,0,3.504-1.049,5.276-3.874
	C85.453,39.314,93.068,43.61,98.591,36.926z M75.006,42.196c0,0,2.93,0.348,3.159,0.406c0.257,0.202-2.467,0.957-2.478,0.901
	L75.006,42.196z M80.944,72.537c-0.177,0.006-0.398,0.208-0.766,0.573c-0.795,0.79-0.976,0.895-1.746,1.006
	c-0.581,0.085-1.81,0.799-2.554,1.486c-0.201,0.186-0.586,0.341-1.045,0.422c-0.399,0.07-0.949,0.165-1.222,0.213
	c-0.272,0.047-0.568,0.134-0.658,0.189c-0.392,0.24-1.028,0.277-1.742,0.104c-0.688-0.167-0.8-0.163-1.559,0.073
	c-1.105,0.344-1.829,0.345-2.374,0c-0.544-0.345-1.408-0.473-1.956-0.294c-0.812,0.265-2.911-1.006-2.906-1.757
	c0-0.171-1.193-1.074-1.493-1.076c-1.064-0.159-10.416,3.572-10.368,3.789c11.483,14.333,21.149,36.172,13.868,62.896l-1.287-0.623
	c1.081-4.857,1.51-9.746,1.842-14.712c-21.553-9.404-23.408-31.274-15.043-45.08l-1.42-1.529c-5.07,2.734-10.221,4.286-22.751,14.91
	l0.034,17.196c0.031,15.546,0.023,30.693,0.023,30.693c4.535,0.507,9.528,0.922,14.453,1.35c0,0-0.063,15.375-0.176,21.388
	c-0.096,5.086,0.092,4.767,0.092,4.767l16.311,8.691c-1.146-4.578,1.683-6.396,4.051-6.206c-1.047-4.413,1.552-6.434,4.518-5.867
	c2.004,0.383,2.705,1.5,3.853,5.189c0.187,0.6,0.442,1.401,0.442,1.401l1.143-0.042c1.432-3.105,2.387-7.058,5.754-7.569
	c4.406-0.671,6.047,2.389,6.045,5.448c4.27-3.803,9.384-0.859,9.051,4.82c2.148-1.396,5.789-2.657,8.082,2.725
	c0.862-0.184,1.301-1.155,2.514-1.459c0.453-0.096,1.482-0.653,1.482-0.653l0.012-0.187c0,0,0.953-0.334,2.231-0.545
	c1.097,0.413,0.776,0.399,1.368-0.337c0.658-0.342,1.725-0.566,2.549-0.491c0.863,0.078,1.248,0.141,1.754-0.081
	c0.788-0.349,1.524-0.437,1.99,0.089c0.336,0.377,0.82,0.195,1.341,0.174c1.04-0.042,2.427,0.39,2.86,1.335
	c0.637,0.657,2.033,1.323,2.033,1.323l1.129-0.263l0.13-0.422l9.239-3.564c-18.839-20.848-18.348-48.505-13.91-62.505l1.704,0.828
	c-0.903,4.149-1.929,8.411-1.796,14.597c16.965,7.645,25.404,27.403,15.119,44.65l1.088,1.42
	c4.278-1.814,15.041-7.922,18.761-11.241l0.793,0.066c0,0,2.255-1.477,3.25-2.264l0.134-45.77l-0.788,0.209l-0.142-2.674
	l-13.986-1.122c0.178-0.135,0.312-0.189,0.352-0.457l-0.08-25.338c-0.52-0.803-12.234-7.737-16.59-9.36
	c-0.175,0-0.055,0.297,0.008,1.022c0.214,2.485-1.446,4.697-3.369,4.701c-0.692,0.002-0.813,0.299-0.777,1.726
	c0.049,2.029-0.677,3.393-2.791,4.164c-2.507,0.914-4.203-0.411-5.598-5.623c-0.367-1.368-1.083-1.026-1.77,0.844
	c-0.34,0.928-1.443,3.181-2.102,4.369c-0.508,0.912-1.311,1.317-2.4,1.803c-0.851,0.425-2.691,0.352-3.752-0.193
	c-1.924-0.987-2.67-2.174-3.225-5.111c-0.072-0.385-0.321-0.352-0.945,0.123c-3.396,2.586-8.172-0.087-8.144-4.558
	c0.008-1.313-0.045-1.365-0.808-0.735c-2.303,1.9-5.433,0.937-6.686-2.059C81.33,72.843,81.174,72.53,80.944,72.537L80.944,72.537z
	 M61.426,74.124c0.24-0.011,0.987,0.995,0.987,0.995c0.69,0.771,1.616,1.16,2.581,1.733c0.09-0.137,11.243,14.992,13.14,35.851
	l5.188,0.027c-0.968-20.268-6.499-30.01-9.036-36.262l1.86-0.596c4.173,8.08,9.259,24.479,9.09,38.835h-8.568
	c-1.21-14.38-6.743-28.4-14.48-39.036c-0.539-0.816-0.961-1.387-0.805-1.532L61.426,74.124z M58.145,76.264l0.869,2.756
	c0,0,0.104-0.644,0.371-0.887c1.693-1.542,3.313,0.488,2.55,3.243c-0.175,0.848-0.513,2.519-0.513,2.519s-1.701-0.882-2.558-1.164
	c-2.361-1.014-3.147-3.013-1.344-3.239c0.302-0.038,0.923-0.065,0.923-0.065c-0.75-0.596-2.405-1.958-2.405-1.958L58.145,76.264z
	 M66.07,76.573c0.713,0.409,2.553,0.851,3.61,0.449c0.854-0.324,1.504-0.146,2.393-0.069c0.51,0.044,1.524-0.183,1.524-0.183
	c5.072,10.786,8.562,23.583,9.143,35.287l-3.989,0.022c-1.507-12.433-6.268-25.063-12.31-34.431
	C66.174,77.241,65.818,76.589,66.07,76.573z M82.736,76.76c1.545,0.019,3.161,1.574,4.039,4.121
	c0.489,1.418,0.681,1.332,1.337,1.103c1.685-0.584,3.479,1.286,1.222,1.598c-2.217,0.37-0.952,4.753-1.142,5.139
	c-0.898,0.159-2.586-3.565-2.542-4.674c0.107-2.717-2.417-4.988-3.986-3.847c-0.743,0.541-0.662,0.923-0.892,0.728
	c-0.706-0.6-0.849-2.252-0.023-3.188C81.347,77.062,82.034,76.751,82.736,76.76z M128.628,77.695c0,0,0.087,3.572-0.046,4.361
	c-0.264,2.381-3.341,2.632-3.461,0.728c-0.503,0.761-0.849,1.707-1.049,2.558l-2.183-1.517c0.829-0.602,1.619-1.129,2.232-1.873
	c-1.618,0.124-2.522-1.291-1.44-2.496C123.885,78.076,127.21,77.928,128.628,77.695z M48.385,78.826l0.965,1.099
	c-8.6,15.405-5.567,35.098,15.188,45.444c-0.137,4.726-0.736,9.506-1.853,13.941l-7.658-3.753
	c0.052-17.418-9.706-34.022-25.284-44.938C35.396,86.03,41.648,81.998,48.385,78.826L48.385,78.826z M111.084,78.957
	c0.365,2.034,2.271,5.718,2.408,5.507c-0.02-0.121-7.93,10.239-11.367,27.566l-2.937,0.012
	C101.113,100.496,104.955,89.602,111.084,78.957z M135.462,79.441l1.563,0.955c-8.196,6.936-13.595,15.729-17.559,25.21l-2.071-0.99
	C123.541,90.861,129.614,84.753,135.462,79.441z M137.648,80.978c0.429,0.027,0.938,0.576,1.727,1.014
	c0.771,0.428,0.579,0.654-0.873,1.779c-1.718,1.331-1.879,1.272-1.865-0.626c0.01-1.26,0.325-2.1,0.927-2.164L137.648,80.978
	L137.648,80.978z M135.761,82.936l0.21,0.101c0.126,0.502,0.113,1.653-0.088,2.79c-0.162,0.747-2.365,2.627-3.15,3.37
	c-0.315,0.209-0.459,0.133-0.518-0.24c0.025-0.59,0.082-1.375,0.093-2.175c0-0.246-0.048-0.504,0.172-0.692
	C133.56,84.801,135.131,82.969,135.761,82.936z M139.854,83.547l0.03,0.008c0.204,0.123,0.17,2.705,0.027,2.875
	c-0.639,0.167-2.357-0.106-2.799-0.345C137.016,85.785,139.441,83.529,139.854,83.547z M63.076,84.383l0.597,2.53l0.215-0.406
	c1.187-1.835,2.631-0.759,2.607,1.788c-0.008,0.804-0.731,4.02-0.731,4.02s-4.455-2.162-4.805-3.11
	c-0.345-0.934,0.145-1.755,0.965-1.831c0.307-0.035,0.628-0.061,0.979,0l-1.914-1.977L63.076,84.383z M114.082,84.719l2.021,0.755
	c-4.215,6.931-8.566,13.776-11.734,29.39h-8.473c1.185-9.542,3.586-18.922,7.871-28.051c0,0,1.664-0.517,2.604-0.824
	c0,0-7.003,16.194-7.818,26.607l4.094,0.089C104.83,102.538,108.918,92.021,114.082,84.719z M98.04,84.971
	c1.139-0.043,1.979,0.766,1.914,2.201c-0.015,1.313-0.133,1.504-1.053,0.979c-1.207-0.688-2.161-0.704-3.243,0.077
	c-0.595,0.43-1.179,0.785-1.179,0.785s0.521-2.28,1.32-2.998C96.565,85.327,97.356,84.996,98.04,84.971z M93.694,88.345
	c-0.082,0.771-0.308,1.125-0.509,1.784c0,0,0.662-0.261,0.979-0.41c1.506-0.71,3.075,0.604,3.052,2.144
	c0.068,1.026-1.036,2.257-2.352,2.268c-0.458,0.004-0.943-0.143-1.412-0.495c0.34,1.881,0.407,2.751-0.953,3.695
	c-1.14,0.766-3.539-0.109-3.404-2.214l0.084-1.296l-1.152,0.15c-3.219,0.134-3.275-3.871-0.678-4.5
	c1.037-0.248,2.164,0.611,2.164,0.611c-0.494-0.981-0.504-2.671,0.16-3.451C91.309,84.71,93.896,86.456,93.694,88.345z
	 M121.801,85.845c0.176,1.499,0.766,3.133,0.598,4.531c-0.251,1.788-1.755,2.847-2.938,1.688c-0.146-0.144-0.409-0.441-0.409-0.441
	c-0.532,0.683-0.865,2.612-0.865,2.612l-2.087-1.301c0,0,1.449-1.027,1.85-1.613c0.111-0.163,0.164-0.472,0.164-0.472
	c-1.16,0.366-2.146-0.834-1.83-1.893C116.912,87.222,120.035,86.578,121.801,85.845z M136.385,86.929
	c0.781-0.024,1.99,0.199,2.944,0.302c0.734,0.129,0.327,0.548-1.317,2.167c-1.51,1.487-1.463,1.347-2.627,1.327
	c-2.718-0.047-3.193,0.016-1.611-1.711c0.829-0.904,1.553-1.721,2.147-2.023C136.047,86.953,136.204,86.935,136.385,86.929z
	 M131.484,87.242l0.088,0.038c0.18,0.17,0.119,0.944,0.1,2.09c-0.021,1.219-0.008,1.22-0.514,1.857
	c-0.643,0.814-1.178,1.646-1.849,2.43c-0.582,0.638-0.563,0.57-0.911-0.963c-0.338-1.487-0.15-1.95,1.745-4.105
	C130.785,87.757,131.242,87.23,131.484,87.242z M139.973,88.09l0.022,3.014c-5.608,5.543-9.419,11.777-12.011,18.647l-1.952-0.785
	C129.415,100.188,134.479,93.341,139.973,88.09z M91.354,89.912c-0.927,0-1.677,0.758-1.677,1.694c0,0.938,0.75,1.699,1.677,1.699
	s1.681-0.762,1.681-1.699C93.035,90.67,92.281,89.912,91.354,89.912z M91.344,90.446c0.64,0,1.16,0.525,1.16,1.172
	c0,0.647-0.521,1.173-1.16,1.173c-0.641,0-1.156-0.525-1.156-1.173C90.188,90.972,90.704,90.446,91.344,90.446z M29.035,91.162
	c17.494,11.344,25.338,28.929,25.304,44.035l-0.988-0.449c-1.023-21.346-12.504-34.471-24.913-42.963L29.035,91.162z
	 M132.609,91.324c0.396,0.002,0.936,0.063,1.716,0.155c1.448,0.077,1.626,0.17,0.628,1.327c-0.273,0.316-0.798,0.979-1.168,1.478
	s-0.82,1.02-1.026,1.092c-0.305,0.105-2.847-0.016-3.572-0.116c-0.237-0.033,0.074-0.278,1.313-2.066
	c0.949-1.371,1.05-1.824,1.949-1.865L132.609,91.324z M139.896,91.904c0,0,0.348,9.73,0.096,15.936
	c-3.99-0.149-6.335,1.382-7.309,4.279l-4.192-2.098C131.566,102.037,135.68,96.48,139.896,91.904z M127.544,92.129
	c0.227,0.004,0.356,0.478,0.422,1.412c0.264,1.673,0.234,1.868-0.456,2.941c-0.344,0.534-0.815,1.289-1.045,1.68
	c-0.4,0.681-0.686,0.883-0.785,0.553c-0.546-1.805-0.719-2.921-0.524-3.285c0.318-0.598,1.808-2.736,2.018-3.015
	C127.318,92.223,127.441,92.128,127.544,92.129z M27.748,92.311c14.063,8.8,24.351,23.829,24.775,41.985
	c0,0-2.996-1.422-4.847-2.461l-0.096-1.765l0.976-0.031l0.314,1.989l2.147-0.07l-0.57-4.964l-3.361,0.321l-0.678-2.813l1.019-0.221
	l0.563,1.814l2.187-0.584l-1.164-4.423l-3.377,0.933l-1.079-2.987l1.121-0.406l0.908,1.788l2.056-0.724l-1.941-4.435l-3.104,1.481
	l-1.578-2.895l1.214-0.653l0.977,1.722l1.922-1.006l-2.378-4.079l-2.948,1.664l-1.481-2.244l0.915-0.646l1.011,1.181l1.688-1.208
	l-2.589-3.517l-2.821,2.232l-2.087-2.441l0.961-0.824l1.437,1.3l1.604-1.416l-3.074-3.39l-2.688,2.477l-2.002-1.757l0.979-1.096
	l1.248,0.964l1.329-1.591l-3.347-2.785l-2.508,2.507l-2.404-1.605v-1.196c0.781,0.305,1.607,0.659,2.348,1.057l1.244-1.903
	l-3.592-2.45L27.748,92.311z M66.912,93.062l0.532,3.104c0.505-0.844,0.907-1.425,1.999-1.099c1.312,0.54,1.329,2.536,0.218,5.591
	c-0.206,0.566-0.46,1.057-0.46,1.057s-0.574-0.241-0.957-0.507c-0.802-0.555-2.153-1.182-2.844-2.283
	c-0.724-1.152-0.74-2.765,0.589-2.627c0.265,0.001,0.785,0.127,0.785,0.127l-1.995-2.568L66.912,93.062z M26.975,93.986l2.436,1.587
	l-0.506,0.929l-1.93-0.879V93.986z M88.023,94.718c0.706,0.997-1.776,3.935,1.471,5.108c0,0,0.08,0.676-0.598,1.087
	c-1.588,1.168-3.87-0.964-3.162-3.157C86.188,96.353,87.496,94.726,88.023,94.718z M94.763,94.811c0,0,0.979,0.724,1.175,0.913
	c1.809,1.753,1.826,4.265,0.188,5.143c-1.09,0.585-2.321,0.114-2.749-0.734c-0.198-0.394,0.127-0.804,0.543-0.802
	c0.78,0.005,1.376-1.505,1.146-3.096C94.974,95.604,94.763,94.811,94.763,94.811z M116.096,95.396c0,0,0.216,2.147,0.525,3.099
	c0.949,2.67-0.264,4.296-2.037,3.401c-0.254-0.127-0.701-0.708-0.701-0.708l-0.176,3.068l-2.523-0.742
	c0.547-0.887,1.332-1.518,1.918-2.516c0,0-0.377-0.014-0.708-0.016c-1.507,0.053-2.063-1.636-0.482-3.025
	C113.089,96.931,116.096,95.396,116.096,95.396z M129.286,96.107c0.306-0.003,0.687,0.022,1.21,0.022
	c1.601,0.002,2.012-0.218,1.306,0.79c-0.275,0.393-0.946,1.485-1.145,1.857c-0.403,0.755-0.484,0.992-1.156,1.142
	c-0.974,0.194-2.077,0.06-3.189,0.112c-0.241-0.013,0.255-0.851,0.532-1.37c0.68-1.275,1.094-2.15,1.677-2.419
	C128.75,96.137,128.981,96.109,129.286,96.107z M124.34,97.094c0.193-0.01,0.336,0.34,0.521,1.064
	c0.43,1.689,0.54,1.731-0.153,3.118c-0.35,0.7-0.945,1.886-1.19,2.376c-0.629,1.259-0.665,1.246-1.061,0.12
	c-0.76-2.16-0.826-1.938,0.429-4.364C123.668,97.893,124.057,97.109,124.34,97.094z M32.06,97.686l2.263,1.834l-0.644,0.631
	l-1.252-0.933l-1.849,2.001l3.039,2.802l2.574-2.562l2.205,2.329l-0.674,0.576l-1.295-1.261l-1.938,1.672l2.891,3.451l2.914-2.244
	l1.826,2.418l-0.746,0.473l-1.191-1.169l-1.895,1.327l2.358,3.359l2.972-1.723l1.688,2.806l-0.938,0.457l-0.957-1.54l-2.133,1.242
	l2.014,3.927l3.209-1.354l1.289,2.999l-0.979,0.402l-0.823-1.803l-2.159,0.863l1.447,4.124l3.255-0.943l0.788,3.064l-1.003,0.282
	l-0.494-1.698l-2.071,0.503l0.865,4.141l3.312-0.213l0.395,3.347l-1.029,0.047l-0.257-1.997l-2.11,0.027
	c0.012,0.704,0.092,2.14,0.092,2.14l-1.274-0.596c-1.895-12.728-8.649-23.335-18.715-30.721l-0.054-1.521l2.45,1.571
	C29.425,100.225,31.672,98.201,32.06,97.686z M128.731,100.654c0.702-0.006,0.392,0.544-0.464,2.189
	c-0.953,1.836-1.123,1.874-2.91,2.314c-2.172,0.535-2.108,0.655-0.934-1.877c0.453-0.977,0.783-1.831,1.198-2.155
	c0.545-0.426,1.6-0.263,2.745-0.438C128.51,100.667,128.631,100.654,128.731,100.654L128.731,100.654z M27.094,101.195
	c10.452,6.815,17.06,20.912,17.88,29.459c0,0-0.282-0.191-0.854-0.456c-0.792-0.368-0.987-0.608-1.218-1.772
	c-2.07-10.451-7.908-19.32-15.763-25.582L27.094,101.195z M121.354,102.94c0.442-0.093,1.248,3.115,1.007,3.788
	c-0.173,0.484-1.728-0.658-2.294-0.901C119.784,105.706,121.055,103.004,121.354,102.94z M70.948,103.088l-0.05,3.328
	c0,0,0.396-0.477,0.601-0.627c0.778-0.573,1.966,0.221,2.011,1.203c0.063,1.362-0.142,1.915-1.222,3.808
	c-0.334,0.585-0.839,1.331-0.839,1.331s-1.274-0.918-2.668-2.321c-1.507-1.517-1.219-3.542,0.1-3.549
	c0.395-0.003,0.746,0.133,1.091,0.244c-0.284-0.98-1.344-2.883-1.344-2.883L70.948,103.088z M111.805,105.58
	c0,0,0.682,0.908,1.467,3.297c0.748,2.281-0.404,3.998-1.969,3.138c-0.28-0.154-0.574-0.487-0.574-0.487
	c-0.109,1.105,0.085,3.095,0.111,3.111l-2.523-0.445c0,0,1.386-2.225,1.485-2.774c0,0-0.156,0.124-0.85,0.124
	c-2.535-0.002-2.01-3.05,0.919-4.74C110.311,106.549,111.805,105.58,111.805,105.58z M126.338,105.618
	c0.549-0.024,0.29,0.513-0.317,1.765c-0.671,1.386-0.503,1.266-1.922,0.534c-1.984-0.979-1.867-1.133,0.647-1.818
	C125.54,105.802,126.051,105.632,126.338,105.618z M90.355,106.024c1.987,0.013,3.453,1.994,3.159,4.811
	c-0.505,4.834-0.215,4.536,0.307,5.019c0.948,0.879-0.336,1.406-1.467,0.568c-0.787-0.583-1.044-1.159-1.007-3.826
	c0.042-3.066-0.121-3.848-1.206-3.58c-0.677,0.168-0.891,0.749-0.815,2.817c0.105,2.902-0.085,3.633-1.176,4.563
	c-1.176,0.919-2.444,0.1-1.37-0.507c0.491-0.559,0.583-1.269,0.394-3.022C86.967,111.372,86.105,105.999,90.355,106.024z
	 M140.236,108.471c3.824,0.145,13.493,0.939,13.493,0.939l0.084,2.887c-0.432,0.27-7.647-0.843-12.956-0.742
	c-1.241,0.023-2.12,0.577-3.018,0.112c0.861,0.36,0.783,4.715-3.014,3.66c-3.219-1.17-1.65-5.568,2.466-6.679
	C138.353,108.501,139.267,108.455,140.236,108.471z M118.206,110.397l8.263,4.117c1.156,15.677,6.512,32.239,24.749,44.794
	c-2.954,2.137-10.366,7.384-18.838,10.978l-0.692-0.75c10.058-17.287,2.459-36.314-15.154-44.926
	C116.58,119.813,117.178,115.079,118.206,110.397z M147.271,113.024c1.584-0.063,1.996,0.122,2.132,0.848
	c0.129,0.686,0.633,0.847,1.229,0.627c1.454-0.535,2.342,2.071,1.138,3.228c-0.748,0.718-0.617,0.994,0,0.998
	c1.518,0.01,1.474,2.019-0.069,3.157c-0.641,0.473-0.632,0.688,0.038,1.022c1.123,0.56,0.896,1.666-0.527,2.576
	c-0.775,0.496-0.801,0.617-0.161,0.794c1.611,0.443-0.033,2.764-1.796,2.353c-0.723-0.169-1.411-0.011-2.102,0.445
	c-1.889,0.795-2.205,0.952-4.242,0.696c-1.79-0.332-2.59-0.928-3.052-2.516c-1.05-3.229-2.182-6.806-2.194-10.331
	c-0.158-2.165,3.432-4.122,5.132-4.206c1.386-0.211,2.974,0.295,4.479,0.309H147.271z M34.258,113.079
	c1.898,0,3.438,1.556,3.438,3.475s-1.539,3.475-3.438,3.475c-1.899,0-3.438-1.556-3.438-3.475S32.358,113.079,34.258,113.079z
	 M72.468,114.101l-0.31,3.037c0,0,0.505-0.398,0.624-0.499c0.894-0.755,2.308,0.09,1.987,1.266
	c-0.105,1.036-1.876,4.117-2.581,4.764c0,0-2.84-3.127-3.144-3.738c-0.675-1.359,0.247-2.775,1.475-2.175
	c0.175,0.086,0.682,0.465,0.682,0.465l-0.9-2.883L72.468,114.101z M34.486,114.345c-1.215,0.041-2.368,0.795-2.213,1.799
	c0.104,0.429,0.752-0.19,1.391-0.596c0.488-0.311,1.077-0.36,1.635-0.116c0.494,0.178,0.705,0.638,0.991,0.994
	c0.243,0.301,0.509,0.547,0.659,0.398c0.127-0.159,0.076-0.358,0.042-0.537C36.729,114.919,35.609,114.311,34.486,114.345
	L34.486,114.345z M127.077,114.816l1.229,0.635c1.654,22.154,12.738,35.179,24.385,42.937l-0.926,0.564
	C137.473,149.698,127.549,133.118,127.077,114.816z M128.938,115.726c0,0,3.086,1.597,4.702,2.333l0.062,2.005l-1.08,0.039
	l-0.367-1.885l-2.244,0.162l0.701,4.636l3.618-0.448l0.505,2.802l-1.225,0.259l-0.628-1.722l-2.075,0.511l1.344,4.504l3.262-1.064
	l1.022,2.945l-1.095,0.402l-0.701-1.726l-2.147,0.758l1.662,4.396l3.396-1.104l1.371,2.752l-1.03,0.46l-0.983-1.706l-2.037,1.052
	l2.389,4.106l3.067-1.626l1.432,2.194l-1.126,0.763l-1.021-1.343l-1.65,1.099l2.642,3.646l2.642-2.001l1.976,2.303l-0.873,0.781
	l-1.348-1.382l-1.597,1.44l3.147,3.49l2.733-2.399l1.941,1.826l-0.574,0.611l-1.306-0.824l-1.73,1.857l3.304,2.906l2.623-2.906
	l2.225,1.656v1.223l-1.987-1.018l-1.332,2.027l3.319,2.539l-0.023,0.998C134.89,146.629,129.903,128.907,128.938,115.726z
	 M90.142,115.946c0.819-0.025,1.684,0.754,3.112,2.426c3.994,4.676,2.928,11.908-2.293,15.68c-0.761,0.55-1.066,0.501-1.994-0.306
	c-5.355-4.649-5.664-10.868-0.896-16.329C88.895,116.473,89.505,115.966,90.142,115.946z M109.281,116.589
	c0.984,1.525,2.229,3.095,2.37,4.949c-0.07,1.832-1.293,2.169-2.558,1.103c-0.16,0.962,0.383,2.836,0.383,2.836l-2.29-0.247
	c0,0,0.898-1.586,0.935-2.577c-1.59,1.119-2.805-0.34-2.588-1.517C105.987,119.134,107.615,117.784,109.281,116.589z M90.21,117.784
	c-0.188,0.016-0.383,0.146-0.681,0.387c-1.396,1.131-2.491,2.537-3.06,3.998c-1.2,3.082-0.417,6.556,2.29,9.252
	c1.375,1.369,1.858,1.275,3.966-1.556c1.766-2.371,2.133-5.435,1.046-8.096c-0.531-1.298-1.492-2.563-2.646-3.482
	C90.683,117.935,90.451,117.765,90.21,117.784L90.21,117.784z M134.256,118.354l1.777,0.882
	c2.266,15.108,9.613,24.326,17.846,30.682l-0.016,1.401l-2.209-1.73l-2.646,2.798l-2.144-1.776l0.804-0.789l1.222,0.785l1.562-1.768
	l-3.074-2.771l-2.68,2.35l-2.232-2.322l0.678-0.572l1.543,1.362l1.727-1.548l-2.986-3.387l-2.672,2.048l-1.865-2.5l0.812-0.487
	l0.977,1.354l2.06-1.296l-2.178-3.386l-3.105,1.609l-1.589-2.895l0.903-0.437l1.03,1.625l1.934-0.94l-1.945-3.993l-3.174,1.06
	l-1.168-3.142l0.907-0.337l0.801,1.857l2.147-0.696l-1.459-4.299l-3.281,0.937l-0.812-3.162l1.015-0.221l0.532,1.707l2.256-0.457
	l-0.827-4.094l-3.358,0.43c-0.111-0.695-0.606-2.569-0.597-3.277l1.033-0.085l0.325,1.803l2.26-0.077L134.256,118.354z
	 M90.329,118.682c1.231,0.171,2.734,2.566,3.074,3.437c0.648,1.721,0.703,3.714,0.111,5.259c-0.484,1.264-1.933,3.505-2.853,4.137
	c-0.742,0.406-1.363,0.104-2.424-1.351c-2.094-2.877-2.499-6.337-0.846-8.706C88.655,119.646,89.592,118.681,90.329,118.682z
	 M136.638,119.429l0.892,0.426c1.096,8.755,6.229,20.77,16.334,27.958v1.099C146.005,143.211,138.791,133.38,136.638,119.429z
	 M90.172,120.025c-3.519,2.68-2.955,6.877-0.29,9.704C92.753,127.809,93.769,122.622,90.172,120.025z M36.475,120.203
	c1.984-0.047,3.242,0.652,3.848,2.043c0.938,2.16,1.066,2.569,1.26,3.703c0.109,0.647,0.28,1.625,0.375,2.171
	c1.03,5.869,0.271,8.081-3.255,8.996c-1.052,0.273-2.52,0.362-3.546,0.112c-0.269-0.065-1.254-0.071-2.029-0.097
	c-1.537-0.05-2.007-0.215-2.779-0.847c-0.278-0.229-0.546-0.411-0.881-0.465c-1.759-0.281-2.284-1.91-0.949-3.115
	c0.761-0.686,0.836-0.776,0.766-0.894c-0.04-0.065-0.364-0.122-0.724-0.124c-1.773-0.011-1.755-1.855,0.03-3.173
	c0.85-0.626,1.232-1.217,0.67-1.072c-1.617,0.386-2.188-2.003-0.497-2.744c0.9-0.509,1.546-0.935,0.678-0.981
	c-0.729,0.063-1.323-0.48-1.1-1.122c0.271-0.776,1.75-1.483,2.604-1.22c0.666,0.207,1.316,0.396,1.734,0.093
	c1.012-0.734,1.464-1.065,2.335-1.184C35.52,120.216,36.049,120.201,36.475,120.203L36.475,120.203z M95.464,120.651l8.155,0.159
	l-0.242,8.083l-7.68-0.146C95.697,128.747,97.381,125.136,95.464,120.651z M77.189,120.838L85,120.935
	c-1.287,3.046-0.807,6.177-0.334,7.939l-7.646-0.119L77.189,120.838z M90.233,120.85c2.099,1.235,2.676,5.735-0.239,8.049
	C87.22,126.017,87.775,122.508,90.233,120.85z M70.963,124.362l2.095,0.197l-0.746,3.03c0,0,0.337-0.359,0.447-0.395
	c2.69-1.277,2.884,1.616,0.146,4.229c-0.605,0.575-1.577,1.365-1.577,1.365s-0.762-1.164-1.366-2.217
	c-0.688-1.059-1.156-2.192-1.038-2.794c0.171-0.873,1.21-1.45,1.872-0.917c0.326,0.263,0.705,0.662,0.705,0.662L70.963,124.362z
	 M108.355,126.584c0,0,0.878,0.91,1.412,1.501c1.85,2.045,2.167,3.958,1.229,4.539c-0.806,0.372-1.305,0.117-1.953-0.414
	c0.135,1.268,1.131,3.138,1.106,3.143l-2.76,0.448c0,0,0.681-2.539,0.623-3.498c0,0-0.566,0.44-0.818,0.55
	c-1.803,0.665-2.696-1.404-1.215-3.468C107.225,127.654,108.355,126.584,108.355,126.584z M146.064,130.414
	c1.852,0,3.354,1.519,3.354,3.391s-1.502,3.39-3.354,3.39c-1.853,0-3.354-1.518-3.354-3.39S144.212,130.414,146.064,130.414z
	 M147.719,131.966c-0.146,0.033-0.264,0.37-0.28,1.111c-0.167,1.521-1.418,2.132-2.787,1.428c-0.554-0.285-1.024-0.707-1.026-0.384
	c0,0.174,0.443,1.08,0.758,1.39c1.16,1.055,3.985,0.805,3.921-1.652C148.273,132.702,147.959,131.912,147.719,131.966z
	 M86.822,133.239c0.364-0.024,0.826,0.128,1.122,0.438c0.917,0.633,1.091,1.441,1.148,4.492c0.051,2.691,0,2.757,0.437,3.084
	c1.076,0.8,1.725-0.419,1.416-3.146c-0.296-2.625,0.641-4.533,2.21-4.523c0.772,0.005,0.915,0.463,0.329,1.049
	c-0.619,0.617-0.769,1.372-0.574,2.891c0.497,3.89,0.066,5.8-1.551,6.59c-1.688,0.823-3.858-0.123-4.238-2.275
	c-0.244-1.437-0.242-3.14-0.073-4.744c0.03-1.688-0.008-1.881-0.59-2.849C86.047,133.596,86.354,133.271,86.822,133.239z
	 M44.385,134.501c0.933-0.003,1.901,0.544,2.48,1.753c1.397,2.916-1.63,5.314-4.406,5.502c-4.82,0.073-10.55-0.63-15.388-1.28
	l0.076-2.755c4.44,0.259,9.446,0.623,14.841,0.878C41.373,136.037,42.83,134.504,44.385,134.501z M69.738,135.065l2.684,0.601
	l-1.707,2.82c0.506-0.222,0.856-0.376,1.363-0.189c1.093,0.398,1.107,1.799,0.306,3.107c-0.634,0.95-2.417,2.085-3.634,2.782
	c-0.684-1.483-2.193-4.08-1.592-5.499c0.318-0.753,1.202-1.119,2.025-0.708c0.271,0.165,0.792,0.434,0.792,0.434L69.738,135.065z
	 M76.082,135.144l8.179,0.097c-1.188,8.356-3.515,19.516-8.098,28.611l-1.926,0.503c4.042-9.038,6.73-17.515,7.986-26.99h-4.089
	c-2.353,10.17-5.832,19.595-11.184,27.783l-2.378-0.781C70.291,155.204,74.822,144.979,76.082,135.144L76.082,135.144z
	 M94.736,135.29h9.116c1.677,17.016,7.365,28.629,15.832,40.116c0,0-0.534,0.121-0.851-0.016c-0.877-1.107-1.682-1.784-2.998-2.125
	c-7.115-10.354-11.889-24.828-13.04-35.901h-5.421c0.617,13.907,4.43,25.311,9.502,36.354l-2.752,0.511
	C100.051,164.346,95.584,155.745,94.736,135.29z M108.922,137.392c0.75,0.586,1.561,1.162,2.324,1.722
	c2.053,1.456,2.025,4.207,0.03,4.194c-0.212-0.001-0.704-0.03-0.704-0.03s0.814,1.804,1.328,2.716
	c-0.832,0.225-2.569,0.554-2.569,0.554s0.249-1.771,0.199-3.239c0,0-0.333,0.376-0.608,0.507c-1.324,0.56-2.443-0.608-2.279-1.988
	C106.866,139.963,108.922,137.392,108.922,137.392z M48.018,137.725l4.487,2.252c-3.058,7.034-6.56,13.621-11.624,18.628
	l0.131-16.256C43.775,142.267,46.611,142.241,48.018,137.725z M78.701,137.979h2.761c-1.225,12.979-9.71,30.534-11.303,32.651
	l-0.524,0.398c0.032-0.018-1.086-3.979-2.358-5.405C72.063,159.098,77.078,146.559,78.701,137.979z M98.113,137.979h4.17
	c1.299,10.341,4.461,21.513,12.478,35.081c0,0-0.804,0.082-1.425-0.294c-1.365-0.855-2.315,0.277-3.131,0.233
	c-1.277-0.069-1.486-0.146-2.804,0.169C100.787,159.068,98.91,147.97,98.113,137.979z M53.075,140.301l1.489,0.709
	c-3.202,7.485-6.07,13.434-13.656,20.736l-0.027-2.175C46.211,154.355,49.801,147.479,53.075,140.301z M55.242,141.346
	c0.705,0.269,1.506,0.709,2.172,1.072c0.223,0.09,0.162,0.292,0.164,0.503c-0.281,0.711-1.524,1.022-1.994,1.161
	c-0.568,0.163-1.129,0.277-1.229,0.302c-0.649,0.153-0.443-0.504,0.261-1.942C54.932,141.793,55.057,141.36,55.242,141.346z
	 M58.218,142.933c0.445-0.028,2.246,0.978,2.63,1.339c0.137,0.426-0.251,1.099-0.819,2.341c-0.874,1.911-1.048,1.953-1.31,0.383
	c-0.045-0.27-0.305-1.163-0.463-1.757C57.891,143.863,57.856,143.071,58.218,142.933z M61.476,144.477c0,0,1.046,0.514,1.386,0.739
	c-4.671,14.14-17.111,25.827-17.045,25.558l-1.941-1.152C52.154,162.061,58.222,153.133,61.476,144.477z M56.537,144.678
	c0.451,0.01,0.059,0.571-0.552,1.931c-0.578,1.332-0.769,1.805-1.31,2.017c-0.775,0.283-1.89,0.293-2.879,0.468
	c-0.424,0.074-0.246-0.253,0.406-1.591c0.764-1.569,0.807-1.895,2.006-2.221C54.902,145.172,55.835,144.672,56.537,144.678z
	 M58.176,147.487c0.481,1.751,0.471,2.097,0.148,2.704c-0.604,1.141-1.394,2.473-1.611,2.833c-0.545,0.901-0.699,0.714-1.022-1.479
	c-0.2-1.359-0.376-1.971-0.228-2.563c0.271-0.67,1.082-2.248,1.54-3.172C57.658,143.841,58.01,147.313,58.176,147.487z
	 M66.775,145.959l2.45,0.813l-1.923,2.345c0,0,0.807-0.146,0.9-0.108c1.928,0.129,1.607,2.066,0.115,3.238
	c-0.619,0.573-3.668,1.974-3.668,1.974c-0.327-1.733-1-2.841-0.839-4.62c0.113-0.958,0.197-1.822,1.359-1.85
	c0.61-0.033,0.858,0.599,1.256,1.106L66.775,145.959z M111.196,148.06c0,0,1.476,0.77,2.845,1.834
	c1.785,1.389,2.09,3.021,0.307,3.649c-0.207,0.072-0.793,0.042-0.793,0.042c0.491,0.865,1.658,2.152,1.658,2.152
	c-0.585,0.413-1.41,0.736-2.324,1.025c0,0-0.227-2.153-0.444-2.983c0,0-0.236,0.47-0.528,0.653
	c-1.719,1.081-3.068-0.956-2.145-3.532C110.333,149.335,111.196,148.06,111.196,148.06z M92.301,148.42
	c4.292-0.105,1.778,6.998-0.367,6.539c-0.037-0.064,1.771-4.202-0.662-4.86C90.155,149.797,91.117,148.405,92.301,148.42
	L92.301,148.42z M85.264,148.923c1.334-0.009,2.304,0.942,1.03,1.54c-2.005,0.941-0.812,3.195-0.766,4.473
	c0.027,0.781-1.786-0.681-2.171-2.268C82.859,150.617,83.09,149.099,85.264,148.923z M53.52,149.67
	c0.296-0.002,0.519,0.022,0.594,0.081c0.125,0.335-0.474,1.382-1.348,2.724c-0.465,0.714-0.665,0.915-0.95,1.084
	c-0.676,0.384-1.624,0.284-2.415,0.34c-1.18,0.016-0.973-0.008,0.332-2.063c0.584-0.917,0.951-1.668,1.299-1.907
	C51.101,149.884,52.632,149.672,53.52,149.67z M55.066,151.151c0,2.569,0.864,3.411,0.23,4.222c-0.775,1.263-1.766,2.644-2.125,3.08
	c-0.605,0.736-0.539,0.597-0.697-1.327c-0.115-1.395-0.24-2.327-0.062-2.763c0.519-1.259,1.135-1.861,1.776-3.2
	C54.692,150.084,55.066,150.265,55.066,151.151z M88.943,152.44c1.247,0.017,2.017,1.355,1.961,2.585l-0.054,1.176
	c1.61-0.624,3.609-0.018,3.698,1.579c0.15,2.706-1.822,2.393-3.492,2.279c0.169,0.063,0.415,2.446-0.578,3.358
	c-1.558,1.763-4.463-0.038-3.732-2.624c0.151-0.536,0.184-0.874,0.184-0.874s-1.042,0.38-1.409,0.363
	c-3.16-0.137-2.918-4.652,0.257-4.121c0.648,0.109,1.087,0.268,1.087,0.268s-0.068-0.285-0.176-0.689
	C86.227,154.003,87.196,152.416,88.943,152.44z M152.16,153.245l1.703,0.99v1.919l-2.424-1.811L152.16,153.245z M50.028,154.529
	c0.671-0.006,1.198,0.047,1.095,0.209c0,0.343-1.471,2.408-2.34,3.352c-0.74,0.804-0.845,0.689-2.656,0.6
	c-0.711-0.035-1.176-0.041-1.156-0.232c0.834-1.105,1.984-2.529,2.779-3.719C48.063,154.643,49.165,154.538,50.028,154.529z
	 M51.686,155.432c0.126-0.002,0.164,0.272,0.161,0.87c0,0.451,0.062,1.848,0.126,2.453c0.118,1.102,0.119,1.1-0.348,1.757
	c-0.569,0.618-1.15,1.528-1.884,2.236c-1.103,1.234-0.989,1.305-0.973-1.335c0.013-2.062-0.142-2.062,0.271-2.546
	c0.228-0.266,0.929-1.133,1.39-1.811C51.131,156.027,51.503,155.434,51.686,155.432z M62.191,155.795l2.268,1.223l-2.271,2.326
	c0,0,0.568-0.003,0.759,0.034c1.458,0.286,1.349,1.849-0.119,3.015c-0.901,0.575-3.997,1.714-3.997,1.714
	c-0.106-1.313-0.381-2.521-0.329-3.932c0.021-0.649,0.081-1.356,0.574-1.919c0.341-0.382,0.911-0.604,1.712-0.081
	c0.42,0.377,0.639,0.805,0.639,0.805L62.191,155.795z M88.939,156.588c-0.888,0-1.607,0.728-1.607,1.625
	c0,0.898,0.72,1.626,1.607,1.626c0.889,0,1.608-0.728,1.608-1.626C90.548,157.315,89.828,156.588,88.939,156.588z M114.278,156.972
	c0,0,2.967,1.126,4.304,2.364c1.248,1.052,0.66,2.785-0.578,2.82l-0.617-0.077c0.42,0.646,1.826,2.229,1.826,2.229l-2.293,0.94
	c0,0-0.367-1.784-0.65-2.786c-0.8,1.865-2.771,0.652-2.902-0.511C113.049,160.248,113.766,158.584,114.278,156.972z M88.939,157.114
	c0.617,0,1.118,0.506,1.118,1.13s-0.501,1.13-1.118,1.13s-1.118-0.506-1.118-1.13S88.322,157.114,88.939,157.114z M45.154,159.425
	c0.799-0.008,1.797,0.029,2.244,0.058c0.34,0.264-0.372,1.084-1.746,2.543c-1.103,1.169-1.266,1.007-2.6,1.018
	c-2.24,0.018-2.297,0.033-1.268-1.149c1.127-1.296,1.783-2.13,2.305-2.399C44.265,159.448,44.675,159.43,45.154,159.425z
	 M47.884,160.563c0.237-0.048,0.173,0.563,0.134,1.946l-0.064,2.345l-1.742,1.695c-2.016,1.823-1.775,1.938-1.761,0.231
	c0.011-1.355,0-2.308,0.287-2.909c0.88-1.072,1.798-2.022,2.799-3.046C47.693,160.668,47.806,160.578,47.884,160.563L47.884,160.563
	z M92.171,161.146c0.485-0.041,1.724,2.1,2.033,3.893c0.708,4.096,3.135,6.037,4.844,4.393c0.694-0.967,0.772,0.088,0.738,0.592
	c-0.358,5.188-6.176,3.028-6.838-2.125c-2.042,1.34-3.946-1.365-2.729-1.323C93.097,165.651,92.31,162.98,92.171,161.146z
	 M85.433,161.186c0.285,1.795-2.917,4.868-4.717,2.712c-0.917-1.097-0.081-3.358,1.083-1.966
	C83.087,162.896,84.335,161.777,85.433,161.186z M41.447,163.646c0.658-0.015,1.611,0.111,2.025,0.054
	c0.588,0.061,0.168,0.347-1.102,1.517c-1.095,1.009-1.407,1.458-1.532,1.019c-0.061-0.682-0.034-1.492-0.03-2.454
	C40.909,163.688,41.148,163.652,41.447,163.646L41.447,163.646z M56.372,164.838l1.953,1.439l-1.938,1.804
	c1.737-0.087,1.892,1.56,1.232,2.477c-0.427,0.643-2.074,1.32-3.722,1.59c-0.991,0.163-1.799,0.282-1.799,0.282
	s-0.038-0.771-0.065-2.055c-0.057-2.623,0.12-3.655,1.118-4.167c0.715-0.366,1.924,0.208,2.221,0.878
	c0.099,0.222,0.356,0.607,0.356,0.607L56.372,164.838z M43.807,164.981l0.015,0.004c0.11,0.15-0.287,4.419-0.287,4.419l-2.829-1.609
	C40.705,167.795,43.568,165.032,43.807,164.981z M118.689,165.484c2.015,0.959,3.525,0.772,4.881,1.962
	c1.181,0.624,0.831,2.344-0.03,2.728c-0.39,0.121-1.034,0.055-1.034,0.055c0.713,0.889,2.274,2.012,2.274,2.012l-2.48,1.049
	c0,0-0.34-1.69-0.655-2.611c-0.451,1.37-1.98,1.337-2.852,0.692c-0.617-0.478-0.873-2.079-0.578-3.468
	C118.292,167.536,118.689,165.484,118.689,165.484z M105.438,205.221c-24.465,5.859-44.337,2.236-46.309,1.544l-1.559,2.349
	c-0.189,0.399-0.307,1.592-1.363,1.916l-1.585,2.391l0.311,0.333l-1.405,1.238l0.341,0.414l-1.022,1.502l-0.402-0.043l-2.365,3.634
	l0.359,0.406l-5.434,8.594l73.501,0.023C114.232,221.377,109.662,213.391,105.438,205.221z M104.993,206.277l0.437,1.227
	c-1.215-0.151-2.635-0.226-4.077-0.29C102.62,206.949,103.891,206.625,104.993,206.277z M100.725,207.346
	c-2.338,1.084-3.738,2.387-4.813,3.761c-1.338-1.05-3.039-1.794-5.07-2.26L100.725,207.346z M59.42,207.941l1.041,0.119
	c0,0-0.349,0.274-0.597,0.217C59.674,208.234,59.42,207.941,59.42,207.941z M106.242,208.553l0.662,1.323
	c-1.592-0.853-8.402-2.806-10.334,4.036c-2.033-2.778-10.416-6.805-14.668,1.757c-1.209-2.319-8.248-8.993-14.668-0.488
	c-2.529-5.286-4.645-5.729-9.289-5.007c3.301-3.206,7.945,0.131,9.913,2.859c5.539-4.643,10.171-3.247,14.216,0.53
	c5.222-5.745,10.428-4.36,14.09-1.478C98.737,208.26,101.251,207.105,106.242,208.553z M63.479,208.587
	c3.291,0.449,6.583,0.653,9.874,0.817c-1.904,0.706-3.858,1.314-5.409,2.735C66.768,210.481,65.134,209.518,63.479,208.587z
	 M87.225,209.117c-1.797,0.855-3.732,2.141-5.284,3.49c-1.675-1.378-3.397-2.569-5.275-3.169
	C80.109,209.609,83.926,209.456,87.225,209.117z M108.298,211.834c0,0-0.664,0.113-0.877,0.17c-2.906,0.781-2.273,4.919,0.716,4.918
	c0.284,0,0.992-0.111,0.992-0.111c-0.057,2.802,0.785,3.485,3.617,3.327l4.802,8.676l-71.022-0.31l4.51-7.29
	c2.268,0.269,3.694-1.007,3.189-2.953c0,0,1.396,0.432,1.788,0.434c2.567,0.017,3.231-3.966,0.77-4.655
	c-0.274-0.076-0.962-0.153-1.046-0.178c1.126-2.842,4.219-1.164,5.104,0.016c1.994-1.656,4.197-0.915,5.143,1.23
	c0,0-0.372-0.209-0.486-0.294c-2.335-1.727-4.507,1.85-2.221,3.498c0.225,0.162,0.701,0.302,0.701,0.302s-0.278,0.229-0.533,0.662
	c-1.187,2.018,0.725,4.475,3.033,3.842c1.771-0.701,1.797-2.047,1.795-3.529c0,0,0.612,0.048,1.16,0.055
	c2.127,0.025,2.736-2.727,1.435-4.006c-0.703-0.691-1.622-0.638-2.077-0.727c2.451-2.433,4.113-0.754,5.843,0.367
	c0.262-0.006,3.002-3.332,6.26-0.065c-1.581-0.419-3.2,0.618-3.222,2.281c0.031,1.07,0.788,2.017,2.426,2.093
	c-0.176,0.537-0.293,0.938-0.303,1.461c-0.032,1.747,1.312,2.834,3.017,2.566c1.426-0.185,2.479-1.832,1.972-3.201
	c-0.229-0.617-0.543-0.843-0.543-0.843c3.839,0.485,3.771-4.429,0.787-4.728c-0.708-0.07-1.253,0.24-1.967,0.9
	c1.756-3.628,4.966-2.9,6.168-1.416c1.649-1.211,3.923-2.865,6.644,0.081c-0.448-0.096-1.08-0.118-1.628,0.028
	c-2.152,0.578-2.162,3.346-0.455,4.188c0.48,0.236,1.069,0.374,1.704,0.35c-0.568,2.326,1.986,3.986,3.795,2.873
	c1.295-0.798,1.635-2.682,0.232-4.401c2.36-0.106,2.593-3.078,1.229-4.121c-1.068-0.816-2.327-0.429-3.239,0.65
	c-0.294-0.854,2.039-3.82,5.333-1.683C104.587,210.813,106.318,210.357,108.298,211.834z M109.328,214.155l0.922,1.695
	C109.636,215.912,108.757,215.247,109.328,214.155z M97.42,215.877c0.578,0,1.045,0.474,1.045,1.057
	c0,0.584-0.468,1.057-1.045,1.057s-1.045-0.473-1.045-1.057C96.375,216.351,96.843,215.877,97.42,215.877z M54.313,215.939
	c0.139,0.567,0.2,1.133-0.819,1.242L54.313,215.939z M66.319,216.961c0.528,0,0.957,0.434,0.957,0.968s-0.429,0.967-0.957,0.967
	s-0.957-0.433-0.957-0.967S65.791,216.961,66.319,216.961z M82.251,217.263c0.56,0,1.015,0.459,1.015,1.025
	s-0.455,1.025-1.015,1.025c-0.561,0-1.015-0.459-1.015-1.025S81.69,217.263,82.251,217.263z"/>
<path d="M49.268,26.943c-7.348,10.492-15.209,16.529-15.34,24.715c-0.045,2.651,1.387,7.156,5.87,8.019
	c2.909,0.557,6.913-1.8,6.997-6.589c-0.014-0.953,1.008-0.929,0.998,0.378c-0.137,3.777-1.331,8.175-3.338,11.755
	c3.209,0,6.417,0,9.625,0c-2.007-3.58-3.201-7.978-3.338-11.755c-0.01-1.307,1.012-1.331,0.999-0.378
	c0.083,4.789,4.088,7.146,6.997,6.589c4.482-0.862,5.914-5.367,5.87-8.019C64.478,43.473,56.615,37.436,49.268,26.943z"/>
<path d="M131.725,223.45c-7.348-10.492-15.21-16.53-15.341-24.716c-0.044-2.65,1.388-7.155,5.87-8.018
	c2.909-0.557,6.913,1.8,6.997,6.589c-0.013,0.953,1.008,0.929,0.999-0.378c-0.138-3.777-1.332-8.175-3.339-11.755
	c3.209,0,6.417,0,9.626,0c-2.007,3.58-3.201,7.978-3.338,11.755c-0.01,1.307,1.011,1.331,0.998,0.378
	c0.084-4.789,4.088-7.146,6.997-6.589c4.483,0.862,5.914,5.367,5.87,8.018C146.934,206.92,139.072,212.958,131.725,223.45z"/>
</svg>
