<?xml version="1.0" encoding="utf-8"?>
<!-- Generator: Adobe Illustrator 16.0.0, SVG Export Plug-In . SVG Version: 6.00 Build 0)  -->
<!DOCTYPE svg PUBLIC "-//W3C//DTD SVG 1.1//EN" "http://www.w3.org/Graphics/SVG/1.1/DTD/svg11.dtd">
<svg version="1.1" id="Layer_1" xmlns="http://www.w3.org/2000/svg" xmlns:xlink="http://www.w3.org/1999/xlink" x="0px" y="0px"
	 width="178.58px" height="249.45px" viewBox="0 0 178.58 249.45" enable-background="new 0 0 178.58 249.45" xml:space="preserve">
<path fill="#FFFFFF" d="M9.524,0.973h160.778c4.696,0,8.504,3.807,8.504,8.504V241.12c0,4.696-3.808,8.504-8.504,8.504H9.524
	c-4.696,0-8.504-3.808-8.504-8.504V9.477C1.021,4.779,4.828,0.973,9.524,0.973z"/>
<path fill="none" stroke="#000000" stroke-width="0.9967" d="M9.524,0.973h160.778c4.696,0,8.504,3.807,8.504,8.504V241.12
	c0,4.696-3.808,8.504-8.504,8.504H9.524c-4.696,0-8.504-3.808-8.504-8.504V9.477C1.021,4.779,4.828,0.973,9.524,0.973z"/>
<path d="M165.096,209.773c3.128-0.071,4.53-3.739,2.214-6.588c-0.336-0.416-0.371-0.654,0.245-0.255
	c1.56,1.086,4.55,0.372,4.703-2.949c0.188-4.093-5.301-5.271-6.331-0.92c-0.055,0.459-0.413,0.448-0.326-0.203
	c0.094-1.769,0.624-3.422,1.353-5.034c-1.239,0-2.479,0-3.718,0c0.729,1.612,1.259,3.266,1.354,5.034
	c0.086,0.651-0.272,0.662-0.326,0.203c-1.031-4.352-6.521-3.173-6.331,0.92c0.153,3.321,3.144,4.035,4.703,2.949
	c0.615-0.399,0.581-0.161,0.245,0.255c-2.316,2.849-0.914,6.517,2.214,6.588H165.096z"/>
<path d="M14.732,40.823c-3.128,0.07-4.531,3.739-2.215,6.588c0.337,0.415,0.371,0.654-0.244,0.255
	c-1.56-1.087-4.551-0.372-4.703,2.949c-0.189,4.092,5.3,5.271,6.33,0.92c0.055-0.459,0.413-0.449,0.326,0.203
	c-0.094,1.769-0.624,3.422-1.353,5.034c1.239,0,2.479,0,3.718,0c-0.729-1.612-1.259-3.266-1.354-5.034
	c-0.086-0.652,0.272-0.662,0.326-0.203c1.031,4.352,6.521,3.172,6.331-0.92c-0.153-3.321-3.144-4.036-4.703-2.949
	c-0.615,0.399-0.58,0.16-0.244-0.255c2.316-2.849,0.913-6.518-2.214-6.588H14.732z"/>
<path d="M8.943,29.615H6.746v-2.998h2.197c0,0,0.017-1.616,0.08-4.466c0.136-6.074,0.287-7.017,2.043-8.688
	c3.469-3.305,9.276-0.612,9.208,4.356c-0.101,7.012-0.028,13.697-0.232,14.645c-0.364,1.667-0.4,1.761-0.252,2.066
	c0.304,0.611,2.928,0.877,2.928,0.706v2.953c-2.004,0.155-2.837-0.032-4.44-1.18c-1,0.967-4.047,1.938-6.471,0.796
	C9.963,36.937,8.566,34.693,8.943,29.615z M16.367,34.849c-1.089-1.574-2.921-3.724-4.645-4.487
	c-0.107,1.811,0.049,3.329,0.685,4.146C13.418,35.808,15.054,36.104,16.367,34.849L16.367,34.849z M17.27,17.529
	c-0.808-2.291-2.883-3.068-4.399-1.635c-0.948,0.892-1.101,1.83-1.12,6.93c-0.012,3.146-0.012,4.467-0.012,4.467
	c2.951,0.959,5.711,4.405,5.688,4.36l0.072-9.513C17.556,20.596,17.479,19.05,17.27,17.529L17.27,17.529z"/>
<path d="M170.883,220.981h2.196v2.998h-2.196c0,0-0.018,1.615-0.08,4.465c-0.137,6.074-0.288,7.018-2.044,8.689
	c-3.469,3.304-9.276,0.612-9.208-4.356c0.101-7.013,0.028-13.697,0.232-14.645c0.363-1.668,0.4-1.762,0.252-2.066
	c-0.304-0.612-2.928-0.878-2.928-0.706v-2.953c2.004-0.156,2.837,0.032,4.44,1.179c1-0.967,4.048-1.938,6.471-0.796
	C169.862,213.659,171.259,215.903,170.883,220.981L170.883,220.981z M163.459,215.748c1.088,1.574,2.92,3.724,4.644,4.486
	c0.107-1.811-0.049-3.329-0.685-4.146C166.406,214.789,164.771,214.491,163.459,215.748z M162.556,233.067
	c0.808,2.291,2.884,3.068,4.399,1.634c0.949-0.892,1.1-1.83,1.121-6.929c0.012-3.146,0.012-4.468,0.012-4.468
	c-2.952-0.959-5.712-4.404-5.688-4.359l-0.072,9.512C162.27,230,162.347,231.546,162.556,233.067L162.556,233.067z"/>
<path fill="#D40000" d="M96.172,229.002c0.439-6.51,0.063-13.498,0.357-18.795c-0.2-0.374,0.522-1.401,0.561-1.401
	c-0.43-0.788-0.574-2.804-0.031-4.593c4.243-16.233,11.928-28.866,19.844-40.646c6.437,19.469-13.775,33.128-18.025,50.141
	c-1.418,5.891-1.205,10.004-1.749,15.325L96.172,229.002z M62.567,229.25l-24.045-37.293l5.222-2.552l24.715,39.714L62.567,229.25z
	 M93.669,160.164c0.212,1.07,1.051,1.646,1.941,1.155c0.872-0.479,0.973-0.512,0.431,0.333c-1.199,1.863,1.229,3.667,2.786,2.068
	c0.554-0.568,0.646-1.494,0.144-1.964c-0.568-0.53-0.691-0.805,0.146-0.4c2.104,0.854,3.263-2.201,1.224-3.229
	c-0.525-0.265-1.549-0.029-1.935,0.374c-0.465,0.486-0.531,0.315-0.406-0.063c0.073-0.224,0.125-0.586,0.301-1.019
	c0.137-0.34,0.236-0.802,0.236-0.802l-2.15,0.022c0,0,0.174,0.495,0.35,0.911c0.166,0.392,0.229,0.685,0.309,0.847
	c0.29,0.587-0.059,0.369-0.639-0.064c-0.82-0.612-1.85-0.44-2.436,0.366C93.756,159.175,93.574,159.668,93.669,160.164z
	 M96.773,129.824l4.621-0.138l5.083,14.083c-4.067,6.78-5.165,14.429-0.432,22.181l-14.657,0.023
	C94.826,154.293,95.357,141.903,96.773,129.824z M101.605,148.148c0.621-0.558,0.7-1.567,0.135-2.24
	c-0.711-0.848-0.548-0.891,0.405-0.338c1.376,0.799,2.692-0.928,1.88-2.454c-0.516-0.969-2.183-1.184-2.82-0.321
	c-0.531,0.718-0.473,0.061-0.063-0.895c0.15-0.352,0.366-1.011,0.366-1.011l-2.24,0.047c0,0,0.289,0.637,0.443,1.045
	c0.409,1.085,0.426,1.429-0.205,0.731c-1.367-1.154-2.97-0.318-2.984,1.339c0.014,1.272,1.163,2.091,2.17,1.495
	c0.611-0.361,0.886-0.448,0.197,0.383c-0.476,0.791-0.305,1.8,0.322,2.273C100.07,148.725,100.99,148.695,101.605,148.148z
	 M70.642,152.536c0.18-0.133,0.246-0.046,0.136,0.134c-0.094,0.153-0.335,0.371-0.541,0.601c-1.045,1.168,0.307,2.651,1.992,2.422
	c1.146-0.156,1.82-1.968,0.973-2.683c-0.274-0.185-0.49-0.22-0.698-0.472c-0.017-0.101,0.03-0.168,0.132-0.129
	c0.15,0.063,0.455,0.311,0.609,0.353c1.066,0.291,1.871-0.151,2.142-0.907c0.171-0.873,0.006-1.812-0.705-2.302
	c-0.661-0.445-1.638-0.318-2.208,0.441c-0.583,0.777-0.664,0.038-0.187-1.035c0.179-0.402,0.302-0.975,0.302-0.975l-2.06,0.11
	c0,0,0.109,0.444,0.291,0.956c0.458,1.168,0.785,1.503,0.201,0.899c-2.516-1.487-3.351,0.535-3.393,1.34
	C67.55,152.804,69.746,153.663,70.642,152.536z M80.712,129.696l3.716,0.013c-2.803,14.956-8.543,27.484-18.203,36.106
	l-18.179-0.057l-8.76-6.149l3.383-4.41C65.747,157.586,75.575,146.098,80.712,129.696z M63.986,164.368
	c1.088-0.482,1.541-1.719,0.821-2.549c-0.651-0.75-0.718-0.984,0.282-0.4c1.337,0.782,2.63-0.778,1.974-2.306
	c-0.408-0.951-1.694-1.245-2.619-0.599c-0.813,0.609-0.798,0.337-0.373-0.625c0.21-0.477,0.372-1.239,0.372-1.239l-2.277,0.031
	c0,0,0.164,0.544,0.33,0.917c0.38,0.855,0.518,1.248,0.341,1.25c-0.085,0.001-0.366-0.26-0.531-0.411
	c-0.453-0.419-1.693-0.498-2.153-0.057c-1.363,1.306-0.596,3.59,1.139,3.168c1.12-0.271,1.376-0.699,0.448,0.358
	C60.596,163.211,62.367,165.085,63.986,164.368z M49.619,163.914c0.942-0.445,1.257-1.536,0.729-2.24
	c-0.53-0.709-0.793-1.165,0.151-0.527c1.255,0.634,2.352-0.208,2.336-1.641c-0.018-1.501-1.695-2.201-2.931-1.297
	c-0.208,0.152-0.465,0.29-0.511,0.291c-0.151,0.001,0.123-0.811,0.423-1.342c0.131-0.23,0.36-0.7,0.36-0.7l-2.278-0.088
	c0,0,0.128,0.623,0.306,1.103c0.363,0.974,0.452,1.298-0.184,0.745c-1.713-1.607-3.54,0.439-2.819,2.207
	c0.382,0.994,1.551,0.994,2.24,0.497c0.626-0.487,0.306,0.159-0.123,0.673C46.149,162.996,47.865,164.737,49.619,163.914z
	 M153.639,126.415l0.119,2.767l-29.434,24.628l-1.234-1.898L153.639,126.415z M44.161,131.595
	c4.237-3.027,8.951-8.464,13.604-11.297C61.164,128.142,53.191,135.832,44.161,131.595z M121.541,130.154
	c-2.994-16.581,14.749-13.126,13.813-11.646L121.541,130.154z M26.257,120.012l29.138-23.85l1.324,2.005L25.979,123.45
	L26.257,120.012z M106.076,95.954c0.082,0.249,0.964,1.199,0.966,1.285c-0.252-0.188-1.749-1.03-2.479-0.212
	c-0.256,0.3-0.58,1.016-0.545,1.758c0.307,1.329,1.813,1.798,2.883,0.888c0.308-0.262,0.572-0.579,0.635-0.468
	c0.055,0.098-0.114,0.554-0.251,0.915c-0.158,0.372-0.745,1.152-0.319,1.151l2.069-0.004c0,0-0.077-0.486-0.324-1.025
	c-0.463-1.006-0.443-1.552,0.115-0.827c1.087,1.411,3.194,0.234,2.974-1.458c-0.159-1.222-1.391-1.92-2.297-1.338
	c-0.1,0.063-0.391,0.354-0.432,0.354c-0.111,0.006,0.192-0.461,0.394-0.848c0.668-1.284-0.329-2.475-1.854-2.347
	c-0.492,0.042-1.031,0.354-1.034,0.397C106.002,94.641,105.908,95.442,106.076,95.954z M131.233,83.989
	c2.915,2.692,5.831,4.666,8.746,6.39l-2.751,4.36c-18.645-1.733-32.203,5.668-37.861,25.732l-3.073,0.593
	c1.156-12.516,5.334-24.927,17.685-37.056L131.233,83.989z M113.365,86.984c0.005,0.593,1.09,1.299,0.849,1.462
	c-0.11,0.06-0.757-0.505-1.054-0.537c-2.152-0.229-2.6,3.131-0.466,3.508c0.419,0.074,1.286-0.188,1.543-0.399
	c0.341-0.281,0.578-0.513,0.648-0.487c0.13,0.048-0.167,0.646-0.401,1.091c-0.218,0.412-0.521,1.271-0.521,1.271l2.447,0.011
	c0,0-0.221-0.753-0.441-1.288c-0.281-0.684-0.341-1.117-0.152-1.071c0.082,0.02,0.174,0.233,0.346,0.381
	c1.06,0.914,2.615,0.523,3.023-0.903c0.385-1.342-1.215-2.724-2.329-1.973c-0.39,0.262-0.39,0.065-0.001-0.523
	c0.354-0.537,0.268-1.352-0.055-1.836C115.632,84.443,113.313,85.335,113.365,86.984z M130.938,90.964
	c-0.059-0.3,0.018-0.214,0.331,0.113c0.981,1.025,2.671,0.867,3.101-0.492c0.43-1.357-0.882-2.909-2.025-2.376
	c-0.594,0.277-0.604,0.179-0.265-0.266c0.877-1.145-0.09-2.653-1.594-2.637c-1.374,0.016-2.185,1.344-1.516,2.484
	c0.274,0.467,0.185,0.566-0.297,0.332c-1.405-0.685-2.717,1.549-1.687,2.874c0.604,0.778,2.006,0.86,2.808,0.088
	c0.427-0.412,0.423-0.215,0.113,0.637c-0.271,0.741-0.569,1.341-0.569,1.341l2.433,0.021
	C131.771,93.084,131.121,91.845,130.938,90.964z M78.844,120.976c0.708-0.185-2.499-10.38-4.848-14.929
	c2.676-6.435,6.338-12.671,0.182-21.937l14.963-0.042c-4.623,10.524-4.721,37.083-5.807,37.147L78.844,120.976z M80.156,109.165
	c0,0-0.738-1.021-0.784-1.847c-0.089-0.53,0.048-0.563,0.322-0.022c1.333,1.479,3.137,0.051,3.146-1.259
	c0.152-1.198-1.244-2.226-2.141-1.627c-0.628,0.419-0.799,0.299-0.238-0.482c0.789-1.099-0.071-2.53-1.482-2.514
	c-1.837,0.021-2.54,1.743-1.224,2.973c0.973,0.908,0.065,0.371-0.706,0.047c-1.504-0.633-2.49,0.904-1.815,2.456
	c0.466,1.071,1.833,1.351,2.634,0.483c0.439-0.476,0.846-0.754,0.607-0.035c-0.125,0.58-0.797,1.811-0.797,1.811L80.156,109.165z
	 M82.473,92.991c0,0-0.886-1.115-1.039-1.954c-0.052-0.31,0.166-0.23,0.67,0.203c1.609,1.388,3.821-1.101,2.321-2.62
	c-0.516-0.522-1.04-0.674-1.643-0.358c-0.751,0.395-0.69,0.203-0.315-0.204c0.549-0.598,0.509-1.688-0.084-2.218
	c-1.637-1.465-4.227,0.718-2.705,2.283c0.662,0.681,0.348,0.593-0.381,0.155c-1.379-0.828-2.904,1.44-1.869,2.772
	c1.228,1.042,2.147,0.529,2.996-0.125c0.184-0.098,0.344-0.143,0.345-0.062c0.001,0.15-0.849,2.157-0.849,2.157L82.473,92.991z
	 M62.847,86.704c-0.913-0.062-1.565-8.626-0.449-11.339c2.379-11.439,9.642-19.771,14.161-26.779
	c7.25-10.435,6.349-27.768,6.657-27.077l1.028,0.12c0,0-0.796,10.161-0.346,14.752c0.468,4.037,0.365,4.288,0.077,4.688
	c-0.075,0.377,0.037,1.477-0.045,1.854C80.704,57.869,73.002,73.237,65.05,84.839L62.847,86.704z M137.402,60.595l-24.487-38.766
	l5.884-0.532c2.185,3.475,23.456,36.598,23.456,36.598L137.402,60.595z"/>
<path fill="#E2CF00" d="M36.575,229.941c2.784-10.249-4.76-34.086-9.475-37.2c5.529-0.234,12.18-0.134,11.97-0.653
	c0,0,23.512,37.129,23.32,37.325C62.21,229.599,36.575,229.941,36.575,229.941z M131.87,171.794
	c-5.698-0.813-3.451-5.562,0.213-6.055c-0.478,0.08,0.392-2.36,3.347-3.348c0.672-1.222,1.197-3.308,1.812-4.276
	c-1.771,0.577-3.923,2.08-11.97,0.896c0.701-3.828,8.397-4.481,11.174-3.889c1.603,0.373,3.185,2.771,3.672,2.821
	c4.939-0.826,11.225,3.661,9.324,8.216c-0.295,0.649-1.047-0.771-2.71-1.376c-5.375-1.957-5.751-4.878-6.987-6.186
	c-0.449-0.085-2.826,4.638-2.826,4.638l0.742,3.208c1.289-0.118,7.019,3.437-0.114,5.844
	C135.574,179.112,131.859,174.296,131.87,171.794z M145.372,141.318c-0.305-0.311,0.24-2.436,0.964-3.657
	c0.391-0.66,1.293-1.104,1.822-1.01c0.943,0.166,0.797,1.543-0.453,5.573C147.652,142.807,146.377,142.867,145.372,141.318z
	 M31.9,113.093c-1.563-0.006-0.161-4.274,0.801-5.63c0.315-0.421,1.563,0.476,1.628,1.094
	C34.444,109.665,32.749,113.532,31.9,113.093z M30.791,84.065c1.908,0.462,4.921,2.391,6.36,3.449
	c1.79,1.341,1.302,3.975,2.733,4.208c0.968-0.48,2.741-4.792,2.741-4.792s0.445-2.216-0.816-2.897
	c-3.139-1.697-3.083-3.531-2.884-3.694c0.932-2.423,2.785-1.992,3.786-2.127c0.021-1.326-0.022-4.126,2.712-3.837
	c2.392,0.227,2.627,3.656,1.621,3.688c-0.02-0.058,4.522-0.654,4.479,2.354c-0.024,1.631-2.719,3.717-3.557,2.959
	c0,0,0.449,3.251-3.621,4.365c-0.95,0.971-1.727,5.104-1.727,4.736c2.454-2.224,6.297-2.745,12.36-1.946
	c-3.757,6.991-14.142,3.719-14.954,2.366C34.8,91.314,29.898,89.254,30.791,84.065z M75.527,67.309
	c5.527,0.504,11.573-1.237,16.17-0.315c0.523,0.072,1.093,0.85,1.408,1.022c2.376,1.301,4.862,0.896,8.687-0.557
	c0.944-0.358,18.469-0.222,18.469-0.222c3.991,5.92,11.089,17.058,11.243,16.68c0,0-9.715-0.11-14.189,0.155
	c-3.147,0.188-1.297,0.618-3.482,0.713c-15.314,11.548-18.229,36.501-18.229,36.501s4.867-1.286,6.139,0.063
	c6.021-17.682,17.45-25.755,33.389-24.174c7.365,0.73,16.154,8.002,16.154,8.002l-15.763,12.878
	c-12.21-6.185-17.441,12.043-13.737,12.089l31.741-26.049l0.488,2.198c-2.262,2.978-40.104,33.816-40.104,33.816l-1.661-1.843
	c0,0-1.044,0.931-1.593,1.55c-0.055,1.01,0.3,1.866,1.063,2.657c-7.496,6.039-7.744,17.121-2.218,23.17c0,0-2.451,0.174-2.709,0.219
	c-3.113,0.535-6.335-14.882-0.162-22.056c-3.114-6.132-5.033-14.474-5.423-14.86c0.083,0.982-4.916,0.656-4.916,0.656
	c-0.382,12.46-1.677,24.679-4.659,36.451l22.966,0.496l-9.776,17.034c0,0-10.971-0.275-15.696-0.607
	c-4.935-2.883-7.779-0.691-12.41,0.376c-6.591,0.194-16.291-0.113-16.291-0.023c-3.291-6.561-6.827-11.385-11.632-17.008
	c-0.611-1.021,19.507-0.391,19.507-0.391s10.056-15.272,11.888-19.587c1.43-3.366,4.637-15.623,4.637-15.623
	c0.148,0.639-1.826-3.188-6.425-3.101c-3.803,25.38-33.842,33.93-51.918,17.595l-0.168-2.951l39.833-32.439l1.77,2.055
	c-0.381-0.307-24.453,19.806-24.054,19.679c7.135,3.749,15.391,0.715,14.431-11.593c5.652-4.103,10.658-8.882,15.579-13.761
	c0.106-0.191,5.491,12.131,5.358,14.503c3.098-1.045,4.933,1.146,4.874,0.771c-1.114-7.126,5.102-34.144,5.22-37.25
	c-3.452-0.279-8.029-0.151-15.209-0.438c5.767,11.206,3.764,18.797-4.297,25.7l-1.686-2.127c0.685,0.383,11.773-9.252,2.845-23.646
	c-0.408,0.034-4.706-0.39-4.706-0.39S75.082,69.295,75.527,67.309z M118.326,20.996c0,0,25.141-0.606,25.148,0.134
	c-0.803,13.561,2.346,25.93,9.943,37.37c0,0-11.135-0.396-10.932-0.256L118.326,20.996z"/>
<path fill="#131F67" d="M155.221,20.035H24.606v210.525h130.614V20.035z M142.941,20.951c-0.011-0.012-1.686,22.279,9.899,36.879
	c-7.077-1.076-11.128,0.013-15.249,2.936l0.564,0.583c5.675-3.501,10.489-2.58,15.416-2.034v28.678
	c-0.035,1.393-5.898,0.771-9.518-1.961c-1.718-1.019-3.934-3.156-4.928-4.761c-0.302-0.488-0.619-0.971-0.707-1.072
	c-0.332-0.384-2.396-4.244-6.185-11.553c-1.927-3.716-4.473-8.785-6.541-12.714c-1.339-2.543-3.827-7.349-4.003-7.731
	c-0.366-0.799-3.076-6.107-4.131-8.038c-2.786-5.103-7.285-14.005-8.89-17.195c-0.354-0.827-0.895-1.209,0.072-1.183
	c0.214,0.006,0.429,0.019,0.552,0.048c0.17,0.086,0.377-0.293,0.377-0.293L142.941,20.951z M26.409,141.544v-2.255l38.056-31.45
	l1.211,1.565L26.409,141.544z M63.264,86.455c-0.152,0.057-0.319,0.114-0.502,0.173c-0.977-4.367-0.42-10.202,0.73-14.589
	c1.675-6.089,4.804-10.974,8.287-15.881C79.74,44.95,83.267,36.501,83.124,21.445l1.138,0.121c-0.047,2.378-0.36,4.167-0.452,7.331
	c-0.143,3.391-0.086,5.969,0.272,9.28c0.177,1.627,0.283,2.681,0.01,2.893c-0.13,0.106-0.247,0.669-0.128,0.876
	c-0.019,0.452-0.08,1.354-0.08,1.354C82.061,52.264,72.281,75.248,63.264,86.455z M68.013,106.833l-2.012-2.479
	c0,0-1.548-1.253-0.157-2.669c4.021-4.094,4.048-9.297,0.16-13.977c-0.261-0.595,1.208-3.597,1.208-3.597l3.061,0.051
	C75.046,89.993,76.348,100.295,68.013,106.833z M70.825,83.693c0.096-0.398-4.535-0.244-4.535-0.244
	c2.876-4.305,5.322-8.732,7.726-13.172c3.729-6.72,8.9-18.492,10.521-27.024c1.207,9.98,2.962,24.793,11.469,25.377
	c2.789,0.192,6.02-1.727,6.546-1.409l17.672-0.141c3.624,7.377,7.518,12.131,12.129,17.177c3.313,1.896,7.354,3.398,11.259,4.372
	c2.219,0.554,2.432,0.186,6.808,0.813c1.154,0.165,2.914-0.325,2.896-0.325c-3.496,2.77-7.529,1.984-11.972,0.799
	c-0.248-0.066-0.509-0.144-0.769-0.235l-3.354,5.065c-7.466-1.776-31.434-0.519-37.752,25.646c0,0,0.649,0.332,0.497,0.152
	c5.02-22.71,26.216-27.237,36.322-24.975l-0.869,1.331c-16.769-2.059-30.421,8.471-33.672,23.402l0.323,0.295
	c6.292-22.575,32.743-30.928,49.143-15.28l3.008-2.139l-0.097,2.895l-40.318,33.915l-1.613-1.674c0,0-0.283,0.216-0.605,0.484
	c-1.04,0.87-1.451,1.082-1.159,1.567s1.423,1.578,1.472,1.701c-6.687,5.471-8.809,16.021-2.455,23.41
	c0.71,0.783,0.581,0.993,0.451,0.111c-5.7-6.228-4.978-17.242,2.129-22.462l1.433,1.885c-3.129,6.897-4.798,17.656,3.43,18.588
	c2.948,7.931-0.443,17.328-4.229,23.627c-4.012,7.257-8.873,13.289-11.908,21.193c-1.476,3.298-3.822,13.08-3.699,20.556
	l-0.884-0.01c-0.001-3.05,0.202-6.667,0.227-8.979c0.124-11.273,0.107-10.604,0.36-10.891c0.084-0.095,0.318-0.195,0.342-0.274
	c0.033-0.119-0.184-0.353-0.27-0.628c-0.088-0.282-0.236-0.778-0.222-1.196s0.405-1.026,0.331-1.162
	c-1.771-6.222-1.916-17.402-7.629-22.538c-2.801-2.416-6.522-2.513-11.342-0.531c-10.635,0.019-9.058,0.567-17.646,0.075
	c-3.554-6.53-7.862-12.892-12.524-17.607c-2.179-2.44-5.208-3.776-8.057-5.545c1.143-2.176,2.438-3.767,3.854-4.8
	c0.295-0.421,0.494-0.875,0.874-1.231c28.959,2.794,35.239-25.364,33.918-24.647l-0.257,0.223
	c-7.917,29.012-36.093,27.955-50.256,15.412c0,0-2.001,1.745-2.008-0.17c-0.006-1.74,0.627-2.245,0.627-2.245l39.752-32.545
	c0.727,0.465,1.51,2.012,1.835,1.838c0.732-0.391,1.812-1.176,1.778-1.643c-0.025-0.359-1.453-2.618-1.453-2.618
	C79.035,96.206,74.238,91.269,70.825,83.693z M85.895,21.568c0.191-0.001,0.372,0.09,0.507,0.303
	c0.242,0.385-0.723,2.626-1.319,3.021c-0.564,0.374-0.605-0.061-0.197-2.229C85.005,22.027,85.473,21.571,85.895,21.568z
	 M144.222,21.635h9.351v35.477C146.691,47.4,143.133,36.246,144.222,21.635z M88.366,21.692c0.229-0.01,0.433,0.054,0.499,0.222
	c0.236,0.598-1.114,3.184-2.785,5.328c-0.867,1.111-1.304,1.434-1.574,1.169c-0.229-0.507-0.222-1.095,0.576-2.02
	c0.658-0.763,1.778-2.545,2.24-3.543C87.521,22.264,87.72,21.734,88.366,21.692z M97.82,21.819c0.269,0.003,0.544-0.002,0.621,0.126
	c1.607,3.291,4.635,6.261,7.732,7.848c0.451,0.258,0.238,0.903,0.391,1.356c-3.479-0.519-8.046-5.468-9.268-9.08
	C97.291,21.808,97.552,21.817,97.82,21.819z M103.262,21.817c0.691,0.705,1.781,1.559,2.026,2.364
	c0.15,0.494,0.261,1.062,0.154,1.328c-0.604,0.38-3.608-3.119-3.492-3.528C102.332,21.729,102.812,21.676,103.262,21.817z
	 M90.234,21.767c0.295,0.012,0.746-0.006,0.813,0.218c0.375,1.525-3.096,7.472-5.628,9.156c-0.899,0.599-0.958,0.441-0.886-0.563
	c0.048-0.676,0.113-0.622,1.037-1.507c1.318-1.265,2.758-3.215,3.55-4.943C90.137,21.911,89.888,21.771,90.234,21.767z M92.59,21.79
	c0.33,0,0.639,0.112,0.723,0.26c0.116,0.2-0.039,0.523-0.146,0.925c-1.144,3.249-3.986,7.926-7.325,10.582
	c-1.299,1.005-1.519,0.999-1.613-0.039c-0.055-0.604,0.222-0.779,0.831-1.204c2.834-1.972,5.379-5.394,6.456-8.889
	c0.21-0.681,0.13-1.292,0.499-1.499C92.185,21.83,92.392,21.789,92.59,21.79z M110.169,27.421c0.136,0.233,1.107,1.759,0.313,1.185
	c-0.326-0.269-0.918-0.945-1.86-2.02c-2.229-2.542-2.296-2.384-2.253-3.017c0.022-0.823-0.564-2.175,0.703-1.824
	C108.319,23.215,109.103,25.586,110.169,27.421z M100.02,21.84c0.253-0.004,0.553,0.043,0.801,0.094
	c1.469,2.771,5.052,5.203,5.037,5.19c0,0,0.091,1.206-0.039,1.419c-0.075,0.371-5.691-3.913-6.316-6.478
	C99.562,21.9,99.768,21.845,100.02,21.84z M96.022,21.891c1.319,2.433,4.04,7.952,10.434,10.183c0.46,0.101,0.949,1.414,0.597,1.775
	c-3.505-1.021-9.864-4.467-12.023-11.924C95.239,21.727,95.799,21.757,96.022,21.891z M94.306,22.363
	c-0.22,0.004,3.019,9.386,12.243,12.184c0.798,0.251,1.266,0.598,1.215,1.071c-0.064,0.598-0.045,0.672-0.933,0.226
	c-2.517-1.32-6.103-1.938-9.099-0.409c-0.468,0.238-0.941,0.889-0.565,1.299c0.215,0.208,0.744,0.053,1.418-0.21
	c3.487-1.362,8.823-0.562,9.767,1.58c0.669,1.521,0.783,2.641,0.418,2.827c-0.279,0.143-0.753-0.368-1.586-1.103
	c-2.653-2.337-5.825-2.987-8.348-0.742c-0.545,0.486-1.086,0.402-1.275,0.602c-0.186,0.194,0.034,0.631,0.189,1.057
	c0.162,0.445,0.169,0.567,0.007,0.943c-0.221,0.516-0.229,1.176-0.204,1.666c0.059,1.197,0.848,2.228,3.117,3.806
	c1.768,1.229,3.149,1.921,0.998,0.171c-3.714-3.02-4.388-4.25-1.98-3.203c2.403,0.97,5.735-0.003,8.095-1.81
	c0.804-0.014,1.281-0.154,1.705,0.155c1.76,4.148,3.198,9.668,5.538,15.02c-2.793,3.17-12.522,10.932-19.459,10.655
	c-5.988-0.239-8.104-10.081-9.428-15.521c-0.446-2.302-0.955-4.644-0.895-7.895c0,0,0.109-0.088,0.264-0.059
	c1.004,0.19,2.731,0.322,3.608,0.117c1.594-0.374,1.914-0.659,2.008-0.424c0.109,0.278-0.554,0.904-1.714,1.701
	c-0.504,0.347-1.973,1.057-1.817,1.161c0.351,0.235,2.127-0.714,2.425-0.967c0.465-0.396,0.783-0.421,1.006-0.202
	c0.26,0.256,0.313-0.017-0.545,2.124c-0.947,2.359-0.856,2.573,0.989,4.027c0.643,0.505,1.229,1.01,1.37,1.23
	c0.177,0.29,0.297,0.632,0.379,0.742c0.312,0.419,0.12-0.256-0.066-1.328c-0.215-0.794-0.99-1.582-1.539-1.965
	c-1.008-0.704-0.852-1.394-0.018-3.79c2.462-7.067,1.834-10.22-0.876-11.755c-1.222-0.692-4.644-0.508-5.722,0.397
	c-0.531,0.445-0.459-0.43-0.374-0.488C91.123,30.77,92.647,26.49,94.306,22.363z M106.854,25.826
	c1.845,1.839,4.141,4.335,5.524,6.11c0.759,0.947,1.159,1.918,1.764,2.913c0.114,0.18,0.229,0.386,0.146,0.47
	c-0.03,0.035-0.294-0.118-0.44-0.229c-1.353-1.023-6.936-7.405-6.936-7.405C106.654,26.637,106.476,26.279,106.854,25.826z
	 M107.957,30.158c0,0,4.837,5.303,7.607,7.91c0.545,1.149,1.59,2.805,1.563,3.084c-0.012,0.123-0.592-0.326-0.592-0.326
	c-3.062-2.833-5.891-6.016-8.83-9.033c0.028,0.017-0.232-1.248-0.236-1.759C107.536,29.784,107.83,30.06,107.957,30.158z
	 M118.45,43.75c0.65,1.063,1.126,2.016,1.438,2.641c0.518,0.99,0.344,1.018-0.111,0.652c-3.462-2.844-6.359-6.307-9.62-9.479
	c-0.423-0.438-1.269-1.409-1.269-1.409c0.03,0.035-1.063-2.287-0.376-2.24c0.536,0.21,0.889,0.795,1.234,1.167
	C111.457,36.919,114.714,40.078,118.45,43.75z M88.258,36.171c1.428-0.043,2.834,0.327,3.543,1.206
	c0.646,0.8,0.906,2.065,0.548,2.433c-0.224,0.229-1.016-0.417-1.016-0.417c-3.361-1.894-4.52-0.981-6.344-0.426
	c-0.26,0.079-0.536-0.625-0.203-1.321C85.455,36.488,87.152,36.204,88.258,36.171z M109.411,37.964
	c3.596,3.619,7.249,7.64,11.14,10.753c0.545,0.467,0.919,0.766,1.168,1.018c0.514,1.021,1.695,3.455,1.695,3.455
	c-4.17-2.927-13.563-13.018-13.459-12.95C110.049,40.286,109.168,38.393,109.411,37.964z M102.373,38.563
	c0.656-0.007,1.376,0.2,1.943,0.427c1.813,0.722,2.953,1.49,1.076,1.233c-2.611-0.356-3.504-0.375-4.46-0.221
	c-1.775,0.286-1.914,0.484-2.069,0.201C98.456,39.461,100.403,38.582,102.373,38.563z M87.55,38.775
	c0.655-0.004,1.366,0.141,2.062,0.446c2.215,0.973,2.605,1.605,0.72,1.301c-0.979-0.157-2.772-0.142-4.058,0.19
	c-0.407,0.105-0.857,0.343-0.963,0.377c-0.455,0.146-0.582-0.195-0.387-0.769C85.26,39.33,86.301,38.783,87.55,38.775z
	 M103.585,41.612l0.457,0.034c-0.571,3.247-3.802,2.931-4.672,0.141l0.457-0.01C101.529,44.445,102.802,42.876,103.585,41.612z
	 M105.385,41.781c1.492-0.017,1.396,0.883-0.158,1.487c-1.192,0.463-1.326,0.379-0.891-0.517
	C104.756,41.891,104.713,41.789,105.385,41.781z M90.002,41.898c0.146,2.926-3.915,3.462-4.164,0.271l0.386-0.019
	c1.331,2.51,2.868,0.994,3.348-0.252H90.002z M91.809,42.298c0.459,0.314,0.174,0.748-0.824,1.358
	c-0.9,0.563-1.132-0.117-0.39-1.061C90.906,42.292,91.418,42.04,91.809,42.298z M98.852,42.294c0.178-0.057,0.599,0.734,0.24,0.924
	c-0.214,0.112-0.529-0.211-0.564-0.45C98.499,42.578,98.618,42.368,98.852,42.294z M111.012,42.477
	c2.711,2.997,5.439,6.007,13.418,12.531c0,0,1.127,2.013,1.373,2.8c-0.193,0.24-0.295,0.212-0.854-0.066
	c-5.204-4.033-10.042-8.938-13.831-13.498C110.937,43.6,110.535,42.979,111.012,42.477z M85.176,42.775
	c0.307-0.011,0.741,0.68,0.502,1.095c-0.197,0.156-0.504-0.086-0.638-0.275c-0.133-0.188-0.129-0.534-0.047-0.688L85.176,42.775z
	 M112.146,46.927c-0.021-0.104,12.603,12.741,14.222,12.496c0.755,0.445,2.631,4.097,2.631,4.097c0.054,0.116,0.045,0.33-0.26,0.179
	c-2.134-1.06-11.057-8.493-15.618-14.026C112.787,48.866,112.383,47.842,112.146,46.927z M97.14,48.813
	c2.201,1.068,1.255,3.258-1.069,1.865c-1.83-1.117-3.282-1.219-3.271-0.252c0.004,0.408,0.503,0.933,0.986,0.928
	c0.905,0.059,1.725,0.391,2.614,0.586c1.388,0.3,2.425-0.07,2.772-0.916c0.59-1.435-0.813-3.001-1.735-2.917
	C96.513,48.189,96.745,48.634,97.14,48.813z M114.57,52.324c-0.154-0.136,6.277,6.939,15.046,12.784
	c0.341,0.395,1.188,2.436,1.323,2.71c-0.035,0.192-0.229,0.004-0.229,0.004c-4.428-2.57-10.273-7.667-15.812-13.451
	c0,0-0.532-1.282-0.696-2.117C114.323,52.199,114.454,52.271,114.57,52.324z M99.962,54.872c-0.2,0.027-0.467,0.33-0.797,0.513
	c-0.675,0.372-0.888,0.472-2.545-0.027c-0.899-0.271-1.045-0.252-1.582,0.147c-0.47,0.349-0.729,0.406-1.253,0.171
	c-0.942-0.424-1.379-0.116-2.251,0.19c-0.831,0.302-1.116-0.066-1.864-0.237c-0.1,0.001-0.142,3.029-0.043,3.126
	c0.034,0.034,0.777-0.456,1.199-0.672c0.725-0.37,0.621-0.312,1.679-0.268c1.562,0.271,3.108,0.179,4.153-0.233
	c1.303-0.369,2.319-0.301,3.219,0.439c0.546,0.449,1.27,0.375,0.847-0.451c-0.146-0.285-0.477-1.337-0.437-1.728
	c0.059-0.585-0.07-0.959-0.287-0.971H99.962z M116.64,57.232c2.96,2.851,6.61,7.2,15.197,12.24c0.447,0.787,1.052,1.833,1.435,2.648
	c0.035,0.227-0.02,0.428-0.24,0.35c-5.305-3.377-8.255-5.017-15.609-12.294c-0.458-0.738-0.945-1.994-1.323-3.018
	C116.179,56.87,116.519,57.159,116.64,57.232z M115.391,58.32l3.284,6.189l-11.059-0.023
	C110.427,62.806,113.109,60.563,115.391,58.32z M97.061,58.46c-1.815,0.725-2.09,0.875-3.891,0.435
	c-1.049-0.256-0.762,0.354-0.225,0.607c1.359,0.639,3.327,0.188,4.057-0.317C97.483,58.873,97.813,58.16,97.061,58.46z
	 M95.197,60.37c-1.902,0.027-3.696,0.692-3.83,1.469c-0.025,0.149,0.13,0.318,0.426,0.14c1.289-0.779,4.488-1.033,6.908-0.155
	c0.392,0.142,0.46-0.103,0.054-0.439C97.85,60.634,96.498,60.353,95.197,60.37z M119.332,63.015
	c3.579,3.317,7.033,6.368,14.737,10.808c0.555,1.215,1.357,2.669,1.498,2.795c-7.22-3.519-15.088-10.462-15.088-10.462
	s-1.238-2.215-1.522-3.163C118.932,62.672,119.23,62.935,119.332,63.015z M121.797,68.182c0,0,6.591,5.597,14.105,9.396
	c0.304,0.294,1.061,2.095,1.307,2.288c0.249,0.194-0.298,0.193-0.839-0.086c-3.933-1.818-12.366-7.639-12.366-7.639
	C123.195,70.81,122.037,69.425,121.797,68.182z M42.921,91.568c0.603-1.295,1.218-2.734,1.616-3.909
	c1.795,0.019,2.677-0.656,3.313-1.47c0.909-0.024,1.604-0.021,2.843-0.057c-0.04-1.229,0.016-2.97,0.016-2.97
	c1.256-1.298,2.106-2.796,0.161-5.09c0,0-0.079-1.068-0.106-2.892c-0.897-0.144-2.908-0.051-2.908-0.051
	c-1.626-2.297-4.51-1.718-5.384-0.001c0,0-1.296,0.071-2.185,0.075c-0.019,0.485-0.172,2.639-0.172,2.639s-3.79,2.595,0.142,5.653
	l-0.053,2.569c0.735,0.06,1.263,0.01,2.223,0.194c0,0-1.504,3.507-2.493,5.171c-0.338,0.09-0.258-0.105-0.666-1.269
	c-0.492-1.371-1.604-2.87-2.549-3.607c-1.279-0.991-3.029-1.299-4.25-2.159c-1.178-0.83-2.009-1.9-2.383-1.701
	c-0.122,0.417-0.258,2.812,0.186,4.35c0.624,2.531,4.25,4.145,7.279,5.355c0.232,0.15,0.439,0.379,0.44,0.462
	c0.005,0.419-0.398,0.29-1.392,0.19c-1.502-0.15-2.123,0.262-2.65,1.549c-0.157,0.318-0.531,0.865-0.835,1.228
	s-0.621,0.716-0.665,0.87c-0.045,0.153-0.356,0.936-0.666,1.588c-0.189,0.402-0.506,0.823-0.529,1.418
	c-0.07,1.813-0.098,4.25,0.174,5.785c0.199,1.129,1.619,1.776,2.108,1.868c0.75,0.141,0.887,0.905,0.77,1.53
	c-0.579,3.083-2.347,4.97-2.913,3.957c-0.148-0.267-0.306-1.526-0.348-1.511c-0.027,0.011-0.296,1.071-0.193,1.503
	c0.11,0.465,0.701,0.807,1.284,0.594c0.864-0.313,1.544-1.174,2.081-3.13c0.219-0.8,0.428-1.246,0.801-1.305
	c0.683,0.048,1.748,1.46,1.748,1.46c-3.547,2.968-10.356,8.354-10.356,8.354V21.635h55.926c0.313,7.706-0.619,14.271-3.376,21.137
	c-3.266,7.395-8.335,12.891-12.213,19.697c-4.684,8.217-6.183,16.741-4.588,25.314c-4.784,6.288-8.814,9.307-12.642,12.228
	c0,0-2.869-3.028-4.463-4.723c0,0,0.673-0.056,1.459-0.088c3.635-0.409,7.569-0.927,9.089-4.727
	c0.217-0.422,0.126-0.609-0.131-0.668c-2.847,0.396-5.32-0.006-6.935,0.109C44.589,90.194,42.921,91.568,42.921,91.568z
	 M43.354,94.365c0,0-4.567-2.18-4.906-2.241c-1.991-0.362-6.793-2.874-7.604-4.582c-0.105-0.223-0.371-3.339-0.456-3.977
	c0.028-0.203,0.11-0.196,0.31-0.051c0.513,0.355,2.502,1.657,3.236,2.016c3.034,1.48,4.209,2.534,4.951,4.761
	c0.187,0.559,0.381,1.139,0.491,1.259c0.243,0.264,0.346,0.241,0.65,0.008c1.3-1.689,1.908-3.096,2.51-4.909
	c0.078-0.201,0.247-0.408,0.147-0.701c-0.237-0.8-0.82-1.837-0.224-2.62c-1.901,0.088-3.72-1.307-3.488-2.704
	c0.506-2.589,1.601-2.122,3.649-2.499c-0.236-5.986,5.345-4.532,5.33-0.363c6.131,0.519,3.234,6.211-0.327,5.34
	c1.412,3.234-2.831,4.448-3.427,3.897c-0.24,1.046-1.855,4.411-2.199,5.412c4.543-3.233,11.852-1.798,12.91-2.006
	C52.27,95.946,43.641,94.598,43.354,94.365z M125.153,73.962c1.153,0.892,10.936,7.034,12.74,7.173c0,0,0.864,0.974,1.578,1.86
	c0.665,0.825,0.909,0.955,0.986,1.122c0.076,0.165-0.251,0.157-0.306,0.151c-4.4-1.921-8.877-3.941-12.683-7.134
	c-0.514-0.438-0.629-0.637-0.882-0.971C126.253,75.719,125.258,74.128,125.153,73.962z M128.395,78.917
	c4.475,2.523,8.277,4.971,12.354,6.287c0.582,0.219,0.879,0.233,1.168,0.438c0.29,0.206,1.532,0.978,1.826,1.15
	c1.859,1.095,2.051,1.043,1.59,1.227c-0.512,0.203-3.777-0.754-6.537-1.778c-4.896-1.817-6.627-2.848-8.396-4.45
	C129.999,81.376,128.139,79.144,128.395,78.917z M39.202,92.994c0.378-0.009,0.98,0.227,1.609,0.711
	c0.672,0.518,2.323,1.602,3.005,1.895c0.349,0.15,0.458,0.189,0.458,0.189l4.399,5.014l-11.328,9.245c0,0-0.919-0.944-1.212-1.26
	c-0.276-0.299-0.196-0.548,0.148-0.886c0.276-0.271,0.298-0.86,0.251-1.149c-0.068-0.429-0.058-0.912,0.483-1.313
	c0.437-0.323,0.505-0.889,0.483-1.045c-0.017-0.125,0.236-0.538,0.615-0.815c0.795-0.582,1.035-1.29,0.766-2.124
	c-0.112-0.35-0.173-0.44,0.283-0.746c0.809-0.541,1.01-1.053,1.07-1.844c0.01-0.126-0.023-0.259-0.042-0.357
	c-0.159-0.842,0.58-0.629,1.188,0.427c0.331,0.575,0.426,1.52,0.592,2.594c0.195,1.268,0.329,1.612,0.398,1.434
	c0.393-1.022-0.071-4.861-1.233-5.383c-1.701-0.762-3.122-2.314-2.696-2.924c0.147-0.211,0.173-0.139,1.21,0.342
	c0.607,0.281,1.17,0.51,1.254,0.513c1.199,0.038,0.472-0.478,0.081-0.532c-0.47-0.065-1.874-0.923-2.038-1.224
	C38.673,93.255,38.824,93.003,39.202,92.994z M36.305,93.654c1.107-0.013,1.319,0.285,1.331,1.243
	c0.007,0.564,0.217,0.999,1.099,2.124c0.359,0.458,0.6,0.811,0.576,0.99c-0.039,0.297-0.146-0.011-1.365-0.155
	c-0.434-0.052-0.653-0.059-0.805,0.167c-0.42,0.625-1.31-0.026-1.856-0.948C33.979,94.879,34.439,93.675,36.305,93.654z
	 M57.395,94.979l12.043,14.798l-1.358,1.059L55.991,96.238L57.395,94.979z M55.381,95.888l1.29,2.187c0,0-3.731,3.2-4.713,4.104
	c-7.928,6.446-25.824,21.078-25.824,21.078l-0.241-2.942L55.381,95.888z M33.645,96.283c0.234,0.006,0.504,0.305,0.885,0.89
	c0.331,0.507,1.039,1.522,1.795,2.221c1.468,1.357,1.609,1.234,0.418,1.363c-0.474,0.052-0.628-0.006-0.916,0.719
	c-0.875,1.094-3.456-2.826-2.852-4.326C33.211,96.563,33.409,96.277,33.645,96.283z M37.845,98.399
	c0.218-0.01,0.504,0.072,0.839,0.276c0.64,0.263,0.682,0.416,0.576,1.028c-0.101,0.587-0.545,0.738-1.419-0.034
	C37.177,99.041,37.288,98.427,37.845,98.399z M57.066,98.762l1.414,1.834l-32.071,26.076v-3.001
	C27.192,123.771,47.749,105.805,57.066,98.762z M32.159,99.06c0.085-0.018,0.22,0.278,0.576,0.815
	c0.726,1.096,1.391,1.818,2.15,2.393c0.718,0.543,0.798,0.847,0.306,0.851c-0.211,0.001-0.499,0.224-0.65,0.485
	c-0.304,0.524-0.33,0.4-0.801,0.124c-0.671-0.395-1.344-0.99-1.612-1.771c-0.253-0.736-0.28-1.855-0.073-2.672
	C32.091,99.143,32.12,99.068,32.159,99.06z M37.229,101.142c0.818-0.028,1.407,0.928,0.866,1.7
	c-0.301,0.295-0.572,0.437-1.172,0.082c-0.791-0.468-0.934-1.188-0.286-1.592C36.84,101.206,37.041,101.148,37.229,101.142z
	 M31.962,103.211c0.172-0.008,0.481,0.241,1.001,0.777c0.399,0.41,1.092,0.761,1.369,0.916c0.623,0.349,0.652,0.47,0.314,0.75
	c-0.145,0.119-0.618,0.127-0.747,0.504c-0.368,1.081-1.929-0.175-2.077-1.72C31.746,103.654,31.74,103.222,31.962,103.211z
	 M35.884,103.34c1.024,0.042,1.509,1.242,0.692,1.832c-0.445,0.322-1.566-0.246-1.679-0.835
	C34.825,103.958,35.494,103.323,35.884,103.34z M59.832,104.231c0.595,0,1.076,0.482,1.076,1.079s-0.481,1.08-1.076,1.08
	c-0.594,0-1.075-0.483-1.075-1.08S59.238,104.231,59.832,104.231z M56.618,104.678c0.595,0,1.075,0.483,1.075,1.08
	c0,0.596-0.48,1.079-1.075,1.079c-0.594,0-1.075-0.483-1.075-1.079C55.543,105.161,56.024,104.678,56.618,104.678z M35.079,106.12
	h0.205c0.986,0.048,1.039,0.991,0.452,1.499c-0.351,0.303-0.668,0.398-1.121,0.034C33.805,107.003,34.104,106.175,35.079,106.12z
	 M59.013,107.699c0.594,0,1.075,0.482,1.075,1.079s-0.481,1.08-1.075,1.08c-0.595,0-1.079-0.483-1.079-1.08
	S58.418,107.699,59.013,107.699z M153.44,107.763v2.729l-37.95,31.715l-1.284-1.684L153.44,107.763z M56.83,107.995l-2.808,6.33
	l-0.843-1.632l-2.1-0.001l0.645-1.888l-1.236-1.511L56.83,107.995z M116.59,134.322l4.996-4.022
	c-2.15-10.897,6.437-15.232,14.591-12.067l5.073-4.342C131.836,105.932,109.697,111.331,116.59,134.322z M48.987,113.023
	c0.594,0,1.075,0.483,1.075,1.08s-0.481,1.079-1.075,1.079c-0.595,0-1.075-0.482-1.075-1.079S48.393,113.023,48.987,113.023z
	 M45.723,113.288c0.594,0,1.041,0.448,1.041,1.045s-0.447,1.118-1.041,1.118s-1.075-0.487-1.075-1.084
	S45.129,113.288,45.723,113.288z M63.097,115.479l-4.954,3.982c1.28,10.434-3.775,15.746-14.643,12.17l-5.256,4.187
	C52.444,145.624,71.027,132.983,63.097,115.479z M47.85,116.422c0.595,0,1.076,0.482,1.076,1.079s-0.481,1.08-1.076,1.08
	c-0.594,0-1.074-0.483-1.074-1.08S47.256,116.422,47.85,116.422z M152.065,116.695c0.595,0,1.079,0.483,1.079,1.079
	c0,0.597-0.484,1.08-1.079,1.08s-1.075-0.483-1.075-1.08C150.99,117.179,151.471,116.695,152.065,116.695z M45.625,116.953
	l-3.167,6.291l-0.789-1.895l-2.127,0.029l0.687-2.195l-1.329-1.129L45.625,116.953z M147.812,117.615l0.984,1.664l2.079,0.051
	l-0.782,1.584l1.502,1.555l-6.774,1.671L147.812,117.615z M38.067,122.184c0.595,0,1.079,0.483,1.079,1.08
	c0,0.596-0.484,1.079-1.079,1.079c-0.594,0-1.075-0.483-1.075-1.079C36.992,122.667,37.474,122.184,38.067,122.184z M34.974,122.305
	c0.594,0,1.079,0.482,1.079,1.079s-0.485,1.079-1.079,1.079c-0.595,0-1.075-0.482-1.075-1.079S34.379,122.305,34.974,122.305z
	 M142.573,122.946c0.594,0,1.075,0.482,1.075,1.079s-0.481,1.08-1.075,1.08c-0.595,0-1.075-0.483-1.075-1.08
	S141.979,122.946,142.573,122.946z M153.572,123.113v2.397l-30.818,25.726l-1.297-1.671L153.572,123.113z M37.128,125.451
	c0.594,0,1.075,0.483,1.075,1.08s-0.481,1.083-1.075,1.083c-0.595,0-1.075-0.486-1.075-1.083S36.533,125.451,37.128,125.451z
	 M144.773,125.711c0.595,0,1.076,0.483,1.076,1.079c0,0.597-0.481,1.084-1.076,1.084c-0.594,0-1.074-0.487-1.074-1.084
	C143.699,126.194,144.18,125.711,144.773,125.711z M141.73,125.905c0.594,0,1.074,0.482,1.074,1.079s-0.48,1.084-1.074,1.084
	c-0.595,0-1.08-0.487-1.08-1.084S141.136,125.905,141.73,125.905z M153.75,126.287l-0.091,3.052
	c-9.601,8.219-29.239,24.542-29.172,24.552l-1.483-2.056C123.004,151.835,144.531,133.217,153.75,126.287z M35.154,125.839
	l-2.962,6.709l-1.278-1.806l-1.87-0.128l0.445-1.815l-1.717-1.172L35.154,125.839z M137.865,128.489l1.891-0.36l-0.33,1.943
	l1.329,1.4l-6.967,1.537l3.368-6.271L137.865,128.489z M148.273,161.175c1.412,2.121,1.322,4.438,0.731,4.794
	c-0.623-0.353-1.165-0.964-1.81-1.243c-3.246-1.406-5.837-2.56-6.301-4.627C139.127,155.422,147.096,159.411,148.273,161.175z
	 M131.215,148.752l10.92-8.926c0,0,1.674,0.866,1.99,1.26c0.113,0.433-0.188,0.565-0.634,0.969
	c-0.204,0.264-0.333,0.516-0.344,1.085c-0.013,0.612,0.188,0.887-0.058,1.157c-0.412-0.021-0.74,0.519-0.723,0.955
	c0.013,0.333-0.422,0.703-0.676,0.954c-0.452,0.445-0.584,0.538-0.874,2.049c-0.029,0.151-0.02,0.545-0.231,0.748
	c-0.632,0.057-1.09,1.608-1.377,1.707c-0.461-0.029-1.193-0.595-1.372-1.431c-0.116-0.543-0.085-1.598,0.043-2.276
	c0.152-0.809,0.222-1.542,0.171-1.736c-0.118-0.45-0.415-0.174-0.41,0.459c0.002,0.257-0.098,1.026-0.26,1.751
	c-0.162,0.727-0.604,1.692-0.405,2.266c0.296,0.854,1.386,1.216,1.878,1.668c1.293,1.19,1.574,1.771,1.721,2.035
	c1.034,1.897,1.037,2.221,0.778,3.648c-0.149,0.821-0.946,0.682-1.427,0.348c0,0-3.07-2.243-4.407-3.357
	C133.494,152.396,132.073,150.671,131.215,148.752z M135.358,154.887c1.171,0.476,4.221,2.697,4.221,2.697l-2.777,5.801
	c0.505,0.909,0.709,3.165,0.709,3.165c3.513-0.27,5.415,5.675-0.056,5.126c0.625,3.674-5.271,6.554-5.11-0.031
	c-6.141,0.479-4.079-6.506-0.294-5.195c-0.113-2.96,1.852-3.343,3.238-4.07c1.137-1.291,1.834-4.213,1.834-4.213l-0.277-0.892
	c-1.165,2.043-6.123,2.629-11.572,1.546C126.748,155.311,131.224,155.41,135.358,154.887z M124.522,159.303
	c-0.186,0.699-0.19,0.691,0.649,0.605c0.426-0.043,2.134-0.04,3.326,0.008c2.191,0.172,5.643,0.188,7.374-1.138
	c0.335-0.32,0.519-0.299,0.581-0.123c0.148,0.855-1.533,3.668-1.533,3.668l-2.774,1.54c0,0-1.136,0.054-2.542,0.02l-0.025,2.506
	c-1.103,0.654-2.994,3.459,0.047,5.609l-0.101,2.729l2.68,0.05c1.779,1.709,3.228,1.701,4.86,0.092l3.09,0.002l-0.012-2.947
	c1.523-1.229,1.74-3.315,0.183-4.982l-0.038-2.991l-2.378,0.015c0,0-0.492-0.382-0.506-0.686c-0.002-0.197,1.735-3.559,2.068-4.039
	c0.433-0.624,0.315-0.267,1.007,1.174c0.989,2.062,1.968,2.902,4.477,4.119c2.237,1.087,3.037,1.594,3.686,2.216
	c0.518,0.495,0.822,0.339,1.021-0.4c0.432-1.644,0.299-3.289-0.604-4.794c-1.903-3.177-5.219-3.323-5.746-4.058
	c-0.068-0.175,0.606-0.378,1.332-0.703c1.255-0.766,3.092-3.082,3.328-4.011c-0.043-0.448,0.252-1.859,0.469-2.171
	c0.25-0.555,0.277-0.814,0.267-2.303c-0.225-0.851-0.02-1.957,0.085-2.338c0.114-0.773-0.295-1.684-0.876-2.802
	c-0.218-1.038-0.167-0.768,0.502-3.106c0.108-0.378,0.86-3.636-0.102-3.858l0.128,0.183c0.313,1.066,0.109,2.071-0.14,3.04
	c-0.752,2.618-0.768,2.924-1.455,2.702c-0.186-0.06-1.399-1.001-1.399-1.001s-0.014-1.226,0.244-2.442
	c-0.151,0.413-0.253,1.478-0.731,1.728c-0.256,0.06-0.609-0.169-1.276-0.745c-0.254-0.221-0.8-0.604-0.8-0.604
	s7.751-6.669,10.685-8.88v98.772l-55.667,0.023c-0.698-6.118,1.134-14.212,4.169-22.319c1.875-5.011,4.568-8.729,7.606-13.214
	c5.823-8.553,10.229-17.236,8.53-28.246c-0.222-1.634-0.445-2.416-0.369-2.855c0.708-1.334,3.516-5.377,5.568-7.06
	c3.012-2.471,7.203-6.161,7.539-5.941c1,1.937,2.185,3.505,3.752,4.688c0.275,0.301,0.283,0.565-0.354,0.699
	C130.189,154.693,125.91,155.609,124.522,159.303z M27.655,131.241c0.595,0,1.075,0.482,1.075,1.079s-0.48,1.08-1.075,1.08
	c-0.594,0-1.075-0.483-1.075-1.08S27.062,131.241,27.655,131.241z M131.939,131.485c0.594,0,1.074,0.483,1.074,1.08
	s-0.48,1.079-1.074,1.079c-0.595,0-1.076-0.482-1.076-1.079S131.345,131.485,131.939,131.485z M134.281,134.447
	c0.595,0,1.076,0.483,1.076,1.079c0,0.597-0.481,1.08-1.076,1.08c-0.594,0-1.074-0.483-1.074-1.08
	C133.207,134.931,133.688,134.447,134.281,134.447z M130.802,134.907c0.595,0,1.075,0.482,1.075,1.079s-0.48,1.079-1.075,1.08
	c-0.594,0-1.075-0.483-1.075-1.08S130.208,134.907,130.802,134.907z M126.959,137.367l1.945-0.097
	c-0.244,0.701-0.375,1.426-0.514,2.152l1.584,1.167l-6.852,1.171l2.953-6.096L126.959,137.367z M122.285,155.144l-11.537-14.958
	l1.392-1.13l11.631,14.795L122.285,155.144z M120.877,140.611c0.594,0,1.074,0.483,1.074,1.08c0,0.596-0.48,1.079-1.074,1.079
	c-0.595,0-1.076-0.483-1.076-1.079C119.801,141.095,120.282,140.611,120.877,140.611z M145.109,142.287
	c0.936,0.729,0,1.754-0.894,1.35c-0.775-0.328-0.718-1.118-0.106-1.435C144.491,142.021,144.781,142.065,145.109,142.287z
	 M146.354,142.983c0.96,0.015,2.02,2.299,1.825,2.97c-0.286,0.78-0.549,0.809-1.902-0.341c-1.338-1.137-1.357-1.184-0.816-1.798
	C145.762,143.465,145.905,143.005,146.354,142.983z M123.533,143.399c0.595,0,1.075,0.483,1.076,1.08
	c0,0.596-0.481,1.083-1.076,1.083c-0.594,0-1.075-0.487-1.075-1.083C122.458,143.883,122.939,143.399,123.533,143.399z
	 M120.199,143.815c0.595,0,1.076,0.482,1.076,1.079s-0.481,1.08-1.076,1.08c-0.594,0-1.074-0.483-1.075-1.08
	C119.124,144.298,119.605,143.815,120.199,143.815z M143.818,144.585c1.061,0.158,1.339,0.963,0.851,1.562
	c-0.663,0.81-2.151,0.074-1.799-0.89C143.03,144.819,143.418,144.594,143.818,144.585z M145.722,145.801
	c0.416-0.036,1.042,0.541,1.727,1.497c0.77,1.075,0.832,1.422,0.614,2.078c-0.318,0.955-0.518,1.131-1.208,0.199
	c-0.261-0.352-0.866-1.175-1.298-1.629c-0.921-0.969-1.064-0.723-0.516-1.463C145.297,146.141,145.473,145.822,145.722,145.801z
	 M143.227,146.931c0.953,0.494,1.045,1.138,0.482,1.593c-0.664,0.363-1.833-0.068-2.061-0.727
	C141.316,146.833,142.334,146.344,143.227,146.931z M144.843,148.354c0.539-0.034,0.983,0.524,1.643,1.594
	c1.123,1.82,1.185,2.434,0.228,3.634c-0.689,0.863-0.76,0.909-1.434-0.467c-0.551-1.124-1.598-2.441-2.568-3.23
	c-0.404-0.33-0.547-0.792-0.255-0.823c0.085-0.01,0.444-0.026,0.797-0.039c0.519-0.019,0.706-0.09,0.99-0.369
	C144.431,148.468,144.632,148.367,144.843,148.354z M140.972,149.774c0.502-0.024,1.149,0.248,1.632,0.812
	c0.547,0.577,0.482,1.105-0.592,1.211c-0.483,0.19-1.8-0.676-1.806-1.258C140.2,150.051,140.529,149.796,140.972,149.774z
	 M143.502,151.885h0.078c0.45,0.022,0.684,0.459,1.19,1.48c0.777,1.567,0.553,2.421-0.792,3.114
	c-0.912,0.471-1.607,0.611-1.726,0.073c-0.034-0.156-0.034-0.607-0.11-1.047c-0.1-0.584-0.233-1.192-0.748-1.972
	c-0.822-1.243-0.968-1.686-0.066-1.319c0.478,0.194,0.997,0.172,1.544-0.116C143.113,151.972,143.317,151.896,143.502,151.885z
	 M138.941,154.406c-0.313-0.007-0.514,0.186-0.429,0.699c0.284,0.14,0.732,0.009,1.071,0.132c0.456,0.165,0.738,0.91,1.226,0.788
	C140.861,155.397,139.63,154.421,138.941,154.406z M45.85,165.334c-2.514-1.202-8.741-3.984-11.741-4.024
	c-5.563-1.567-5.749-0.855-7.699-1.357c10.325-2.688,17.244,2.48,19.847,4.991C47.437,166.126,46.793,165.786,45.85,165.334z
	 M52.424,189.771c5.908,10.288,11.414,21.895,20.652,39.08l-0.887,0.278l-35.23,0.063c1.744-18.985-8.474-37.074-9.165-36.365
	c7.98,0.147,14.604-1.397,16.004-4.35l-1.138-0.328c-4.645,4.024-11.609,4.21-16.251,2.966c0.105-9.893-0.307-20.341,0-30.23
	c5.487-0.409,9.871,1.61,12.912,5.636C44.434,173.289,47.901,181.895,52.424,189.771z M36.267,162.361
	c1.413-0.107,9.125,3.077,12.575,5.456c0.957,0.995,2.357,2.725,2.359,2.894c0.005,0.46-0.676-0.107-4.008-2.016
	c-2.521-1.424-5.138-2.56-7.685-3.651c-0.116-0.051-0.35-0.15-0.35-0.15s-0.188-0.218-0.513-0.47
	C37.739,163.72,35.977,162.47,36.267,162.361z M40.016,165.969c-0.076-0.014,7.648,2.795,13.795,7.709
	c0.816,0.653,1.82,3.091,1.82,3.091c-0.549-1.036-10.257-6.867-13.665-8.203L40.016,165.969z M42.739,169.698
	c0.421-0.253,11.718,6.441,13.374,8.17c0.75,0.576,2.508,3.374,2.514,3.938c0.006,0.501-0.544,0.068-1.555-0.87
	c-5.203-4.878-12.719-8.554-12.779-8.472L42.739,169.698z M44.836,173.589c5.305,2.253,11.967,7.671,15.33,10.896
	c0.842,0.835,1.441,2.046,1.555,2.609c0.071,0.35-0.104,0.325-0.174,0.513c-4.358-5.022-13.937-10.755-15.207-11.203
	C46.35,176.722,45.286,174.457,44.836,173.589z M62.448,189.238c0.61,0.625,1.577,2.815,1.361,3.083
	c-0.106,0.132-0.096,0.063-0.352-0.116c-1.395-1.393-8.559-7.774-14.535-11.354c-0.562-0.282-2.443-3.262-2.045-3.319
	C50.002,178.556,58.939,185.719,62.448,189.238z M49.521,182.116c0.104,0.008,0.291,0.141,0.611,0.318
	c5.497,3.044,13.465,10.709,14.975,12.552c0.344,0.567,0.885,1.609,0.846,2.248c-0.069,0.501-0.27,0.075-2.491-2.121
	c-3.571-3.511-7.68-6.908-12.033-9.763c-0.837-0.577-0.677-0.65-1.284-1.712C49.535,182.574,49.295,182.1,49.521,182.116z
	 M84.676,182.232c3.926,0.112,5.46,3.096,7.877,8.594c1.979,5.418,2.799,10.382,2.89,14.334c0.006,0.265-0.474,0.039-0.692-0.02
	c-1.051-0.283-2.359-0.548-3.875-0.163c-1.114,0.282-2.173,0.25-1.029-0.501c0.369-0.242,1.367-1.171,1.898-1.503
	c1.076-0.672,0.422-0.664-0.646-0.136c-0.809,0.399-1.349,0.906-1.683,0.986c-0.206,0.049-0.078-0.631,0.12-1.119
	c1.142-2.817,1.487-4.486-0.213-5.009c-0.46-0.142-1.08-0.569-1.373-0.854c-0.233-0.229-0.433-1.14-0.507-1.177
	c-0.078-0.039-0.133,0.831-0.131,0.963c0.005,0.453,0.584,1.37,1.279,1.872c1.183,0.852,1.416,1.087,0.774,3.103
	c-0.9,2.824-1.093,3.516-1.257,4.171c-0.096,0.377-0.279,1.018-0.372,1.433c-0.356,1.601-0.313,3-0.247,4.33
	c0.389,2.973,3.58,4.439,7.863,2.788c0.406-0.158,0.574-0.016,0.574-0.016c-3.412,3.484-7.242,5.711-9.474,12.751
	c-2.871-5.808-6.937-10.358-13.696-12.183l-0.1-1.212c2.357,1.135,6.929,2.679,9.83,0.942c1.554-1.064,1.081-1.751-0.805-1.017
	c-2.244,0.874-6.299,0.772-8.323-0.373c-0.412-0.233-0.832-0.032-0.951,0.008c-0.105-0.683-1.079-3.256-0.937-4.223
	c-0.084-0.136,0.616-0.142,0.751,0.038c0.56,0.751,3.403,2.986,6.358,2.812c1.469-0.087,2.677-0.535,3.953-1.887
	c0.106-0.095,0.627-0.163,0.697-0.243c0.113-0.128,0.031-0.319,0.027-0.389c-0.032-0.103-0.223-0.385-0.349-0.702
	c-0.165-0.278-0.198-0.567-0.171-0.791c0.004-0.186,0.127-0.284,0.223-0.413c0.11-0.249,0.08-0.565,0.019-0.734
	c-0.263-0.178-0.23-0.51-0.09-0.664c0.399-0.453-3.44-3.973-4.192-3.965c-0.271,0.004-0.111,0.506,0.441,0.874
	c1.951,1.302,3.374,3.001,3.051,3.224c-0.248,0.171-1.123-0.204-2.013-0.415c-1.786-0.42-3.93-0.688-6.257,0.997
	c-0.869,0.718-3.17,0.825-3.17,0.825c-0.029-1.258-5.324-15.306-5.335-14.695c1.927-2.255,7.979-7.594,14.045-9.895
	C81.328,182.365,83.332,182.052,84.676,182.232z M61.682,185.377l11.01,0.171c-2.769,1.398-7.798,6.416-7.798,6.416
	C63.455,189.058,63.015,187.607,61.682,185.377z M52.164,186.834c0.82,0.005,9.56,7.154,10.803,8.843
	c0.149,0.203,1.035,1.142,1.969,2.081c2.26,2.275,3.191,3.59,3.202,4.528c0.005,0.443-0.398,0.154-1.002-0.513
	c-4.526-5.049-7.472-7.79-13.065-11.661c-0.635-0.342-2.606-2.977-1.938-3.271L52.164,186.834z M82.057,188.15
	c-0.246-0.008-0.206,0.229-0.072,0.447c1.388,1.23,5.049,1.177,6.311,0.182c1.146-0.901-0.356-0.426-0.824-0.225
	c-1.094,0.471-2.267,0.418-3.79,0.012C82.793,188.329,82.303,188.159,82.057,188.15z M85.433,190.154
	c-1.28,0.013-2.618,0.398-2.32,0.87c0.108,0.173,0.459,0.495,1.296,0.039c1.208-0.601,3.689,0.187,3.764,0.206
	c0.253,0.066-0.825-0.714-1.188-0.874C86.585,190.219,86.015,190.149,85.433,190.154z M54.581,191.49
	c4.696,2.885,10.417,8.657,13.851,12.78c0.572,0.71,0.984,1.583,0.99,2.097c0.008,0.74-0.149,0.33-3.269-2.842
	c-2.446-2.513-6.138-5.933-8.583-7.774c-1.468-1.075-1.729-1.215-2.421-2.489C54.501,192.065,54.268,191.472,54.581,191.49z
	 M83.84,192.453c-0.883,0.422-2.055,0.332-3.195-0.062c-1.033-0.356-0.791-0.052-0.398,1.079c0.179,0.515,0.289,1.244,0.29,1.352
	c0.003,0.252,0.003,0.27,0.731-0.14c0.635-0.356,0.769-0.479,2.123-0.163c1.377,0.321,1.399,0.202,2.046-0.136
	c0.564-0.295,0.681-0.472,1.066-0.316c0.755,0.306,1.609,0.436,2.577-0.075c0.741-0.393,0.983-0.128,1.327,0.046
	c0.466,0.235,0.646,0.086,0.464-0.381c-0.072-0.186-0.209-0.982-0.213-1.234c-0.007-0.479-0.124-0.909-0.324-0.808
	c-0.74,0.373-1.342,0.771-2.048,0.758C86.991,192.35,85.855,191.568,83.84,192.453z M26.409,193.437
	c11.705,14.642,9.837,35.747,9.447,35.576l-9.447,0.04V193.437z M57.065,196.396c4.675,3.291,10.239,9.028,13.323,12.996
	c0.525,0.686,0.098,0.901,0.359,1.729c0.097,0.307-0.421-0.146-1.906-1.748c-1.851-1.995-4.894-4.996-6.896-6.737
	c-2.194-1.908-2.828-2.388-3.296-3.032C58.281,199.064,56.778,196.472,57.065,196.396z M83.379,197.742l-0.147,0.004
	c-1.664,0.079-2.509,1.951-1.083,3.274c0.537,0.497,1.388,0.791,1.385,0.523c-0.001-0.063-0.269-0.333-0.456-0.478
	c-1.188-0.917-1.066-2.346,0.286-2.36c0.469-0.006,0.498,0.162,1.582,0.943c1.274,0.919,2.779,0.92,2.762-0.004
	c-0.014-0.679-0.266-1.374-1.404-1.262c-0.299,0.029-0.698,0.062-1.049-0.027c-0.335-0.085-0.621-0.291-0.754-0.35
	C84.104,197.83,83.725,197.748,83.379,197.742z M60.104,202.053c3.577,2.411,8.493,7.863,11.005,11.079
	c0.576,0.753,0.614,1.587,0.382,2.035l-0.495-0.187c-2.905-3.435-6.199-6.557-9.434-9.728
	C61.563,205.253,59.642,202.15,60.104,202.053z M94.78,207.269l-0.772,0.386c-1.172-1.763-2.242-1.787-3.139,0.272l-0.576-0.146
	C89.865,207.307,91.835,202.83,94.78,207.269z M94.607,205.766c0.322,0.012,0.886,0.187,1.017,0.517
	c0.147,0.304-0.019,0.648-0.46,0.633c-0.067-0.002-0.495-0.529-0.708-0.852C94.299,205.867,94.366,205.759,94.607,205.766z
	 M81.471,207.922l-0.865,0.04c-1.647-2.174-2.879-0.715-3.617,0.192l-0.926-0.127C76.21,205.641,80.412,204.81,81.471,207.922z
	 M89.885,206.065c0.13,0.003,0.258,0.027,0.379,0.074c-0.341,0.519-0.399,0.952-0.477,1.421c-0.336,0.141-0.814,0.432-1.172,0.059
	C87.953,207.015,88.973,206.048,89.885,206.065z M76.375,206.31c0.407,0.001,0.285-0.025,0.108,0.203
	c-0.179,0.232-0.424,0.645-0.555,1.014c-0.056,0.257-0.098,0.35-0.338,0.358c-0.457,0.015-1.383-0.149-1.376-0.143
	C73.862,207.408,75.318,206.345,76.375,206.31z M81.606,206.613c0.272-0.033,0.208,0.358,0.121,0.512
	c-0.173,0.204-0.241,0.271-0.337,0.016c-0.047-0.122-0.118-0.219-0.177-0.292c-0.135-0.174-0.119-0.183,0.048-0.212
	C81.336,206.623,81.511,206.615,81.606,206.613z M95.74,208.348c1.008-0.026,0.334,1.689-1.067,2.105
	c-1.548,0.787-3.323,0.599-5.129-0.436c-1.03-0.59-1.343-1.211-0.444-0.963c3.381,0.936,4.203,0.762,6.244-0.563
	C95.465,208.388,95.594,208.362,95.74,208.348z M63.199,207.977c3.367,2.863,5.901,6.107,8.594,9.098
	c0.537,0.666,0.788,1.308,0.685,1.743c-0.129,0.541-1.233-0.749-1.233-0.749l-6.573-7.062
	C64.671,211.007,62.996,207.991,63.199,207.977z M73.261,208.966c0.233,0.008,0.698,0.116,1.446,0.311
	c3.239,0.985,4.22,0.949,6.081,0.091c1.187-0.547,1.677-0.468,1.169,0.354c-0.935,1.513-4.234,1.681-6.712,0.836
	c-0.656-0.224-1.232-0.616-1.864-1.091C73.042,209.112,72.96,208.955,73.261,208.966z M88.198,209.968
	c0.194-0.013,0.556,0.211,0.995,0.462c2.713,1.544,4.717,1.261,6.389,0.225c0.302-0.276,0.466-0.144,0.506,0.125
	c0.143,0.94,0.185,1.616-0.243,2.069c-0.249,0.264-0.673,0.383-1.312,0.598c-2.627,0.888-5.824,0.254-6.437-1.725
	C87.897,210.704,87.771,209.995,88.198,209.968z M66.668,214.212h0.031c0.189,0.028,0.628,0.413,1.318,1.2
	c3.611,4.112,5.609,6.476,5.245,7.665c-0.033,0-0.057,0.257-0.209,0.124c-1.986-1.722-3.607-3.604-4.815-5.572
	C66.915,215.473,66.371,214.237,66.668,214.212z M95.783,217.105c-3.048,2.34-6.744,7.908-7.076,10.651
	c-0.063,0.524-0.008,0.917-0.201,1.106c-0.153,0.151-0.498,0.165-0.959,0.074c-0.283-0.052-0.216-0.084-0.283-0.404
	c-0.262-1.255,0.937-4.415,3.416-8.14c1.301-1.953,4.256-4.592,5.08-4.609C96.311,216.012,95.776,217.131,95.783,217.105z
	 M73.217,215.835c0.215-0.006,0.548,0.106,1.013,0.307c2.735,1.179,3.757,1.606,5.527,3.057c3.3,2.701,6.968,9.115,5.891,9.716
	c-0.473,0.264-0.808,0.098-1.001-0.498c-0.035-0.108-0.381-1.008-0.794-1.77c-2.212-4.082-5.089-6.889-9.144-8.874
	c-1.498-0.732-1.65-0.651-1.764-1.266C72.859,216.046,72.939,215.843,73.217,215.835z M95.738,218.192
	c0.274-0.023,0.34,0.479,0.247,1.489c-0.075,0.824-0.125,0.807-1.04,1.772c-1.462,1.188-3.191,3.98-3.991,6.823
	c0.001,0.099-0.074,0.315-0.213,0.435c-0.376,0.324-0.851,0.166-1.176,0.159c-0.233-0.125-0.169-0.639-0.128-0.928
	c0.67-2.581,2.316-5.751,4.896-8.536C95.061,218.625,95.497,218.213,95.738,218.192z M73.785,218.266
	c1.448-0.033,6.596,3.828,8.68,7.208c1.361,2.209,1.729,3.115,1.415,3.437c-0.166,0.17-0.897,0.197-1.28,0.047
	c-0.348-0.138-0.481-0.67-1.133-1.899c-1.701-3.208-4.15-5.533-6.804-6.761c-0.494-0.229-0.758-0.373-0.917-0.551
	C73.568,219.379,73.34,218.343,73.785,218.266z M74.566,221.136c0.449,0.085,1.694,0.896,2.734,1.662
	c1.84,1.355,4.64,5.499,4.061,6.093c-0.186,0.19-0.828,0.198-1.158,0.067c-1.97-3.521-4.527-5.196-5.565-6.175
	C74.322,222.252,73.587,220.999,74.566,221.136z M70.474,221.757c0.085-0.021,0.431,0.319,1.056,0.979
	c1.85,1.949,3.021,4.109,2.75,5.2c-0.229,0.923-0.498,0.417-2.614-3.635C70.775,222.595,70.35,221.789,70.474,221.757z
	 M95.766,221.812c0.042,1.121-0.048,1.397-0.166,1.992c-0.081,0.405-0.348,0.593-0.6,0.908c-0.629,0.786-1.343,2.146-1.702,3.243
	c-0.302,0.886-0.16,1.098-1.245,0.979c-0.506-0.066-0.385-0.204-0.186-0.788C92.551,226.225,94.191,223.113,95.766,221.812z
	 M74.754,223.924c0.023-0.575,4.961,4.414,4.282,4.976c-0.643,0.113-1.025,0.137-1.294-0.093c-0.527-1.188-2.878-3.438-2.878-3.438
	L74.754,223.924z M95.491,225.497h0.03c0.221,0.045,0.1,3.113-0.084,3.366c-0.352,0.179-1.018,0.194-1.374,0
	c-0.217-0.118-0.283-0.337-0.2-0.574C94.067,227.695,95.137,225.57,95.491,225.497z M76.857,228.871
	c-0.156,0.244-1.116,0.287-1.479,0.012c-0.116-0.088-0.229-1.61-0.095-1.886C75.652,226.756,76.979,228.543,76.857,228.871z"/>
<path d="M111.977,20.412l0.619,0.815l-3.617,0.02c0.592,0.501,13.991,27.573,31.125,58.852c2.836,5.489,8.246,7.468,14.527,7.708
	l-16.64-26.903c1.772-0.969,5.291-3.563,7.419-3.082c0.132,0.656,0.764,0.396,0.773-0.188l0.77,0.016l0.271,0.423h3.233l0.265-0.383
	l2.787,0.402c-7.448-9.219-11.378-23.425-10.103-37.291l-24.704,0.054l-0.329-0.435L111.977,20.412z M108.979,21.247h-0.023H108.979
	z M80.577,39.293c-2.809,9.105-9.754,16.598-13.878,24.143c-4.421,8.231-5.46,15.395-4.216,23.229l0.809,0.07
	c9.425-12.908,16.724-28.33,20.809-43.496c0.089-0.33-0.063-0.913,0.012-1.248c-0.175-0.4-0.021-0.834,0.089-0.951
	c0.237-0.251,0.149-1.235-0.027-2.862c-0.444-4.832-0.357-8.626,0.045-13.006c0.311-3.363,0.293-3.893,0.293-3.893l-1.613-0.024
	C83.195,26.979,82.442,34.033,80.577,39.293z M119.375,21.644l2.651,0.055c0.409,8.134,7.232,9.192,8.288,9.073
	c-1.742,5.501,1.142,11.538,8.088,12.396c-1.594,5.1,1.227,11.822,6.783,11.64l0.588,0.373c-0.358,0.734-0.436,2.244-0.414,2.268
	c-1.235,0.091-1.905,0.271-2.707,0.431C135.471,47.007,119.375,21.644,119.375,21.644z M142.938,21.644
	c-0.804,9.087,1.013,21.567,5.264,28.941c0,0-0.136,0.495-0.224,0.63c-0.405,0.612-0.605,0.082-0.852-0.412
	c-0.905-1.68-2.615-1.94-3.365-1.006c-1.654,2.264,0.14,3.157,1.532,4.436c-5.69-0.349-7.588-6.637-6.272-9.748
	c-0.029,0.594,0.287,1.489,0.704,2.124c1.6,2.436,3.936,0.381,3.266-1.546c-0.276-0.797-1.297-2.126-1.297-2.126
	s1.386-0.205,1.952-0.549c0.529-0.33,0.863-0.914,0.727-1.713c-0.109-0.641-0.137-0.921-0.479-1.499
	c-0.42-0.525-1.172-0.89-1.774-0.85c-1.174,0.079-1.317,0.891-2.086,1.446c-0.191-1.462-1.123-2.574-2.646-2.298
	c-1.157,0.211-1.992,1.447-1.282,2.995c0.358,0.791,0.862,1.03,1.368,1.716c-8.177-0.919-7.285-10.668-6.381-10.493
	c0,0,0.246-0.046,0.174,0.327c-0.467,2.385,2.484,3.811,3.778,2.077c0.825-1.406-0.946-3.626-0.946-3.626s1.18-0.254,1.715-0.564
	c2.135-1.236-0.141-4.788-2.127-3.916c-0.697,0.319-0.875,0.968-1.555,1.313c-0.455-0.508-0.482-1.063-1.301-1.521
	c-2.242-1.253-3.644,1.712-2.402,3.017c0.51,0.528,1.407,1.011,1.231,1.075c-6.952-0.881-6.884-8.186-6.726-8.135L142.938,21.644z
	 M83.183,21.704h0.957c-0.284,4.333-0.896,10.051-0.495,14.276c0.468,4.036,0.488,4.609,0.201,5.01
	c-0.396,0.444-0.187,0.654-0.108,1.017c0.104,0.664,0.113,0.671,0.02,1.048c-0.843,3.389-1.92,6.9-3.288,10.451
	C75.995,65.89,68.697,79.393,62.973,86.475l-0.266-0.003c-1.566-9.882,1.781-18.118,3.528-21.499
	c3.542-6.854,9.106-12.703,12.411-19.884C81.458,38.979,83.532,31.636,83.183,21.704z M118.4,21.662l23.315,36.402l-4.255,2.094
	l-23.86-38.363L118.4,21.662z M132.065,28.772c0.604,0,1.091,0.493,1.091,1.1c0,0.605-0.486,1.099-1.091,1.099
	c-0.604,0-1.095-0.493-1.095-1.099C130.971,29.266,131.462,28.772,132.065,28.772z M139.798,40.912c0.61,0,1.106,0.497,1.106,1.11
	s-0.496,1.111-1.106,1.111c-0.611,0-1.106-0.498-1.106-1.111S139.187,40.912,139.798,40.912z M84.244,43.08
	c0.398,1.586-7.399,25.395-18.48,40.545l4.838,0.101l0.15,0.536c6.778,10.049,2.539,18.938-2.935,23.066l1.896,2.536l-1.706,1.386
	l-1.706-2.038c-13.871,10.446-40.94,33.571-40.94,33.571l0.15,3.708l2.112-1.67c13.73,13.345,42.847,12.615,50.482-14.931
	l2.047,0.047c-4.619,20.189-23.412,28.092-37.596,24.744l-3.322,4.792l0.889,0.478c-0.164-0.256-0.314-0.344-0.073-0.579
	l2.823-3.646c21.222,2.729,34.034-9.33,38.191-25.665l2.707,0.046c-2.322,13.722-8.729,25.803-17.865,35.257
	c-6.593-0.026-18.187-0.179-18.187-0.179c4.222,4.106,12.284,16.639,12.605,17.91c0,0,8.293,0.265,17.188,0.047
	c3.261-1.474,7.624-2.064,9.662-1.033c3.58,1.812,6.946,8.534,8.459,19.319c0.39,2.778,0.743,3.956,0.851,4.517
	c0.02,0.101,0.263,0.174,0.298,0.155c0.137-0.073-0.217,0.491-0.232,0.908c-0.015,0.418-0.001,1.048,0.197,1.267
	c0.252,0.276,0.221,0.459,0.187,0.578l-0.507,0.528c-0.072,6.283-0.037,11.987-0.379,19.716l1.229,0.008
	c-0.009-12.436,3.729-23.942,9.488-31.863c3.501-5.198,7.206-10.801,9.255-16.135c2.307-6.005,2.625-12.314,1.389-17.638
	l-0.843,0.046c-5.065-3.485-7.129-10.927-0.89-16.243l-2.209-2.886c-6.23,4.837-7.662,13.76-1.206,21.145l-2.526-0.008
	c-6.299-7.893-4.903-16.955,2.375-23.424l-1.628-2.077l1.771-1.566l1.597,1.755l40.634-34.086l-0.029-3.73l-3.114,2.535
	c-18.227-16.918-45.256-5.046-49.22,15.332l-2.477,0.026c5.194-21.93,24.335-28.127,38.181-25.211l3.417-5.189
	c-2.514-0.709-4.965-2.384-7.279-4.363c-0.975-0.834-1.59-1.345-2.299-2.18c-6.559-6.958-11.01-16.62-11.219-16.637l-17.831-0.044
	c-2.616,1.299-7.097,2.775-9.555,0.783c-5.278-4.28-7.05-12.914-7.775-18.47c-0.22-1.729-0.406-4.737-0.568-5.735
	C84.615,43.06,84.421,43.049,84.244,43.08z M147.464,52.683c0.597,0,1.079,0.488,1.079,1.087c0,0.6-0.482,1.084-1.079,1.084
	s-1.079-0.484-1.079-1.084C146.385,53.171,146.867,52.683,147.464,52.683z M149.784,53.96c0.879,1.144,1.659,2.322,2.097,3.568
	c-0.41-0.013-0.795,0.115-1.251-0.241c-0.105-1.259-0.622-2.015-1.271-2.854L149.784,53.96z M146.523,55.563
	c0.361,0.178,0.646,1.545,0.395,1.779c-0.434,0.093-0.729,0.062-0.876-0.091C145.824,56.892,146.236,55.634,146.523,55.563z
	 M75.607,67.439l16.554,0.019c2.88,2.217,5.695,1.924,9.782,0.146h18.406l1.041,1.896H74.71
	C74.97,68.796,75.607,67.439,75.607,67.439z M74.242,70.402h47.64l1.203,1.945H73.063L74.242,70.402z M78.841,73.229h5.345
	l-1.98,3.375h-5.516L78.841,73.229z M90.707,73.229h5.102L93.538,76.6h-5.055L90.707,73.229z M107.207,73.229l-2.146,3.371h-5.187
	l2.228-3.34L107.207,73.229z M113.604,73.229h5.109l-1.911,3.371h-5.291L113.604,73.229z M44.975,73.753
	c-3.313-0.038-2.698,4.373-2.386,4.235c-2.08-0.479-3.616,0.514-3.873,2.293c-0.203,1.411,1.171,3.424,3.573,3.143
	c-0.318,0.37,0.007,2.505,0.326,2.699c0,0,0.041,0.31-1.227,2.966c-1.506,3.152-1.813,3.302-2.495,1.23
	c-0.733-2.228-1.868-3.355-4.823-4.796c-0.787-0.384-1.9-1.053-2.476-1.487c-1.319-0.998-1.335-0.982-1.272,1.045
	c0.081,2.632,0.876,3.786,3.675,5.339c1.37,0.761,3.992,1.835,4.468,1.829c0.334-0.003,1.561,0.55,3.38,1.522
	c0.355,0.19,1.571,0.862,3.129,1.014c1.653,0.117,5.376-0.274,7.534-1.526c1.212-0.702,1.68-1.33,2.572-3.126
	c0,0-3.059,0.159-4.455-0.209c-2.904-0.172-4.347-0.003-6.549,1.146c-1.842,0.96-1.944,1.132-1.176-0.455
	c0.352-0.729,0.679-1.585,0.975-2.438c0.321-0.849,0.406-0.92,1.211-1.002c1.767-0.181,2.772-1.204,2.936-2.979
	c0.044-0.476-0.026-0.978-0.026-0.978c1.202,0.178,3.663-0.42,3.586-2.921c-0.069-2.249-1.665-2.766-3.631-2.92
	C48.203,76.225,47.365,73.78,44.975,73.753z M45.016,74.451c2.902,0.021,2.834,2.695,1.569,4.213l-1.544-1.275l-1.245,1.153
	C42.44,77.673,42.445,74.433,45.016,74.451z M124.435,74.483l1.427,2.116h-2.947L124.435,74.483z M70.242,77.523h5.465l-2.192,3.096
	h-5.167C68.348,80.619,69.504,78.643,70.242,77.523z M87.47,77.523l-2.065,3.216h-4.777l1.915-3.149L87.47,77.523z M93.871,77.523
	h4.939l-1.953,3.43h-4.882L93.871,77.523z M105.494,77.523h5.001l-2.034,3.43h-4.932L105.494,77.523z M116.822,77.523h5.152
	l-2.127,3.43h-4.967L116.822,77.523z M45.086,78.161l2.456,2.485l-2.394,2.407l-2.469-2.369L45.086,78.161z M51.313,80.582
	c-0.435,2.887-3.206,2.729-3.993,1.317l1.129-1.293l-1.384-1.364C48.408,77.077,51.643,78.401,51.313,80.582z M43.066,79.2
	l-1.327,1.502l1.457,1.405c-0.938,1.31-4.546,1.206-3.823-1.945C39.833,78.161,41.86,77.793,43.066,79.2z M127.25,78.833
	l1.521,2.097l-2.851,0.023L127.25,78.833z M67.972,81.407l61.116,0.198l1.636,2.008c-21.339,0.369-42.233-0.345-64.032-0.361
	L67.972,81.407z M46.484,82.712c2.422,1.491,0.634,4.634-1.966,4.1c-1.938-0.854-2.334-2.871-0.591-4.043l1.365,1.131L46.484,82.712
	z M67.442,83.916l-1.667,0.008L64.15,85.83c6.141,6.495,5.915,12.129,0.193,17.04l2.302,2.587
	C73.063,99.944,74.486,91.283,67.442,83.916z M73.75,84.164c3.443,5.4,6.42,15.628-3.836,24.997l-1.238-1.507
	c8.93-8.756,6.831-16.119,2.831-23.424L73.75,84.164z M74.706,84.297l13.878,0.054c-2.971,11.367-5.056,18.061-5.369,35.843
	l-4.011,0.023c0.437-0.409-2.077-10.736-5.009-14.317C80.344,95.417,77.031,89.505,74.706,84.297z M31.054,84.312
	c0.239-0.002,0.731,0.311,1.694,0.89c0.863,0.521,1.986,1.178,2.494,1.464c1.906,1.073,2.854,2.086,3.396,3.631
	c0.406,1.157,0.152,1.18-1.014,0.09c-0.867-0.812-1.792-1.51-4.104-3.1c-0.814-0.56-1.072-0.468-0.6,0.214
	c0.34,0.491,1.072,1.05,2.557,1.957c1.076,0.659,2.557,1.977,2.44,2.171c-0.106,0.177-0.29,0.162-0.809-0.065
	c-0.239-0.105-1.014-0.425-1.717-0.711c-3.022-1.231-4.313-2.744-4.495-5.258C30.836,84.718,30.782,84.314,31.054,84.312z
	 M94.385,84.366c0,0,0.419,0.554,0.473,0.784c0.116,0.499-0.371,0.957-1.907,1.643c-0.526,0.236-0.966,0.363-0.951,0.672
	c0.07,0.726,1.453,1.832,1.284,2.819c-0.318,0.756-2.239,1.498-2.719,2.389c0.003,0.613,1.249,1.551,1.07,2.384
	c-0.097,0.249-0.499,0.503-1.094,1.021c-1.219,1.062-1.295,1.225-0.848,2.051c1.039,1.92,1.077,1.778-0.34,3.142
	c-1.429,1.374-1.402,1.356-0.72,2.551c0.735,1.288,0.702,1.229-0.286,2.055c-0.969,0.809-0.929,0.973-0.41,1.977
	c0.502,0.971,0.616,0.984-0.229,1.736c-0.986,0.877-1.171,0.97-0.476,2.073c0.72,1.142,0.772,1.094-0.038,2.027
	c-0.769,0.884-0.857,0.925-0.441,1.526c0.523,0.755,0.623,0.955,0.074,1.786c-0.594,0.897-0.591,0.834-0.047,1.67
	c0.458,0.703,0.379,1.487,0.379,1.487l-1.717-0.004c0,0-0.013-0.991-0.213-1.355c-0.486-0.884-0.475-1.158,0.104-1.941
	c0.593-0.805,0.494-0.874-0.059-1.678c-0.56-0.814-0.479-0.806,0.248-1.732c0.666-0.85,0.7-1.25,0.321-1.735
	c-0.898-1.15-0.896-1.636,0.007-2.396c0.69-0.58,0.754-0.839,0.159-1.833c-0.583-0.973-0.656-1.062,0.414-2.03
	c1.093-0.991,1.081-0.971,0.348-2.094c-0.711-1.089-0.674-1.162,0.468-2.225c1.155-1.076,1.171-1.078,0.414-2.436
	c-0.708-1.27-0.714-1.248,0.669-2.485c1.377-1.151,1.846-1.298,0.473-2.951c-0.766-1.311-0.221-1.439,1.036-2.093
	c2.204-1.352,1.2-1.268,0.274-3.273c-0.773-1.345-0.332-1.354,1.018-2.027c0.334-0.145,0.706-0.311,1.087-0.524
	c0.901-0.505,0.413-0.967,0.413-0.967L94.385,84.366z M97.267,84.397l6.626,0.085c-7.68,9.846-11.375,22.438-12.702,35.723
	l-2.503-0.038C88.531,109.792,91.782,96.831,97.267,84.397z M131.287,84.628c3.789,3.203,6.598,5.036,8.596,5.759
	c0,0-2.672,4.452-2.878,4.29c-15.371-2.973-33.649,6.025-37.784,25.424l-2.422,0.016c0.895-7.612,2.89-13.97,6.563-20.601
	c3.646-6.439,7.004-10.203,12.069-14.945L131.287,84.628z M104.844,84.464l3.265,0.058c0,0,0.612,0.739,0.89,1.006
	c1.409,1.604,1.53,1.285-1.574,3.045c-1.961,1.111-2.829,1.627-2.943,2.093c-0.088,0.469,0.855,1.4,0.967,2.027
	c0.001,0.07-2.665,1.862-3.148,2.116c-0.673,0.327-0.707,0.609-0.039,1.774c0.769,1.34,0.707,1.293-0.951,2.454
	c-1.616,1.133-1.934,1.021-1.245,2.147c0.956,1.565,0.507,1.919-1.745,3.138c-0.568,0.309-0.582,0.617-0.186,1.686
	c0.553,1.484,0.695,1.336-0.468,2.14c-1.373,0.95-1.615,0.976-1.312,1.558c0.885,1.689,1.236,2.101,0.055,2.652
	c-0.9,0.421-0.92,0.659-0.422,1.774c0.501,1.121,0.631,1.076-0.259,1.709c-0.824,0.585-1.31,0.455-0.507,1.413
	c0.635,0.758,0.578,1.356,0.063,1.821c-0.445,0.189-0.652,1.038-0.522,1.057l-1.146,0.031c-0.896-1.214,0.162-1.908,0.321-2.027
	c0.146-0.279-0.032-0.478-0.395-1.134c-0.498-0.905-0.48-1.013,0.236-1.542c0.724-0.534,0.745-0.396,0.263-1.576
	c-0.561-1.374-0.535-1.53,0.348-2.167c0.869-0.627,0.881-0.767,0.291-1.969c-0.623-1.27-0.624-1.27,0.92-2.299
	c1.086-0.725,1.102-0.682,0.526-2.023c-0.397-0.928-0.116-1.248,1.361-2.265c0.845-0.58,0.908-0.694,0.511-1.386
	c-1.096-1.906-1.084-1.964,0.805-3.192c1.545-1.005,1.531-1.092,0.936-2.431c-0.646-1.451-0.703-1.339,1.416-2.613
	c1.744-1.05,1.839-0.989,1.121-2.253c-0.893-1.571-0.836-1.314,2.653-3.316c1.259-0.865,2.394-0.565,1.142-2.038
	C105.52,85.225,104.844,84.464,104.844,84.464z M43.222,87.05c0.241-0.009,0.431,0.29,0.418,0.843
	c-0.043,0.779-0.41,1.552-0.763,2.326c-0.737,1.577-1.473,2.745-1.859,2.749c-0.912,0.011-0.888-0.195,0.324-2.574
	c0.554-1.087,1.125-2.327,1.215-2.567C42.752,87.306,43.009,87.058,43.222,87.05z M54.438,90.622
	c0.017,3.341-10.419,5.024-10.96,3.338c1.818-1.43,7.197-0.795,8.336-2.074c-1.374-0.08-3.234,0.147-4.51,0.171
	c-1.59,0.028-4.16,0.711-4.186,0.993c-0.167-0.88,2.73-2.529,5.026-2.633C50.291,90.323,52.622,90.578,54.438,90.622z
	 M55.332,95.721c0,0-20.348,16.904-30.405,25.083l0.062,3.646l32.188-26.457L55.332,95.721z M55.266,96.556l1.3,1.585
	l-30.215,24.717l-0.108-2.59L55.266,96.556z M150.773,105.229l-1.086,1.164c-29.512-22.046-56.688,11.428-41.703,35.373
	c-0.136,0.309-1.178,1.073-1.178,1.073C90.104,115.04,122.063,82.512,150.773,105.229z M134.533,100.4
	c1.676,0.013,4.759,1.168,6.061,2.742c1.517,1.832,1.076,2.648-0.851,0.92c-2.07-1.511-3.78-1.86-0.905-0.078
	c0.635,0.394,1.205,1.162,1.234,1.247c0.105,0.307-0.426-0.015-2.835-0.897c-1.433-0.524-3.249-1.942-3.722-2.908
	C133.163,100.703,133.656,100.394,134.533,100.4z M128.322,100.451c0.521-0.005,0.987,0.036,1.318,0.132
	c2.111,0.608,2.775,0.928,3.563,1.542c0.538,0.42,0.365,0.723-0.26,0.454c-0.728-0.313-3.033-1.002-3.445-0.959
	c-0.6,0.062,0.001,0.455,0.862,0.672c1.907,0.479,2.854,0.973,1.493,0.994c-0.711,0.105-3.818,0.115-4.665,0.016
	c-1.414-0.168-3.532-1.463-3.044-1.927C124.671,100.875,126.754,100.464,128.322,100.451z M122.269,102.443
	c2.503,0.029,3.857,0.968,1.122,1.157c-4.703,0.747-5.607,1.774-0.395,0.551c1.213-0.284,1.189,0.155,0.352,0.567
	c-0.686,0.334-1.542,0.499-2.255,0.847c-1.286,0.537-4.231,0.656-5.38,0.218C114.018,105.136,119.34,102.408,122.269,102.443z
	 M142.408,102.87c1.265,0.033,3.963,1.874,5.164,3.6c0.785,1.129,0.394,1.939-0.793,1.033c-0.238-0.181-1.942-1.636-2.035-1.67
	c-0.159-0.059,1.414,1.441,1.645,1.864c0.197,0.358,0.651,1.179-0.197,1.196c-1.326-0.164-4.44-3.657-4.46-5.383
	C141.727,103.05,141.986,102.859,142.408,102.87z M126.717,103.853c0.526-0.017,0.258,0.264-0.743,0.971
	c-1.805,1.276-0.863,1.021,1.245-0.069c0.642-0.331,1.415-0.591,1.688-0.641c0.271-0.051,0.595-0.125,0.719-0.163
	c0.567-0.175,0.13,0.527-0.793,1.27c-1.941,1.563-4.133,2.789-5.646,3.165c-1.93,0.479-2.338,0.541-1.625-0.668
	c1.133-1.921,2.783-3.457,4.359-3.755C126.274,103.895,126.541,103.858,126.717,103.853z M133.207,103.884
	c0.803-0.016,1.796,0.151,3.361,0.489c1.1,0.345,0.812,0.419-0.507,0.563c-2.479,0.271-1.448,0.563,0.963,0.521
	c3.288-0.025-1.647,1.189-3.249,1.433c-1.249,0.056-1.615,0.011-4.34-0.501c-1.038-0.195-0.415-0.959,1.551-1.903
	C131.791,104.1,132.403,103.9,133.207,103.884z M153.532,104.33l0.089,2.129l-39.819,33.427l-1.354-1.503L153.532,104.33z
	 M139.983,106.159c1.588-0.021,3.882,1.085,3.636,1.752c-0.092,0.248-0.27,0.238-1.481-0.086c-0.796-0.212-2.22-0.437-2.03-0.26
	c0.064,0.061,1.177,0.487,1.601,0.59c1.403,0.339,3.083,1.135,2.712,1.371c-0.65,0.397-1.246,0.087-2.016,0.004
	c-1.926-0.269-5.088-1.245-5.608-1.732C136.206,107.245,138.274,106.183,139.983,106.159z M121.41,106.284
	c0.286,0.015,0.393,0.282,0.119,0.648c-0.414,0.549-0.605,1.01-0.979,1.685c-1.33,2.064-2.17,2.882-3.449,3.682
	c-1.28,0.801-1.463,0.663-1.351-1.002c0.144-1.729,1.376-3.546,3.118-4.399c0.804-0.114,1.265-0.327,0.421,0.688
	c-1.496,1.799-0.472,1.615,0.925-0.428C120.658,106.508,121.123,106.269,121.41,106.284z M116.238,106.524
	c0.863-0.004,1.152,0.303,0.047,0.823c-1.053,0.496-3.147,1.967-3.199,2.128c-0.087,0.274,0.697-0.155,2-0.87
	c1.741-0.954,1.895-0.932,1.052,0.16c-0.952,1.233-3.242,2.779-5.04,3.351c-2.515,0.691-2.453,0.208-1.048-1.666
	c1.34-2.037,2.478-3.009,4.192-3.564C114.994,106.642,115.721,106.527,116.238,106.524z M73.584,106.835
	c9.125,15.8,4.06,31.853-6.527,40.039c-11.067,8.56-28.287,8.051-38.447-2.221l1.409-1.337c-0.007,0.007,16.018,16.392,36.2,1.848
	c10.242-7.381,14.473-24.811,6.023-36.962L73.584,106.835z M32.709,106.87l-0.069,0.016c-0.308,0.2-1.466,3.612-1.698,5.028
	c-0.068,0.415,0.032,0.821,0.371,1.154c0.238,0.233,0.624,0.082,0.742,0.034c0.772-0.351,1.197-0.888,1.873-2.59
	c0.452-0.932,0.515-2.046,0.425-2.435c-0.036-0.158-0.286-0.525-0.6-0.734C33.406,107.112,32.916,106.869,32.709,106.87z
	 M32.887,107.581c0.365-0.004,1.088,0.593,1.176,1.018c0.007,0.74-0.416,1.973-0.73,1.79c-0.527-0.657-1.134-0.243-1.234-0.481
	c-0.067-0.729,0.398-1.684,0.72-2.318L32.887,107.581z M131.439,108.171c4.057,0.001,8.092,1.194,11.054,3.829l-1.582,1.456
	c-6.948-4.973-15.036-3.518-19.83-0.163c-4.745,3.321-8.945,10.672-4.831,21.024l-1.485,1.352
	c-4.61-8.327-2.136-19.333,6.022-24.539c2.877-1.836,6.562-2.886,10.258-2.955C131.176,108.173,131.309,108.171,131.439,108.171z
	 M71.438,109.387c0.123,0,0.311,0.404,0.29,0.9c-0.024,0.596-0.275,1.373-0.677,1.538c-0.453,0.186-0.738-1.169-0.738-1.169
	C70.59,110.215,70.97,109.765,71.438,109.387z M144.083,109.853c0.165-0.009,0.325-0.002,0.464,0.016
	c0.453,0.057,0.457,0.463,0.031,0.854c-0.46,0.422-0.7,0.444-1.164,0.104c-0.414-0.303-0.436-0.526-0.077-0.784
	C143.523,109.923,143.808,109.866,144.083,109.853z M66.154,109.945l1.346,1.666l-4.664,3.768l-0.558,0.042L26.57,145.109
	l-0.008-2.637L66.154,109.945z M140.762,113.965l-4.862,4.029c-9.721-5.07-17.515,3.965-14.765,12.171l-4.206,3.665
	C109.406,113.104,131.406,106.012,140.762,113.965z M115.299,110.8h0.043l0.096,0.063c0.17,0.167-0.168,2.915-0.421,3.425
	c-0.093,0.186-0.164,0.425-0.163,0.532c0.003,0.226-0.895,2.111-1.597,3.355c-0.265,0.469-0.548,1.084-0.627,1.37
	c-0.563,2.722-1.779-1.654-1.35-4.193c0.201-1.194,1.889-3.658,2.378-3.476c0.25,0.093,0.232,0.281-0.204,1.234
	c-1.219,2.661-1.524,4.034-0.244,1.46C114.686,111.604,115.07,110.842,115.299,110.8z M32.686,110.854
	c0.181,0.01,0.324,0.11,0.402,0.322c0.055,0.181,0.112,0.555,0.012,0.737c-0.249,0.564-0.766,0.936-1.288,0.901
	c-0.229-0.015-0.479-0.218-0.511-0.466c-0.027-0.225,0.027-0.607,0.31-0.897C31.982,111.07,32.385,110.837,32.686,110.854z
	 M69.709,111.025c0.576,0.028,1.183,1.584,0.797,2.295c-0.316,0.582-0.375,0.474-0.929-0.652c-0.291-0.592-0.515-1.228-0.515-1.228
	l0.473-0.372l0.119-0.039L69.709,111.025z M68.738,111.682c0,0,0.605,1.103,0.754,1.98c0.09,0.536,0.075,0.436-0.511,0.214
	c-0.462-0.29-0.563-0.458-0.851-0.819c-0.189-0.335-0.379-0.583-0.379-0.583L68.738,111.682z M72.381,111.918
	c0.307-0.01,0.636,0.301,0.937,1.061c1.13,2.854,1.026,6.057-0.243,7.568c-0.211,0.251-0.263,0.262-0.516,0.105
	c-0.206-0.128-0.226-1.484-0.026-1.868c0.063-0.12,0.249-0.939,0.263-1.402c0.033-1.096-0.267-1.233-0.41-0.217
	c-0.166,1.174-0.346,1.995-0.665,1.289c-0.16-0.358-0.241-0.717-0.363-1.099C70.721,114.888,71.462,111.95,72.381,111.918z
	 M67.457,112.648c0,0,1.088,1.41,1.536,1.914c0.158,0.272,0.151,0.343-0.101,0.439c-0.431,0.165-1.87-0.798-2.44-1.096
	c-0.308-0.246-0.175-0.435-0.175-0.435C66.671,113.174,67.064,112.882,67.457,112.648z M110.359,112.699
	c0.58-0.007,0.581,0.196-0.039,1.091c-3.459,4.997-2.761,4.255-0.561,1.522c1.224-1.52,1.437-1.664,1.57-1.324
	c0.101,0.255-1.354,3.212-2.107,4.283c-0.39,0.554-1.719,1.479-2.391,1.821c-1.646,0.836-1.463,0.5-0.854-1.572
	C106.753,115.304,108.701,112.718,110.359,112.699z M65.427,114.427c9.484,23.679-16.486,34.072-28.204,23.121l1.365-1.091
	c16.301,11.1,32.389-6.682,25.025-20.597C63.613,115.86,64.28,115.303,65.427,114.427z M67.624,115.002
	c1.562,0.16,3.867,3.027,3.983,4.625c0.247,1.135-0.072,1.329-0.626,0.532c-0.936-1.734-0.823-0.636-0.027,1.087
	c0.423,0.87,0.521,1.913,0.081,1.969c-0.601-0.122-1.9-2.202-2.297-3.06c-0.947-1.88-1.017-1.561-1.536-4.346
	C67.105,115.287,67.24,115.006,67.624,115.002z M62.905,115.778c7.224,13.91-8.317,30.623-24.124,19.82l4.738-3.774
	c8.25,3.974,17.454-0.955,14.817-12.376L62.905,115.778z M134.975,118.372l-13.032,10.902
	C119.261,120.237,129.107,115.075,134.975,118.372z M110.77,118.35c0.426-0.09,0.787,2.647,0.866,6.488
	c0.077,3.758,0.173,4.129-0.99,2.746c-0.487-0.564-1.087-1.103-1.354-1.608c-0.772-1.466-0.526-3.002-0.313-5.148
	c0.199-2.003,0.913-1.69,0.797,0.407c-0.074,1.35-0.061,3.027,0.15,3.025c0.077-0.001,0.099-0.131,0.051-0.314
	c-0.101-0.384,0.359-4.733,0.549-5.247C110.607,118.478,110.69,118.365,110.77,118.35z M74.853,120.004
	c0.941,0.369,1.21,3.523,0.19,6.574c-0.438,1.311-1.112,2.166-2.116,2.695c-0.717,0.377-0.884,0.257-0.562-0.4
	c0.596-1.071,0.912-2.183,1.153-3.565c0.097-1.349-0.612-0.266-0.554,0.312c-0.555,2.517-1.285,2.896-1.191,0.244
	c0.07-1.954,0.325-2.793,1.242-4.136C73.477,121.055,73.97,120.129,74.853,120.004z M107.54,120.322
	c0.388,0.003,0.481,0.524,0.136,1.541c-0.241,0.705-1.06,2.986-0.964,2.979c0.061-0.005,0.938-2.057,1.118-2.392
	c0.294-0.55,0.403-0.654,0.661-0.629c0.252,1.013-0.008,2.278-0.132,3.327c-0.532,2.735-2.387,5.56-3.098,4.719
	c-1.158-1.369-0.615-6.916,0.92-8.602C106.761,120.631,107.238,120.319,107.54,120.322z M57.904,120.741
	c1.399,9.673-6.55,13.803-13.418,10.885C44.632,131.59,57.904,120.741,57.904,120.741z M90.401,120.92l1.385,1.825l2.537,0.132
	l-1.3,1.923l1.292,2.462l-2.831,0.054l-1.628,1.88l-1.416-1.697l-2.476-0.132l1.443-2.311l-1.164-2.21l2.672-0.128L90.401,120.92z
	 M69.109,121.751c0.318,0.011,1.883,2.076,2.038,2.839c0.473,1.846,0.298,5.339-0.363,5.219c-0.718-2.516-0.438-3.814-0.696-3.525
	c-0.446,0.463,0.276,4.319,0.039,5.27c-0.114,0.242-0.498-0.05-0.929-0.672c-1.151-1.662-0.996-8.164-0.116-9.122L69.109,121.751z
	 M153.842,125.671l-31.314,26.044l1.807,2.334l29.564-24.507L153.842,125.671z M108.615,126.12c0.137-0.028,0.449,0.192,1.036,0.839
	c1.025,1.389,2.111,3.297,2.507,4.765c0.15,0.57,0.391,1.327,0.537,1.681c0.22,0.532,0.238,0.679,0.108,0.839
	c-0.542,0.672-2.811-1.019-3.543-2.637c-1.027-2.272-1.054-4.32-0.022-2.326c0.375,0.726,0.84,1.783,0.835,1.363
	c-0.001-0.119-0.456-1.643-0.805-2.322C109.053,127.895,108.266,126.191,108.615,126.12z M153.509,126.753l0.065,2.155
	l-29.163,24.488l-1.145-1.398C123.267,151.998,150.735,129.061,153.509,126.753z M107.977,128.085
	c0.138,0.014,0.208,0.21,0.167,0.648c-0.134,1.423-0.483,4.522-0.41,4.796c0.044,0.164,0.461-2.053,0.557-2.446
	c0.498-2.055,1.26,2.855,0.801,5.056c-0.072,0.346-0.218,0.904-0.294,1.246c-0.076,0.343-0.319,0.929-0.418,1.084
	c-0.826,1.305-2.768-3.89-2.44-6.536C106.143,130.285,107.487,128.035,107.977,128.085z M74.238,129.223
	c0.381-0.021,0.455,0.355,0.391,1.146c-0.221,2.709-2.015,5.554-3.98,6.311c-1.957,0.753-2.139,0.602-0.979-0.804
	c0.88-1.066,1.413-2.186,1.265-2.33c-0.081-0.08-0.277,0.367-0.99,1.285c-0.894,1.151-1.04,0.177-0.228-1.515
	c0.701-1.46,1.357-2.225,2.676-3.118C73.323,129.566,73.901,129.24,74.238,129.223z M91.972,130.046
	c-0.395,11.666-3.291,24.339-8.884,35.357l-5.226,0.012c6.397-9.463,10.481-21.179,11.618-35.318L91.972,130.046z M94.27,130.058
	c0,0,0.783,0.816,1.102,1.366c0.352,0.607,0.45,1.138-0.189,1.593c-0.741,0.63-1.051,0.396,0.159,1.957
	c0.638,0.823,0.431,0.957-0.36,1.65c-0.814,0.716-0.861,0.754-0.104,1.721c0.811,1.034,0.957,1.193-0.102,1.992
	c-0.952,0.719-0.964,0.888-0.22,2.058c0.686,1.077,0.894,1.066-0.422,2.183c-1.123,0.953-1.149,0.689-0.065,2.442
	c0.398,0.646,0.371,0.688-0.359,1.336c-1.796,1.595-1.702,1.495-1.447,1.914c1.968,2.831,1.078,2.75-0.847,4.102
	c-0.389,0.333-0.288,0.709,0.58,2.124c0.738,1.202,0.631,1.462-1.099,2.656c-1.801,1.243-1.859,1.411-0.959,2.68
	c0.887,1.249,0.906,1.164-0.534,2.454c-0.649,0.582-1.184,1.118-1.184,1.118h-3.19c0,0,0.674-0.618,1.133-0.959
	c2.621-1.947,2.61-1.741,1.505-3.146c-0.979-1.243-0.884-1.324,0.108-2.035c0.713-0.511,1.674-1.038,2.395-1.561
	c0.388-0.277,0.101-0.509-0.546-1.736c-0.725-1.376-0.764-1.217,0.584-2.33c1.476-1.219,1.5-1.174,0.7-2.718
	c-0.803-1.55-0.815-1.415,0.197-2.245c1.506-1.234,1.578-1.168,0.785-2.598c-0.633-1.141-0.639-1.108,0.43-2.179
	c1.076-1.079,0.942-1.012,0.305-2c-0.647-1.005-0.613-1.14,0.24-1.902c0.92-0.822,0.789-0.772,0.027-1.821
	c-0.752-1.035-0.74-0.957,0.174-1.76c0.48-0.422,0.964-0.85,0.936-1.048c-0.07-0.511-0.557-1.236-1.024-1.935
	c-0.179-0.266,0.179-0.348,0.75-0.943c0.581-0.606,0.556-0.454,0.116-1.258c-0.237-0.436-0.688-1.169-0.688-1.169L94.27,130.058z
	 M85.718,130.085l0.909,0.022c0,0,0.156,0.207,0.367,0.424c0.584,0.598,0.609,0.949,0.023,1.27
	c-0.563,0.308-0.348,0.739,0.123,1.434c0.5,0.735,0.495,0.651-0.221,1.374c-0.738,0.603-1.119,0.773-0.305,1.915
	c0.463,0.529,0.405,1.075-0.313,1.549c-0.553,0.364-1.47,0.667-0.503,2.055c0.472,0.988,0.51,0.925-0.476,1.627
	c-1.311,0.934-1.558,0.771-0.956,2.132c0.67,1.514,0.736,1.536-0.638,2.552c-1.597,1.179-1.651,1.274-0.986,2.687
	c0.671,1.425,0.688,1.063-1.002,2.385c-1.237,0.968-1.519,1.021-1.152,1.821c0.687,1.499,0.978,1.901-1.024,2.932
	c-2.313,1.19-2.43,1.278-1.319,3.049c0.903,1.439,0.702,1.235-0.789,2.097c-2.156,1.246-3.108,1.788-3.176,2.175
	c-0.044,0.438,1.683,1.739,1.683,1.739l-3.01,0.082c0,0-1.265-1.031-1.756-1.511c-1.36-1.33-1.375-0.895,3.148-3.099
	c2.497-1.217,2.288-0.941,1.88-1.65c-1.203-2.097-1.245-2.314,1.014-3.456c1.963-0.992,1.626-1.063,1.148-2.563
	c-0.415-1.307-0.35-1.187,0.685-1.957c2.501-1.862,2.433-1.669,2.043-2.582c-0.385-0.898-0.68-1.317-0.391-1.76
	c0.9-1.297,2.817-1.573,2.034-3.118c-0.366-0.996-0.496-1.22,0.607-2.081c0.995-0.832,1.001-0.731,0.363-1.829
	c-0.775-1.008-0.664-1.174,0.472-1.965c0.81-0.743,0.799-0.724,0.345-1.449c-0.627-0.999-0.597-1.03,0.298-1.817
	c0.728-0.641,0.854-0.675,0.391-1.382c-0.616-0.938-0.514-1.144,0.298-1.604c0.497-0.282,0.495-0.397,0.452-0.874
	C85.977,130.614,85.718,130.085,85.718,130.085z M97.004,130.139l4.189,0.012c1.338,7.798,3.673,10.998,5.023,13.468
	c-5.296,8.536-4.092,15.627-0.858,21.901l-13.267-0.05C95.493,153.787,97.246,142.033,97.004,130.139z M68.25,130.17
	c0.154-0.011,0.263,0.239,0.522,0.684c0.839,1.437,0.246,3.474-0.982,5.607c-0.919,1.597-1.085,0.377-0.665-1.922
	c0.265-1.45-0.463,0.722-0.809,2.474c-0.188,0.949-0.641,1.715-1.133,1.67c-0.464-0.076-0.32-1.406-0.306-1.701
	c0.104-2.096,0.883-3.581,2.394-5.662C67.844,130.531,68.076,130.183,68.25,130.17z M111.014,134.271
	c0.198-0.009,0.477,0.074,0.819,0.272c0.267,0.153,0.747,0.445,1.079,0.629c1.162,0.643,1.256,0.838,0.704,1.483
	c-0.683,0.799-1.12,0.494-2.302-0.835C110.518,134.924,110.504,134.294,111.014,134.271z M110.627,136.026
	c0.188,0.004,0.574,0.207,0.951,0.641c0.765,0.879,0.673,1.622-0.174,1.409c-0.347-0.508-0.525-1.28-0.855-1.853
	C110.474,136.094,110.514,136.023,110.627,136.026z M148.044,136.139c-0.742,0.001-1.984,0.984-2.22,1.984
	c-0.722,3.051-0.721,2.919-0.074,3.363c0.189,0.13,0.332,0.226,0.426,0.283c0.379,0.3,0.895,0.764,0.963,0.672
	c0.615,0.003,1.551-3.905,1.52-4.711c0.039-0.851,0.068-0.953-0.143-1.34C148.42,136.216,148.252,136.139,148.044,136.139z
	 M110.058,136.205l0.186,0.077c0.486,0.485,0.683,1.354,0.929,1.977c0.002,0.135-0.055,0.356-0.124,0.489
	c-0.42,0.81-1.073,0.024-1.141-1.371C109.869,136.593,109.91,136.233,110.058,136.205z M147.928,136.807h0.093
	c0.498,0.022,0.421,0.539-0.271,1.289c-0.363,0.395-1.113,0.581-1.361,0.338c-0.361-0.354,0.384-1.326,1.195-1.561
	C147.715,136.834,147.83,136.813,147.928,136.807z M63.791,137.233h0.081c0.261,0.017,0.479,0.135,0.649,0.334
	c0.332,0.412,0.192,1.049,0.035,1.581c-0.394,1.395-2.996,4.094-3.93,4.104c-0.556-0.098,1.768-3.063,1.841-3.562
	c-0.173-0.17-1.613,1.5-2.29,2.66c-0.306,0.525-0.654,1.173-0.839,1.286c-0.485,0.056-1.045,0.366-1.048,0.038
	c0.08-1.48,2.969-4.709,3.953-5.607C62.848,137.498,63.37,137.241,63.791,137.233z M70.757,137.373
	c2.231-0.024-2.162,4.878-5.005,5.585c-0.886,0.22-2.518,0.277-2.634,0.093s0.015-0.335,0.379-0.431
	c0.587-0.155,3.491-2.011,3.488-2.229c-0.003-0.274-1.202,0.181-2.228,0.847c-0.664,0.432-0.976,0.342-0.615-0.179
	C65.812,138.649,68.045,137.404,70.757,137.373z M109.385,137.381c0.127,0.011,0.254,0.264,0.333,0.828
	c0.405,1.05,0.425,1.337,0.042,1.646c-0.654,0.528-0.815,0.381-0.809-0.835C108.958,138.019,109.174,137.364,109.385,137.381z
	 M35.869,138.775c0,0,0.814,0.307,0.476,0.695c-0.235,0.27-1.237,0.04-1.237-0.039L35.869,138.775z M147.979,138.807
	c0.266-0.018,0.271,0.229,0.131,0.851c-0.074,0.326-0.395,2.043-0.963,2.521c-0.069,0.045-0.894-0.448-1.118-0.676
	c-0.103-0.105-0.425-0.347-0.468-0.505c-0.141-0.52,0.01-1.194,0.402-1.53c0.153-0.132,0.461-0.204,0.627-0.206
	c0.13-0.001,0.514-0.128,0.854-0.279C147.683,138.875,147.857,138.814,147.979,138.807z M36.155,139.991
	c0.536-0.004,1.194,0.054,1.752,0.244c1.646,0.48,4.665,1.838,5.129,2.283c0.676,0.649-1.089,1.34-3.21,1.363
	c-1.125,0.013-1.338-0.222-2.894-1.157c-0.2-0.132-1.106-0.729-0.843-0.947c0.288-0.296,1.156,0.085,2.239,0.637
	c0.353,0.18,1.212,0.129,1.21-0.031c-0.002-0.188-2.163-0.994-3.782-1.511c-1.063-0.339-1.038-0.681-0.387-0.827
	C35.557,140.018,35.834,139.993,36.155,139.991z M34.027,140.732c0,0,0.449,0.398,1.029,0.835c0.631,0.474,1.362,1.059,1.872,1.837
	c0.737,0.902,1.901,3.146,1.771,3.554c-0.298,0.932-3.409-0.704-5.952-3.259c-0.827-0.83-1.312-1.448-1.312-1.448l0.971-0.882
	c0,0,0.853,0.717,1.837,1.589c1.848,1.636,1.835,1.074-0.023-0.648c-0.525-0.487-1.009-0.925-1.009-0.925
	C33.236,141.072,33.53,140.797,34.027,140.732z M110.02,140.811c0,0,0.992,1.034,1.361,1.511
	c-6.054,5.941-8.365,14.242-2.521,23.082l-2.805-0.012C100.803,155.015,103.293,147.201,110.02,140.811z M58.82,141.055
	c0.377-0.017,0.034,0.428-0.634,1.569c-1.247,2.131-1.495,2.669-3.521,3.199c-0.521,0.136-1.264,0.028-1.57,0.066
	c-0.87,0.109-0.482-0.001,0.852-0.87c1.85-1.204,0.278-0.584-1.432,0.299c-0.99,0.513-2.028,0.487-2.119,0.222
	c-0.05-0.146,0.401-0.53,0.692-0.792c2.604-2.337,3.402-2.239,5.825-3.083C57.971,141.296,58.563,141.066,58.82,141.055z
	 M47.937,143.187c0.942,0.006,1.821,0.101,2.603,0.276c0.519,0.117,1.361,0.221,0.65,0.865c-0.805,0.761-2.979,1.799-4.587,1.868
	c-0.227,0.009-3.538-0.227-2.831-0.939c0.141-0.079,0.59-0.059,0.979-0.132c1.834-0.349,1.338-0.646-0.921-0.524
	c-2.829,0.151-2.958-0.143-0.816-0.73c1.567-0.43,3.106-0.65,4.518-0.68C47.668,143.188,47.802,143.186,47.937,143.187z
	 M63.052,143.404c1.26-0.013,2.238,0.213,2.243,0.695c0.01,0.781-2.376,2.495-3.941,2.835c-0.368,0.079-0.893,0.194-1.164,0.256
	c-0.545,0.124-3.568,0.019-3.863-0.089c-1.416-0.517-0.432-0.719,2.166-1.021c1.13-0.132,1.669-0.43,1.667-0.645
	c-0.001-0.104-0.834-0.135-2.073,0.023c-1.385,0.176-1.113-0.233,0.611-1.131C59.836,143.736,61.625,143.418,63.052,143.404z
	 M39.748,144.488c0.177,0.004,0.602,0.15,1.308,0.446c1.508,0.44,3.579,0.938,4.997,2.493c1.146,1.113,1.425,1.473,1.184,1.863
	c-0.291,0.475-3.846,0.114-5.342-0.527c-0.987-0.424-2.165-1.334-2.703-2.121c-1.303-1.905-0.755-2.407,0.901-1.075
	c1.995,1.605,2.292,1.771,2.646,1.697c0.143-0.029-0.209-0.359-0.878-0.858C40.18,145.152,39.361,144.479,39.748,144.488z
	 M52.044,146.534c1.672,0.002,2.032,0.128,3.655,0.874c2.031,0.719,1.539,1.357-2.065,2.26c-1.805,0.426-3.621,0.127-4.938-0.688
	c-2.905-1.794-2.714-2.153,0.529-1.352c1.065,0.264,2.127,0.313,2.193,0.113c0.05-0.153-1.239-0.483-2.286-0.831
	c-1.134-0.377-0.159-0.345,2.108-0.369C51.54,146.539,51.806,146.534,52.044,146.534z M135.625,154.287c0,0-0.371,0.176-0.535,0.267
	c-0.129,0.071-1.133,0.197-2.231,0.279c-2.165,0.162-3.622,0.511-4.937,1.04c-1.982,0.801-3.31,3.271-3.31,3.271
	c1.483-0.102,9.876,1.422,12.204-1.613c0.488-0.636-1.252,4.797-2.144,5.038c-2.212-0.267-3.144,3.219-2.921,3.071
	c-2.231,0.868-3.962,1.378-3.395,3.978c0.247,1.134,1.392,2.479,3.816,2.142c-0.66,4.508,4.834,5.674,5.439,0.24
	c0,0,1.072-0.205,1.484-0.254c2.505-0.597,3.112-4.271-0.564-5.437c-1.021-0.304-1.078-0.496-1.078-0.496
	c0.189-0.829,0.145-1.7-0.453-2.667c0.812-1.94,2.83-5.683,2.83-5.683L135.625,154.287z M136.014,155.408
	c0.506,0.678-2.131,1.8-4.938,2.042c-0.63,0.055-2.015,0.182-2.051,0.245c-0.303,0.531,5.428,0.146,7.214-0.858
	c0.611-0.344,0.667-0.042,0.401,0.488c-2.073,2.676-7.076,2.017-10.988,1.546c-0.223-0.225-0.032-0.501,0.844-1.215
	c1.607-1.31,2.765-1.746,5.303-2.008C132.508,155.626,135.694,155.023,136.014,155.408z M139.113,158.177
	c-0.361,1.15-2.244,4.663-2.244,4.663c-0.23,0.232-1.056,0.396-0.994-0.492c0.01-0.955,1.791-4.888,2.271-4.963
	C138.72,157.34,139.142,157.764,139.113,158.177z M140.308,158.444c0.552,4.031,3.599,4.989,6.521,6.26
	c0.77,0.354,1.422,0.983,2.193,1.391c1.444-1.979-0.183-5.82-2.728-7.071c-1.889-0.886-3.611-1.591-4.676-1.511
	C141.004,157.559,140.316,157.955,140.308,158.444z M141.871,158.204c0.326-0.004,0.795,0.091,2.502,0.547
	c2.577,0.688,4.395,2.597,4.869,5.11c0.02,0.102,0.152,2.05-0.292,1.98c-0.671-0.193-1.032-0.872-2.109-1.324
	c-1.345-0.564-3.229-1.306-4.386-2.36c-0.935-0.853-1.445-1.77-1.559-2.556c-0.116-0.815,0.156-0.898,0.839-0.24
	c1.529,1.221,3.037,1.639,4.549,2.818c0.42,0.328,1.928,1.167,0.897,0.122c-0.697-0.707-2.751-1.941-3.842-2.467
	C141.824,159.104,141.001,158.214,141.871,158.204L141.871,158.204z M25.797,162.227l17.277,27.117
	c-4.252,2.252-6.348,3.238-13.409,2.684l0.027,0.357l-3.001-0.176c5.183,8.122,11.579,18.717,9.764,37.201l21.047-0.021l0.36,0.335
	c0.308,0.208,0.77-0.367,0.77-0.367l9.493-0.051l0.258,0.308l4.426-0.031c0,0-20.24-38.027-30.406-56.909
	C38.226,165.099,33.876,161.733,25.797,162.227z M134.746,163.124c1.135-0.028,2.263,0.755,2.271,2.275
	c0.004,0.792-0.662,1.897-0.662,1.897l-1.541-1.476l-1.474,1.48c-0.726-0.602-1.156-1.748-0.918-2.4
	C132.875,163.786,133.863,163.146,134.746,163.124z M116.877,163.664c1.462,5.721,3.042,13.61-9.639,31.843
	c-7.5,10.783-9.954,20.957-10.254,33.373l-0.758,0.004c0.357-6.813,0.406-19.168,0.406-19.168l0.707-0.633
	c0,0-0.322-0.525-0.464-1.142c-0.239-1.039-0.037-0.693,0.581-3.483C100.049,190.98,116.877,163.663,116.877,163.664
	L116.877,163.664z M49.166,166.289l64.265,0.295l-0.854,1.693l-62.188-0.447L49.166,166.289z M134.827,166.778l2.387,2.334
	l-2.332,2.629l-2.456-2.579L134.827,166.778z M132.87,167.77l-1.302,1.391l1.128,1.191c-1.161,2.449-4.253,0.538-4.149-1.294
	C128.668,166.914,131.162,166.035,132.87,167.77z M136.994,170.532l1.037-1.323l-1.172-1.29c1.919-1.902,3.733-0.227,3.909,1.361
	C140.955,170.972,138.327,172.883,136.994,170.532z M60.883,168.914l5.264,0.05l-1.957,3.678l-5.338-0.023L60.883,168.914z
	 M72.609,168.941h4.835l-2.042,3.728H70.51L72.609,168.941z M84.027,168.941h5.129l-2.081,3.728h-5.269L84.027,168.941z
	 M95.507,168.941h5.249l-1.911,3.728h-5.445L95.507,168.941z M107.199,168.941h5.06l-2.05,3.728h-5.207L107.199,168.941z
	 M51.332,168.96h3.4l-1.389,2.455L51.332,168.96z M136.106,171.313c1.945,1.568,0.594,4.145-1.434,4.19
	c-1.396,0.032-3.423-2.34-1.23-4.272l1.461,1.341L136.106,171.313z M64.592,173.294h4.943l-1.861,3.355h-4.842L64.592,173.294z
	 M75.58,173.321h5.423l-1.911,3.355h-5.159L75.58,173.321z M87.191,173.321h5.396l-1.76,3.355h-5.45L87.191,173.321z M98.76,173.321
	h5.354l-1.668,3.355h-5.658L98.76,173.321z M54.612,173.449h3.411l-1.454,2.688L54.612,173.449z M57.185,177.341l50.093,0.446
	l-0.852,1.631l-47.969,0.008L57.185,177.341z M58.944,180.261l46.94,0.116l-1.08,2.257l-16.217-0.074
	c-3.165-2.371-6.781-1.275-10.908,0.074c0,0-12.414,0.13-17.297,0L58.944,180.261z M43.334,189.821l24.758,39.233l-5.473-0.063
	L39.11,192.086L43.334,189.821z M38.371,192.377l23.373,36.668c-1.072-0.024-2.067,0.041-3.141,0.025
	c0.435-6.849-5.054-10.06-8.279-10.223c1.935-8.009-3.881-11.379-7.761-12.015c1.573-10.408-7.009-11.884-7.133-11.779
	c0.042-0.854-0.118-1.471-0.233-2.184L38.371,192.377z M34.585,192.958c-0.051,0.22,0.44,2.294-0.483,1.912l-0.066-1.908
	L34.585,192.958z M29.664,193.011c0.334,1.379,1.04,1.652,1.998,2.577c0,0-1.226,0.209-1.51,0.012c-0.51-0.354-1.574-2.6-1.574-2.6
	L29.664,193.011z M33.32,195.344c0.592,0,1.071,0.484,1.071,1.079c0,0.596-0.479,1.076-1.071,1.076c-0.593,0-1.071-0.48-1.071-1.076
	C32.248,195.828,32.728,195.344,33.32,195.344z M35.443,196.172c3.074-0.201,7.533,3.109,6.357,9.305
	c-0.204-0.433-0.446-1.385-0.945-2.061c-2.119-2.869-4.615,1.063-2.933,2.668c0.824,0.787,1.21,1.097,1.122,1.169
	c-1.896-0.361-3.331,1.323-2.542,3.193c1.314,2.42,3.141,1.138,4.197-0.298c0,0,0.65,2.166,1.298,2.441
	c0.99,0.422,2.357-0.112,2.822-1.314c0.693-1.787-0.991-2.246-1.361-3.241c3.557,0.116,8.088,5.335,6.025,9.861
	c0.271-1.032-0.83-3.342-2.972-2.747c-1.07,0.376-1.442,1.94-0.579,3.55c0.275,0.515,0.425,0.706,0.425,0.706
	s-0.926,0.123-1.169,0.273c-2.778,1.718,0.803,6.403,2.871,3.475c0.211-0.349,0.557-0.746,0.557-0.746
	c0.342,0.652,0.445,1.57,1.068,1.886c2.561,1.294,3.701-1.438,2.625-2.776c-0.605-0.754-1.289-1.624-1.289-1.624
	c-0.106-0.481,7.672,1.566,6.725,9.164l-20.623-0.028c1.912-11.672-2.717-25.024-5.079-29.094l1.023-1.355
	c0.257,0.504,0.683,1.773,1.435,2.017c2.393,0.772,3.121-0.906,2.801-2.632C37.133,197.045,35.852,196.305,35.443,196.172z
	 M40.904,207.156c0.563,0,1.018,0.461,1.018,1.025s-0.455,1.021-1.018,1.021c-0.562,0-1.021-0.457-1.021-1.021
	S40.343,207.156,40.904,207.156z M48.645,219.315c0.568,0,1.029,0.463,1.029,1.033s-0.461,1.032-1.029,1.032
	s-1.029-0.462-1.029-1.032S48.076,219.315,48.645,219.315z"/>
<path d="M131.145,223.552c7.82-0.17,11.326-8.974,5.535-15.811c-0.84-0.998-0.927-1.57,0.611-0.612
	c3.899,2.607,11.375,0.894,11.758-7.077c0.474-9.822-13.25-12.651-15.826-2.208c-0.137,1.102-1.031,1.076-0.816-0.487
	c0.235-4.245,1.561-8.213,3.383-12.082c-3.07,0-6.503,0-9.296,0c1.822,3.869,3.148,7.837,3.384,12.082
	c0.216,1.563-0.68,1.589-0.816,0.487c-2.576-10.443-16.299-7.614-15.826,2.208c0.383,7.971,7.859,9.685,11.758,7.077
	c1.538-0.958,1.451-0.385,0.611,0.612c-5.791,6.836-2.285,15.641,5.535,15.811h0.008H131.145z"/>
<path d="M48.688,27.045c7.819,0.17,11.326,8.974,5.534,15.811c-0.84,0.997-0.926,1.569,0.612,0.611
	c3.898-2.607,11.375-0.894,11.758,7.078c0.474,9.821-13.25,12.651-15.827,2.208c-0.136-1.103-1.031-1.077-0.815,0.487
	c0.235,4.245,1.561,8.213,3.383,12.082c-3.071,0-6.503,0-9.296,0c1.822-3.869,3.148-7.837,3.383-12.082
	c0.217-1.564-0.68-1.59-0.815-0.487c-2.577,10.443-16.3,7.613-15.827-2.208c0.383-7.972,7.859-9.686,11.758-7.078
	c1.539,0.958,1.452,0.386,0.612-0.611c-5.791-6.837-2.285-15.641,5.534-15.811H48.688L48.688,27.045z"/>
</svg>
