<?xml version="1.0" encoding="utf-8"?>
<!-- Generator: Adobe Illustrator 16.0.0, SVG Export Plug-In . SVG Version: 6.00 Build 0)  -->
<!DOCTYPE svg PUBLIC "-//W3C//DTD SVG 1.1//EN" "http://www.w3.org/Graphics/SVG/1.1/DTD/svg11.dtd">
<svg version="1.1" id="Layer_1" xmlns="http://www.w3.org/2000/svg" xmlns:xlink="http://www.w3.org/1999/xlink" x="0px" y="0px"
	 width="178.58px" height="249.45px" viewBox="0 0 178.58 249.45" enable-background="new 0 0 178.58 249.45" xml:space="preserve">
<path fill="#FFFFFF" d="M9.524,1.32h160.778c4.695,0,8.503,3.808,8.503,8.504v231.644c0,4.696-3.808,8.504-8.503,8.504H9.524
	c-4.696,0-8.504-3.808-8.504-8.504V9.824C1.021,5.128,4.828,1.32,9.524,1.32z"/>
<path fill="none" stroke="#000000" stroke-width="1.0006" d="M9.524,1.32h160.778c4.695,0,8.503,3.808,8.503,8.504v231.644
	c0,4.696-3.808,8.504-8.503,8.504H9.524c-4.696,0-8.504-3.808-8.504-8.504V9.824C1.021,5.128,4.828,1.32,9.524,1.32z"/>
<path fill="#E2CF00" d="M112.879,22.287c0,0,20.191,29.296,27.04,34.495c0.504,0.237,8.946-1.381,8.946-1.381
	c-4.327-10.399-7.11-21.157-4.303-33.219L112.879,22.287z M124.099,68.62c-13.921,3.943-27.815,7.652-42.906,1.224L64.711,85.826
	c-0.137,0.412,19.91,9.104,20.248,8.088c-9.828,26.549,5.495,31.369,15.25,2.165c12.771-1.679,28.09-3.417,40.751-12.239
	C130,77.229,124.087,68.541,124.099,68.62z M40.37,73.346c-5.276-3.25-9.4,3.438-5.537,6.778c-0.454,1.951-0.608,4.854,1.272,6.131
	c1.729,1.097,4.951-0.041,5.416-0.028c0.034,0,0.084,3.512-0.185,3.502c-0.5-0.017-2.387-1.63-3.55-1.979
	c-3.933-1.184-9.464-1.768-9.366-1.563c0.164,0.341-0.979,1.15,3.408,3.916c1.63,1.027,6.78-0.129,10.882,1.169
	c2.498,0.791,4.743,2.054,6.1,1.398c3.578-0.981,4.977-5.673,4.731-5.639c-0.119-0.142-10.818,2.763-9.813,3.272l-0.032-4.073
	c4.22,0.466,8.028-2.604,3.881-7.866C50.667,75.281,46.347,67.938,40.37,73.346z M57.951,91.977
	c-10.379,10.501-31.593,30.209-31.593,30.209l0.228,14.709l20.725,18.615c1.642-19.761,12.829-38.204,23.482-47.431
	C71.771,105.273,60.207,92.961,57.951,91.977z M131.895,95.609c-1.563,12.15-2.984,28.721-23.521,47.14
	c3.559,6.083,8.089,12.274,14.607,15.229c0.463,1.046,18.842-19.089,30.148-28.608l-0.06-12.896L131.895,95.609z M39.337,98.218
	c-0.043,0.265-0.802,3.456-0.997,3.372c0.016,0.174,2.104-0.778,2.34-1.653c0.207-0.768,0.686-1.808,0.717-1.954
	C40.926,94.696,40.035,97.03,39.337,98.218z M31.648,106.713c-0.746,1.808-1.443,5.13-1.187,7.292
	c3.677,1.847,4.677-5.837,3.688-6.571C33.557,107.182,32.153,106.694,31.648,106.713z M145.199,141.945
	c-0.342,1.532-0.27,1.987,0.41,2.286c1.189,0.523,1.725-0.108,2.681-2.604c0.569-1.485,1.075-3.721,0.617-4.609
	C146.652,135.438,145.46,140.788,145.199,141.945z M80.895,154.84c-15.091,2.399-30.19,3.881-42.175,13.264
	c1.351-0.158,15.875,13.532,16.626,15.458c22.197-10.884,43.756-2.663,43.756-2.663l16.244-15.714
	c0.626-0.298-17.668-7.862-21.114-9.137C106.69,122.387,86.96,127.445,80.895,154.84z M140.297,150.997
	c-0.986,0.799-1.482,1.522-2.252,2.558l0.775,1.258l1.985-2.197L140.297,150.997z M126.081,165.16
	c2.092-0.947,9.517-4.561,9.835-3.725l-0.156,3.616c-1.137-0.373-8.468,0.843-4.228,8.438c-2.67,6.034,3.28,9.146,7.448,5.156
	c8.735,3.009,7.566-5.765,5.764-7.183c1.42-2.215-0.365-6.931-1.254-6.947c0,0,7.623,1.726,6.878,0.363
	c-0.341-0.622-0.767-1.694-2.46-2.829c-1.953-1.309-5.383-0.834-8.159-1.417c-2.968-0.623-4.879-1.688-7.373-1.839
	C128.611,159.14,125.098,162.456,126.081,165.16z M41.13,193.636l-10.504,2.817c0,0,3.397,7.914,4.573,14.971
	c1.438,8.631,0.289,18.016,0.289,18.016l30.484,0.155L41.13,193.636z"/>
<path fill="#D40000" d="M68.502,229.487c-13.375-19.162-25.769-37.39-42.223-57.479c0,0,0.014-7.764,0.071-15.465l50.55,72.755
	L68.502,229.487z M95.58,198.548c-0.431-3.64-1.17-7.994-2.231-11.743l9.229-8.734C101.582,185.875,100.054,191.864,95.58,198.548z
	 M139.691,171.017c2.065,2.754-1.421,4.283-2.736,3.058C134.286,171.589,138.195,169.022,139.691,171.017z M48.176,153.675
	c-1.531,0.985,2.752-24.014,14.511-36.934C69.839,137.305,57.22,148.834,48.176,153.675z M106.187,153.582l-7.81-2.115l3.677-10.963
	c0,0,7.544,1.725,6.919,4C106.938,151.915,106.187,153.582,106.187,153.582z M70.034,149.368c2.114-3.489,3.72-7.337,5.198-11.274
	l7.823-0.163l-3.931,10.864L70.034,149.368z M117.102,133.984c-6.044-12.08,1.076-31.199,14.228-36.462
	C130.855,109.772,127.068,122.181,117.102,133.984z M76.479,130.552c0.266-4.29-0.224-8.786-0.814-12.771
	c8.336,1.928,17.423,3.219,27.488,3.678l0.96,11.565C95.174,131.38,86.078,130.205,76.479,130.552z M96.445,112.93
	c0.89-3.586,2.03-7.097,3.584-10.482l9.525-0.445c-0.05-0.187-4.064,6.361-5.025,11.088
	C103.012,112.929,96.445,112.93,96.445,112.93z M78.387,110.07c-2.78-0.984-6.582-1.26-8.06-3.418l2.892-9.197l8.564,2.637
	L78.387,110.07z M102.422,22.309l6.712-0.064c0,0,32.251,41.42,44.339,57.539c-0.403,1.641,0.135,15.545,0.135,15.545
	C136.486,71.144,102.422,22.309,102.422,22.309z M40.576,80.102c-1.803-1.943,1.065-3.665,2.258-1.929
	C43.884,79.702,41.527,81.127,40.576,80.102z M76.764,73.311c0.104-9.599,6.885-20.99,6.814-20.699
	c-0.078-0.019,0.967,9.384,2.271,12.342C85.497,65.475,77.084,73.912,76.764,73.311z"/>
<path fill="#131F67" d="M24.898,20.721v209.852H154.93V20.721H24.898z M143.991,22.314c-1.058,11.62-1.243,20.605,4.764,32.657
	c-1.085,1.142-9.259,1.466-11.835,2.817c-0.047,0.325,0.662,0.887,0.662,0.887c2.695-1.255,13.203-2.4,13.203-2.4
	c-4.401-7.699-8.021-22.604-5.296-33.961h7.887v56.076c0,0,0.093,10.659,0.317,16.744c-4.038-5.238-9.24-12.412-12.736-17.844
	c-4.243-5.99-8.966-13.018-13.816-19.61c-1.43-2.077-3.468-4.772-5.131-7.199c-2.612-3.747-4.772-6.655-7.48-10.689
	c-2.893-4.177-5.666-7.968-9.104-12.818c-2.914-4.128-3.051-4.659-3.051-4.659H143.991z M94.182,22.314
	c4.916,8.576,13.717,11.576,15.931,12.154l1.287,1.889c-10.375-2.041-15.932-8.727-18.54-12.861
	c-0.203-0.321-0.181-1.182-0.181-1.182H94.182z M89.315,22.314c-1.359,3.238-3.263,5.195-5.067,7.156l0.063-2.082
	c0.056,0.13,2.701-2.912,3.611-5.074H89.315z M91.696,22.314c0,0,0.04,0.649-0.125,1.104c-1.042,3.376-7.511,9.785-7.324,8.825
	l-0.066-1.653c-0.028,0.071,4.859-4.768,6.14-8.276H91.696z M86.992,22.314c-0.504,0.942-2.385,3.886-2.555,3.098l0.167-3.098
	H86.992z M101.771,22.314c0.815,1.185,1.556,2.146,2.413,3.357c0.159,0.231,0.256,0.504,0.216,0.608
	c-0.13,0.336-0.518,0.086-1.589-0.866c-1.756-1.563-2.951-3.1-2.951-3.1H101.771z M95.229,22.314h1.589
	c3.29,5.485,9.194,8.504,11.237,9.143c0.545,0.603,1.133,1.706,1.361,1.949C103.905,31.909,97.732,27.137,95.229,22.314z
	 M99.092,22.314c1.752,2.538,4.498,4.391,6.045,5.605c0.832,0.654,1.93,1.991,1.828,2.256c-3.445-1.093-7.474-5.021-9.322-7.861
	H99.092z M92.339,23.958l0.957,1.53c-2.319,3.839-5.229,7.298-9.108,10.023l-0.021-2.005C88.569,30.325,90.472,27.127,92.339,23.958
	z M93.892,26.176c2.766,3.739,8.726,9.527,18.285,11.256c0,0,0.542,0.492,1.334,1.575c1.005,1.372,1.021,1.427,1.153,3.677
	c0.089,4.117,1.422,9.705,2.745,13.221c-0.164,0.874-0.317,1.319-1.959,3.545c-6.842,9.275-21.417,18.049-28.599,6.074
	c-2.395-3.836-2.628-11.19-2.779-15.777l0.063-0.409c0.173-0.833,0.41-0.702,1.706-0.345c1.314,0.565,2.683,0.108,4.073-0.271
	c1.584-0.642,1.716-0.146,0.188,1.283c-0.528,0.495-1.175,1.252-1.106,1.215c0.067-0.036,0.956-0.4,1.349-0.7
	c1.221-0.933,1.509-0.575,1.057,0.451c-1.919,4.353-2.259,4.526,0.439,5.735c0.563,0.252,0.946,0.534,1.263,0.811
	c1.845,1.742,1.182,0.804,0.666,0.004c-0.794-1.253-0.076-1.915,1.264-1.14c0.896,0.519,2.072,0.937,2.712,0.738
	c1.241-0.405,1.62-1.771,1.252-3.273c-0.295-0.831-1.991-2.298-1.601-0.762c1.02-0.047,1.9,1.405,1.015,2.388
	c-0.669,0.905-1.861,0.416-3.69-0.797c-1.011-0.763-2.238-0.373-2.189,0.564c0.031,0.63-0.857,0.485-1.434-0.317
	c-0.32-0.445-0.104-1.728,0.499-2.943c3.791-7.651,0.595-15.07-5.972-12.979c-0.723,0.229-1.373,0.416-1.373,0.416l-0.036-2.927
	C87.986,33.852,91.985,29.646,93.892,26.176L93.892,26.176z M97.726,39.912c-0.99,1.199-0.64,2.268,1.534,1.192
	c1.771-0.876,2.016-0.979,3.944-1.049c2.738-0.1,5.195,0.774,8.236,2.646c2.016,1.241,2.31,1.335,1.762,0.558
	C111.574,40.133,101.952,35.385,97.726,39.912z M88.428,40.271c1.9,0.48,3.724,1.74,3.406,2.262
	c-0.114,0.188-0.225,0.224-0.467,0.097c-1.391-0.689-3.605-1.816-6.81-0.441c-0.353,0.152-0.549-0.083-0.548-0.511
	c0-0.829,1.396-1.492,2.865-1.546C87.397,40.131,87.968,40.157,88.428,40.271z M99.466,42.695c-1.133,0.592-1.521,0.906-2.003,0.642
	c-1.149-0.63-0.906-0.136-0.193,1.135c0.504,0.896,0.5,1.08,0.425,1.629c-0.081,0.597-0.069,0.62,0.509,1.258
	c1.081,1.426,2.156,2.802,3.775,3.883c0.504,0.338,1.179,0.722,1.229,0.723c0.161,0.005,0.1-0.124-0.188-0.406
	c-2.073-2.001-3.708-3.795-1.598-3.033c2.458,0.805,4.796-0.197,6.713-0.852c0.781-0.242,1.602-0.446,1.806-0.446
	c1.771,0.002,2.188-0.737,1.057-1.865C107.168,41.051,103.99,40.037,99.466,42.695z M108.553,43.504
	c0.791,0.733,1.209,1.133,1.129,1.323c-0.084,0.205-0.693-0.142-1.715-0.688c-2.055-1.1-4.385-1.358-7.295-0.515
	c-2.261,0.654-1.594-0.385,0.925-1.362C103.613,41.328,106.395,41.607,108.553,43.504z M87.45,42.02
	c1.727-0.028,3.524,0.541,4.727,1.581c0.839,0.726,0.226,0.895-1.138,0.329c-2.062-0.856-3.799-0.992-5.49-0.197
	c-0.531,0.249-1.144,0.546-1.311,0.529c-0.283-0.191-0.403-0.75-0.158-1.145C84.76,42.447,86.107,42.041,87.45,42.02z
	 M115.901,42.613c0.127,0.006,0.317,0.208,0.602,0.607c0.517,0.729,0.536,1.088,0.108,2.361c-0.523,1.556-0.732,1.303-0.864-0.867
	C115.662,43.307,115.66,42.604,115.901,42.613z M117.613,44.959c0.197-0.028,0.427,0.32,0.795,1.041
	c0.256,0.503,0.195,0.653-0.605,3.007c-0.335,0.985-0.65,1.771-0.659,1.776c-0.247,0.195-0.215,0.178-0.32,0.043
	c-0.571-0.732-0.53-2.161-0.038-3.874C117.158,45.654,117.36,44.995,117.613,44.959L117.613,44.959z M102.06,45.137l0.444,0.078
	c-0.039,3.487,2.646,2.785,3.002,0.309c0,0,0.663-0.068,0.765,0.098c0.318,0.518-0.421,2.01-1.526,2.498
	c-0.807,0.361-1.903,0.273-2.559-0.332c-0.184-0.342-0.738-1.637-0.635-2.174C101.68,45.299,101.873,45.153,102.06,45.137z
	 M100.459,45.544h0.081c0.264,0.014,0.455,0.085,0.56,0.405l0.575,1.771c-0.423,0.508-2.032-0.521-2.029-1.294
	C99.646,45.893,100.047,45.564,100.459,45.544z M89.537,45.541c0.405-0.04,0.549,0.006,0.596,0.386
	c0.138,1.151-1.01,2.401-2.496,2.47c-1.439,0.161-2.217-0.959-2.173-2.052c0-0.831,0.716-0.935,0.795-0.278
	c0.228,1.896,1.842,2.005,2.579,0.958C89.117,46.614,89.053,45.604,89.537,45.541z M107.211,45.927
	c0.114-0.005,0.268,0.038,0.493,0.116c1.485,0.476,1.524,0.705,0.255,1.164c-1.515,0.548-1.612,0.619-1.257-0.44
	C106.9,46.175,106.959,45.937,107.211,45.927z M91.475,46.094c1.1,0.068,1.192,1.003,0.225,1.315
	c-1.441,0.638-1.927,0.597-1.369-0.346C90.633,46.396,90.904,46.106,91.475,46.094z M84.589,46.43
	c0.132-0.001,0.282,0.05,0.443,0.17c0.165,0.502,0.446,0.887,0.667,1.405c-0.226,0.226-0.765,0.222-1.108-0.052
	c-0.689-0.549-0.571-1.518,0-1.523H84.589z M119.19,47.51c0.428,0.002,0.862,0.682,1.004,1.188
	c-1.493,1.925-1.258,5.521-1.605,6.605c-0.301,0.884-0.397,0.121-1.229-2.167c-0.335-0.923,1.354-5.514,1.745-5.615L119.19,47.51z
	 M120.718,49.483c0.332,0.19,0.784,0.628,0.863,1.315c0.046,0.399-0.15,0.931-0.277,1.455c-0.302,1.249-0.71,3.607-0.856,5.786
	c-0.062,0.928-0.059,1.762-0.1,1.843c-0.449,0.884-1.396-1.494-1.315-3.387C119.326,54.984,119.49,49.691,120.718,49.483z
	 M122.826,52.2c0.211,0.294,0.346,0.52,0.41,0.773c0.113,0.44,0.019,0.968-0.24,2.091c-0.686,2.977-0.586,6.185-0.139,9.479
	c0.094,0.692-0.386,0.346-1.11-0.848c-0.402-0.662-0.659-1.569-0.783-2.64c-0.253-2.342,0.234-5.516,0.649-8.019
	C121.796,51.929,121.924,50.952,122.826,52.2z M123.964,54.012l1.199,1.451c0,0-0.512,3.337-0.509,5.116
	c-0.084,0.667,0.596,7.917,0.817,8.503c-0.737-0.828-1.081-1.315-1.89-2.356c-0.092,0.015-0.791-7.144-0.309-9.881
	C123.566,55.188,123.965,54.012,123.964,54.012L123.964,54.012z M125.846,56.895c0.201-0.007,0.457,0.221,0.779,0.674
	c0.29,0.409,0.432,0.744,0.447,1.254c0.011,0.371-0.172,0.658-0.178,1.32c-0.034,3.943,0.497,7.665,1.165,11.254
	c0.235,1.283-0.223,0.76-0.981-0.053c-0.695-0.744-0.708-1.026-1.079-2.084c-0.074-0.211-0.814-7.483-0.808-8.033
	c0.025-2.26,0.09-3.519,0.35-4.061C125.626,56.988,125.725,56.899,125.846,56.895z M121.488,64.819c0,0-1.396,0.721-1.762,0.468
	c-0.59-1.613-2.717-5.934-2.754-6.698c0.038-0.252,0.872-1.388,0.872-1.388C119.02,59.76,120.078,62.378,121.488,64.819z
	 M95.214,59.631c-0.421,0.496-0.923,0.289-1.938-0.158c-0.521-0.16-0.44,0.055-1.3,0.503c-0.667,0.348-0.901,0.356-1.343,0.353
	c-0.583-0.005-0.792-0.209-0.794,0.202c0,0.228-0.035,1.255-0.173,1.787c-0.187,0.724-0.351,1.042-0.248,1.168
	c0.297,0.272,0.546,0.106,1.171-0.5c1.036-1.005,1.735-0.717,2.89-0.343c1.313,0.425,1.585,0.582,2.786,0.16
	c1.701-0.597,2.726-0.598,3.403-0.164c1.168,0.746,1.521,0.702,1.039-1.339c-0.155-0.657-0.166-1.678-0.262-1.854
	c-0.108-0.2-0.405,0.371-0.716,0.581c-0.594,0.4-0.9,0.394-2.24-0.047C96.697,59.719,95.809,58.865,95.214,59.631L95.214,59.631z
	 M116.751,59.897c0.519,1.226,2.581,5.321,2.519,5.778c-0.402,0.362-0.939,0.627-1.259,0.303c-1.031-1.889-1.341-2.907-2.179-5.026
	C115.582,60.445,116.33,59.154,116.751,59.897z M127.828,59.747c0.146-0.021,0.451,0.284,0.678,0.589
	c0.707,0.948,0.749,1.065,0.771,2.082c0.081,3.685,0.543,8.022,1.577,11.367c0.203,0.658,0.589,1.458,0.548,1.567
	c-0.348,0.507-1.956-0.852-2.441-2.919c-0.67-2.624-1.062-5.362-1.274-7.145C127.417,62.153,127.419,59.91,127.828,59.747z
	 M115.454,61.779c0.595,1.15,1.343,3.135,1.847,4.325c0.23,0.517-0.945,0.925-1.215,0.749c-0.47-0.353-0.691-1.342-1-1.936
	c-0.98-2.152-1.156-2.197-0.613-2.867C114.808,61.585,115.207,61.014,115.454,61.779z M130.156,63.099
	c0.087,0,0.198,0.085,0.34,0.268c0.619,0.735,1.041,1.297,1.203,1.842c0.117,0.396,0.023,0.692,0.064,1.409
	c0.111,1.877,0.603,4.439,1.994,9.684c0.136,0.511,0.319,1.116,0.297,1.281c-0.135,0.962-1.541-0.599-1.951-2.211
	c-0.475-1.829-1.341-4.166-1.597-6.327C129.981,65.613,129.69,63.099,130.156,63.099z M114.215,64.485
	c1.17,2.74,1.263,2.735,0.526,2.952c-0.778,0.229-0.825,0.154-1.74-1.712c-0.667-1.361-0.8-1.532-0.238-2.022
	C113.619,62.689,113.845,63.655,114.215,64.485z M97.922,63.832c-0.133,0.002-0.524,0.301-0.919,0.457
	c-0.966,0.384-2.683,0.41-3.729,0.094c-1.854-0.746-1.332,0.224,0.308,0.813c1.273,0.43,3.793,0.097,4.184-0.699
	C98.006,64.242,98.094,63.828,97.922,63.832z M112.017,65.272c1.045,1.62,1.358,2.268,1.183,2.394
	c-0.168,0.167-0.994,0.48-1.334,0.313c-0.428-0.21-0.799-1.21-0.986-1.995C111.01,65.602,111.695,64.915,112.017,65.272
	L112.017,65.272z M85.857,65.955c0.467,0.002,1.681,1.64,1.435,1.936c-0.069,0.151-0.523,0.007-1.587-0.289
	c-0.355-0.131-1.158-0.236-0.904-0.753C84.928,66.613,85.672,65.954,85.857,65.955z M110.896,68.2
	c-0.104,0.28-0.892,0.346-1.226,0.325c-0.288-0.601-0.364-0.888-0.444-1.285c0.109-0.238,0.648-0.856,0.914-0.735
	C110.301,66.647,110.815,67.904,110.896,68.2z M132.624,66.621c0.167,0.006,0.455,0.299,0.883,0.913
	c0.81,1.161,0.7,1.077,1.28,3.851c0.659,3.146,1.447,5.387,2.244,8.601c0.011,0.533-0.204,0.392-0.794,0.03
	c-0.964-0.589-1.281-1.243-1.585-2.949c-0.518-2.816-1.612-5.423-2.032-8.75c-0.222-1.101-0.239-1.704,0-1.695H132.624z
	 M108.336,67.745c0.568-0.02,0.492,0.86,0.329,1.003c-0.415,0.363-1.562,0.255-1.759,0.275
	C106.466,68.33,107.965,67.769,108.336,67.745z M135.516,70.739c0.168,0.022,0.617,0.659,1.458,1.846
	c0.808,1.14,0.631,0.953,1.114,2.829c0.684,2.592,1.816,4.461,2.479,6.847c0,0.272-0.33,0.237-0.645,0.108
	c-0.612-0.258-1.158-0.692-1.677-1.119c-0.355-0.384-0.352-0.872-1.399-4.489c-0.378-1.305-0.477-1.644-0.948-3.626
	C135.503,71.477,135.326,70.713,135.516,70.739z M47.927,78.482c2.747,5.073,1.729,7.323-4.179,8.026
	c-0.427-0.061-0.023,2.6-0.035,3.788c2.96-1.7,6.539-2.098,9.839-3.164c-0.898,2.887-2.476,6.159-7.251,5.655
	c-4.992-3.872-10.867-1.546-14.854-3.117c-2.168-0.812-2.996-3.229-3.022-3.644c2.601,0.262,5.536,0.821,8.056,0.638
	c-2.752-2.128-1.947-5.073-1.56-6.419c-3.221-4.076-0.532-8.661,4.146-7.596c0.484,0.11,1.438,0.582,1.438,0.582
	C45.018,69.178,50.248,72.987,47.927,78.482z M139.221,76.014c0.188-0.018,0.6,0.473,1.428,1.634
	c2.453,3.445,4.577,6.65,4.545,6.831c-0.105,0.594-2.662-0.446-3.308-1.297c-0.735-0.968-2.803-5.953-2.8-6.746
	C139.086,76.172,139.124,76.023,139.221,76.014z M39.295,90.771c1.275,0.188,1.633,0.297,1.619,0.797
	c0.109,0.426-3.098,0.482-3.532,0.167c-0.347-0.252,0.101-0.805,0.443-0.937C38.322,90.648,38.814,90.701,39.295,90.771z
	 M127.685,91.229c-17.914,8.492-25.242,31.081-16.2,48.392l-1.245,0.902c-8.865-18.302-2.271-37.914,12.134-47.819
	c0.584-0.416,1.873-0.737,2.473-1.136c0,0-5.875,1.345-7.864,2.126c-0.403-0.014-1.589,0.406-2.862,1.792
	c-1.113,1.035-4.594,5.852-4.482,6.02l-9.249,0.374l0.008,0.343l9.077-0.211c-9.347,15.448-7.051,30.146-1.278,40.434l0.142,0.096
	c0.336,0.227,1.219-0.421,3.051-2.163c0.754-0.718,1.705-1.608,2.113-1.981c1.131-1.041,2.744-2.837,3.852-4.134
	c-6.285-12.858-0.085-29.794,14.623-37.426c0.025-0.406-0.157-1.647-0.157-1.647s-0.556-0.501-0.884-0.449
	c-16.387,7.245-22.951,25.236-16.289,41.597l-1.099,1.2c-8.372-16.942,0.614-38.118,16.282-44.118
	c-0.008-0.383-0.347-0.871-0.768-0.577c-16.915,7.883-24.287,28.013-16.001,45.171l-1.044,0.926
	c-9.427-18.787,0.506-39.839,16.078-47.032C128.553,91.799,127.685,91.229,127.685,91.229z M36.509,91.403
	c0,0-0.118,1.001,0.233,1.342c0.162,0.714-0.097,0.637-0.701,0.491c-1.49-0.355-0.328,0.494,0.891,1.181
	c1.199,0.677,1.039,0.653-0.008,1.32c-0.704,0.447-0.631,0.616-0.536,0.956c0.14,0.504,0.236,0.168,0.528-0.101
	c0.612-0.565,1.102-0.707,1.646-0.705c0.817,0.003,0.9,0.66,0.756,1.173c-0.326,1.076-1.429,1.019-2.333,0.751
	c-1.479-0.438-3.897-3.014-3.859-4.53C33.023,91.923,34.875,91.341,36.509,91.403z M43.162,91.735
	c0.573,0.212,1.295,0.494,2.09,0.828c1.097,0.35,2.208,0.919,2.925,1.398c2.183,1.461,2.05,4.382,1.892,4.672L38.793,109.36
	c0,0-0.638-0.312-1.237-0.619c-1.896-0.971-2.352-1.482-1.3-2.021c0.511-0.261,0.676-0.821,0.748-1.37
	c0.098-0.734,0.061-0.609,0.498-0.944c0.762-0.582,0.798-0.823,0.802-1.792c0-0.641,0.068-0.937,0.301-1.339
	c0.185-0.319,0.379-0.987,0.509-1.753c0.021-0.126,0.027-0.44,0.053-0.552c0.133-0.599,0.322-0.775,0.449-0.911
	c0.126-0.136,0.329-0.599,0.471-0.999c0.314-0.894,0.255-0.761,0.763-0.662c0.738,0.145,0.633,0.576,0.552,1.262
	c-0.039,0.333-0.26,0.566-0.186,0.492c0.102-0.101,0.555-0.315,0.648-0.337c0.236-0.054,0.471,0.027,0.531,0.398
	c0.034,0.207-0.056,0.588-0.05,0.883c0.015,0.763,0.046,1.678,0.22,2.279c0.837,2.9,0.671,2.499,0.386,0.085
	c-0.068-0.577-0.148-1.426-0.065-2.133c0.059-0.497,0.201-1.114,0.394-1.451c0.495-0.865,0.521-1.036-0.552-1.463
	c-0.398-0.158-1.078-0.436-1.219-0.712c-0.172-0.338-0.683-0.799-1.35-0.956c-1.619-0.382-2.563-1.953-2.328-2.187
	c0.153-0.153,0.806,0.047,1.219,0.062c1.479,0.053,1.793-0.023,2.447-0.588c0.35-0.301,0.506-0.568,0.783-0.588
	C42.573,91.439,42.946,91.658,43.162,91.735z M119.917,93.473c-15.149,12.303-17.804,32.202-10.247,47.559l-1.308,1.031
	c-9.497-18.013-3.118-37.443,8.55-48.069L119.917,93.473z M32.458,94.939c0.268-0.025,0.56,0.369,1.624,1.51
	c0.716,0.769,1.462,1.436,1.854,1.66c0.89,0.428,0.695,0.25-0.047,0.956c-0.758,0.873-0.339,1.591-1.245,1.153
	c-2.357-1.11-4.012-4.383-2.479-5.171C32.281,94.988,32.369,94.948,32.458,94.939z M31.286,98.381l0.182,0.019
	c0.29,0.071,0.643,0.62,1.021,1.003c1.048,1.059,1.534,1.528,2.371,1.9c0.823,0.365,0.845,0.454,0.267,1.099
	c-0.211,0.235-0.337,0.517-0.387,0.674c-0.049,0.157-0.062,0.356-0.238,0.391c-0.918,0.177-3.967-1.68-4.087-2.961
	C30.514,99.308,30.814,98.417,31.286,98.381z M37.748,98.736c0.529-0.014,0.84,0.46,0.837,1.227c0,0.532-0.3,0.748-0.906,0.976
	c-1.295,0.487-2.093-0.443-1.188-1.471C36.872,99.036,37.387,98.746,37.748,98.736z M36.958,101.859
	c0.978,0.004,1.26,0.831,0.544,1.545c-0.674,0.67-2.031,0.673-2.028-0.063C35.474,102.766,36.336,101.857,36.958,101.859z
	 M30.9,102.85c0.66,0.195,2.27,1.359,2.978,1.496c0.037,0.393-0.434,0.499,0.234,1.237c0.304,0.335,0.329,0.563,0.065,0.704
	c-0.807,0.432-3.603-0.933-3.79-2.337C30.297,103.264,30.523,102.874,30.9,102.85z M34.549,104.53c0.961,0.04,2.05,0.069,1.936,0.53
	c-0.084,0.334-0.428,1.218-0.868,1.053c-0.214-0.08-0.422-0.294-0.57-0.438C34.532,105.182,34.396,104.523,34.549,104.53z
	 M70.926,108.527c2.802,2.547,12.982,29.147-8.232,48.526l-4.502,1.354c20.368-16.054,16.98-38.845,11.483-48.676
	c0-0.289-0.079-0.256-0.587,0.205c-0.443,0.403-0.49,0.49-0.312,0.564c6.211,9.594,8.533,36.692-15.94,49.769
	c-0.41,0.428,0.421,0.362,0.421,0.362c0.043-0.352,11.02-3.029,10.245-3.097c10.23-9.077,19.137-30.724,8.049-49.592
	C71.283,107.768,70.926,108.527,70.926,108.527z M67.392,111.539l-0.143,0.601c8.88,17.497,0.403,38.935-16.102,46.869
	c0.271,0.2,0.573,0.338,0.876,0.48c18.725-10.12,24.123-31.539,15.955-48.129L67.392,111.539z M65.907,112.78l-0.104,0.635
	c7.351,14.892,1.516,35.558-16.028,43.94c-0.167,0.901,0,0.639,0.823,0.596c20.299-10.927,22.208-31.707,15.856-45.201
	L65.907,112.78z M64.646,114.566c-0.573,0.76-1.623,1.154-1.972,2.133c5.897,15.645-1.725,30.705-14.627,37.053
	c-0.011,0.787-0.573,2.735,0.793,2.424c15.94-7.248,22.876-26.515,15.906-41.68L64.646,114.566z M144.717,144.814
	c0.587,0.041,1.113,0.22,1.658,0.291c1.979,0.258,3.264,1.707,2.379,2.588c-0.29,0.289-0.696,0.123-1.982-0.509
	c-0.592-0.29-0.687-0.562-0.809-1.216c-0.146-0.785-0.303-0.864-0.501-0.256c-0.201,0.615-0.417,0.996-1.093,0.841
	C142.471,146.111,143.188,144.799,144.717,144.814z M123.536,158.134c-4.755-2.708-10.626-7.593-13.983-13.142
	c-1.668,3.144-3.629,8.863-3.629,8.863l-7.463-2.093l-0.088,0.156l7.376,2.134l-0.719,2.47c-0.078,0.268-1.22,3.079-1.22,3.079
	l11.521,5.396c-0.714,1.121-1.492,1.847-2.482,2.893c-0.56,0.59-0.575,1.354-0.575,1.354l15.975-15.294c0,0,2.061,3.067,2.827,3.763
	c0.719,0.652,0.942,0.811,0.104,1.005c-3.753,0.553-6.666,3.405-5.65,7.231c0.164,0.426,0.494,0.269,1.206-0.181
	c2.492-2.265,8.583-4.362,8.791-3.829l0.023,2.436c-6.557,0.096-5.885,4.935-5.404,7.53l-1.896,1.72
	c0.67,0.353,1.327,0.718,1.947,1.152c-0.577,3.229,2.163,7.907,7.545,5.512c0.466,0.479,0.905,0.961,1.419,1.563
	c0.55-0.641,1.186-2.148,1.186-2.148c2.673,1.215,8.221-1.504,5.384-7.729l1.563-1.497l-1.503-0.951
	c-0.039-1.583-0.282-2.997-1.225-4.376c0,0,2.524,0.646,4.393,0.755c1.153,0.104,2.125,0.134,2.028-0.566
	c-0.028-0.206-0.2-1.213-0.313-1.543c-0.557-1.631-3.446-2.828-6.253-2.986c-0.458-0.026-0.95-0.012-1.049-0.131
	c-0.183-0.224,0.146-0.541,0.447-0.489c1.537,0.269,3.015-0.871,3.281-2.321c0.053-0.255,0.367-0.721,0.817-1.216
	c0.8-0.879,0.863-0.855,0.848-2.125c-0.01-0.882,0.144-1.077,0.549-1.668c0.522-0.842,0.766-1.941,0.502-3.078
	c-0.083-0.36-0.423-0.87-0.133-1.768c0.471-1.461-0.564-2.797-1.922-3.558c-0.108-0.031-0.076,0.076-0.166,0.184
	c-1.231,0.385-2.731-0.501-2.731-0.501c-0.31-0.152,1.048-8.075,3.863-7.367c0.468,0.285,0.665,1.661,0.63,1.687
	c0.13-0.004,0.2-0.811,0.018-1.35c-0.19-0.564-0.627-1.103-1.467-0.943c-0.651,0.123-1.402,0.99-1.742,1.426
	c-1.314,1.682-1.33,2.755-1.77,4.544c-0.211,0.846-0.234,0.797-1.4-0.118c-0.836-0.656-1.242-0.866-0.951-1.251
	c0.131-0.173,0.674-0.72,0.674-0.72l10.658-9.84v98.873H95.291l0.403-12.994c1.081-8.904-0.821-27.604-2.26-29.362
	c1.11-1.251,4.554-4.269,4.364-4.405l-0.457-0.271l-1.82,1.682l-4.497-1.367c-1.918-1.329-3.876-2.559-5.906-3.082
	c-3.316-0.854-9.702,1.867-9.708,1.896c-10.203,0.759-18.373,4.917-18.259,4.886c-0.444-0.41-1.032-1.717-1.048-1.709
	c-5.26-7.347-10.43-11.462-17.493-16.483l8.946-4.96l-21.201-22.235l-0.187-18.055l30.713-29.472
	c0.181-0.51,9.798,6.817,13.38,12.78c0.686-2.915,1.965-5.562,3.03-8.423c0.111-0.262,6.11,2.226,7.89,2.331
	c0.267,0.016,0.48-0.266,0.48-0.266l-7.917-2.585l1.62-4.654c0,0,0.563-1.265-0.073-1.475c-3.608-1.172-6.995-3.237-10.447-4.997
	l1.636-1.878c0.023-0.075,0.677-1.041,0.521-1.373c-1.756,1.71-16.085,15.048-16.085,15.048c-0.407-2.289-1.049-3.089-2.441-4.502
	c0.759-0.036,1.946-0.789,2.634-1.291c2.1-1.536,3.242-4.276,2.968-5.877c-2.017,0.644-3.837,1.398-6.361,1.858
	c-1.419,0.259-2.765,0.902-3.581,1.592l-0.125-2.555c0.008,0.029,3.396,0.598,4.968-1.688c1.354-1.97,0.799-4.224,0.488-5.373
	c0.035-0.255-0.041-0.227,0.544-0.766c0.431-0.398,1.103-0.914,1.103-0.914c0.028-0.145-1.752-0.807-2.053-1.412
	c0.474-4.734-3.294-6.562-6.484-5.721c-0.596,0.181-0.88,0.293-1.589-0.5c-0.105-0.118-0.957-1.02-0.957-1.02
	s-0.375,0.869-0.567,1.25c-0.626,1.237-0.798,0.865-2.146,0.932c-3.416,0.168-4.941,2.937-4.156,6.336
	c0.184,0.797,0.102,0.674-0.421,1.684c-0.267,0.515-0.702,1.172-0.702,1.172s0.627,0.349,1.049,0.538
	c0.626,0.28,0.658,0.609,0.656,1.235c0.087,1.379,0.389,2.302,1.179,3.487c-2.676,0.062-4.729-0.189-7.152-0.997
	c0.371,3.74,3.118,5.133,6.481,5.681c0,0-0.353,0.331-0.724,0.479c-0.787,0.229-1.28,0.923-1.272,1.544
	c-0.113,0.594-0.496,1.189-0.849,1.507c-0.523,0.455-0.954,1.097-0.748,2.337c-0.052,0.898-0.269,1.158-0.532,1.502
	c-0.527,0.688-0.706,1.373-0.574,2.279c0.062,0.421,0.191,1.323,0.104,2.256c-0.145,1.555,0.41,2.138,1.115,3.232
	c0.456,0.709,0.359,0.728,0.254,1.242c-0.253,1.235-0.517,1.87-0.79,2.81c-0.612,2.103-0.636,3.696-0.135,4.106
	c0.754,0.618,1.608,0.432,2.005,0.309c2.977-0.922,2.461-3.855,2.618-5.824c0.085-0.506,0.257-0.749,0.424-0.726
	c0.842,0.988,1.731,1.561,2.877,2.184c-3.961,4.046-6.497,6.522-11.505,10.937V22.314h57.211c0,0,0.059,0.826-0.077,4.393
	c-0.247,7.248-0.551,14.841-0.077,22.23c0.08,2.558,0.027,5.083,0.394,7.613c0.356,2.465,0.515,5.123,1.662,7.419
	c0.461,1.245,0.476,1.149-1.281,2.779c-0.862,0.799-1.595,1.65-1.563,1.801c0.01,0.05-0.038,0.237,0.094,0.131l0.795-0.786
	c0.477-0.564,1.272,0.159,3.99,0.929c0.533,0.15,1.284,0.654,1.858,1.072c4.063,3.436,9.778,2.364,14.051,0.49
	c1.213-0.532,1.51-0.587,3.459-0.818c7.216-0.858,14.927-4.023,14.91-4.014l0.942,1.549c0,0,0.354-0.065,0.606,0.324
	c4.151,7.868,17.702,16.859,17.461,16.443l-8.857,4.922c6.449,7.997,21.279,21.565,21.279,21.565v19.5
	c-3.959,3.179-7.864,6.821-11.346,10.379c-1.001,0.995-1.707,1.563-1.327,1.582c0.903-0.139,1.684,0.756,2.419,1.376
	c0.466,0.521,0.354,0.474-0.184,1.186c-0.378,0.501-0.517,0.646-0.518,1.007c0.014,0.699,0.008,1.169-0.612,1.693
	c-0.386,0.485-0.605,0.797-0.675,1.372c-0.069,0.574-0.064,0.942-0.458,1.451c-0.667,0.143-0.73,1.117-0.613,1.554
	c0.699,0.695,0.38,1.447,0.444,1.29c-1.334,1.453-2.734,2.713-1.84,0.681c0.402-0.757,0.543-1.384,0.543-1.384
	s-0.643,0.668-0.979,0.983c-0.514,0.479-0.702,0.196-0.718-1.287c-0.066-1.123-0.538-2.689-0.726-2.989
	c-0.104-0.167-0.122,0.122-0.072,1.204c0.064,1.422,0.232,1.834-0.266,3.254c-0.674,1.919-1.154,2.19-0.06,2.124
	c1.037-0.063,1.914-0.073,2.368,0.548c0.152,0.209,0.35,0.568,0.768,0.779c0.854,0.468,1.532,0.987,2.007,1.505
	c1.533,1.674,1.093,3.17-1.872,2.155c-1.561-0.534-0.539-1.207,1.14-1.051c1.03,0.097,1.204-0.286,0.313-0.561
	c-1.66-0.308-1.927-0.495-3.021,0.811c-4.597-0.456-7.177-3.035-8.417-5.136c-0.519-0.879-0.678-1.047-0.316-1.545
	c0.143-0.195,0.057-0.136-0.188,0.136s-0.913,0.499-1.134,0.694C126.491,155.215,124.926,156.876,123.536,158.134L123.536,158.134z
	 M143.54,147.305c0.78,0.097,0.765,0.754,0.068,1.387c-0.654,0.497-1.103,0.593-1.472,0.22
	C141.49,148.257,142.325,147.3,143.54,147.305z M145.812,147.761c0.629-0.003,1.431,0.287,2.384,1.082
	c1.137,0.948,1.396,3.246,0.353,3.644c-0.438,0.166-0.505,0.003-1.438-0.886c-0.629-0.6-1.311-1.142-1.981-1.463
	c-1.371-0.655-1.547-0.902-0.621-1.349c0.195-0.1,0.448-0.337,0.563-0.522C145.309,147.885,145.381,147.762,145.812,147.761z
	 M144.331,150.818c0.182,0.006,0.425,0.117,0.806,0.321c2.311,1.267,3.439,3.253,2.658,4.374c-0.514,0.734-1.348,0.454-1.984-0.588
	c-0.358-0.588-1.311-1.34-2.391-1.889c-1.237-0.63-1.264-0.721-0.37-1.15c0.367-0.176,0.642-0.426,0.821-0.742
	C144.079,150.775,144.097,150.812,144.331,150.818L144.331,150.818z M145.071,155.551c1.745,1.747,1.546,2.692,0.411,3.404
	c-0.773,0.485-2.016,0.606-2.423,0.204c-0.657-0.577-0.641-1.239,0.087-1.451c0.679-0.146,0.424-0.419-0.209-0.58
	c-2.264-0.645-3.655-1.851-1.195-1.589c0.707,0.075,1.39-0.476,1.76-0.916C144.035,153.973,144.757,155.236,145.071,155.551z
	 M26.027,156.224l50.842,72.854H35.787c1.446-11.587-1.458-24.447-5.299-32.838c4.18-0.712,8.162-1.821,12.148-2.924l-0.809-1.054
	c-4.756,1.907-9.145,2.605-13.275,3.078c5.483,9.368,7.44,22.282,5.796,33.737h-7.831v-56.561L26.027,156.224z M35.133,167.066
	c0.72-0.028,2.513,1.242,2.731,2.197c0.044,0.195,0.511,1.371,1.033,2.463c0.011,0.201,1.776,3.402,1.001,3.123
	c-1.545-2.105-4.303-5.691-4.997-7.438C34.901,167.178,34.932,167.074,35.133,167.066z M40.637,170.269
	c0.097,0.529,0.631,1.912,1.053,2.824c1.1,2.375,2.802,6.1,2.456,7.159c-0.233,0.715,0.008,0.678-0.617-0.205
	c-0.305-0.432-1.256-1.763-1.484-2.07c-0.558-0.75-0.183-0.062-0.501-1.283c-0.758-3.455-1.983-5.27-2.779-7.288
	C38.479,168.457,40.271,169.887,40.637,170.269z M41.615,170.796c0.148,0.104,2.168,1.529,2.372,1.733
	c0.716,2.555,3.577,10.739,2.837,12.201c-0.259-0.202-1.35-1.522-1.5-2.202c-0.33-3.914-1.567-6.729-2.895-9.645
	C42.057,172.004,41.763,171.125,41.615,170.796z M45.414,173.669c0.639,0.313,1.301,1.03,1.676,1.671
	c0.25,0.435,0.379,0.945,0.614,2.021c0.731,3.339,2.128,6.724,1.5,10.287c-0.392,0.533-1.243-0.676-1.365-1.865
	c-0.403-3.946-0.749-5.836-2.132-10.477C45.438,174.406,45.236,173.7,45.414,173.669z M48.656,176.73
	c0.137,0.006,0.416,0.261,0.883,0.7c0.908,0.855,1.036,1.171,1.041,2.59c0.03,2.085,0.722,4.466,0.83,6.571
	c0.062,1.215,0.283,4.357,0.096,4.544c-0.264,0.365-1.436-0.966-1.346-3.007c0.149-2.454,0.028-4.301-1.014-8.546
	c-0.481-1.962-0.726-2.8-0.517-2.849L48.656,176.73z M142.719,164.337c3.64,2.346,2.356,6.675,1.577,7.206
	c5.026,6.375-2.787,9.64-5.267,7.348c-3.671,3.661-9.971,0.593-7.544-5.441c0,0-4.61-8.839,4.481-8.248c0,0,0.156-3.572-0.1-3.735
	c-3.246-0.219-7.658,2.918-8.907,3.785c-0.693,0.421-0.845,0.22-0.845,0.22c-0.174-1.854-0.178-2.702,0.572-3.736
	c1.311-1.804,3.475-2.413,6.319-3.04c3.52,1.088,6.871,2.796,10.132,2.529c1.796,0.011,3.633,0.302,5.373,1.239
	c1.175,0.557,1.786,2.643,1.786,2.643C148.455,166.073,142.719,164.337,142.719,164.337z M140.987,151.229
	c0.015-0.633,0.728-1.339,1.429-1.257c0.963,0.07,1.089,1.215,0.232,1.637c-0.247,0.201-1.047-0.096-1.091,0.127
	c0.06,0.391-0.333,0.226-0.408,0.085C141.017,151.656,140.986,151.419,140.987,151.229z M140.402,153.725
	c0.354-0.248,0.649-0.271,1.006-0.317c0.547-0.066,1.246,0.017,1.4,0.592c0.152,0.563-0.926,0.896-1.799,0.911
	c-0.443,0.008-0.958,0.095-1.092-0.219C139.793,154.398,140.224,153.857,140.402,153.725z M30.226,113.412
	c0.702-2.45,0.264-3.822,1.435-6.842l2.85,0.952c0,0,0.121,2.962-0.454,4.612C33.48,113.784,31.591,115.1,30.226,113.412z
	 M51.452,179.684c0.336,0.041,1.161,1.221,1.534,2.299c0.342,1,0.229,2.271,0.479,3.348c0.559,3.693,0.525,7.393,0.377,8.511
	c-0.074,0.558-0.432,0.33-0.921-0.201c-0.712-0.772-0.614-0.789-0.605-2.934c0.008-1.838-0.399-6.38-0.586-7.304
	c-0.346-1.706-0.489-3.335-0.409-3.614L51.452,179.684z M84.779,180.125c3.67,0.587,6.604,3.102,8.284,7.241
	c1.623,4.209,2.022,9.952,2.274,15.232c-0.018,1.263-0.537,0.944-1.896,0.159c-1.485-0.729-1.801-0.518-3.969-0.02
	c-1.353,0.312-1.23-0.612,0.995-2.144c0.758-0.496,1.639-1.159,1.35-1.258c-0.147-0.051-0.825,0.133-1.315,0.53
	c-2.183,1.771-2.775,2.202-2.146,0.479c0.159-0.435,0.665-1.643,0.876-2.221c0.791-2.163-0.12-3.09-2.806-4.459
	c-0.673-0.343-1.114-0.915-0.443,0.282c0.548,0.979-0.586,1.769-1.99,0.623c-0.976-0.796-2.937-0.266-3.57,0.728
	c-0.613,0.962-0.285,2.758,0.924,3.339c1.065,0.461,1.463,0.129,0.433-0.588c-1.325-0.922-1.067-2.478,0.421-2.472
	c0.367,0.002,1.017,0.412,2.656,1.308c1.175,0.638,2.01,0.368,2.012-0.584c0-0.637,0.364-0.585,1.136-0.202
	c1.04,0.517,0.927,0.983,0.377,2.426c-0.37,1.007-0.555,2.151-0.895,3.204c-0.876,3.544-0.992,7.557-0.024,8.808
	c2.576,3.327,5.313,2.975,7.655,0.776l-0.101,3.643c-2.389,1.925-5.179,3.236-9.487,10.369c-1.502-1.895-7.948-9.638-18.286-11.387
	l-2.326-3.195c0.04-0.198-1.738-11.881-2.9-15.858c0,0,1.279-1.949,2.44-3.386C69.1,185.761,76.944,179.191,84.779,180.125
	L84.779,180.125z M71.298,183.441c-0.397,0.127-0.526-0.669-0.311-0.82c0.478-0.041,0.647-0.025,1.126,0.01
	C72.475,182.653,72.467,183.069,71.298,183.441z M53.854,182.846c0.517,0.369,1.146,1.362,1.763,2.268
	c0.341,0.501,0.147,1.332,0.2,2.152c0.075,1.162,0.203,3.079,0.285,4.257c0.159,2.297-0.055,4.219-0.389,4.911
	c-0.342,0.83-1.035,0.257-1.207-0.878c-0.042-0.272,0.185-3.09,0.185-4.637C54.69,188.258,54.014,184.975,53.854,182.846z
	 M69.501,182.829c0.183-0.011,0.321-0.004,0.441,0.151c0.557,0.716,0.782,1.148,0.275,1.541c-0.672,0.563-1.284,0.421-1.656-0.648
	C68.321,183.111,68.888,182.87,69.501,182.829z M67.428,183.46c0.601,0.403,1.195,1.466,1.258,2.232
	c-0.038,0.211-0.223,0.39-0.625,0.716c-0.399,0.367-0.525,0.344-0.971-0.362c-0.699-1.096-1.027-1.817-0.89-2.196
	C66.55,183.485,67.004,183.34,67.428,183.46z M91.863,183.599c1.002,0.085,1.99,0.545,2.966,0.776l-1.487,1.442
	C92.899,185.078,92.396,184.338,91.863,183.599z M65.205,184.352c0.549,0.717,1.507,2.595,1.456,3.292
	c-0.14,0.237-0.357,0.449-0.587,0.582c-0.184,0.05-0.348-0.271-0.968-1.372c-1.077-1.913-1.394-2.452-0.834-2.683
	C64.566,184.139,65.014,184.152,65.205,184.352z M63.032,184.796c0.6,0.535,2.038,3.387,2.079,4.188
	c-0.017,0.226-0.084,0.421-0.217,0.573c-0.904,0.976-0.676,0.818-2.021-1.963c-1.137-2.287-1.437-2.513-0.686-2.771
	C62.354,184.768,62.771,184.692,63.032,184.796z M60.871,185.54c0.395-0.006,0.506,0.657,1.275,2.165
	c1.287,2.852,1.771,3.248,1.479,3.553c-0.359,0.455-0.569,0.775-0.91,0.223c-0.776-1.268-1.547-2.885-2.27-4.305
	c-0.579-1.06-0.631-1.188-0.26-1.447C60.399,185.58,60.717,185.542,60.871,185.54z M83.855,186.35
	c-0.483,0.137-2.43,0.756-1.237,0.867c0.241,0.022,0.851-0.131,1.28-0.16c1.204-0.083,3.71,0.145,3.62-0.087
	C87.29,186.101,84.512,186.182,83.855,186.35z M59.187,186.617c0,0.048,0.313,0.604,0.624,1.148c1.83,3.549,2.848,4.842,2.522,5.402
	c-0.268,0.339-0.681,0.765-0.926,0.664c-0.394-0.163-0.918-1.324-2.228-3.954c-1.354-2.718-1.495-2.921-0.799-3.274
	C58.666,186.472,59.012,186.373,59.187,186.617L59.187,186.617z M57.358,187.869c0.842,1.372,0.731,1.191,0.722,5.658
	c-0.008,2.779-0.362,4.553-0.825,5.236c-0.243,0.358-0.671,0.147-0.883-0.553c-0.098-0.321,0.179-0.797,0.231-1.305
	c0.327-3.345,0.099-6.688,0.105-9.853C56.963,187.027,57.223,187.646,57.358,187.869z M79.056,188.965
	c0.392,0.561,0.296,1.014,0.293,1.769c-0.009,1.067,0.072,1.146,0.807,0.607c0.651-0.479,0.704-0.509,1.865,0.282
	c0.688,0.469,1.558,0.522,2.12,0.004c0.396-0.365,0.533-0.201,1.064-0.062c0.578,0.321,0.742,0.371,1.982-0.232
	c0.837-0.372,0.87-0.426,1.368-0.162c0.876,0.774,1.005,0.494,0.887-0.519c0-0.354,0.104-1.015,0.208-1.444
	c0.437-1.802-0.27-1.821-1.202-0.673c-0.361,0.444-1.167,0.637-1.929,0.278c-1.09-0.514-2.791-0.306-4.049-0.094
	c-1.488,0.251-2.178-0.16-2.775-0.673c-0.339-0.29-1.113-0.549-1.199-0.326C78.41,187.942,78.586,188.293,79.056,188.965
	L79.056,188.965z M59.098,191.492c0.187-0.041,0.473,0.514,0.891,1.688c0.54,1.515-0.403,6.781-0.972,7.644
	c-0.3,0.452-0.493,0.729-1.11-0.108c-0.245-0.369-0.054-0.486,0.189-1.521c0.37-1.575,0.682-4.124,0.701-5.31
	C58.805,192.345,58.887,191.537,59.098,191.492z M60.994,196.601c0.135,0.009,0.291,0.313,0.506,0.913
	c0.304,0.824,0.156,2.414-0.243,3.631c-0.23,0.708-0.45,1.464-0.845,2.098c-0.134,0.355-0.82,0.23-1.01-0.558
	c-0.119-0.499,0.294-1.118,0.494-1.912c0.2-0.798,0.43-1.812,0.543-2.322C60.649,197.204,60.799,196.587,60.994,196.601z
	 M75.678,198.935l-0.043,0.004l-0.012,0.012c-0.031,0.031,1.432,1.631,1.824,2.078c0.205,0.175,1.967,2.324,0.871,1.831
	c-2.765-1.15-6-0.586-7.993,1.343c-0.249,0.241-0.455-0.006-1.21-0.063c-1.548-0.115-2.109,0.501-1.169,1.266
	c0.145,0.117,0.445,0.17,0.581,0.358c0.125,0.172,0.088,0.481,0.152,0.568c2.992,3.986,8.534,4.763,12.014,2.158
	c0.438-0.328,0.684-0.443,1.092-0.321c0.809,0.242,0.881-0.438,0.166-1.39c-0.313-0.414-0.696-0.893-0.473-1.03
	c0.442-0.382,0.66-1.005-0.107-1.238c-0.53-0.161-1.124-0.753-1.422-1.578C79.602,201.968,76.193,199.005,75.678,198.935z
	 M62.094,200.68c0.65-0.016,0.68,3.842-0.039,5.012c-0.369,0.443-1.214-0.381-1.087-1.227c0.097-0.643,0.787-3.542,0.944-3.692
	L62.094,200.68z M75.354,203.087c0.546-0.005,1.293,0.24,1.887,0.778c0.322,0.291,0.884,1.553,0.65,2.047
	c-0.065,0.252-0.74,0.236-0.801,0.053c-0.371-2.545-2.427-2.914-3.08-0.539c0,0-0.423,0.361-0.477-0.334
	C73.68,203.742,74.312,203.098,75.354,203.087z M91.906,203.308c0.653-0.013,1.276,0.317,1.597,1.018
	c0.223,0.488,0.247,0.899,0.159,1.114c-0.066,0.16-0.287,0.091-0.287,0.091c-1.043-2.873-2.463-1.544-2.977,0.044
	c0,0-0.537,0.166-0.604-0.005c-0.066-0.172-0.025-0.495,0.188-0.942C90.391,203.773,91.166,203.321,91.906,203.308z M77.948,203.486
	c0.37-0.021,1.002,0.281,1.476,0.76c0.48,0.485,0.527,0.776,0.139,1.136c-0.232,0.218-1.062,0.432-1.223,0.055l-0.698-1.637
	C77.576,203.645,77.78,203.495,77.948,203.486z M72.921,203.563c0.413,0.001,0.501,0.095-0.148,1.612
	c-0.14,0.324-1.806-0.147-1.488-0.772C71.761,203.905,72.507,203.563,72.921,203.563z M89.612,203.684
	c0.167-0.009,0.302,0.016,0.358,0.093c-0.148,0.054-0.778,1.652-0.778,1.652c-0.595-0.072-1.306,0.013-1.435-0.476
	c-0.121-0.462,0.118-0.742,0.956-1.064C88.968,203.796,89.335,203.696,89.612,203.684z M94.489,204.094
	c0.631,0.231,0.778,0.768,0.698,1.045c-0.062,0.209-0.359,0.211-0.571,0.05c-0.2-0.234-0.497-0.633-0.474-0.901
	C94.208,204.02,94.288,204.017,94.489,204.094z M63.054,205.57c0.194,0.367,0.544,2.443,0.135,2.39
	c-0.397-0.103-0.582-0.729-0.651-1.293C62.522,206.551,62.876,205.584,63.054,205.57z M69.998,206.679
	c0.184-0.026,0.646,0.137,1.334,0.526c2.263,1.098,4.582,1.252,7.046,0.7c1.421-0.37,1.783-0.587,1.983-0.342
	c0.342,0.415-0.197,0.831-2.203,1.508c-2.2,0.743-4.483,0.617-7.485-1.509C69.866,206.991,69.762,206.713,69.998,206.679z
	 M95.106,207.251c0.372,0.698-0.896,1.359-1.538,1.546c-1.365,0.396-3.434,0.211-4.602-0.493c-0.098-0.06-0.191-0.122-0.281-0.188
	c-0.949-0.71-0.557-1.218,0.501-0.67c1.138,0.589,3.453,0.697,4.681,0.103C94.482,207.25,94.906,206.876,95.106,207.251z
	 M67.01,208.552c-0.127,0.028,0.087,0.349,0.527,0.828c3.096,3.487,10.48,5.379,14.631,1.785c1.301-1.225,1.102-1.775-0.948-0.797
	c-2.268,0.749-5.489,0.847-8.276,0.433c-1.37-0.186-3.603-0.713-4.734-1.545C67.495,208.732,67.121,208.527,67.01,208.552z
	 M88.352,208.656c0.188,0.016,0.52,0.086,1.238,0.461c1.049,0.547,3.431,0.359,4.21,0.071c1.644-0.609,1.98,0.164,0.424,1.027
	c-1.734,1.054-4.128,0.643-5.525-0.716c-0.433-0.389-0.666-0.873-0.477-0.912L88.352,208.656z M67.832,214.824
	c6.096,0.559,15.294,6.961,18.881,14.254h-2.064c-3.604-5.738-9.148-10.689-15.728-12.413
	C68.66,216.464,67.692,215.078,67.832,214.824z M94.887,216.16l-0.281,2.017c-1.021,0.84-4.766,3.954-7.543,8.829
	c-0.578-0.027-0.858-0.728-0.762-1.203C88.523,221.402,91.182,218.973,94.887,216.16z M70.253,217.738
	c1.398-0.097,10.497,5.14,13.561,11.34h-1.678c-3.446-4.504-7.276-7.774-10.677-8.954C70.633,219.249,69.728,217.776,70.253,217.738
	z M94.605,219.141l-0.015,2.726c-2.177,2.127-3.769,4.598-5.014,7.212h-1.69c0,0-0.375-1.078-0.244-1.544
	C89.563,224.064,91.403,221.537,94.605,219.141L94.605,219.141z M80.784,229.078h-1.636c-1.381-1.959-3.432-4.175-5.313-5.297
	c-0.772-0.959-1.637-2.144-1.288-2.336C72.567,220.736,79.807,225.979,80.784,229.078z M94.641,223.205l-0.034,1.575
	c-1.107,1.421-2.035,2.944-2.922,4.298h-1.394C91.563,226.324,94.755,222.46,94.641,223.205L94.641,223.205z M75.867,226.255
	c0.505,0.134,2.348,2.231,2.289,2.823h-0.83c-0.465-0.59-1.017-1.559-1.344-2.162C75.777,226.533,75.646,226.18,75.867,226.255z
	 M94.32,226.742h0.012l-0.016,2.336h-1.399C92.766,229.051,93.595,227.233,94.32,226.742z"/>
<path d="M101.924,22.047l52.09,74.184l0.041-16.479L137.34,58.099c3.804-1.178,8.449-1.991,12.107-2.318
	c-4.698-10.453-7.048-20.271-4.979-33.726C129.867,21.879,115.204,21.908,101.924,22.047z M143.602,22.399
	c-0.408,4.75-0.943,10.047-0.085,15.93c-2.71-0.993-3.347,0.704-3.796,0.882c-0.51-1.141-2.399-3.116-4.539-0.795
	c-1.111,1.207-0.571,3.477,2.011,4.5c-2.956,0.229-4.493-2.309-5.012-4.924c-1.598-1.026-3.277-2.041-3.438-5.641l0.819,0.138
	c-0.272,2.511,2.328,3.79,3.85,2.592c0.983-0.757,1.088-1.925,0.701-3.737c0.789-0.163,2.641-0.94,2.15-3.327
	c-0.675-3.294-4.046-2.907-5.586-0.741c-1.281-1.591-3.628-1.886-4.57,0.585c-0.523,1.376,0.671,2.921,2.028,3.22
	c-3.015,0.58-4.535-3.593-4.704-6.417l-1.249-2.226C130.334,22.391,133.898,22.399,143.602,22.399z M102.772,22.48l6.05,0.004
	l44.152,57.35l0.093,14.277L102.772,22.48z M118.068,22.484l0.964,0.012c0.756,5.048,3.647,8.702,8.595,10.48
	c0.257,4.124,2.238,9.726,9.756,11.618c-0.223,4.657,2.758,9.106,5.949,11.239c0,0-0.861,0.215-1.535,0.279
	c-4.289-3.414-5.347-8.441-5.771-10.516c-0.146-0.3-0.555-0.372-0.879-0.445c-3.672-1.302-6.762-4.328-8.024-8.023l-0.794-3.626
	c0-0.466-0.093-0.247-1.184-0.65c-2.832-1.046-5.45-4.121-6.625-7.795C117.902,23.127,118.068,22.484,118.068,22.484z
	 M114.178,22.496l3.39,0.004c0,0,0.02,0.6,0.069,0.99c0.455,3.616,3.69,8.155,6.99,9.66c0.467,0.213,1.116,0.513,1.269,0.654
	c0.922,5.928,3.6,9.498,9.25,11.943c0.09,0.094,0.345,0.153,0.42,0.271c0.771,3.666,2.454,7.916,5.657,10.252l-1.385,0.144
	L114.178,22.496z M130.734,28.718c0.766,0,1.388,0.624,1.388,1.394c0,0.769-0.622,1.389-1.388,1.389
	c-0.767,0-1.389-0.62-1.389-1.389C129.346,29.342,129.968,28.718,130.734,28.718z M83.956,36.32
	C84.036,36.521,65,52.686,66.852,83.097l-0.551,0.619l0.15,0.217c-0.629,0.716-1.234,1.291-1.92,1.989
	c3.947,2.525,10.828,5.282,10.85,5.209l-1.314,3.059l8.225,2.666l-1.104,2.906c0,0-5.722-1.904-8.094-2.697
	c-1.17,2.604-1.878,5.354-2.729,8.062c-0.08,0.219-0.267,0.113-0.56-0.31c-4.271-7.313-13.046-12.59-12.75-12.067l-31.117,29.635
	l-0.212,18.314l21.535,22.277c0,0-6.232,3.078-9.181,5.097c2.293,1.879,4.889,3.325,7.168,5.102
	c4.715,3.338,7.897,8.245,10.954,11.568c14.413-7.173,28.929-6.773,41.465-2.419c-1.46,1.542-3.091,2.879-4.596,4.552
	c3.644,9.597,2.478,28.655,2.294,29.174c7.586-7.779,18.872-24.459,17.366-47.945l3.192-3.212
	c-0.058-0.165-7.986-4.425-11.289-5.353l0.914-2.919l-7.912-2.48l0.883-2.318l7.881,2.291c1.492-3.677,3.073-8.828,3.073-8.828
	c3.147,4.727,6.616,9.025,13.757,13.399l30.939-29.713l-0.201-19.104l-21.063-21.143l8.769-4.587
	c-0.843-0.682-2.064-1.329-2.931-2.013l0.111-0.244c-0.22-0.169-0.381-0.308-0.604-0.464l-0.259,0.159
	c-2.976-2.095-5.952-4.155-8.294-6.661l-0.031-0.388c-1.217-1.305-2.429-2.52-3.667-3.804c-0.574-0.582-1.522-1.963-1.522-1.963
	l-0.055-0.456l-1.33-1.68c-4.284,2.536-22.547,8.901-40.22,1.854l3.358-3.371c-0.895-2.165-1.475-4.581-1.705-6.56
	C83.602,50.611,83.955,36.32,83.956,36.32L83.956,36.32z M139.665,40.813c0.809,0,1.465,0.659,1.465,1.471s-0.657,1.471-1.465,1.471
	c-0.81,0-1.462-0.659-1.462-1.471S138.855,40.813,139.665,40.813z M144.247,42.563c0.746,3.655,2.386,8.963,4.02,12.54l-1.946,0.217
	c-1.584-1.033-3.26-2.541-3.436-4.68c-4.285,0.032-5.538-6.714-3.973-5.904c-0.199,2.305,1.447,3.213,3.063,2.986
	c1.392-0.194,2.595-2.123,0.938-4.252C143.65,43.184,144.01,42.967,144.247,42.563z M83.517,53.373
	c0.284,4.674,1.198,8.083,2.052,11.614l-8.468,8.02C77.761,65.688,79.902,59.146,83.517,53.373z M124.126,68.769l1.075,1.549
	c-12.236,7.212-33.121,7.722-45.845,1.641l1.688-1.614C92.233,75.415,110.449,75.792,124.126,68.769z M44.654,71.176
	c-1.233-0.015-2.656,0.457-4.164,1.61c-5.613-2.567-9.291,3.434-5.818,7.408c-0.515,2.86-0.903,3.393,1.241,6.289
	c-2.278,0.291-5.153-0.308-7.6-0.686c0.413,4.236,6.456,5.223,8.972,4.757c2.717-0.591,5.279,0.758,5.391,0.789
	c1.598,0.448,2.59,1.22,4.165,1.591c2.597,0.62,6.4-2.435,6.952-5.337c0.051-0.39,0.172-0.743-0.043-0.801
	c-1.775,0.455-3.727,1.098-5.456,1.479c-1.693,0.417-2.97,0.828-4.261,1.842l-0.107-3.498c8.794,0.42,4.967-7.973,4.469-8.333
	C50.028,74.975,48.063,71.219,44.654,71.176z M124.584,71.439l1.913,4.617l-5.082,1.73l-1.3-4.521L124.584,71.439z M44.287,71.579
	c2.99,0.028,5.663,3.188,2.792,6.727c5.564,4.926-1.566,10.205-4.962,6.54c-4.521,4.155-9.324-0.185-6.799-4.71
	c-4.82-4.33,1.125-10.139,5.187-6.397C41.503,72.199,42.929,71.565,44.287,71.579z M78.99,73.27c0.715,0,1.295,0.583,1.295,1.301
	c0,0.719-0.58,1.301-1.295,1.301c-0.716,0-1.296-0.582-1.296-1.301C77.694,73.853,78.274,73.27,78.99,73.27z M45.88,73.367
	c-0.073,0-0.162,0.034-0.258,0.119c-0.146,0.014-0.46,0.557-1.25,1.475c-1.372,1.597-1.521,1.612-1.521,1.612
	c-1.462-0.48-2.439-0.221-3.402,0.391c0,0-1.1-0.209-2.615-1.479c-0.691-0.581-1.063-0.706-1.184-0.396
	c-0.128,0.332,0.186,0.658,1.512,1.563c1.835,1.254,1.721,1.158,1.721,1.158c-0.113,1.101,0.065,1.996,0.48,2.83
	c0,0-0.324,0.782-1.627,2.495c-0.368,0.483-0.67,1.01-0.671,1.169c0,0.666,0.577,0.218,1.909-1.471
	c0.521-0.662,1.238-1.61,1.238-1.61c1.564,0.544,2.112,0.213,3.093-0.137c0,0,0.337,0.251,1.189,0.934
	c1.562,1.249,1.898,1.382,2.091,1.224c0.258-0.214,0.224-0.283-0.366-0.713c-1.761-1.279-2.366-2.019-2.366-2.019
	c0.357-1.399-0.034-2.558-0.418-3.288c0,0,0.027-0.178,1.021-1.292c0.73-0.818,1.729-2.109,1.666-2.295
	C46.14,73.522,46.043,73.365,45.88,73.367z M81.912,73.649l4.577,1.428l-1.011,4.776l-4.877-1.579L81.912,73.649z M115.034,74.822
	l1.276,4.659l-4.762,1.27l-0.779-4.946L115.034,74.822z M118.377,74.899c0.716,0,1.295,0.582,1.295,1.301
	c0,0.718-0.579,1.3-1.295,1.3s-1.296-0.582-1.296-1.3C117.081,75.481,117.661,74.899,118.377,74.899z M129.2,75.065l4.002,3.576
	l-4.442,2.253l-2.14-4.66L129.2,75.065z M91.459,76.1l4.65,0.549l-0.189,5.017l-5.336-0.716L91.459,76.1z M75.327,76.153
	l5.175,2.279l-1.867,5.233l-5.298-2.284L75.327,76.153z M88.664,76.56c1.907,0.3,1.394,2.559,0,2.601
	c-0.716,0-1.296-0.582-1.296-1.3C87.368,77.142,87.948,76.56,88.664,76.56z M105.395,76.563l0.636,5.02l-4.827,0.294l-0.104-5.101
	L105.395,76.563z M108.714,77.137c0.716,0,1.296,0.582,1.296,1.3c0,0.719-0.58,1.301-1.296,1.301s-1.296-0.582-1.296-1.301
	C107.418,77.719,107.998,77.137,108.714,77.137z M41.508,77.607c0.738,0,1.338,0.598,1.338,1.339s-0.6,1.343-1.338,1.343
	c-0.737,0-1.334-0.602-1.334-1.343S40.771,77.607,41.508,77.607z M98.674,77.559c0.715,0,1.295,0.582,1.295,1.3
	c0,0.719-0.58,1.301-1.295,1.301c-0.716,0-1.296-0.582-1.296-1.301C97.378,78.141,97.958,77.559,98.674,77.559z M121.411,77.88
	l1.882,5.159l-5.275,1.706l-1.492-5.298L121.411,77.88z M125.113,78.019c0.715,0,1.295,0.583,1.295,1.301s-0.58,1.3-1.295,1.3
	c-0.716,0-1.296-0.582-1.296-1.3S124.397,78.019,125.113,78.019z M134.231,79.481l3.409,2.419l-1.689,0.944
	C135.509,81.781,134.727,80.521,134.231,79.481z M85.51,79.95l5.032,1.095l-0.768,5.291l-5.49-1.099L85.51,79.95z M70.546,80.24
	l2.672,1.262l-1.763,4.408L67.134,83.6L70.546,80.24z M82.491,80.526c0.716,0,1.295,0.583,1.295,1.301s-0.579,1.301-1.295,1.301
	s-1.296-0.583-1.296-1.301S81.775,80.526,82.491,80.526z M111.552,80.817l0.898,5.29l-5.676,0.802l-0.351-5.396L111.552,80.817z
	 M132.802,80.918c0.715,0,1.295,0.582,1.295,1.3c0,0.719-0.58,1.301-1.295,1.301c-0.716,0-1.296-0.582-1.296-1.301
	C131.506,81.5,132.086,80.918,132.802,80.918z M128.775,80.956l1.878,4.664l-5.552,2.33l-1.643-4.668L128.775,80.956z
	 M114.617,81.293c0.716,0,1.296,0.582,1.296,1.301c0,0.718-0.58,1.3-1.296,1.3c-0.715,0-1.295-0.582-1.295-1.3
	C113.322,81.875,113.902,81.293,114.617,81.293z M95.867,81.823l5.313,0.097l-0.061,5.349l-5.818-0.162L95.867,81.823z
	 M138.361,82.195l2.09,1.455c-21.508,13.882-51.721,15.604-75.3,1.938c0,0,0.964-0.964,1.512-1.528
	C87.918,96.828,118.949,95.037,138.361,82.195z M92.986,82.799c0.716,0,1.296,0.582,1.296,1.3c0,0.719-0.58,1.301-1.296,1.301
	c-0.715,0-1.295-0.582-1.295-1.301C91.691,83.381,92.271,82.799,92.986,82.799z M103.895,83.093c0.716,0,1.296,0.582,1.296,1.301
	c0,0.718-0.58,1.3-1.296,1.3s-1.296-0.582-1.296-1.3C102.599,83.675,103.179,83.093,103.895,83.093z M78.589,83.809l5.549,1.61
	l-0.944,4.396l-6.085-1.757L78.589,83.809z M74.918,83.84c0.717,0,1.296,0.582,1.296,1.301c0,0.718-0.579,1.3-1.296,1.3
	c-0.715,0-1.295-0.582-1.295-1.3C73.623,84.422,74.203,83.84,74.918,83.84z M118.015,84.776l1.326,4.935l-6.135,1.316l-0.74-4.854
	L118.015,84.776z M121.539,85.492c0.715,0,1.295,0.582,1.295,1.301c0,0.718-0.58,1.3-1.295,1.3c-0.716,0-1.296-0.582-1.296-1.3
	C120.243,86.074,120.823,85.492,121.539,85.492z M41.396,86.259l-0.013,3.46c-1.017-0.842-2.166-1.738-3.343-2.644
	C39.241,87.14,40.356,86.807,41.396,86.259L41.396,86.259z M28.761,86.344c0.28-0.003,0.935,0.227,1.716,0.225
	c2.498-0.008,7.164,0.774,8.544,1.912c0.46,0.378,1.148,0.713,1.523,1.323c0,0.291-0.411,0.299-1.015-0.077
	c-1.156-0.721-3.08-1.364-5.656-1.723c-0.465-0.064-0.523-0.046-0.523,0.175c0,0.271,0.428,0.431,1.785,0.653
	c1.755,0.289,2.129,0.463,2.518,0.569c1.042,0.286,0.376,0.669-0.697,0.772c-4.379,0.411-7.658-1.48-8.317-3.641
	C28.584,86.392,28.638,86.345,28.761,86.344z M89.771,86.421l5.51,0.716l-0.25,4.629L89,91.073L89.771,86.421z M42.915,86.824
	c0.963,0.758,0.301,3.058-0.224,3.734c-0.339,0.38-1.134,0.179-1.13-0.356c0.12-0.479-0.049-2.767,0.055-3.476
	C42,86.508,42.564,86.569,42.915,86.824L42.915,86.824z M106.768,87.029l0.285,4.771l-6.012,0.275l0.047-4.688L106.768,87.029z
	 M86.485,87.35c0.716,0,1.296,0.583,1.296,1.301c0,0.719-0.58,1.301-1.296,1.301s-1.296-0.582-1.296-1.301
	C85.189,87.933,85.77,87.35,86.485,87.35z M52.99,87.416c0.222,3.502-5.137,5.878-7.141,4.803c-0.888-0.476-0.519-0.77,1.241-1.126
	c2.277-0.605,3.777-1.194,3.778-1.622c0-0.262-0.344-0.23-1.272,0.116c-1.429,0.482-2.915,0.689-4.279,1.305
	c-1.021,0.465-1.417,0.628-1.647,0.349c-0.48-0.586,1.787-2.065,4.138-2.458C49.572,88.487,51.351,87.543,52.99,87.416z
	 M110.083,87.854c0.716,0,1.296,0.582,1.296,1.3c0,0.719-0.58,1.301-1.296,1.301s-1.296-0.582-1.296-1.301
	C108.787,88.436,109.367,87.854,110.083,87.854z M98.033,88.806c0.716,0,1.296,0.582,1.296,1.3c0,0.719-0.58,1.301-1.296,1.301
	c-0.715,0-1.295-0.582-1.295-1.301C96.738,89.388,97.318,88.806,98.033,88.806z M126.902,91.016
	c8.67,8.287,18.175,17.827,26.015,25.675c-0.011,4.106-0.034,12.319-0.034,12.319l-29.937,28.559
	c-5.421-3.321-10.01-7.475-14.235-14.85c0.477-0.413,0.896-0.676,1.257-1.127l-1.562,0.937c-5.522-8.865-7.865-26.528,1.516-40.688
	l-9.478,0.348l1.546-3.239l10.318-0.564l4.172-4.494c0,0,1.321-0.245,2.417-0.499c1.087-0.252,3.306-0.889,4.932-1.417
	C125.455,91.447,126.84,91.015,126.902,91.016z M56.915,93.311c0,0,8.911,4.86,13.858,14.595
	c-15.993,13.809-22.021,29.889-23.382,46.625c-8.704-8.172-13.103-12.692-20.968-20.628l0.285-11.844L56.915,93.311z M90.554,94.854
	c-2.306,4.947-4.289,10.367-6.065,16.174l-2.479-0.735c0,0,1.604-0.673,2.317-1.099l-1.287-2.083l2.44-1.006l-1.442-1.765
	l2.476-1.44l-1.237-1.56l2.267-1.138l-1.407-1.625l2.379-1.332l-1.241-1.556L90.554,94.854z M91.313,94.866
	c0,0,0.319,0.062,0.694,0.136l-0.39,1.343c0.866,0.179,0.917,0.131,1.176,0.209l0.66-1.37l1.083,0.205
	c-2.186,4.951-4.522,10.368-5.864,16.232l-1.276-0.268c0,0,0.373-1.236,0.374-1.401c-0.15-0.031-0.869-0.335-1.092-0.425
	c-0.076,0.193-0.532,1.625-0.532,1.625l-1.01-0.027C86.789,104.723,89.672,97.623,91.313,94.866z M95.466,95.056l2.263,1.881
	l-2.567,1.003l1.33,1.776l-2.722,0.986l1.561,1.847l-2.694,0.998l1.607,2.233l-2.804,0.948l1.771,1.962l-2.529,1.188l1.515,1.506
	c0,0-1.578,0.522-1.669,0.546c-0.254,0.064-1.314-0.198-1.314-0.198C90.811,106.02,92.786,100.228,95.466,95.056z M40.4,96.008
	c-0.624,0.407-0.268,1.294-1.052,2.052c-0.126,0.136-0.136,0.447-0.186,0.72c-0.037,0.206-0.657,2.679-0.657,2.679
	s0.157-0.188,0.405-0.978c0.212-0.673,0.396-1.95,0.51-2.163c0.578-0.178,0.665-2.069,1.252-1.811
	c0.339,0.149,0.273,0.459,0.083,1.185c-0.418,1.45-0.581,2.062,0.135,1.072c1.069-1.292,1.174-2.459-0.031-2.705
	C40.732,96.034,40.475,96.011,40.4,96.008z M56.572,96.546L28.599,122.91l-0.085,9.838l9.736,9.904l6.909,6.723
	c2.509-15.056,8.263-29.419,22.429-41.85C65.418,104.022,61.699,99.609,56.572,96.546z M131.977,96.816
	c-16.438,7.754-20.217,23.657-15.127,38.053C124.683,124.758,130.83,115.258,131.977,96.816z M73.476,97.622l7.465,2.411
	l-2.811,9.621l-6.721-2.047l-0.687-1.703L73.476,97.622z M131.15,97.873c-0.714,12.867-5.547,25.433-13.958,35.293
	C112.94,122.637,115.498,105.801,131.15,97.873z M90.946,97.943l-0.47,1.195l1.033,0.295l0.439-1.216L90.946,97.943z
	 M89.913,100.769l-0.425,1.215l1.061,0.36l0.397-1.234L89.913,100.769z M133.946,100.989c-2.301,17.847-11.907,34.088-22.056,42.364
	c3.234,5.265,7.037,8.651,10.9,11.479l28.587-27.486l-0.111-9.169L133.946,100.989z M58.403,105.727
	c-0.176,0.652-0.237,0.984-0.237,0.984s0.329-0.306,1.198-0.783c5.616-2.813,3.805,1.465,1.157,3.046
	c-0.591,0.316-1.199,0.691-1.199,0.691s0.563,0.128,1.172,0.241c3.408,0.711,2.683,2.713-0.873,2.401
	c-0.525-0.046-1.143-0.146-1.143-0.116c0,0.029,0.213,0.78,0.459,1.402c1.198,3.03-1.037,3.267-2.508,1.34
	c-0.205-0.269-0.669-1.009-0.669-1.009s-0.146,0.561-0.233,1.102c-1.271,4.749-4.405,4.629-3.235-0.189
	c0.146-0.498,0.324-1.39,0.324-1.39s-0.704,0.428-1.472,0.771c-4.06,1.819-4.719-0.053-1.03-2.791
	c1.049-0.778,1.404-1.085,1.404-1.085c-0.653-0.05-1.255-0.15-1.787-0.284c-2.941-0.741-3.726-2.506,0.987-2.424
	c0.697,0.015,1.406,0.061,1.406,0.061s-0.232-1.015-0.479-1.779c-1.137-3.54,1.155-3.961,3.088-0.79
	c0.412,0.675,0.529,0.679,0.529,0.679c-0.06,0.003,0.121-1.207,0.59-2.326C58.194,99.127,59.11,103.099,58.403,105.727z
	 M108.961,102.204c-1.964,3.482-3.676,6.944-4.492,10.555l-7.639-0.132c0.529-3.201,1.878-6.53,3.49-10.051
	C103.429,102.49,106.233,102.354,108.961,102.204z M88.795,103.748l-0.439,1.281l1.106,0.341l0.401-1.246L88.795,103.748z
	 M31.676,106.152c-0.818,2.134-1.093,4.511-1.547,6.416c-0.191,1.105,0,1.564,0.663,1.812c0.938,0.352,2.293-0.127,3.05-1.215
	c0.428-0.614,0.737-1.881,0.803-4.118l0.073-1.993C33.557,106.837,32.764,106.525,31.676,106.152z M87.762,106.431l-0.366,1.177
	l1.067,0.398l0.409-1.188L87.762,106.431z M137.231,106.872c1.3,0.032,1.541,0.148,2.718,0.848l2.271,2.345
	c-0.595,0.572-0.968,1.376-0.968,2.269c0,1.735,1.402,3.143,3.131,3.143c0.856,0,2.198-0.905,2.198-0.905l3.6,3.741
	c-2.099,0.923-4.153-1.2-4.926-2.04c-0.182-0.197-0.229-0.332-0.229-0.332s0.032,0.104-0.043,0.519
	c-0.301,1.666-1.938,6.583-3.504,6.32c-1.763-0.295,0.032-7.323,0.051-7.161c-1.211,1.286-7.117,2.655-6.703,1.219
	c0.821-2.852,5.239-3.951,5.82-4.447C138.299,110.971,135.321,107.037,137.231,106.872z M31.961,106.964
	c0.748,0.053,1.261,0.144,1.77,0.356c0.236,0.064,0.248,0.263,0.273,0.449c0.008,0.843,0.215,3.314-0.563,3.34
	c-0.864-0.018-1.675,0.168-2.244,0.604c-0.457,0.351-0.609,0.097-0.486-0.802c0.12-0.87,0.551-2.699,0.737-3.44
	C31.478,107.166,31.72,106.95,31.961,106.964z M55.3,106.996c-1.729,0-3.131,1.407-3.131,3.143c0,1.734,1.402,3.143,3.131,3.143
	s3.131-1.408,3.131-3.143C58.431,108.403,57.028,106.996,55.3,106.996z M55.3,108.095c1.124,0,2.036,0.916,2.036,2.044
	c0,1.127-0.912,2.039-2.036,2.039s-2.036-0.912-2.036-2.039C53.264,109.011,54.176,108.095,55.3,108.095z M71.455,108.133
	c7.176,12.434,6.344,29.501-2.116,41.916l9.096-0.639l-1.195,2.338l-9.697,0.948c-1.481,1.36-2.83,2.917-4.287,4.373l-0.016,0.515
	c-3.324,0.775-6.651,1.667-10.04,2.893c-1.789-1.763-5.153-5.287-5.131-5.376l0.216-1.141
	c23.063-11.811,16.315-35.496,14.692-37.444C65.45,113.534,68.403,110.729,71.455,108.133z M135.462,110.394
	c0.934,0,1.688,0.762,1.688,1.699s-0.754,1.699-1.688,1.699s-1.692-0.762-1.692-1.699S134.527,110.394,135.462,110.394z
	 M142.98,110.851l2.834,2.93c-0.368,0.364-0.873,0.592-1.431,0.592c-1.124,0-2.036-0.911-2.036-2.039
	C142.348,111.751,142.592,111.223,142.98,110.851z M45.641,111.214c0.935,0,1.689,0.758,1.689,1.695s-0.755,1.699-1.689,1.699
	c-0.934,0-1.692-0.762-1.692-1.699S44.707,111.214,45.641,111.214z M33.056,111.927c0.792,0.266,0.607,1.009-0.416,1.662
	c-0.662,0.423-1.269,0.516-1.852,0.203C29.685,113.199,31.975,111.539,33.056,111.927z M46.131,116.083l-10.191,9.896
	c0.642-1.645,0.665-3.284,0.713-4.927c3.067,0.317,4.352-1.244,3.902-4.459C42.535,116.713,44.588,116.503,46.131,116.083z
	 M62.46,117.213c4.726,13.524,0.621,27.837-14.159,36.125C48.91,140.379,54.329,127.989,62.46,117.213z M75.92,118.397
	c8.111,2.131,17.344,3.124,26.93,3.131c0.071,3.661,0.247,7.533,0.994,11.271c-8.165-2.145-17.285-3.141-27.249-2.965
	C77.009,125.965,76.347,121.575,75.92,118.397z M136.063,120.398l-8.638,10.137l0.363-5.535c2.908,0.372,3.944-1.168,3.516-4.211
	C132.893,120.986,134.477,120.707,136.063,120.398z M52.138,120.96l-0.683,4.048c-1.724,0.047-3.415,0.661-3.393,4.524l-5.151-0.062
	L52.138,120.96z M147.191,121.707c0.934,0,1.688,0.761,1.688,1.698c0,0.938-0.755,1.699-1.688,1.699
	c-0.935,0-1.693-0.761-1.693-1.699C145.498,122.468,146.257,121.707,147.191,121.707z M44.303,122.222
	c0.935,0,1.693,0.761,1.693,1.698c0,0.938-0.759,1.695-1.693,1.695c-0.934,0-1.692-0.757-1.692-1.695
	C42.61,122.982,43.369,122.222,44.303,122.222z M143.416,123.963l-0.902,6.131c-2.353-0.208-4.317,0.156-3.713,4.312
	c-1.991-0.195-4.756,0.276-6.608,0.437L143.416,123.963z M134.983,125.074c0.935,0,1.692,0.761,1.692,1.698
	c0,0.938-0.758,1.695-1.692,1.695c-0.934,0-1.692-0.757-1.692-1.695C133.291,125.835,134.049,125.074,134.983,125.074z
	 M31.902,126.39c0.935,0,1.693,0.762,1.693,1.699s-0.759,1.695-1.693,1.695c-0.934,0-1.688-0.758-1.688-1.695
	S30.969,126.39,31.902,126.39z M37.513,128.398c2.161,0.486,1.161,5.541,0.675,6.916c-0.036,0.037,6.027-3.189,6.39-1.765
	c0.236,2.855-5.021,4.846-5.021,4.846s3.543,3.089,3.644,5.031c0.009,1.256-1.481,1.023-3.416-0.569
	c-0.827-0.815-1.467-1.426-2.036-1.993c0.665-0.576,1.084-1.43,1.084-2.38c0-1.735-1.402-3.143-3.131-3.143
	c-0.955,0-1.809,0.43-2.383,1.106c-0.449-0.434-0.957-0.939-1.639-1.587c-1.118-1.049-1.902-1.883-1.789-2.26
	c1.475-1.042,4.407,1.758,4.669,2.013C34.34,134.068,35.962,128.688,37.513,128.398z M34.56,134.614l0.05,0.046L34.56,134.614z
	 M126.659,132.346c1.027-0.014,0.964,2.334,0.598,3.553c-0.251,0.93-0.497,1.691-0.497,1.691s0.865-0.679,1.249-0.859
	c2.796-1.314,3.839,0.175,2.429,1.9c-0.678,0.889-1.602,1.085-2.352,1.831c1.068,0.049,2.296,0.286,3.219,0.832
	c0.719,0.431,1.282,0.953,1.281,1.277c0,0.726-1.779,1.116-3.439,0.929c-0.707,0.016-2.036-0.363-2.036-0.363
	s0.551,0.93,0.752,1.486c0.62,1.727,0.402,3.75-0.493,3.746c-1.5-0.402-2.232-2.076-2.819-3.278c-0.481,1.34-0.948,2.773-2.021,3.77
	c-1.063,0.987-1.608,0.168-1.554-1.505c0.021-0.666,0.509-2.651,0.509-2.651c-6.299,2.135-5.832-0.754-0.915-3.283
	c-3.028-1.449-4.868-2.753,0.282-3.049c-0.136-0.124-1.035-2.893-0.072-3.541c0.894-0.603,2.8,1.467,2.892,1.567
	c-0.038-0.205,0.502-1.826,1.407-2.945C125.772,132.664,126.287,132.352,126.659,132.346z M120.852,138.372h0.016H120.852z
	 M148.43,136.543c-1.098,0.101-1.78,1.077-2.287,1.93c-0.104,0.173-0.293,0.234-0.363,0.462c-0.455,1.47-0.852,3.229-1.095,5.42
	c0.695,0.286,2.263,0.771,2.956,0.511c0.195-0.082,0.135-0.589,0.2-0.756c1.094-2.764,1.635-4.83,1.635-6.1
	C149.476,136.985,149.125,136.479,148.43,136.543z M35.708,136.418c1.124,0,2.036,0.915,2.036,2.043
	c0,0.648-0.301,1.225-0.771,1.599c-1.311-1.313-1.982-2-2.86-2.864C34.484,136.722,35.061,136.418,35.708,136.418z M148.817,137.391
	c0.274,0.67-0.609,1.398-1.753,1.394c-0.681-0.003-0.902,0.094-0.6-0.499C146.826,137.565,148.291,136.107,148.817,137.391
	L148.817,137.391z M133.468,136.917c0.935,0,1.693,0.762,1.693,1.699s-0.759,1.694-1.693,1.694c-0.934,0-1.692-0.757-1.692-1.694
	C131.775,137.678,132.534,136.917,133.468,136.917z M44.241,137.037c0.935,0,1.692,0.757,1.692,1.695
	c0,0.938-0.758,1.698-1.692,1.698s-1.688-0.761-1.688-1.698C42.553,137.794,43.307,137.037,44.241,137.037z M124.265,137.726
	c-1.729,0-3.132,1.407-3.132,3.143s1.402,3.143,3.132,3.143c1.729,0,3.131-1.407,3.131-3.143S125.993,137.726,124.265,137.726z
	 M82.422,138.147c-0.824,3.621-2.091,7.083-3.69,10.508c-3.019,0.183-6.28,0.324-8.433,0.631c3.584-6.301,3.67-7.781,4.997-11.119
	L82.422,138.147z M87.607,138.658c0.848,0.101,1.777,0.229,2.614,0.391c-1.54,5.443-3.577,11.031-6.208,16.41l-1.592-0.247
	l-0.756-0.937l2.529-1.015l-1.971-2.021l3.266-0.99l-2.009-1.989l3.228-0.81l-1.728-2.105l2.896-1.134l-1.84-2.384l3.085-0.852
	L87.607,138.658z M124.265,138.825c1.124,0,2.036,0.915,2.036,2.043s-0.913,2.04-2.036,2.04c-1.124,0-2.036-0.912-2.036-2.04
	S123.141,138.825,124.265,138.825z M90.8,139.135l1.076,0.174l-0.332,1.157l1.227,0.263l0.396-1.25c0,0,0.986,0.092,1.092,0.171
	c-1.284,5.254-5.826,16.251-5.884,16.193l-1.169-0.175l0.309-1.11l-1.087-0.155v-0.012l-0.525,1.208l-1.16-0.097
	C87.555,149.061,89.469,144.116,90.8,139.135z M147.951,139.553c0.861-0.004,0.81,0.442,0.185,2.074
	c-0.587,1.533-0.808,2.147-1.093,2.347c-0.68,0.483-2.143,0.078-2.024-0.628c0.385-2.291,0.522-3.269,1.111-3.579
	C146.744,139.645,147.342,139.555,147.951,139.553z M95.126,139.742l2.808,0.546l-2.349,1.4l1.492,1.75l-2.884,1.234l1.75,1.819
	l-2.783,1.142l1.692,2.001l-2.888,1.223l1.966,1.711l-3.246,1.029l1.229,1.896l-1.222,0.686l-1.508-0.236
	C91.687,150.083,93.295,145.263,95.126,139.742z M102.024,141.143l5.498,1.502l1.099,1.971l-2.579,8.742l-7.326-2.159
	L102.024,141.143z M91.097,141.986l-0.524,1.437l1.211,0.251l0.467-1.479L91.097,141.986z M90.033,145.284l-0.525,1.437l1.138,0.224
	l0.536-1.451L90.033,145.284z M88.961,148.184l-0.536,1.428l1.106,0.229l0.528-1.432L88.961,148.184z M140.619,150.811
	c0,0.001-0.561,0.409-0.709,0.59c0.122,0.328,0.477,0.831,0.424,1.162c-0.048,0.248-0.324,0.449-0.739,0.892
	c-1.034,1.21-1.399,1.078-0.798-0.212c0.197-0.406,0.285-0.782,0.285-0.782c-0.239,0.336-0.42,0.735-0.582,1.051
	c-0.342,0.66-0.66,1.284-0.66,1.284c0.66,0.229,1.098,0.72,1.523,1.039c0,0,0.217-0.585,0.367-1.145
	c0.208-0.781,0.62-1.102,1.125-1.37c0.319-0.17,0.623-0.479,0.623-0.479C140.923,152.271,140.859,151.458,140.619,150.811z
	 M87.815,151.163l-0.566,1.521l1.103,0.271l0.613-1.552L87.815,151.163z M25.606,154.987c-0.101,6.057,0.099,10.044-0.112,16.576
	l16.338,21.252l-2.549,0.859c0,0-0.028,0.294-0.166,0.333c-3.491,0.963-9.154,1.923-9.154,1.923
	c4.212,9.652,6.943,21.723,5.06,33.78l42.282-0.112L25.606,154.987z M115.029,165.251l-1.457,1.467
	c-21.504-11.682-51.12-11.636-72.732,2.508l-1.762-1.296C62.666,152.761,91.687,152.855,115.029,165.251z M26.396,157.112
	l49.767,71.759l-5.845,0.085l-43.879-57.617L26.396,157.112z M133.198,158.408c0,0-1.438,0.375-2.646,0.763
	c-3.457,1.111-5.075,3.119-4.758,5.906c0.094,0.823,0.307,0.812,1.716-0.081c3.298-2.09,3.504-2.183,7.611-3.391
	c0.317-0.094,0.778-0.023,0.778-0.023l-0.181,3.255c-6.847-0.025-6.473,5.433-4.504,8.271c-0.688,1.313-2.197,5.894,2.769,7.637
	c2.478,0.495,5.102-1.525,5.021-1.63c4.569,2.169,9.872-1.468,5.737-7.768c1.555-2.747,0.459-4.787-1.025-6.541
	c0,0,0.251,0.022,2.414,0.422c3.28,0.607,4.534,0.5,4.534,0.5c0.008-2.964-2.441-4.288-7.542-4.691
	C139.511,161.548,133.198,158.383,133.198,158.408z M78.106,158.753c0.247-0.002,0.491-0.002,0.737,0.004l-0.24,5.063l-5.556,0.255
	l-0.362-5.043C74.6,158.899,76.378,158.759,78.106,158.753z M84.766,158.877l5.961,0.728l-0.902,4.733l-5.49-0.592L84.766,158.877z
	 M133.092,158.936c0.493,0.056,0.335,0.629-0.341,0.762c-1.071,0.211-3.819,1.816-3.821,2.233c0,0.269,0.136,0.229,1.142-0.31
	c0.503-0.27,1.552-0.729,2.329-1.025c0.776-0.297,1.664-0.654,1.975-0.794c0.923-0.418,1.381-0.129,1.049,0.662
	c-0.221,0.522-0.308,0.563-2.449,1.246c-1.938,0.616-2.293,0.776-3.523,1.567c-0.46,0.295-1.273,0.767-1.809,1.045
	c-1.266,0.658-1.522,0.66-1.52-0.225c-0.069-2.622,2.82-4.59,6.736-5.155C132.961,158.919,133.093,158.932,133.092,158.936z
	 M81.523,159.547c0.745,0,1.35,0.606,1.35,1.354s-0.604,1.354-1.35,1.354c-0.746,0-1.35-0.606-1.35-1.354
	S80.777,159.547,81.523,159.547z M66.774,159.906l0.443,4.594l-5.464,1.409l-1.249-4.745
	C62.596,160.65,64.685,160.289,66.774,159.906z M137.158,160.255c1.498,0.229,1.379,3.672,0.613,4.269
	c-1.179,0.853-1.902-0.93-1.377-3.293C136.543,160.52,136.816,160.271,137.158,160.255z M69.875,160.44
	c0.745,0,1.35,0.606,1.35,1.354s-0.604,1.354-1.35,1.354c-0.746,0-1.35-0.606-1.35-1.354S69.129,160.44,69.875,160.44z
	 M96.564,160.835l6.177,1.691l-1.511,4.8l-5.796-1.638L96.564,160.835z M93.202,160.928c0.745,0,1.35,0.606,1.35,1.355
	c0,0.748-0.604,1.354-1.35,1.354s-1.35-0.606-1.35-1.354C91.853,161.534,92.457,160.928,93.202,160.928z M143.732,161.33
	c2.661,0.028,6.171,1.368,6.177,3.434c-0.054,0.587-5.574-0.192-8.124-1.223c-0.904-0.366-2.007-1.479-2.005-1.943
	c0-0.276,0.54-0.257,0.76,0.012c0.358,0.438,1.63,0.895,4.55,1.633c2.243,0.567,2.467,0.59,2.468,0.248
	c0-0.311-1.325-0.74-2.761-0.979c-0.723-0.118-1.396-0.337-2.506-0.433c-0.518-0.002-0.645-0.328-0.213-0.55
	C142.549,161.388,143.119,161.324,143.732,161.33z M139.032,162.398c0.671,0.316,0.913,0.946,1.284,1.277
	c-0.461,0.219-0.666,0.439-1.411,0.496C138.919,163.677,138.784,163.087,139.032,162.398z M58.142,162.771
	c0.745,0,1.35,0.606,1.35,1.354s-0.604,1.354-1.35,1.354s-1.35-0.606-1.35-1.354S57.396,162.771,58.142,162.771z M54.51,163.153
	l1.457,4.69l-5.221,2.28l-1.851-4.648C50.7,164.523,52.674,163.831,54.51,163.153z M78.65,163.92c0,0,4.159,0.006,5.595,0.023
	l-0.335,5.294l-5.189,0.039L78.65,163.92z M73.095,164.21l0.289,5.287l-4.997,0.673l-0.987-5.317L73.095,164.21z M104.688,164.257
	c0.745,0,1.35,0.606,1.35,1.354s-0.604,1.354-1.35,1.354s-1.35-0.606-1.35-1.354S103.943,164.257,104.688,164.257z M140.845,164.381
	c3.042,0.013,5.944,3.526,2.938,7.206c4.931,3.808-0.431,10.209-4.789,6.479c-6.232,6.146-9.717-2.199-7.138-4.412
	c-3.809-6.282,0.871-10.253,5.699-7.481C138.444,164.906,139.654,164.375,140.845,164.381z M89.914,164.531l5.482,1.223
	l-1.103,5.229l-5.355-1.092L89.914,164.531z M108.059,164.659l5.013,2.5l-3.887,3.754l-2.888-1.443L108.059,164.659z
	 M75.921,165.251c0.745,0,1.35,0.606,1.35,1.354s-0.604,1.354-1.35,1.354s-1.35-0.606-1.35-1.354S75.176,165.251,75.921,165.251z
	 M86.752,165.422c0.745,0,1.35,0.606,1.35,1.354s-0.604,1.354-1.35,1.354C84.766,167.818,85.3,165.466,86.752,165.422z
	 M61.785,166.184l1.223,5.229l-5.078,1.723l-1.816-5.093L61.785,166.184z M65.274,166.556c0.745,0,1.35,0.606,1.35,1.354
	s-0.604,1.354-1.35,1.354s-1.349-0.606-1.349-1.354S64.529,166.556,65.274,166.556z M140.443,168.967
	c-0.382,0.477-0.884,1.037-0.884,1.037c-1.263-0.522-2.487-0.313-3.308,0.25c0,0-0.87-0.696-1.665-1.342
	c-1.378-1.117-1.838-1.373-1.84-0.905c0,0.097,0.468,0.575,1.037,1.064c1.554,1.334,1.872,1.815,1.872,1.815
	c-0.373,1.211-0.369,2.16,0.344,3.178c0,0,0.029,0.133-0.516,0.711c-0.99,1.048-2.012,2.666-1.776,2.904
	c0.292,0.295,1.119-0.413,2.157-1.821c0.74-1.003,0.963-1.025,0.963-1.025c1.262,0.342,1.961,0.651,3.223-0.394
	c0,0,0.477,0.145,1.427,0.933c1.481,1.228,2.014,1.492,2.175,1.075c0.131-0.339-0.063-0.566-1.318-1.524
	c-0.817-0.624-1.727-1.354-1.727-1.354c0.268-0.44,0.457-2.004-0.457-3.073c0,0,0.036,0.07,1.387-1.688
	c0.899-1.169,1.055-1.316,0.757-1.567C141.896,166.719,140.577,168.8,140.443,168.967z M101.28,167.469l4.947,2.086l-1.771,5.19
	l-4.777-1.958L101.28,167.469z M46.848,167.817c0.746,0,1.35,0.606,1.35,1.354s-0.604,1.354-1.35,1.354
	c-0.744,0-1.35-0.606-1.35-1.354S46.103,167.817,46.848,167.817z M97.455,167.956c0.745,0,1.35,0.606,1.35,1.354
	c0,0.749-0.604,1.355-1.35,1.355s-1.35-0.606-1.35-1.355C96.105,168.563,96.71,167.956,97.455,167.956z M43.394,168.328l1.619,4.025
	l-3.683-2.756L43.394,168.328z M83.99,169.365l4.928,0.584l-0.778,4.715l-4.249-0.388L83.99,169.365z M78.612,169.377l-0.051,4.846
	l-4.681,0.201l-0.396-4.838L78.612,169.377z M54.529,170.26c0.744,0,1.35,0.606,1.35,1.354s-0.604,1.354-1.35,1.354
	c-0.746,0-1.35-0.606-1.35-1.354S53.783,170.26,54.529,170.26z M50.797,170.356l1.904,4.868l-2.953,1.433l-3.961-3.763
	L50.797,170.356z M68.413,170.418l0.764,4.633l-4.882,1.211l-1.184-4.714L68.413,170.418z M138.184,170.465
	c1.063,0,1.925,0.864,1.925,1.931s-0.862,1.932-1.925,1.932s-1.924-0.865-1.924-1.932S137.121,170.465,138.184,170.465z
	 M81.068,170.611c0.745,0,1.35,0.606,1.35,1.354s-0.604,1.354-1.35,1.354s-1.35-0.606-1.35-1.354S80.323,170.611,81.068,170.611z
	 M94.363,171.11l5.205,1.691l-1.75,4.185l-4.496-1.224L94.363,171.11z M71.294,171.285c0.745,0,1.35,0.606,1.35,1.354
	s-0.604,1.354-1.35,1.354s-1.35-0.606-1.35-1.354S70.549,171.285,71.294,171.285z M91.086,171.784c0.745,0,1.35,0.606,1.35,1.354
	s-0.604,1.354-1.35,1.354c-0.746,0-1.35-0.606-1.35-1.354S90.34,171.784,91.086,171.784z M58.033,173.371l1.793,4.141l-4.896,2.125
	l-2.132-4.223L58.033,173.371z M61.504,173.619c0.745,0,1.35,0.606,1.35,1.354s-0.604,1.354-1.35,1.354s-1.35-0.606-1.35-1.354
	S60.759,173.619,61.504,173.619z M79.545,174.869c8.039-0.018,15.297,1.67,21.122,4.091l-1.735,1.633
	c-18.896-6.518-31.252-3.581-43.925,1.997l-1.28-1.587C62.684,176.605,71.506,174.886,79.545,174.869z M100.922,174.919
	c0.745,0,1.35,0.606,1.35,1.354s-0.604,1.354-1.35,1.354s-1.35-0.606-1.35-1.354S100.177,174.919,100.922,174.919z M51.68,177.892
	c1.084,0.064,1.188,2.095,0.682,1.509l-1.207-1.4C51.351,177.916,51.524,177.883,51.68,177.892z M102.194,178.731
	c-0.04,1.54-1.493,11.86-6.397,18.956c-0.297-3.589-1.16-7.88-2.124-10.743C93.673,186.944,98.949,182.051,102.194,178.731z
	 M39.464,194.371l25.518,34.538l-2.68-0.019c-0.56-2.537-1.37-5.132-2.961-7.071c-1.292-1.575-2.449-2.762-4.766-3.82
	c-1.395-0.636-1.574-0.501-1.662-1.575c-0.421-6.041-5.294-9.84-9.026-11.285c-0.36-3.651-2.002-7.244-6.119-10.269L39.464,194.371z
	 M36.979,195.198c2.331,1.608,4.887,3.003,6.264,9.345c0.104,1.325,0.185,1.185,1.222,1.574c4.066,1.197,7.604,6.104,7.92,10.392
	c0,1.294,0.417,1.409,2.005,2.079c1.95,0.821,3.975,2.561,5.12,4.272c1.705,2.461,2.307,6.188,2.16,6.011l-1.404,0.008
	c-1.001-6.318-4.961-8.839-9.15-10.02c0.326-8.92-6.583-11.704-8.996-12.123c0.142-6.425-4-9.075-6.673-11.23
	C35.944,195.309,36.979,195.198,36.979,195.198z M32.852,196.084c2.087,0.685,3.669,3.604,3.509,4.948
	c2.753,0.348,5.646,3.02,5.011,5.802c-0.204,0.117-0.525,0.142-0.844-0.178c0.738-5.398-7.29-2.726-4.082,1.18l-1.435,0.94
	c-1.153-5.402-2.574-8.463-4.116-12.365C31.457,196.263,32.852,196.084,32.852,196.084z M39.499,207.402
	c0.713,0,1.288,0.581,1.288,1.297s-0.575,1.296-1.288,1.296c-0.714,0-1.292-0.58-1.292-1.296S38.785,207.402,39.499,207.402z
	 M46.391,213.229c3.066,0.871,4.059,3.985,3.957,5.119l-0.67-0.016c-1.078-4.935-6.682-2.25-4.343,1.686
	c-2.995,1.111-2.759,3.887-1.877,4.984c1.218,1.515,4.321,1.467,5.268-0.864c2.913,3.781,6.931-0.462,3.386-3.986
	c2.903,1.073,3.369,4.978,2.933,6.197c1.348,0.461,2.9,2.608,2.692,2.596l-21.754,0.004c0,0,1.053-8.812-0.065-15.462
	c1.447,0.35,2.418,0.701,4.083-1.262c2.695,2.24,4.632,0.55,4.492-1.385c-0.207-1.354-0.904-2.026-2.059-2.74
	C44.792,207.518,46.576,211.612,46.391,213.229L46.391,213.229z M48.818,219.437c0.734,0,1.33,0.598,1.33,1.335
	c0,0.738-0.596,1.336-1.33,1.336s-1.33-0.598-1.33-1.336C47.488,220.034,48.084,219.437,48.818,219.437z"/>
<path fill="#D40000" d="M15.068,57.12c-1.721-2.846-3.531-5.612-5.794-7.975c2.263-2.362,4.073-5.129,5.794-7.975
	c1.722,2.846,3.532,5.612,5.795,7.975C18.601,51.508,16.79,54.274,15.068,57.12z"/>
<path fill="#D40000" d="M164.759,210.121c-1.721-2.846-3.531-5.611-5.794-7.975c2.263-2.362,4.073-5.129,5.794-7.975
	c1.721,2.846,3.532,5.612,5.794,7.975C168.291,204.51,166.479,207.275,164.759,210.121z"/>
<path fill="#D40000" d="M48.869,65.67c-4.131-6.83-8.476-13.468-13.906-19.139c5.431-5.67,9.775-12.309,13.906-19.139
	c4.131,6.83,8.477,13.469,13.906,19.139C57.346,52.202,53,58.84,48.869,65.67z"/>
<path fill="#D40000" d="M130.958,223.909c-4.131-6.83-8.477-13.468-13.907-19.139c5.432-5.671,9.776-12.309,13.907-19.139
	c4.13,6.83,8.476,13.468,13.906,19.139C139.434,210.441,135.088,217.079,130.958,223.909z"/>
<path fill="#D40000" d="M9.279,29.963H7.083v-2.998h2.196c0,0,0.018-1.615,0.08-4.465c0.137-6.074,0.288-7.018,2.044-8.689
	c3.468-3.304,9.276-0.612,9.207,4.356c-0.101,7.013-0.027,13.697-0.232,14.645c-0.363,1.668-0.399,1.762-0.252,2.066
	c0.305,0.612,2.928,0.877,2.928,0.706v2.953c-2.004,0.155-2.836-0.033-4.439-1.179c-1.001,0.967-4.048,1.938-6.472,0.796
	C10.3,37.285,8.902,35.041,9.279,29.963z M16.703,35.196c-1.088-1.574-2.92-3.724-4.644-4.487c-0.107,1.812,0.049,3.33,0.685,4.146
	C13.756,36.155,15.391,36.453,16.703,35.196z M17.606,17.877c-0.808-2.291-2.884-3.068-4.399-1.635
	c-0.948,0.893-1.101,1.831-1.121,6.93c-0.012,3.146-0.012,4.468-0.012,4.468c2.952,0.958,5.712,4.404,5.688,4.359l0.071-9.512
	C17.892,20.943,17.815,19.398,17.606,17.877L17.606,17.877z"/>
<path fill="#D40000" d="M170.548,221.329h2.196v2.998h-2.196c0,0-0.017,1.615-0.08,4.466c-0.136,6.074-0.288,7.017-2.044,8.688
	c-3.468,3.304-9.275,0.612-9.207-4.356c0.101-7.012,0.027-13.697,0.232-14.645c0.363-1.668,0.4-1.762,0.252-2.066
	c-0.305-0.612-2.928-0.877-2.928-0.706v-2.953c2.004-0.155,2.836,0.033,4.439,1.179c1.001-0.967,4.048-1.938,6.472-0.795
	C169.527,214.007,170.925,216.251,170.548,221.329z M163.124,216.096c1.089,1.574,2.92,3.724,4.644,4.487
	c0.107-1.812-0.049-3.329-0.684-4.146C166.072,215.137,164.437,214.84,163.124,216.096z M162.221,233.415
	c0.809,2.291,2.884,3.068,4.4,1.635c0.947-0.892,1.1-1.831,1.12-6.93c0.012-3.146,0.012-4.468,0.012-4.468
	c-2.952-0.958-5.712-4.404-5.688-4.359l-0.071,9.512C161.936,230.349,162.012,231.894,162.221,233.415z"/>
</svg>
