<?xml version="1.0" encoding="utf-8"?>
<!-- Generator: Adobe Illustrator 16.0.0, SVG Export Plug-In . SVG Version: 6.00 Build 0)  -->
<!DOCTYPE svg PUBLIC "-//W3C//DTD SVG 1.1//EN" "http://www.w3.org/Graphics/SVG/1.1/DTD/svg11.dtd">
<svg version="1.1" id="Layer_1" xmlns="http://www.w3.org/2000/svg" xmlns:xlink="http://www.w3.org/1999/xlink" x="0px" y="0px"
	 width="178.58px" height="249.45px" viewBox="0 0 178.58 249.45" enable-background="new 0 0 178.58 249.45" xml:space="preserve">
<path fill="#FFFFFF" d="M9.524,0.422h160.778c4.696,0,8.504,3.807,8.504,8.504v231.644c0,4.696-3.808,8.504-8.504,8.504H9.524
	c-4.696,0-8.504-3.808-8.504-8.504V8.926C1.021,4.229,4.828,0.422,9.524,0.422z"/>
<path fill="none" stroke="#000000" stroke-width="0.9967" d="M9.524,0.422h160.778c4.696,0,8.504,3.807,8.504,8.504v231.644
	c0,4.696-3.808,8.504-8.504,8.504H9.524c-4.696,0-8.504-3.808-8.504-8.504V8.926C1.021,4.229,4.828,0.422,9.524,0.422z"/>
<path fill="#D40000" d="M14.733,56.222c0,0-1.772-2.544-4.162-5.534c-1.599-2.002-2.877-4.169-2.996-6.035
	c-0.136-2.133,1.154-4.271,3.49-4.375c2.335-0.104,3.282,1.644,3.668,3.084c0.386-1.44,1.333-3.188,3.668-3.084
	c2.336,0.104,3.626,2.242,3.49,4.375c-0.119,1.866-1.397,4.033-2.996,6.035C16.505,53.678,14.733,56.222,14.733,56.222z"/>
<path fill="#D40000" d="M165.095,193.273c0,0-1.772,2.544-4.162,5.534c-1.599,2.002-2.878,4.169-2.996,6.035
	c-0.137,2.132,1.153,4.271,3.489,4.375c2.335,0.104,3.283-1.644,3.668-3.085c0.387,1.441,1.334,3.188,3.669,3.085
	c2.336-0.104,3.626-2.243,3.489-4.375c-0.118-1.866-1.396-4.033-2.996-6.035C166.866,195.817,165.095,193.273,165.095,193.273z"/>
<path fill="#D40000" d="M8.943,29.064H6.747v-2.998h2.196c0,0,0.017-1.616,0.08-4.466c0.136-6.074,0.287-7.017,2.044-8.688
	c3.468-3.305,9.275-0.612,9.207,4.356c-0.101,7.012-0.028,13.697-0.232,14.645c-0.363,1.667-0.4,1.762-0.252,2.066
	c0.304,0.612,2.928,0.877,2.928,0.706v2.953c-2.004,0.155-2.837-0.033-4.44-1.18c-1,0.968-4.047,1.938-6.471,0.796
	C9.963,36.387,8.566,34.143,8.943,29.064z M16.367,34.298c-1.089-1.575-2.921-3.724-4.645-4.487
	c-0.107,1.811,0.049,3.329,0.685,4.146C13.419,35.257,15.054,35.554,16.367,34.298z M17.27,16.979
	c-0.808-2.292-2.883-3.068-4.399-1.635c-0.948,0.892-1.1,1.831-1.12,6.93c-0.012,3.146-0.012,4.467-0.012,4.467
	c2.951,0.959,5.711,4.405,5.688,4.36l0.072-9.513C17.556,20.045,17.479,18.499,17.27,16.979L17.27,16.979z"/>
<path fill="#D40000" d="M170.882,220.431h2.196v2.998h-2.196c0,0-0.017,1.615-0.08,4.465c-0.136,6.075-0.287,7.018-2.044,8.689
	c-3.468,3.304-9.275,0.612-9.207-4.356c0.101-7.013,0.028-13.697,0.232-14.645c0.363-1.668,0.4-1.762,0.252-2.066
	c-0.305-0.612-2.928-0.877-2.928-0.706v-2.953c2.004-0.155,2.837,0.032,4.439,1.179c1.001-0.967,4.049-1.938,6.472-0.796
	C169.862,213.108,171.259,215.353,170.882,220.431z M163.459,215.197c1.088,1.574,2.92,3.724,4.643,4.486
	c0.108-1.811-0.049-3.328-0.684-4.146C166.406,214.238,164.771,213.94,163.459,215.197z M162.556,232.517
	c0.808,2.291,2.883,3.068,4.399,1.635c0.948-0.893,1.1-1.831,1.121-6.93c0.012-3.146,0.012-4.468,0.012-4.468
	c-2.952-0.959-5.712-4.404-5.688-4.359l-0.072,9.512C162.27,229.45,162.347,230.995,162.556,232.517L162.556,232.517z"/>
<path fill="#131F67" d="M155.221,19.485H24.606V230.01h130.614V19.485z M139.126,21.183h14.042v81.161c0,0-1.158-0.024-1.078-0.592
	c0.106-0.76-0.01-2.182-0.538-2.779c-0.224-0.252-0.587-0.648-0.73-0.938c-0.361-0.725-0.955-1.474-1.431-1.676
	c-0.236-0.101-0.51-0.156-0.546-0.321c-0.032-0.153-0.11-0.658-0.211-1.123c-0.253-1.163-0.478-1.126,0.257-2.284
	c2.547-4.01,3.527-7.699,3.206-11.357c-0.101-1.143-0.386-2.622-0.52-2.825c-2.462,2.483-4.243,5.553-5.918,7.82
	c-0.374-3.239-0.32-5.686-0.374-8.282c1.314-0.378,2.109-1.082,2.676-2.885c0,0,1.409,1.111,2.271,0.953l-0.567-2.094
	c3.769-1.164,4.284-6.117-0.167-7.164l0.4-2.608c0,0-1.343,0.453-1.934,0.743c-0.294,0.125-0.367,0.026-0.573-0.402
	c-2.075-3.252-5.299-2.56-6.72,0.646l-1.738-0.743c0.189,0.888,0.414,1.787,0.254,2.675c-3.646,1.636-2.746,6.111,0.166,6.697
	l-0.254,2.091l2.191-0.712c0.319,0.981,0.156,1.55,1.906,2.655c-0.043,4.382-0.113,7.121,0.023,11.014
	c-2.282-2.354-4.485-3.987-8.346-5.188c0,0-0.036,0.943,0.188,2.377c0.074,0.473,0.061,0.403-0.161,0.403
	c-0.502-0.012-2.765-3.675-2.765-3.675s-0.263,0.004-0.491,0.232c-0.27,0.27,0.346,0.767,1.211,2.06
	c1.013,1.514,0.914,1.45,0.119,2.129c-4.521,3.863-11.05,18.566-9.954,19.996c-2.857,0.172-13.996,5.672-16.02,17.01
	c-0.119,0.511-0.357,1.174-0.357,1.174l-3.222-0.806c1.943-9.287,6.328-28.171,6.328-28.171s3.083-0.883,4.886-1.077l-0.019-0.731
	l-4.245,0.995l0.204-1.618l4.007-0.794l-0.012-0.383l-4.24,0.573l0.691-2.695c0,0-9.52,1.408-12.929,1.305
	c0.216,10.478-0.605,19.182-0.163,30.474l-4.654-2.84c-0.414-7.861-0.538-27.719-0.538-27.719l-12.851-2.032l0.428,3.119
	c-10.653-4.251-21.34-8.163-29.209-16.475c4.845-3.744,12.93-7.457,12.93-7.457l-0.266-0.596
	C43.893,78.763,36.681,85.932,26.693,94.826V21.183h53.813l-0.18,13.495c0,0-0.07,0.348-0.174,0.469
	c-0.663,3.248,1.241,9.016,0.857,11.822c0.178,0.867,0.115,2.479,0.115,2.479c-3.238,4.467-4.955,8.708-6.396,13.901
	c-0.559,0.223-1.381,0.683-1.961,0.84l-0.166,0.709c1.271-0.703,4.875-1.851,4.875-1.851c16.055,7.881,27.852,5.952,40.479,0.097
	c-2.013,7.116,2.364,16.165,9.565,18.067c0.823,0.218,2.234,0.403,3.041,0.189c0.806-0.234-1.815-6.273-2.976-6.5
	c-3.479-1.517-4.911-5.082-4.541-9.171l-0.576-0.976c-1.186,4.967,1.668,10.011,5.586,11.242l1.054,2.315
	c-7.102-2.146-10.126-8.842-7.762-15.462c0.042-4.132-2.617-5.959-3.837-7.739c-6.176-2.372-7.324-8.132-6.244-12.787
	c2.876,1.231-1.938-4.088-1.938-4.088c-2.117,4.619-3.002,10.458,1.842,16.376c-3.133,4.181-7.174,7.488-11.691,10.313
	c-6.602,3.47-11.554,1.132-14.743-6.55c-1.915-4.612-2.601-9.21-2.591-14.025c0.011-2.981,0.044-3.072,1.153-2.567
	c1.042,0.476,3.302,0.543,4.651-0.158c1.839-0.955,1.752-0.374-0.25,1.699c-0.545,0.564-1.126,1.073-1.126,1.181
	c0,0.612,0.854,0.097,2.075-1.122c0.446-0.445,0.776-0.874,0.916-0.867c0.159,0.007,0.145,0.58-0.039,1.2
	c-0.07,0.237-0.295,1.242-0.5,2.229s-0.485,2.146-0.623,2.578c-0.543,1.712-0.396,2.506,1.235,3.297
	c0.86,0.417,2.331,1.837,2.317,1.837c0,0-0.351-1.557-0.221-2.058c0.156-0.602,0.867-0.176,1.591,0.172
	c1.601,0.77,2.531,0.792,3.39,0.07c1.186-0.996,0.846-3.234-0.619-3.817c-1.074-0.429-1.262-0.032-0.189,0.721
	c1.609,1.13-0.205,2.877-1.572,1.794c-1.068-0.847-2.925-0.941-3.132-0.236c-0.196,0.667-0.398,0.546-1.138,0.11
	c-1.15-0.677-1.16-0.796-0.196-4.529c1.824-7.071,1.646-9.667-0.772-11.815c-1.791-1.59-4.748-2.328-7.816-0.562v-2.408
	c4.504-1.812,7.78-4.896,10.422-9.914h0.516c2.631,5.735,6.883,9.939,14.882,12.961c3.126,3.107-3.962-8.925-1.699-3.999
	c-4.244-1.655-8.028-4.948-10.111-8.962h1.157c1.22,1.774,3.69,5.097,8.089,7.332c1.916,0.013-2.823-5.846-3.51-7.332h36.872
	c-1.17,9.043-2.818,18.719,3.666,36.331c-3.041-1.608-15.235,1.817-13.089,2.494c1.077-1.252,8.849-3.101,14.598-1.734
	C142.596,57.86,134.303,38.442,139.126,21.183L139.126,21.183z M143.07,58.273l0.023,0.004L143.07,58.273z M114.583,93.169
	l0.034,1.417l0.293-0.069l-0.17-1.378L114.583,93.169z M81.294,21.183h1.618c-0.355,0.736-0.874,1.373-1.664,1.827L81.294,21.183z
	 M84.077,21.183h1.741c-1.356,2.175-2.799,3.577-4.54,4.606l0.031-1.703C82.316,23.198,83.276,22.195,84.077,21.183z M86.957,21.183
	h1.606c-2.181,3.374-4.419,5.724-7.285,7.158v-1.378C83.049,25.576,85.559,23.454,86.957,21.183z M89.409,21.183h1.3
	c-2.234,4.286-5.351,7.331-9.431,8.978v-1.03C85.747,26.732,87.703,23.971,89.409,21.183z M92.962,21.183h1.561
	c2.142,4.285,6.591,8.424,11.476,10.201l0.746,1.737C100.305,30.794,96.039,27.313,92.962,21.183z M97.479,21.183h1.115
	c1.172,1.646,2.592,3.066,4.252,4.177l1.011,1.971C101.617,25.813,99.116,23.885,97.479,21.183z M99.513,21.183h1.245l1.649,2.919
	C101.309,23.479,100.477,22.131,99.513,21.183z M98.082,32.394c-1.707-0.008-3.261,0.467-4.386,1.39
	c-1.188,0.976-0.314,2.039,1.396,1.239c2.912-1.361,6.257-0.748,9.868,1.242c3.041,1.677,1.976-0.07-0.86-1.936
	C102.154,33.034,100.018,32.402,98.082,32.394z M84.35,34.589c2.45,0.02,5.257,1.112,5.325,2.559
	c-1.625-1.368-4.891-2.032-8.023-0.627c-0.24-0.051-0.273-0.909-0.131-1.224C82.195,34.796,83.236,34.58,84.35,34.589z
	 M99.186,35.521c-1.549,0-2.967,0.408-3.621,1.285c-0.335,0.416-0.423,0.461-0.792,0.399c-0.721-0.121-0.681,0.299,0.142,1.447
	c0.399,0.558,0.334,1.192-0.199,1.947c-0.612,0.868-0.493,0.901,1.33,1.781c1.394,0.684,2.513,1.652,3.779,2.45
	c0.904,0.514,1.085,0.063,0.25-0.615c-0.287-0.232-1.137-0.843-1.899-1.344c-1.294-0.848-2.243-1.704-1.215-1.323
	c0.471,0.149,0.593,0.212,1.11,0.302c1.333,0.29,2.649,0.451,3.768,0.225c0.803-0.162,1.848-0.696,2.707-1.444
	c0.22-0.102,0.437,0.007,0.969,0.027c2.037,0.079,1.587-0.522-1.338-2.13c-2.895-1.59-5.165-1.879-7.017-1.006
	c-0.783,0.369-1.232,0.462-1.118,0.229c0.118-0.244,0.336-0.526,0.688-0.732c2.992-1.803,5.397-0.308,8.035,1.046
	c1.132,0.679,1.438,0.855,1.572,0.639c0.172-0.278-1.262-1.305-3.187-2.276C102.021,35.839,100.553,35.522,99.186,35.521z
	 M89.619,37.609c0.506,0.2,0.279,0.782-0.184,0.599c-2.763-1.249-3.317-1.857-6.611-0.701c-1.088,0.382-1.52,0.044-0.184-0.532
	C85.55,35.748,87.662,36.575,89.619,37.609z M87.726,39.079c-0.749,3.828-4.533,2.648-4.106,0.02l0.696,0.004
	c0.055,2.313,2.355,2.297,2.749,0.023L87.726,39.079z M109.734,39.088l1.02,2.194c-2.229,5.527,0.797,12.971,7.377,14.754
	c0,0,1.063,1.643,0.854,1.851C106.631,55.134,107.581,43.274,109.734,39.088z M98.032,39.23l0.347,0.02
	c1.066,2.668,2.616,1.135,2.918,0.008l0.787,0.02C101.844,42.041,97.681,42.51,98.032,39.23z M88.51,39.309
	c0.5-0.06,0.67,0.696,0.53,0.836c-0.038,0.038-0.953,0.933-1.065,0.406C87.812,39.78,88.302,39.346,88.51,39.309z M82.746,39.386
	l0.131,0.008c0.311,0.238,0.428,0.949,0.266,1.316c-0.184,0.191-0.926-0.07-1.068-0.356C81.854,39.936,82.112,39.382,82.746,39.386z
	 M102.784,39.642c0.243,0.01,0.915,0.301,0.85,0.627c-0.017,0.082-0.95,0.774-1.161,0.662c-0.405-0.218,0.155-1.212,0.234-1.274
	L102.784,39.642L102.784,39.642z M97.325,39.761h0.015c0.072,0.054,0.669,0.428,0.162,1.119l-0.723-0.274
	C96.724,40.203,97.232,39.79,97.325,39.761z M112.295,44.608c-0.15,3.177,0.672,6.261,4.117,8.241l-0.741-1.362
	c-0.884-0.708-2.734-2.73-2.503-5.138L112.295,44.608z M81.354,50.287l0.389,2.091c-1.896,3.172-3.335,6.29-4.528,9.934
	l-1.792,0.658C76.846,58.374,78.16,54.732,81.354,50.287z M82.108,53.543l0.507,1.797c-0.931,1.727-1.926,3.679-2.525,5.949
	l-1.979,0.736C79.001,59.016,80.304,56.093,82.108,53.543z M88.387,54.286l-0.089,0.012c-0.021,0.354-0.017,1.333,0.058,2.946
	c0.015,0.306,0.313,0.177,1.153-0.256c0.733-0.377,0.657-0.437,1.368-0.197c1.969,0.679,2.864,0.384,3.633,0.185
	c1.174-0.304,1.652-0.181,2.334,0.229c0.375,0.227,0.887,0.393,0.988,0.43c0.54,0.198,0.334-0.041-0.034-1.51
	c-0.415-1.651-0.237-1.832-0.895-1.402c-0.145,0.095-0.562,0.327-0.79,0.354c-0.572,0.067-1.528-0.64-2.099-0.415
	c-1.382,0.545-1.369,0.401-2.651,0.085c-0.642-0.158-1.256,0.234-1.813,0.346C89.232,55.132,88.829,54.283,88.387,54.286z
	 M111.884,55.142c2.333,2.155,4.732,2.894,7.335,3.709c-0.313,1.072-0.941,2.277-1.234,3.678
	c-13.544,7.209-27.154,6.982-39.994,0.438l6.663-2.563c3.64,6.348,8.306,8.042,13.552,5.966
	C104.067,63.623,108.406,59.803,111.884,55.142z M82.942,56.412l0.577,1.556l-0.857,2.347l-1.635,0.665
	C81.341,59.382,81.944,58.068,82.942,56.412z M95.184,58.216c-0.405,0.02-1.018,0.294-2.414,0.302
	c-0.757,0.004-1.349-0.063-1.643-0.004c-0.607,0.124,0.104,0.397,1.465,0.79c1.362,0.39,3.027-0.198,3.233-0.794
	C95.876,58.364,95.696,58.19,95.184,58.216z M83.899,58.982l0.358,0.789l-0.611,0.221L83.899,58.982z M119.911,59.428l1.011,2.318
	c-1.752,3.818-2.915,14.282,8.781,17.537l0.511,1.498C122.254,80.938,114.276,70.75,119.911,59.428z M93.131,60.217
	c-1.144-0.011-2.34,0.274-3.11,0.891c-0.696,0.555,0.155,0.905,1.061,0.461c1.174-0.575,3.133-0.527,4.283,0.197
	c0.88,0.604,1.338,0.497,0.749-0.422C95.652,60.622,94.426,60.23,93.131,60.217z M144.196,62.822
	c3.058-0.051,3.375,4.356,2.78,4.734c0.172-0.058,0.694-0.213,1.438-0.193c2.24,0.06,3.408,1.307,3.537,3.121
	c0.13,1.827-1.249,2.846-3.26,2.744c-0.747-0.037-1.261-0.113-1.227,0.02c0.373,1.461-0.078,3.662-1.999,4.212
	c-0.221,0.063-0.535,0.373-0.542,0.483c-0.145,2.317,0.511,10.275,0.511,10.275s3.603-6.098,4.414-7.023
	c1.586-2.18,2.155-1.974,1.876,1.638c-0.387,4.997-1.148,6.159-4.002,10.395c-1.259,1.816-4.237,0.862-3.968,2.091
	c0.06,0.271,0.543,0.758,1.026,1.219c0.31,0.296,0.63,0.481,1.354,0.457c1.271-0.042,1.766-0.302,1.007,0.811
	c-0.601,0.88-2.713,1.063-2.95,1.521c-0.554,1.064-0.175,0.829-1.121,1.765c-0.724,0.799-0.472,0.393-0.143,1.05
	c0.519,0.848,0.303,2.541-0.211,3.682c-0.418,0.929-0.372,1.592-0.372,1.592c0.008,0.077,1.177-1.215,1.529-2.707
	c0.293-1.242,0.637-1.864,0.634-1.169c0,0.877,0.148,2.069,0.935,2.523c0.622,0.36,0.711,0.72,0.607,1.162
	c-0.106,0.457,0.378,0.86,0.857,1.242c0.112,0.113,0.49,0.262,0.45,0.504c-0.129,0.763,0.18,1.66,0.732,1.807
	c0.246,0.123,1.814-0.012,2.073-0.901c-0.025-0.283,0-1.45-0.626-1.518c-0.441-0.204-0.396-0.326,0.272-0.728
	c1-0.6,1.725-1.03,2.219-1.123c0.66-0.09,1.295-0.813,1.295-0.813l0.127,47.965c-5.928,6.11-12.426,12.191-20.994,18.168
	c-4.979-4.178-10.421-8.408-16.197-11.575l-1.995-1.188l0.715-0.921l-3.464-4.6l3.898-3.158l0.988,1.258l-1.846,1.804l2.769,3.082
	l6.22-6.109l-4.099-3.948l2.135-4.022l1.364,0.674l-1.03,2.551l3.117,1.986l3.902-7.805l-4.947-2.269l1.253-5.242l1.526,0.163
	l-0.508,3.774l3.856,0.771l1.568-8.9l-5.659-1.018l0.48-5.076l1.58,0.02l-0.23,2.807l3.998,0.573l0.754-7.758l-5.548-0.926
	l0.715-5.988l1.269,0.182l-0.246,3.693l4.071,0.7c0.447-2.504,0.812-5.649,1.477-8.106l-5.244-1.966l1.856-5.029l1.181,0.414
	l-1.03,2.726l3.871,1.657l3.264-6.484l-4.559-3.248c1.021-1.707,2.041-3.329,3.502-4.712l0.896,0.786c0,0-0.329,0.299-0.834,1.003
	c-0.614,0.855-0.807,1.287-0.723,1.51c0.083,0.22,2.899,2.313,3.114,2.314c0.248,0.001,1.183-0.856,1.664-1.432
	c0.516-0.616,0.786-0.676,1.318-0.291c0.106,0.077,0.26,0.229,0.369,0.36c0.129,0.155,0.18,0.285,0.192,0.383
	s-0.015,0.162-0.038,0.202c0.045-0.044,0.143-0.118,0.354-0.236c0.383-0.215-0.741-1.21-1.661-1.727
	c-2.749-1.554-5.983-4.482-6.731-8.146c-0.274-1.645,3.949,0.334,6.858,3.252c0.441,0.441,2.08,2.04,2.08,2.04
	c-0.239-4.234-0.581-8.536-0.396-12.821l-0.643-0.449c-0.898-0.631-1.244-1.665-1.326-2.702c-0.057-0.715,0.553-1.081-0.838-1.034
	c-2.896,0.026-4.57-2.718-2.814-5.063c0.628-0.878,3.298-1.307,3.295-1.285C140.639,64.469,142.687,62.964,144.196,62.822
	L144.196,62.822z M143.144,95.446L143.144,95.446z M146.977,67.558l-0.081,0.026L146.977,67.558z M50.588,76.721
	c8.084,6.854,13.242,11.465,29.698,16.627l0.407,2.454c-9.462-2.199-19.784-6.652-32.055-17.723L50.588,76.721z M48.154,78.304
	c5.119,4.813,10.366,8.478,15.678,11.552l1.864,1.131l-0.961,0.991l3.126,4.537l-4.021,3.302l-0.957-0.96l2.099-2.071l-2.987-2.957
	l-6.086,6.201l4.172,3.725l-2.418,3.743l-0.877-0.398l1.284-2.609l-3.876-2.129l-4.332,8.018l5.517,2.527l-1.245,4.921l-1.288-0.066
	l0.435-3.855l-4.148-0.739l-1.396,9.009l5.336,0.844l-0.127,5.188l-1.423-0.023l0.101-2.931l-4.214-0.197l-0.377,7.561l5.187,0.678
	l-0.515,6.136l-1.276-0.329l0.142-3.983l-3.951-0.391l-1.361,8.47l5.332,1.533l-1.884,5.28l-1.157-0.639l0.758-2.726
	c-0.973-0.427-3.707-1.571-3.707-1.571l-3.482,6.577l4.518,3.097l-2.78,4.917l-1.073-0.724l1.919-2.869l-3.752-2.373l-2.138,2.938
	c-0.907-0.794-2.538-1.895-3.16-2.633c-0.665-0.609-1.17-0.702-2.026-0.499c-0.675,0.16-1.325,0.283-1.176,0.043
	c0.073-0.119,1.355-0.987,3.313-2.238c0.548-0.35,0.979-0.654,0.973-0.968c-0.008-0.233,0.297-0.604,0.691-0.844
	c0.438-0.267,0.34-0.514,0.27-0.79c-0.379-1.479-0.14-3.785,0.6-5.338c0.496-1.039,0.65-1.227,0.327-1.228
	c-0.953,0.123-2.115,3.601-2.337,4.58c-0.075-0.078-0.179-0.995-0.246-1.348c-0.122-0.637-0.211-1.032-0.72-1.153
	c-0.607-0.146-0.414-0.438-0.477-0.898c-0.101-0.746-0.45-1.219-1.084-1.482c-0.61-0.254-0.677-0.356-0.649-0.968
	c0-0.48-0.499-1.294-0.869-1.553l-2.114,0.751c-0.167,0.563,0.056,1.291,0.403,1.557c1.063,1.007-0.492,1.021-1.557,1.676
	c-0.288,0.188-0.632,0.596-0.865,0.461c-0.676-0.223-0.623,1.811-1.288,1.557l0.162-48.79
	C31.645,90.623,48.154,78.304,48.154,78.304z M133.786,86.933l0.814,0.91c-2.527,2.864-4.36,5.813-6.382,9.415
	c-1.724,3.072-3.213,7.375-3.994,12.066c-0.603,2.872-0.695,5.796-1.068,8.734c-0.38,3.161-0.453,7.419-1.054,10.758
	c-1.109,9.157-3.663,14.029-9.215,19.225c-2.44,2.283-10.031,6.596-10.238,6.555l-1.799-0.449
	c15.565-8.023,19.456-13.557,21.141-32.55C122.32,97.768,133.084,88.538,133.786,86.933L133.786,86.933z M135.316,88.528
	l0.834,0.809l-4.545,6.461l4.479,3.179l-1.776,4.177l-1.357-0.507l0.965-2.85l-3.768-1.599l-3.044,8.3l5.366,1.704l-0.884,5.408
	l-1.084-0.294v-3.686l-3.983-0.817l-1.157,9.271l5.867,0.821l-0.431,4.785l-1.388-0.098l-0.054-2.849l-4.071-0.217l-0.931,8.036
	l5.778,0.987l-1.046,5.711l-1.229-0.295l0.276-3.767l-3.875-0.515l-2.241,7.712l4.867,2.47l-2.396,4.943l-1.026-0.72l1.326-2.923
	l-3.786-1.882l-3.656,6.38l3.967,3.93l-3.875,4.088l-0.865-1.115l2-2.168l-2.987-2.977l-6.213,4.975l3.172,4.208l-0.373,0.53
	l-3.275-1.324l-1.569-2.086l-1.875,0.828l-1.48-0.569c9.176-4.845,15.146-10.462,17.611-18.935
	c1.354-4.684,1.756-9.795,2.195-14.946c0.228-2.676,0.465-5.363,0.85-8.006c0.452-4.318,1.108-7.941,2.849-12.105
	c2.11-5.052,4.675-8.611,7.835-12.466H135.316z M85.938,91.722l6.301,3.345l-0.092,2.223l-5.824-2.938L85.938,91.722z M87.71,91.783
	l4.49,0.62l0.019,1.823L87.71,91.783z M67.469,91.842l2.621,1.188l2.223,2.582l1.664-1.1l1.808,0.682
	c-5.71,2.954-10.775,6.49-14.721,12.589c-4.396,6.798-4.885,15.696-5.448,24.285c-0.938,11.848-2.955,20.17-10.775,29.774
	l-1.153-0.731l4.222-6.752l-4.76-3.098l2.168-3.991l1.096,0.38l-0.85,2.381l3.937,2.091l3.019-8.51l-5.552-1.742l0.931-5.322
	l1.396,0.124l-0.369,3.813l3.968,0.631l1.138-8.996l-5.348-0.825l0.119-4.754l1.312,0.128l-0.009,2.892l4.218,0.229l0.326-8.207
	l-5.244-0.585l0.646-5.795l1.469,0.151l-0.338,3.476l4.036,0.581l1.915-7.503l-5.244-2.385l2.829-5.067l1.272,0.589l-1.299,2.807
	l3.637,1.784l3.813-5.868l-4.052-3.918l3.979-4.192l0.977,0.964l-2.16,2.501l2.995,2.787l5.929-5.01l-2.896-4.382L67.469,91.842z
	 M105.179,92.12l-0.185,2.103l-6.316,3.612v-2.06L105.179,92.12z M139.08,92.194l1.395,0.871l-1.011,1.208l-1.219-0.774
	L139.08,92.194z M102.522,92.492l-3.783,2.199v-2.188L102.522,92.492z M147.134,94.544c0.197,0.005,0.379,0.047,0.519,0.14
	c0.381,0.25,0.326,0.866-0.104,1.169c-0.56,0.395-2.094,0.368-2.245-0.039C145.085,95.228,146.278,94.524,147.134,94.544z
	 M86.756,95.411l5.429,2.95l-0.019,2.078l-5.225-2.892L86.756,95.411z M104.441,95.477l-0.319,2.71l-5.59,2.985l-0.047-2.35
	L104.441,95.477z M77.384,95.527l2.226,0.569c-8.24,3.702-16.385,9.071-19.553,18.438c-0.989,2.804-1.656,5.924-2.091,9.918
	c-0.204,4.214-0.744,8.359-0.941,11.873c-0.403,7.153-2.741,16.842-10.819,27.135l-0.773-0.611
	c4.956-6.149,7.532-11.725,9.123-17.615c2.521-9.372,1.271-19.716,3.96-29.15c1.64-5.74,5.045-10.872,10.146-15.311
	C72.21,97.996,77.384,95.527,77.384,95.527z M81.124,96.313l0.038,0.008c2.001,6.782,4.472,19.144,4.472,19.144
	c-5.292-2.577-14.102-2.106-14.102-2.106s-4.956-6.438-5.917-6.968C69.579,101.007,80.368,96.351,81.124,96.313z M149.264,97.382
	c1.219-0.039,1.131,1.825-0.411,3.093c-0.788,0.647-1.153,0.557-1.733,0.039c-0.172-0.231-0.667-0.396-1.031-0.353
	c-0.863-0.003,0.845-1.804,2.365-2.547C148.768,97.46,149.038,97.389,149.264,97.382z M87.395,98.899l4.84,2.501l0.047,2.059
	l-4.479-2.446L87.395,98.899z M103.803,99.178l-0.262,2.265l-5.04,2.641l0.027-2.087L103.803,99.178z M150.967,100.021
	c0.168-0.016,0.298,0.05,0.419,0.187c0.688,0.771-0.618,3.104-2.099,3.805c-0.568,0.27-0.919,0.226-1.393-0.186
	c-0.229-0.199-0.569-0.462-0.765-0.441c-0.848,0.088-0.38-0.869,0.304-0.925c0.188-0.016,1.375-0.909,2.272-1.661
	C150.307,100.296,150.688,100.048,150.967,100.021z M145.846,100.932c1.07-0.026,1.46,0.871,0.192,1.262
	c-0.901,0.279-1.405,0.081-1.403-0.53C144.825,101.036,145.371,100.963,145.846,100.932L145.846,100.932z M88.06,102.144
	l4.295,2.168l0.019,2.222l-3.944-2.071L88.06,102.144z M103.426,102.449l-0.299,2.102l-4.625,2.393l0.012-1.738L103.426,102.449z
	 M151.901,103.332c0.292,0.018,0.379,0.346,0.377,0.929c0,0.965-0.639,1.856-1.592,2.292c-0.698,0.319-1.19,0.294-1.538-0.081
	c-0.158-0.171-0.379-0.31-0.492-0.313c-1.493-0.06-1.253-0.447,0.178-1.05c0.503-0.212,1.492-0.901,1.96-1.238
	C151.321,103.49,151.674,103.317,151.901,103.332z M146.419,104.017c0.733,0.004,1.378,0.523,0.973,0.859
	c-0.315,0.262-1.497,0.388-1.729,0.151C145.219,104.578,145.613,104.014,146.419,104.017z M88.771,105.512l3.659,1.985l-0.019,2.114
	l-3.495-1.99L88.771,105.512z M102.811,105.674l-0.084,2.164l-4.202,2.087l-0.027-2.063L102.811,105.674z M148.021,106.571
	c0.711,0.052,0.621,0.745,0.047,1.081c-0.429,0.3-0.984,0.142-1.211-0.209C146.346,106.466,147.508,106.583,148.021,106.571z
	 M149.448,108.792c0.118,0.239,0.053,0.667-0.181,0.803c-0.312,0.132-1.12-0.006-1.245-0.243c-0.103-0.195-0.079-0.297,0.119-0.495
	C148.473,108.592,149.216,108.395,149.448,108.792z M89.302,108.833l3.125,1.719l-0.019,2.075l-2.872-1.681L89.302,108.833z
	 M102.3,108.887l-0.153,1.998l-3.638,1.815l0.05-1.947L102.3,108.887z M64.224,110.146c0.78,0.009,1.382,0.532,0.923,1.425
	c-0.286,0.557-0.502,0.763-1.749,1.648c-0.509,0.362-0.95,0.693-0.984,0.736s-0.358,0.269-0.573,0.418
	c-1.117,0.778-0.729-0.848,0.666-3.244C62.905,110.441,63.617,110.139,64.224,110.146z M102.023,111.926l-0.289,2.199l-3.252,1.673
	v-2.118L102.023,111.926z M89.794,112.131l2.63,1.313l0.038,2.142l-2.388-1.263L89.794,112.131z M121.384,112.298l0.212,0.101
	c0.215,0.304,0.25,1.615,0.038,2.357c-0.368,0.873-1.084-1.33-1.003-1.889C120.783,112.613,121.131,112.309,121.384,112.298z
	 M66.104,112.696c1.064-0.02,1.833,0.712,1.473,1.797c-0.414,1.047-2.815,1.705-3.898,2.427c-0.708,0.354-0.879-0.029-0.66-0.646
	c0.101-0.285,0.178-0.508-0.362-0.588c-1.312-0.195-0.512-0.837,1.892-2.459C65.074,112.871,65.621,112.705,66.104,112.696
	L66.104,112.696z M118.843,113.382c0.377-0.004,0.843,0.219,1.322,0.743c0.826,0.903,1.423,2.804,0.973,3.299
	c-0.345-0.039-0.517,0.474-0.534,0.681c-0.052,0.599-1.138-0.494-2.164-2.218C117.611,114.498,118.013,113.391,118.843,113.382z
	 M74.551,113.703c3.241-0.022,9.432,0.652,18,6.051c1.092,0.689,2.186,1.449,3.421,2.063c3.251,1.765,5.934,2.961,10.123,3.747
	l-0.119,2.184c-0.038,0.689,1.09,4.679,0.573,6.922c-0.77-0.015,0.741,0.662,0.741,0.662l0.984,2.028c0,0-5.144-0.044-7.481-0.507
	c-3.767-0.617-10.641-3.832-13.963-6.36c-3.451-2.55-8.664-4.669-13.133-5.489l-0.062-1.878c0,0-0.444-6.429-0.8-7.31l-0.822-2.032
	C72.215,113.866,73.077,113.713,74.551,113.703z M101.597,115.112l-0.25,2.156l-2.853,1.347v-1.846L101.597,115.112z
	 M115.813,115.209c0.798,0.002,2.007,0.942,3.387,2.822c0.312,0.424,0.551,0.791,0.596,1.045c0.042,0.234-0.102,0.37-0.331,0.341
	c-0.543-0.099-0.743-0.297-0.895,0.384c-0.038,0.168,0.059,0.473-0.127,0.418c-0.969-0.286-3.738-3.1-3.568-3.999
	C115.003,115.544,115.334,115.208,115.813,115.209L115.813,115.209z M90.409,115.353l2.079,1.114l0.093,2.126l-1.849-0.802
	L90.409,115.353z M68.057,115.999c0.639-0.021,1.035,0.232,1.238,0.731c0.489,1.202-0.377,1.927-2.949,2.47
	c-2.233,0.535-2.188,0.568-1.876-0.267c0.208-0.555-0.483-0.616-0.868-0.763c-0.652-0.249-0.119-0.325,1.757-1.267
	C66.536,116.313,67.418,116.02,68.057,115.999z M60.622,116.568c0.063-0.006,0.14,0.055,0.249,0.193
	c3.249,3.963,2.414,9.737-1.699,12.589c-0.467,0.312-0.482,0.022-0.43-0.596l0.08-1.177c0.021-0.234,4.725-3.142,1.246-9.609
	l0.292-0.913C60.453,116.765,60.516,116.577,60.622,116.568L60.622,116.568z M113.695,117.799c1.282,0.005,4.881,3.293,3.348,3.41
	c-0.18,0.015-0.118,0.25-0.119,0.399c0,0.149-0.008,0.435-0.049,0.542c-0.111,0.287-0.53,0.23-1.177-0.155
	c-1.638-0.977-2.009-1.287-2.575-1.827C112.008,119.106,112.324,117.794,113.695,117.799z M101.02,118.364l-0.023,1.772
	l-2.563,1.251l0.015-1.603L101.02,118.364z M68.522,119.638c1.726-0.06,2.696,1.672,0.973,2.582
	c-0.689,0.364-2.958,0.108-4.014,0.016c-1.191-0.105-0.487-0.462-0.423-0.569c0.163-0.271,0.29-0.313-0.331-0.685
	c-0.493-0.523-0.776-0.651,0.458-0.813c0.599-0.078,2.053-0.221,2.557-0.387C68.014,119.691,68.275,119.646,68.522,119.638z
	 M121.057,120.06c0.127-0.006,0.113,0.207,0.063,0.759l-0.085,1.185c-0.786,0.126-4.69,5.015-1.519,10.7l-0.266,1.011
	c-0.121,0.499-0.161,0.572-0.572,0.263c-2.378-1.654-3.149-10.077,1.775-13.561C120.774,120.202,120.959,120.064,121.057,120.06z
	 M111.784,121.047c0.459,0.008,1.021,0.139,1.665,0.434c1.5,0.688,2.497,1.243,2.729,1.61c0.144,0.227-0.082,0.416-0.385,0.503
	c-0.366,0.106-0.411,0.261-0.312,0.693c0,0.251,0.063,0.529-0.25,0.546c-0.578,0.031-1.871-0.379-3.18-1.088
	C109.845,122.549,110.145,121.018,111.784,121.047z M100.566,121.074v2.156l-2.107-0.979L100.566,121.074z M65.251,122.929
	c0.223,0.006,0.519,0.046,0.907,0.108c0.475,0.076,1.212,0.149,1.592,0.143c2.4-0.042,3.396,1.642,1.414,2.497
	c-0.541,0.234-0.767,0.209-2.249-0.225c-0.71-0.207-1.579-0.425-1.934-0.526c-0.714-0.204-0.96-0.43-0.488-0.592
	c0.44-0.151,0.478-0.458,0.204-0.863C64.631,123.063,64.76,122.915,65.251,122.929L65.251,122.929z M121.046,122.929
	c-0.341,3.339-0.618,5.941-1.119,9.21C119.562,131.993,116.971,125.835,121.046,122.929z M110.942,124.527
	c0.781,0.014,2.101,0.317,3.384,0.824c1.121,0.416,1.262,0.527,0.488,0.859c-0.469,0.201-0.412,0.381-0.273,0.689
	c0.213,0.23,0.617,0.693-0.02,0.6c-0.754,0.058-2.736-0.056-3.341-0.162c-1.81-0.32-2.302-1.963-0.819-2.726
	C110.481,124.551,110.682,124.522,110.942,124.527z M64.451,125.371c0.167,0,0.474,0.09,1.03,0.268
	c3.249,1.032,4.566,2.282,2.976,3.495c-0.462,0.353-1.178,0.202-2.529-0.558c-1.383-0.776-2.076-1.202-2.334-1.479
	c-0.256-0.273-0.116-0.588,0.276-0.562c0.54,0.036,0.459-0.236,0.415-0.692C64.255,125.523,64.236,125.372,64.451,125.371z
	 M73.217,125.673l2.491,0.569l-6.221,27.394c-2.123,0.616-3.348,0.882-4.84,1.691l4.302-0.747l-0.373,1.959l-3.906,0.739
	l-0.088,0.585l4.475-0.813c0,0-0.159,1.87-0.315,2.594c4.271-0.346,8.488-1.542,12.783-1.575c0,0,0.104-21.619,0.089-23.976
	c-0.018-2.546,0-5.59,0-5.59l4.306,2.446l0.711,27.247l13.486,2.206c-0.094-0.459-0.461-2.565-0.461-2.565
	c9.999,2.969,20.137,7.357,29.11,16.427c-4.176,2.275-8.122,4.531-12.18,6.719l-0.588,0.852
	c10.287-4.839,25.874-14.899,37.166-26.019v72.251H99.417c0,0,0-3.459,0-6.729l0.03-6.024c-0.22-3.862,0.448-8.117-0.727-11.358
	l-0.23-3.395c3.331-3.901,5.131-8.821,6.72-13.848c0,0,1.604-0.625,2.384-0.902l0.27-0.987c-1.55,0.797-5.105,2.134-5.105,2.134
	c0.382-0.302-7.562-3.669-12.468-4.46c-8.097-1.305-18.987,0.039-27.669,4.374c-0.426,0.303-0.606,0.295-0.5-0.097
	c2.016-7.383-2.23-14.793-9.684-16.94c-1.582-0.456-2.876-0.453-2.876-0.453l0.134,0.646c12.181,1.382,15.038,14.343,10.349,20.363
	c-1.229,1.986-1.416,2.565,1.164,2.5c10.429-0.086,14.054,11.648,9.302,18.142l0.385,0.755c2.964-3.939,3.753-11.425-1.5-16.686
	c3.884-4.359,11.338-11.337,17.785-10.929c2.347,0.149,4.662,3.01,6.205,5.292c3.266,4.835,4.104,11.585,4.336,15.436
	c0.058,1.009,0.191,1.741,0.192,2.272c0.009,1.541-0.287,1.356-1.276,1.1c-1.241-0.323-2.943-0.336-4.201,0.05
	c-2.022,0.62-1.696,0.267,0.104-1.979c1.062-1.324,1.204-1.732,0.765-1.819c-0.134-0.026-0.584,0.428-1.173,1.34
	c-1.774,2.749-1.637,1.62-0.354-2.668c0.834-2.787,0.75-2.982-1.522-4.715c-0.752-0.573-1.675-1.13-1.757-1.305
	c-0.428-0.914-0.606,0.233-0.223,0.987c0.374,0.737-0.42,1.073-1.815,0.313c-3.284-1.832-5.423,1.877-2.491,3.484
	c0.691,0.379,1.077,0.068,0.542-0.43c-1.804-1.68-0.549-3.094,1.892-1.606c1.41,0.859,1.946,0.584,2.418-0.492
	c0.262-0.438,2.451,1.142,2.449,1.754c0,0.402-0.255,1.689-0.504,2.552c-0.701,2.433-0.892,3.188-1.195,4.765
	c-0.551,2.86-0.536,4.326,0.054,5.583c1.321,2.816,4.649,4.146,7.535,3.012c0.419-0.165,1.223-0.302,1.223-0.302l0.034,2.067
	c-5.691,2.17-9.803,8.943-9.615,9.175l-2.029,0.004c-2.695-5.386-7.436-9.442-13.46-11.684c-1.178-1.03,0.294,2.75,1.646,3.585
	c2.862,1.465,6.648,4.063,8.738,8.095l-1.438,0.023c-1.754-2.691-4.024-4.509-6.179-6.094c-0.506-0.107,0.369,4.88,2.438,6.419
	l-37.099,0.65c2.531-9.975,3.018-21.043-2.914-35.551c4.918,0.305,9.281-0.759,13.278-2.516l-0.361-1.034
	c-4.555,2.189-9.553,2.621-14.556,2.106c3.795,7.074,7.116,21.766,3.883,36.024H26.691v-77.521c0,0,0.784,0.489,0.951,0.658
	c0.428,0.433,0.717,1.077,0.838,1.545c0.156,0.598,0.32,0.634,1.169,1.273c0.407,0.308,0.643,0.577,0.643,0.735
	c-0.024,0.177-0.029,0.722,0.246,1.058c0.747,0.91,0.615,1.494,0.054,2.082c-2.611,2.735-4.246,8.482-2.926,14.545
	c3.096-2.099,6.284-7.587,6.386-7.596l0.3,7.495c-0.275-0.062-2.165,1.065-2.188,2.539c-0.856,0.257-1.9-0.172-2.769-0.43
	l0.626,2.208c-3.178,1.276-3.349,5.653,0.334,6.903c0,0-0.336,1.711-0.625,2.631l2.391-0.367c1.39,4.178,6.723,2.84,6.696-0.074
	c0,0,1.623,0.613,2.238,0.887l-0.6-2.848c6.064-3.047,1.528-7.035,0.144-6.979c0.018-0.795,0.381-1.047,0.714-1.974l-2.449,0.154
	c-0.449-1.471-2.095-2.674-2.157-2.513l-0.338-10.727c1.852,1.626,3.674,3.293,6.129,4.587c2.266,1.194,2.496,0.928,2.16-1.134
	c-0.151-0.931-0.139-1.541-0.139-1.541c0.85,0.201,2.994,3.007,2.891,4.391c0.783,1.028,1.494-1.739-0.526-4.097
	c5.378-5.67,9.476-15.068,10.35-21.474l7.15-2.865l0.081-0.937c4.871-3.282,7.412-7.848,8.75-13.012H73.217z M79.168,127.35
	l1.646,0.739l-1.868,0.933L79.168,127.35z M63.313,127.803c0.317,0.146,0.797,0.465,1.457,0.952
	c1.398,1.032,2.214,1.743,2.241,2.369c0.014,0.31-0.212,0.71-0.565,0.898c-0.845,0.45-1.652,0.081-3.479-1.801
	c-0.59-0.608-0.984-0.934-1.164-1.204c-0.21-0.314-0.056-0.612,0.292-0.483C63.577,129.208,62.294,127.336,63.313,127.803z
	 M113.703,128.189c0.305,0.002,0.545,0.008,0.695,0.039c0.396,0.08,0.511,0.306,0.266,0.526c-0.38,0.341-0.271,0.687,0.111,0.871
	c0.264,0.126,0.156,0.394-0.161,0.576c-0.187,0.107-0.47,0.223-0.857,0.345c-2.245,0.707-3.899,0.496-4.333-0.558
	c-0.498-1.21,0.455-1.798,3.199-1.796C113.03,128.193,113.398,128.188,113.703,128.189z M81.014,128.909l-0.02,1.622l-2.33,1.127
	l0.254-1.646L81.014,128.909z M61.21,129.417c0.205,0.012,0.54,0.328,1.026,0.929c2.248,2.771,2.551,3.307,1.815,4.042
	c-0.872,0.871-2.097,0.028-3.414-2.4c-0.177-0.327-0.394-0.746-0.522-0.898c-0.484-0.569-0.271-0.748,0.342-0.7
	c0.336,0.025,0.495-0.094,0.504-0.441C60.971,129.579,61.052,129.407,61.21,129.417L61.21,129.417z M115.064,130.818
	c0.408,0,0.378,0.141,0.195,0.619c-0.141,0.424-0.37,0.562,0.223,0.828c0.099,0.049,0.317,0.32,0.119,0.438
	c-0.469,0.319-2.563,1.28-3.321,1.533c-1.473,0.492-2.38-0.716-1.515-1.916c0.363-0.503,2.854-1.414,4.095-1.494L115.064,130.818
	L115.064,130.818z M60.034,132.425c1.493,2.242,1.68,3.29,0.695,3.944c-0.622,0.478-1.949-0.208-2.253-1.656
	c-0.231-1.109-0.338-2.269,0.021-3.189C59.04,130.129,59.879,132.192,60.034,132.425L60.034,132.425z M81.002,131.495l0.012,1.754
	l-2.834,1.433l0.262-1.932L81.002,131.495z M86.776,131.565l2.664,1.738l0.153,1.494l-2.752-1.525L86.776,131.565z M116.498,133.292
	l0.107,0.116c0,0.206-0.053,0.939,0.346,1.006c0.783,0.131,0.605,0.377-0.08,0.972c-0.744,0.663-1.423,1.449-2.318,1.933
	c-2.311,0.859-3.036-1.599-0.85-2.877c0.754-0.441,1.438-0.745,1.949-0.891C116.035,133.442,116.344,133.289,116.498,133.292z
	 M86.85,134.193l3.087,1.832l0.107,1.842l-3.067-1.571L86.85,134.193z M80.895,134.364l0.011,1.603l-3.015,1.738l0.25-1.792
	L80.895,134.364z M93.369,135.673c0.854,0.4,11.809,3.465,15.436,2.419c0,0,3.105,4.507,5.402,6.121
	c-3.557,5.254-15.598,10.406-15.598,10.406L93.369,135.673z M118.027,135.785c0.2-0.008,0.248,0.192,0.246,0.568
	c-0.049,1.091-1.826,5.104-3.244,3.047c-0.39-0.766,0.008-1.559,1.25-2.505C117.265,136.146,117.771,135.794,118.027,135.785
	L118.027,135.785z M58.382,136.418c0.271,0.297,0.147,1.21-0.435,1.149c-0.168-0.018-0.191-0.944-0.081-1.447
	C58.034,136.037,58.288,136.32,58.382,136.418z M80.933,136.927l-0.02,2.036l-3.575,1.959l0.385-2.265L80.933,136.927z
	 M86.846,137.213l3.54,1.901l0.415,2.249l-3.925-2.048L86.846,137.213z M80.925,139.981v2.052l-4.018,2.075l0.273-2.024
	L80.925,139.981z M86.915,140.159l3.96,2.269l0.519,2.137l-4.421-2.299L86.915,140.159z M30.785,140.226
	c0.649-0.009,0.883,0.687,0.393,1.13c-0.324,0.304-1.242,0.242-1.323,0C29.44,140.953,30.009,140.235,30.785,140.226z
	 M31.996,142.397c0.096-0.007,0.187-0.001,0.266,0.019c0.468,0.12,0.759,0.801,0.473,1.188c-0.528,0.717-1.922,0.22-1.719-0.685
	C31.069,142.68,31.581,142.426,31.996,142.397z M80.855,143.082v1.835l-4.371,2.323l0.277-2.052L80.855,143.082z M87.038,143.338
	l4.509,2.438l0.347,2.056l-4.849-2.539L87.038,143.338z M29.855,143.392c0.217-0.012,0.391,0.05,0.484,0.214
	c0.083,0.146,0.183,0.521,0.496,0.704c0.584,0.342,0.645,0.413-0.466,0.902c-0.468,0.206-1.386,0.835-1.707,1.053
	c-0.981,0.665-1.381,0.442-1.453-0.345C27.119,144.929,28.912,143.444,29.855,143.392L29.855,143.392z M33.238,144.895
	c0.228-0.014,0.448,0.029,0.607,0.135c0.375,0.25,0.395,0.751,0.034,1.003c-0.825,0.531-2.117-0.197-1.43-0.832
	C32.643,145.021,32.945,144.911,33.238,144.895z M80.848,145.889l0.023,2.381l-4.875,2.59l0.323-2.415L80.848,145.889z
	 M30.828,146.168c0.319-0.019,0.625,0.057,0.892,0.255c0.289,0.371,0.637,0.48,0.838,0.488c0.837,0.032,0.57,0.34-0.308,0.743
	c-1.209,0.556-2.059,1.262-2.93,2.075c-0.905,0.847-0.971,1.028-1.269,0.682C26.945,149.12,29.103,146.266,30.828,146.168z
	 M87.111,146.195l5.109,2.814l0.438,2.377l-5.547-3.109V146.195z M34.184,147.871c0.207-0.005,0.401,0.045,0.554,0.17
	c0.363,0.299,0.153,0.875-0.35,1.135c-0.429,0.221-1.133,0.127-1.334-0.077C32.57,148.608,33.445,147.889,34.184,147.871z
	 M31.716,149.067c0.311-0.03,0.593,0.369,0.846,0.802c0.088,0.107,0.438,0.06,0.688,0.062c0.956,0.008,1.09,0.415,0.161,0.933
	c-0.271,0.151-1.162,0.838-1.757,1.348c-1.604,1.542-2.474,1.181-2.269-0.398C29.582,150.302,30.885,149.148,31.716,149.067z
	 M87.111,149.215l5.636,3.112l0.55,2.559l-6.186-3.356V149.215z M80.891,149.261l-0.023,2.357l-5.305,2.826l0.411-2.393
	L80.891,149.261z M87.195,152.262l6.313,3.848l0.23,2.505l-6.543-3.794V152.262z M80.887,152.68l0.011,2.311l-5.866,2.997
	l0.296-2.184L80.887,152.68z M33.262,154.209c0.149-0.004,0.29,0.02,0.407,0.073c0.687,0.318,0.507,0.869-0.526,1.437
	c-1.055,0.578-1.416,0.479-1.643-0.171C31.311,155.002,32.451,154.229,33.262,154.209z M99.175,154.522
	c10.976,2.529,21.723,8,32.155,17.552l-2.18,1.553c0,0-9.143-10.499-29.461-16.654L99.175,154.522z M87.261,155.621l3.045,1.809
	l0.008,0.461l-3.053-0.252V155.621z M35.387,155.641c0.231,0.013,0.434,0.148,1.523,0.67c4.369,3.177,6.119,5.092,7.204,8.575
	c0.65,2.087,0.638,2.001-1.499,0.867c-2.011-1.075-4.766-2.858-6.544-5.165c-0.294,5.427,0.335,12.172,0.335,12.172
	c2.729,1.354,1.846,4.881,1.838,4.859c7.024-1.93,5.485,7.404,0.252,5.391c1.247,7.003-6.716,6.434-5.9,0.431
	c-6.338-0.246-5.217-7.202,0.045-6.241c-0.548-2.146,0.207-3.6,2.146-4.521l-0.296-9.167c0,0-5.165,7.465-6.028,7.348
	c-0.506-0.069-1.27-0.926,0.016-7.472c0.669-3.408,4.257-7.559,6.267-7.692C35.101,155.672,35.248,155.634,35.387,155.641z
	 M40.439,155.711l0.926,0.639l-0.873,1.567l-0.965-0.704L40.439,155.711z M80.855,156.159l-0.03,1.375l-2.845,0.17L80.855,156.159z
	 M51.107,172.612c6.694,1.044,10.79,9.29,7.692,15.261c-0.374,0.269,0.204,1.568,0.581,1.08c3.266-4.66,0.834-16.116-8.692-17.208
	C48.753,171.508,50.509,172.094,51.107,172.612z M52.191,174.808c-0.538,1.485-0.68,1.841,0.699,1.235
	c2.438,0.908,5.067,4.902,4.226,8.915c-0.271,0.468,0.202-0.306,0.522,1.015C58.842,183.035,57.639,176.7,52.191,174.808z
	 M83.136,182.283c6.853-0.021,13.635,1.488,19.03,4.61c-1.834,1.026-7.686,2.459-7.686,2.459c-3.288-3.716-4.965-7.432-10.91-5.532
	c-6.228,1.618-11.835,7.046-14.991,10.646c-3.165-1.896-4.878-2.36-7.684-2.518c-0.162-0.004-0.403,0.715-0.204-0.444
	c0.803-1.245,1.356-2.656,1.892-4.081C68.465,184.057,75.841,182.305,83.136,182.283z M104.438,187.053
	c-1.365,4.446-3.127,8.825-6.117,12.682l-0.368-1.928c2.811-4.346,4.143-8.298,4.744-10.03L104.438,187.053z M101.785,188.206
	c0.176,0.282-2.725,7.243-4.155,8.509l-0.562-1.796c1.167-1.775,2.895-6.057,2.845-6.097L101.785,188.206z M84.093,188.214
	c-0.09,0.009-0.122,0.089-0.123,0.264c0,0.639,0.659,1.142,1.865,1.417c1.628,0.371,3.91-0.195,3.913-0.972
	c0-0.448-0.316-0.481-1.249-0.047c-1.17,0.545-2.202,0.438-3.729-0.375C84.42,188.314,84.209,188.203,84.093,188.214z
	 M98.599,189.325c-0.453,1.687-1.126,2.928-1.984,4.216l-0.276-0.887c0.594-0.966,0.985-2.07,1.488-3.144L98.599,189.325z
	 M96.896,189.871c-0.22,0.587-0.462,1.266-0.966,1.789l-0.653-1.395L96.896,189.871z M86.585,191.163
	c-1.103,0.021-2.195,0.379-2.29,0.97c-0.046,0.282,0.378,0.173,2.43-0.079c1.084-0.133,1.601,0.514,2.593,0.446
	c0.506-0.061,0.033-0.531-0.124-0.667C88.642,191.36,87.559,191.145,86.585,191.163z M81.875,192.449
	c-0.111,0.023,0.014,0.307,0.427,1.03c0.224,0.392,0.279,1.189,0.323,1.684c-0.054,1.23-0.05,1.192,0.553,0.48
	c0.38-0.38,1.118-0.296,2.288,0.022c0.753,0.206,0.935,0.279,1.458-0.051c0.606-0.383,0.749-0.189,1.271-0.084
	c0.504,0.102,0.962-0.102,1.515-0.256c0.675-0.188,0.804-0.145,1.392,0c0.897,0.428,0.768,0.39,0.842-1.142
	c0.075-1.509-0.008-1.616-0.873-1.107c-0.839,0.492-1.418,0.715-2.706,0.263c-1.404-0.492-1.603-0.367-2.599-0.065
	c-1.204,0.365-1.752,0.489-2.711-0.101C82.424,192.734,82,192.424,81.875,192.449z M62.256,194.726l0.539,0.883
	c4.854,1.748,8.142,5.743,6.201,12.478l0.461,0.743C71.887,202.044,69.113,196.435,62.256,194.726z M63.76,197.599l0.661,1.366
	c3.652,1.776,3.434,6.669,3.229,6.477l0.572,1.273C69.137,203.549,67.472,198.874,63.76,197.599z M79.015,204.896
	c-0.144,0.002-0.238,0.051-0.277,0.151c-0.094,0.243,0.188,0.39,1.857,1.552c1.433,0.999,2.541,1.739,2.456,1.882
	c-0.057,0.096-0.947-0.123-1.584-0.313c-1.667-0.499-4.126,0.103-5.505,1.08c-0.351,0.236-0.933-0.022-1.438-0.155
	c-0.202-0.058-0.648-0.112-0.868-0.054c-1.043,0.274-0.034,1.277,2.518,2.578c3.132,1.597,4.826,1.742,6.729,0.774
	c1.263-0.658,1.716-0.17,0.334,0.58c-2.412,1.312-4.723,0.906-8.534-1.733c-1.766-1.224-2.472-1.019-0.954,0.146
	c2.663,2.097,7.791,4.654,10.938,1.529c0.122-0.045,0.408-0.023,0.545-0.023c0.655,0.003,0.683-0.205,0-1.293
	c-0.41-0.655-1.242-1.346-0.23-2.148c0.768-0.608,0.713-0.897-0.215-1.177c-0.245-0.068-0.221,0.094-0.588-0.205
	C81.97,206.258,79.79,204.892,79.015,204.896z M79.979,208.469c0.936,0.026,1.878,0.751,2.172,2.056
	c0.026,0.116,0.05,0.235,0.065,0.36l-0.797,0.029c-0.66-2.657-2.65-1.776-2.849-0.22l-0.718-0.097
	C78.118,209.116,79.044,208.442,79.979,208.469z M96.483,210.737l-0.53,0.079c-0.348-0.979-1.919-2.294-2.668,0.092l-0.669-0.027
	C93.082,207.649,95.995,208.151,96.483,210.737L96.483,210.737z M92.416,209.395c0.217,0.311-0.164,0.833-0.386,1.072
	c-0.211,0.229-0.682,0.035-0.879-0.19c-0.172-0.222-0.044-0.665,0.242-0.813C91.691,209.311,92.197,209.173,92.416,209.395z
	 M83.09,209.491c0.223,0.501-0.4,0.876-0.479,0.706c-0.134-0.047-0.299-0.874-0.223-0.929
	C82.596,209.262,83.005,209.33,83.09,209.491z M97.11,209.409c0.336,0.027,0.702,0.188,0.769,0.569c0,0.253-0.286,0.527-0.618,0.542
	c-0.146,0.007-0.706-0.407-0.601-0.997C96.778,209.314,96.915,209.394,97.11,209.409z M77.619,209.568
	c0.117,0.182-0.104,0.725-0.154,0.798l-0.727-0.047c0.016-0.054-0.066-0.462,0.107-0.759
	C77.045,209.434,77.476,209.366,77.619,209.568z M90.621,211.318c0.093,0.002,0.211,0.04,0.35,0.128
	c2.002,1.312,4.577,1.896,6.432,0.96c0.414-0.21,0.686-0.198,0.685,0.004c0,0.222-0.46,0.674-1.314,0.933
	c-1.911,0.577-5.065-0.185-6.155-1.362c-0.32-0.347-0.274-0.669,0-0.662H90.621z M73.063,212.692
	c-0.191-0.006-0.253,0.108-0.216,0.341c0.127,0.782,5.481,3.876,7.72,4.293c1.838,0.343,3.267,0.189,4.391-0.468
	c2.73-1.598,2.03-3.757-0.642-2.13c-1.796,1.094-6.345,0.59-9.051-0.983C74.063,213.046,73.382,212.701,73.063,212.692
	L73.063,212.692z M97.187,213.824c0.677-0.286,0.967-0.386,1.116-0.261c0.688,0.58-0.439,1.483-2.496,1.837
	c-1.646,0.271-2.634,0.325-4.512-1.074c-1.454-1.082-0.77-1.607,0.065-1.115C93.581,214.518,95.23,214.56,97.187,213.824
	L97.187,213.824z M73.54,217.206c4.736,1.708,10.125,5.828,12.518,10.832l-1.461-0.012c-1.626-2.856-4.845-6.485-10.149-9.035
	C73.978,218.602,73.732,217.907,73.54,217.206z M98.418,219.549v1.563c-2.928,1.485-5.381,3.772-7.231,6.926l-1.657-0.023
	C91.428,224.631,94.271,221.463,98.418,219.549z M98.418,221.934v1.92c-1.852,1.093-3.396,2.533-4.479,4.185h-1.96
	C93.55,225.363,95.705,223.231,98.418,221.934z M76.73,223.408c1.411,0.816,3.746,2.993,4.595,4.669l-0.754,0.035
	c-0.768-0.984-1.995-2.116-2.995-3.009C76.938,224.348,76.73,223.408,76.73,223.408z M98.418,224.64v0.046v1.525
	c0,0.04-1.406,0.965-2.004,1.827h-1.591C95.916,226.048,98.189,224.635,98.418,224.64z M98.418,227.175v0.863l-1,0.004
	c0.066-0.098,0.623-0.713,1.004-0.867H98.418z M78.91,227.392c0.3,0.159,0.53,0.725,0.53,0.725l-0.269,0.029L78.91,227.392z"/>
<path fill="#E2CF00" d="M38.421,193.61c3.294,0.091,10.247-1.148,10.136-1.022c0,0,21.572,36.091,20.694,35.733
	c-0.28,0.448-27.634,0.432-27.634,0.432C41.024,228.76,47.42,215.38,38.421,193.61z M48.203,168.185
	c10.511-8.771,21.521-8.835,33.345-10.042l0.271-29.806l4.279,2.579l0.091,27.31c15.607,1.178,29.073,6.933,40.641,17.008
	c0.145,0.219-16.736,9.308-24.13,11.712c-5.74-4.242-20.884-6.916-30.926-3.654c-2.759,0.896-6.146,2.329-9.44,3.389
	c2.387-14.389-8.771-16.513-12.696-17.177C49.146,169.42,48.559,168.354,48.203,168.185z M34.71,172.836
	c0.185-3.065-0.015-6.134-0.242-9.269c-0.06-0.716-6.146,9.326-6.487,6.891c-0.852-6.098,2.156-13.851,6.881-14.802
	c0.471-0.642,9.83,5.191,9.402,10.232c-0.14,1.642-8.35-5.546-8.383-5.117c-0.193,0.841,0.242,12.09,0.496,12.067
	c2.363,1.339,1.85,3.06,2.107,4.485c6.335-0.94,5.988,6.135,0.01,5.914c0.369,8.359-7.341,4.582-5.822,0.13
	c-7.764-0.368-3.94-7.671-0.074-6.066C32.365,175.459,32.817,173.537,34.71,172.836z M43.617,137.371
	c-0.446-0.179-16.563-1.01-16.563-1.01l0.843-39.516c8.228-19.021,39.192-10.126,34.267-6.078
	C47.367,100.527,45.114,118.326,43.617,137.371z M73.342,121.138l-0.491-4.388c-1.265-2.726,32.948,13.183,33.335,13.522
	l0.995,4.683C107.379,137.012,85.419,126.62,73.342,121.138z M135.623,113.353c-2.553,19.692-2.409,39.505-16.896,46.357
	c10.897,10.626,20.007,2.438,33.728-4.449c0.373,0-0.455-42.167-0.687-42.138C146.332,113.412,140.966,113.535,135.623,113.353z
	 M143.171,94.132c-2.694-0.413-8.967-6.961-7.666-8.94c0.04-1.486,7.803,4.201,8.609,5.734c-0.397-0.456-0.453-13.895-0.579-13.36
	c-0.295,0.158-2.371-1.339-1.83-4.14c-5.951,1.324-5.625-6.46-0.424-6.142c-0.672-7.082,7.922-4.481,5.635,0.262
	c7.354-1.363,6.085,6.947,0.527,5.595c0.472,3.152-0.819,4.023-2.626,4.652c0.116,1.321,0.608,10.135,0.608,10.135
	s5.438-8.388,5.827-7.665C152.637,82.286,150.4,96.183,143.171,94.132z M117.975,63.201c-2.454,8.513,4.27,18.239,10.62,18.213
	c1.276-0.203,3.724,0.491,2.88,1.181c-10.02,8.171-33.4,9.868-33.406,9.514c0.244,10.031-0.202,20.163-0.44,30.192l-4.285-2.598
	c-0.137-9.148-0.361-18.506-0.569-27.652c-14.981-1.968-28.445-6.832-39.085-17.179c7.064-5.271,15.505-8.563,23.612-11.89
	C87.509,68.319,101.721,71.403,117.975,63.201z M110.581,22.752c-0.47-0.208,1.615-1.767,1.615-1.767s17.405,0.23,26.04,0.113
	c-3.146,12.998-0.921,24.644,3.142,35.827c-1.077-0.254-8.227,0.33-9.973,1.116C131.125,58.325,110.802,23.07,110.581,22.752z"/>
<path fill="#D40000" d="M69.817,228.271l-21.044-35.77l3.157-1.381l21.695,37.202L69.817,228.271z M32.372,180.447l3.04-3.148
	l3.048,3.109l-3.188,2.98L32.372,180.447z M99.889,160.388l-0.428-2.557c12.125,2.988,22.049,9.263,29.186,16.096l-1.699,1.252
	C127.478,175.033,109.723,161.628,99.889,160.388z M65.062,158.057l3.457-0.749l-0.109,2.149l-3.354,0.673L65.062,158.057z
	 M135.646,156.17l-2.095-1.699l1.507-1.8l2.035,1.614L135.646,156.17z M64.433,138.838c5.205-2.48,9.269-12.487,8.759-13.154
	l2.836,0.677l-6.552,27.417l-4.534,0.999C64.919,149.531,64.432,144.082,64.433,138.838z M98.687,154.352
	c-1.765-5.771-5.239-18.827-5.239-18.827c0.127,0.427,11.29,3.621,15.271,2.458c1.7,2.343,3.57,4.401,5.541,6.288
	C110.127,148.341,104.994,151.74,98.687,154.352z M145.477,133.34l-1.966-1.715l1.764-2.175l2.159,1.656L145.477,133.34z
	 M119.787,132.193c-1.603-2.898-1.714-6.175,1.259-9.406L119.787,132.193z M58.67,127.145c-0.059-2.947,0.326-5.756,1.021-8.466
	C61.412,121.81,61.389,124.955,58.67,127.145z M103.627,124.443c0,0,4.322-20.167,6.195-28.07l4.775-1.113l-0.213,16.332
	c-4.754,3.902-8.091,13.198-7.939,13.198L103.627,124.443z M34.151,121.09l-2.087-1.963l1.766-1.945l1.842,1.896L34.151,121.09z
	 M71.539,113.228c-1.506-2.21-3.569-4.477-5.733-6.753c3.552-4.974,9.448-7.854,15.696-10.113l4.23,18.951
	C80.95,113.861,75.795,112.29,71.539,113.228L71.539,113.228z M42.235,96.337l1.471-1.841l1.926,1.526l-1.464,2.036L42.235,96.337z
	 M111.376,90.795l2.979-0.669l0.108,2.323l-3.569,0.663L111.376,90.795z M51.164,76.315l2.271-1.423
	c7.976,7.208,16.783,12.181,26.39,15.009l0.321,2.687C69.315,89.226,59.405,84.558,51.164,76.315L51.164,76.315z M144.354,73.439
	l-2.955-2.933l2.66-2.977l3.158,2.747C146.174,71.861,144.354,73.439,144.354,73.439z M127.988,59.171l-22.107-37.972l3.193-0.027
	l21.755,36.576L127.988,59.171z"/>
<path d="M105.68,20.56l-5.283,0.019l29.983,60.718c0,0-0.813,0.138-2.402-0.282c-7.202-1.902-11.64-9.563-10.011-17.076
	c0.165-0.584,0.207-1.084,0.207-1.084c-18.563,8.459-30.057,5.344-40.774-0.043l-4.571,1.766c0.304-2.78,3.719-13.219,8.827-18.134
	l-0.008-5.265l-0.123-2.485l-0.404-4.51c-7.6,7.204-16.467,18.546-17.577,34.651c0,0-6.919,3.579-12.824,7.538
	c0.327-0.044,9.199,10.925,30.514,17.084l-0.938-3.5c3.169,0.896,7.675,1.604,12.156,2.176l0.6,27.49l5.091,3.035l0.173-30.437
	c0.156,0.126,8.118-0.282,12.405-1.313l-0.604,2.935l4.237-0.84v2.141l-4.644,1.104l-6.613,28.45l3.853,0.863
	c1.127-5.73,3.975-10.365,8.101-13.209l-0.043-1.092c2.646-1.911,8.146-3.431,8.182-3.396c1.875-9.226,6.242-15.62,10.883-21.702
	l-2.21-3.023l8.478-3.132l-11.769-20.158c4.527-3.146,13.506-1.974,13.506-1.974c-3.849-10.46-7.23-21.25-3.43-37.084l-32.731,0.027
	L105.68,20.56z M116.418,21.215c-0.009,2.646-3.439,2.373-3.859-0.013L116.418,21.215z M137.446,21.132
	c-2.083,12.124-1.393,23.935,3.437,35.155l-0.792,0.023c-0.066-0.013,0.082-0.605,0.047-0.763c-0.097-0.421-0.791-0.224-1.373,0.171
	c-0.253,0.172-0.546,0.367-0.73,0.46c-0.598,0.301-3.632,0.278-3.632,0.278c0.99-0.675,2.383-2.574,1.574-3.682
	c-0.183-0.236-0.294-0.132-0.472,0.187c-0.861,1.542-1.29,1.784-2.441,1.77c-1.807-0.022-3.099-1.149-2.952-2.85
	c0.141-1.651,2.555-2.523,2.199-0.921c-0.098,1.427,1.308,1.704,1.568,0.282c0.097-0.532,0.02-0.285,0.135-0.91
	c2.813-1.502,1.26-4.562-1.365-3.921c-0.617,0.164-0.695,0.222-1.131-0.004c-0.809-0.42-1.481-0.288-1.787,0.302
	c-0.27,0.52,0.141,0.935,0.742,0.937c0.623,0.003,0.743,0.305,0.742,0.682c0,0.875-1.505,1.297-2.5,0.786
	c-2.625-1.35-1.652-4.855,1.396-4.844c0.926,0.004,1.313,0.063,1.353-0.139c0.111-0.566-1.304-1.546-2.103-1.401
	c-0.678,0.133-1.089,0.311-0.73-0.597c0.22-0.936,0.213-1.359,0.027-2.063c-0.488-1.005-0.477-0.489-0.777,0.325
	c-1.004,1.677-2.518,2.048-3.821,1.131c-1.209-0.852-1.173-2.468-0.023-3.62c0.8-0.801,1.656-0.256,1.177,0.639
	c-0.199,0.371-0.042,0.83,0.315,0.922c0.722,0.186,1.169-0.242,1.173-1.123c-0.016-0.484-0.148-0.593,0.719-1.092
	c2.245-1.291,0.565-4.819-1.969-3.686c-0.557,0.249-0.687,0.493-0.938,0.376c-1.06-1.008-2.579,0.267-1.681,0.94
	c0.389,0.19,0.863,0.264,0.988,0.275c0.219,0.125,0.146,0.438-0.173,0.832c-1.05,1.246-3.432,0.631-3.994-1.127
	c-0.652-2.035,1.414-4.174,2.998-2.988c0.469,0.351,0.875,0.388,0.877-0.132c0-0.809-1.009-1.736-2.299-1.646
	c-1.311,0.094-1.168,0.264-0.454-0.929c0.526-1.062,0.455-2.098,0-2.722c-0.354-0.48-0.718-0.582-0.681-0.073
	c0.287,1.577-1.543,3.077-3.049,2.416c-1.446-0.651-2.163-2.282-1.453-3.697c0.655-1.306,2.245-1.441,1.98-0.047
	c-0.125,0.89,0.547,1.357,1.195,0.832c0.236-0.19,0.291-0.358,0.308-0.933c0.019-0.639-0.239-0.826,0.169-1.2
	c1.073-0.144,1.14-2.437,0.977-2.532l17.228-0.081H137.446z M118.242,21.21c0.681,0,1.246,0.232,1.246,0.917
	c0,0.686-0.55,1.239-1.23,1.239c-0.68,0-1.233-0.554-1.233-1.239C117.024,21.442,117.563,21.21,118.242,21.21z M106.17,21.299h2.738
	l21.627,36.293l-2.561,1.254L106.17,21.299z M110.668,22.567c1.311,0.754,2.52,1.373,4.164,1.535c-0.482,0.983-0.92,2.058-1,3.895
	L110.668,22.567z M115.072,29.876c1.334,0.481,2.492,1.21,4.691,0.474c-1.172,1.044-1.836,2.294-2.332,3.61L115.072,29.876z
	 M126.324,34.26c0.63,0,1.142,0.515,1.142,1.149s-0.512,1.146-1.142,1.146c-0.631,0-1.143-0.512-1.143-1.146
	S125.693,34.26,126.324,34.26z M119.318,37.125c0.964,0.357,1.975,0.595,3.096,0.543c-0.555,0.769-0.743,1.938-0.779,3.273
	L119.318,37.125z M122.629,42.846c0.893,0.438,1.949,1.077,3.823,0.872c-1.241,2.121-0.976,2.706-1.103,3.634L122.629,42.846z
	 M133.467,47.059c0.66,0,1.195,0.539,1.195,1.204c0,0.664-0.535,1.203-1.195,1.203s-1.195-0.539-1.195-1.203
	C132.271,47.598,132.807,47.059,133.467,47.059z M126.75,49.762c0.817,0.466,2.432,0.73,2.449,0.605
	c-0.104-0.079-0.465,1.567-0.527,2.602L126.75,49.762z M130.514,55.944c1.162,0.689,2.447,0.624,3.203,0.705
	c-0.809,0.163-1.569,0.367-2.438,0.71L130.514,55.944z M144.218,62.73c-2.8,0.183-3.448,2.344-3.117,4.534
	c-2.134-0.344-4.523,1.693-3.855,4.185c0.634,2.363,2.815,2.446,4.321,2.288c-0.115,0.574-0.433,2.504,1.883,4.137l0.309,12.267
	c0,0-1.021-0.944-1.687-1.613c-2.91-2.918-7.287-5.032-7.013-3.387c0.04,0.241,0.134,0.855,0.204,1.362
	c0.463,2.777,4.167,5.779,6.693,7.29c0.902,0.507,1.461,1.049,1.461,1.049c-4.725,5.086-7.265,10.513-7.896,15.899
	c-0.588,5.004-1.063,9.512-1.53,14.106c-1.928,23.051-11.751,28.848-12.218,29.976l-0.185,3.074l-2.741-0.205l-3.16,2.752
	c10.352,5.386,16.389,11.886,16.305,12.009c8.265-5.449,15.398-11.503,22.133-17.769l-0.131-51.322c0,0-0.559,0.206-0.704,0.205
	c-0.511-0.001-0.576,0.23-0.753,1.212c-0.095,0.525-0.406,1.01-0.649,1.355c-0.463,0.655-0.298,0.323,0.284,0.561
	c1.326,0.541-0.396,2.988-2.279,3.287c-1.357,0.215-2.115,0.467-2.346,0.782c-2.856,2.516-5.702,2.914-7.854,1.989
	c-1.059-0.455-2.209-1.12-2.599-2.229c-0.884-2.52,0.958-6.149,2.038-8.246c1.98-3.845,5.271-6.732,5.271-6.732l-0.538-0.588
	c0,0,0.646,0.01,0.769-0.035c2.84-1.039,3.016-1.054,3.537-1.812c0.522-0.758,1.839-2.92,2.11-3.631
	c1.459-3.822,1.656-4.07,1.653-6.578c0-2.031-0.137-3.388-0.526-3.495c-2.237,1.727-4.496,5.76-5.816,8.137
	c-0.457-3.521-0.593-9.67-0.593-9.67c0.474-0.526,3.16-0.231,2.564-4.642c2.364,1.074,4.856-0.569,4.752-2.862
	c-0.162-3.57-2.894-3.465-5.118-3.014C148.256,65.199,146.241,62.6,144.218,62.73L144.218,62.73z M144.175,63.031
	c2.921,0.091,3.501,3.342,1.71,5.183c0,0-1.16-0.899-1.775-1.411c-0.584,0.463-0.753,0.863-1.396,1.339
	c-0.761-0.566-1.22-1.568-1.228-2.533C141.522,64.101,143.033,62.996,144.175,63.031z M77.426,63.132
	c11.822,6.653,26.647,7.129,40.217,0.349l-0.165,1.127l-1.487,0.844l0.842,1.552l0.465-0.225l0.012,1.026
	c-11.186,6.084-29.924,7.344-44.592-2.76l1.276-0.597c0,0,0.288,0.203,0.565,0.376c0.534,0.333,1.416,0.867,1.998,1.13l0.889-1.289
	c0,0-1.355-0.832-1.223-0.887L77.426,63.132z M78.468,65.172l-0.677,1.549l1.695,0.91l0.646-1.561L78.468,65.172z M72.036,65.347
	c18.206,11.507,35.153,8.081,45.33,3.376l0.131,1.227c-13.136,5.627-30.408,7.138-46.849-3.991L72.036,65.347z M114.891,66.086
	l-1.619,0.65l0.643,1.494l1.664-0.716L114.891,66.086z M69.859,66.364c14.795,9.606,30.663,11.487,47.764,4.448l0.654,1.839
	c-16.655,6.735-34.232,5.959-50.29-5.489L69.859,66.364z M81.229,66.419l-0.662,1.61l1.834,0.7l0.534-1.579L81.229,66.419z
	 M112.342,67.085l-1.604,0.522l0.5,1.541l1.66-0.569L112.342,67.085z M84.031,67.525l-0.396,1.619l1.872,0.53l0.327-1.626
	L84.031,67.525z M151.787,70.189c0.252,2.753-3.801,4.08-5.316,1.512l1.336-1.634l-1.195-1.122
	C148.233,66.362,151.551,67.605,151.787,70.189z M67.58,67.615l4.414,3.055l-3.207,5.017l-4.752-3.213L67.58,67.615z
	 M144.074,67.754l2.803,2.447l-2.572,3.031l-2.63-2.672L144.074,67.754z M142.332,68.584l-1.576,1.845l1.705,1.826
	c-2.022,2.165-5.041,0.829-5.011-1.821C137.474,68.411,140.548,66.442,142.332,68.584z M109.658,67.874l-1.684,0.508l0.384,1.486
	l1.741-0.457L109.658,67.874z M86.945,68.343l-0.312,1.599l1.934,0.418l0.327-1.591L86.945,68.343z M106.879,68.613l-1.792,0.392
	l0.308,1.591l1.795-0.379L106.879,68.613z M144.262,68.989l-1.476,1.46l1.476,1.54l1.488-1.54L144.262,68.989z M90.047,69.036
	l-0.227,1.61l2.026,0.274l0.157-1.63L90.047,69.036z M103.691,69.256l-1.822,0.21l0.185,1.579l1.892-0.24L103.691,69.256z
	 M92.935,69.442l-0.023,1.653l1.776,0.143v-1.638L92.935,69.442z M100.77,69.597l-1.784,0.066l0.013,1.599l1.822-0.116
	L100.77,69.597L100.77,69.597z M68.222,69.612c-1.05,0-1.899,0.855-1.899,1.913c0,1.057,0.85,1.912,1.899,1.912
	s1.899-0.855,1.899-1.912C70.121,70.468,69.271,69.612,68.222,69.612z M97.778,69.667l-1.753,0.016l0.008,1.618l1.807,0.008
	L97.778,69.667L97.778,69.667z M144.262,69.675l0.77,0.774l-0.77,0.763l-0.788-0.763L144.262,69.675z M68.219,70.286
	c0.688,0,1.245,0.562,1.245,1.255s-0.558,1.258-1.245,1.258c-0.689,0-1.25-0.564-1.25-1.258S67.529,70.286,68.219,70.286z
	 M61.463,70.379l2.526,2.071c-0.804,1.55-3.349,4.82-3.349,4.82l-4.667-3.767l2.44-1.391c-0.133,0.259-0.207,0.549-0.207,0.859
	c0,1.039,0.837,1.878,1.868,1.878s1.868-0.839,1.868-1.878c0-0.996-0.772-1.809-1.745-1.873L61.463,70.379z M60.053,71.711
	c0.691,0,1.253,0.565,1.253,1.262c0,0.697-0.562,1.259-1.253,1.259s-1.254-0.562-1.254-1.259
	C58.799,72.276,59.361,71.711,60.053,71.711z M145.9,72.307c0,0,0.688,0.263,0.856,0.523c1.355,2.094-0.057,4.583-2.327,4.535
	c-2.652-0.058-3.351-3.405-1.526-4.771l1.483,1.41L145.9,72.307z M76.941,73.159l5.229,2.021l-1.984,5.722l-5.717-2.361
	L76.941,73.159z M55.451,73.755c21.33,19.353,51.634,20.744,73.66,7.897l1.342-0.027l0.711,0.736
	c-25.093,14.942-56.285,11.69-77.344-7.542L55.451,73.755z M114.187,74.909l1.685,5.655l-5.783,1.533l-1.291-5.729L114.187,74.909z
	 M53.264,75.114c6.474,6.281,15.627,11.786,26.377,14.908l0.265,2.318c-11.411-3.45-20.03-8.059-28.426-16.058L53.264,75.114z
	 M78.325,75.203c-1.031,0-1.868,0.843-1.868,1.881c0,1.039,0.837,1.878,1.868,1.878c1.032,0,1.869-0.839,1.869-1.878
	C80.194,76.046,79.357,75.203,78.325,75.203z M69.025,75.625l5.395,2.872l-2.688,5.416l-5.729-3.093L69.025,75.625z M78.303,75.822
	c0.691,0,1.253,0.565,1.253,1.262c0,0.697-0.562,1.259-1.253,1.259s-1.254-0.562-1.254-1.259
	C77.049,76.388,77.61,75.822,78.303,75.822z M87.233,76.593l5.183,0.759l-0.238,5.784l-6.048-0.732
	C86.361,80.368,87.233,76.593,87.233,76.593z M112.265,76.736c-1.031,0-1.868,0.843-1.868,1.881c0,1.039,0.837,1.878,1.868,1.878
	s1.868-0.839,1.868-1.878C114.133,77.579,113.296,76.736,112.265,76.736z M112.241,77.355c0.691,0,1.253,0.565,1.253,1.262
	s-0.562,1.259-1.253,1.259s-1.253-0.563-1.253-1.259S111.55,77.355,112.241,77.355z M70.105,77.437
	c-1.031,0-1.868,0.843-1.868,1.882c0,1.038,0.837,1.877,1.868,1.877s1.868-0.839,1.869-1.877
	C71.975,78.279,71.137,77.437,70.105,77.437z M103.237,77.444l0.742,5.812l-5.659,0.282l-0.335-5.795L103.237,77.444z
	 M143.797,77.964h0.803c0.075,5,0.468,10.789,1.043,15.07c0.086,0.638,0.125,0.826,0.061,0.94c-0.555,0.991-1.201-0.256-1.453-3.101
	c-0.069-0.783-0.157-1.925-0.253-2.675C143.706,85.932,143.797,77.964,143.797,77.964z M48.15,78.053
	c-8.51,5.346-22.664,18.114-22.579,18.412l0.058,49.064l1.107,0.054l0.915-1.804c-1.416-0.356-1.02-3.036,1.691-3.573
	c0.462-0.092,1.876-0.57,2.222-0.836c2.059-1.58,5.401-2.513,7.747-1.89c3.421,0.881,4.122,3.413,2.476,7.816
	c-1.297,3.471-3.868,7.909-6.281,9.175c-0.197,0.104-0.623,0.313-0.623,0.313s0.561,0.515,0.765,0.646
	c6.649-3.869,10.007-17.747,9.827-26.383c0.268-8.845,1.782-17.721,5.328-24.176c5.859-10.669,13.61-14.958,13.57-14.998
	C64.373,89.875,53.925,83.488,48.15,78.053z M70.082,78.057c0.692,0,1.254,0.565,1.254,1.262s-0.562,1.259-1.254,1.259
	c-0.691,0-1.253-0.563-1.253-1.259S69.391,78.057,70.082,78.057z M121.771,78.258l2.019,5.4l-5.608,2.312l-2.023-5.676
	L121.771,78.258z M89.509,78.285c-1.031,0-1.868,0.843-1.868,1.881c0,1.039,0.837,1.878,1.868,1.878
	c1.032,0,1.868-0.839,1.868-1.878C91.377,79.128,90.541,78.285,89.509,78.285z M100.912,78.753c-1.032,0-1.868,0.844-1.869,1.882
	c0,1.038,0.838,1.878,1.869,1.878s1.867-0.84,1.868-1.878C102.78,79.597,101.943,78.753,100.912,78.753z M89.486,78.904
	c0.691,0,1.253,0.565,1.253,1.262c0,0.697-0.562,1.259-1.253,1.259c-0.692,0-1.254-0.562-1.254-1.259
	C88.232,79.47,88.794,78.904,89.486,78.904z M100.889,79.373c0.691,0,1.253,0.565,1.253,1.262s-0.561,1.258-1.253,1.258
	c-0.691,0-1.254-0.562-1.254-1.258S100.197,79.373,100.889,79.373z M119.965,80.016c-1.031,0-1.868,0.843-1.869,1.881
	c0,1.039,0.838,1.878,1.869,1.878s1.868-0.839,1.868-1.878C121.833,80.858,120.996,80.016,119.965,80.016z M119.941,80.635
	c0.691,0,1.254,0.565,1.254,1.262s-0.563,1.259-1.254,1.259s-1.254-0.563-1.253-1.259C118.688,81.2,119.25,80.635,119.941,80.635z
	 M80.324,80.731l5.605,1.444l-1.304,5.919l-6.324-1.691L80.324,80.731z M151.232,80.579c0.917,2.892-0.766,6.6-0.85,6.842
	c-1.02,2.909-2.245,5.286-2.691,5.424c-0.38,0.146-0.548,0.052-0.547-0.306c0-0.549,1.254-4.273,2.238-6.67
	c0.24-0.587,0.799-2.361,0.8-2.659c0-0.448-0.431,0.282-0.896,1.4c-0.901,2.237-2.218,4.633-2.503,6.802
	c-0.204,1.773-0.539,1.522-0.783-0.588c-0.341-2.93,0.296-4.437,3.567-8.517C150.35,81.331,151.153,80.328,151.232,80.579z
	 M110.054,82.083l1.622,5.795l-6.616,1.138l-1.03-5.876L110.054,82.083z M82.351,82.667c-1.032,0-1.868,0.843-1.868,1.882
	c0,1.038,0.837,1.877,1.868,1.877s1.868-0.839,1.868-1.877C84.219,83.51,83.382,82.667,82.351,82.667z M92.242,83.043l5.994,0.344
	l0.053,6.024l-6.505-0.283L92.242,83.043z M82.327,83.286c0.691,0,1.253,0.566,1.253,1.263s-0.561,1.258-1.253,1.258
	c-0.691,0-1.253-0.562-1.253-1.258S81.636,83.287,82.327,83.286z M107.481,83.82c-1.031,0-1.868,0.844-1.868,1.882
	s0.837,1.878,1.868,1.878c1.032,0,1.868-0.84,1.868-1.878S108.513,83.82,107.481,83.82z M95.057,84.305
	c-1.031,0-1.869,0.843-1.869,1.882c0,1.038,0.838,1.877,1.869,1.877s1.868-0.839,1.868-1.877
	C96.925,85.147,96.088,84.305,95.057,84.305z M107.459,84.44c0.691,0,1.253,0.565,1.253,1.262s-0.562,1.259-1.253,1.259
	s-1.254-0.563-1.254-1.259S106.768,84.44,107.459,84.44z M95.033,84.924c0.691,0,1.254,0.566,1.254,1.263s-0.563,1.258-1.254,1.258
	s-1.253-0.562-1.253-1.258S94.342,84.924,95.033,84.924z M135.904,85.284c0.099-0.002,0.229,0.017,0.314,0.016
	c1.339-0.016,5.854,3.249,7.009,5.227c0.96,1.745,0.463,2.438-0.642,0.878c-1.524-1.709-4.34-4.245-4.698-4.246
	c-0.385-0.002,0.146,0.551,1.938,2.311c1.778,1.745,3.653,4.02,3.652,4.425c0,0.268-0.354,0.234-0.861-0.081
	c-1.108-0.688-2.071-1.384-2.564-1.851c-0.296-0.281-0.863-0.799-1.265-1.153c-1.658-1.463-3.547-4.838-3.014-5.485L135.904,85.284z
	 M52.279,85.765c1.154-0.034,2.457,0.705,2.51,2.06c0.038,0.956,0.103,1.029,0.961,1.045c0.82,0.015,3.188,0.298,3.188,0.298
	l0.016,2.679c0,0-1.144-0.007-2.461-0.069c-2.243-0.106-2.232-0.11-2.518,0.883c-0.115,0.401-0.276,0.599-0.724,0.895
	c-2.015,1.332-3.956-1.085-2.706-3.368c0.43-0.784,0.454-1.052,0.158-1.521C50.1,87.301,50.902,85.832,52.279,85.765z
	 M52.771,87.135c-0.249,0-0.521,0.107-0.77,0.356c-0.332,0.331-0.335,1.276,0,1.827c0.316,0.525,0.308,0.667-0.062,1.014
	c-0.651,0.611-0.669,1.823-0.034,2.278c0.578,0.416,1.192-0.133,1.195-0.974c0-0.921,0.644-0.903,0.644-0.903l4.214,0.073
	l0.014-0.691l-3.057-0.154c-0.426-0.002-0.871-0.043-1.199-0.267c-0.348-0.242-0.744-0.662-0.365-1.174
	c0.53-0.717,0.058-1.391-0.577-1.386H52.771z M43.637,88.718l1.998,3.423l2.33,0.085l0.204,2.083L51,96.145l-2.9,1.709l-0.144,2.096
	l-2.198,0.278l-2.041,2.574l-1.957-2.57l-2.156,0.012l-0.031-2.149l-2.969-1.924l3.249-1.839l-0.034-2.454l2.303-0.155
	L43.637,88.718L43.637,88.718z M114.252,90.274l0.096,2.067l-3.271,0.584l0.427-2.105L114.252,90.274z M93.284,92.357l4.409,0.135
	l-0.254,29.016c0,0-0.868-0.006-1.033-0.008l-0.02-1.131l-1.411,0.047l-1.434-0.875L93.284,92.357z M43.637,93.093l-2.588,3.298
	l3.133,2.757l2.761-3.225L43.637,93.093z M94.606,93.534v1.335h1.85v-1.335H94.606z M43.693,94.676l1.822,1.344l-1.387,1.847
	l-1.758-1.533L43.693,94.676z M114.344,95.435l-0.058,15.88c-6.059,4.788-7.946,13.217-7.946,13.217l-2.464-0.147l6.263-27.974
	L114.344,95.435z M81.501,95.787c-5.452,2.612-10.947,4.59-16.354,10.82c2.094,1.897,4.307,3.832,6.273,7.064
	c4.503-0.675,9.512,0.137,14.975,2.3L81.501,95.787z M94.606,96.144v1.382h1.85v-1.382H94.606z M33.322,98.137
	c0.134,0.423,0.177,0.875,0.177,0.875c3.997-0.338,2.978,4.334,0.431,4.494c-0.299,0.039,0.246,0.829,0.842,1.08
	c1.514,0.641,2.602,0.229,3.594-1.103c0.762-1.022,0.808-1.169,0.808-1.169l2.468,1.315c0,0,0.07-0.036-0.365,1.104
	c-0.793,2.074,0.365,4.618,1.258,2.765c0.477-0.988,1.875-1.551,2.845-1.143c1.133,0.478,1.525,2.515,0.73,3.798
	c-0.24,0.388-0.247,0.47-0.1,0.828c0.222,0.541,0.359,1.933,0.127,2.381c-0.302,0.583-0.65,0.716-1.33,0.24
	c-0.932-0.649-1.452-0.92-3.071-1.374c-2.846-0.539-3.402-1.547-4.533-3.902c-3.369,1.016-8.41-1.111-7.738-6.147
	c0.305-1.111,0.389-3.245-0.174-3.682c-1.103-0.855,0.107-2.09,1.765-2.288C32.416,96.073,33.071,97.372,33.322,98.137z
	 M80.985,96.678l4.383,18.481c-4.811-1.774-9.531-3.159-13.709-2.13c-1.913-3.074-3.544-4.587-5.667-6.585
	C70.127,101.425,75.385,98.616,80.985,96.678L80.985,96.678z M31.399,97.583c-0.283-0.003-0.604,0.12-0.938,0.418
	c0,0,0.297,0.25,0.458,0.589c0.258,0.541,0.261,0.541-0.031,1.742c-1.336,4.814,1.834,7.999,6.343,6.608
	c1.107-0.345,1.065-0.308,1.385,1.003c0.525,2.155,2.039,3.269,5.048,3.678c0.185,0.024,0.493,0.086,0.737,0.235
	c1.324,0.851,0.781-0.28,0.42-0.72c-0.259-0.344-0.73-0.686-0.73-0.686s0.403-0.263,0.592-0.363c0.85-0.453,1.166-2.229,0.465-2.609
	c-0.639-0.348-1.727,0.177-1.73,0.836c-0.008,1.204-1.514,1.332-2.834,0.331c-1.694-1.284-0.193-4.522-0.184-4.518l-0.955-0.424
	c0.127,0.114-2.013,3.174-4.645,2.106c-1.838-0.745-3.134-2.889-2.281-3.5c0.621-0.168,1.365,0.176,1.838-0.19
	c0.939-0.742,0.182-2.045-1.161-1.997c-0.282,0.01-0.923,0.135-0.923,0.135c0.07-0.606,0.225-1.033,0.15-1.617
	C32.343,98.055,31.939,97.589,31.399,97.583L31.399,97.583z M94.626,98.988v1.139l1.83,0.012V99L94.626,98.988z M94.606,101.334
	v1.174h1.85v-1.174H94.606z M94.606,103.862v1.2h1.85v-1.2H94.606z M94.606,106.22v1.271h1.85v-1.271H94.606z M94.606,108.586v1.185
	h1.85v-1.185H94.606z M94.606,110.997v1.196h1.85v-1.196H94.606z M34.486,112.166l1.558,2.648l1.849,0.081l0.073,1.819l3.145,2.42
	l-2.749,1.979l-0.199,1.963l-2.18,0.069l-1.766,2.996l-2.172-2.628L30.3,123.23l-0.2-2.393l-2.688-2.024l2.526-2.032l0.204-2.126
	l2.057,0.183L34.486,112.166z M136.815,113.433c0.168,0.003,0.352,0.05,0.55,0.15c0.653,0.332,0.859,0.371,2.557,0.457
	c1.969,0.101,2.664,0.277,3.641,0.933c0.589,0.396,0.623,0.394,1.253-0.026c2.765-1.845,5.922-0.168,6.151,3.267
	c0.061,0.903,0.15,1.268,0.504,2.025c0.241,0.525,0.49,0.938,0.346,1.273c-0.443,1.022-2.572,1.089-3.732-0.43
	c-0.208-0.229-0.419-0.328-0.708-0.329c-0.576,0.216-2.05-0.952-2.033-1.003c-0.138,0.813-0.206,1.459-0.351,2.641l-2.579-0.039
	c0,0-0.058-0.476-0.177-2.137c-0.138-1.909-0.609-2.468-1.215-1.437c-1.043,1.776-3.814,0.995-3.976-1.118
	c-0.054-0.717-0.095-0.811-0.484-1.111C135.257,115.538,135.637,113.408,136.815,113.433z M94.606,113.537v1.061h1.85v-1.061H94.606
	z M137.111,114.671c-0.513,0.037-0.221,0.952,0.627,1.437c0.48,0.274,0.481,0.272,0.418,1.115c-0.113,1.525,1.347,2.273,1.996,1.021
	c0.112-0.217,0.16-0.492,0.115-0.678c-0.272-1.108,2.11-0.806,2.684,0.341c0.132,0.264,0.278,0.965,0.35,1.673
	c0.067,0.671,0.084,1.447,0.084,1.447h0.762c0,0-0.009-0.463,0.034-0.905c0.188-1.896,1.021-3.094,2.146-3.09
	c0.479,0.002,0.497,0.088,0.161,0.713c-0.567,1.057-0.021,1.822,1.304,1.831c0.84,0.006,0.837,0.007,1.149,0.607
	c0.343,0.66,0.603,0.869,0.923,0.747c0.226-0.086,0.229,0.042-0.065-2.21c-0.44-3.355-2.379-4.259-5.056-2.357
	c-0.758,0.538-0.924,0.521-1.596-0.132c-1.007-0.979-1.645-1.204-3.613-1.277c-0.938-0.035-1.863-0.128-2.054-0.206
	C137.328,114.687,137.205,114.664,137.111,114.671z M73.581,115.631c-0.438,0.008-0.946,0.101-1.387,0.139
	c0.489,2.593,0.718,5.186,0.941,7.778c2.254-0.395,5.174-0.026,9.026,1.781c2.364,1.109,5.251,3.005,8.277,5.145
	c3.275,2.316,7.115,3.685,10.387,4.399c3.982,0.87,7.182,0.796,7.094,0.606c-0.176,0.029-1.436-6.36-1.271-7.727
	c-5.509-0.51-10.829-2.563-14.896-5.347C86.371,118.722,80.148,115.519,73.581,115.631z M94.606,115.848v1.076h1.85v-1.076H94.606z
	 M33.926,116.061L31,119.131l3.184,3.035l2.702-3.093L33.926,116.061z M33.845,117.455l1.657,1.599l-1.338,1.707l-1.865-1.618
	L33.845,117.455z M75.096,117.706c0.391,0.003,0.771,0.279,2.061,1.007c1.082,0.751,1.945,1.221,1.631,0.043
	c0.246-0.34,1.444,0.764,2.855,1.459c1.703,1.373,1.709,1.042,1.931,0.36c0.228-0.499,0.542-0.161,1.903,1.106
	c1.786,1.667,1.626,1.669,1.983,1.255c0.407-0.778,0.543-0.771,1.999,0.913c1.514,1.701,1.834,2.063,2.156,1.336
	c0.498-0.377,0.756-0.011,2.811,1.932c1.011,1.015,1.248,0.857,1.438,0.175c0.196-0.704,0.252-0.546,1.957,0.816
	c1.976,1.593,2.171,1.709,2.253,1.157c0.131-0.875,0.743-0.564,2.776,0.906c1.232,0.887,1.697,1.133,1.96,0.914
	c0.269-0.479-0.668-1.396,1.319-0.531l0.545,2.904l-0.688-0.198c-0.423-0.121-1.349-0.437-1,0.469
	c0.201,0.522-0.299,0.461-1.842-0.465c-2.21-1.325-2.617-1.63-2.783-1.358c-0.291,0.992-0.254,1.057-1.745-0.12
	c-1.734-1.324-2.083-1.69-2.326-1.239c-0.032,1-0.516,0.798-2.134-0.607c-1.367-1.204-1.658-1.834-2.271-0.912
	c-0.168,0.32-0.337,0.239-0.563,0.073c-0.795-0.593-2.395-2.293-2.847-2.781c-0.355-0.39-0.558-0.264-0.85,0.059
	c-0.272,0.301-0.294,0.207-1.177-0.608c-2.108-1.947-2.5-2.434-2.795-2.168c-0.24,0.457-0.01,1.078-1.63-0.209
	c-2.031-1.473-2.913-2.127-2.775-1.161c-0.349,0.433-0.104,0.518-2.138-0.615c-1.933-1.076-2.177-1.399-2.456-1.03
	c-0.19,0.585-0.839,0.375-0.839,0.341l-0.392-2.953l0.695,0.008C74.119,117.981,74.789,117.707,75.096,117.706z M59.591,117.954
	c-0.154,0.457-1.221,3.091-1.233,9.798c0.127,0.159,2.642-2.422,2.764-4.827C61.237,120.646,59.596,117.947,59.591,117.954z
	 M94.603,118.14v1.224h1.85v-1.224H94.603z M59.723,119.109c2.351,3.753-0.24,7.291-0.885,7.541
	C58.838,123.83,59.25,121.179,59.723,119.109z M121.41,122.262c-3.864,2.452-3.236,9.088-1.341,10.787
	C120.209,133.049,121.426,125.882,121.41,122.262z M120.881,123.078l-1.039,8.54C118.49,130.111,118.251,125.62,120.881,123.078z
	 M145.25,124.52l2.041,2.586l1.814,0.136l0.404,1.866l2.648,2.172l-2.652,1.812l-0.234,2.067l-1.973,0.201l-1.953,3.094l-1.91-3.031
	l-1.83-0.198l-0.058-1.989l-2.876-2.137l2.745-1.661l0.054-2.249l2.148,0.008L145.25,124.52z M72.954,125.329
	c-1.297,6.21-4.395,10.46-8.765,13.317l0.022,0.627l-7.362,2.973c-1.612,7.576-4.512,14.967-10.591,21.9l1.695,3.469l-8.224,2.845
	l11.771,20.329c0.811,0-5.703,3.104-13.566,2.295c4.977,12.27,6.002,24.973,3.248,36.096l38.533-0.162l-29.448-58.189l-0.48-0.948
	c-0.409-0.761,15.655,2.274,12.244,17.277c-0.048,0.348,0.072,0.392,0.266,0.248c3.123-2.701,23.862-10.191,40.425-0.302
	l4.921-2.053c-2.343,8.256-5.004,13.935-9.492,18.912l0.761,11.749c7.941-6.549,16.559-18.571,17.716-34.548
	c3.576-1.754,6.687-3.747,10.019-5.625l0.442,0.144l2.156-1.305c-6.917-7.62-21.04-14.902-30.091-16.816l0.535,2.582
	c-4.994-1.351-8.729-1.644-12.614-2.063l-0.596-27.339l-5.028-2.985l-0.158,30.157c-3.76,0.047-12.406,1.541-12.406,1.541
	l0.389-2.578l-3.96,0.82l-0.068-2.512l4.475-1.293l6.489-27.703L72.954,125.329z M73.496,125.944l2.068,0.422l-6.424,27.161
	c0,0-3.604,1.002-3.825,0.863c-0.287-5.094-0.396-15.474-0.396-15.474C71.26,133.595,72.252,129.827,73.496,125.944z
	 M29.404,127.938c0.968-0.013,2.01,0.696,2.076,1.335c0.165,0.394,0.304,0.564,0.564,0.601c1.621,0.226,1.673,0.657,1.719,1.599
	c-0.229,1.804,0.971,0.289,1.311-1.502c0.035-0.187,0.016-1.557,0.016-1.557l1.984-0.02c0,0,0.066,1.43,0.096,1.657
	c0.175,1.386,0.762,2.509,1.168,1.773c1.396-2.524,4.593-1.237,4.088,1.196c-0.125,0.575-0.117,0.611,0.272,1.049
	c0.635,0.713,0.871,1.468,0.661,2.125c-0.204,0.643-0.65,0.74-1.611,0.353c-0.451-0.182-0.998-0.247-2.46-0.29
	c-2.068-0.062-2.197-0.101-3.003-0.887l-0.507-0.495l-0.877,0.519c-1.459,0.863-2.786,0.896-4.329,0.101
	c-1.004-0.519-1.589-1.761-1.745-3.697c-0.029-1.029-0.316-1.774-0.949-2.021c-0.342-0.324,0.039-0.969,0.622-1.557
	C28.769,128.027,29.081,127.942,29.404,127.938z M145.08,128.232l-2.725,3.422l3.24,2.919l3.018-3.573L145.08,128.232z
	 M81.942,128.724l3.775,2.176l0.484,26.952l-4.268-0.12L81.942,128.724L81.942,128.724z M29.508,129.1
	c-0.287,0.028-0.106,0.492,0.104,1.2c0.189,0.633,0.237,1.027,0.178,1.467c-0.401,2.954,2.962,4.455,5.39,2.408
	c0.646-0.745,0.751-0.696,1.292,0.101c0.666,0.841,1.635,1.114,3.668,0.991c0.928-0.056,1.542,0.442,1.945,0.112
	c0.291-0.213,0.008-0.775-0.555-1.104c-0.344-0.2-0.355-0.232-0.287-0.925c0.172-1.749-1.26-2.211-2.276-0.736
	c-0.84,1.219-2.106,0.414-2.515-1.599c-0.242-1.548-0.436-1.523-0.619-0.174c-0.197,1.642-2.345,3.421-3.202,2.613
	c-0.234-0.238-0.232-0.179,0.008-1.003c0.31-1.058,0.062-1.452-1.084-1.727c-0.188-0.045-0.403-0.203-0.477-0.349
	C30.471,129.432,30.497,129.1,29.508,129.1L29.508,129.1z M145.354,129.727l1.73,1.502l-1.508,1.793l-1.841-1.425L145.354,129.727z
	 M83.127,130.687v1.243v0.03h1.614v-1.273H83.127z M83.127,133.253v1.224v0.116h1.614v-1.339L83.127,133.253z M92.854,134.794
	c1.81,6.768,3.634,13.528,5.451,20.294c1.723-0.693,11.665-5.137,16.354-10.824c-0.179,0.014-4.263-4.008-5.694-6.616
	C104.275,138.426,98.889,137.436,92.854,134.794z M83.127,135.6v1.211v0.039h1.614v-1.25H83.127z M93.872,135.94
	c4.274,1.283,9.749,3.054,14.79,2.152c1.3,2.352,3.182,4.288,5.305,6.073c-3.814,4.18-9.332,7.367-15.039,9.822L93.872,135.94z
	 M134.439,136.428c0.215,0.002,0.433,0.084,0.642,0.271c0.677,0.605,1.198,0.814,2.58,1.041c2.226,0.365,3.923,1.765,4.405,3.631
	c0.202,0.784,0.313,0.827,1.423,0.546c4.2-1.064,7.438,2.442,6.439,7.123c-0.35,1.635-0.456,1.83,0.031,2.478
	c1.067,1.159,1.3,1.175,0.13,2.195c-1.064,0.963-3.177,0.497-3.625-1.064c-0.429-0.855-0.422-0.921-1.127-1.033
	c-2.74-0.44-2.627-4.258-0.046-4.7c0.216-0.037,0.375,0.007,0.484-0.043c0.733-0.333-0.799-2.079-2.064-1.812
	c-1.553,0.328-2.326,1.332-2.938,2.903l-2.444-1.405c0.613-1.277,1.063-2.923,0.53-3.94c-0.431-0.858-0.976-0.892-1.142-0.07
	c-0.393,1.934-2.778,2.511-4.345,0.938c-0.876-0.88-0.978-1.823-0.335-3.098c0.417-0.823,0.428-0.883,0.25-1.23
	C132.674,137.946,133.507,136.422,134.439,136.428z M83.127,138v1.305l1.618-0.009v-1.297h-1.614L83.127,138z M134.739,138.107
	c-0.497,0.005-0.494,0.492-0.034,1.084c0.408,0.418,0.487,0.609-0.077,0.969c-0.708,0.66-0.862,1.654-0.373,2.411
	c0.733,1.138,2.428,0.504,2.233-0.836c-0.137-0.94,0.598-1.36,1.765-1.007c1.696,0.515,2.505,2.424,1.838,4.348
	c-0.126,0.362-0.376,1.208-0.376,1.208l0.501,0.307c0,0,0.595-0.956,0.827-1.246c1.928-2.386,6.483-1.177,5.976,1.807
	c-0.078,0.938-0.074,1.063-1.088,0.771c-0.674-0.35-1.324,0.375-1.304,1.281c0.033,0.816,0.736,1.471,1.711,1.34
	c0.772-0.146,0.967-0.12,0.911,0.929c0.079,0.729,0.349,1.212,0.822,1.459c1.151,0.479,1.743-0.181,0.823-1.149
	c-0.558-0.587-0.523-1.494-0.174-2.346c0.42-1.018,0.201-3.256-0.441-4.518c-0.926-1.819-3.515-2.581-5.683-1.673
	c-0.991,0.533-1.099,0.656-1.195-0.278c-0.543-2.32-2.276-4.072-4.437-4.228C136.135,138.68,135.27,138.223,134.739,138.107
	L134.739,138.107z M83.127,140.478v1.204h1.618v-1.204H83.127z M83.127,142.831v1.328h1.614v-1.328H83.127z M83.127,145.421v1.328
	c0,0,0.883-0.025,1.614,0v-1.328H83.127z M135.857,147.55l1.769,2.633l1.957,0.132l0.23,2.125l2.968,1.862l-2.572,1.622
	l-0.019,2.056l-2.453,0.209l-2.168,2.896l-1.846-2.555l-1.845,0.008l-0.435-2.28l-3.269-1.669l3.353-1.924l-0.092-2.396l2.279-0.015
	L135.857,147.55L135.857,147.55z M83.127,147.863v1.363h1.614v-1.363H83.127z M83.127,150.36v1.348h1.614v-1.348H83.127z
	 M134.866,151.363l-2.534,3.396l3.414,2.841l2.715-3.434L134.866,151.363z M83.127,152.722v1.476h1.614v-1.476H83.127z
	 M135.127,152.9l1.761,1.37l-1.257,1.606l-1.749-1.343L135.127,152.9z M83.127,155.447v1.235h1.614v-1.235H83.127z M35.07,155.606
	c-3.112,0.014-6.057,5.091-6.762,7.494c-0.834,3.08-0.958,8.65-0.166,8.808c2.791-2.021,4.113-5.448,6.209-8.014
	c0.326,2.967,0.273,8.688,0.273,8.688s-1.24,0.657-1.908,1.695c-0.483,0.863-0.637,1.896-0.226,2.856
	c-1.552-0.508-4.361,0.065-4.521,2.949c0.102,4.062,4.505,3.489,4.521,3.435c-0.094-0.025-0.867,4.32,3.041,4.78
	c1.402,0.166,3.87-0.863,3.137-4.815c2.468,0.41,4.595-0.958,4.621-3.349c0.031-1.638-1.204-3.046-3.333-3.055
	c-0.443-0.002-1.38,0.201-1.38,0.201c0.029-0.236,0.853-2.777-2.011-4.622l-0.45-11.757c0,0,0.988,1.084,1.431,1.494
	c1.902,1.764,3.145,2.651,5.34,3.817c2.137,1.134,1.873,0.854,1.503-1.301c-1.01-3.237-3.12-5.684-7.585-8.741
	C36.229,155.777,35.647,155.604,35.07,155.606z M35.379,155.857l0.626,16.629l-0.927-0.002l-0.796-16.611L35.379,155.857z
	 M126.984,156.407l0.254,0.009c2.014,0.17,2.531,2.438,1.626,3.445c-0.357,0.397-0.481,0.483-0.296,0.728
	c0.865,1.103,0.382,2.845-0.473,3.112c-2.718,0.852-3.13-0.646-3.122-2.408l-4.198-0.158l0.027-2.462l4.629,0.093
	C125.082,157.647,125.751,156.455,126.984,156.407L126.984,156.407z M33.434,156.435h0.049c0.436,0.037-0.013,1.208-1.226,2.992
	c-0.82,1.207-1.962,3.335-2.303,4.193c-0.747,1.879-1.251,5.249-0.75,4.63c0.452-1.409,0.496-1.996,0.884-3.008
	c0.512-1.321,2.899-5.662,3.372-6.09c0.404-0.365,0.509-0.141,0.5,1.08c-0.021,2.75-1.315,5.645-4.402,9.031
	c-0.515,0.565-1.2,1.182-1.249,1.182c-0.297-0.002-0.289-0.624-0.285-1.933c0.021-5.195,1.936-9.835,4.883-11.83
	C33.137,156.526,33.311,156.445,33.434,156.435z M36.559,156.675c1.354,0.399,3.785,2.588,4.787,3.712
	c1.16,1.262,2.714,4.752,2.44,5.289c-0.091,0.235-0.286,0.198-0.965-0.187c-4.31-2.442-7.395-5.452-6.585-6.426
	c0.225-0.272,1.151,0.288,2.391,1.447c0.843,0.753,1.705,1.517,2.477,2.28c1.21,1.201,1.482,1.377,0.753,0.043
	c-0.655-1.198-2.513-3.209-4.76-4.917C36.184,157.223,35.977,156.664,36.559,156.675z M127.25,157.375l-0.15,0.027
	c-0.848,0.359-0.502,1.466-0.584,2.315l-4.659-0.163l-0.027,0.65l4.371,0.24c0.077,0.664-0.267,2.097,0.296,2.338
	c1.224,0.513,1.892-1.075,0.854-2.028c-0.369-0.331-0.77-0.478,0.258-0.944c0.678-0.583,0.783-1.721,0.204-2.227
	C127.651,157.444,127.423,157.373,127.25,157.375z M68.299,157.569l-0.234,1.737l-2.703,0.686l-0.068-1.858L68.299,157.569z
	 M100.174,158.185c9.978,2.706,21.069,8.851,28.271,15.791l-1.441,0.952c-7.483-6.961-17.356-12.245-26.427-14.869L100.174,158.185z
	 M82.981,158.451c16.431-0.045,31.409,6.387,43.496,16.774l-1.976,1.255c-11.025-9.178-23.241-15.298-39.676-16.027
	c-10.741-0.477-23,2.297-35.08,8.989l-0.9-1.646C60.579,161.354,72.099,158.481,82.981,158.451L82.981,158.451z M81.689,160.944
	l6.463,0.19l-0.4,6.043l-5.874-0.193L81.689,160.944z M74.738,161.374l0.911,5.831l-5.624,1.057l-1.596-5.846L74.738,161.374z
	 M95.195,162.145l6.42,1.723l-2.118,5.942l-5.636-1.618L95.195,162.145z M84.911,162.23c-1.02,0-1.845,0.831-1.845,1.857
	s0.825,1.858,1.845,1.858s1.845-0.832,1.846-1.858C86.757,163.062,85.931,162.23,84.911,162.23z M84.911,162.873
	c0.68,0,1.23,0.542,1.23,1.215s-0.551,1.22-1.23,1.22s-1.23-0.547-1.23-1.22S84.231,162.873,84.911,162.873z M72.163,162.884
	c-1.02,0-1.846,0.832-1.846,1.858s0.826,1.858,1.846,1.858c1.019,0,1.845-0.832,1.845-1.858S73.182,162.884,72.163,162.884z
	 M72.163,163.527c0.68,0,1.23,0.542,1.23,1.215s-0.551,1.22-1.23,1.22s-1.23-0.547-1.23-1.22S71.483,163.527,72.163,163.527z
	 M97.579,164.274c-1.02,0-1.845,0.831-1.846,1.857c0,1.026,0.826,1.858,1.846,1.858s1.845-0.832,1.845-1.858
	S98.599,164.274,97.579,164.274z M61.802,164.491l1.903,5.687l-5.447,2.222l-2.042-5.617L61.802,164.491z M97.579,164.917
	c0.68,0,1.23,0.542,1.23,1.215s-0.551,1.22-1.23,1.22s-1.23-0.547-1.23-1.22S96.899,164.917,97.579,164.917z M108.251,166.279
	l5.778,3.074l-2.986,5.435l-5.387-2.825L108.251,166.279z M59.872,166.771c-1.02,0-1.845,0.831-1.845,1.857s0.826,1.858,1.845,1.858
	c1.02,0,1.846-0.832,1.846-1.858S60.892,166.771,59.872,166.771z M81.701,166.949l0.27,5.741l-5.117,0.363l-0.931-5.706
	L81.701,166.949z M87.841,167.251l5.832,0.813l-1.372,5.527l-5.279-0.855L87.841,167.251z M59.872,167.414
	c0.68,0,1.23,0.542,1.23,1.215s-0.551,1.22-1.23,1.22c-0.679,0-1.229-0.547-1.229-1.22S59.193,167.414,59.872,167.414z
	 M78.979,168.157c-1.02,0-1.846,0.831-1.846,1.857s0.826,1.858,1.846,1.858c1.019,0,1.845-0.832,1.845-1.858
	S79.998,168.157,78.979,168.157z M69.66,168.389l1.512,5.587l-5.625,1.622l-1.727-5.373L69.66,168.389z M90.078,168.479
	c-1.019,0-1.845,0.832-1.845,1.857c0,1.026,0.826,1.858,1.845,1.858c1.02,0,1.846-0.832,1.846-1.858
	C91.924,169.311,91.098,168.479,90.078,168.479z M78.979,168.8c0.68,0,1.23,0.542,1.23,1.215s-0.551,1.22-1.23,1.22
	s-1.23-0.547-1.23-1.22S78.3,168.8,78.979,168.8z M90.078,169.121c0.68,0,1.23,0.543,1.23,1.215c0,0.673-0.551,1.22-1.23,1.22
	c-0.679,0-1.229-0.547-1.229-1.22S89.399,169.121,90.078,169.121z M109.816,169.133c-1.02,0-1.846,0.832-1.846,1.857
	c0,1.026,0.826,1.858,1.846,1.858s1.846-0.832,1.846-1.858C111.662,169.965,110.836,169.133,109.816,169.133z M99.832,169.675
	l5.637,1.939l-2.25,5.304l-5.394-2.067L99.832,169.675z M109.816,169.775c0.68,0,1.23,0.543,1.23,1.215
	c0,0.673-0.551,1.22-1.23,1.22s-1.23-0.547-1.23-1.22C108.586,170.318,109.137,169.775,109.816,169.775z M67.419,169.973
	c-1.019,0-1.845,0.832-1.845,1.858s0.826,1.857,1.845,1.857c1.02,0.001,1.846-0.831,1.846-1.857S68.438,169.973,67.419,169.973z
	 M67.419,170.615c0.681,0,1.231,0.543,1.23,1.216c0,0.673-0.55,1.219-1.23,1.219c-0.679,0-1.229-0.546-1.229-1.219
	S66.74,170.615,67.419,170.615z M101.566,171.699c-1.02,0-1.846,0.832-1.846,1.858s0.826,1.857,1.846,1.858
	c1.019,0,1.845-0.832,1.845-1.858S102.585,171.699,101.566,171.699z M101.566,172.342c0.68,0,1.23,0.543,1.23,1.216
	s-0.551,1.219-1.23,1.219s-1.23-0.546-1.23-1.219S100.887,172.342,101.566,172.342z M35.549,172.988
	c1.475,0.063,2.581,1.396,2.648,2.784c0.051,1.055-1.286,2.436-1.286,2.436l-1.556-1.449l-1.492,1.385
	c-0.252,0.085-1.413-1.901-1.059-2.929C33.267,173.877,34.217,172.932,35.549,172.988z M119.343,172.988l4.464,3.678
	c0,0-1.96,1.199-2.322,1.413c0.044-0.16,0.065-0.329,0.065-0.503c0-1.026-0.826-1.858-1.845-1.858c-1.02,0-1.846,0.832-1.846,1.858
	c0,0.88,0.61,1.619,1.426,1.812c-0.459,0.265-1.068,0.607-1.068,0.607l-2.356-1.989L119.343,172.988z M112.276,182.817l-1.975,0.815
	c-12.154-8.038-28.781-12.438-47.788-4.343l-0.653-1.587C75.971,171.787,93.772,169.944,112.276,182.817z M111.196,174.784
	l4.782,2.954l-3.037,4.696l-4.671-3.009L111.196,174.784z M109.751,183.89l-2.007,0.759c-14.836-9.599-30.648-9.087-44.777-3.333
	l-0.218-1.349C79.386,172.715,96.082,175.022,109.751,183.89z M119.704,176.36c0.68,0,1.23,0.543,1.23,1.216
	s-0.551,1.219-1.23,1.219c-0.679,0-1.229-0.546-1.229-1.219S119.025,176.36,119.704,176.36z M33.383,178.562l-1.649,1.676
	l1.507,1.704c0,0-0.479,0.407-0.824,0.598c-1.975,1.082-4.135-0.627-4.031-2.473C28.535,177.377,31.753,176.096,33.383,178.562z
	 M111.885,177.277c-1.02,0-1.846,0.832-1.846,1.858s0.826,1.858,1.846,1.858s1.846-0.832,1.846-1.858
	S112.904,177.277,111.885,177.277z M40.061,177.354c1.469,0.011,2.609,1.146,2.75,2.452c0.112,1.042-0.426,2.042-1.585,2.75
	c-1.573,0.96-3.4-0.595-3.369-0.69l1.327-1.32l-1.596-1.643C37.541,178.871,38.641,177.343,40.061,177.354z M35.468,177.673
	l2.718,2.729l-2.875,2.698l-2.664-2.694L35.468,177.673z M107.148,184.936l-1.526,0.704l-2.08-1.262l-0.615,1.188l1.157,0.739
	l-1.203,0.454c-13.861-7.842-29.523-5.57-39.936-0.366l0.096-0.807l1.134-0.582l-0.423-1.444l-0.607,0.179l-0.047-1.599
	C77.963,175.399,94.831,176.943,107.148,184.936L107.148,184.936z M111.885,177.92c0.68,0,1.23,0.543,1.23,1.216
	s-0.551,1.22-1.23,1.22s-1.23-0.547-1.23-1.22S111.205,177.92,111.885,177.92z M35.41,178.896l-1.449,1.451l1.441,1.549l1.406-1.498
	L35.41,178.896z M80.782,179.217l-1.899,0.086l0.101,1.56l1.853-0.046L80.782,179.217z M82.078,179.226l0.034,1.56l1.723-0.008
	l-0.009-1.541L82.078,179.226L82.078,179.226z M85.135,179.252l-0.085,1.553l1.711,0.077l0.123-1.544L85.135,179.252z
	 M77.753,179.45l-1.945,0.213l0.216,1.567l1.842-0.217L77.753,179.45z M88.321,179.473l-0.138,1.604l1.757,0.201l0.238-1.533
	L88.321,179.473z M35.418,179.481l0.846,0.905l-0.842,0.844l-0.896-0.882L35.418,179.481z M74.474,179.957l-1.876,0.298l0.2,1.614
	l1.83-0.363L74.474,179.957z M91.493,179.957l-0.312,1.494l1.746,0.422l0.284-1.524L91.493,179.957z M71.398,180.611l-1.576,0.422
	l0.342,1.572l1.665-0.41L71.398,180.611z M94.488,180.674l-0.33,1.518l1.779,0.487l0.357-1.456L94.488,180.674z M68.796,181.429
	l-1.649,0.588l0.427,1.456l1.676-0.569L68.796,181.429z M97.553,181.595l-0.55,1.46l1.541,0.623l0.681-1.324L97.553,181.595z
	 M66.074,182.45l-1.565,0.646l0.646,1.444l1.483-0.682L66.074,182.45z M33.822,182.495l1.584,1.593l1.882-1.71
	c1.643,1.462,1.616,4.882-1.29,5.453C33.459,188.329,31.137,184.503,33.822,182.495z M100.378,182.803l-0.604,1.34l1.703,0.754
	l0.589-1.289L100.378,182.803z M51.799,191.396l21.491,36.781l-3.399-0.065L49.093,192.57L51.799,191.396z M48.271,192.798
	l1.188,1.859c-2.327-1.866-5.748-0.296-5.604,2.055c0.114,1.05,0.995,1.688,0.999,0.678c-0.105-1.057,1.382-1.978,2.461-1.928
	c1.992,0.026,3.209,2.604,1.834,3.887c-0.904,0.838-2.127,0.801-1.715-0.349c0.064-0.396,0.033-0.541-0.153-0.712
	c-0.571-0.525-1.626,0.158-1.368,0.909c0.168,0.494,0.218,0.615-0.369,1.022c-2.279,1.611-0.691,4.787,2.068,3.341
	c0.563-0.205,0.793-0.234,1.049-0.136c1.148,0.445,1.931-0.559,0.842-1.08c-0.632-0.303-0.648-0.82-0.038-1.23
	c1.303-0.877,3.332,0.493,3.325,2.245c-0.008,1.24-1.629,2.156-3.188,1.796c-0.925-0.214-1.036,0.418-0.188,1.072
	c1.644,1.27,4.104,0.218,4.84-2.067c0.23-0.718,0.197-0.868,0.197-0.868l2.193,3.646c0,0-0.68-0.324-1.092-0.45
	c-2.064-0.635-4.379,0.714-4.386,2.555c0,0.868,0.506,1.204,0.792,0.522c0.664-1.584,2.11-2.2,3.595-1.532
	c1.372,0.617,2.001,2.018,1.464,3.267c-0.562,1.309-2.445,1.693-2.233,0.457c0.103-0.589-0.255-0.949-0.884-0.891
	c-0.238,0.022-0.544,0.719-0.461,1.054c0.076,0.313,0.021,0.389-0.785,1.021c-1.915,1.505-0.441,3.96,1.949,3.248
	c0.402-0.119,0.552-0.108,0.911,0.066c0.865,0.419,1.773,0.158,1.776-0.512c0-0.46-0.205-0.637-0.746-0.639
	c-0.819-0.003-0.643-0.937,0.266-1.394c2.275-1.145,4.6,1.746,3.214,3.999c-0.595,0.968-0.972,1.068-3.099,0.833
	c-0.343-0.038-0.498,0.198-0.294,0.479c0.63,0.898,2.501,1.183,3.592,0.686c1.177-0.537,1.895-1.891,1.978-3.335l2.404,4.228
	c-1.87-1.969-5.097-1.216-5.615,1.604c0,0.715,0.645,1.087,0.869,0.499c0.973-2.545,4.67-1.765,4.659,0.983
	c0,0.442-0.088,0.692-0.369,1.08c-0.679,1.318-2.413,1.644-2.099,0.461c0.14-0.366-0.139-0.764-0.615-0.879
	c-0.47-0.113-0.77,0.282-0.758,1.002c0.009,0.539,0.014,0.704,0.014,0.704c-0.865,0.367-1.418,1.086-1.609,2.15l-16.834,0.038
	c2.002-11.749,1.531-22.358-2.295-32.392c-0.33-0.87-0.806-2.135-0.806-2.135l2.971,0.079c0.717,0.626,3.426,0.383,4.483-0.584
	L48.271,192.798z M51.129,197.411l1.739,3.146c-0.72-0.415-1.452-0.69-2.572-0.786C50.881,198.897,50.928,198.115,51.129,197.411z
	 M46.559,200.754c0.634,0,1.146,0.516,1.146,1.153s-0.513,1.154-1.146,1.154c-0.633,0-1.148-0.517-1.148-1.154
	S45.926,200.754,46.559,200.754z M58.546,210.148l1.675,3.001c-0.814-0.35-1.503-0.69-2.775-0.724
	C57.908,211.881,58.309,210.966,58.546,210.148z M53.718,213.362c0.601,0,1.088,0.491,1.088,1.096s-0.487,1.092-1.088,1.092
	s-1.085-0.487-1.085-1.092S53.117,213.362,53.718,213.362z M65.85,222.717l2.472,4.416c-0.972-0.561-2.019-1.271-3.332-1.135
	C65.614,224.653,65.955,223.92,65.85,222.717z M62.561,228.226l-2.652,0.01C60.438,225.9,62.582,226.508,62.561,228.226z
	 M65.069,227.101c0.901,0.046,1.68,0.356,2.167,1.148l-3.337,0.009C63.899,228.258,63.923,227.097,65.069,227.101z"/>
<path fill="#D40000" d="M48.686,64.771c0,0-3.717-6.105-8.73-13.282c-3.354-4.804-6.034-10.005-6.283-14.484
	c-0.286-5.117,2.42-10.252,7.32-10.5c4.896-0.249,6.884,3.945,7.693,7.403c0.809-3.458,2.797-7.652,7.693-7.403
	c4.899,0.248,7.606,5.383,7.32,10.5c-0.249,4.479-2.931,9.681-6.284,14.484C52.401,58.666,48.686,64.771,48.686,64.771z"/>
<path fill="#D40000" d="M131.142,184.724c0,0-3.716,6.104-8.729,13.282c-3.354,4.804-6.035,10.004-6.284,14.484
	c-0.286,5.117,2.421,10.251,7.32,10.5c4.896,0.249,6.884-3.945,7.693-7.404c0.81,3.459,2.797,7.653,7.693,7.404
	c4.9-0.249,7.606-5.383,7.32-10.5c-0.249-4.48-2.931-9.681-6.284-14.484C134.858,190.828,131.142,184.724,131.142,184.724z"/>
</svg>
