<?xml version="1.0" encoding="utf-8"?>
<!-- Generator: Adobe Illustrator 16.0.0, SVG Export Plug-In . SVG Version: 6.00 Build 0)  -->
<!DOCTYPE svg PUBLIC "-//W3C//DTD SVG 1.1//EN" "http://www.w3.org/Graphics/SVG/1.1/DTD/svg11.dtd">
<svg version="1.1" id="Layer_1" xmlns="http://www.w3.org/2000/svg" xmlns:xlink="http://www.w3.org/1999/xlink" x="0px" y="0px"
	 width="178.58px" height="249.45px" viewBox="0 0 178.58 249.45" enable-background="new 0 0 178.58 249.45" xml:space="preserve">
<path fill="#FFFFFF" d="M9.524,0.871h160.778c4.696,0,8.504,3.808,8.504,8.504v231.644c0,4.696-3.808,8.504-8.504,8.504H9.524
	c-4.696,0-8.504-3.808-8.504-8.504V9.375C1.021,4.679,4.828,0.871,9.524,0.871z"/>
<path fill="none" stroke="#000000" stroke-width="0.9967" d="M9.524,0.871h160.778c4.696,0,8.504,3.808,8.504,8.504v231.644
	c0,4.696-3.808,8.504-8.504,8.504H9.524c-4.696,0-8.504-3.808-8.504-8.504V9.375C1.021,4.679,4.828,0.871,9.524,0.871z"/>
<path d="M14.733,40.722C11.3,45.094,7.627,47.609,7.565,51.02c-0.021,1.104,0.648,2.982,2.743,3.341
	c1.359,0.232,3.229-0.75,3.269-2.745c-0.008-0.397,0.472-0.387,0.467,0.157c-0.063,1.574-0.622,3.406-1.56,4.898
	c1.499,0,2.998,0,4.497,0c-0.938-1.492-1.495-3.324-1.56-4.898c-0.008-0.544,0.473-0.555,0.467-0.157
	c0.039,1.995,1.91,2.978,3.269,2.745c2.095-0.358,2.764-2.236,2.743-3.341C21.839,47.609,18.166,45.094,14.733,40.722z"/>
<path d="M165.095,209.672c-3.434-4.372-7.106-6.888-7.168-10.298c-0.021-1.104,0.648-2.981,2.743-3.341
	c1.359-0.232,3.23,0.75,3.27,2.745c-0.009,0.397,0.471,0.387,0.466-0.157c-0.063-1.574-0.622-3.406-1.56-4.898
	c1.499,0,2.998,0,4.497,0c-0.938,1.492-1.495,3.324-1.56,4.898c-0.008,0.544,0.473,0.555,0.467,0.157
	c0.039-1.995,1.91-2.978,3.269-2.745c2.095,0.359,2.764,2.236,2.743,3.341C172.2,202.784,168.527,205.3,165.095,209.672
	L165.095,209.672z"/>
<path d="M8.943,29.514H6.746v-2.998h2.197c0,0,0.017-1.615,0.08-4.465c0.136-6.075,0.287-7.018,2.043-8.689
	c3.469-3.304,9.276-0.612,9.208,4.356c-0.101,7.012-0.028,13.697-0.232,14.645c-0.364,1.668-0.4,1.762-0.252,2.066
	c0.304,0.612,2.928,0.877,2.928,0.706v2.953c-2.004,0.155-2.837-0.033-4.44-1.179c-1,0.967-4.047,1.938-6.471,0.796
	C9.963,36.836,8.566,34.592,8.943,29.514z M16.367,34.747c-1.089-1.574-2.921-3.724-4.645-4.487
	c-0.107,1.812,0.049,3.329,0.685,4.146C13.418,35.706,15.054,36.004,16.367,34.747L16.367,34.747z M17.27,17.428
	c-0.808-2.291-2.883-3.068-4.399-1.635c-0.948,0.892-1.101,1.831-1.12,6.93c-0.013,3.146-0.013,4.468-0.013,4.468
	c2.952,0.958,5.712,4.404,5.688,4.359l0.072-9.512C17.556,20.494,17.479,18.949,17.27,17.428L17.27,17.428z"/>
<path d="M170.882,220.88h2.196v2.998h-2.196c0,0-0.017,1.615-0.08,4.466c-0.136,6.074-0.287,7.017-2.044,8.688
	c-3.468,3.304-9.275,0.612-9.207-4.356c0.101-7.012,0.028-13.697,0.232-14.645c0.363-1.668,0.4-1.762,0.252-2.066
	c-0.304-0.612-2.928-0.877-2.928-0.706v-2.953c2.004-0.155,2.837,0.033,4.44,1.179c1-0.967,4.048-1.938,6.471-0.795
	C169.862,213.558,171.259,215.802,170.882,220.88z M163.458,215.646c1.089,1.574,2.921,3.724,4.644,4.486
	c0.108-1.811-0.049-3.328-0.684-4.146C166.406,214.688,164.771,214.39,163.458,215.646z M162.555,232.966
	c0.809,2.291,2.884,3.068,4.4,1.635c0.948-0.892,1.1-1.831,1.12-6.93c0.012-3.146,0.012-4.468,0.012-4.468
	c-2.952-0.958-5.712-4.404-5.688-4.359l-0.072,9.512C162.27,229.899,162.346,231.444,162.555,232.966z"/>
<path fill="#E2CF00" d="M82.318,229.075l18.695-34.161c0,0.008,4.459,1.762,9.738,3.136c-5.066,13.242-0.036,30.71-0.036,30.71
	L82.318,229.075z M31.086,170.74c-1.061-14.507,0.613-26.81,1.287-40.133c0.044-0.186-6.072-3.981-6.072-3.981l14.375-8.122
	c1.432,0.745,2.254,0.615,2.593-0.764c-1.45-4.941-1.734-9.727,1.587-13.819c2.488-2.991,8.169-1.453,9.822-1.46
	c1.286-0.006,4.348-10.207-0.83-13.215c-1.097-0.637-1.616,5.954-2.364,8.726c-3.331-1.951-9.49-3.595-10.313-7.037
	c-0.421-1.906,5.629-5.576,4.44-7.727c-1.73-3.131-6.199-7.814-8.113-6.529c-1.809,1.639-6.121,4.986-6.093,7.276
	c1.347,4.107,4.772,4.394,6.572,8.278c0.448,0.84,3.759,4.369,3.759,4.369c-1.242,1.905,0.769,5.236,0.862,4.727l-15.682-6.852
	c0,0,3.595,27.124-0.201,31.139c-0.402,0.425,3.358-1.063,3.422-0.832c1.143,1.45,13.808,9.526,17.433,12.429
	c6.438-9.004,8.789-12.966,17.087-20.955c1.82-1.509,5.881-4.267,8.202-7.579c1.865-2.661,2.639-5.659,2.304-7.985
	c-0.433-3.01-0.7-5.068-2.552-7.467c-4.278-5.539-11.083-10.823-10.963-10.92l2.325-1.896c0,0,8.393,6.959,11.946,12.078
	c2.395,3.448,1.32,7.402,3.386,8.11c0.496,0.17,3.888-0.113,5.001,0.101c0.135,0.026,24.689,17.404,20.237,18.407
	c-6.163,1.388-15.991,0.482-15.991,0.482c-7.016-6.868-10.403-9.127-14.585-6.975c0,0-10.597,9.296-16.712,16.573
	c-3.485,4.148-9.011,12.82-9.011,12.82c-0.411-0.181-12.543-9.798-12.037-8.72c0,0,2.909,26.341,1.615,35.98
	c-0.888,8.188-2.104,16.981-2.646,24.533c1.721-0.375,4.26-0.864,4.74,1.768c0.42,3.595-4.196,2.761-4.304,2.449l2.576,5.546
	c0,0-3.998,6.916-3.887,6.615c0.068-0.187-3.634-6.14-3.634-6.14s2.748-4.998,3.162-6.011c0.282-0.692-4.207,1.824-4.383-1.824
	c-0.182-3.752,4.685-2.857,4.433-2.383C33.279,185.798,31.937,177.501,31.086,170.74L31.086,170.74z M91.204,188.793
	c0.11-0.083-10.611-4.314-20.46-3.915c-3.47-1.354-9.129-2.772-12.906-0.247c-4.248-2.885-7.915-6.06-11.641-9.205
	c1.043-0.014,5.531-25.853,7.508-34.006c-1.141-10.908,9.342-10.9,10.252-2.163c11.291,11.707,25.117,23.815,39.369,35.729
	C101.059,179.7,92.875,183.295,91.204,188.793z M115.893,111.622c-12.874-13.16-39.816-36.687-39.816-36.687l12.612-12.342
	c6.62,1.979,13.423,3.632,21.114,3.709c0.03,0.03,8.428,3.831,12.902-0.01l11.643,9.249c0,0-4.828,25.464-7.664,34.352
	c0.061,3.52-1.268,7.808-4.736,8.444C118.986,118.882,116.709,114.672,115.893,111.622z M141.912,81.137
	c1.343-8.277,1.619-14.303,2.552-23.961c-5.807,1.706-5.729-6.142-0.024-4.077l-2.644-5.842l3.915-6.58l3.594,6.249l-3.095,5.539
	c6.433,0.317,4.881,6.304-0.658,4.858c1.044,9.252,3.344,18.598,3.232,27.744c1.991,14.669-2.449,35.08-1.714,35.563l6.273,4.326
	l-1.072,31.914l-9.906-4.353l-2.948,1.993c0.946,1.879,2.15,3.68,2.557,5.72c0,0,6.822,5.626,5.876,7.379
	c0.439,0.259-4.855,7.284-6.409,7.108c-2.962-0.335-6.396-4.178-7.386-6.904c-0.836-2.749,6.125-5.443,5.247-7.455
	c-1.05-2.405-3.702-3.563-6.053-4.27c-3.241-0.975-4.724-3.547-4.873-3.547c0,0-1.259,10.2-2.472,9.385
	c-4.879-3.281-1.542-13.689-0.637-13.399c0,0,2.13,0.491,4.646,0.728c8.868,0.932,8.268-9.998,6.549-15.289
	c-0.614-2.069,2.015-1.405,3.133-1.719c4.306-1.272,10.966-5.728,10.966-5.728c-6.931-3.854-13.049-8.251-18.537-12.42
	c0,0-5.095,8.716-11.134,14.763c-4.396,4.4-5.111,5.899-12.47,11.566c-0.143,0.11-5.575,6.622-2.989,14.226
	c2.215,6.507,12.854,13.551,12.776,14.021l-2.095,2.007c0.085,0.116-15.063-9.42-14.709-19.677
	c-0.018-0.388-6.884-0.521-6.884-0.521L74.562,131.94l16.907-0.072l8.681,7.107l5.425,0.282c0.354,0.313,0.551-1.437,5.328-5.009
	c9.127-6.825,20.437-24.352,20.437-24.352l11.971,8.433C142.711,105.668,140.675,92.051,141.912,81.137z M98.373,21.296
	c0,0-12.427,23.398-19.24,34.421l-9.653-2.775c4.045-10.761,0.172-31.271-0.846-31.787L98.373,21.296z"/>
<path fill="#131F67" d="M24.606,19.935v210.524h130.614V19.935H24.606z M114.895,172.63c6.188-5.765,12.309-10.523,18.031-13.982
	c2.219-1.342,2.893-1.538,3.765-0.742c1.422,1.297,2.308,2.426,1.843,3.334c-0.104,0.205-0.439,0.545-0.439,0.545l-3.419-1.304
	l1.108,3.889c-3.076,1.256-3.021,4.593-0.053,6.361l-2.042,4.713l4.748-2.096c0.183,1.027,3.568,3.512,5.675,0.001l4.288,2.099
	l-1.478-5.265c1.407-1.346,2.229-3.495,0.014-5.477l1.02-4.124l-3.873,1.264c-0.97-1.33-1.533-1.238-1.756-1.602
	c-0.066-0.495-0.078-1.65-0.723-2.714c-0.532-0.881-1.142-1.815-1.711-2.47c-0.302-0.512-0.061-0.556,1.486-1.394
	c0.727-0.395,1.326-0.793,1.326-0.793s7.577,3.834,10.687,5.294v70.539h-41.583c-4.701-14.072-1.324-26.297-0.078-31.416
	c-2.192-0.184-13.498-3.855-13.837-5.119C102.373,185.037,108.451,178.554,114.895,172.63z M33.551,193.171
	c-5.452-1.767-5.508,4.818-2.722,5.329c0.723,0.132,1.477,0.24,2.606-0.125c0.28,0.059-3.267,5.52-3.267,5.52s2.84,5.172,4.2,7.37
	l4.293-7.639l-2.807-5.287c4.395,2.247,6.67-4.442,2.056-5.317c-1.115-0.152-2.347,0.406-2.347,0.406l2.426-22.882
	c1.957,1.333,5.525,4.007,5.525,4.007c0.813,12.606,0.217,23.113,7.245,41.454l0.072,12.7h-24.48v-66.566l4.48,3.03
	c0.09,0.376-0.673,0.124-0.262,4.761C30.943,174.121,32.215,181.384,33.551,193.171z M120.188,21.891
	c0.191,0.273,0.178,0.692,0.344,1.247c0.977,3.264,4.371,7.183,7.077,8.212c0.947,0.36,1.315,0.908,0.769,1.457
	c-0.691,0.693-3.543-1.202-5.648-3.661c-1.912-2.232-3.188-4.08-3.47-5.482c-0.167-0.832-0.251-1.367-0.128-1.8
	C119.48,21.378,119.915,21.513,120.188,21.891z M123.561,21.538c0.357-0.002,0.839,0.421,1.128,1.189
	c0.694,1.848,1.783,3.229,3.487,4.424c0.451,0.316,0.631,0.791,0.401,1.069c-0.085,0.103-0.196,0.152-0.321,0.188
	c-1.328,0.372-4.826-3.686-5.104-6.205C123.091,21.656,123.282,21.539,123.561,21.538z M127.913,21.588
	c0.706-0.003,1.045,1.476,0.636,2.25c-0.267,0.244-0.853-0.133-1.373-1.104C126.729,21.9,126.908,21.593,127.913,21.588z
	 M125.546,21.611c0.158-0.005,0.485-0.089,0.651,0.142c0.272,1.528,1.421,2.634,2.337,3.519c0.154,0.29,0.226,0.896-0.11,1.055
	c-0.803,0.356-3.221-2.399-3.237-3.994C125.179,21.853,125.328,21.618,125.546,21.611z M122.479,22.58
	c0.847,2.789,2.899,5.063,4.736,6.244c1.314,0.839,1.821,1.315,1.212,1.743c-0.151,0.106-0.304,0.188-0.34,0.183
	c-3.076-1.178-6.857-5.646-6.984-8.808C121.772,21.082,122.363,22.045,122.479,22.58z M111.832,34.686
	c-1.618,0.002-3.6,0.371-5.208,1.104c-2.239,1.02-2.8,1.696-2.474,1.942c0.234,0.172,1.676-0.448,2.398-0.542
	c3.898-0.968,6.581-1.205,9.121-0.095c1.965,0.859,1.977,0.465,0.658-0.965C115.371,35.093,113.666,34.684,111.832,34.686z
	 M125.573,36.829c1.29-0.014,2.607,0.289,3.075,0.893c0.364,1.952-0.607,1.06-1.391,0.67c-1.132-0.523-2.428-0.976-3.638-0.789
	c-0.777,0.119-0.8,0.08-0.358-0.17C123.926,37.027,124.867,36.839,125.573,36.829z M110.293,37.589
	c-3.688,0.287-4.965,2.157-7.346,4.086c-0.978,0.746-0.755,1.323,0.437,1.128c1.472-0.242,2.064-0.184,4.071,0.503
	c2.19,0.751,3.76,1.062,4.964,0.598c2.276-0.878,2.081-0.731-1.174,2.43c-1.741,1.402-1.038,1.329,0.726,0.114
	c1.304-1.044,2.2-1.71,2.473-2.282c0.132-0.278,0.144-1.275,0.389-1.275c0.828,0.001,0.401-1.035-0.351-1.476
	c-0.495-0.354-0.384-0.723,0.256-1.402c1.005-1.06,0.663-1.539-0.428-0.879c-0.192,0.104-0.286-0.219-0.952-0.622
	C112.303,37.873,111.416,37.576,110.293,37.589z M112.95,38.977c0.892,0.753,0.51,0.961-1.435,0.942
	c-1.645-0.016-3.043,0.157-4.996,0.807c-2.217,0.737-2.352,0.756-1.05-0.356C107.261,38.838,110.9,37.302,112.95,38.977z
	 M124.468,38.328c0.895-0.02,1.649,0.107,2.331,0.484c1.857,1.026,2.271,1.917,0.203,1.191c-1.298-0.456-3.05-0.392-4.26-0.055
	c-1.251,0.348-1.467,0.469-1.297-0.207C121.652,38.913,122.978,38.359,124.468,38.328z M109.861,41.357
	c0.44,2.213,2.113,1.49,2.279,0.154l0.611,0.002c-0.26,1.777-2.672,3.264-3.609-0.156C109.34,41.352,110.216,41.413,109.861,41.357z
	 M123.21,41.395l0.454-0.014c0.299,1.696,1.871,2.251,2.555,0.129l0.549,0.012C126.348,45.061,122.612,43.337,123.21,41.395z
	 M108.58,41.561c0.303,0.106,0.439,0.937,0.389,1.155c-0.105,0.453-1.582-0.029-1.895-0.473
	C107.383,41.914,108.111,41.395,108.58,41.561z M128.678,41.938v0.619c-0.683,0.164-0.966,0.549-1.604,0.423
	c0.036-0.396-0.03-0.94,0.34-1.402c0.465-0.246,1.018,0.056,1.268,0.36H128.678z M113.793,42.653
	c-0.309,0.245-0.734,0.271-0.734,0.271c-0.066-0.593-0.166-1.261,0.572-1.266C114.115,41.801,114.081,42.402,113.793,42.653z
	 M122.305,41.67c0.26,0.019,0.563,0.665,0.6,1.042c-0.076,0.619-1.596,0.372-1.596-0.243
	C121.309,42.208,121.943,41.671,122.305,41.67z M108.402,65.106c-1.173-0.589-10.066-6.009-12.344-15.595l-0.453,0.98
	c0.966,2.295,2.391,6.022,2.391,6.022c-0.06-0.321,0.363,2.497,1.27,7.282c-0.481,0.006-1.013-0.132-1.535-0.271
	c-1.173-4.381-1.45-7.814-2.436-12.102l-0.429,1.197c0,0,1.239,7.691,2.078,10.699c-0.479-0.046-1.363-0.244-1.363-0.244
	c-0.699-3.244-1.239-5.42-1.897-8.674l-0.605,0.787c0.869,2.67,1.208,5.058,1.646,7.615c-0.597-0.09-1.197-0.147-1.766-0.465
	c0,0-0.897-4.666-1.016-4.734c-0.343,0.346-0.483,0.791-0.483,0.791c-0.035-0.042,0.778,2.586,0.721,3.669
	c-0.571-0.095-1.563-0.381-2.26-0.616c-0.366,0.244-0.557,0.649-0.837,1.015c0.344,1.485,20.748,4.699,19.524,3.471
	c-0.008,0.129,8.997,3.953,14.022,0.703c0,0,8.739,6.501,12.153,9.098c0,0.296,1.183,1.673,2.414,2.549l3.46,2.673
	c1.006,0.783,1.407,0.217,1.561-1.259c0.17-1.643,1.36-12.716,1.638-15.076c1.039-7.954,1.038-7.87-0.166-7.504
	c-1.842,0.56-3.499-0.167-3.499-2.057c0-1.156,0.533-2.113,1.761-2.561c0.349-0.12,0.803-0.13,1.324-0.12
	c0.238,0.043,0.68,0.072,0.727,0.081c0.586-0.033-2.271-5.222-2.271-5.222s2.729-4.88,4.043-6.697l3.534,6.422l-2.895,5.666
	c5.637-0.425,5.084,6.681-0.433,4.302c0,0-0.032,2.11-0.021,1.956c0.054-0.604,0.045-1.12,0.235-1.233
	c5.345,2.031,6.434-5.786,0.674-5.426c0.948-1.657,2.004-3.371,2.989-5.197l-4.164-7.614l-4.705,7.85l2.368,4.9
	c-0.532-0.139-0.96-0.055-1.529,0.004c-3.487,0.716-2.737,6.344,1.247,5.57c0.455-0.089,1.14-0.434,1.14-0.434l-2.572,22.988
	c0,0-0.254,0.206-1.286-0.54c-1.192-0.861-3.689-2.733-3.849-2.926c0.893-14.696-2.772-30.159-6.957-39.841
	c-0.266-0.742-0.108-15.323-0.108-15.323h23.949v67.778c-1.241-0.788-2.715-1.825-3.99-2.728c-0.383-0.311-0.62-0.679-0.456-1.271
	c-0.42,0.9-0.166,1.286-0.166,1.286l5.24,4.199l-0.209,66.642c0,0-8.459-4.373-13.666-6.482c-2.35-0.962-2.455-0.685-2.455-0.685
	c0.008-0.004,1.66,3.737,1.188,4.412c1.12,1.079,3.001,3.339,3.093,5.55c1.002,0.87,1.284,0.979,2.036,2.232l3.143-1.14
	l-0.714,3.284c3.343,2.348,0.124,5.505-0.494,5.214c0,0,1.475,3.174,1.811,4.618c-0.527-0.036-3.175-1.476-3.912-1.816
	c-1.918,3.786-5.156,0.608-5.183,0.051l-3.593,1.604l1.272-4.103c-2.313-1.411-3.877-3.545-0.136-5.843l-0.864-3.199l3.077,1.212
	c0,0,0.573-0.925,1.01-1.6c-1.15-5.025-8.717-4.075-11.147-8.596c0,0-0.597,5.644-1.209,7.686c-0.239,5.396-4.009-0.063-4.009-5.772
	c0-1.289,1.616-5.627,2.163-5.837c0.568-0.08,5.97,2.539,9.597-0.063c1.651-1.723,4.5-6.569,1.764-14.156
	c-0.905-1.754,1.721-1.976,2.574-1.384c0,0,7.893-4.141,11.456-6.136c-5.978-3.294-18.407-12.06-18.398-12.476
	c-1.658,2.641-3.558,4.854-6.228,8.589c-4.328,5.111-7.711,9.969-13.204,14.054c-7.724,5.641-9.538,11.319-7.384,17.985
	c0.872,2.881,2.627,5.803,5.502,6.814c1.463,1.482,7.338,7.063,7.338,7.063c-9.809,8.958-16.543,16.325-21.266,24.467
	c3.986,2.103,13.601,5.147,13.601,5.147c-3.571,11.904-1.944,21.36,0.408,30.852c0,0-27.908,0.036-42.39-0.42
	c-0.124,0.122-1.691,0.038-1.712-0.062c-0.057-1.062,2.608-3.979,3.406-3.572c0.401-0.396,1.249-0.598,1.097-1.084
	c-1.998-0.239-5.029,3.224-5.149,4.656h-1.191c-0.244-0.214,2.163-5.85,6.985-6.299c-0.05,0.202,0.647-0.438,0.124-0.713
	c-5.622,0.668-8.241,6.926-8.075,7.012h-0.869c1.912-6.154,6.891-8.097,9.771-8.363c0.027-0.013,0.934-0.329,0.69-0.868
	c-6.366,1.109-9.541,3.873-11.071,9.231H61.45c0.828-5.436,6.401-10.196,12.702-10.041c0.197-0.125,0.438-0.273,0.336-0.891
	c-6.992,0.79-10.479,3.13-13.352,9.153c-2.568-6.689-9.709-9.863-9.794-9.891c0,0-0.173-1.873,0.226-1.796
	c6.092,2.213,8.418-3.093,8.163-6.176c-0.142-1.715-0.046-2.66-0.618-5.132c-0.51-2.205-0.887-3.69-0.847-4.647
	c0.04-0.947,0.336-1.139,1.033-1.456c1.306-0.594,2.124-2.744,1.833-3.007c-0.671,1.563-2.444,1.833-3.262,2.885
	c-0.652,0.865-0.364,2.243,0.797,7.027c0.708,2.915-0.131,1.575-1.783,0.662l-1.104-0.626c0.74,0.763,1.522,1.482,2.276,2.229
	c0.675,0.619,0.297,1.002-0.671,0.644c-1.394-0.698-4.079-0.405-5.108,0.473c-0.401,0.286-0.544,0.257-0.645-0.007
	c-0.45-7.431,0.328-12.002,2.782-17.586c1.586-3.796,3.947-6.639,7.099-6.841c3.174-0.264,7.737,0.852,11.883,3.676
	c4.868,3.316,9.612,8.359,10.117,14.547c0.019,0.071,0.374-0.528,0.535-0.847c0.223-0.735-0.59-2.944-1.858-5.505
	c-0.234-1.927-0.895-5.304-1.414-7.589c0.395-0.18,1.236-0.079,1.473,0.209c0.891,3.777,1.525,6.72,2.29,11.78
	c0.011,0.493,0.643-0.732,0.645-1.058c-0.109-0.755-2.212-10.657-2.17-10.432c0.012-0.337,1.995,0.106,1.723,0.418
	c0,0,1.507,8.308,1.614,8.05l0.51-0.705c0,0-1.439-6.066-1.26-7.236c0.123-0.179,1.238,0.184,1.592,0.376
	c0.443,0.597,0.728,2.762,0.915,4.238c0.513,0.393,0.614-0.742,0.575-1.042c-0.369-0.588-0.76-2.781-0.467-2.894
	c0.23-0.089,1.508,0.42,1.753,0.639c0.288,0.258,1.402-1.289,1.12-1.557c-6.028-2.316-13.633-3.667-19.355-3.759
	c-1.33,0.006-1.857-0.183-3.896-0.921c-5.194-1.881-9.488-0.008-10.118,0.587c-6.342-4.42-13.421-10.593-19.057-14.532
	c-0.265-0.176-0.897-0.28-0.966-0.28c-0.895,6.857-1.52,14.791-2.281,21.119c-0.311,2.506-0.347,2.701-0.232,2.772
	c0.1,0.062,0.295-0.039,0.372-0.079c1.854-0.685,3.53-0.239,4.419,1.441c0.445,2.403-1.649,3.984-3.858,2.843
	c-0.82-0.423-0.938-0.34-0.563,0.461c0.646,1.443,2.51,5.242,2.51,5.242c0,0.001-2.519,5.155-3.793,6.558
	c-1.241-2.013-2.826-4.047-3.514-6.244c0.976-1.916,2.82-4.384,3.402-6.271c-0.083-0.061-0.585-0.009-0.935,0.174
	c-3.224,1.529-3.741-1.351-3.698-2.386c0.087-2.104,1.915-2.552,4.568-1.571c-2.868-19.118-3.48-30.012-2.748-28.832
	c0,0-3.465-2.485-5.188-4.171l0.195-139.17h41.111c4.226,11.365,3.063,25.033,0.536,32.15c4.487,0.823,9.02,1.886,14.141,4.835
	C73.49,71.375,59.909,85.124,45.199,93.928c-0.834,0.377-3.573-1.337-3.895-3.029c-0.074-0.394,0.143-1.169,0.584-1.154
	c1.08,0.352,2.128,0.835,3.183,1.267c0,0-1.47-3.7-0.761-4.262c0.462-0.304,0.84-0.558,1.136-0.871
	c1.056-1.367,0.972-2.921-0.146-4.112c-0.45-0.474-0.976-0.8-1.238-0.92c0,0,1.036-2.887,1.557-4.247l-4.081,1.354
	c-1.322-1.837-3.752-3.267-5.549-0.531c-0.342,0.729-0.271,0.618-2.798-0.504c-1.433-0.636-2.315-0.961-2.315-0.961
	c0.537,1.604,1.24,3.11,1.854,4.968c-2.813,1.798-2.171,4.831,0.196,5.735l-1.247,4.097c0,0,2.659-0.994,4.1-1.38
	c0,0,1.265,1.273,1.639,2.484c0.644,2.075,2.104,3.58,3.026,4.438c-1.538,1.131-2.298,1.512-4.029,2.347l5.979,2.423
	c-0.372-1.269-1.163-2.209-1.243-3.813c-0.071-1.374-0.148-1.399-1.034-2.329c-1.628-1.423-1.8-3.111-2.347-4.227
	c-0.746-0.441-1.225-1.143-1.576-1.882c-0.393-0.827-2.965,1.111-3.354,0.744c-0.478-0.511,0.827-3.127,0.683-3.388
	c-1.05-0.09-3.989-2.389-0.488-4.948l-1.116-4.164c0,0,2.665,1.169,3.942,1.823c0.888-4.161,4.935-2.166,5.589-0.372
	c0,0,3.207-1.058,3.009-0.199c-0.089,0.771-0.61,2.693-0.61,2.693c2.885,2.562,2.287,3.818-0.057,5.498
	c-0.035,1.358,0.533,3.469,0.533,3.469s-1.632-0.727-2.707-1.032c-0.43,0.432-0.918,1.211-0.837,1.613
	c0.729,3.237,4.71,4.139,10.606,7.447c0.203-2.092,1.642-4.95,1.805-7.461c0.102-1.83,0.164-1.858,1.448-1.273
	c3.379,2.447,2.348,9.175,1.116,11.935c-0.729,1.563-0.85,1.522-2.268,1.069c-1.963-0.628-5.436-0.375-7.345,0.274
	c-2.642,1.085-3.888,6.994-3.916,8.79c-0.047,1.705,0.085,3.397,0.977,5.505c0.37,1.348-0.31,2.387-1.521,2.025
	c-0.272-0.081-0.919-0.329-0.919-0.329l-11.4,5.915l2.147,1.268c0,0-1.583-0.948-0.602-1.462l9.774-5.116
	c1.821,0.713,1.577,0.858,2.758-0.376c0.707-0.729,1.053-0.744,2-0.653c5.763,0.555,8.315-0.287,9.312-2.709
	c0.149-0.363,0.093-0.351,0.681-0.649c1.091-0.425,1.604-1.194,1.658-2.159c0.036-0.633,0.311-0.72,0.791-1.162
	c0.896-0.825,1.078-1.86,0.514-2.925c-0.266-0.5-0.469-0.658-0.358-1.178c0.185-0.87-0.136-1.775-0.97-2.734
	c-0.959-1.104-0.953-0.917,0.854-2.605c3.549-3.383,6.676-5.974,10.128-9.035c2.361-2.095,2.106-1.944,3.025-0.986
	c3.383,3.528,4.71,9.029,3.187,13.866c-0.071,0.228-0.104,0.201,0.074,0c0.956-1.088,0.983-6.563,0.166-8.991
	c-0.997-2.983-1.963-4.536-5.26-7.458c-2.059-1.864-7.659-7.245-7.659-7.245c8.148-7.088,16.926-15.898,21.847-23.999
	c-2.525-2.717-14.234-5.222-14.234-5.222c1.458-3.033,4.341-16.657-0.595-31.764c14.49,0.67,29.087-0.394,43.561,0.589
	c0,0,0.226-0.086,0.346-0.117c0.403-0.106,0.604,0.179,0.507,0.631c-0.311,1.153-1.997,3.853-3.188,3.63
	c-0.53-0.207-0.381,0.816-0.618,1.242c1.876-0.244,4.076-2.629,4.628-4.992c0.302-0.496,0.498-0.58,0.799-0.484
	c0.347,0.11,0.26,0.441-0.115,1.585c-1.176,2.858-3.558,5.515-6.326,5.25l-0.359,0.975c3.736-0.061,6.625-3.573,7.479-6.202
	c0.596-1.562,0.619-1.773,1.219-1.623c0.495,0.46,0.188,1.121,0.02,1.664c-1.878,6.02-7.037,7.628-9.605,7.366
	c-0.31-0.039-0.363,0.252-0.271,0.747c5.519,0.366,9.914-4.402,10.536-8.494c0.302-1.137,0.826-1.524,1.129-1.006
	c0.171,0.458,0.113,0.926,0.029,1.362c-1.508,6.459-8.373,10.127-12.567,9.079c-0.194-0.182-0.511,0.711-0.054,1.03
	c8.469-0.32,11.082-4.704,13.014-8.576c2.305,3.485,4.188,7.08,9.709,9.192c0,0,0.551,1.217,0.116,1.489
	c-0.229,0.144-0.578,0.077-1.085-0.006c-6.729-1.09-8.955,5.219-6.09,14.643c0.783,2.581,0.433,2.186-1.244,3.801
	c-0.799,0.77-1.18,2.134-0.969,2.165c0.287-0.162,0.381-0.604,1.08-1.186c0.305-0.253,0.93-0.494,1.391-0.813
	c1.245-0.724,1.234-1.22,0.787-2.931c-0.332-1.273-1.179-5.145-1.18-5.537c0-0.742,0.173-0.664,1.098,0.001
	c1.292,0.96,2.024,0.892,0.461-0.339c-0.604-0.477-0.998-0.848-1.181-1.115c-0.249-0.364-0.095-0.599,0.409-0.44
	c2.318,0.729,4.31,0.676,6.561-0.698c0.257,6.217-0.596,15.649-5.789,22.395C118.851,69.918,111.224,66.523,108.402,65.106
	L108.402,65.106z M114.504,50.819c-0.154,0.008-0.711,0.123-1.055,0.32c-1.529,0.878-1.164,3.995,0.506,4.41
	c0.671,0.167,1.28,0.258,2.409-0.282c0.672-0.321,1.612-0.573,1.877-0.463c0.554,0.232,0.729-0.259,0.848-0.813
	c0.265-1.239-1.761-1.269-3.373,0.012c-2.034,1.616-3.593-0.769-1.677-2.564C114.678,51.026,114.659,50.813,114.504,50.819z
	 M98.704,57.488l1.708,1.98l1.073,4.719c-0.651,0.111-1.44-0.251-1.44-0.251C99.512,61.801,98.992,59.664,98.704,57.488z
	 M121.969,58.676l-0.057,0.016c-0.072,0.031-0.391,0.175-0.831,0.225c-0.254,0.028-0.638-0.152-0.911-0.136
	c-0.748,0.046-1.447,0.268-1.634,0.345c-0.229,0.096-0.456,0.136-0.652,0.02c-0.558-0.33-2.183-0.236-2.677,0.054
	c-0.585,0.25-1.242,0.253-1.723,0.004c-0.207-0.106-0.418-0.378-0.455-0.341c-0.076,0.077-0.389,1.413-0.482,1.93
	c0,0.182-0.126,0.484-0.051,0.515c0.096,0.039,0.401-0.24,0.779-0.434c0.776-0.397,1.645-0.366,3.168,0.008
	c1.88,0.462,2.611,0.328,3.723-0.24c0.883-0.452,1.42-0.561,2.008-0.398c0.145,0.04,0.53,0.24,0.583,0.189
	c0.104-0.1-0.181-0.659-0.425-1.212C122.156,58.818,122.091,58.661,121.969,58.676z M101.681,60.806
	c1.651,1.569,1.527,1.435,2.57,2.211l-0.05,1.513c0,0-1.277,0.028-1.904-0.167C102.099,63.773,101.24,60.82,101.681,60.806
	L101.681,60.806z M115.268,61.821c0.111,0.077,0.273,0.158,0.498,0.235c2.629,0.988-0.121,0.739-0.383,1.682
	c0,0.084,0.119,0.098,0.249,0.047c0.902-0.355,3.106-0.586,4.108-0.392c1.302,0.44,1.383,0.137,0.132-0.519
	c-0.915-0.362,0.194-0.608,0.568-0.925c0.776-0.5,0.242-0.707-0.746-0.231c-0.989,0.476-2.75,0.468-3.553,0.018
	c-0.355-0.182-0.701-0.35-0.865-0.36C114.94,61.362,115.119,61.715,115.268,61.821z M104.916,63.516l1.539,1.207l-1.574-0.152
	L104.916,63.516z M70.061,93.838c-0.311,0-0.563,0.254-0.563,0.565s0.253,0.565,0.563,0.565s0.564-0.254,0.564-0.565
	S70.371,93.838,70.061,93.838z M72.115,94.408l-7.059,3.361l1.865,0.627l-0.016,1.937l1.719-0.549l0.728,1.809L72.115,94.408z
	 M72.428,95.991c-0.311,0-0.563,0.254-0.563,0.565c0,0.313,0.253,0.566,0.563,0.566s0.564-0.254,0.564-0.566
	C72.992,96.245,72.738,95.991,72.428,95.991z M63.479,99.432c-0.311,0-0.563,0.25-0.563,0.562s0.253,0.565,0.563,0.565
	c0.312,0,0.564-0.254,0.564-0.565S63.79,99.432,63.479,99.432z M65.648,100.483l-7.924,3.65l2.35,0.716l-0.621,2.426l1.913-0.806
	l1.068,1.628L65.648,100.483z M65.882,102.221c-0.311,0-0.563,0.254-0.563,0.565c0,0.313,0.253,0.565,0.563,0.565
	s0.56-0.253,0.56-0.565C66.441,102.475,66.192,102.221,65.882,102.221z M50.16,102.585c2.979-0.005,6.321,1.133,7.462,3.691
	c0.304,1.279-0.95,2.04-3.627,1.305c-4.424-1.217-5.249-1.354-4.515-0.6c0.098,0.1,0.292,0.343,0.954,0.569
	c1.667,0.569,4.892,1.229,5.762,1.139c1.189-0.158,2.012,0.396,1.715,1.391c-0.337,1.129-1.881,1.591-4.202,1.263
	c-2.403-0.339-3.727-0.617-4.525-0.859c-1.025-0.312-1.062-0.285-0.576,0.438c0.254,0.376,0.278,0.677,0.653,0.747
	c1.587-0.09,3.277,0.215,4.734,0.354c2.616,0.234,3.026,0.979,1.104,2.114c-0.91,0.539-3.635,0.392-5.183-0.167
	c-1.106-0.4-3.643-0.971-2.665-0.197c0.235,0.187,0.155,0.644,0.564,0.787c1.342,0.186,5.134,0.452,5.727,0.99
	c0.382,0.347-0.479,1.227-2.248,1.686c-2.666,0.507-6.65,0.295-7.703-0.426c-1.949-3.98-0.9-10.496,2.15-13.043
	C46.717,103.002,48.373,102.587,50.16,102.585z M67.632,104.661c-0.312,0-0.561,0.253-0.561,0.565c0,0.312,0.249,0.562,0.561,0.562
	c0.311,0,0.563-0.25,0.563-0.562C68.195,104.914,67.942,104.661,67.632,104.661z M69.984,105.264l-8.181,4.087l2.069,0.617
	l-0.49,2.388l1.917-0.793l1.161,1.606L69.984,105.264z M70.048,107.264c-0.311,0-0.563,0.254-0.563,0.566
	c0,0.312,0.253,0.565,0.563,0.565c0.312,0,0.564-0.254,0.564-0.565C70.612,107.518,70.359,107.264,70.048,107.264z M74.807,112.083
	c-3.629,3.541-7.717,6.347-11.452,9.786l0.81-0.033l2.035-1.841l57.311-0.181l-1.339,1.961l0.563,0.242c0,0,1.719-2.549,1.602-2.666
	c-12.592,0.037-22.311,0.008-36.124,0.104c-2.518-2.502-5.177-4.845-7.809-7.221L74.807,112.083z M57.386,114.354
	c-0.312,0-0.564,0.254-0.564,0.566c0,0.312,0.253,0.565,0.564,0.565c0.311,0,0.56-0.254,0.56-0.565
	C57.945,114.607,57.696,114.354,57.386,114.354z M132.206,114.786c4.95,3.686,10.816,8.205,15.685,10.888
	c1.949,0.85,1.76,1.14-0.221,2.078c-1.947,1.215-5.188,2.778-7.89,4.146c-1.171,0.443-1.683-0.135-2.515,0.02
	c-0.599,0.152-0.77,0.266-1.127,0.739c-0.586,0.777-0.426,0.75-3.557,0.608c-3.159-0.143-4.462-0.072-5.141,0.275
	c-0.653,0.334-1.773,1.475-1.773,1.948c0,0.455-0.356,1.04-1.008,1.235c-0.758,0.185-1.632,0.786-1.595,1.72
	c-0.202,0.703-0.631,1.015-1.012,1.4c-0.9,0.911-0.811,1.627-0.55,2.474c0.121,0.379,0.304,0.29,0.211,1.411
	c-0.215,2.568-0.391,2.352,2.348,4.252l-13.992,12.229c-0.324,0.256-0.419,0.23-0.714,0.027c-1.706-1.271-2.894-3.371-3.578-5.473
	c-2.363-6.531,0.522-11.896,4.358-15.18c1.329-1.139,3.115-2.494,3.611-2.836C120.973,130.569,127.254,121.817,132.206,114.786z
	 M59.474,115.265l-7.998,3.788l2.576,0.436l-0.493,2.232l1.866-0.71l0.987,1.882L59.474,115.265z M59.963,117.035
	c-0.311,0-0.563,0.254-0.563,0.565s0.253,0.562,0.563,0.562s0.561-0.25,0.561-0.562S60.273,117.035,59.963,117.035z
	 M133.255,119.519l-0.908-2.153c0,0-2.526,6.242-3.061,8.357c2.141-1.106,8.411-4.309,8.411-4.309l-2.684-0.5l0.303-2.444
	L133.255,119.519z M41.889,119.904c-0.311,0-0.564,0.254-0.564,0.565s0.254,0.565,0.564,0.565s0.563-0.254,0.563-0.565
	S42.199,119.904,41.889,119.904z M44.338,120.42c0,0-5.951,2.801-8.639,4.01l2.509,0.527l-0.44,2.446l2.264-0.886l0.913,2.418
	L44.338,120.42z M44.656,122.268c-0.311,0-0.563,0.254-0.563,0.565s0.253,0.562,0.563,0.562s0.564-0.25,0.564-0.562
	S44.967,122.268,44.656,122.268z M128.882,122.674c-0.311,0-0.563,0.25-0.563,0.562s0.253,0.565,0.563,0.565s0.56-0.254,0.56-0.565
	S129.192,122.674,128.882,122.674z M138.613,123.185l-2.833,7.897l7.661-3.869l-2.079-0.569l0.01-1.954l-1.711,0.5L138.613,123.185z
	 M48.07,125.083c-0.311,0-0.563,0.254-0.563,0.565c0,0.313,0.253,0.566,0.563,0.566s0.564-0.254,0.564-0.566
	C48.635,125.337,48.381,125.083,48.07,125.083z M131.866,125.227c-0.312,0-0.561,0.254-0.561,0.566c0,0.312,0.249,0.562,0.561,0.562
	c0.311,0,0.563-0.25,0.563-0.562C132.43,125.48,132.177,125.227,131.866,125.227z M50.42,125.806l-8.118,3.973l2.52,0.592
	l-0.276,2.542l2.049-1.166l1.111,2.318L50.42,125.806z M50.928,127.485c-0.311,0-0.533,0.254-0.533,0.565s0.254,0.562,0.564,0.562
	s0.56-0.25,0.56-0.562S51.238,127.485,50.928,127.485z M135.347,127.984c-0.311,0-0.563,0.254-0.563,0.566
	c0,0.312,0.253,0.562,0.563,0.562c0.312,0,0.564-0.25,0.564-0.562C135.911,128.238,135.658,127.984,135.347,127.984z
	 M124.16,130.582l-0.754-2.126l-3.004,7.796l8.077-3.711l-2.563-0.604l0.046-2.035L124.16,130.582z M115.954,128.904
	c-0.093-0.005-0.174,0.021-0.174,0.081c0,0.18-2.063,2.203-2.063,2.203l-23.84,0.221l1.984,0.541
	c3.127,2.506,8.027,6.951,8.027,6.951l5.918-0.236c3.277-3.228,8.202-5.682,10.398-9.668
	C116.151,128.943,116.046,128.909,115.954,128.904L115.954,128.904z M138.301,130.511c-0.311,0-0.564,0.254-0.564,0.565
	c0,0.313,0.254,0.562,0.564,0.562s0.56-0.249,0.56-0.562C138.86,130.765,138.611,130.511,138.301,130.511z M119.898,133.232
	c-0.312,0-0.561,0.25-0.561,0.562c0,0.313,0.249,0.565,0.561,0.565c0.311,0,0.563-0.253,0.563-0.565
	C120.462,133.482,120.209,133.232,119.898,133.232z M132,134.049c1.709-0.009,3.354,0.05,3.781,0.376
	c2.641,2.23,1.389,12.658-1.94,13.975c-3.653,0.825-6.18,0.978-9.351-1.12c-0.899-0.439-2.684-1.769-2.336-2.866
	c0.475-1.349,1.781-1.25,5.526-0.081c1.367,0.427,2.119,0.341,2.468,0.073c0.326-0.249-0.101-0.528-0.799-0.53
	c-0.281-0.001-1.492-0.301-2.503-0.612c-1.426-0.439-1.835-0.569-2.757-0.624c-1.551-0.092-2.001-0.152-2.001-1.104
	c0-1.775,2.462-2.011,6.994-0.969c0.542,0.125,1.523,0.263,1.765,0.256c0.175,0.067-0.345-0.588-0.433-0.98
	c-0.163-0.14-0.456-0.206-1.228-0.232c-2.914-0.286-5.334-0.484-5.386-0.867c-0.258-1.88,3.512-2.392,7.421-0.883
	c1.003,0.387,1.023,0.227,1.016-0.066c-0.015-0.541-1.694-1.487-4.173-1.461c-2.41,0.024-2.074-1.204-0.093-2.127
	C128.65,133.89,130.291,134.058,132,134.049z M122.678,136.063c-0.311,0-0.56,0.254-0.56,0.565c0,0.313,0.249,0.566,0.56,0.566
	c0.312,0,0.564-0.254,0.564-0.566C123.242,136.317,122.989,136.063,122.678,136.063z M113.993,139.965l-0.51-2.106l-3.28,8.197
	l8.284-4.231l-2.731-0.515l0.239-1.725L113.993,139.965z M109.771,143.257c-0.311,0-0.563,0.254-0.563,0.565
	s0.253,0.565,0.563,0.565s0.561-0.254,0.561-0.565S110.082,143.257,109.771,143.257z M118.025,145.582l-0.697-1.991l-2.786,7.135
	l7.068-3.167l-2.088-0.571l0.297-2.162L118.025,145.582z M112.398,145.604c-0.311,0-0.564,0.254-0.564,0.565
	s0.254,0.565,0.564,0.565s0.56-0.254,0.56-0.565S112.709,145.604,112.398,145.604z M114.207,148.328
	c-0.311,0-0.563,0.25-0.563,0.563c0,0.312,0.253,0.565,0.563,0.565c0.312,0,0.561-0.254,0.561-0.565
	C114.768,148.578,114.519,148.328,114.207,148.328z M110.655,149.999l-2.386,6.759l6.643-3.225l-1.941-0.642
	c0,0,0.107-1.521-0.076-1.449c-0.115,0.044-1.365,0.395-1.365,0.395L110.655,149.999z M116.567,150.808
	c-0.311,0-0.563,0.25-0.563,0.562c0,0.313,0.253,0.566,0.563,0.566s0.563-0.254,0.563-0.566
	C117.131,151.058,116.878,150.808,116.567,150.808z M107.762,154.059c-0.311,0-0.564,0.254-0.564,0.566
	c0,0.312,0.254,0.565,0.564,0.565s0.564-0.254,0.564-0.565C108.326,154.313,108.072,154.059,107.762,154.059z M110.301,156.674
	c-0.311,0-0.564,0.25-0.564,0.562s0.254,0.565,0.564,0.565s0.563-0.254,0.563-0.565S110.611,156.674,110.301,156.674z M75.268,187.8
	c-0.304,0.045-1.095-0.68-1.248-1.021c0.45-0.114,0.915-0.029,1.168,0.183C75.396,187.16,75.544,187.669,75.268,187.8z
	 M77.673,187.311c-0.107,0.826,0.402,2.319,0.306,2.674c-0.262,0.128-1.582-1.293-1.908-1.639c-0.067-0.473,0.008-1.07,0.031-1.342
	C76.556,186.924,77.361,186.953,77.673,187.311z M80.053,187.722c0.281,1.83,1.084,4.771,0.959,5.764
	c-0.119-0.095-1.138-1.103-1.89-2.171c-0.265-0.64-0.677-2.867-0.642-3.934C78.988,187.312,79.669,187.393,80.053,187.722z
	 M64.112,187.516c-0.812,0.416-1.736,0.715-2.896,0.71c-0.93-0.004-2.531-0.487-2.369-0.368c0.423,0.76,1.529,0.361,1.551,0.857
	c-0.275,0.49-1.011,0.443-1.377,0.913c-0.076,0.125,0.108,0.23,0.627,0.176c1.57-0.715,3.623-0.702,5.501-0.083
	c0.395,0.083,0.136-0.297,0-0.397c-0.244-0.179-0.647-0.367-0.986-0.408c-1.642-0.292-0.921-0.458,0.177-0.95
	C65.146,187.67,65.349,186.942,64.112,187.516L64.112,187.516z M67.667,189.841c-0.218,0.017-0.765,0.296-1.363,0.538
	c-1.011,0.41-1.945,0.314-3.306-0.065c-1.181-0.33-1.611-0.238-2.787,0.355c-0.78,0.502-1.635,0.642-2.252,0.291
	c-0.802-0.456-0.796-0.3-0.399,0.829c0.1,0.282-0.097,1.136,0.252,1.333c0.266,0.149,0.571-0.35,0.776-0.419
	c0.205-0.068,1.494,0.511,2.213-0.127c1.283-0.467,1.668,0.289,2.557,0.217c1.442-0.511,2.345-1.042,3.584-0.057
	c0.073-0.369,0.361-2.384,0.822-2.86L67.667,189.841L67.667,189.841z M65.04,195.64c-1.038,0.013-1.6,0.652-2.938,0.53
	c-1.068-0.075-1.435,0.875-0.981,1.568c0.318,0.488,0.745,0.578,2.202-0.092c0.6-0.275,1.433-0.882,1.92-0.833
	c1.426,0.143,1.77,1.524,0.583,2.692c-0.577,0.341-0.583,0.71-0.406,0.717c0.469,0.019,1.419-0.544,1.635-1.199
	C67.645,197.229,66.582,195.607,65.04,195.64z M69.696,203.91c-1.351,0.285-3.297,1.84-3.958,2.846
	c-0.619,0.981-1.212,2.09-0.779,2.638c0.354,0.449,0.851,0.886,0.894,1.129c0.036,0.213-0.253,0.424-0.524,0.728
	c-1.186,1.331-0.903,1.403,0.76,0.54c0.842-0.438,1.234-0.613,1.784-0.47c1.603,0.42,3.598,0.121,4.955-0.379
	c0.612-0.227,1.213-0.532,1.259-0.376c-2.477,2.732-5.563,2.045-6.666,1.879c-0.191-0.051-0.34-0.038-0.34,0.026
	c0,0.134,0.32,0.422,1,0.725c1.139,0.507,3.872-0.031,5.581-1.282c3.38-2.218,5.243-4.337,2.58-3.451
	c-1.222,0.406-1.68,0.335-3.163-0.337c-2.224-1.008-3.928-1.303-5.77-0.658c-2.334,0.815-0.544-1.113,2.081-2.785
	C69.959,204.318,70.029,203.903,69.696,203.91z M57.109,209.675l-0.777,0.012c-0.557-1.88-1.902-1.877-2.484,0.012l-0.65-0.046
	C53.835,207.309,56.24,206.826,57.109,209.675z M70.951,209.83l-0.584,0.026c-0.354-1.139-1.604-2.141-2.484-0.274l-0.406-0.084
	C68.196,206.518,71.065,208.176,70.951,209.83z M67.053,208.117c0.364,0,0.457,0.415,0.043,1.089
	c-0.291,0.474-0.638,0.431-0.984,0.073c-0.314-0.314-0.295-0.37,0.046-0.682C66.521,208.266,66.835,208.117,67.053,208.117z
	 M71.359,208.129c0.158-0.005,0.459,0.126,0.797,0.24c0.887,0.301,1.088,0.549,0.725,0.914c-0.357,0.358-1.035,0.467-1.348,0.263
	c-0.015-0.448-0.456-0.793-0.472-1.242C71.062,208.184,71.201,208.134,71.359,208.129z M57.46,208.145
	c0.615-0.028,1.44,0.337,1.38,0.693c-0.065,0.389-0.672,0.644-1.173,0.686c-0.335,0.044-0.321-0.092-0.409-0.33
	c-0.078-0.213-0.18-0.485-0.236-0.698C56.884,208.086,57.146,208.156,57.46,208.145z M53.254,208.279c0,0-0.345,1.029-0.499,1.38
	c-1.287-0.069-1.165-0.639-0.558-1.05C52.524,208.359,52.855,208.354,53.254,208.279z M52.255,210.725
	c0.232,0.004,0.522,0.206,0.927,0.337c1.14,0.368,3.033,0.326,4.511-0.016c0.707-0.164,1.042-0.384,1.197-0.271
	c0.276,0.201-0.01,0.901-1.031,1.353c-1.33,0.492-3.359,0.759-4.896-0.027C51.646,211.427,51.501,210.711,52.255,210.725z
	 M51.903,212.196c1.206,0.799,2.412,1.051,3.903,0.912c2.234-0.082,2.632-0.358,0.75,0.642c-1.738,0.924-4.419,0.753-4.936-0.248
	C51.326,212.928,51.517,212.244,51.903,212.196z M62.725,213.537l-0.02,0.004c0.18,1.208,2.203,2.314,3.175,2.576
	c2.06,0.916,5.335,0.009,7.801-1.059c1.801-0.778,2.45-1.954,0.306-1.285c-3.451,1.074-7.783,1.156-9.952,0.321
	C63.329,213.759,62.846,213.531,62.725,213.537z M51.369,218.063c4.318,0.978,9.537,7.657,9.518,10.578h-1.395
	c-2.123-7.43-7.637-9.038-8.176-9.481C51.07,218.248,51.38,218.041,51.369,218.063z M51.301,219.944
	c5.131,2.255,6.957,6.277,7.726,8.696h-1.501c-1.117-3.328-3.127-5.701-6.236-7.179C51.078,220.999,51.301,219.944,51.301,219.944z
	 M51.293,222.222c2.629,0.777,4.948,4.25,5.607,6.419l-1.313-0.008c-0.931-2.42-2.249-3.972-4.345-4.865
	C51.155,223.312,51.174,222.796,51.293,222.222z M51.25,224.581c1.234,0.249,3.325,2.174,3.626,4.06h-1.204
	c-0.426-1.271-1.738-2.433-2.412-2.906C51.26,225.504,51.25,224.581,51.25,224.581z M51.377,226.594
	c0.133-0.083,1.976,1.582,1.665,2.047h-1.661c-0.019-0.518-0.031-2.053-0.008-2.047H51.377z"/>
<path fill="#D40000" d="M98.404,21.619c-3.13,6.081-19.189,33.466-19.352,34.419l4.112,1.824l19.966-36.104
	C103.131,21.759,98.994,21.624,98.404,21.619z M145.646,44.54l-1.739,2.479l1.411,2.836l1.711-2.704L145.646,44.54z M72.191,71.967
	c0,0-5.76,5.738-8.01,8.415c4.838,4.841,14.084,10.92,14.152,20.273l6.374,0.024l20.634,18.512c0,0,18.686,0.137,19.034,0.056
	c0.376-0.088,7.015-9.62,7.015-9.62l11.841,8.659c0,0-0.567-9.326-1.015-15.04c-0.146-3.822-0.273-6.173,2.512-7.864
	c-3.826-1.83-3.584-5.193-0.771-7.664c-0.929-1.287-2.315-1.525-2.524-6.09c-0.586-0.63-1.141-1-1.873-1.534l-0.765,0.686
	c-2.456,2.212-4.131,4.469-4.406,5.938c-0.524,2.797,2.307,4.712,3.943,2.669c0.461-0.576,0.872-0.414,0.872,0.337
	c0,1.524-1.912,2.386-3.529,1.593c-0.378-0.186-0.712-0.31-0.745-0.275c-0.059,0.059,1.604,4.146,2.054,5.047
	c0.748,1.5,1.14,3.007,1.197,4.583c0.063,1.684,0.028,1.899-0.756,4.808c-0.74,2.74-0.392,4.369,0.93,4.369
	c0.745,0,0.722,0.718-0.031,0.98c-1.598,0.559-2.589-0.623-2.645-3.146c-0.035-1.533-0.062-1.571-0.846-1.201
	c-2.732,1.288-5.7-1.015-4.415-3.424c0.271-0.507,0.59-0.347,0.757,0.375c0.315,1.355,1.023,1.954,2.303,1.949
	c2.948-0.012,4.184-4.19,2.482-8.398c-0.341-0.845-0.513-0.797-0.961,0.271c-0.704,1.676-1.883,2.169-2.854,1.193
	c-0.325-0.326-0.483-0.856-0.263-0.883c0.051-0.007,0.375-0.021,0.719-0.031c1.718-0.055,2.311-1.727,1.506-4.242
	c-0.707-2.209-0.816-2.609-1.027-3.808c-0.325-1.851-0.099-3.256,0.814-5.051c0.162-0.317,1.17-1.447,2.422-2.716
	c1.279-1.296,2.379-2.289,2.379-2.289c-1.218-1.021-2.323-1.826-3.698-2.853c0,0-8.78,24.184-8.158,33.605
	c-1.114,12.415-10.213,8.98-10.883,0.383L72.191,71.967z M71.799,75.593c3.002-0.051,4.98,3.931,6.109,12.19
	c0.375,2.737,2.038,6.57,3.244,7.477c3.045,2.285,7.81,0.523,7.813-2.891c0.009-4.25-5.944-4.88-6.036-0.639
	c-0.021,1-0.533,1.052-1.023,0.101c-0.437-0.849-0.043-2.434,0.808-3.234c0.545-0.514,0.502-0.61-0.537-1.186
	c-3.619-2.004-5.159-4.992-3.225-6.264c0.846-0.556,2.002,0.146,1.471,0.895c-0.828,1.169-0.839,1.354-0.146,2.324
	c0.788,1.104,1.721,1.653,3.936,2.309c1.859,0.551,2.165,0.653,3.023,1.046c2.515,1.149,3.662,3.68,2.785,6.137
	c-0.207,0.579-0.408,1.15-0.448,1.271c-0.09,0.27,0.058,0.271,1.827,0.034c2.814-0.376,5.943,0.633,7.484,2.414
	c0.828,0.957,1.492,3.108,1.514,4.904c0.008,0.346,0.11,1.126,0.239,1.735c0.13,0.608,0.301,1.638,0.379,2.285
	c0.736,6.145,5.837,9.287,8.04,4.954c1.387-2.727-1.82-5.454-3.452-2.936c-0.573,0.884-1.165,0.478-0.834-0.573
	c0.642-2.043,3.185-2.391,4.916-0.671c0.937,0.931,1.386,3.039,0.931,4.378c-0.238,0.702-0.214,0.747,0.305,0.565
	c1.164-0.407,3.176-0.016,3.896,0.759c1.701,1.825,1.359,4.017-0.733,4.727c-0.952,0.319-2.03-0.013-2.383-1.132
	c-0.155-0.797,0.392-1.026,0.815-0.341c0.791,1.285,2.516,0.25,2.107-1.267c-0.463-1.725-1.932-2.091-4.646-1.154
	c-4.313,1.489-5.705,1.364-7.77-0.693c-1.475-1.469-2.028-2.738-2.426-5.539c-0.438-3.094-0.479-3.174-1.243-2.522
	c-3.65,3.115-8.472-1.592-5.38-4.687c0.956-0.959,1.66-0.124,0.8,0.949c-1.257,1.565,0.381,3.746,2.433,3.238
	c3.736-0.925,2.974-6.408-1.069-7.689c-1.232-0.391-4.618-0.229-7.223,0.345c-7.271,1.601-10.483-1.513-11.979-11.599
	c-0.175-1.178-0.379-2.049-1.069-4.586c-0.819-3.01-3.604-4.645-5.125-3.006c-1.212,1.306-0.574,3.063,1.112,3.067
	c1.682,0.004,1.166,1.161-0.587,1.317c-3.042,0.271-3.571-4.809-0.652-6.264C70.511,75.787,71.176,75.603,71.799,75.593
	L71.799,75.593z M32.043,77.417l0.993,3.665l3.76,1.065l-1.192-3.439L32.043,77.417z M41.738,78.546l-1.01,3.271l2.8-0.978
	l0.979-3.135L41.738,78.546z M72.664,83.901c0.598,0,1.081,0.485,1.081,1.085c0.001,0.599-0.483,1.084-1.081,1.084
	s-1.081-0.485-1.081-1.084C71.583,84.387,72.066,83.901,72.664,83.901z M36.724,85.803l-3.267,1.091l-0.57,2.594l3.002-0.677
	L36.724,85.803z M43.545,86.975l-2.346-0.721l0.555,2.678l2.564,1.051L43.545,86.975z M148.631,86.468l-1.557,1.216
	c4.539,3.958-0.361,7.772-0.513,7.514c3.282,2.179,2.697,5.616,2.271,8.763c-0.777,5.613-1.08,10.924-1.927,16.677
	c0,0,3.954,2.736,6.584,3.796l0.016-33.756L148.631,86.468z M92.607,91.552c0.597,0,1.081,0.486,1.081,1.085
	c0,0.6-0.483,1.085-1.081,1.085s-1.082-0.485-1.082-1.085C91.525,92.038,92.01,91.552,92.607,91.552z M26.228,94.328l0.136,31.505
	l6.501-11.661l-4.474-5.176l3.867-4.141C29.979,101.481,28.117,97.897,26.228,94.328z M89.533,99.129
	c0.598,0,1.081,0.486,1.081,1.085s-0.483,1.085-1.081,1.085s-1.081-0.486-1.082-1.085C88.451,99.615,88.936,99.129,89.533,99.129z
	 M104.293,102.353c0.598,0,1.082,0.485,1.082,1.084c0,0.6-0.484,1.085-1.082,1.085c-0.597,0-1.081-0.485-1.081-1.085
	C103.212,102.838,103.696,102.353,104.293,102.353z M146.573,137.448l4.775,4.916l-3.78,4.659l5.924,9.997l-0.095-30.932
	L146.573,137.448z M26.167,127.102l0.228,33.885l5.106,3.736l1.295-1.227c-3.296-3.529-1.327-6.155,1.157-7.675
	c-4.383-1.023-3.052-6.854-2.791-9.556c-0.106-5.016,1.727-10.739,1.162-15.563L26.167,127.102z M55.578,131.812l-7.319,10.229
	c0,0-8.042-6.11-12.097-8.867c0.434,4.414,0.829,10.045,1.367,14.793c1.315,6.933-2.108,7.052-2.14,7.716
	c5.441,4.142,0.874,8.016,0.056,7.821c2.898,1.582,2.659,6.391,2.659,6.391l1.374,0.78c0,0,0.447-0.273,0.638-0.376
	c1.47-0.793,3.865-3.62,4.414-5.485c0.931-3.162-1.808-5.79-3.53-3.386c-0.846,1.181-1.523,0.392-0.83-0.968
	c0.633-1.241,2.285-1.864,3.383-1.275c0.639,0.344,0.496-0.546-0.49-3.037c-0.33-0.835-0.6-1.746-1.065-3.595
	c-0.451-1.787-0.276-3.942,0.506-6.136c1.126-3.162,0.727-5.146-1.077-5.318c-0.963-0.093-1.067-0.395-0.282-0.841
	c1.753-0.995,3.452,0.422,3.383,2.824c-0.038,1.299-0.023,1.32,0.66,1.046c3.458-1.392,6.19,2.208,3.773,4.97
	c-0.739,0.844-1.204,0.309-0.719-0.825c0.751-1.752,0.036-3-1.722-3.014c-2.552-0.02-3.963,3.516-2.959,7.402
	c0.314,1.214,0.362,1.229,1.209,0.419c0.752-0.72,1.313-0.949,1.896-0.774c1.207,0.361,1.523,1.65,0.366,1.491
	c-1.988-0.274-2.511,1.814-1.386,5.531c1.492,4.931-0.019,8.949-4.434,11.808c-0.224,0.145-0.58,0.422-0.58,0.422
	c1.703,1.522,2.793,2.387,5.043,3.762l8.035-32.565c0,0-0.136-1.85-0.334-2.721c-0.008-8.741,8.125-9.578,10.67-1.642
	c0.244,0.762,1.537,2.708,1.537,2.708l42.329,37.678c0,0,7.902-7.66,7.794-7.863c-6.004-6.069-14.111-10.36-14.406-19.99
	c-1.438-0.042-6.248,0.048-6.248,0.048L74.47,132.035C68.011,132.076,62.281,131.612,55.578,131.812z M67.11,132.521
	c1.131-0.036,2.271,0.553,2.271,1.499c0,0.815-0.545,1.002-0.997,0.341c-0.631-0.926-1.363-0.999-2.108-0.213
	c-2.065,2.178,1.145,4.168,4.835,2.998c2.261-0.717,3.355-0.91,4.183-0.744c3.487,0.702,5.171,3.062,5.469,7.658
	c0.151,2.338,0.146,2.329,1.154,1.402c2.453-2.254,5.998-1,6.55,2.32c0.237,1.425-1.292,3.22-2.746,3.22
	c-0.569,0-0.479-0.598,0.136-0.892c1.479-0.707,1.536-3.045,0.101-3.959c-1.907-1.213-4.418,0.68-4.388,3.305
	c0.038,3.156,2.388,4.609,7.029,4.343c0.68-0.039,2.386-0.12,3.788-0.179c2.217-0.095,4.6-0.514,6.859,1.197
	c2.365,1.887,3.936,5.639,4.606,11.06c1.058,6.672,1.876,8.46,4.109,8.62c1.325,0.095,2.448-1.037,2.448-2.353
	c0-0.927-1.223-1.744-2.15-1.438c-1.121,0.371-1.348-0.847-0.244-1.309c1.529-0.642,3.396,0.594,3.813,2.521
	c0.242,1.124-1.022,3.278-2.349,3.816c-3.458,1.403-5.918-1.463-6.728-7.876c-0.497-2.941-0.77-4.924-1.684-7.438
	c-1.678-4.627-4.436-6.536-7.438-5.152c-3.4,1.567-2.726,6.674,0.877,6.636c1.979,0.157,2.394-1.302,2.435-2.863
	c0.046-1.152,1.348-0.07,1.459,0.723c0.107,0.962-0.753,2.151-1.512,2.715c-1.227,0.823-0.79,0.772,0.464,1.104
	c3.372,0.623,5.878,5.099,3.862,6.618c-1.048,0.641-2.16-0.303-1.434-1.229c1.154-1.473-0.8-3.799-4.357-4.58
	c-4.658-1.024-6.514-4.502-4.833-8.077c0.556-1.183,0.604-1.155-1.669-1.026c-5,0.283-6.775-0.41-8.453-3.316
	c-0.507-0.877-0.73-2.05-0.838-4.381c-0.193-4.173-0.572-6.757-1.098-7.484c-2.596-3.602-7.997-2.523-7.322,1.461
	c0.355,2.092,2.51,2.763,3.982,1.239c1.111-1.15,1.629-0.081,0.544,1.124c-2.61,2.898-7.154-0.485-5.805-4.323
	c0.31-0.879,0.351-0.851-1.324-0.899c-3.727-0.107-5.499-3.306-3.098-5.582C65.932,132.73,66.518,132.54,67.11,132.521
	L67.11,132.521z M76.102,146.25c0.597,0,1.081,0.485,1.081,1.084c0,0.6-0.484,1.085-1.081,1.085c-0.598,0-1.082-0.485-1.082-1.085
	C75.02,146.735,75.504,146.25,76.102,146.25z M91.082,150.1c0.597,0,1.081,0.486,1.081,1.085c0,0.6-0.484,1.085-1.081,1.085
	c-0.598,0-1.082-0.485-1.082-1.085C90,150.586,90.484,150.1,91.082,150.1z M87.865,157.178c0.597,0,1.081,0.485,1.081,1.084
	c0,0.6-0.484,1.085-1.081,1.085c-0.598,0-1.082-0.485-1.082-1.085C86.783,157.663,87.268,157.178,87.865,157.178z M135.471,161.396
	l0.686,3.208l2.481,0.655l-0.388-2.748L135.471,161.396z M144.152,162.506l-0.053,1.903l2.207,0.26l0.781-3.279L144.152,162.506z
	 M107.09,165.378c0.597,0,1.081,0.485,1.081,1.085c0,0.599-0.484,1.085-1.081,1.085c-0.598,0-1.082-0.486-1.082-1.085
	C106.008,165.863,106.492,165.378,107.09,165.378z M138.794,169.797l-2.595,0.723l-1.247,3.614l3.322-1.206L138.794,169.797z
	 M143.87,170.122l0.317,2.679l3.197,1.449l-1.081-3.817L143.87,170.122z M96.745,192.954l-19.849,35.993l5.424-0.076l18.734-33.938
	L96.745,192.954z M34.319,201.668l-1.753,2.366l1.664,2.747l1.912-2.759L34.319,201.668z"/>
<path d="M68.048,20.719c3.654,11.114,3.994,22.066,0.822,32.591c1.808,0.092,9.69,2.12,14.03,4.806
	c-0.803,2.072-13.105,17.248-21.456,24.089c2.373,2.357,4.985,4.715,7.731,7.313c4.152,3.952,5.619,6.673,5.894,11.803
	c-0.037,2.478-0.923,5.534-2.495,7.697c-1.188,1.636-2.451,2.894-4.981,4.575c-2.336,1.552-5.749,4.89-10.041,9.813
	c-1.637,1.877-4.398,5.294-6.685,8.553c-0.866,1.185-3.414,4.882-3.414,4.882c-8.5-6.957-17.602-12.323-17.835-12.282
	c0,0,9.183-4.909,11.114-5.909c1.484,0.955,3.5,0.138,2.532-1.964c-1.859-4.783-0.563-9.707,1.72-13.145
	c0.547-0.828,1.864-1.312,3.994-1.46c0.924-0.061,1.901-0.03,2.881-0.043c0.353,0,1.305,0.137,1.826,0.423
	c1.736,0.95,2.084-0.272,3.167-4.39c1.077-4.096-0.656-9.276-3.128-9.293c-0.582-0.004-0.907,0.211-0.788,1.668
	c0.091,1.101-0.173,1.671-0.456,2.365c-0.616,1.514-0.943,2.995-1.14,4.97c0.36,0.073-2.295-2.651-6.479-3.73
	c-2.72-0.323-4.101-3.72-3.986-3.727c0,0,0.408-0.92,0.766-1.278c0.929,0.445,1.841,0.97,2.942,1.294c0,0-0.254-1.364-0.352-1.731
	c-0.505-1.897-0.478-2.187,0.251-2.58c1.808-0.977,1.998-2.723,0.588-4.312c-0.357-0.406-0.657-0.667-1.136-0.872l0.892-3.563
	c0,0-0.816,0.177-1.471,0.376c-1.892,0.576-1.75,0.596-2.557-0.326c-1.756-2.004-4.436-1.623-4.836,0.69
	c-0.043,0.255-0.162,0.662-0.162,0.662l-4.034-1.964c0.118,0.949,1.166,4.164,1.166,4.164c-3.53,2.75-0.547,5.186,0.416,5.443
	c0,0-0.824,2.632-1.108,3.726l3.981-1.141c0.335,0.761,0.747,1.338,1.575,1.871c0.216,2.246,1.941,4.058,3.131,5.147
	c0,0,0.171,0.821,0.068,1.347c-0.258,1.307,1.066,3.375,1.29,3.498c-5.464-2.241-11.159-4.932-16.657-7.573l0.344,67.787
	c0,0,1.28,1.15,3.819,2.975c1.22,0.877,1.22,0.88,0.966,1.891c-0.335,1.332-0.252,2.349,0.881,11.117
	c0.6,4.638,1.253,9.447,1.838,13.76c0.232,1.571,0.265,2.579,0.265,2.579c-1.214-0.563-2.981-0.621-3.896,0.408
	c-1.575,1.8-0.314,4.698,2.021,4.637c0.53-0.032,0.891-0.188,1.348-0.5c0.316-0.17,0.643-0.021,0.643-0.021l-3.483,6.14l4.01,6.773
	l4.002-7.243l-2.91-5.729c0,0,0.283-0.032,0.678,0.166c0.392,0.197,0.918,0.348,1.283,0.368c2.029,0.016,2.446-0.913,2.66-2.584
	c0-2.15-1.706-3.123-4.055-2.313c-0.368,0.128-0.776,0.163-0.776,0.163l2.464-23.642l1.32,0.973l0.434-0.236l-1.155-0.988
	c0.251-3.788-0.995-5.13-2.341-6.047c4.5-2.567,2.55-6.626-0.442-7.875c0,0,1.944-1.14,2.334-2.335
	c0.332-1.069,0.208-2.764-0.169-5.77c-0.281-4.634-1.273-14.209-1.273-14.209c3.932,2.974,7.967,6.155,11.764,9.162l7.607-10.606
	l18.336,0.128c0,0,13.938,12.691,20.951,19.163l6.056,0.055c0,0,0.066,0.649,0.128,1.08c0.573,6.268,4.765,10.571,8.58,13.59
	c1.557,1.401,5.399,5.082,5.399,5.082l-7.125,7.205L64.5,139.214c0,0-0.209-0.57-0.294-0.918c-1.007-4.141-3.742-5.874-6.229-5.582
	c-2.609,0.306-4.835,2.884-4.723,7.271c0.018,0.679,0.263,1.875,0.263,1.875l-7.971,33.303c0,0-3.188-2.44-4.909-3.614l-0.378,0.221
	l4.665,3.518l0.348-0.151l1.324,1.038l0.101,0.709c4.081,2.785,11.003,7.984,11.003,7.984c3.267-2.436,6.701-1.622,10.142-0.705
	c0,0,2.501,0.838,3.831,0.833c6.759,0.152,12.745,1.469,19.027,3.745l-22.901,40.722l43.624,0.089
	c-2.15-8.523-4.435-17.181-0.352-31.719c-4.302-0.87-13.867-4.71-13.867-4.71s-0.046-0.219,0.359-0.717
	c1.768-2.537,6.24-9.412,10.431-13.388c0.511-0.366,7.815-7.477,7.886-7.701c0.04-0.126,0.216-0.605,0.502-0.794
	c0.674-0.451,2.463-2.148,2.463-2.148l-9.141-7.95c0,0-0.402-0.039-0.532-0.112c-1.276-0.716-3.58-4.71-4.147-7.384
	c-1.305-6.15,1.105-11.014,7.905-16.006c6.64-4.561,19.229-22.262,19.271-22.654c6.789,5.638,12.09,8.557,18.063,12.254
	c-3.608,2.076-6.551,3.464-9.075,4.837c-1.639,0.938-1.864,1.134-3.248,0.74c-1.568,0.013-2.104,0.619-1.707,1.976
	c2.374,3.763,1.354,12.523-1.854,14.212c-2.787,1.465-5.496,1.068-7.734,0.237c-1.729-0.556-1.705-0.562-2.476,1.011
	c-1.695,3.621-1.804,6.67-0.239,10.142c1.283,2.787,3.19,4.058,3.426,0.3c0.138-2.207,1.107-4.785,1.077-7.156
	c1.946,2.154,3.235,3.14,6.43,4.017c2.143,0.335,4.418,3.03,4.347,4.129c-0.588,0.596-0.767,1.356-0.862,1.303
	c-1.043-0.342-3.303-1.306-3.303-1.306l0.962,3.409c0,0-0.159,0.154-0.622,0.391c-2.126,1.089-1.989,4.03,0.243,5.207
	c0.455,0.239,0.487,0.352,0.294,0.979c-0.277,1.398-0.888,2.337-1.217,3.723c0,0,0.304,0.012,2.851-1.17l1-0.465l0.603,0.647
	c1.318,1.414,2.903,1.405,4.286-0.023l0.634-0.654l1.769,0.898c1.667,0.848,2.105,1.022,2.105,1.022s-0.962-3.74-1.14-4.168
	c-0.097-0.231-0.293-0.466-0.437-0.52c-0.237-0.088-0.2-0.144,0.433-0.646c1.604-1.274,1.764-3.033,0.397-4.37
	c-0.521-0.509-0.587-0.615-0.587-0.615l0.83-3.468l-3.442,1.145c-0.544-1.159-1.407-1.687-1.952-1.923
	c-0.059-1.564-0.255-3.173-2.935-5.618c0.902-0.828-0.171-2.821-1.056-4.018c1.508,0.508,5.278,2.107,5.278,2.107l0.57-0.022
	l1.8,0.865l0.211,0.321c0,0,5.664,2.681,8.265,3.936c-0.008-0.141-0.027-2.946-0.034-33.837
	c-0.008-18.418,0.025-33.566-0.012-33.663s-0.659-0.576-1.306-1.065c-1.192-0.902-1.437-1.079-2.95-2.092
	c-1.215-0.813-1.133-0.807-0.88-1.743c0.289-1.076,0.283-2.556-0.101-5.326c-0.284-2.046-1.312-9.24-2.028-15.046
	c-0.502-4.073-0.621-4.978-0.745-5.633c-0.199-1.649,0.015-2.368-0.021-2.392c5.688,2.471,6.137-5.724,0.435-4.617
	c1.092-2.207,2.01-3.231,2.945-5.589c-1.189-2.567-3.821-6.91-3.821-6.91l-4.167,7.278l2.452,5.036
	c-2.821-0.51-4.318,1.55-3.796,3.397c0.566,1.634,2.129,2.092,3.506,1.434c1.062-0.42,1.061-0.526,0.12,7.457
	c-0.278,2.36-1.514,13.398-1.684,15.041c-0.114,1.104-0.186,1.41-0.634,1.166c-0.607-0.262-0.954-0.644-1.564-1.046l-0.34,0.318
	c0.542,0.439,1.183,1.01,1.838,1.613c-0.149,2.924-0.09,4.617,2.336,6.044c-4.397,2.765-1.826,7.019,0.756,7.634
	c-1.539,0.398-3.057,2.385-2.689,6.332l1.247,16.266l-11.921-8.879l-6.998,10.045l-18.438,0.023l-20.796-18.822
	c0,0-4.56-0.063-6.43-0.108c0.212-0.1-0.393-5.818-3.402-9.553c-3.271-3.901-10.718-10.341-10.713-10.344l7.82-7.964l43.905,39.64
	c0,0,0.213,1.123,0.325,1.601c1.468,6.258,8.565,6.638,10.075,0.263c0.244-1.029,0.538-3.426,0.429-3.711
	c-0.035-0.092,0.186-1.137,0.491-2.324c2.359-9.285,4.37-17.295,6.692-26.21c0.32-1.227,0.659-2.594,0.753-3.037
	c0.383-1.809,0.326-1.797,2.213-0.371c1.156,0.872,1.634,1.185,1.634,1.185l0.366-0.383c-1.296-1.007-3.514-2.611-3.514-2.611
	l0.023-0.682c-7.129-5.12-8.598-6.479-12.818-9.835c-3.27,2.889-7.947,1.719-10.879,0.697c-0.755-0.298-2.61-0.783-2.61-0.783
	c-7.301,0.01-13.715-1.404-19.772-3.39l23.356-41.72h-9.021l-0.314,0.355h-4.694l-0.016-0.354L68.048,20.719z M154.184,157.932
	L154.184,157.932z M94.672,21.661l3.193,0.062l-18.9,33.826l-2.008-0.787c0,0,0.184-0.097,0.182-1.521
	c0-1.53-0.332-2.185-1.02-3.088c-0.575-0.782-0.82-0.825,0.865-0.593c3.446,0.476,5.895-3.283,4.525-6.218
	c-0.527-1.132-0.453-1.2,0.943-1.34c3.843-0.384,5.338-5.275,2.618-7.713c-0.563-0.51-0.312-0.835,0.737-0.607
	c3.325,0.719,5.901-2.979,4.58-5.877c-0.43-0.809-0.043-0.942,0.564-1.022C93.8,26.112,94.769,23.87,94.672,21.661z M69.199,21.665
	l14.795,0.004c-1.991,3.054,1.523,4.862,1.969,4.648c-3.189,1.747-2.313,4.21-0.659,5.057c1.605,0.821,4.013,0.082,3.371-3.473
	l0.791-0.345c0.771,0.873,1.534,6.285-4.337,5.532c-1.045-0.134-1.611,0.845-0.737,1.387c4.639,5.35-2.623,7.713-2.938,6.825
	l-0.024-0.905c1.964,0.362,4.477-2.176,2.273-4.432c-1.253-1.283-4.887-0.658-4.265,3.234c-2.146-3.215-4.489-2.245-5.12-0.546
	c-0.49,1.316,0.133,3.119,2.273,3.426c-2.391,2.009-1.229,4.251,0.414,4.745c1.813,0.547,3.666-0.194,3.166-3.5
	c0.028-0.313,0.662-0.211,0.714-0.229c1.876,4.694-2.607,6.419-5.027,5.45c-0.897-0.35-1.366,1.037-0.414,1.743
	c1.445,1.072,0.999,4.157,0.83,4.188c-2.688-1.022-6.539-1.778-6.396-1.721C72.446,42.566,72.28,32.207,69.199,21.665z
	 M92.787,21.669l1.337,0.004c0.018,1.919-0.813,4.28-4.079,4.645c0.015-0.515-0.021-1.002-0.154-1.546
	C91.115,24.494,92.74,24.835,92.787,21.669z M98.623,21.773l4.268,0.02L82.813,57.54l-3.21-1.654L98.623,21.773z M88.096,24.485
	c0.754,0,1.367,0.61,1.367,1.367s-0.613,1.371-1.367,1.371c-0.755,0-1.363-0.614-1.363-1.371S87.341,24.485,88.096,24.485z
	 M79.537,40.073c0.698,0,1.263,0.566,1.263,1.267s-0.564,1.271-1.263,1.271s-1.263-0.57-1.263-1.271S78.839,40.073,79.537,40.073z
	 M145.634,41.084l3.398,5.935l-3.877,6.888l-3.236-6.601L145.634,41.084z M145.572,43.106l-2.391,3.959l2.17,4.056l2.469-3.854
	L145.572,43.106z M145.619,44.803l1.235,2.395l-1.502,2.429l-1.247-2.568L145.619,44.803z M142.324,52.845
	c0.258,0.001,0.532,0.056,0.815,0.175c2.289,0.959,1.56,4.45-0.885,4.233c-0.322-0.033-0.747-0.198-1.054-0.406
	C139.505,55.451,140.525,52.84,142.324,52.845z M147.921,52.911c2.002,0.036,3.208,2.83,1.101,4.137
	c-1.018,0.568-2.538,0.224-3.137-0.786c-0.513-0.867-0.291-2.312,0.857-3.061C147.152,52.991,147.55,52.904,147.921,52.911z
	 M145.14,56.896c0.2,0.018,0.418,0.992,0.618,2.685c0.073,0.614,0.268,2.147,0.433,3.409c0.315,2.697,0.64,5.209,0.919,7.81
	c0.056,0.511,0.193,1.599,0.306,2.417c1.157,8.445,1.421,11.143,1.146,11.861c-0.73,2.519-4.156,2.711-5.588,1.248
	c-1.082-1.106-1.241-2.321-0.815-5.485c0.246-1.828,0.348-2.747,1.07-9.731c0.169-1.636,0.413-3.812,0.544-4.834
	c0.287-2.732,0.626-5.294,0.997-7.988C144.876,57.323,145.003,56.885,145.14,56.896z M89.03,63.172c0,0,10.974,3.628,19.321,3.464
	c1.226-0.001,1.424-0.012,2.95,0.487c0.905,0.297,2.329,0.698,3.163,0.892c2.574,0.5,4.836,0.358,6.84-0.461
	c0.314-0.129,0.776-0.518,1.243-0.376c0.284,0.086,0.698,0.654,0.698,0.654c-7.309,1.947-24.409,1.588-35.054-2.913L89.03,63.172z
	 M145.406,64.326l-0.146,0.155c-0.179,0.283-0.031,2.142,0.634,8.054c1.269,11.293,1.264,11.534-0.274,12.722
	c-0.756,0.583-0.873,0.817-0.51,1.03c0.271,0.158,0.248,0.157,0.799,0.004c1.295-0.36,1.83-1.391,1.819-3.494
	c-0.008-1.604-0.027-1.797-0.525-5.737c-0.172-1.363-0.407-3.288-0.524-4.276C145.844,65.748,145.652,64.286,145.406,64.326
	L145.406,64.326z M87.926,65.508c10.924,3.924,22.338,5.035,36.098,2.917c0,0,1.322,0.86,1.988,1.282l-0.463,0.108l0.208,1.906
	l2.337-0.376c0,0,1.264,1.008,2.205,1.627c-12.268,3.758-32.081,3.11-44.304-2.34c-0.466-0.269-0.738-0.484-0.738-0.484
	c0.264-0.649,0.583-1.035,0.908-1.398l2.231,0.64l0.646-2.041l-1.707-0.624L87.926,65.508z M90.787,67.952l-0.714,2.011l3.12,0.93
	l0.533-2.053L90.787,67.952z M95.561,69.196l-0.413,2.289l3.132,0.581l0.391-2.228L95.561,69.196z M100.744,70.269l-0.248,2.208
	l3.321,0.354l0.205-2.235L100.744,70.269z M123.571,70.304l-2.827,0.31l0.178,1.945l2.857-0.337L123.571,70.304z M118.586,70.865
	l-2.804,0.187l0.097,2.037l2.818-0.178L118.586,70.865z M105.953,70.908v2.165l2.873,0.108l0.035-2.211L105.953,70.908z
	 M113.855,71.18l-2.65,0.012l-0.011,2.061l2.677,0.012L113.855,71.18z M83.137,71.544c0.286-0.009,0.939,0.629,1.209,1.344
	c0.531,1.405,0.287,2.963-0.544,3.479c-1.133,0.702-2.463-0.397-1.685-1.391c0.139-0.176,0.359-0.353,0.495-0.396
	c0.582-0.185,0.718-1.104,0.401-2.695C82.967,71.649,83.025,71.547,83.137,71.544z M87.374,72.082
	c11.825,3.883,25.243,5.188,39.066,2.348c0,0-6.55,26.836-6.692,26.849L87.374,72.082z M81.577,72.163
	c0.622,0,0.735,1.06,0.174,1.623c-0.718,0.72-2.085,0.143-1.8-0.759C80.034,72.766,81.166,72.163,81.577,72.163z M84.976,72.787
	c0.129-0.01,0.373,0.247,0.761,0.771c1.328,1.794,1.432,3.798,0.243,4.711c-1.395,1.07-2.413-0.591-1.251-2.042
	c0.301-0.375,0.345-1.069,0.166-2.606C84.83,73.072,84.846,72.797,84.976,72.787L84.976,72.787z M130.828,73.434
	c0.152-0.005,0.423,0.113,0.965,0.38c0.848,0.417,1.143,1.025,0.734,1.519c-0.594,0.717-2.218-0.702-1.912-1.67
	C130.662,73.516,130.709,73.438,130.828,73.434z M129.554,74.367c0.212,0.021,0.552,0.412,0.946,1.205
	c0.253,0.51,0.399,0.655,0.826,0.81c1.011,0.366,1.198,1.417,0.309,1.728c-0.966,0.338-1.686-0.358-2.128-2.061
	C129.216,74.926,129.28,74.34,129.554,74.367z M87.254,75.119c0.146-0.009,0.428,0.32,0.873,0.98c1.321,1.956,0.866,5.712-0.8,6.589
	c-0.734,0.387-1.245,0.304-1.834-0.287c-0.861-0.863-0.649-1.546,0.629-2.018c1.089-0.401,1.44-1.645,1.104-3.905
	C87.093,75.575,87.088,75.129,87.254,75.119z M93.549,75.739c8.075,6.679,15.365,13.84,24.763,22.2
	c2.231-6.887,5.484-21.185,5.495-21.232C123.451,77.001,108.021,79.197,93.549,75.739z M123.807,76.707v-0.016V76.707z
	 M128.815,75.758c0.135,0,0.524,1.005,0.745,1.922c0.201,0.83,1.001,2.222,1.31,2.273c1.591,0.271,2.269,1.16,1.483,1.949
	c-0.578,0.578-1.827,0.25-2.43-0.636C128.792,79.602,128.02,75.758,128.815,75.758z M38.709,76.68
	c0.961,0.009,1.883,0.615,2.117,1.867c0.271,1.457-0.551,2.517-1.245,2.348c-0.755-0.283-1.012-1.483-1.012-1.483
	s-0.18,0.979-0.489,1.472c-0.678,1.037-2.102-0.502-1.847-1.994C36.482,77.431,37.621,76.671,38.709,76.68z M96.187,77.063
	c8.794,1.325,16.36,1.669,26.852,0.527l-4.943,19.252L96.187,77.063z M89.544,77.095c0.13,0.009,0.397,0.243,0.814,0.686
	c1.367,1.449,1.761,3.461,0.873,4.459c-0.54,0.607-0.904,0.677-1.479,0.282c-0.733-0.504-0.789-1.262-0.115-1.611
	c0.619-0.321,0.675-1.026,0.186-2.363C89.457,77.551,89.354,77.082,89.544,77.095z M32.171,77.591l3.214,1.336l1.15,2.724
	l-3.205-0.829L32.171,77.591z M44.32,77.951l-0.953,2.711l-2.473,0.926l0.963-2.932L44.32,77.951z M128.136,78.521
	c0.119-0.002,0.296,0.341,0.51,1.05c0.53,1.754,0.756,2.197,1.239,2.429c0.789,0.377,0.847,1.336,0.101,1.677
	c-0.473,0.217-0.628,0.172-0.965-0.271c-0.524-0.69-0.947-2.011-1.023-3.196C127.925,79.098,127.983,78.522,128.136,78.521z
	 M92.367,79.744c0.093-0.006,0.229,0.131,0.433,0.372c1.248,1.488,1.384,3.771,0.267,4.455c-1.083,0.662-2.598-0.704-1.653-1.492
	c0.085-0.07,0.28-0.229,0.437-0.349c0.263-0.201,0.285-0.318,0.309-1.611C92.176,80.159,92.212,79.755,92.367,79.744z
	 M101.851,79.902l15.383,14.022l3.531-13.871C114.689,80.601,108.342,80.438,101.851,79.902z M64.063,80.608
	c4.86,5.146,11.219,9.308,12.729,14.426c2.707,7.045,0.722,15.219-5.615,19.896c-3.498,2.655-6.927,5.449-9.778,8.824
	c-4.68,4.997-7.803,10.457-10.93,14.418c-0.529,0.666-1.927,2.762-1.927,2.762s-0.685,0.784-2.97-1.139
	c-6.064-5.409-12.43-9.332-18.908-13.07l2.742-1.537c5.408,3.093,12.133,7.496,18.182,12.628c0,0,4.811-7.046,6.345-9.064
	c2.227-2.897,3.79-4.764,5.862-7.004c5.294-6.556,10.76-8.724,13.034-12.043c3.331-4.863,3.475-10.628,0.733-15.55
	c-2.702-4.695-7.957-7.915-11.446-11.803L64.063,80.608z M110.189,80.987h6.014c0,0-0.883,0.739-1.561,1.193
	c-0.425,0.285-0.922,0.246-1.857-0.147C111.875,81.652,110.189,80.987,110.189,80.987z M117.076,80.987l1.401,0.043
	c-1.048,1.32-2.122,2.173-3.53,3.347c-0.182,0.079-0.283,0.111-0.706-0.026c-2.874-0.954-5.512-2.166-8.312-3.313l2.495-0.012
	c0,0,1.2,0.385,3.005,1.135c2.068,0.86,2.604,1.126,3.402,0.601C115.602,82.249,116.238,81.477,117.076,80.987L117.076,80.987z
	 M119.914,80.987l-0.502,1.849c-0.839,1.05-2.535,2.261-3.951,3.455c-0.332,0.174-0.32,0.205-1.772-0.36
	c-5.345-2.082-7.929-3.437-7.929-3.437l-1.085-0.972c0,0,1.394,0.399,2.313,0.763c0.627,0.248,1.695,0.654,2.375,0.906
	s2.183,0.894,3.186,1.29c2.314,0.916,2.186,0.944,4.403-1.019C119.353,81.338,119.914,80.987,119.914,80.987z M38.941,81.158
	l2.332,2.681l-3.108,2.622l-2.349-2.773L38.941,81.158z M127.446,81.16c0.536,1.008,0.896,2.198,1.768,3.046
	c0.655,0.628,0.818,1.111,0.43,1.465c-1.015,0.629-1.189-0.387-1.504-1.051C127.586,83.45,126.911,81.87,127.446,81.16z
	 M43.097,81.429h0.182c2.487,0.038,3.074,3.725,0.733,4.61c-0.839,0.316-1.805,0.173-2.324-0.349
	c-0.506-0.507-0.576-0.935-0.229-1.2c0.54-0.385,1.823-0.411,1.823-0.411s-1.166-0.396-1.686-0.688
	C40.573,82.807,41.459,81.494,43.097,81.429z M94.31,81.433c0.141,0.009,0.383,0.295,0.727,0.864
	c1.255,2.078,1.188,6.033-0.12,7.035c-0.68,0.52-1.527,0.445-2.097-0.187c-0.751-0.833-0.52-1.675,0.595-2.169
	c1.076-0.478,1.295-1.544,0.857-4.18C94.118,81.878,94.129,81.423,94.31,81.433z M33.952,81.499
	c0.742-0.026,1.458,0.265,1.814,0.852c0.264,0.435,0.136,0.754-0.361,0.97c-0.604,0.24-1.751,0.457-1.751,0.457
	s1.112,0.184,1.784,0.457c0.841,0.373,0.776,1.057-0.456,1.644c-2.373,1.131-4.613-1.959-2.656-3.732
	C32.781,81.732,33.374,81.52,33.952,81.499z M96.337,82.99h0.058c0.218,0.026,0.62,0.343,1.023,0.879
	c1.414,1.88,1.66,4.703,0.456,5.253c-1.272,0.581-2.187-0.617-1.271-1.665c0.648-0.742,0.568-1.828-0.294-3.979
	C96.185,83.166,96.214,83.01,96.337,82.99z M126.881,83.079c0.111-0.009,0.314,0.443,0.642,1.356
	c0.719,2.008,1.334,2.851,2.073,2.851c0.93,0,1.418,1.278,0.684,1.794c-1.449,1.018-3.348-1.477-3.487-4.587
	C126.751,83.559,126.77,83.088,126.881,83.079z M119.219,84.083l-0.429,1.638c0,0-0.988,0.964-1.695,1.577
	c-1.123,0.974-1.399,1.167-2.286,0.864c-1.365-0.473-2.715-0.901-4.137-1.333l-3.286-2.728l7.5,2.937c0,0,0.649,0.192,0.876-0.035
	C116.744,86.019,117.823,85.256,119.219,84.083L119.219,84.083z M126.294,85.616c0.095-0.021,0.188,0.1,0.255,0.399
	c0.34,1.543,0.833,2.662,1.248,2.836c0.525,0.22,0.727,0.677,0.506,1.143c-0.639,1.343-2.317-1.029-2.317-3.273
	C125.984,86.084,126.137,85.652,126.294,85.616z M99.226,85.725c0.092-0.005,0.239,0.132,0.472,0.364
	c1.037,1.04,1.35,3.914,0.518,4.75c-1.204,1.207-2.489-0.588-1.321-1.845c0.31-0.332,0.31-0.355,0.235-1.828
	C99.078,86.141,99.073,85.734,99.226,85.725z M36.4,86.012l-0.812,2.696l-2.591,0.67l0.605-2.22L36.4,86.012z M39.505,86.287
	c0.206-0.009,0.438,0.069,0.684,0.248c1.056,0.767,1.143,2.077,0.649,3.044c-0.473,0.944-1.438,1.216-2.371,1.12
	c-1.212-0.136-2.127-0.982-2.063-2.278c0.021-0.649,0.303-1.369,0.741-1.677c0.308-0.217,0.562-0.128,0.828,0.316
	c0.249,0.435,0.675,1.419,0.675,1.419s0.014-1.01,0.156-1.529C38.921,86.536,39.178,86.3,39.505,86.287z M41.482,86.523l1.877,0.643
	l0.742,2.557L42,88.905L41.482,86.523z M148.496,87c0,0,0.539,0.229,3.102,2.27c0.641,0.511,1.723,1.487,1.723,1.487l-0.063,33.365
	l-6.084-3.793l0.318-2.921c0,0,0.836-8.825,1.476-13.449c0.446-5.154,1.435-6.634-2.005-8.819c3.702-2.332,2.657-5.96,0.334-7.471
	L148.496,87z M118.312,87.127l-0.34,1.526c-1.219,2.093-2.31,1.985-4.175,1.016l-2.24-1.91c1.449,0.303,2.229,0.769,3.646,1.216
	c0.703,0.195,0.961,0.07,1.455-0.375C117.228,88.08,117.656,87.691,118.312,87.127z M101.705,87.93
	c0.76,0.83,0.957,1.649,0.893,3.672c-0.146,1.438-0.082,2.51-1.26,3.316c-0.574,0.377-1.567,0.378-2.012,0.004
	c-1.064-0.716-0.478-2.146,0.918-2.217c0.881-0.016,1.242-2.902,0.743-4.706c-0.078-0.28-0.058-0.464,0.08-0.477
	C101.206,87.509,101.464,87.665,101.705,87.93z M125.506,87.82c0.172-0.001,0.474,0.438,0.653,1.154
	c0.26,1.039,0.625,1.621,1.197,1.914c0.733,0.375,0.971,1.097,0.502,1.522c-0.934,0.848-1.888-0.169-2.193-2.336
	C125.65,89.829,125.222,87.844,125.506,87.82z M145.542,88.177c2.081,0.033,3.259,1.494,3.257,3.265
	c-0.022,1.277-0.719,2.575-1.999,3.114c-3.057,0.902-4.726-1.15-4.696-3.147C142.126,89.797,143.461,88.145,145.542,88.177z
	 M103.524,89.335c1.751,1.757,1.829,5.513,0.116,5.513c-2.056-0.683-0.452-1.899-0.413-2.216c0.16-1.294-0.136-2.123-0.437-3.331
	C102.658,88.586,103.332,89.126,103.524,89.335z M145.654,89.165c-0.367-0.011-0.341,0.359,0.332,0.941
	c1.221,1.055,0.623,3.001-0.923,3.01c-0.714,0.004-0.889,0.485-0.267,0.736c2.4,0.967,4.04-2.694,1.889-4.219
	C146.236,89.315,145.875,89.172,145.654,89.165z M53.834,89.656c1.932,0.661,2.598,4.354,2.672,5.656
	c0.087,2.267-0.966,5.973-1.904,6.713c-2.43,1.918-3.569-4.86-1.49-9.223c0.182-0.358,0.409-0.841,0.324-1.732
	C53.351,90.187,53.5,89.663,53.834,89.656z M117.682,90.014c0,0-0.242,1.106-0.502,1.712c-0.299,0.7-0.52,0.723-1.216,0.124
	c-0.388-0.333-1.031-1.022-1.031-1.022c0.606,0.095,1.149,0.41,1.665,0.154C117.146,90.709,117.59,90.197,117.682,90.014z
	 M125.016,90.071c0.138,0.005,0.313,0.391,0.545,1.154c0.636,2.092,1.192,2.878,2.035,2.878c1.381,0,1.682,1.668,0.379,2.096
	c-0.483,0.159-0.646,0.158-1.264-0.008c-0.93-0.248-2.201-3.396-2.02-4.997C124.777,90.441,124.879,90.066,125.016,90.071z
	 M39.977,91.288c0.507-0.013,0.706,0.237,1.004,0.855c0.339,0.704,1.229,1.598,1.98,1.987c1.814,0.895,3.727,1.594,5.52,2.491
	c2.324,1.171,4.408,4.759,2.981,5.133c-0.518,0.119-1.112,0.126-1.642,0.077c-0.173-0.091-0.51-0.482-0.749-0.875
	c-1.061-1.741-3.044-3.445-6.103-4.242c-2.156-0.563-4.088-3.227-4.502-4.479c-0.108-0.324-0.113-0.578,0.178-0.662
	C39.258,91.397,39.672,91.295,39.977,91.288z M105.536,91.505c0.097-0.017,0.238,0.107,0.452,0.337
	c1.283,1.376,1.442,3.902,0.289,4.617c-1.25,0.775-2.344-0.507-1.363-1.596c0.434-0.48,0.433-0.48,0.434-1.922
	C105.347,91.948,105.376,91.531,105.536,91.505z M124.221,93.108c0.153,0.007,0.385,0.434,0.664,1.274
	c0.396,1.193,0.45,1.287,0.903,1.522c0.767,0.397,0.892,0.993,0.328,1.558c-1.049,1.052-2.104-0.642-2.108-3.378
	C124.008,93.427,124.085,93.103,124.221,93.108z M107.443,93.298c0.095,0.009,0.361,0.219,0.568,0.465
	c1.572,1.87,1.256,6.25-0.498,6.907c-0.586,0.22-0.764,0.231-1.128,0.073c-1.308-0.567-1.147-1.952,0.464-2.831
	C108.055,97.254,107.195,93.314,107.443,93.298z M27.051,94.678l6.492,3.23c0,0,1.779,3.758,2.599,5.167
	c0.563,0.978,1.688,1.921,0.525,2.572c-1.953,1.328-3.061,2.085-3.043,2.909c0.015,0.668,0.841,1.348,1.954,2.661
	c1.598,1.888,1.582,1.453,0.131,4.331c-1.112,2.019-2.059,6.59-2.059,6.59l-6.558,3.389c1.952-4.675,4.249-8.653,6.824-11.497
	c-1.913-1.425-3.521-2.907-5.198-4.877c1.238-1.662,2.871-3.005,4.38-4.451C30.035,101.23,28.117,97.899,27.051,94.678z
	 M109.155,94.735h0.034c0.272,0.018,0.895,0.696,1.44,1.786c0.706,1.406,0.774,3.179,0.147,3.808
	c-1.082,1.085-2.49-0.31-1.479-1.464c0.713-0.521,0.519-1.813-0.042-3.157C108.996,95.063,109,94.761,109.155,94.735L109.155,94.735
	z M26.332,95.367c1.689,3.6,3.578,6.527,5.516,9.301l-4.226,4.446c1.301,1.515,2.878,3.141,5.09,5.028
	c-2.717,3.031-4.499,7.274-6.283,11.28L26.332,95.367z M123.498,95.444c0.146,0.011,0.354,0.447,0.568,1.324
	c0.269,1.106,0.453,1.39,1.097,1.666c1.022,0.439,1.045,1.43,0.042,1.786c-0.367,0.131-1.056-0.24-1.34-0.725
	c-0.375-0.692-0.568-1.623-0.564-2.476C123.242,95.966,123.332,95.432,123.498,95.444z M146.924,96.111
	c1.596,0.448,2.174,2.054,1.862,5.027c-0.417,3.977-0.907,8.401-1.306,12.055c-0.459,4.215-0.839,6.895-0.839,6.895l-0.393-0.304
	c0,0,0.113-2.279,0.263-3.678c0.357-3.147,0.555-5.903,0.857-9.049c0.679-6.997,0.513-9.209-0.75-9.854
	c-0.976-0.5-1.396-0.205-0.676,0.477c1.374,1.062,1.331,1.506-0.139,18.737c-0.15,1.782-0.212,3.044-0.212,3.044l-1.865-1.162
	c0,0-0.139-1.477-0.313-3.707c-0.421-4.2-0.667-8.679-0.945-12.705c-0.3-4.296,0.502-5.8,3.158-5.904
	C146.052,95.967,146.523,96,146.924,96.111z M112.65,98.607c0.203,0.568,1.13,4.807-1.24,3.59c-0.632-0.358-0.666-0.918-0.201-1.462
	c0.521-0.608,0.645-1.482,0.383-2.73c-0.159-0.76-0.352-1.39-0.352-1.39C111.697,96.783,112.598,98.459,112.65,98.607z
	 M42.174,97.278c2.005,0.382,4.207,1.556,5.627,3.022c0.881,0.938,0.836,1.695-0.541,1.783c-1.325,0.195-1.354,0.411-1.987-0.139
	c-0.284-0.223-0.838-0.771-1.469-0.869C41.803,100.767,40.782,97.014,42.174,97.278z M123.104,98.389
	c0.211,0.341,0.233,1.011,0.409,1.491c0.299,1.343,1.218,2.336,2.043,2.212c0.555-0.067,1.32,0.101,1.402,0.767
	c0.16,0.563-0.134,1.097-0.742,1.341c-0.687,0.275-1.461,0.105-2.047-0.446C122.936,102.59,122.183,98.794,123.104,98.389
	L123.104,98.389z M113.46,98.44c0.72,0.277,1.637,2.587,1.735,4.418c0,1.312-0.205,2.962-1.332,3.587
	c-0.717,0.372-1.457,0.187-1.781-0.441c-0.396-0.77-0.102-1.565,0.719-1.937c1.004-0.454,1.33-2.496,0.719-4.49
	C113.484,99.245,112.982,98.303,113.46,98.44z M36.871,99.399l5.291,2.688c-0.77,1.054-1.375,2.032-1.792,3.146
	C38.689,103.32,37.807,101.37,36.871,99.399z M115.449,100.319c0.09-0.002,0.395,0.289,0.661,0.548
	c1.32,1.283,1.89,3.611,1.093,4.463c-0.637,0.681-1.752,0.633-1.938-0.081c-0.067-0.351,0.304-1.007,0.468-1.321
	c0.243-0.469,0.287-1.807-0.082-2.785C115.485,100.704,115.332,100.322,115.449,100.319z M78.692,100.848l5.978,0.206l20.028,18.094
	l-1.881-0.042l-18.402-16.82l-5.728,0.016L78.692,100.848z M44.249,104.107c-2.282,3.639-2.905,8.226-1.504,12.302
	c1.064,2.891-1.259,3.063-2.212,1.158c-0.732-1.424-1.154-3.903-0.932-6.543c0.313-4.269,2.277-8.554,3.85-9.068
	C45.048,101.434,44.697,103.526,44.249,104.107z M126.313,112.864c-0.607,2.846-1.732,4.263-3.329,4.854
	c-6.539,2.423-9.387-10.805-3.321-13.969C125.444,101.822,127.116,109.105,126.313,112.864z M78.329,104.222l5.639,0.116
	c5.14,4.689,10.665,9.065,16.166,14.768h-2.661c0,0-0.777-0.742-0.962-0.919c-4.972-4.454-8.654-8.09-13.447-12.229l-5.032-0.139
	L78.329,104.222z M121.348,105.095c-3.049,0.123-3.298,4.267-3.206,5.836c0.222,2.261,1.12,5.603,3.981,5.339
	c2.1-0.21,3.071-2.704,2.88-5.699C124.822,107.752,123.676,105.092,121.348,105.095z M77.815,106.469l4.947,0.112
	c4.358,3.813,8.967,7.954,13.548,12.524h-2.159c0,0-0.564-0.54-0.733-0.713c-3.709-3.362-7.478-7.109-11.072-10.13l-5.133-0.202
	L77.815,106.469z M121.428,106.632c0.866,0.321,1.011,2.437,0.256,3.313c-0.519,0.601-1.709-0.536-1.815-1.969
	C119.803,107.103,120.649,106.342,121.428,106.632z M39.664,106.895c-0.398,1.368-0.66,2.905-0.823,4.567l-2.069-2.638
	L39.664,106.895z M123,109.44c0.506,0,0.915,0.41,0.915,0.918c0,0.507-0.409,0.918-0.915,0.918s-0.915-0.411-0.915-0.918
	C122.085,109.851,122.494,109.44,123,109.44z M81.434,109.901l9.86,9.297l-2.808,0.03l-8.087-7.352l-5.133-0.194l1.004-1.755
	L81.434,109.901z M119.779,110.06c0.506,0,0.915,0.411,0.915,0.918c0,0.508-0.409,0.918-0.915,0.918s-0.916-0.41-0.916-0.918
	C118.863,110.471,119.273,110.06,119.779,110.06z M131.516,110.079c5.558,4.333,13.403,10.082,21.553,14.743
	c0-0.016-1.343,1.059-2.579,1.398c-6.343-3.507-13.89-8.454-18.564-12.465c-4.413,6.516-12.89,18.37-20.426,23.843
	c-4.755,3.412-7.15,7.618-7.137,12.535c0.015,5.086,1.805,8.396,6.794,12.563c3.217,2.688,6.734,6.116,6.734,6.116l-1.85,1.601
	c-0.308-0.038-5.397-4.437-10.547-9.623c-2.83-2.85-4.089-9.104-3.607-12.48c0.655-4.591,2.181-7.881,6.52-11.424
	c1.666-1.294,3.348-2.298,4.815-3.77C126.701,118.654,131.516,110.079,131.516,110.079z M122.494,112.442
	c0.51,1.051,0.789,2.429-0.808,2.521c-0.946,0.055-1.487-1.524-0.668-2.933C121.639,110.924,122.191,111.866,122.494,112.442z
	 M74.992,112.163l5.322,0.159c0,0,5.248,4.588,7.897,7.131h17.826c9.804,0,17.862,0.04,17.908,0.086
	c0.122,0.122-1.267,1.991-1.267,1.991l-58.795,0.034c0.013-0.009,3.632-3.241,4.929-4.148
	C71.108,115.811,73.212,114.315,74.992,112.163z M38.965,114.383c0.385,1.424,0.706,2.876,1.371,4.188l-4.082,2.174
	C37.004,118.576,37.862,116.491,38.965,114.383z M152.319,126.221c-0.811,2.217-2.933,6.738-5.495,10.165
	c-0.509,0.657-0.857,1.17-0.857,1.17l5.001,4.804l-4.341,4.629c2.438,2.545,4.5,6.441,5.584,9.545
	c-1.969-0.78-3.074-1.252-5.503-2.607c-0.687-1.728-1.387-3.559-2.159-5.137c-1.771-3.6-1.747-3.248-0.301-4.307
	c2.117-1.552,2.748-1.911,2.197-2.692c-0.387-0.55-2.885-3.524-3.035-3.618c-0.229-0.143-0.127-0.583,0.297-1.286
	c1.447-2.607,2.634-5.48,3.372-8.034L152.319,126.221z M153.266,126.403l0.131,30.27c-1.791-3.616-3.654-7.311-5.73-9.619
	c-0.078-0.156,4.53-4.671,4.53-4.671c-1.689-1.57-2.677-2.508-5.036-4.688C149.457,134.374,151.276,130.031,153.266,126.403z
	 M26.437,127.453l5.733,3.339c-0.303,4.27-0.686,9.874-1.273,15.561c-0.492,4.438-0.695,6.481,0.089,7.713
	c0.664,0.9,2.455,1.875,2.455,1.875c-3.016,1.226-4.179,4.836-0.798,7.538c0,0-0.821,0.648-1.186,1.038l-4.704-3.528L26.437,127.453
	z M116.184,128.983c-1.43,1.606-3.672,3.989-5.391,5.129c-2.295,1.52-5.516,4.438-5.361,4.481c0,0-3.375-0.017-5.661-0.108
	l-7.886-7.058c0,0,0.281-0.104-10.451-0.016c-13.87,0.114-25.109-0.039-25.109-0.039l1.575-2.22L116.184,128.983z M144.295,130.37
	c-0.777,2.502-1.981,4.815-3.507,6.984c-0.354-1.539-0.548-3.172-1.286-4.479L144.295,130.37z M32.897,131.172l0.688,0.492
	c0,0-0.41,5.223-0.545,6.752c-0.241,2.824-0.36,5.369-0.606,8.247c-0.494,5.713-0.411,6.556,0.707,7.438
	c0.859,0.646,1.446,0.353,0.684-0.465c-0.503-0.648-0.5-0.635-0.652-1.588c-0.106-0.663-0.09-1.651,0.061-4.331
	c0.852-15.095,1.028-15.603,1.047-15.607l1.714,1.111c-0.095,0.232,1.571,15.215,1.401,18.939c-0.197,4.354-6.041,3.393-6.318,0.16
	c-0.115-0.742,0.994-12.971,0.994-12.971L32.897,131.172z M80.564,132.051l2.295,0.066l14.149,13.047l4.823,0.104l-0.42,1.646
	l-4.662-0.012L80.564,132.051z M89.34,132.051h2.221l8.098,7.364l4.986,0.077l-0.95,1.418l-4.959-0.144L89.34,132.051z
	 M86.574,132.059l11.973,10.828l4.082,0.213l-0.63,1.479l-4.839-0.136l-13.451-12.357L86.574,132.059z M75.031,132.098h2.486
	l18.716,16.901l4.904,0.089l-0.073,1.522l-5.905-0.027L75.031,132.098z M138.012,132.578c0.986,0.248,1.474,1.209,2.17,4.769
	c0.812,4.151-0.947,10.892-3.151,12.156c-1.141,0.899-2.382-0.055-1.575-1.229c2.629-3.831,2.977-10.099,1.421-13.604
	C136.383,133.543,136.891,132.375,138.012,132.578z M58.61,133.202c5.979,0.071,7.525,12.391,1.643,14.118
	c-3.821,0.565-5.789-2.903-6.344-6.034C53.256,137.396,54.965,133.158,58.61,133.202z M55.323,140.592
	c0.357,2.469,1.884,5.297,4.103,5.055c2.918-0.318,3.285-4.226,2.996-6.193c-0.35-2.373-1.654-4.525-3.738-4.644
	C55.575,134.633,55.048,138.688,55.323,140.592z M58.529,135.797c0.834-0.014,1.448,1.104,1.22,2.491
	c-0.147,0.897-0.488,2.003-1.494,1.252c-0.469-0.429-0.889-1.687-0.776-2.627C57.553,136.295,57.857,135.814,58.529,135.797z
	 M140.988,138.645l2.808,3.258l-3.189,2.243C141.055,142.431,141.203,140.607,140.988,138.645z M60.564,138.938
	c0.505,0,0.915,0.415,0.915,0.923c0,0.507-0.41,0.918-0.915,0.918c-0.506,0-0.916-0.411-0.916-0.918
	C59.648,139.354,60.059,138.938,60.564,138.938z M57.289,139.504c0.506,0,0.915,0.411,0.915,0.919c0,0.507-0.409,0.918-0.915,0.918
	s-0.919-0.411-0.919-0.918C56.37,139.915,56.783,139.504,57.289,139.504z M59.143,140.689c0.46,0.141,0.754,0.564,1,0.933
	c0.613,0.914,0.692,2.061,0.258,2.541c-0.88,1.048-2.254-0.073-2.088-1.691C58.434,141.285,58.748,140.569,59.143,140.689z
	 M66.982,144.285c1.313,0,1.684,1.553,0.552,2.313c-0.735,0.493-0.898,2.1-0.444,4.322c0.369,1.606,0.176,1.854-0.779,0.407
	C64.678,148.703,65.1,144.285,66.982,144.285z M63.912,145.129c1.151-0.044,1.521,0.839,0.85,1.515
	c-0.394,0.438-0.354,1.595,0.085,2.545c0.621,1.377,0.476,1.793-0.688,0.469C62.552,147.935,62.577,145.18,63.912,145.129z
	 M140.046,145.799c1.307,1.743,2.465,4.017,3.522,6.594l-5.666-2.611L140.046,145.799z M57.255,152.806
	c-0.4-0.466-0.595-1.974-0.924-2.617c-0.255-0.773-0.478-1.224-0.894-1.198c-2.395,0.204-2.293-2.092-0.918-2.525
	C57.363,145.567,58.4,152.454,57.255,152.806z M69.133,150.488c-0.406,1.203-0.111,1.923-0.027,3.208
	c0.072,0.584,0.102,0.738-0.377,0.29c-1.135-0.993-1.738-4.385-0.716-5.014C69.388,148.128,69.805,149.555,69.133,150.488z
	 M125.893,148.879c0.555-0.025,1.186,0.408,1.498,1.205c0.449,1.146,0.408,3.957,0.182,5.454c-0.348,2.29-0.898,4.395-1.124,5.97
	c-0.802,0.955-2.776-2.426-2.962-5.095c-0.311-2.116,0.416-6.513,2.039-7.441C125.641,148.916,125.764,148.885,125.893,148.879
	L125.893,148.879z M133.541,149.239c0.496-0.022,0.384,0.146,0.751,0.53c0.558,0.586,0.784,0.728,1.571,0.977
	c1.625,0.513,3.412,2.785,2.724,3.476c-0.544,0.433-2.024-0.385-2.53-0.559c-0.544-0.188-1.223-0.422-1.51-0.52
	c-1.362-0.46-3.32-2.979-2.711-3.486C132.161,149.387,133.154,149.257,133.541,149.239z M129.58,149.657
	c1.007,0.011,1.281,0.262,1.857,1.349c0.854,1.61,2.439,2.746,4.742,3.4c2.94,0.9,5.478,2.61,5.354,5.776
	c-0.701,0.007-1.402,0.054-2.104,0.269c-0.813-2.298-2.839-3.614-4.581-4.011c-4.02-0.915-7.75-5.005-6.688-6.628
	C128.623,149.575,129.12,149.652,129.58,149.657z M60.247,149.859L94.97,180.19c-14.653-5.453-28.097-5.336-41.095-3.319
	L60.247,149.859z M75.056,151.867c-0.065,0.944-1.357,1.146-1.624,1.379c-0.649,0.566-0.563,2.202-0.285,4.108
	c0.212,1.146-0.072,1.095-0.673,0.198c-1.063-1.589-1.041-4.343-0.336-5.965C73.045,149.498,75.146,150.544,75.056,151.867
	L75.056,151.867z M55.088,150.382c1.331,0.139,1.698,1.956,1.753,3.161c0,1.66-0.47,1.598-0.733,0
	c-0.126-0.708-0.346-0.983-0.916-1.154C53.896,151.999,53.813,150.382,55.088,150.382z M71.223,152.237
	c-0.342,0.377-0.349,2.137-0.038,3.32c0.171,0.654-0.146,0.704-0.587,0.186c-1.437-1.689-1.568-4.556-0.236-5.109
	C71.447,150.351,71.729,151.68,71.223,152.237z M56.2,155.627c0.032,1.687-0.352,1.842-0.857,0.225
	c-0.13-0.376-0.36-0.754-0.525-0.867c-0.945-0.649-1.112-1.155-0.563-1.705C55.599,152.178,56.182,155.125,56.2,155.627z
	 M61.274,154.14l-4.708,20.14c11.588-0.975,16.852-1.179,29.231,1.247L61.274,154.14z M75.313,154.473
	c0.709,0.178,0.953,1.105,0.127,1.983c-0.271,0.348-0.523,0.885-0.192,2.308c0.452,1.948-0.31,1.325-1.236-0.514
	C73.417,157.071,73.689,154.064,75.313,154.473z M53.148,154.534c1.26,0,2.427,2.05,2.445,4.293
	c0.014,1.812-0.244,1.681-0.915-0.051c-0.473-1.146-0.854-1.561-1.711-1.859C51.379,156.362,51.518,154.535,53.148,154.534z
	 M61.656,155.115l21.805,19.113c-8.929-1.431-17.694-1.541-26.207-0.469L61.656,155.115z M79.804,155.836
	c1.711,0,2.384,2.119,0.286,2.861c-1.25,0.441-0.717,2.978-0.486,4.483c0.087,0.568-0.092,0.608-0.452,0.101
	C77.834,161.331,77.098,156.413,79.804,155.836L79.804,155.836z M77.494,158.219c-0.31,0.49-0.345,1.018-0.131,1.968
	c0.555,2.044,0.698,2.423-0.46,1.383c-1.219-1.293-1.751-3.852-0.729-4.609C77.32,156.108,78.354,157.053,77.494,158.219z
	 M34.407,156.641c2.024-0.015,3.495,1.3,3.417,3.133c-0.086,2.018-1.346,3.291-3.197,3.397c-2.066,0.104-3.343-1.549-3.389-3.263
	C31.197,158.396,32.158,156.657,34.407,156.641z M34.373,157.451c-2.316-0.007-3.185,3.057-1.268,4.471
	c0.822,0.606,1.472,0.436,0.796-0.209c-1.273-1.215-0.762-3.222,0.915-3.591C35.646,157.939,35.324,157.454,34.373,157.451z
	 M62.576,157.971l-2.788,13.565c5.704-0.889,12.604-0.617,17.931-0.116L62.576,157.971z M53.184,158.486
	c1.388-0.071,1.793,2.021,1.804,2.854c0,1.077-0.126,1.638-0.323,1.063c-0.467-1.358-0.928-2.104-1.429-2.104
	c-0.272-0.07-0.504-0.18-0.724-0.426C52.02,159.219,52.497,158.514,53.184,158.486z M62.835,159.028l1.839,1.564
	c-1.184-0.52-2.19,0.825-2.19,0.825L62.835,159.028z M81.755,161.589c-0.533,0.673-0.53,2.093-0.116,3.746
	c0.116,0.462-0.314,0.119-0.749-0.431c-0.823-1.04-1.209-2.259-1.06-3.258C79.995,159.12,83.191,159.612,81.755,161.589z
	 M52.674,160.38c1.19,0.136,1.639,2.627,1.611,3.382c-0.04,0.79-0.219,1.322-0.375,0.843c-0.306-1.042-0.939-2.537-1.486-2.88
	C51.484,161.137,51.75,160.463,52.674,160.38z M143.764,163.172c0.042,0.879-0.322,1.778-0.862,2.068
	c-0.552,0.296-0.888-0.105-1.218-1.118c-0.242-0.745-0.327-1.031-0.327-1.031s-0.204,0.932-0.27,1.127
	c-0.43,1.293-1.83,1.305-2.417-0.14c-0.624-1.685,1.119-3.41,2.46-3.349C142.616,160.798,143.685,161.76,143.764,163.172z
	 M64.303,161.29c0.418,0,2.039,0.729,2.039,0.729l1.614,1.434c0,0-1.485-0.647-2.009-0.833c-1.25-0.443-1.223-0.447-2.232,0.38
	c-1.039,0.852-1.892,1.476-1.892,1.476l0.32-1.84C62.144,162.635,63.664,161.291,64.303,161.29z M53.709,165.812
	c0.238,1.944-0.304,2.108-0.83,0.251c-0.451-1.59-0.895-2.169-1.66-2.169c-1.41,0.211-1.885-1.888-0.618-2.309
	C52.992,160.911,53.607,165.044,53.709,165.812z M135.659,161.546l2.205,1.026l0.468,2.29l-2.032-0.504L135.659,161.546z
	 M86.235,161.757c2.122-0.59,2.385,2.06,0.758,2.451c-0.993,0.239-0.987,1.782-0.705,4.024c0.065,0.511,0.202,1.131,0.17,1.216
	c-0.151,0.406-0.656-0.214-1.336-1.649C84.107,165.179,84.424,162.261,86.235,161.757z M146.901,161.725l-0.614,2.649l-1.865-0.128
	l-0.069-1.623L146.901,161.725z M84.058,163.447c-1.022,1.483-0.104,2.854,0.123,4.016c0.04,0.675-0.829,0.014-1.329-0.97
	c-1.043-2.052-1.104-3.708-0.166-4.447C84,161.273,84.604,162.654,84.058,163.447z M64.921,163.084c0.36,0.004,0.85,0.2,1.877,0.597
	c0.778,0.3,2.579,1.034,2.579,1.034l2.383,2.111c0,0-2.092-0.773-3.549-1.391c-3.28-1.391-2.81-1.436-5.402,0.546
	c-0.749,0.571-1.529,1.225-1.529,1.225l0.316-1.697c0,0,0.979-0.976,2.201-1.859C64.323,163.269,64.56,163.08,64.921,163.084z
	 M34.404,163.886c1.678-0.047,2.781,1.293,3.186,2.789c0.234,0.867,0.032,1.667-0.016,2.499c-1.158,8.906-1.668,17.172-2.733,25.419
	c-0.132,0.394-0.274,0.248-0.444-0.461c-1.233-7.478-2.037-15.685-3.074-23.095c-0.237-2.768-0.949-6.386,2.541-7.093
	C34.05,163.908,34.23,163.891,34.404,163.886z M34.304,164.874c-0.741,0.029-1.616,0.539-1.928,1.196
	c-0.635,1.343-0.469,4.075,0.738,12.265c0.101,0.682,0.239,1.82,0.309,2.529c0.212,2.175,0.499,3.901,0.707,4.223
	c0.395,0.61,0.445-0.046,0.162-2.173c-0.145-1.086-0.341-2.746-0.437-3.688c-0.542-3.884-0.66-6.647-0.996-10.191
	c-0.168-1.742,0.53-3.026,1.842-3.374c0.71-0.188,0.748-0.509,0.085-0.725C34.639,164.888,34.475,164.867,34.304,164.874z
	 M145.334,164.982c2.451,0.006,3.354,3.449,0.953,4.664c-0.891,0.45-2.384,0.238-2.755-0.481c-0.18-0.561,0.021-0.886,0.466-1.124
	c0.542-0.289,1.336-0.537,1.336-0.537s-1.299-0.252-1.664-0.869C142.881,165.306,144.328,165.008,145.334,164.982L145.334,164.982z
	 M53.072,168.697c-0.027,0.648-0.357,0.381-0.44,0c-0.265-0.864-0.815-1.801-1.278-2.174c-0.559-0.45-0.691-1.061-0.313-1.44
	C52.465,163.821,53.064,168.293,53.072,168.697z M136.268,164.974c0.628-0.019,1.481,0.195,2.021,0.736
	c0.697,0.7,0.66,0.962-0.508,1.389c-0.567,0.212-0.958,0.376-0.958,0.376s0.526,0.208,0.918,0.317
	c1.12,0.375,1.061,1.026,0.032,1.797c-1.4,1.049-3.65-0.344-3.624-2.189C134.17,165.936,135.07,165.008,136.268,164.974
	L136.268,164.974z M141.444,164.963l2.24,2.475l-2.618,2.72l-2.465-2.712L141.444,164.963z M65.326,165.195h0.097
	c0.694,0.013,1.802,0.482,4.519,1.58c1.492,0.604,3.217,1.29,3.217,1.29l2.444,2.169c0,0-3.349-1.054-4.515-1.646
	c-0.253-0.129-0.81-0.366-1.236-0.527c-0.426-0.16-1.484-0.575-2.352-0.926c-1.864-0.753-1.885-0.758-2.51-0.229
	c-0.268,0.227-0.923,0.742-1.456,1.146s-1.312,0.998-1.73,1.317c-0.493,0.376-1.116,0.945-1.116,0.945l0.395-2.092
	c0,0,0.352-0.346,0.98-0.829c0.51-0.392,1.379-1.06,1.932-1.483C64.555,165.48,64.847,165.218,65.326,165.195z M89.366,167.031
	c0.069,0.436,0.028,0.52-0.471,1.03c-0.631,0.646-0.717,1.704-0.255,3.076c0.127,0.378,0.282,0.826,0.248,0.86
	c-0.666,0.669-2.42-3.551-2.002-4.808C87.388,165.687,89.034,165.664,89.366,167.031z M50.921,167.213
	c0.459-0.021,0.992,0.328,1.259,1.054c0.725,2.031,0.281,4.521-0.459,2.2c-0.192-0.49-0.523-1.019-0.776-1.285
	c-0.26-0.277-0.844-0.599-0.83-1.05C50.171,167.539,50.516,167.232,50.921,167.213z M65.909,167.271
	c0.294,0.01,0.686,0.156,1.39,0.445c0.637,0.262,2.43,0.86,3.449,1.255c1.583,0.613,3.236,1.422,3.236,1.422l-3.584-0.201
	c0,0-1.218-0.406-1.942-0.705c-2.625-1.082-2.479-1.076-3.785-0.081c-0.467,0.355-1.054,0.93-1.054,0.93l-1.823,0.101
	c0,0,0.856-0.917,2.093-1.837c0.405-0.3,0.957-0.729,1.225-0.952C65.421,167.39,65.615,167.262,65.909,167.271z M93.947,167.98
	c0.998-0.189,1.544,0.764,1.481,1.358c-0.069,0.653-0.674,1.304-1.603,1.484c-0.196,0.729-0.753,2.394-0.428,4.878
	c0.262,1.163-0.229,1.189-0.73,0.073C91.856,173.966,90.674,168.603,93.947,167.98z M91.101,169.972
	c-0.423,0.906-0.569,1.638-0.336,2.781c0.26,1.271,0.314,1.585-0.405,0.79c-1.395-1.865-1.599-4.834-0.313-5.176
	C91.287,168.039,91.559,169.389,91.101,169.972z M49.291,168.581c2.178,0.345,2.818,4.064,2.515,5.655
	c-0.577,1.926-0.548,0.625-0.749-0.178c-0.536-1.938-1.156-2.992-1.819-3.104C47.452,170.657,47.702,168.329,49.291,168.581
	L49.291,168.581z M65.975,169.313l0.104,0.009c0.716,0.12,2.635,0.714,1.808,0.914l-2.831,0.016
	C64.506,170.271,65.413,169.354,65.975,169.313L65.975,169.313z M142.201,169.921c0.274-0.024,0.649,0.298,1.089,0.748
	c1.007,1.029,0.565,2.651-0.795,3.451c-2.137,1.256-4.567-1.111-3.395-3.285c0.644-1.192,1.417-0.979,2.077,0.704
	c0.12,0.204,0-0.211,0.225-0.723C141.627,170.306,141.927,169.946,142.201,169.921z M138.617,170.041l-0.641,2.588l-2.604,1.255
	l0.95-3.188L138.617,170.041z M144.031,170.482l2.074,0.167l1.151,3.362l-2.989-1.278L144.031,170.482z M95.027,172.383
	c1.509,0.063,1.662,1.492,0.796,2.117c-0.485,0.466-0.653,1.141-0.552,2.22c0.045,0.479,0.139,1.066,0.135,1.135
	c-0.015,0.229-0.204,0.194-0.463-0.089C93.35,176.023,93.563,172.322,95.027,172.383z M49.399,172.942
	c0.956,0,2.04,2.747,1.507,3.798c-0.336,0.617-0.661,0.465-0.783-0.251c-0.092-0.521-0.39-1.234-1.16-1.362
	C47.843,174.769,48.207,172.942,49.399,172.942z M97.785,174.604c0.73,0.379,0.799,1.222,0.139,1.692
	c-0.512,0.366-0.646,0.676-0.726,1.666c0.168,2.256-1.096,0.823-1.215-1.228C95.918,175.618,96.521,173.961,97.785,174.604z
	 M48.596,175.298c0.687,0,1.502,1.235,1.32,1.957c-0.096,0.573-0.395,0.471-0.814,0.046c-0.162-0.127-0.525-0.259-0.695-0.31
	C47.379,176.68,47.552,175.298,48.596,175.298z M68.095,176.247c9.273-0.044,18.919,1.433,26.937,4.645l-0.66,1.189l-2.104-0.725
	l-0.722,1.913l1.733,0.663l-0.814,1.767c-9.463-3.122-19.668-5.446-36.627-2.929c-0.842-0.588-2.363-1.747-2.363-1.747l1.355-0.299
	l-0.178-1.89l-3.425,0.611l-1.001-1.05C55.58,177.02,61.75,176.276,68.095,176.247z M99.198,176.661
	c0.888,0.002,1.439,1.002,0.788,1.43c-0.456,0.3-1.469,0.382-1.672,0.136C97.894,177.719,98.49,176.66,99.198,176.661z
	 M66.785,177.831l-0.038,1.96l2.796-0.089l0.058-1.859L66.785,177.831z M71.671,177.874l0.012,1.925l2.715,0.09l0.128-1.887
	L71.671,177.874z M64.568,178.006l-2.746,0.182l0.085,1.798l2.723-0.12L64.568,178.006z M76.846,178.304l-0.07,1.855l2.762,0.307
	l0.201-1.887L76.846,178.304z M59.459,178.393l-2.762,0.353l0.236,1.849l2.684-0.299L59.459,178.393z M82.183,178.993l-0.271,1.938
	l2.576,0.383l0.332-1.84L82.183,178.993z M87.288,180.078l-0.255,1.956l2.618,0.558l0.352-1.816L87.288,180.078z M68.755,182.333
	c8.694-0.011,16.617,1.491,23.291,4.036c0,0-0.864,1.87-1.17,2.072c-4.789-1.917-12.949-3.699-18.464-3.796
	c-2.021-0.075-2.469-0.13-3.213-0.388c-4.203-1.387-7.913-1.986-11.335,0.063l-1.398-0.992
	C60.691,182.654,64.803,182.337,68.755,182.333z M32.036,193.512c1.988,0.023,2.935,3.082,0.834,4.366
	c-0.563,0.319-1.305,0.277-1.9,0.008c-1.702-0.813-1.829-3.353,0.155-4.184C31.445,193.568,31.752,193.509,32.036,193.512
	L32.036,193.512z M97.017,193.613c0.712,0.436,3.341,1.604,3.341,1.604l-18.464,33.48l-4.469,0.035L97.017,193.613z M37.463,193.692
	c1.106-0.124,1.892,0.829,2.177,1.625c0.39,1.087-0.309,3.017-2.259,2.905C35.144,198.096,34.141,194.063,37.463,193.692z
	 M100.959,195.434c0.496,0.273,2.289,0.571,2.445,0.918c0.067,0.174-0.068,0.516-0.108,0.957c-0.096,1.064,0.169,2.243,0.812,3.188
	c1.052,1.467-0.088,0.793-1.14,0.783c-2.373-0.608-5.397,2.635-4.248,5.973c0.266,0.739,0.214,0.798-1.059,1.186
	c-2.887,0.882-4.146,3.955-2.759,6.699c0.723,1.43,0.744,1.357-0.527,1.463c-3.532,0.295-5.584,3.438-4.102,6.651
	c0.229,0.497,0.084,0.634-0.688,0.778c-2.411,0.444-3.491,2.467-3.796,4.688l-3.19,0.031L100.959,195.434z M104.018,196.615
	l6.129,1.678c-2.545,8.68-2.896,18.764,0.166,30.428l-14.092,0.012c1.957-1.762,1.185-4.196-1.104-4.732
	c2.22-1.278,2.221-4.681-0.439-5.089c-2.339-0.359-3.547,1.871-2.508,4.106l-0.999,0.272c0,0-0.447-0.563-0.55-0.864
	c-0.882-2.58,0.965-5.141,4.113-5.133c1.941,0.006,2.344-0.546,1.271-1.743c-1.919-2.14-1.315-5.147,1.189-6.331
	c1.153-0.545,1.833-0.185,1.833-0.185l0.061,1.419c0,0-0.468,0.045-0.832,0.104c-2.767,0.443-2.253,4.867,0.559,4.828
	c1.548-0.021,2.654-1.198,2.655-2.889c0-0.476,0-1.176,0-1.176c1.421,2.438,3.862,2.613,4.902,0.629
	c1.224-2.336-0.997-3.804-3.223-3.563c0,0,0.467-0.305,0.762-0.457c2.37-1.223,1.555-4.717-1.067-4.717
	c-1.799,0-2.848,1.677-2.269,3.455c0.093,0.285,0.313,0.742,0.313,0.742l-1.07,0.272c0,0-0.243-0.187-0.352-0.356
	c-1.836-2.879,1.112-6.05,4.827-5.33c1.36,0.428,1.316-0.516,0.553-1.367c-0.821-1.229-1.435-2.62-0.831-4.014H104.018z
	 M34.755,197.87l3.217,5.687l-3.604,6.551l-3.572-6.136L34.755,197.87z M34.438,200.83l-2.232,3.083l2.187,3.541l2.073-3.583
	L34.438,200.83z M34.342,201.988l1.451,1.952l-1.463,2.397l-1.434-2.25L34.342,201.988z M100.82,208.132
	c0.677,0,1.229,0.55,1.229,1.228c0,0.679-0.552,1.229-1.229,1.229c-0.676,0-1.225-0.55-1.225-1.229
	C99.596,208.682,100.145,208.132,100.82,208.132z M92.16,223.549c0.7,0,1.271,0.568,1.271,1.271c0,0.702-0.57,1.274-1.271,1.274
	c-0.701,0-1.268-0.572-1.268-1.274C90.893,224.117,91.459,223.549,92.16,223.549z M90.239,224.415c-0.116,0.05,0,1.155,0.28,1.612
	c-1.83,0.112-2.314,1.517-2.492,2.702l-1.639-0.005C86.662,224.717,90.123,224.627,90.239,224.415z"/>
<path d="M48.686,26.943c-7.348,10.492-15.21,16.529-15.341,24.715c-0.044,2.651,1.388,7.156,5.87,8.019
	c2.909,0.557,6.914-1.8,6.997-6.589c-0.013-0.953,1.009-0.929,0.999,0.378c-0.137,3.777-1.332,8.175-3.338,11.755
	c3.208,0,6.416,0,9.625,0c-2.007-3.58-3.201-7.978-3.338-11.755c-0.01-1.307,1.012-1.331,0.998-0.378
	c0.084,4.789,4.088,7.146,6.997,6.589c4.483-0.862,5.914-5.367,5.87-8.019C63.895,43.473,56.033,37.436,48.686,26.943z"/>
<path d="M131.142,223.45c-7.348-10.492-15.21-16.53-15.341-24.716c-0.043-2.65,1.388-7.155,5.871-8.018
	c2.908-0.557,6.913,1.8,6.996,6.589c-0.013,0.953,1.009,0.929,0.999-0.378c-0.137-3.777-1.331-8.175-3.338-11.755
	c3.208,0,6.417,0,9.625,0c-2.007,3.58-3.201,7.978-3.338,11.755c-0.01,1.307,1.012,1.331,0.999,0.378
	c0.083-4.789,4.088-7.146,6.996-6.589c4.483,0.862,5.914,5.367,5.871,8.018C146.352,206.92,138.489,212.958,131.142,223.45z"/>
</svg>
